<svg width="70" height="987" viewBox="0 0 70 987" fill="none" xmlns="http://www.w3.org/2000/svg">
<path d="M2.04993 1.18705L2.04993 0.34508L1.20795 0.34508L1.20795 1.18705L2.04993 1.18705ZM67.5116 1.18706L68.3536 1.18706L68.3536 0.345083L67.5116 0.345083L67.5116 1.18706ZM67.5116 30.3105L67.9203 31.0467L68.3536 30.8061L68.3536 30.3105L67.5116 30.3105ZM26.774 52.9229L26.3654 52.1868L25.0417 52.9215L26.3642 53.6584L26.774 52.9229ZM67.5116 75.6234L68.3536 75.6234L68.3536 75.1287L67.9215 74.8879L67.5116 75.6234ZM67.5116 103.691L67.5116 104.533L68.3536 104.533L68.3536 103.691L67.5116 103.691ZM2.04992 103.691L1.20795 103.691L1.20795 104.533L2.04992 104.533L2.04992 103.691ZM2.04992 83.4541L2.04992 82.6122L1.20795 82.6122L1.20795 83.4541L2.04992 83.4541ZM47.3628 83.4541L47.3628 84.2961L50.5454 84.2961L47.7792 82.7223L47.3628 83.4541ZM2.04992 57.6742L1.20795 57.6742L1.20795 58.1639L1.63357 58.406L2.04992 57.6742ZM2.04992 46.6759L1.63357 45.9441L1.20795 46.1862L1.20795 46.6759L2.04992 46.6759ZM47.3628 20.896L47.7792 21.6278L50.5454 20.054L47.3628 20.054L47.3628 20.896ZM2.04993 20.896L1.20795 20.896L1.20795 21.7379L2.04993 21.7379L2.04993 20.896ZM2.04993 2.02903L67.5116 2.02903L67.5116 0.345083L2.04993 0.34508L2.04993 2.02903ZM66.6697 1.18706L66.6697 30.3105L68.3536 30.3105L68.3536 1.18706L66.6697 1.18706ZM67.103 29.5743L26.3654 52.1868L27.1827 53.6591L67.9203 31.0467L67.103 29.5743ZM26.3642 53.6584L67.1018 76.3589L67.9215 74.8879L27.1839 52.1874L26.3642 53.6584ZM66.6697 75.6234L66.6697 103.691L68.3536 103.691L68.3536 75.6234L66.6697 75.6234ZM67.5116 102.849L2.04992 102.849L2.04992 104.533L67.5116 104.533L67.5116 102.849ZM2.8919 103.691L2.8919 83.4541L1.20795 83.4541L1.20795 103.691L2.8919 103.691ZM2.04992 84.2961L47.3628 84.2961L47.3628 82.6122L2.04992 82.6122L2.04992 84.2961ZM47.7792 82.7223L2.46628 56.9424L1.63357 58.406L46.9465 84.186L47.7792 82.7223ZM2.8919 57.6742L2.8919 46.6759L1.20795 46.6759L1.20795 57.6742L2.8919 57.6742ZM2.46628 47.4077L47.7792 21.6278L46.9465 20.1641L1.63357 45.9441L2.46628 47.4077ZM47.3628 20.054L2.04993 20.054L2.04993 21.7379L47.3628 21.7379L47.3628 20.054ZM2.8919 20.896L2.8919 1.18705L1.20795 1.18705L1.20795 20.896L2.8919 20.896ZM28.7977 174.986L27.9557 174.986L27.9557 176.368L29.1839 175.734L28.7977 174.986ZM53.3459 162.316L53.732 163.064L55.2126 162.3L53.7192 161.561L53.3459 162.316ZM28.7977 150.174L29.171 149.419L27.9557 148.818L27.9557 150.174L28.7977 150.174ZM2.04992 188.712L1.66459 187.963L1.20795 188.198L1.20795 188.712L2.04992 188.712ZM14.016 182.553L14.4014 183.301L14.858 183.066L14.858 182.553L14.016 182.553ZM14.016 142.871L14.858 142.871L14.858 142.347L14.3881 142.116L14.016 142.871ZM2.04992 136.976L1.20795 136.976L1.20795 137.5L1.67783 137.731L2.04992 136.976ZM2.04992 116.123L2.42969 115.372L1.20795 114.754L1.20795 116.123L2.04992 116.123ZM67.5116 149.206L68.3536 149.206L68.3536 148.688L67.8914 148.454L67.5116 149.206ZM67.5116 175.778L67.9088 176.52L68.3536 176.282L68.3536 175.778L67.5116 175.778ZM2.04992 210.796L1.20794 210.796L1.20794 212.202L2.44707 211.539L2.04992 210.796ZM29.1839 175.734L53.732 163.064L52.9597 161.568L28.4116 174.238L29.1839 175.734ZM53.7192 161.561L29.171 149.419L28.4244 150.928L52.9726 163.071L53.7192 161.561ZM27.9557 150.174L27.9557 174.986L29.6397 174.986L29.6397 150.174L27.9557 150.174ZM2.43524 189.46L14.4014 183.301L13.6307 181.804L1.66459 187.963L2.43524 189.46ZM14.858 182.553L14.858 142.871L13.1741 142.871L13.1741 182.553L14.858 182.553ZM14.3881 142.116L2.42201 136.221L1.67783 137.731L13.6439 143.626L14.3881 142.116ZM2.89189 136.976L2.89189 116.123L1.20795 116.123L1.20795 136.976L2.89189 136.976ZM1.67015 116.875L67.1319 149.957L67.8914 148.454L2.42969 115.372L1.67015 116.875ZM66.6697 149.206L66.6697 175.778L68.3536 175.778L68.3536 149.206L66.6697 149.206ZM67.1145 175.035L1.65276 210.054L2.44707 211.539L67.9088 176.52L67.1145 175.035ZM2.89189 210.796L2.89189 188.712L1.20795 188.712L1.20794 210.796L2.89189 210.796ZM2.1379 244.792L1.3106 244.635L2.1379 244.792ZM5.30541 233.794L4.54048 233.442L4.53628 233.451L4.5323 233.46L5.30541 233.794ZM10.1446 225.963L9.50182 225.419L9.49374 225.429L10.1446 225.963ZM22.1988 217.34L21.9077 216.55L21.8986 216.554L21.8896 216.557L22.1988 217.34ZM28.2698 215.668L28.1621 214.833L28.1489 214.835L28.1357 214.837L28.2698 215.668ZM44.2833 216.108L44.4558 215.284L44.4558 215.284L44.2833 216.108ZM52.73 219.628L53.1652 218.907L53.1551 218.901L52.73 219.628ZM60.7367 226.931L61.4119 226.428L61.4119 226.428L60.7367 226.931ZM66.3678 239.689L67.1799 239.466L67.1793 239.464L66.3678 239.689ZM66.6318 281.834L65.8139 281.634L65.812 281.642L66.6318 281.834ZM61.7925 294.592L61.0856 294.135L61.0805 294.143L61.0755 294.151L61.7925 294.592ZM55.1936 301.983L54.6909 301.307L54.6821 301.314L54.6734 301.321L55.1936 301.983ZM48.5066 305.678L48.2912 304.864L48.2767 304.868L48.2624 304.873L48.5066 305.678ZM41.9077 306.558L41.0657 306.558L41.0657 307.4L41.9077 307.4L41.9077 306.558ZM41.9077 284.826L41.7034 284.009L41.0657 284.168L41.0657 284.826L41.9077 284.826ZM43.7554 284.122L43.4427 283.34L43.3931 283.36L43.3465 283.386L43.7554 284.122ZM46.4829 282.098L45.935 281.459L45.9264 281.466L45.918 281.474L46.4829 282.098ZM49.5625 278.139L48.821 277.739L48.815 277.751L49.5625 278.139ZM51.7621 271.276L50.9425 271.083L50.9403 271.092L50.9384 271.102L51.7621 271.276ZM51.3222 248.839L50.5125 249.071L50.5153 249.08L51.3222 248.839ZM47.3628 241.36L47.9582 240.765L47.9529 240.76L47.9476 240.755L47.3628 241.36ZM28.6217 237.929L28.321 237.143L28.3069 237.148L28.2929 237.154L28.6217 237.929ZM22.9026 241.712L22.3372 241.088L22.3274 241.098L22.9026 241.712ZM18.5033 249.279L17.7046 249.013L17.7046 249.013L18.5033 249.279ZM28.1818 284.826L28.5583 284.073L28.4995 284.043L28.4368 284.023L28.1818 284.826ZM28.4458 284.914L29.2877 284.914L29.2877 284.072L28.4458 284.072L28.4458 284.914ZM28.4458 306.646L28.4458 307.488L29.2877 307.488L29.2877 306.646L28.4458 306.646ZM21.4949 305.678L21.7473 304.875L21.7368 304.872L21.7262 304.869L21.4949 305.678ZM14.544 301.895L14.0313 302.563L14.0388 302.569L14.544 301.895ZM7.857 294.416L7.1461 294.867L7.1461 294.867L7.857 294.416ZM2.92978 281.57L3.74763 281.37L3.74712 281.368L2.92978 281.57ZM1.74807 262.741L1.74807 259.134L0.0641217 259.134L0.0641216 262.741L1.74807 262.741ZM1.74807 259.134C1.74807 253.956 2.15533 249.229 2.9652 244.948L1.3106 244.635C0.478069 249.036 0.064122 253.87 0.0641217 259.134L1.74807 259.134ZM2.9652 244.948C3.77867 240.649 4.81947 237.046 6.07851 234.127L4.5323 233.46C3.21041 236.525 2.13954 240.254 1.3106 244.635L2.9652 244.948ZM6.07033 234.146C7.39209 231.272 8.96808 228.724 10.7956 226.497L9.49374 225.429C7.56713 227.777 5.91696 230.449 4.54048 233.442L6.07033 234.146ZM10.7874 226.507C12.686 224.263 14.5644 222.533 16.4188 221.296L15.4847 219.895C13.4677 221.24 11.4747 223.088 9.5019 225.419L10.7874 226.507ZM16.4188 221.296C18.3034 220.04 20.3327 218.982 22.5079 218.123L21.8896 216.557C19.6069 217.458 17.4714 218.571 15.4847 219.895L16.4188 221.296ZM22.4898 218.13C24.6817 217.323 26.6518 216.782 28.4039 216.5L28.1357 214.837C26.251 215.141 24.1738 215.715 21.9077 216.55L22.4898 218.13ZM28.3775 216.504C30.1605 216.273 31.9429 216.159 33.7249 216.159L33.7249 214.475C31.8702 214.475 30.0159 214.594 28.1621 214.833L28.3775 216.504ZM33.7249 216.159L36.2765 216.159L36.2765 214.475L33.7249 214.475L33.7249 216.159ZM36.2765 216.159C39.0394 216.159 41.6502 216.418 44.1108 216.933L44.4558 215.284C41.8718 214.743 39.1448 214.475 36.2765 214.475L36.2765 216.159ZM44.1108 216.933C46.5166 217.436 49.2457 218.565 52.3049 220.355L53.1551 218.901C49.9965 217.054 47.0945 215.837 44.4558 215.284L44.1108 216.933ZM52.2948 220.349C55.3077 222.168 57.8959 224.527 60.0615 227.434L61.4119 226.428C59.1196 223.351 56.3699 220.842 53.1652 218.907L52.2948 220.349ZM60.0615 227.434C62.2041 230.309 64.0458 234.452 65.5563 239.913L67.1793 239.464C65.6397 233.898 63.7272 229.535 61.4119 226.428L60.0615 227.434ZM65.5557 239.911C67.0564 245.394 67.8135 251.798 67.8135 259.134L69.4974 259.134C69.4974 251.688 68.7295 245.128 67.1799 239.466L65.5557 239.911ZM67.8135 259.134L67.8135 262.741L69.4974 262.741L69.4974 259.134L67.8135 259.134ZM67.8135 262.741C67.8135 269.906 67.1434 276.201 65.8139 281.634L67.4496 282.034C68.8184 276.44 69.4974 270.006 69.4974 262.741L67.8135 262.741ZM65.812 281.642C64.5321 287.111 62.947 291.258 61.0856 294.135L62.4994 295.05C64.5095 291.943 66.1505 287.585 67.4516 282.026L65.812 281.642ZM61.0755 294.151C59.2467 297.123 57.1164 299.502 54.6909 301.307L55.6962 302.658C58.3153 300.709 60.5843 298.162 62.5096 295.033L61.0755 294.151ZM54.6734 301.321C52.2577 303.219 50.1324 304.377 48.2912 304.864L48.7221 306.492C50.8695 305.924 53.2022 304.618 55.7138 302.645L54.6734 301.321ZM48.2624 304.873C46.3971 305.438 44.6025 305.716 42.8755 305.716L42.8755 307.4C44.7853 307.4 46.7447 307.092 48.7508 306.484L48.2624 304.873ZM42.8755 305.716L41.9077 305.716L41.9077 307.4L42.8755 307.4L42.8755 305.716ZM42.7496 306.558L42.7496 284.826L41.0657 284.826L41.0657 306.558L42.7496 306.558ZM42.1119 285.642C42.8734 285.452 43.5606 285.193 44.1643 284.858L43.3465 283.386C42.8943 283.637 42.3497 283.847 41.7034 284.009L42.1119 285.642ZM44.0681 284.903C44.8133 284.605 45.8251 283.829 47.0478 282.722L45.918 281.474C44.6772 282.596 43.8706 283.169 43.4427 283.34L44.0681 284.903ZM47.0309 282.737C48.3525 281.604 49.4439 280.196 50.3099 278.526L48.815 277.751C48.0386 279.249 47.0769 280.48 45.935 281.459L47.0309 282.737ZM50.3038 278.538C51.182 276.907 51.935 274.527 52.5859 271.45L50.9384 271.102C50.2987 274.125 49.5854 276.32 48.8211 277.74L50.3038 278.538ZM52.5817 271.469C53.3039 268.399 53.6599 264.871 53.6599 260.893L51.976 260.893C51.976 264.776 51.6281 268.169 50.9425 271.083L52.5817 271.469ZM53.6599 260.893C53.6599 256.145 53.1559 252.042 52.129 248.599L50.5153 249.08C51.4828 252.324 51.976 256.256 51.976 260.893L53.6599 260.893ZM52.1318 248.608C51.1695 245.24 49.7941 242.601 47.9582 240.765L46.7674 241.956C48.3337 243.522 49.5978 245.869 50.5126 249.071L52.1318 248.608ZM47.9476 240.755C46.1784 239.046 44.2938 237.804 42.2913 237.053L41.7 238.629C43.4516 239.286 45.1451 240.39 46.778 241.966L47.9476 240.755ZM42.2913 237.053C40.3097 236.31 38.1553 235.943 35.8366 235.943L35.8366 237.627C37.9759 237.627 39.9275 237.965 41.7 238.629L42.2913 237.053ZM35.8366 235.943L34.7808 235.943L34.7808 237.627L35.8366 237.627L35.8366 235.943ZM34.7808 235.943C32.5652 235.943 30.4103 236.344 28.321 237.143L28.9224 238.715C30.8219 237.989 32.7731 237.627 34.7808 237.627L34.7808 235.943ZM28.2929 237.154C26.2548 238.019 24.2703 239.337 22.3372 241.089L23.468 242.336C25.2891 240.686 27.1173 239.482 28.9506 238.704L28.2929 237.154ZM22.3274 241.098C20.373 242.926 18.8461 245.588 17.7046 249.013L19.3021 249.545C20.3896 246.283 21.7955 243.901 23.4778 242.327L22.3274 241.098ZM17.7046 249.013C16.5547 252.463 15.9896 256.486 15.9896 261.069L17.6736 261.069C17.6736 256.619 18.223 252.783 19.3021 249.545L17.7046 249.013ZM15.9896 261.069C15.9896 274.579 19.7967 283.044 27.9268 285.628L28.4368 284.023C21.4333 281.797 17.6736 274.425 17.6736 261.069L15.9896 261.069ZM27.8053 285.579C27.9292 285.641 28.1726 285.756 28.4458 285.756L28.4458 284.072C28.4992 284.072 28.5394 284.078 28.5614 284.082C28.5843 284.087 28.5984 284.092 28.602 284.093C28.6077 284.095 28.5947 284.091 28.5583 284.073L27.8053 285.579ZM27.6038 284.914L27.6038 306.646L29.2877 306.646L29.2877 284.914L27.6038 284.914ZM28.4458 305.804L27.4779 305.804L27.4779 307.488L28.4458 307.488L28.4458 305.804ZM27.4779 305.804C25.6368 305.804 23.7277 305.498 21.7473 304.875L21.2424 306.482C23.3681 307.15 25.4476 307.488 27.4779 307.488L27.4779 305.804ZM21.7262 304.869C19.809 304.321 17.5856 303.124 15.0491 301.221L14.0388 302.569C16.6641 304.538 19.0747 305.863 21.2636 306.488L21.7262 304.869ZM15.0566 301.227C12.6225 299.359 10.4578 296.943 8.5679 293.965L7.1461 294.867C9.12755 297.99 11.4209 300.56 14.0313 302.563L15.0566 301.227ZM8.5679 293.965C6.70103 291.023 5.08594 286.84 3.74762 281.37L2.11193 281.77C3.47186 287.328 5.14158 291.709 7.1461 294.867L8.5679 293.965ZM3.74712 281.368C2.41798 275.994 1.74807 269.787 1.74807 262.741L0.0641216 262.741C0.0641213 269.89 0.74333 276.236 2.11243 281.772L3.74712 281.368ZM2.04991 322.56L2.04991 321.718L1.20794 321.718L1.20794 322.56L2.04991 322.56ZM67.5116 322.56L68.3536 322.56L68.3536 321.718L67.5116 321.718L67.5116 322.56ZM67.5116 343.061L67.5116 343.903L68.3536 343.903L68.3536 343.061L67.5116 343.061ZM43.6674 343.061L43.6674 342.219L42.8254 342.219L42.8254 343.061L43.6674 343.061ZM43.6674 387.054L42.8254 387.054L42.8254 387.896L43.6674 387.896L43.6674 387.054ZM67.5116 387.054L68.3536 387.054L68.3536 386.212L67.5116 386.212L67.5116 387.054ZM67.5116 407.555L67.5116 408.397L68.3536 408.397L68.3536 407.555L67.5116 407.555ZM2.04991 407.555L1.20794 407.555L1.20794 408.397L2.04991 408.397L2.04991 407.555ZM2.04991 387.054L2.04991 386.212L1.20794 386.212L1.20794 387.054L2.04991 387.054ZM27.8299 387.054L27.8299 387.896L28.6718 387.896L28.6718 387.054L27.8299 387.054ZM27.8299 343.061L28.6718 343.061L28.6718 342.219L27.8299 342.219L27.8299 343.061ZM2.04991 343.061L1.20794 343.061L1.20794 343.903L2.04991 343.903L2.04991 343.061ZM2.04991 323.402L67.5116 323.402L67.5116 321.718L2.04991 321.718L2.04991 323.402ZM66.6697 322.56L66.6697 343.061L68.3536 343.061L68.3536 322.56L66.6697 322.56ZM67.5116 342.219L43.6674 342.219L43.6674 343.903L67.5116 343.903L67.5116 342.219ZM42.8254 343.061L42.8254 387.054L44.5093 387.054L44.5094 343.061L42.8254 343.061ZM43.6674 387.896L67.5116 387.896L67.5116 386.212L43.6674 386.212L43.6674 387.896ZM66.6697 387.054L66.6697 407.555L68.3536 407.555L68.3536 387.054L66.6697 387.054ZM67.5116 406.713L2.04991 406.713L2.04991 408.397L67.5116 408.397L67.5116 406.713ZM2.89188 407.555L2.89188 387.054L1.20794 387.054L1.20794 407.555L2.89188 407.555ZM2.04991 387.896L27.8299 387.896L27.8299 386.212L2.04991 386.212L2.04991 387.896ZM28.6718 387.054L28.6718 343.061L26.9879 343.061L26.9879 387.054L28.6718 387.054ZM27.8299 342.219L2.04991 342.219L2.04991 343.903L27.8299 343.903L27.8299 342.219ZM2.89188 343.061L2.89189 322.56L1.20794 322.56L1.20794 343.061L2.89188 343.061ZM67.5116 446.891L67.5116 447.733L68.3536 447.733L68.3536 446.891L67.5116 446.891ZM2.04991 446.891L1.20793 446.891L1.20793 447.733L2.04991 447.733L2.04991 446.891ZM2.04991 426.391L2.04991 425.549L1.20793 425.549L1.20793 426.391L2.04991 426.391ZM67.5116 426.391L68.3536 426.391L68.3536 425.549L67.5116 425.549L67.5116 426.391ZM67.5116 446.049L2.04991 446.049L2.04991 447.733L67.5116 447.733L67.5116 446.049ZM2.89188 446.891L2.89188 426.391L1.20793 426.391L1.20793 446.891L2.89188 446.891ZM2.04991 427.233L67.5116 427.233L67.5116 425.549L2.04991 425.549L2.04991 427.233ZM66.6697 426.391L66.6697 446.891L68.3536 446.891L68.3536 426.391L66.6697 426.391ZM67.5116 465.692L68.3536 465.692L68.3536 464.85L67.5116 464.85L67.5116 465.692ZM67.5116 488.569L68.1114 489.16L68.3536 488.914L68.3536 488.569L67.5116 488.569ZM26.3341 530.362L25.7343 529.771L24.3225 531.204L26.3341 531.204L26.3341 530.362ZM67.5116 530.362L68.3536 530.362L68.3536 529.52L67.5116 529.52L67.5116 530.362ZM67.5116 550.599L67.5116 551.441L68.3536 551.441L68.3536 550.599L67.5116 550.599ZM2.0499 550.599L1.20793 550.599L1.20793 551.441L2.0499 551.441L2.0499 550.599ZM2.0499 530.362L1.44742 529.774L1.20793 530.019L1.20793 530.362L2.0499 530.362ZM45.4271 485.929L46.0296 486.517L47.4257 485.087L45.4271 485.087L45.4271 485.929ZM2.04991 485.929L1.20793 485.929L1.20793 486.771L2.04991 486.771L2.04991 485.929ZM2.04991 465.692L2.04991 464.85L1.20793 464.85L1.20793 465.692L2.04991 465.692ZM66.6697 465.692L66.6697 488.569L68.3536 488.569L68.3536 465.692L66.6697 465.692ZM66.9119 487.978L25.7343 529.771L26.9339 530.953L68.1114 489.16L66.9119 487.978ZM26.3341 531.204L67.5116 531.204L67.5116 529.52L26.3341 529.52L26.3341 531.204ZM66.6697 530.362L66.6697 550.599L68.3536 550.599L68.3536 530.362L66.6697 530.362ZM67.5116 549.757L2.0499 549.757L2.0499 551.441L67.5116 551.441L67.5116 549.757ZM2.89188 550.599L2.89188 530.362L1.20793 530.362L1.20793 550.599L2.89188 550.599ZM2.65238 530.95L46.0296 486.517L44.8246 485.341L1.44742 529.774L2.65238 530.95ZM45.4271 485.087L2.04991 485.087L2.04991 486.771L45.4271 486.771L45.4271 485.087ZM2.89188 485.929L2.89188 465.692L1.20793 465.692L1.20793 485.929L2.89188 485.929ZM2.04991 466.534L67.5116 466.534L67.5116 464.85L2.04991 464.85L2.04991 466.534ZM67.5116 569.437L68.3536 569.437L68.3536 568.595L67.5116 568.595L67.5116 569.437ZM67.5116 638.418L67.5116 639.26L68.3536 639.26L68.3536 638.418L67.5116 638.418ZM52.642 638.418L51.8 638.418L51.8 639.26L52.642 639.26L52.642 638.418ZM52.642 589.674L53.4839 589.674L53.4839 588.832L52.642 588.832L52.642 589.674ZM42.9635 589.674L42.9635 588.832L42.1215 588.832L42.1215 589.674L42.9635 589.674ZM42.9635 637.274L42.9635 638.116L43.8054 638.116L43.8054 637.274L42.9635 637.274ZM28.0058 637.274L27.1639 637.274L27.1639 638.116L28.0058 638.116L28.0058 637.274ZM28.0058 589.674L28.8478 589.674L28.8478 588.832L28.0058 588.832L28.0058 589.674ZM17.2715 589.674L17.2715 588.832L16.4295 588.832L16.4295 589.674L17.2715 589.674ZM17.2715 639.298L17.2715 640.14L18.1135 640.14L18.1135 639.298L17.2715 639.298ZM2.0499 639.298L1.20793 639.298L1.20793 640.14L2.0499 640.14L2.0499 639.298ZM2.0499 569.437L2.0499 568.595L1.20793 568.595L1.20793 569.437L2.0499 569.437ZM66.6697 569.437L66.6696 638.418L68.3536 638.418L68.3536 569.437L66.6697 569.437ZM67.5116 637.576L52.642 637.576L52.642 639.26L67.5116 639.26L67.5116 637.576ZM53.4839 638.418L53.4839 589.674L51.8 589.674L51.8 638.418L53.4839 638.418ZM52.642 588.832L42.9635 588.832L42.9635 590.516L52.642 590.516L52.642 588.832ZM42.1215 589.674L42.1215 637.274L43.8054 637.274L43.8055 589.674L42.1215 589.674ZM42.9635 636.432L28.0058 636.432L28.0058 638.116L42.9635 638.116L42.9635 636.432ZM28.8478 637.274L28.8478 589.674L27.1639 589.674L27.1639 637.274L28.8478 637.274ZM28.0058 588.832L17.2715 588.832L17.2715 590.516L28.0058 590.516L28.0058 588.832ZM16.4295 589.674L16.4295 639.298L18.1135 639.298L18.1135 589.674L16.4295 589.674ZM17.2715 638.456L2.0499 638.456L2.0499 640.14L17.2715 640.14L17.2715 638.456ZM2.89187 639.298L2.89187 569.437L1.20793 569.437L1.20793 639.298L2.89187 639.298ZM2.0499 570.279L67.5116 570.279L67.5116 568.595L2.0499 568.595L2.0499 570.279ZM3.10573 715.339L2.29447 715.114L2.29447 715.114L3.10573 715.339ZM8.64886 702.669L7.9707 702.17L7.96542 702.177L7.96029 702.185L8.64886 702.669ZM16.5676 695.014L16.1068 694.31L16.1006 694.314L16.5676 695.014ZM25.2782 690.879L25.074 690.062L25.0639 690.065L25.0538 690.068L25.2782 690.879ZM44.5472 690.703L44.7431 689.884L44.7299 689.881L44.5472 690.703ZM53.0819 694.575L53.5427 693.87L53.5393 693.868L53.0819 694.575ZM60.9127 702.229L60.2222 702.711L60.2284 702.72L60.9127 702.229ZM66.4558 715.075L67.2695 714.859L67.2689 714.857L66.4558 715.075ZM66.8957 756.429L67.7181 756.61L67.7181 756.61L66.8957 756.429ZM62.4964 768.923L61.7707 768.496L61.7658 768.504L61.7611 768.513L62.4964 768.923ZM56.3374 776.402L55.8094 775.746L55.8016 775.752L56.3374 776.402ZM49.8264 780.273L49.5672 779.472L49.5601 779.474L49.8264 780.273ZM43.8433 781.329L43.8433 782.171L43.8554 782.171L43.8674 782.171L43.8433 781.329ZM43.7553 781.329L42.9134 781.329L42.9134 782.171L43.7553 782.171L43.7553 781.329ZM43.7553 759.508L43.4779 758.713L42.9134 758.91L42.9134 759.508L43.7553 759.508ZM22.0228 717.363L21.3828 716.816L21.379 716.82L22.0228 717.363ZM17.6234 746.046L16.7938 746.19L16.7938 746.19L17.6234 746.046ZM19.5591 753.349L20.3356 753.024L20.3356 753.024L19.5591 753.349ZM22.0228 757.925L21.3376 758.414L21.3418 758.42L22.0228 757.925ZM24.4864 760.564L24.9916 759.891L24.9729 759.877L24.9534 759.864L24.4864 760.564ZM26.3341 761.356L26.3341 762.198L27.1761 762.198L27.1761 761.356L26.3341 761.356ZM26.3341 735.664L26.3341 734.822L25.4921 734.822L25.4921 735.664L26.3341 735.664ZM38.7401 735.664L39.5821 735.664L39.5821 734.822L38.7401 734.822L38.7401 735.664ZM38.7401 781.769L38.7401 782.611L39.5821 782.611L39.5821 781.769L38.7401 781.769ZM2.04989 781.769L1.20792 781.769L1.20792 782.611L2.04989 782.611L2.04989 781.769ZM2.04989 769.451L1.95232 768.614L1.20792 768.701L1.20792 769.451L2.04989 769.451ZM12.2563 766.811L12.5762 767.59L13.8398 767.071L12.8083 766.175L12.2563 766.811ZM1.74805 735.312L1.74805 733.464L0.064101 733.464L0.0641009 735.312L1.74805 735.312ZM1.74805 733.464C1.74805 726.719 2.47515 720.755 3.91699 715.565L2.29447 715.114C0.803435 720.482 0.0641013 726.602 0.064101 733.464L1.74805 733.464ZM3.91699 715.565C5.36747 710.343 7.18164 706.217 9.33743 703.154L7.96029 702.185C5.65811 705.456 3.77686 709.777 2.29447 715.114L3.91699 715.565ZM9.32702 703.168C11.5608 700.133 14.1305 697.651 17.0347 695.715L16.1006 694.314C13.0217 696.366 10.3122 698.988 7.9707 702.17L9.32702 703.168ZM17.0284 695.719C20.0247 693.76 22.8489 692.425 25.5027 691.691L25.0538 690.068C22.1938 690.859 19.2109 692.28 16.1068 694.31L17.0284 695.719ZM25.4825 691.696C28.2319 691.009 31.0082 690.665 33.8129 690.665L33.8129 688.981C30.8692 688.981 27.9557 689.342 25.074 690.062L25.4825 691.696ZM33.8129 690.665L36.2765 690.665L36.2765 688.981L33.8129 688.981L33.8129 690.665ZM36.2765 690.665C39.0931 690.665 41.7886 690.953 44.3646 691.525L44.7299 689.881C42.0267 689.28 39.2083 688.981 36.2765 688.981L36.2765 690.665ZM44.3514 691.522C46.9346 692.14 49.6915 693.384 52.6245 695.281L53.5393 693.868C50.4892 691.894 47.5564 690.557 44.743 689.884L44.3514 691.522ZM52.6211 695.279C55.5776 697.212 58.111 699.687 60.2223 702.711L61.603 701.747C59.3736 698.554 56.6865 695.925 53.5427 693.87L52.6211 695.279ZM60.2284 702.72C62.3774 705.717 64.1912 709.894 65.6427 715.294L67.2689 714.857C65.7875 709.346 63.9058 704.959 61.5969 701.739L60.2284 702.72ZM65.6421 715.292C67.0856 720.719 67.8135 727.008 67.8135 734.168L69.4974 734.168C69.4974 726.899 68.7589 720.459 67.2695 714.859L65.6421 715.292ZM67.8135 734.168L67.8135 737.952L69.4974 737.952L69.4974 734.168L67.8135 734.168ZM67.8135 737.952C67.8135 744.887 67.2305 750.983 66.0734 756.248L67.7181 756.61C68.9073 751.199 69.4974 744.977 69.4974 737.952L67.8135 737.952ZM66.0734 756.248C64.9096 761.543 63.4673 765.612 61.7707 768.496L63.2221 769.35C65.045 766.251 66.5355 761.99 67.7181 756.61L66.0734 756.248ZM61.7611 768.513C60.1058 771.481 58.1198 773.886 55.8094 775.746L56.8653 777.058C59.3649 775.046 61.4849 772.465 63.2318 769.333L61.7611 768.513ZM55.8016 775.752C53.5033 777.648 51.426 778.871 49.5672 779.472L50.0856 781.074C52.2155 780.385 54.4788 779.026 56.8732 777.051L55.8016 775.752ZM49.5601 779.474C47.7032 780.093 45.7905 780.431 43.8193 780.487L43.8674 782.171C46.0022 782.11 48.0782 781.743 50.0926 781.072L49.5601 779.474ZM43.8433 780.487L43.7553 780.487L43.7553 782.171L43.8433 782.171L43.8433 780.487ZM44.5973 781.329L44.5973 759.508L42.9134 759.508L42.9134 781.329L44.5973 781.329ZM44.0328 760.303C47.431 759.117 49.9135 756.411 51.532 752.364C53.1428 748.337 53.9239 742.93 53.9239 736.192L52.2399 736.192C52.2399 742.828 51.4665 747.994 49.9685 751.739C48.4782 755.465 46.2974 757.729 43.4779 758.713L44.0328 760.303ZM53.9239 736.192C53.9239 727.818 52.4415 721.386 49.347 717.029C46.2149 712.619 41.5149 710.45 35.3967 710.45L35.3967 712.134C41.0685 712.134 45.2111 714.114 47.9741 718.004C50.7747 721.948 52.2399 727.966 52.2399 736.192L53.9239 736.192ZM35.3967 710.45L34.4288 710.45L34.4288 712.134L35.3967 712.134L35.3967 710.45ZM34.4288 710.45C29.3445 710.45 24.9843 712.604 21.3828 716.816L22.6627 717.91C25.9828 714.027 29.8933 712.134 34.4288 712.134L34.4288 710.45ZM21.379 716.82C17.7361 721.142 15.9896 727.592 15.9896 736.016L17.6735 736.016C17.6735 727.781 19.3878 721.796 22.6666 717.906L21.379 716.82ZM15.9896 736.016C15.9896 739.693 16.2564 743.085 16.7938 746.19L18.4531 745.903C17.9347 742.907 17.6735 739.613 17.6735 736.016L15.9896 736.016ZM16.7938 746.19C17.3272 749.272 17.9859 751.775 18.7827 753.675L20.3356 753.024C19.6073 751.287 18.9756 748.922 18.4531 745.903L16.7938 746.19ZM18.7827 753.675C19.5626 755.535 20.4123 757.118 21.3376 758.414L22.7079 757.435C21.8735 756.267 21.0808 754.801 20.3356 753.024L18.7827 753.675ZM21.3418 758.42C22.2965 759.732 23.1885 760.711 24.0193 761.265L24.9534 759.864C24.3765 759.479 23.626 758.698 22.7037 757.429L21.3418 758.42ZM23.9812 761.238C24.6963 761.774 25.4487 762.198 26.1581 762.198L26.1581 760.514C26.0463 760.514 25.6843 760.41 24.9916 759.891L23.9812 761.238ZM26.1581 762.198L26.3341 762.198L26.3341 760.514L26.1581 760.514L26.1581 762.198ZM27.1761 761.356L27.1761 735.664L25.4921 735.664L25.4921 761.356L27.1761 761.356ZM26.3341 736.506L38.7401 736.506L38.7401 734.822L26.3341 734.822L26.3341 736.506ZM37.8982 735.664L37.8982 781.769L39.5821 781.769L39.5821 735.664L37.8982 735.664ZM38.7401 780.927L2.04989 780.927L2.04989 782.611L38.7401 782.611L38.7401 780.927ZM2.89187 781.769L2.89187 769.451L1.20792 769.451L1.20792 781.769L2.89187 781.769ZM2.14746 770.287C5.74346 769.868 9.22038 768.968 12.5762 767.59L11.9364 766.032C8.72257 767.352 5.39522 768.213 1.95232 768.614L2.14746 770.287ZM12.8083 766.175C5.49516 759.826 1.74805 749.608 1.74805 735.312L0.0641009 735.312C0.0641003 749.876 3.8838 760.657 11.7043 767.447L12.8083 766.175ZM2.31385 826.132L1.49164 825.951L1.49011 825.958L1.48869 825.965L2.31385 826.132ZM5.74531 816.014L4.99545 815.631L4.99545 815.631L5.74531 816.014ZM10.8485 808.711L10.2364 808.133L10.2364 808.133L10.8485 808.711ZM16.9196 803.696L17.3527 804.418L17.3527 804.418L16.9196 803.696ZM23.5185 800.616L23.2583 799.816L23.2493 799.819L23.2404 799.822L23.5185 800.616ZM29.9415 799.033L29.8402 798.197L29.8278 798.198L29.8154 798.2L29.9415 799.033ZM67.5116 798.681L68.3536 798.681L68.3536 797.839L67.5116 797.839L67.5116 798.681ZM67.5116 819.27L67.5116 820.111L68.3536 820.111L68.3536 819.27L67.5116 819.27ZM30.3814 820.149L30.1501 819.34L30.1361 819.344L30.1223 819.348L30.3814 820.149ZM24.3984 823.317L23.8996 822.638L23.8899 822.646L24.3984 823.317ZM19.7351 830.004L18.9513 829.696L18.9477 829.706L18.9443 829.715L19.7351 830.004ZM19.7351 851.56L18.948 851.86L18.9513 851.868L19.7351 851.56ZM24.3984 858.247L24.9098 857.579L24.9068 857.576L24.3984 858.247ZM30.3814 861.415L30.6339 860.612L30.6265 860.609L30.619 860.607L30.3814 861.415ZM67.5116 862.383L68.3536 862.383L68.3536 861.541L67.5116 861.541L67.5116 862.383ZM67.5116 882.884L67.5116 883.725L68.3536 883.725L68.3536 882.884L67.5116 882.884ZM27.3899 881.916L27.578 881.095L27.5698 881.093L27.5616 881.091L27.3899 881.916ZM18.2393 878.308L17.8259 879.042L17.8316 879.045L18.2393 878.308ZM9.70469 871.357L10.3383 870.803L10.3383 870.803L9.70469 871.357ZM3.54565 859.655L4.34536 859.392L4.34442 859.389L3.54565 859.655ZM1.92401 842.674L1.92401 839.506L0.240069 839.506L0.240069 842.674L1.92401 842.674ZM1.92401 839.506C1.92402 834.684 2.33076 830.283 3.13901 826.3L1.48869 825.965C0.65453 830.076 0.240069 834.591 0.240069 839.506L1.92401 839.506ZM3.13606 826.314C4.00508 822.374 5.12845 819.073 6.49518 816.397L4.99545 815.631C3.54661 818.468 2.38234 821.913 1.49164 825.951L3.13606 826.314ZM6.49518 816.397C7.86894 813.707 9.52474 811.339 11.4606 809.289L10.2364 808.133C8.18358 810.307 6.43724 812.808 4.99545 815.631L6.49518 816.397ZM11.4606 809.289C13.413 807.222 15.3779 805.603 17.3527 804.418L16.4864 802.974C14.3552 804.253 12.2727 805.977 10.2364 808.133L11.4606 809.289ZM17.3527 804.418C19.3548 803.217 21.5023 802.214 23.7967 801.411L23.2404 799.822C20.8421 800.661 18.5903 801.712 16.4864 802.974L17.3527 804.418ZM23.7788 801.417C26.092 800.665 28.1874 800.15 30.0676 799.865L29.8154 798.2C27.8243 798.502 25.6376 799.042 23.2583 799.816L23.7788 801.417ZM30.0428 799.869C31.9452 799.638 33.847 799.523 35.7486 799.523L35.7486 797.839C33.7788 797.839 31.8093 797.958 29.8402 798.197L30.0428 799.869ZM35.7486 799.523L67.5116 799.523L67.5116 797.839L35.7486 797.839L35.7486 799.523ZM66.6696 798.681L66.6696 819.27L68.3536 819.27L68.3536 798.681L66.6696 798.681ZM67.5116 818.428L36.9804 818.428L36.9804 820.111L67.5116 820.111L67.5116 818.428ZM36.9804 818.428C34.5635 818.428 32.2854 818.73 30.1501 819.34L30.6128 820.959C32.5835 820.396 34.7047 820.111 36.9804 820.111L36.9804 818.428ZM30.1223 819.348C28.028 820.026 25.9539 821.128 23.8996 822.639L24.8972 823.995C26.8316 822.573 28.7461 821.563 30.6406 820.95L30.1223 819.348ZM23.8899 822.646C21.7969 824.231 20.1632 826.606 18.9513 829.696L20.519 830.311C21.6534 827.419 23.1285 825.335 24.9068 823.988L23.8899 822.646ZM18.9443 829.715C17.7875 832.881 17.2214 836.62 17.2214 840.914L18.9053 840.914C18.9053 836.761 19.4537 833.227 20.5259 830.293L18.9443 829.715ZM17.2214 840.914C17.2214 845.149 17.7875 848.805 18.948 851.86L20.5222 851.261C19.4537 848.45 18.9053 845.008 18.9053 840.914L17.2214 840.914ZM18.9513 851.868C20.1632 854.958 21.7969 857.333 23.8899 858.919L24.9068 857.576C23.1285 856.229 21.6534 854.146 20.519 851.253L18.9513 851.868ZM23.8869 858.916C25.9467 860.491 28.0323 861.602 30.1439 862.223L30.619 860.607C28.7419 860.055 26.8388 859.054 24.9098 857.579L23.8869 858.916ZM30.129 862.218C32.2707 862.891 34.5562 863.225 36.9804 863.225L36.9804 861.541C34.712 861.541 32.5982 861.229 30.6339 860.612L30.129 862.218ZM36.9804 863.225L67.5116 863.225L67.5116 861.541L36.9804 861.541L36.9804 863.225ZM66.6696 862.383L66.6696 882.884L68.3536 882.884L68.3536 862.383L66.6696 862.383ZM67.5116 882.042L35.7486 882.042L35.7486 883.725L67.5116 883.725L67.5116 882.042ZM35.7486 882.042C33.0579 882.042 30.3348 881.727 27.578 881.095L27.2018 882.736C30.0761 883.395 32.9255 883.725 35.7486 883.725L35.7486 882.042ZM27.5616 881.091C24.8495 880.526 21.8793 879.361 18.6471 877.572L17.8316 879.045C21.169 880.892 24.2992 882.132 27.2182 882.74L27.5616 881.091ZM18.6528 877.575C15.5105 875.804 12.7399 873.547 10.3383 870.803L9.07104 871.912C11.5967 874.798 14.5159 877.176 17.8259 879.042L18.6528 877.575ZM10.3383 870.803C7.97253 868.099 5.96569 864.311 4.34536 859.392L2.74595 859.919C4.41043 864.971 6.50961 868.984 9.07104 871.912L10.3383 870.803ZM4.34442 859.389C2.73636 854.565 1.92401 848.997 1.92401 842.674L0.240069 842.674C0.240068 849.138 1.07013 854.891 2.74689 859.921L4.34442 859.389ZM67.5116 900.897L68.3536 900.897L68.3536 900.055L67.5116 900.055L67.5116 900.897ZM67.5116 923.774L68.1114 924.365L68.3536 924.119L68.3536 923.774L67.5116 923.774ZM26.3341 965.567L25.7343 964.976L24.3225 966.409L26.3341 966.409L26.3341 965.567ZM67.5116 965.567L68.3536 965.567L68.3536 964.725L67.5116 964.725L67.5116 965.567ZM67.5116 985.804L67.5116 986.646L68.3536 986.646L68.3536 985.804L67.5116 985.804ZM2.04988 985.804L1.20791 985.804L1.20791 986.646L2.04988 986.646L2.04988 985.804ZM2.04988 965.567L1.4474 964.979L1.20791 965.224L1.20791 965.567L2.04988 965.567ZM45.4271 921.134L46.0296 921.722L47.4257 920.292L45.4271 920.292L45.4271 921.134ZM2.04989 921.134L1.20791 921.134L1.20791 921.976L2.04989 921.976L2.04989 921.134ZM2.04989 900.897L2.04989 900.055L1.20791 900.055L1.20791 900.897L2.04989 900.897ZM66.6696 900.897L66.6696 923.774L68.3536 923.774L68.3536 900.897L66.6696 900.897ZM66.9118 923.183L25.7343 964.976L26.9338 966.158L68.1114 924.365L66.9118 923.183ZM26.3341 966.409L67.5116 966.409L67.5116 964.725L26.3341 964.725L26.3341 966.409ZM66.6696 965.567L66.6696 985.804L68.3536 985.804L68.3536 965.567L66.6696 965.567ZM67.5116 984.962L2.04988 984.962L2.04988 986.646L67.5116 986.646L67.5116 984.962ZM2.89186 985.804L2.89186 965.567L1.20791 965.567L1.20791 985.804L2.89186 985.804ZM2.65236 966.155L46.0296 921.722L44.8246 920.546L1.4474 964.979L2.65236 966.155ZM45.4271 920.292L2.04989 920.292L2.04989 921.976L45.4271 921.976L45.4271 920.292ZM2.89186 921.134L2.89186 900.897L1.20791 900.897L1.20791 921.134L2.89186 921.134ZM2.04989 901.739L67.5116 901.739L67.5116 900.055L2.04989 900.055L2.04989 901.739Z" fill="white"/>
</svg>
