<svg width="149" height="980" viewBox="0 0 149 980" fill="none" xmlns="http://www.w3.org/2000/svg">
<path d="M2.07617 2.57118L2.07617 0.717996L0.222984 0.717996L0.222984 2.57118L2.07617 2.57118ZM146.158 2.57119L148.011 2.57119L148.011 0.718003L146.158 0.718003L146.158 2.57119ZM146.158 66.672L147.057 68.2923L148.011 67.7629L148.011 66.672L146.158 66.672ZM56.4941 116.442L55.5947 114.822L52.6813 116.439L55.592 118.061L56.4941 116.442ZM146.158 166.406L148.011 166.406L148.011 165.317L147.06 164.787L146.158 166.406ZM146.158 228.183L146.158 230.036L148.011 230.036L148.011 228.183L146.158 228.183ZM2.07616 228.183L0.222975 228.183L0.222974 230.036L2.07616 230.036L2.07616 228.183ZM2.07616 183.641L2.07616 181.788L0.222977 181.788L0.222976 183.641L2.07616 183.641ZM101.81 183.641L101.81 185.495L108.815 185.495L102.726 182.031L101.81 183.641ZM2.07617 126.9L0.222979 126.9L0.222979 127.977L1.15976 128.51L2.07617 126.9ZM2.07617 102.692L1.15976 101.082L0.22298 101.615L0.22298 102.692L2.07617 102.692ZM101.81 45.9506L102.726 47.5613L108.815 44.0974L101.81 44.0974L101.81 45.9506ZM2.07617 45.9506L0.222983 45.9506L0.222982 47.8038L2.07617 47.8038L2.07617 45.9506ZM2.07617 4.42437L146.158 4.42438L146.158 0.718003L2.07617 0.717996L2.07617 4.42437ZM144.305 2.57119L144.305 66.672L148.011 66.672L148.011 2.57119L144.305 2.57119ZM145.258 65.0517L55.5947 114.822L57.3935 118.062L147.057 68.2923L145.258 65.0517ZM55.592 118.061L145.256 168.025L147.06 164.787L57.3961 114.823L55.592 118.061ZM144.305 166.406L144.305 228.183L148.011 228.183L148.011 166.406L144.305 166.406ZM146.158 226.33L2.07616 226.33L2.07616 230.036L146.158 230.036L146.158 226.33ZM3.92935 228.183L3.92935 183.641L0.222976 183.641L0.222975 228.183L3.92935 228.183ZM2.07616 185.495L101.81 185.495L101.81 181.788L2.07616 181.788L2.07616 185.495ZM102.726 182.031L2.99257 125.289L1.15976 128.51L100.894 185.252L102.726 182.031ZM3.92935 126.9L3.92935 102.692L0.22298 102.692L0.222979 126.9L3.92935 126.9ZM2.99257 104.303L102.726 47.5613L100.894 44.3398L1.15976 101.082L2.99257 104.303ZM101.81 44.0974L2.07617 44.0974L2.07617 47.8038L101.81 47.8038L101.81 44.0974ZM3.92936 45.9506L3.92936 2.57118L0.222984 2.57118L0.222983 45.9506L3.92936 45.9506ZM146.158 269.683L148.011 269.683L148.011 267.83L146.158 267.83L146.158 269.683ZM146.158 421.511L146.158 423.364L148.011 423.364L148.011 421.511L146.158 421.511ZM113.43 421.511L111.576 421.511L111.576 423.364L113.43 423.364L113.43 421.511ZM113.43 314.224L115.283 314.224L115.283 312.371L113.43 312.371L113.43 314.224ZM92.1271 314.224L92.1271 312.371L90.274 312.371L90.274 314.224L92.1271 314.224ZM92.1271 418.993L92.1271 420.847L93.9803 420.847L93.9803 418.993L92.1271 418.993ZM59.2053 418.993L57.3521 418.993L57.3521 420.847L59.2053 420.847L59.2053 418.993ZM59.2053 314.224L61.0585 314.224L61.0585 312.371L59.2053 312.371L59.2053 314.224ZM35.579 314.224L35.579 312.371L33.7258 312.371L33.7258 314.224L35.579 314.224ZM35.579 423.448L35.579 425.301L37.4322 425.301L37.4322 423.448L35.579 423.448ZM2.07615 423.448L0.222966 423.448L0.222966 425.301L2.07615 425.301L2.07615 423.448ZM2.07616 269.683L2.07616 267.83L0.222973 267.83L0.222973 269.683L2.07616 269.683ZM144.305 269.683L144.305 421.511L148.011 421.511L148.011 269.683L144.305 269.683ZM146.158 419.658L113.43 419.658L113.43 423.364L146.158 423.364L146.158 419.658ZM115.283 421.511L115.283 314.224L111.576 314.224L111.576 421.511L115.283 421.511ZM113.43 312.371L92.1271 312.371L92.1271 316.078L113.43 316.078L113.43 312.371ZM90.274 314.224L90.274 418.993L93.9803 418.993L93.9803 314.224L90.274 314.224ZM92.1271 417.14L59.2053 417.14L59.2053 420.847L92.1271 420.847L92.1271 417.14ZM61.0585 418.993L61.0585 314.224L57.3521 314.224L57.3521 418.993L61.0585 418.993ZM59.2053 312.371L35.579 312.371L35.579 316.078L59.2053 316.078L59.2053 312.371ZM33.7258 314.224L33.7258 423.448L37.4322 423.448L37.4322 314.224L33.7258 314.224ZM35.579 421.594L2.07615 421.594L2.07615 425.301L35.579 425.301L35.579 421.594ZM3.92934 423.448L3.92935 269.683L0.222973 269.683L0.222966 423.448L3.92934 423.448ZM2.07616 271.536L146.158 271.536L146.158 267.83L2.07616 267.83L2.07616 271.536ZM146.158 461.526L148.011 461.526L148.011 459.672L146.158 459.672L146.158 461.526ZM146.158 506.648L146.158 508.501L148.011 508.501L148.011 506.648L146.158 506.648ZM37.9029 506.648L37.9029 504.795L36.0497 504.795L36.0497 506.648L37.9029 506.648ZM37.9029 606.769L37.9029 608.622L39.7561 608.622L39.7561 606.769L37.9029 606.769ZM2.07614 606.769L0.222958 606.769L0.222958 608.622L2.07614 608.622L2.07614 606.769ZM2.07615 461.526L2.07615 459.672L0.222964 459.672L0.222964 461.526L2.07615 461.526ZM144.305 461.526L144.305 506.648L148.011 506.648L148.011 461.526L144.305 461.526ZM146.158 504.795L37.9029 504.795L37.9029 508.501L146.158 508.501L146.158 504.795ZM36.0497 506.648L36.0497 606.769L39.7561 606.769L39.7561 506.648L36.0497 506.648ZM37.9029 604.916L2.07615 604.916L2.07614 608.622L37.9029 608.622L37.9029 604.916ZM3.92933 606.769L3.92934 461.526L0.222964 461.526L0.222958 606.769L3.92933 606.769ZM2.07615 463.379L146.158 463.379L146.158 459.672L2.07615 459.672L2.07615 463.379ZM146.158 642.777L148.011 642.777L148.011 640.924L146.158 640.924L146.158 642.777ZM146.158 687.9L146.158 689.753L148.011 689.753L148.011 687.9L146.158 687.9ZM37.9029 687.9L37.9029 686.047L36.0497 686.047L36.0497 687.9L37.9029 687.9ZM37.9029 788.021L37.9029 789.874L39.7561 789.874L39.7561 788.021L37.9029 788.021ZM2.07614 788.021L0.22295 788.021L0.22295 789.874L2.07614 789.874L2.07614 788.021ZM2.07614 642.777L2.07614 640.924L0.222957 640.924L0.222956 642.777L2.07614 642.777ZM144.305 642.777L144.305 687.9L148.011 687.9L148.011 642.777L144.305 642.777ZM146.158 686.047L37.9029 686.047L37.9029 689.753L146.158 689.753L146.158 686.047ZM36.0497 687.9L36.0497 788.021L39.7561 788.021L39.7561 687.9L36.0497 687.9ZM37.9029 786.168L2.07614 786.168L2.07614 789.874L37.9029 789.874L37.9029 786.168ZM3.92932 788.021L3.92933 642.777L0.222956 642.777L0.22295 788.021L3.92932 788.021ZM2.07614 644.631L146.158 644.631L146.158 640.924L2.07614 640.924L2.07614 644.631ZM146.158 824.029L148.011 824.029L148.011 822.176L146.158 822.176L146.158 824.029ZM146.158 975.857L146.158 977.71L148.011 977.71L148.011 975.857L146.158 975.857ZM113.429 975.857L111.576 975.857L111.576 977.71L113.429 977.71L113.429 975.857ZM113.43 868.571L115.283 868.571L115.283 866.717L113.43 866.717L113.43 868.571ZM92.1271 868.571L92.1271 866.717L90.2739 866.717L90.2739 868.571L92.1271 868.571ZM92.1271 973.34L92.1271 975.193L93.9803 975.193L93.9803 973.34L92.1271 973.34ZM59.2052 973.34L57.3521 973.34L57.3521 975.193L59.2052 975.193L59.2052 973.34ZM59.2053 868.571L61.0584 868.571L61.0584 866.717L59.2053 866.717L59.2053 868.571ZM35.579 868.571L35.579 866.717L33.7258 866.717L33.7258 868.571L35.579 868.571ZM35.579 977.794L35.579 979.647L37.4322 979.647L37.4322 977.794L35.579 977.794ZM2.07613 977.794L0.222942 977.794L0.222942 979.647L2.07613 979.647L2.07613 977.794ZM2.07614 824.029L2.07614 822.176L0.222949 822.176L0.222948 824.029L2.07614 824.029ZM144.305 824.029L144.305 975.857L148.011 975.857L148.011 824.029L144.305 824.029ZM146.158 974.004L113.429 974.004L113.429 977.71L146.158 977.71L146.158 974.004ZM115.283 975.857L115.283 868.571L111.576 868.571L111.576 975.857L115.283 975.857ZM113.43 866.717L92.1271 866.717L92.1271 870.424L113.43 870.424L113.43 866.717ZM90.2739 868.571L90.2739 973.34L93.9803 973.34L93.9803 868.571L90.2739 868.571ZM92.1271 971.486L59.2052 971.486L59.2052 975.193L92.1271 975.193L92.1271 971.486ZM61.0584 973.34L61.0584 868.571L57.3521 868.571L57.3521 973.34L61.0584 973.34ZM59.2053 866.717L35.579 866.717L35.579 870.424L59.2053 870.424L59.2053 866.717ZM33.7258 868.571L33.7258 977.794L37.4322 977.794L37.4322 868.571L33.7258 868.571ZM35.579 975.941L2.07613 975.941L2.07613 979.647L35.579 979.647L35.579 975.941ZM3.92932 977.794L3.92932 824.029L0.222948 824.029L0.222942 977.794L3.92932 977.794ZM2.07614 825.882L146.158 825.882L146.158 822.176L2.07614 822.176L2.07614 825.882Z" fill="white"/>
</svg>
