<svg width="145" height="984" viewBox="0 0 145 984" fill="none" xmlns="http://www.w3.org/2000/svg">
<path d="M109.929 44.4924L111.678 44.4924L111.678 42.7437L109.929 42.7437L109.929 44.4924ZM83.2489 44.4924L83.2489 42.7437L81.5001 42.7437L81.5001 44.4924L83.2489 44.4924ZM86.9036 121.974L88.2232 120.827L88.2232 120.827L86.9036 121.974ZM106.274 121.974L104.954 120.827L104.954 120.827L106.274 121.974ZM53.0968 44.4924L54.8455 44.4924L54.8455 42.7437L53.0968 42.7437L53.0968 44.4924ZM4.85351 44.4924L3.10481 44.4924L3.10481 46.2411L4.85351 46.2411L4.85351 44.4924ZM4.85352 1.91408L4.85352 0.165376L3.10481 0.165375L3.10481 1.91408L4.85352 1.91408ZM140.812 1.91409L142.561 1.91409L142.561 0.165382L140.812 0.165381L140.812 1.91409ZM73.5636 145.365L75.2262 144.823L73.4533 139.386L71.8822 144.884L73.5636 145.365ZM62.4165 164.004L61.2417 162.709L61.2341 162.716L61.2266 162.723L62.4165 164.004ZM5.76721 173.689L5.76721 175.438L6.23997 175.438L6.64833 175.2L5.76721 173.689ZM4.85351 173.689L3.1048 173.689L3.1048 175.438L4.85351 175.438L4.85351 173.689ZM4.85351 130.38L3.77312 129.005L3.1048 129.53L3.1048 130.38L4.85351 130.38ZM47.4319 121.974L48.7409 123.134L48.7409 123.134L47.4319 121.974ZM109.929 42.7437L83.2489 42.7437L83.2489 46.2411L109.929 46.2411L109.929 42.7437ZM81.5001 44.4924L81.5001 109L84.9976 109L84.9976 44.4924L81.5001 44.4924ZM81.5001 109C81.5001 115.039 82.7501 119.862 85.5841 123.122L88.2232 120.827C86.1842 118.482 84.9976 114.656 84.9976 109L81.5001 109ZM85.5841 123.122C88.3825 126.34 92.1097 127.926 96.5889 127.926L96.5889 124.428C93.0275 124.428 90.2978 123.212 88.2232 120.827L85.5841 123.122ZM96.5889 127.926L96.7716 127.926L96.7716 124.428L96.5889 124.428L96.5889 127.926ZM96.7716 127.926C101.147 127.926 104.807 126.327 107.594 123.122L104.954 120.827C102.868 123.226 100.193 124.428 96.7716 124.428L96.7716 127.926ZM107.594 123.122C110.428 119.862 111.678 115.039 111.678 109L108.18 109C108.18 114.656 106.994 118.482 104.954 120.827L107.594 123.122ZM111.678 109L111.678 44.4924L108.18 44.4924L108.18 109L111.678 109ZM53.0968 42.7437L4.85351 42.7437L4.85351 46.2411L53.0968 46.2411L53.0968 42.7437ZM6.60222 44.4924L6.60222 1.91408L3.10481 1.91408L3.10481 44.4924L6.60222 44.4924ZM4.85352 3.66279L140.812 3.66279L140.812 0.165381L4.85352 0.165376L4.85352 3.66279ZM139.063 1.91409L139.063 111.558L142.561 111.558L142.561 1.91409L139.063 1.91409ZM139.063 111.558C139.063 131.116 136.131 145.494 130.494 154.93C124.941 164.222 116.703 168.834 105.543 168.834L105.543 172.332C117.895 172.332 127.292 167.106 133.496 156.724C139.614 146.484 142.561 131.35 142.561 111.558L139.063 111.558ZM105.543 168.834L103.35 168.834L103.35 172.332L105.543 172.332L105.543 168.834ZM103.35 168.834C96.5297 168.834 90.8667 166.851 86.2519 162.944C81.6088 159.013 77.9016 153.027 75.2262 144.823L71.9011 145.907C74.7079 154.514 78.7062 161.138 83.992 165.613C89.306 170.112 95.7952 172.332 103.35 172.332L103.35 168.834ZM71.8822 144.884C69.7671 152.287 66.2087 158.204 61.2417 162.709L63.5913 165.3C69.1014 160.302 72.9744 153.792 75.2451 145.845L71.8822 144.884ZM61.2266 162.723C56.4922 167.119 50.2454 169.382 42.3152 169.382L42.3152 172.88C50.9533 172.88 58.1075 170.392 63.6064 165.286L61.2266 162.723ZM42.3152 169.382L22.3965 169.382L22.3965 172.88L42.3152 172.88L42.3152 169.382ZM22.3965 169.382C18.2625 169.382 14.7408 169.598 11.8515 170.042C8.98666 170.483 6.62187 171.166 4.88608 172.179L6.64833 175.2C7.83638 174.507 9.70506 173.911 12.3833 173.499C15.0371 173.091 18.3681 172.88 22.3965 172.88L22.3965 169.382ZM5.76721 171.941L4.85351 171.941L4.85351 175.438L5.76721 175.438L5.76721 171.941ZM6.60221 173.689L6.60222 130.38L3.1048 130.38L3.1048 173.689L6.60221 173.689ZM5.9339 131.755C7.16153 130.791 9.5221 130.119 13.4423 130.119L13.4423 126.621C9.32191 126.621 5.95663 127.289 3.77312 129.005L5.9339 131.755ZM13.4423 130.119L29.1579 130.119L29.1579 126.621L13.4423 126.621L13.4423 130.119ZM29.1579 130.119C37.823 130.119 44.5003 127.921 48.7409 123.134L46.1228 120.815C42.8102 124.555 37.3048 126.621 29.1579 126.621L29.1579 130.119ZM48.7409 123.134C52.9555 118.375 54.8455 110.515 54.8455 100.045L51.3481 100.045C51.3481 110.286 49.4615 117.045 46.1228 120.815L48.7409 123.134ZM54.8455 100.045L54.8455 44.4924L51.3481 44.4924L51.3481 100.045L54.8455 100.045ZM140.812 248.718L140.812 250.467L142.561 250.467L142.561 248.718L140.812 248.718ZM4.8535 248.718L3.1048 248.718L3.1048 250.467L4.8535 250.467L4.8535 248.718ZM4.85351 206.14L4.85351 204.391L3.1048 204.391L3.1048 206.14L4.85351 206.14ZM140.812 206.14L142.561 206.14L142.561 204.391L140.812 204.391L140.812 206.14ZM140.812 246.97L4.8535 246.97L4.8535 250.467L140.812 250.467L140.812 246.97ZM6.60221 248.718L6.60221 206.14L3.1048 206.14L3.1048 248.718L6.60221 248.718ZM4.85351 207.889L140.812 207.889L140.812 204.391L4.85351 204.391L4.85351 207.889ZM139.063 206.14L139.063 248.718L142.561 248.718L142.561 206.14L139.063 206.14ZM140.812 287.766L142.561 287.766L142.561 286.017L140.812 286.017L140.812 287.766ZM140.812 428.293L140.812 430.042L142.561 430.042L142.561 428.293L140.812 428.293ZM109.929 428.293L108.18 428.293L108.18 430.042L109.929 430.042L109.929 428.293ZM109.929 330.162L111.678 330.162L111.678 328.413L109.929 328.413L109.929 330.162ZM89.8275 330.162L89.8275 328.413L88.0788 328.413L88.0788 330.162L89.8275 330.162ZM89.8275 425.917L89.8275 427.666L91.5762 427.666L91.5762 425.917L89.8275 425.917ZM58.7617 425.917L57.013 425.917L57.013 427.666L58.7617 427.666L58.7617 425.917ZM58.7617 330.162L60.5104 330.162L60.5104 328.413L58.7617 328.413L58.7617 330.162ZM4.8535 330.162L3.1048 330.162L3.1048 331.91L4.8535 331.91L4.8535 330.162ZM4.8535 287.766L4.8535 286.017L3.1048 286.017L3.1048 287.766L4.8535 287.766ZM139.063 287.766L139.063 428.293L142.561 428.293L142.561 287.766L139.063 287.766ZM140.812 426.544L109.929 426.544L109.929 430.042L140.812 430.042L140.812 426.544ZM111.678 428.293L111.678 330.162L108.18 330.162L108.18 428.293L111.678 428.293ZM109.929 328.413L89.8275 328.413L89.8275 331.91L109.929 331.91L109.929 328.413ZM88.0788 330.162L88.0788 425.917L91.5762 425.917L91.5762 330.162L88.0788 330.162ZM89.8275 424.169L58.7617 424.169L58.7617 427.666L89.8275 427.666L89.8275 424.169ZM60.5104 425.917L60.5104 330.162L57.013 330.162L57.013 425.917L60.5104 425.917ZM58.7617 328.413L4.8535 328.413L4.8535 331.91L58.7617 331.91L58.7617 328.413ZM6.60221 330.162L6.60221 287.766L3.1048 287.766L3.1048 330.162L6.60221 330.162ZM4.8535 289.515L140.812 289.515L140.812 286.017L4.8535 286.017L4.8535 289.515ZM140.812 464.51L142.561 464.51L142.561 462.761L140.812 462.761L140.812 464.51ZM140.812 507.088L140.812 508.837L142.561 508.837L142.561 507.088L140.812 507.088ZM38.6603 507.088L38.6603 505.339L36.9116 505.339L36.9116 507.088L38.6603 507.088ZM38.6603 601.564L38.6603 603.313L40.409 603.313L40.409 601.564L38.6603 601.564ZM4.85349 601.564L3.10478 601.564L3.10478 603.313L4.85349 603.313L4.85349 601.564ZM4.85349 464.51L4.8535 462.761L3.10479 462.761L3.10479 464.51L4.85349 464.51ZM139.063 464.51L139.063 507.088L142.561 507.088L142.561 464.51L139.063 464.51ZM140.812 505.339L38.6603 505.339L38.6603 508.837L140.812 508.837L140.812 505.339ZM36.9116 507.088L36.9116 601.564L40.409 601.564L40.409 507.088L36.9116 507.088ZM38.6603 599.816L4.85349 599.816L4.85349 603.313L38.6603 603.313L38.6603 599.816ZM6.60219 601.564L6.6022 464.51L3.10479 464.51L3.10478 601.564L6.60219 601.564ZM4.85349 466.258L140.812 466.258L140.812 462.761L4.8535 462.761L4.85349 466.258ZM140.812 635.543L142.561 635.543L142.561 633.794L140.812 633.794L140.812 635.543ZM140.812 778.811L140.812 780.559L142.561 780.559L142.561 778.811L140.812 778.811ZM109.929 778.811L108.18 778.811L108.18 780.559L109.929 780.559L109.929 778.811ZM109.929 677.573L111.678 677.573L111.678 675.824L109.929 675.824L109.929 677.573ZM89.8275 677.573L89.8275 675.824L88.0788 675.824L88.0788 677.573L89.8275 677.573ZM89.8275 776.435L89.8275 778.184L91.5762 778.184L91.5762 776.435L89.8275 776.435ZM58.7617 776.435L57.013 776.435L57.013 778.184L58.7617 778.184L58.7617 776.435ZM58.7617 677.573L60.5104 677.573L60.5104 675.824L58.7617 675.824L58.7617 677.573ZM36.4675 677.573L36.4675 675.824L34.7188 675.824L34.7188 677.573L36.4675 677.573ZM36.4675 780.638L36.4675 782.387L38.2162 782.387L38.2162 780.638L36.4675 780.638ZM4.85348 780.638L3.10478 780.638L3.10478 782.387L4.85348 782.387L4.85348 780.638ZM4.85349 635.543L4.85349 633.794L3.10478 633.794L3.10478 635.543L4.85349 635.543ZM139.063 635.543L139.063 778.811L142.561 778.811L142.561 635.543L139.063 635.543ZM140.812 777.062L109.929 777.062L109.929 780.559L140.812 780.559L140.812 777.062ZM111.678 778.811L111.678 677.573L108.18 677.573L108.18 778.811L111.678 778.811ZM109.929 675.824L89.8275 675.824L89.8275 679.321L109.929 679.321L109.929 675.824ZM88.0788 677.573L88.0787 776.435L91.5762 776.435L91.5762 677.573L88.0788 677.573ZM89.8275 774.686L58.7617 774.686L58.7617 778.184L89.8275 778.184L89.8275 774.686ZM60.5104 776.435L60.5104 677.573L57.013 677.573L57.013 776.435L60.5104 776.435ZM58.7617 675.824L36.4675 675.824L36.4675 679.321L58.7617 679.321L58.7617 675.824ZM34.7188 677.573L34.7187 780.638L38.2162 780.638L38.2162 677.573L34.7188 677.573ZM36.4675 778.889L4.85348 778.889L4.85348 782.387L36.4675 782.387L36.4675 778.889ZM6.60219 780.638L6.60219 635.543L3.10478 635.543L3.10478 780.638L6.60219 780.638ZM4.85349 637.291L140.812 637.291L140.812 633.794L4.85349 633.794L4.85349 637.291ZM5.94992 853.665L7.65453 854.056L7.65453 854.056L5.94992 853.665ZM14.3559 830.275L12.8564 829.375L12.8564 829.375L14.3559 830.275ZM26.234 817.117L25.264 815.662L25.2424 815.677L25.2212 815.692L26.234 817.117ZM39.0258 810.904L38.6406 809.198L38.6146 809.204L38.5888 809.211L39.0258 810.904ZM53.0968 809.625L54.8455 809.625L54.8455 807.876L53.0968 807.876L53.0968 809.625ZM53.0968 854.031L53.215 855.776L54.8455 855.665L54.8455 854.031L53.0968 854.031ZM32.6299 918.172L30.8959 918.399L30.8983 918.417L30.9011 918.436L32.6299 918.172ZM36.102 930.416L37.6203 929.548L37.6203 929.548L36.102 930.416ZM40.4877 935.533L39.6066 937.043L39.6324 937.058L39.6587 937.072L40.4877 935.533ZM52.914 934.619L51.776 933.291L51.776 933.291L52.914 934.619ZM57.2998 924.386L55.6033 923.961L55.5987 923.98L55.5946 923.998L57.2998 924.386ZM59.6754 901.178L61.4236 901.22L61.4236 901.219L59.6754 901.178ZM60.2236 877.787L58.4756 877.739L58.4754 877.746L60.2236 877.787ZM113.766 813.097L113.264 814.772L113.271 814.774L113.279 814.776L113.766 813.097ZM124.913 819.676L123.744 820.976L123.754 820.985L123.765 820.994L124.913 819.676ZM134.416 832.468L135.994 831.714L135.991 831.707L135.987 831.7L134.416 832.468ZM140.629 854.031L138.907 854.333L138.909 854.345L138.911 854.356L140.629 854.031ZM134.05 953.624L132.473 952.869L132.47 952.876L132.467 952.883L134.05 953.624ZM124.183 967.512L123.008 966.216L122.997 966.226L122.987 966.236L124.183 967.512ZM112.487 975.005L111.919 973.351L111.911 973.354L111.902 973.356L112.487 975.005ZM98.4162 977.015L96.6675 977.015L96.6675 978.763L98.4162 978.763L98.4162 977.015ZM98.4162 932.792L98.1287 931.067L96.6675 931.31L96.6675 932.792L98.4162 932.792ZM102.071 931.695L101.518 930.036L101.4 930.076L101.289 930.131L102.071 931.695ZM106.274 928.771L105.084 927.49L105.084 927.49L106.274 928.771ZM110.477 922.558L108.87 921.869L108.87 921.869L110.477 922.558ZM113.401 911.046L111.677 910.751L111.676 910.758L113.401 911.046ZM112.67 867.005L110.963 867.385L110.967 867.403L110.971 867.421L112.67 867.005ZM108.65 856.955L109.769 855.611L109.763 855.606L109.757 855.601L108.65 856.955ZM97.3198 857.137L96.2003 855.794L96.1686 855.82L96.1381 855.848L97.3198 857.137ZM93.2995 866.274L91.6056 865.84L91.603 865.85L93.2995 866.274ZM91.2894 886.741L93.0379 886.769L93.0379 886.766L91.2894 886.741ZM90.9239 909.584L92.6723 909.617L92.6724 909.612L90.9239 909.584ZM80.5077 964.406L78.9925 963.533L78.9869 963.542L78.9814 963.552L80.5077 964.406ZM34.4573 979.756L33.9838 981.439L33.9972 981.443L34.4573 979.756ZM22.3965 972.994L21.2848 974.344L21.2848 974.344L22.3965 972.994ZM11.9803 959.289L13.551 958.52L13.5478 958.514L13.5444 958.507L11.9803 959.289ZM5.03621 936.081L3.31369 936.382L3.31517 936.391L3.31674 936.399L5.03621 936.081ZM4.22656 901.726L4.22657 889.117L0.729155 889.117L0.729154 901.726L4.22656 901.726ZM4.22657 889.117C4.22657 875.688 5.37641 864.007 7.65453 854.056L4.2453 853.275C1.89401 863.547 0.729155 875.5 0.729155 889.117L4.22657 889.117ZM7.65453 854.056C9.95035 844.026 12.7013 836.431 15.8554 831.174L12.8564 829.375C9.43197 835.082 6.57889 843.081 4.2453 853.275L7.65453 854.056ZM15.8554 831.174C19.0362 825.873 22.8376 821.676 27.2469 818.543L25.2212 815.692C20.3717 819.138 16.2543 823.712 12.8564 829.375L15.8554 831.174ZM27.204 818.572C31.8608 815.468 35.942 813.506 39.4628 812.597L38.5888 809.211C34.5563 810.252 30.1097 812.432 25.264 815.662L27.204 818.572ZM39.411 812.61C43.0492 811.788 46.9394 811.374 51.0866 811.374L51.0866 807.876C46.706 807.876 42.5557 808.314 38.6406 809.198L39.411 812.61ZM51.0866 811.374L53.0968 811.374L53.0968 807.876L51.0866 807.876L51.0866 811.374ZM51.3481 809.625L51.3481 854.031L54.8455 854.031L54.8455 809.625L51.3481 809.625ZM52.9785 852.286C45.1471 852.817 39.2394 856.809 35.3817 864.034C31.5887 871.138 29.7848 881.33 29.7848 894.416L33.2822 894.416C33.2822 881.553 35.0722 872.04 38.4669 865.682C41.7969 859.445 46.6709 856.219 53.215 855.776L52.9785 852.286ZM29.7848 894.416L29.7848 896.975L33.2822 896.975L33.2822 894.416L29.7848 894.416ZM29.7848 896.975C29.7848 905.544 30.1516 912.692 30.8959 918.399L34.3639 917.946C33.6463 912.445 33.2822 905.461 33.2822 896.975L29.7848 896.975ZM30.9011 918.436C31.762 924.093 32.9568 928.437 34.5837 931.284L37.6203 929.548C36.3233 927.279 35.2034 923.46 34.3587 917.909L30.9011 918.436ZM34.5837 931.284C36.0997 933.937 37.7492 935.96 39.6066 937.043L41.3688 934.022C40.3024 933.4 39.0281 932.012 37.6203 929.548L34.5837 931.284ZM39.6587 937.072C41.5334 938.082 43.6536 938.561 45.9699 938.561L45.9699 935.063C44.1441 935.063 42.6095 934.689 41.3168 933.993L39.6587 937.072ZM45.9699 938.561C49.1829 938.561 51.9442 937.754 54.0521 935.947L51.776 933.291C50.4727 934.408 48.6046 935.063 45.9699 935.063L45.9699 938.561ZM54.0521 935.947C55.1992 934.964 56.121 933.464 56.897 931.653C57.6843 929.816 58.3824 927.512 59.005 924.773L55.5946 923.998C54.9988 926.619 54.3569 928.701 53.6823 930.275C52.9963 931.876 52.3344 932.813 51.776 933.291L54.0521 935.947ZM58.9963 924.81C60.3834 919.261 61.1789 911.373 61.4236 901.22L57.9272 901.136C57.6845 911.206 56.8963 918.789 55.6033 923.961L58.9963 924.81ZM61.4236 901.219L61.9718 877.828L58.4754 877.746L57.9272 901.137L61.4236 901.219ZM61.9717 877.835C62.5777 855.836 66.1854 839.61 72.5958 828.936C78.9261 818.395 88.0183 813.201 100.061 813.201L100.061 809.704C86.7636 809.704 76.5462 815.565 69.5975 827.136C62.7287 838.573 59.0878 855.515 58.4756 877.739L61.9717 877.835ZM100.061 813.201L101.706 813.201L101.706 809.704L100.061 809.704L100.061 813.201ZM101.706 813.201C105.946 813.201 109.794 813.731 113.264 814.772L114.269 811.422C110.429 810.27 106.237 809.704 101.706 809.704L101.706 813.201ZM113.279 814.776C116.747 815.783 120.237 817.82 123.744 820.976L126.083 818.376C122.28 814.953 118.339 812.604 114.254 811.418L113.279 814.776ZM123.765 820.994C127.339 824.107 130.372 828.172 132.845 833.235L135.987 831.7C133.343 826.286 130.042 821.823 126.062 818.357L123.765 820.994ZM132.838 833.221C135.302 838.383 137.337 845.4 138.907 854.333L142.351 853.728C140.753 844.632 138.647 837.273 135.994 831.714L132.838 833.221ZM138.911 854.356C140.591 863.237 141.439 873.602 141.439 885.462L144.936 885.462C144.936 873.445 144.078 862.854 142.347 853.706L138.911 854.356ZM141.439 885.462L141.439 898.071L144.936 898.071L144.936 885.462L141.439 885.462ZM141.439 898.071C141.439 910.422 140.591 921.279 138.908 930.655L142.35 931.273C144.078 921.645 144.936 910.573 144.936 898.071L141.439 898.071ZM138.908 930.655C137.217 940.079 135.059 947.462 132.473 952.869L135.628 954.378C138.402 948.578 140.631 940.855 142.35 931.273L138.908 930.655ZM132.467 952.883C129.865 958.44 126.704 962.867 123.008 966.216L125.357 968.808C129.458 965.091 132.875 960.26 135.634 954.365L132.467 952.883ZM122.987 966.236C119.217 969.77 115.525 972.111 111.919 973.351L113.056 976.658C117.246 975.218 121.351 972.564 125.379 968.788L122.987 966.236ZM111.902 973.356C108.33 974.624 104.449 975.266 100.244 975.266L100.244 978.763C104.81 978.763 109.091 978.065 113.072 976.653L111.902 973.356ZM100.244 975.266L98.4162 975.266L98.4162 978.763L100.244 978.763L100.244 975.266ZM100.165 977.015L100.165 932.792L96.6675 932.792L96.6675 977.015L100.165 977.015ZM98.7037 934.517C100.28 934.254 101.678 933.847 102.853 933.259L101.289 930.131C100.515 930.518 99.4761 930.842 98.1287 931.067L98.7037 934.517ZM102.624 933.354C104.094 932.864 105.724 931.669 107.464 930.053L105.084 927.49C103.413 929.042 102.241 929.795 101.518 930.036L102.624 933.354ZM107.464 930.053C109.38 928.274 110.91 925.987 112.084 923.247L108.87 921.869C107.851 924.246 106.579 926.102 105.084 927.49L107.464 930.053ZM112.084 923.247C113.264 920.494 114.266 916.491 115.126 911.333L111.676 910.758C110.83 915.834 109.883 919.506 108.87 921.869L112.084 923.247ZM115.125 911.34C115.998 906.223 116.429 900.272 116.429 893.503L112.931 893.503C112.931 900.134 112.509 905.879 111.677 910.751L115.125 911.34ZM116.429 893.503L116.429 890.579L112.931 890.579L112.931 893.503L116.429 893.503ZM116.429 890.579C116.429 880.299 115.759 872.276 114.369 866.59L110.971 867.421C112.261 872.699 112.931 880.392 112.931 890.579L116.429 890.579ZM114.377 866.626C113.757 863.837 113.094 861.528 112.375 859.732C111.677 857.988 110.845 856.508 109.769 855.611L107.53 858.298C107.916 858.62 108.485 859.424 109.128 861.03C109.749 862.584 110.364 864.691 110.963 867.385L114.377 866.626ZM109.757 855.601C107.999 854.163 105.663 853.561 102.985 853.561L102.985 857.059C105.179 857.059 106.62 857.554 107.542 858.308L109.757 855.601ZM102.985 853.561C100.353 853.561 98.0405 854.261 96.2003 855.794L98.4393 858.481C99.5229 857.578 100.987 857.059 102.985 857.059L102.985 853.561ZM96.1381 855.848C95.147 856.757 94.3279 858.108 93.6177 859.722C92.8958 861.363 92.2284 863.411 91.6056 865.84L94.9934 866.709C95.5889 864.386 96.2006 862.536 96.8189 861.131C97.4487 859.699 98.0307 858.858 98.5014 858.426L96.1381 855.848ZM91.603 865.85C90.3365 870.916 89.6634 877.895 89.5408 886.717L93.0379 886.766C93.159 878.045 93.826 871.379 94.996 866.699L91.603 865.85ZM89.5409 886.713L89.1754 909.556L92.6724 909.612L93.0378 886.769L89.5409 886.713ZM89.1755 909.55C88.6894 934.827 85.2183 952.726 78.9925 963.533L82.023 965.279C88.7107 953.67 92.1838 935.02 92.6723 909.617L89.1755 909.55ZM78.9814 963.552C72.9746 974.295 63.5896 979.652 50.5384 979.652L50.5384 983.149C64.7763 983.149 75.3709 977.176 82.034 965.259L78.9814 963.552ZM50.5384 979.652L47.98 979.652L47.98 983.149L50.5384 983.149L50.5384 979.652ZM47.98 979.652C43.1108 979.652 38.7615 979.117 34.9174 978.069L33.9972 981.443C38.1936 982.587 42.8595 983.149 47.98 983.149L47.98 979.652ZM34.9308 978.072C31.3286 977.059 27.5208 974.949 23.5082 971.644L21.2848 974.344C25.5564 977.862 29.7891 980.259 33.9839 981.439L34.9308 978.072ZM23.5082 971.644C19.5916 968.419 16.2636 964.063 13.551 958.52L10.4096 960.058C13.301 965.966 16.9172 970.747 21.2848 974.344L23.5082 971.644ZM13.5444 958.507C10.8461 953.11 8.56887 945.554 6.75568 935.763L3.31674 936.399C5.15835 946.344 7.51058 954.26 10.4162 960.071L13.5444 958.507ZM6.75874 935.78C5.0752 926.159 4.22656 914.813 4.22656 901.726L0.729154 901.726C0.729153 914.953 1.58609 926.51 3.31369 936.382L6.75874 935.78Z" fill="white"/>
</svg>
