<svg width="88" height="993" viewBox="0 0 88 993" fill="none" xmlns="http://www.w3.org/2000/svg">
<path d="M3.29092 27.7678L4.3211 28.0036L4.3211 28.0036L3.29092 27.7678ZM8.37108 13.6317L7.46486 13.088L7.46486 13.088L8.37108 13.6317ZM15.5496 5.68015L14.9633 4.80082L14.9503 4.80954L14.9374 4.81864L15.5496 5.68015ZM23.2802 1.92525L23.0475 0.894381L23.0317 0.897928L23.0162 0.901952L23.2802 1.92525ZM31.784 1.15218L32.8408 1.15218L32.8408 0.0953603L31.784 0.0953603L31.784 1.15218ZM31.784 27.9887L31.8554 29.0431L32.8408 28.9763L32.8408 27.9887L31.784 27.9887ZM19.4149 66.7524L18.3669 66.8891L18.3684 66.9003L18.3701 66.9114L19.4149 66.7524ZM21.5132 74.1518L22.4308 73.6275L22.4308 73.6275L21.5132 74.1518ZM24.1637 77.2441L23.6312 78.1569L23.6468 78.166L23.6627 78.1746L24.1637 77.2441ZM31.6735 76.6919L30.9858 75.8895L30.9857 75.8895L31.6735 76.6919ZM34.324 70.5073L33.2988 70.251L33.296 70.262L33.2935 70.2731L34.324 70.5073ZM35.7597 56.4817L36.8163 56.5072L36.8163 56.5065L35.7597 56.4817ZM36.091 42.3456L35.0346 42.3165L35.0345 42.3208L36.091 42.3456ZM68.4494 3.25051L68.1457 4.2628L68.1548 4.26543L68.4494 3.25051ZM75.1861 7.22628L74.4792 8.01181L74.4856 8.01757L74.492 8.02322L75.1861 7.22628ZM80.9289 14.957L81.8827 14.5017L81.8786 14.4932L80.9289 14.957ZM84.6838 27.9887L83.6429 28.1715L83.6454 28.1851L84.6838 27.9887ZM80.7081 88.1774L79.7546 87.7215L79.7509 87.7294L80.7081 88.1774ZM74.7444 96.5707L74.0347 95.7876L74.0281 95.7936L74.0216 95.7997L74.7444 96.5707ZM67.6764 101.099L67.3328 100.099L67.3229 100.103L67.6764 101.099ZM59.1726 102.314L58.1158 102.314L58.1158 103.37L59.1726 103.37L59.1726 102.314ZM59.1726 75.5875L58.9989 74.545L58.1158 74.6922L58.1158 75.5875L59.1726 75.5875ZM61.3814 74.9249L61.0472 73.9223L60.9759 73.946L60.9088 73.9796L61.3814 74.9249ZM63.9215 73.1578L63.2023 72.3834L63.2023 72.3834L63.9215 73.1578ZM66.4615 69.403L65.4902 68.9867L65.4902 68.9867L66.4615 69.403ZM68.2285 62.4453L67.1868 62.2675L67.1861 62.2716L68.2285 62.4453ZM67.7868 35.8298L66.7551 36.059L66.7576 36.0699L66.7602 36.0807L67.7868 35.8298ZM65.3572 29.7557L66.0337 28.9438L66.0264 28.9377L65.3572 29.7557ZM58.51 29.8661L57.8334 29.0542L57.8143 29.0702L57.7959 29.0871L58.51 29.8661ZM56.0804 35.388L55.0566 35.1255L55.0551 35.1317L56.0804 35.388ZM54.8655 47.7571L55.9222 47.774L55.9223 47.7718L54.8655 47.7571ZM54.6447 61.5618L55.7013 61.5822L55.7013 61.5788L54.6447 61.5618ZM48.3497 94.6933L47.4339 94.1657L47.4273 94.1775L48.3497 94.6933ZM20.5193 103.97L20.2331 104.987L20.2412 104.99L20.5193 103.97ZM13.2304 99.8839L12.5585 100.7L12.5585 100.7L13.2304 99.8839ZM6.93538 91.601L7.88467 91.1365L7.88063 91.1284L6.93538 91.601ZM2.73873 77.5754L1.69768 77.7576L1.69957 77.7678L2.73873 77.5754ZM2.24942 56.813L2.24942 49.1928L0.135774 49.1928L0.135773 56.813L2.24942 56.813ZM2.24942 49.1928C2.24942 41.0772 2.94433 34.0179 4.3211 28.0036L2.26075 27.532C0.839753 33.7394 0.135774 40.9635 0.135774 49.1928L2.24942 49.1928ZM4.3211 28.0036C5.70857 21.9425 7.37109 17.3524 9.2773 14.1754L7.46486 13.088C5.39529 16.5372 3.67104 21.3712 2.26075 27.532L4.3211 28.0036ZM9.2773 14.1754C11.1996 10.9716 13.4969 8.43503 16.1617 6.54165L14.9374 4.81864C12.0067 6.90104 9.51835 9.66547 7.46486 13.088L9.2773 14.1754ZM16.1358 6.55948C18.9501 4.68328 21.4166 3.49765 23.5443 2.94855L23.0162 0.901952C20.5791 1.53086 17.8918 2.8485 14.9633 4.80082L16.1358 6.55948ZM23.513 2.95612C25.7117 2.45963 28.0628 2.20901 30.5691 2.20901L30.5691 0.0953602C27.9217 0.0953601 25.4135 0.360116 23.0475 0.894381L23.513 2.95612ZM30.5691 2.20901L31.784 2.20901L31.784 0.0953603L30.5691 0.0953602L30.5691 2.20901ZM30.7271 1.15218L30.7271 27.9887L32.8408 27.9887L32.8408 1.15218L30.7271 1.15218ZM31.7125 26.9342C26.9796 27.2551 23.4093 29.6679 21.0779 34.0343C18.7856 38.3276 17.6954 44.487 17.6954 52.3955L19.8091 52.3955C19.8091 44.6217 20.8909 38.8723 22.9424 35.0299C24.9549 31.2607 27.9005 29.3112 31.8554 29.0431L31.7125 26.9342ZM17.6954 52.3955L17.6954 53.9416L19.8091 53.9416L19.8091 52.3955L17.6954 52.3955ZM17.6954 53.9416C17.6954 59.1206 17.9171 63.4405 18.3669 66.8891L20.4628 66.6158C20.0292 63.2909 19.8091 59.0702 19.8091 53.9416L17.6954 53.9416ZM18.3701 66.9114C18.8904 70.3304 19.6124 72.9555 20.5956 74.6761L22.4308 73.6275C21.647 72.2558 20.9702 69.948 20.4597 66.5934L18.3701 66.9114ZM20.5956 74.6761C21.5118 76.2795 22.5087 77.5021 23.6312 78.1569L24.6962 76.3312C24.0517 75.9552 23.2816 75.1164 22.4308 73.6275L20.5956 74.6761ZM23.6627 78.1746C24.7957 78.7846 26.077 79.074 27.4769 79.074L27.4769 76.9603C26.3735 76.9603 25.446 76.7342 24.6648 76.3136L23.6627 78.1746ZM27.4769 79.074C29.4187 79.074 31.0874 78.5862 32.3613 77.4943L30.9857 75.8895C30.1981 76.5646 29.0691 76.9603 27.4769 76.9603L27.4769 79.074ZM32.3613 77.4943C33.0546 76.9 33.6117 75.9936 34.0806 74.8994C34.5564 73.7892 34.9783 72.397 35.3546 70.7415L33.2935 70.2731C32.9335 71.8572 32.5455 73.1155 32.1378 74.0668C31.7233 75.0341 31.3232 75.6002 30.9858 75.8895L32.3613 77.4943ZM35.3493 70.7637C36.1876 67.4104 36.6684 62.6431 36.8163 56.5072L34.7032 56.4562C34.5566 62.5421 34.0802 67.1252 33.2988 70.251L35.3493 70.7637ZM36.8163 56.5065L37.1476 42.3704L35.0345 42.3208L34.7032 56.4569L36.8163 56.5065ZM37.1475 42.3747C37.5137 29.0798 39.6941 19.2738 43.5681 12.8229C47.3939 6.45255 52.8887 3.31339 60.1666 3.31339L60.1666 1.19974C52.1304 1.19974 45.9556 4.74209 41.7561 11.7347C37.605 18.6469 35.4046 28.8854 35.0346 42.3165L37.1475 42.3747ZM60.1666 3.31339L61.1605 3.31339L61.1605 1.19974L60.1666 1.19974L60.1666 3.31339ZM61.1605 3.31339C63.7232 3.31339 66.0489 3.63372 68.1457 4.26276L68.7531 2.23826C66.4324 1.54204 63.8988 1.19974 61.1605 1.19974L61.1605 3.31339ZM68.1548 4.26543C70.2508 4.87395 72.3599 6.10449 74.4792 8.01181L75.8931 6.44075C73.5949 4.37231 71.2128 2.95233 68.7441 2.23559L68.1548 4.26543ZM74.492 8.02322C76.6518 9.9043 78.4851 12.3613 79.9793 15.4207L81.8786 14.4932C80.2805 11.2209 78.2853 8.52404 75.8803 6.42935L74.492 8.02322ZM79.9752 15.4122C81.4642 18.5319 82.6945 22.7725 83.6429 28.1715L85.7247 27.8058C84.7589 22.3082 83.486 17.861 81.8827 14.5017L79.9752 15.4122ZM83.6454 28.1851C84.6609 33.5527 85.1731 39.8161 85.1731 46.984L87.2868 46.984C87.2868 39.7213 86.7683 33.3212 85.7222 27.7922L83.6454 28.1851ZM85.1731 46.984L85.1731 54.6042L87.2868 54.6042L87.2868 46.984L85.1731 46.984ZM85.1731 54.6042C85.1731 62.0682 84.6607 68.6298 83.6436 74.2964L85.724 74.6698C86.7685 68.8508 87.2868 62.1598 87.2868 54.6042L85.1731 54.6042ZM83.6436 74.2964C82.6215 79.9914 81.3175 84.4537 79.7547 87.7215L81.6615 88.6334C83.3381 85.1277 84.6847 80.4604 85.724 74.6698L83.6436 74.2964ZM79.7509 87.7294C78.1789 91.0879 76.2681 93.7636 74.0347 95.7876L75.4541 97.3538C77.9327 95.1076 79.9977 92.1878 81.6652 88.6255L79.7509 87.7294ZM74.0216 95.7997C71.7435 97.9354 69.5125 99.35 67.3328 100.099L68.0199 102.098C70.5523 101.228 73.0332 99.6236 75.4672 97.3417L74.0216 95.7997ZM67.3229 100.103C65.1643 100.869 62.8185 101.257 60.277 101.257L60.277 103.37C63.0366 103.37 65.6237 102.948 68.0298 102.095L67.3229 100.103ZM60.277 101.257L59.1726 101.257L59.1726 103.37L60.277 103.37L60.277 101.257ZM60.2294 102.314L60.2294 75.5875L58.1158 75.5875L58.1158 102.314L60.2294 102.314ZM59.3464 76.6299C60.2991 76.4712 61.1438 76.2252 61.854 75.8701L60.9088 73.9796C60.441 74.2135 59.8132 74.4093 58.9989 74.545L59.3464 76.6299ZM61.7156 75.9275C62.604 75.6313 63.5889 74.9088 64.6406 73.9323L63.2023 72.3834C62.1925 73.3212 61.484 73.7767 61.0472 73.9223L61.7156 75.9275ZM64.6406 73.9323C65.7986 72.857 66.7233 71.4749 67.4329 69.8193L65.4902 68.9867C64.8745 70.4232 64.1059 71.5444 63.2023 72.3834L64.6406 73.9323ZM67.4329 69.8193C68.1461 68.1552 68.7515 65.7363 69.271 62.6191L67.1861 62.2716C66.6749 65.339 66.1022 67.5585 65.4902 68.9867L67.4329 69.8193ZM69.2703 62.6232C69.7983 59.5306 70.0584 55.9345 70.0584 51.8433L67.9448 51.8433C67.9448 55.8509 67.6895 59.3229 67.1868 62.2675L69.2703 62.6232ZM70.0584 51.8433L70.0584 50.0763L67.9448 50.0763L67.9448 51.8433L70.0584 51.8433ZM70.0584 50.0763C70.0584 43.8637 69.6534 39.0151 68.8134 35.5788L66.7602 36.0807C67.54 39.2707 67.9448 43.9198 67.9448 50.0763L70.0584 50.0763ZM68.8185 35.6005C68.444 33.9153 68.0428 32.5198 67.6084 31.4339C67.187 30.3802 66.6839 29.4856 66.0337 28.9438L64.6806 30.5675C64.9139 30.7619 65.2576 31.2479 65.646 32.2189C66.0215 33.1576 66.3934 34.4311 66.7551 36.059L68.8185 35.6005ZM66.0264 28.9377C64.9638 28.0683 63.5522 27.7049 61.9336 27.7049L61.9336 29.8185C63.2599 29.8185 64.1308 30.1177 64.6879 30.5736L66.0264 28.9377ZM61.9336 27.7049C60.343 27.7049 58.9455 28.1275 57.8334 29.0542L59.1866 30.678C59.8415 30.1322 60.7264 29.8185 61.9336 29.8185L61.9336 27.7049ZM57.7959 29.0871C57.1969 29.6361 56.7019 30.4528 56.2726 31.4284C55.8364 32.4198 55.433 33.6576 55.0566 35.1255L57.1041 35.6505C57.4639 34.2471 57.8336 33.1288 58.2073 32.2796C58.5879 31.4145 58.9396 30.9059 59.2241 30.6451L57.7959 29.0871ZM55.0551 35.1317C54.2897 38.1933 53.8829 42.4107 53.8088 47.7424L55.9223 47.7718C55.9955 42.5014 56.3985 38.4728 57.1056 35.6443L55.0551 35.1317ZM53.8088 47.7402L53.588 61.5449L55.7013 61.5788L55.9222 47.774L53.8088 47.7402ZM53.588 61.5415C53.2943 76.8178 51.1965 87.6345 47.4339 94.1657L49.2654 95.2208C53.3071 88.205 55.4061 76.9341 55.7013 61.5822L53.588 61.5415ZM47.4273 94.1775C43.7971 100.67 38.1253 103.907 30.2378 103.907L30.2378 106.021C38.8425 106.021 45.2453 102.411 49.2721 95.2091L47.4273 94.1775ZM30.2378 103.907L28.6917 103.907L28.6917 106.021L30.2378 106.021L30.2378 103.907ZM28.6917 103.907C25.749 103.907 23.1205 103.584 20.7973 102.951L20.2412 104.99C22.7773 105.681 25.5971 106.021 28.6917 106.021L28.6917 103.907ZM20.8054 102.953C18.6284 102.34 16.3272 101.065 13.9022 99.0681L12.5585 100.7C15.14 102.826 17.6981 104.274 20.2331 104.987L20.8054 102.953ZM13.9022 99.0681C11.5352 97.1188 9.52399 94.4865 7.88464 91.1365L5.98612 92.0656C7.73354 95.6364 9.91893 98.5259 12.5585 100.7L13.9022 99.0681ZM7.88063 91.1284C6.24989 87.8669 4.87368 83.3002 3.77789 77.3829L1.69957 77.7678C2.81254 83.7779 4.2341 88.5616 5.99013 92.0736L7.88063 91.1284ZM3.77973 77.3932C2.76229 71.5792 2.24942 64.7221 2.24942 56.813L0.135773 56.813C0.135773 64.807 0.653659 71.7914 1.69773 77.7575L3.77973 77.3932ZM2.62829 124.782L2.62829 123.725L1.57147 123.725L1.57147 124.782L2.62829 124.782ZM84.7943 124.782L85.8511 124.782L85.8511 123.725L84.7943 123.725L84.7943 124.782ZM84.7943 150.514L84.7943 151.571L85.8511 151.571L85.8511 150.514L84.7943 150.514ZM54.8655 150.514L54.8655 149.457L53.8087 149.457L53.8087 150.514L54.8655 150.514ZM54.8655 205.733L53.8087 205.733L53.8087 206.79L54.8655 206.79L54.8655 205.733ZM84.7943 205.733L85.8511 205.733L85.8511 204.676L84.7943 204.676L84.7943 205.733ZM84.7943 231.465L84.7943 232.522L85.8511 232.522L85.8511 231.465L84.7943 231.465ZM2.62829 231.465L1.57146 231.465L1.57146 232.522L2.62829 232.522L2.62829 231.465ZM2.62829 205.733L2.62829 204.676L1.57146 204.676L1.57146 205.733L2.62829 205.733ZM34.9867 205.733L34.9867 206.79L36.0435 206.79L36.0435 205.733L34.9867 205.733ZM34.9867 150.514L36.0435 150.514L36.0435 149.457L34.9867 149.457L34.9867 150.514ZM2.62829 150.514L1.57147 150.514L1.57147 151.571L2.62829 151.571L2.62829 150.514ZM2.62829 125.838L84.7943 125.838L84.7943 123.725L2.62829 123.725L2.62829 125.838ZM83.7374 124.782L83.7374 150.514L85.8511 150.514L85.8511 124.782L83.7374 124.782ZM84.7943 149.457L54.8655 149.457L54.8655 151.571L84.7943 151.571L84.7943 149.457ZM53.8087 150.514L53.8087 205.733L55.9224 205.733L55.9224 150.514L53.8087 150.514ZM54.8655 206.79L84.7943 206.79L84.7943 204.676L54.8655 204.676L54.8655 206.79ZM83.7374 205.733L83.7374 231.465L85.8511 231.465L85.8511 205.733L83.7374 205.733ZM84.7943 230.408L2.62829 230.408L2.62829 232.522L84.7943 232.522L84.7943 230.408ZM3.68511 231.465L3.68511 205.733L1.57146 205.733L1.57146 231.465L3.68511 231.465ZM2.62829 206.79L34.9867 206.79L34.9867 204.676L2.62829 204.676L2.62829 206.79ZM36.0435 205.733L36.0435 150.514L33.9298 150.514L33.9298 205.733L36.0435 205.733ZM34.9867 149.457L2.62829 149.457L2.62829 151.571L34.9867 151.571L34.9867 149.457ZM3.68511 150.514L3.68511 124.782L1.57147 124.782L1.57147 150.514L3.68511 150.514ZM84.6838 333.85L83.6431 333.665L83.641 333.678L84.6838 333.85ZM80.8185 348.427L79.8424 348.022L79.8398 348.029L80.8185 348.427ZM74.8548 358.809L75.6801 359.469L75.6801 359.469L74.8548 358.809ZM67.7868 365.656L67.1881 364.785L67.179 364.791L67.17 364.798L67.7868 365.656ZM60.0561 369.742L59.6908 368.75L59.6908 368.75L60.0561 369.742ZM52.5463 371.73L52.4066 370.682L52.4066 370.682L52.5463 371.73ZM35.4284 371.73L35.5681 370.682L35.5681 370.682L35.4284 371.73ZM27.8082 369.742L27.4428 370.734L27.4511 370.737L27.8082 369.742ZM19.9671 365.766L19.3683 366.637L19.3746 366.641L19.3808 366.646L19.9671 365.766ZM12.7886 358.809L11.9633 359.469L11.9653 359.471L12.7886 358.809ZM6.71449 348.538L5.73842 348.943L5.74166 348.951L5.74502 348.959L6.71449 348.538ZM2.73872 333.85L3.77973 333.667L3.77933 333.665L2.73872 333.85ZM2.73872 290.116L1.69772 289.934L2.73872 290.116ZM6.71449 275.428L5.74502 275.007L5.74166 275.015L5.73842 275.023L6.71449 275.428ZM12.7886 265.047L11.9734 264.374L11.9643 264.385L11.9555 264.396L12.7886 265.047ZM19.9671 258.089L19.3809 257.21L19.3654 257.22L19.3503 257.231L19.9671 258.089ZM27.8082 254.113L27.474 253.111L27.4583 253.116L27.4428 253.122L27.8082 254.113ZM35.4284 252.236L35.5681 253.283L35.5681 253.283L35.4284 252.236ZM52.4359 252.236L52.2915 253.283L52.2962 253.283L52.4359 252.236ZM59.9457 254.113L60.3027 253.119L60.2953 253.116L60.2878 253.113L59.9457 254.113ZM67.7868 258.089L68.4036 257.231L68.3946 257.224L68.3855 257.218L67.7868 258.089ZM74.8548 265.047L75.6801 264.386L75.6801 264.386L74.8548 265.047ZM80.8185 275.317L81.7972 274.919L81.7946 274.912L80.8185 275.317ZM84.6838 290.116L83.6406 290.286L83.6428 290.298L84.6838 290.116ZM50.6689 344.452L50.9538 345.469L50.9538 345.469L50.6689 344.452ZM56.4117 341.47L57.0407 342.319L57.0407 342.319L56.4117 341.47ZM61.4918 335.727L62.4005 336.267L62.4005 336.267L61.4918 335.727ZM64.9154 326.119L63.8869 325.876L63.8848 325.885L63.8829 325.894L64.9154 326.119ZM35.9806 280.066L35.6095 279.077L35.5961 279.082L35.5828 279.087L35.9806 280.066ZM28.9126 284.815L28.1898 284.044L28.1898 284.044L28.9126 284.815ZM23.2802 295.086L22.2684 294.781L22.2684 294.781L23.2802 295.086ZM23.1698 328.659L22.1548 328.954L22.158 328.964L23.1698 328.659ZM28.6917 339.04L27.9444 339.788L27.9503 339.793L27.9563 339.799L28.6917 339.04ZM35.7597 343.789L36.1575 342.81L36.1442 342.805L36.1308 342.8L35.7597 343.789ZM85.1731 309.664L85.1731 314.413L87.2868 314.413L87.2868 309.664L85.1731 309.664ZM85.1731 314.413C85.1731 321.505 84.6612 327.921 83.6432 333.665L85.7244 334.034C86.7679 328.146 87.2868 321.604 87.2868 314.413L85.1731 314.413ZM83.641 333.678C82.6923 339.443 81.4215 344.218 79.8424 348.022L81.7946 348.833C83.455 344.833 84.7611 339.889 85.7266 334.021L83.641 333.678ZM79.8398 348.029C78.2531 351.923 76.3141 355.293 74.0296 358.148L75.6801 359.469C78.1076 356.434 80.1443 352.883 81.7972 348.826L79.8398 348.029ZM74.0296 358.148C71.719 361.037 69.4364 363.239 67.1881 364.785L68.3855 366.527C70.8492 364.833 73.2786 362.471 75.6801 359.469L74.0296 358.148ZM67.17 364.798C64.8935 366.434 62.4016 367.752 59.6908 368.75L60.4215 370.734C63.3062 369.671 65.968 368.265 68.4036 366.514L67.17 364.798ZM59.6908 368.75C56.9431 369.763 54.5175 370.401 52.4066 370.682L52.686 372.777C54.9927 372.47 57.5736 371.783 60.4215 370.734L59.6908 368.75ZM52.4066 370.682C50.2481 370.97 47.9758 371.115 45.5887 371.115L45.5887 373.229C48.0609 373.229 50.427 373.079 52.686 372.777L52.4066 370.682ZM45.5887 371.115L42.2756 371.115L42.2756 373.229L45.5887 373.229L45.5887 371.115ZM42.2756 371.115C39.9636 371.115 37.728 370.97 35.5681 370.682L35.2887 372.777C37.5463 373.079 39.8755 373.229 42.2756 373.229L42.2756 371.115ZM35.5681 370.682C33.4549 370.401 30.9901 369.761 28.1652 368.747L27.4511 370.737C30.3691 371.784 32.9844 372.47 35.2887 372.777L35.5681 370.682ZM28.1735 368.75C25.4519 367.748 22.9125 366.46 20.5533 364.887L19.3808 366.646C21.8809 368.312 24.5689 369.675 27.4428 370.734L28.1735 368.75ZM20.5658 364.895C18.3183 363.35 15.9984 361.111 13.6119 358.146L11.9653 359.471C14.4381 362.544 16.9038 364.943 19.3683 366.637L20.5658 364.895ZM13.6138 358.148C11.3232 355.285 9.34476 351.944 7.68396 348.117L5.74502 348.959C7.47099 352.936 9.54196 356.442 11.9633 359.469L13.6138 358.148ZM7.69057 348.133C6.11002 344.325 4.80214 339.51 3.77972 333.667L1.69772 334.032C2.73681 339.97 4.07945 344.946 5.73842 348.943L7.69057 348.133ZM3.77933 333.665C2.76132 327.921 2.24941 321.505 2.24941 314.413L0.135762 314.413C0.135762 321.604 0.654609 328.146 1.69811 334.034L3.77933 333.665ZM2.24941 314.413L2.24941 309.664L0.135762 309.664L0.135762 314.413L2.24941 314.413ZM2.24941 309.664C2.24941 302.572 2.76129 296.118 3.77973 290.298L1.69772 289.934C0.654642 295.894 0.135763 302.472 0.135762 309.664L2.24941 309.664ZM3.77973 290.298C4.80214 284.456 6.11002 279.641 7.69057 275.833L5.73842 275.023C4.07945 279.019 2.73682 283.996 1.69772 289.934L3.77973 290.298ZM7.68397 275.849C9.34566 272.019 11.3264 268.638 13.6217 265.697L11.9555 264.396C9.5388 267.493 7.4701 271.032 5.74502 275.007L7.68397 275.849ZM13.6038 265.719C15.9926 262.824 18.3207 260.574 20.5839 258.947L19.3503 257.231C16.9014 258.991 14.4438 261.38 11.9734 264.374L13.6038 265.719ZM20.5533 258.968C22.9125 257.396 25.4519 256.108 28.1735 255.105L27.4428 253.122C24.5689 254.18 21.8809 255.543 19.3809 257.21L20.5533 258.968ZM28.1424 255.116C30.9713 254.173 33.4441 253.567 35.5681 253.283L35.2887 251.188C32.9952 251.494 30.3878 252.139 27.474 253.111L28.1424 255.116ZM35.5681 253.283C37.728 252.995 39.9636 252.851 42.2756 252.851L42.2756 250.737C39.8755 250.737 37.5464 250.887 35.2887 251.188L35.5681 253.283ZM42.2756 252.851L45.5887 252.851L45.5887 250.737L42.2756 250.737L42.2756 252.851ZM45.5887 252.851C47.976 252.851 50.2098 252.996 52.2915 253.283L52.5803 251.189C50.3917 250.887 48.0607 250.737 45.5887 250.737L45.5887 252.851ZM52.2962 253.283C54.418 253.566 56.8517 254.172 59.6036 255.113L60.2878 253.113C57.4442 252.141 54.8713 251.494 52.5756 251.188L52.2962 253.283ZM59.5886 255.108C62.3802 256.11 64.9118 257.395 67.1881 258.96L68.3855 257.218C65.9498 255.544 63.254 254.178 60.3027 253.119L59.5886 255.108ZM67.17 258.947C69.4285 260.571 71.7168 262.816 74.0296 265.707L75.6801 264.386C73.2809 261.387 70.8571 258.994 68.4036 257.231L67.17 258.947ZM74.0296 265.707C76.3167 268.566 78.2562 271.901 79.8424 275.723L81.7946 274.912C80.1413 270.929 78.105 267.418 75.6801 264.386L74.0296 265.707ZM79.8398 275.716C81.4204 279.596 82.6918 284.446 83.6407 290.286L85.727 289.947C84.7616 284.006 83.4561 278.991 81.7972 274.919L79.8398 275.716ZM83.6428 290.298C84.6613 296.118 85.1731 302.572 85.1731 309.664L87.2868 309.664C87.2868 302.472 86.7679 295.894 85.7248 289.934L83.6428 290.298ZM43.2695 346.282L44.8157 346.282L44.8157 344.168L43.2695 344.168L43.2695 346.282ZM44.8157 346.282C46.966 346.282 49.0135 346.013 50.9538 345.469L50.3839 343.434C48.643 343.921 46.7884 344.168 44.8157 344.168L44.8157 346.282ZM50.9538 345.469C52.949 344.911 54.9783 343.847 57.0407 342.319L55.7826 340.621C53.8692 342.038 52.07 342.962 50.3839 343.434L50.9538 345.469ZM57.0407 342.319C59.153 340.754 60.9377 338.73 62.4005 336.267L60.5831 335.188C59.2482 337.436 57.646 339.24 55.7826 340.621L57.0407 342.319ZM62.4005 336.267C63.8789 333.777 65.0513 330.454 65.9479 326.344L63.8829 325.894C63.0124 329.883 61.9025 332.965 60.5831 335.188L62.4005 336.267ZM65.9439 326.362C66.9244 322.214 67.4079 317.417 67.4079 311.983L65.2943 311.983C65.2943 317.298 64.8207 321.925 63.8869 325.876L65.9439 326.362ZM67.4079 311.983C67.4079 300.822 65.6064 292.269 61.8542 286.477C58.0507 280.606 52.3151 277.684 44.8157 277.684L44.8157 279.798C51.6731 279.798 56.7053 282.416 60.0803 287.626C63.5065 292.915 65.2943 300.983 65.2943 311.983L67.4079 311.983ZM44.8157 277.684L43.4904 277.684L43.4904 279.798L44.8157 279.798L44.8157 277.684ZM43.4904 277.684C40.72 277.684 38.0904 278.146 35.6095 279.077L36.3517 281.056C38.5828 280.219 40.9598 279.798 43.4904 279.798L43.4904 277.684ZM35.5828 279.087C33.079 280.104 30.616 281.77 28.1898 284.044L29.6354 285.586C31.9212 283.443 34.1701 281.942 36.3784 281.045L35.5828 279.087ZM28.1898 284.044C25.6467 286.428 23.6961 290.047 22.2684 294.781L24.292 295.391C25.6621 290.848 27.4664 287.62 29.6354 285.586L28.1898 284.044ZM22.2684 294.781C20.831 299.547 20.1251 305.288 20.1251 311.983L22.2387 311.983C22.2387 305.425 22.9317 299.902 24.292 295.391L22.2684 294.781ZM20.1251 311.983C20.1251 318.6 20.7935 324.265 22.1549 328.954L24.1847 328.364C22.8955 323.924 22.2387 318.471 22.2387 311.983L20.1251 311.983ZM22.158 328.964C23.584 333.693 25.4922 337.335 27.9444 339.788L29.439 338.293C27.3264 336.18 25.5533 332.902 24.1816 328.354L22.158 328.964ZM27.9563 339.799C30.3864 342.153 32.8621 343.831 35.3886 344.779L36.1308 342.8C33.9453 341.98 31.709 340.492 29.427 338.281L27.9563 339.799ZM35.362 344.768C37.8496 345.779 40.4885 346.282 43.2695 346.282L43.2695 344.168C40.7495 344.168 38.3818 343.714 36.1575 342.81L35.362 344.768ZM2.62828 421.237L2.62828 420.18L1.57145 420.18L1.57145 421.237L2.62828 421.237ZM65.3571 421.237L65.3571 422.294L66.414 422.294L66.414 421.237L65.3571 421.237ZM65.3571 385.897L65.3571 384.84L64.3003 384.84L64.3003 385.897L65.3571 385.897ZM84.7943 385.897L85.8511 385.897L85.8511 384.84L84.7943 384.84L84.7943 385.897ZM84.7942 482.641L84.7942 483.698L85.8511 483.698L85.8511 482.641L84.7942 482.641ZM65.3571 482.641L64.3003 482.641L64.3003 483.698L65.3571 483.698L65.3571 482.641ZM65.3571 447.19L66.414 447.19L66.414 446.133L65.3571 446.133L65.3571 447.19ZM2.62828 447.19L1.57145 447.19L1.57145 448.247L2.62828 448.247L2.62828 447.19ZM2.62828 422.294L65.3571 422.294L65.3571 420.18L2.62828 420.18L2.62828 422.294ZM66.414 421.237L66.414 385.897L64.3003 385.897L64.3003 421.237L66.414 421.237ZM65.3571 386.954L84.7943 386.954L84.7943 384.84L65.3571 384.84L65.3571 386.954ZM83.7374 385.897L83.7374 482.641L85.8511 482.641L85.8511 385.897L83.7374 385.897ZM84.7942 481.584L65.3571 481.584L65.3571 483.698L84.7942 483.698L84.7942 481.584ZM66.414 482.641L66.414 447.19L64.3003 447.19L64.3003 482.641L66.414 482.641ZM65.3571 446.133L2.62828 446.133L2.62828 448.247L65.3571 448.247L65.3571 446.133ZM3.6851 447.19L3.6851 421.237L1.57145 421.237L1.57145 447.19L3.6851 447.19ZM3.95353 528.726L2.93526 528.443L2.93526 528.443L3.95353 528.726ZM10.9111 512.823L10.0599 512.197L10.0533 512.206L10.0469 512.215L10.9111 512.823ZM20.8506 503.215L20.2722 502.331L20.2643 502.336L20.8506 503.215ZM31.7839 498.025L31.5276 496.999L31.5149 497.002L31.5022 497.006L31.7839 498.025ZM55.9699 497.804L56.2157 496.776L56.2074 496.774L56.1992 496.772L55.9699 497.804ZM66.6824 502.663L67.2607 501.778L67.2565 501.776L66.6824 502.663ZM76.5114 512.271L75.6448 512.876L75.6525 512.887L76.5114 512.271ZM83.469 528.395L84.4903 528.123L84.4896 528.121L83.469 528.395ZM84.0212 580.301L85.0534 580.528L85.0534 580.528L84.0212 580.301ZM78.4993 595.983L77.5884 595.447L77.5822 595.458L77.5763 595.468L78.4993 595.983ZM70.7686 605.37L70.1059 604.547L70.0961 604.555L70.7686 605.37ZM62.5962 610.23L62.2709 609.224L62.262 609.227L62.5962 610.23ZM55.0864 611.555L55.0864 612.612L55.1015 612.612L55.1166 612.611L55.0864 611.555ZM54.9759 611.555L53.9191 611.555L53.9191 612.612L54.9759 612.612L54.9759 611.555ZM54.9759 584.166L54.6277 583.169L53.9191 583.416L53.9191 584.166L54.9759 584.166ZM27.6977 531.266L26.8945 530.58L26.8897 530.585L27.6977 531.266ZM22.1758 567.269L21.1345 567.449L21.1345 567.449L22.1758 567.269ZM24.6055 576.436L25.5801 576.027L25.5801 576.027L24.6055 576.436ZM27.6977 582.178L26.8377 582.793L26.843 582.8L27.6977 582.178ZM30.79 585.492L31.4241 584.646L31.4006 584.628L31.3762 584.612L30.79 585.492ZM33.1092 586.486L33.1092 587.542L34.166 587.542L34.166 586.486L33.1092 586.486ZM33.1092 554.238L33.1092 553.181L32.0524 553.181L32.0524 554.238L33.1092 554.238ZM48.681 554.238L49.7378 554.238L49.7378 553.181L48.681 553.181L48.681 554.238ZM48.681 612.107L48.681 613.164L49.7378 613.164L49.7378 612.107L48.681 612.107ZM2.62827 612.107L1.57144 612.107L1.57144 613.164L2.62827 613.164L2.62827 612.107ZM2.62827 596.646L2.5058 595.596L1.57145 595.705L1.57145 596.646L2.62827 596.646ZM15.4391 593.333L15.8406 594.31L17.4267 593.659L16.1319 592.535L15.4391 593.333ZM2.2494 553.796L2.2494 551.477L0.135752 551.477L0.135752 553.796L2.2494 553.796ZM2.2494 551.477C2.2494 543.01 3.16204 535.524 4.9718 529.009L2.93526 528.443C1.06375 535.181 0.135752 542.863 0.135752 551.477L2.2494 551.477ZM4.9718 529.009C6.79241 522.455 9.06952 517.277 11.7754 513.431L10.0469 512.215C7.15722 516.321 4.79592 521.745 2.93526 528.443L4.9718 529.009ZM11.7623 513.45C14.5662 509.639 17.7916 506.525 21.4368 504.094L20.2643 502.336C16.3998 504.912 12.9989 508.203 10.0599 512.197L11.7623 513.45ZM21.4289 504.1C25.1898 501.641 28.7347 499.964 32.0657 499.043L31.5022 497.006C27.9124 497.999 24.1683 499.783 20.2722 502.331L21.4289 504.1ZM32.0403 499.05C35.4913 498.187 38.976 497.756 42.4964 497.756L42.4964 495.642C38.8015 495.642 35.1446 496.095 31.5276 496.999L32.0403 499.05ZM42.4964 497.756L45.5887 497.756L45.5887 495.642L42.4964 495.642L42.4964 497.756ZM45.5887 497.756C49.1241 497.756 52.5073 498.117 55.7406 498.835L56.1992 496.772C52.8062 496.018 49.2686 495.642 45.5887 495.642L45.5887 497.756ZM55.7241 498.832C58.9664 499.607 62.4269 501.168 66.1083 503.55L67.2565 501.776C63.4281 499.298 59.7469 497.62 56.2157 496.776L55.7241 498.832ZM66.104 503.547C69.815 505.974 72.9948 509.08 75.6448 512.876L77.3779 511.666C74.5797 507.658 71.2069 504.359 67.2607 501.778L66.104 503.547ZM75.6525 512.887C78.3499 516.649 80.6265 521.892 82.4484 528.669L84.4896 528.121C82.6302 521.204 80.2684 515.697 77.3703 511.655L75.6525 512.887ZM82.4477 528.667C84.2595 535.479 85.1731 543.373 85.1731 552.36L87.2868 552.36C87.2868 543.235 86.3598 535.153 84.4903 528.123L82.4477 528.667ZM85.1731 552.36L85.1731 557.109L87.2868 557.109L87.2868 552.36L85.1731 552.36ZM85.1731 557.109C85.1731 565.814 84.4413 573.466 82.989 580.074L85.0534 580.528C86.546 573.736 87.2868 565.927 87.2868 557.109L85.1731 557.109ZM82.989 580.074C81.5283 586.72 79.7179 591.827 77.5884 595.447L79.4102 596.519C81.6982 592.629 83.569 587.282 85.0534 580.528L82.989 580.074ZM77.5763 595.468C75.4987 599.194 73.0058 602.213 70.106 604.547L71.4312 606.194C74.5687 603.668 77.2296 600.43 79.4223 596.498L77.5763 595.468ZM70.0961 604.555C67.2114 606.935 64.604 608.469 62.2709 609.224L62.9215 611.235C65.5949 610.37 68.4358 608.665 71.4411 606.186L70.0961 604.555ZM62.262 609.227C59.9312 610.004 57.5304 610.428 55.0562 610.499L55.1166 612.611C57.7962 612.535 60.4019 612.075 62.9304 611.232L62.262 609.227ZM55.0864 610.498L54.9759 610.498L54.9759 612.612L55.0864 612.612L55.0864 610.498ZM56.0328 611.555L56.0328 584.166L53.9191 584.166L53.9191 611.555L56.0328 611.555ZM55.3242 585.164C59.5896 583.675 62.7055 580.278 64.737 575.199C66.7589 570.144 67.7392 563.357 67.7392 554.9L65.6256 554.9C65.6256 563.23 64.6548 569.714 62.7745 574.414C60.9039 579.091 58.1666 581.933 54.6277 583.169L55.3242 585.164ZM67.7392 554.9C67.7392 544.389 65.8786 536.316 61.9945 530.848C58.0632 525.313 52.1638 522.589 44.4843 522.589L44.4843 524.703C51.6035 524.703 56.8032 527.189 60.2713 532.072C63.7865 537.021 65.6256 544.575 65.6256 554.9L67.7392 554.9ZM44.4843 522.589L43.2695 522.589L43.2695 524.703L44.4843 524.703L44.4843 522.589ZM43.2695 522.589C36.8879 522.589 31.415 525.293 26.8945 530.58L28.501 531.953C32.6683 527.08 37.5766 524.703 43.2695 524.703L43.2695 522.589ZM26.8897 530.585C22.3173 536.01 20.1251 544.106 20.1251 554.679L22.2387 554.679C22.2387 544.343 24.3904 536.83 28.5058 531.948L26.8897 530.585ZM20.1251 554.679C20.1251 559.294 20.4599 563.552 21.1345 567.449L23.2172 567.089C22.5664 563.329 22.2387 559.194 22.2387 554.679L20.1251 554.679ZM21.1345 567.449C21.8039 571.317 22.6307 574.459 23.6309 576.844L25.5801 576.027C24.666 573.847 23.873 570.878 23.2172 567.089L21.1345 567.449ZM23.6309 576.844C24.6098 579.179 25.6763 581.167 26.8378 582.793L28.5577 581.564C27.5104 580.098 26.5154 578.257 25.5801 576.027L23.6309 576.844ZM26.843 582.8C28.0413 584.448 29.1609 585.676 30.2038 586.371L31.3762 584.612C30.652 584.129 29.7101 583.149 28.5524 581.557L26.843 582.8ZM30.1559 586.337C31.0535 587.01 31.9979 587.542 32.8883 587.542L32.8883 585.429C32.748 585.429 32.2936 585.298 31.4241 584.646L30.1559 586.337ZM32.8883 587.542L33.1092 587.542L33.1092 585.429L32.8883 585.429L32.8883 587.542ZM34.166 586.486L34.166 554.238L32.0524 554.238L32.0524 586.486L34.166 586.486ZM33.1092 555.294L48.681 555.294L48.681 553.181L33.1092 553.181L33.1092 555.294ZM47.6242 554.238L47.6241 612.107L49.7378 612.107L49.7378 554.238L47.6242 554.238ZM48.681 611.05L2.62827 611.05L2.62827 613.164L48.681 613.164L48.681 611.05ZM3.68509 612.107L3.68509 596.646L1.57145 596.646L1.57144 612.107L3.68509 612.107ZM2.75073 597.696C7.26434 597.169 11.6285 596.04 15.8406 594.31L15.0376 592.355C11.0036 594.012 6.82725 595.092 2.5058 595.596L2.75073 597.696ZM16.1319 592.535C6.95269 584.565 2.2494 571.74 2.2494 553.796L0.135752 553.796C0.135751 572.075 4.93014 585.608 14.7462 594.131L16.1319 592.535ZM2.95958 667.791L1.92757 667.564L1.92564 667.572L1.92386 667.581L2.95958 667.791ZM7.26667 655.091L6.32546 654.61L6.32546 654.61L7.26667 655.091ZM13.6721 645.925L12.9038 645.199L12.9038 645.199L13.6721 645.925ZM21.2923 639.63L21.836 640.536L21.836 640.536L21.2923 639.63ZM29.5752 635.764L29.2485 634.759L29.2372 634.763L29.2261 634.767L29.5752 635.764ZM37.6372 633.776L37.51 632.727L37.4944 632.729L37.4788 632.731L37.6372 633.776ZM84.7942 633.335L85.8511 633.335L85.8511 632.278L84.7942 632.278L84.7942 633.335ZM84.7942 659.177L84.7942 660.234L85.8511 660.234L85.8511 659.177L84.7942 659.177ZM38.1893 660.282L37.899 659.265L37.8814 659.27L37.864 659.276L38.1893 660.282ZM30.6796 664.257L30.0535 663.406L30.0474 663.41L30.0414 663.415L30.6796 664.257ZM24.8263 672.651L23.8425 672.265L23.8379 672.276L23.8337 672.288L24.8263 672.651ZM24.8263 699.708L23.8384 700.083L23.8425 700.094L24.8263 699.708ZM30.6796 708.101L31.3215 707.262L31.3177 707.259L30.6796 708.101ZM38.1893 712.077L38.5062 711.069L38.4969 711.066L38.4875 711.063L38.1893 712.077ZM84.7942 713.292L85.8511 713.292L85.8511 712.235L84.7942 712.235L84.7942 713.292ZM84.7942 739.024L84.7942 740.081L85.8511 740.081L85.8511 739.024L84.7942 739.024ZM34.4344 737.809L34.6705 736.779L34.6603 736.777L34.65 736.774L34.4344 737.809ZM22.9489 733.281L22.43 734.202L22.437 734.206L22.9489 733.281ZM12.2364 724.556L13.0317 723.861L13.0317 723.861L12.2364 724.556ZM4.50571 709.868L5.50949 709.538L5.5083 709.534L4.50571 709.868ZM2.47027 688.554L2.47027 684.578L0.356622 684.578L0.356622 688.554L2.47027 688.554ZM2.47027 684.578C2.47027 678.525 2.98081 673.001 3.9953 668.001L1.92386 667.581C0.876844 672.741 0.356622 678.409 0.356622 684.578L2.47027 684.578ZM3.9916 668.019C5.08237 663.074 6.4924 658.931 8.20788 655.572L6.32546 654.61C4.50691 658.172 3.04555 662.495 1.92757 667.564L3.9916 668.019ZM8.20788 655.572C9.9322 652.195 12.0105 649.223 14.4404 646.65L12.9038 645.199C10.3271 647.927 8.13516 651.066 6.32546 654.61L8.20788 655.572ZM14.4404 646.65C16.891 644.055 19.3573 642.023 21.836 640.536L20.7486 638.723C18.0735 640.328 15.4597 642.493 12.9038 645.199L14.4404 646.65ZM21.836 640.536C24.349 639.028 27.0445 637.77 29.9243 636.762L29.2261 634.767C26.2158 635.82 23.3894 637.139 20.7486 638.723L21.836 640.536ZM29.9018 636.769C32.8054 635.826 35.4354 635.179 37.7955 634.821L37.4788 632.731C34.9796 633.11 32.235 633.789 29.2485 634.759L29.9018 636.769ZM37.7643 634.825C40.1521 634.536 42.5393 634.391 44.9261 634.391L44.9261 632.278C42.4536 632.278 39.9815 632.428 37.51 632.727L37.7643 634.825ZM44.9261 634.391L84.7942 634.391L84.7942 632.278L44.9261 632.278L44.9261 634.391ZM83.7374 633.335L83.7374 659.177L85.8511 659.177L85.8511 633.335L83.7374 633.335ZM84.7942 658.12L46.4722 658.12L46.4722 660.234L84.7942 660.234L84.7942 658.12ZM46.4722 658.12C43.4386 658.12 40.5791 658.5 37.899 659.265L38.4797 661.298C40.9533 660.591 43.6158 660.234 46.4722 660.234L46.4722 658.12ZM37.864 659.276C35.2354 660.126 32.632 661.51 30.0535 663.406L31.3056 665.109C33.7336 663.323 36.1367 662.056 38.5147 661.287L37.864 659.276ZM30.0414 663.415C27.4142 665.405 25.3636 668.386 23.8425 672.265L25.8102 673.036C27.2341 669.406 29.0856 666.791 31.3177 665.1L30.0414 663.415ZM23.8337 672.288C22.3817 676.262 21.6712 680.955 21.6712 686.345L23.7848 686.345C23.7848 681.132 24.4732 676.697 25.819 673.013L23.8337 672.288ZM21.6712 686.345C21.6712 691.661 22.3818 696.25 23.8384 700.083L25.8142 699.333C24.4731 695.803 23.7848 691.484 23.7848 686.345L21.6712 686.345ZM23.8425 700.094C25.3636 703.973 27.4142 706.953 30.0414 708.944L31.3177 707.259C29.0856 705.568 27.2341 702.953 25.8102 699.322L23.8425 700.094ZM30.0376 708.941C32.623 710.918 35.2407 712.311 37.8911 713.091L38.4875 711.063C36.1315 710.37 33.7427 709.113 31.3215 707.262L30.0376 708.941ZM37.8725 713.085C40.5607 713.93 43.4294 714.349 46.4722 714.349L46.4722 712.235C43.625 712.235 40.9717 711.844 38.5062 711.069L37.8725 713.085ZM46.4722 714.349L84.7942 714.349L84.7942 712.235L46.4722 712.235L46.4722 714.349ZM83.7374 713.292L83.7374 739.024L85.8511 739.024L85.8511 713.292L83.7374 713.292ZM84.7942 737.967L44.9261 737.967L44.9261 740.081L84.7942 740.081L84.7942 737.967ZM44.9261 737.967C41.5488 737.967 38.1308 737.572 34.6705 736.779L34.1984 738.839C37.8061 739.666 41.3825 740.081 44.9261 740.081L44.9261 737.967ZM34.65 736.774C31.2458 736.065 27.5177 734.602 23.4607 732.357L22.437 734.206C26.6261 736.525 30.5551 738.08 34.2189 738.844L34.65 736.774ZM23.4678 732.36C19.5237 730.137 16.0461 727.306 13.0317 723.861L11.441 725.252C14.6112 728.876 18.2753 731.86 22.43 734.202L23.4678 732.36ZM13.0317 723.861C10.0622 720.467 7.54329 715.712 5.50948 709.538L3.50195 710.199C5.59116 716.541 8.226 721.578 11.441 725.252L13.0317 723.861ZM5.5083 709.534C3.48991 703.479 2.47027 696.49 2.47027 688.554L0.356622 688.554C0.356622 696.667 1.3985 703.889 3.50312 710.202L5.5083 709.534ZM84.7942 761.634L85.8511 761.634L85.8511 760.578L84.7942 760.578L84.7942 761.634ZM84.7942 790.348L85.547 791.09L85.8511 790.781L85.8511 790.348L84.7942 790.348ZM33.1092 842.806L32.3564 842.065L30.5843 843.863L33.1092 843.863L33.1092 842.806ZM84.7942 842.806L85.8511 842.806L85.8511 841.75L84.7942 841.75L84.7942 842.806ZM84.7942 868.207L84.7942 869.264L85.8511 869.264L85.8511 868.207L84.7942 868.207ZM2.62826 868.207L1.57143 868.207L1.57143 869.264L2.62826 869.264L2.62826 868.207ZM2.62826 842.806L1.87204 842.068L1.57143 842.376L1.57143 842.806L2.62826 842.806ZM57.0743 787.035L57.8305 787.773L59.5829 785.978L57.0743 785.978L57.0743 787.035ZM2.62826 787.035L1.57144 787.035L1.57144 788.092L2.62826 788.092L2.62826 787.035ZM2.62826 761.634L2.62826 760.578L1.57144 760.578L1.57144 761.634L2.62826 761.634ZM83.7374 761.634L83.7374 790.348L85.8511 790.348L85.8511 761.634L83.7374 761.634ZM84.0414 789.607L32.3564 842.065L33.862 843.548L85.547 791.09L84.0414 789.607ZM33.1092 843.863L84.7942 843.863L84.7942 841.75L33.1092 841.75L33.1092 843.863ZM83.7374 842.806L83.7374 868.207L85.8511 868.207L85.8511 842.806L83.7374 842.806ZM84.7942 867.15L2.62826 867.15L2.62826 869.264L84.7942 869.264L84.7942 867.15ZM3.68508 868.207L3.68508 842.806L1.57143 842.806L1.57143 868.207L3.68508 868.207ZM3.38448 843.545L57.8305 787.773L56.318 786.297L1.87204 842.068L3.38448 843.545ZM57.0743 785.978L2.62826 785.978L2.62826 788.092L57.0743 788.092L57.0743 785.978ZM3.68509 787.035L3.68509 761.634L1.57144 761.634L1.57144 787.035L3.68509 787.035ZM2.62826 762.691L84.7942 762.691L84.7942 760.578L2.62826 760.578L2.62826 762.691ZM3.29088 914.271L4.32106 914.507L4.32106 914.507L3.29088 914.271ZM8.37104 900.135L7.46482 899.591L7.46482 899.591L8.37104 900.135ZM15.5495 892.183L14.9633 891.304L14.9502 891.313L14.9374 891.322L15.5495 892.183ZM23.2802 888.429L23.0474 887.398L23.0317 887.401L23.0161 887.405L23.2802 888.429ZM31.7839 887.655L32.8407 887.655L32.8407 886.599L31.7839 886.599L31.7839 887.655ZM31.7839 914.492L31.8554 915.546L32.8407 915.48L32.8407 914.492L31.7839 914.492ZM19.4149 953.256L18.3669 953.392L18.3684 953.404L18.3701 953.415L19.4149 953.256ZM21.5132 960.655L22.4308 960.131L22.4308 960.131L21.5132 960.655ZM24.1637 963.747L23.6312 964.66L23.6468 964.669L23.6626 964.678L24.1637 963.747ZM31.6735 963.195L30.9857 962.393L30.9857 962.393L31.6735 963.195ZM34.324 957.011L33.2987 956.754L33.296 956.765L33.2935 956.776L34.324 957.011ZM35.7597 942.985L36.8162 943.01L36.8162 943.01L35.7597 942.985ZM36.091 928.849L35.0346 928.82L35.0345 928.824L36.091 928.849ZM68.4494 889.754L68.1457 890.766L68.1547 890.769L68.4494 889.754ZM75.1861 893.73L74.4791 894.515L74.4855 894.521L74.492 894.526L75.1861 893.73ZM80.9289 901.46L81.8827 901.005L81.8785 900.996L80.9289 901.46ZM84.6838 914.492L83.6428 914.675L83.6454 914.688L84.6838 914.492ZM80.708 974.681L79.7546 974.225L79.7509 974.233L80.708 974.681ZM74.7444 983.074L74.0347 982.291L74.0281 982.297L74.0216 982.303L74.7444 983.074ZM67.6763 987.602L67.3328 986.602L67.3229 986.606L67.6763 987.602ZM59.1726 988.817L58.1158 988.817L58.1158 989.874L59.1726 989.874L59.1726 988.817ZM59.1726 962.091L58.9988 961.048L58.1158 961.195L58.1158 962.091L59.1726 962.091ZM61.3813 961.428L61.0471 960.426L60.9759 960.449L60.9087 960.483L61.3813 961.428ZM63.9214 959.661L63.2023 958.887L63.2023 958.887L63.9214 959.661ZM66.4615 955.906L65.4901 955.49L65.4901 955.49L66.4615 955.906ZM68.2285 948.949L67.1868 948.771L67.1861 948.775L68.2285 948.949ZM67.7868 922.333L66.7551 922.562L66.7575 922.573L66.7602 922.584L67.7868 922.333ZM65.3571 916.259L66.0337 915.447L66.0263 915.441L65.3571 916.259ZM58.51 916.369L57.8334 915.557L57.8142 915.573L57.7958 915.59L58.51 916.369ZM56.0803 921.891L55.0566 921.629L55.055 921.635L56.0803 921.891ZM54.8655 934.26L55.9222 934.277L55.9222 934.275L54.8655 934.26ZM54.6446 948.065L55.7013 948.085L55.7013 948.082L54.6446 948.065ZM48.3496 981.197L47.4338 980.669L47.4272 980.681L48.3496 981.197ZM20.5192 990.473L20.2331 991.491L20.2412 991.493L20.5192 990.473ZM13.2303 986.387L12.5585 987.203L12.5585 987.203L13.2303 986.387ZM6.93534 978.104L7.88463 977.64L7.88059 977.632L6.93534 978.104ZM2.73869 964.079L1.69764 964.261L1.69954 964.271L2.73869 964.079ZM2.24938 943.316L2.24938 935.696L0.135735 935.696L0.135735 943.316L2.24938 943.316ZM2.24938 935.696C2.24938 927.58 2.94429 920.521 4.32106 914.507L2.26071 914.035C0.839714 920.243 0.135735 927.467 0.135735 935.696L2.24938 935.696ZM4.32106 914.507C5.70854 908.446 7.37105 903.856 9.27726 900.679L7.46482 899.591C5.39525 903.041 3.671 907.874 2.26071 914.035L4.32106 914.507ZM9.27726 900.679C11.1995 897.475 13.4969 894.938 16.1616 893.045L14.9374 891.322C12.0066 893.404 9.51832 896.169 7.46482 899.591L9.27726 900.679ZM16.1357 893.063C18.95 891.187 21.4165 890.001 23.5443 889.452L23.0161 887.405C20.5791 888.034 17.8918 889.352 14.9633 891.304L16.1357 893.063ZM23.513 889.459C25.7117 888.963 28.0627 888.712 30.5691 888.712L30.5691 886.599C27.9217 886.599 25.4134 886.863 23.0474 887.398L23.513 889.459ZM30.5691 888.712L31.7839 888.712L31.7839 886.599L30.5691 886.599L30.5691 888.712ZM30.7271 887.655L30.7271 914.492L32.8407 914.492L32.8407 887.655L30.7271 887.655ZM31.7124 913.438C26.9796 913.758 23.4093 916.171 21.0779 920.538C18.7856 924.831 17.6954 930.99 17.6954 938.899L19.809 938.899C19.809 931.125 20.8908 925.376 22.9424 921.533C24.9549 917.764 27.9005 915.814 31.8554 915.546L31.7124 913.438ZM17.6954 938.899L17.6954 940.445L19.809 940.445L19.809 938.899L17.6954 938.899ZM17.6954 940.445C17.6954 945.624 17.9171 949.944 18.3669 953.392L20.4628 953.119C20.0291 949.794 19.809 945.573 19.809 940.445L17.6954 940.445ZM18.3701 953.415C18.8903 956.834 19.6124 959.459 20.5956 961.179L22.4308 960.131C21.6469 958.759 20.9701 956.451 20.4596 953.097L18.3701 953.415ZM20.5956 961.179C21.5118 962.783 22.5087 964.005 23.6312 964.66L24.6962 962.834C24.0517 962.458 23.2816 961.62 22.4308 960.131L20.5956 961.179ZM23.6626 964.678C24.7957 965.288 26.077 965.577 27.4768 965.577L27.4768 963.464C26.3734 963.464 25.446 963.237 24.6647 962.817L23.6626 964.678ZM27.4768 965.577C29.4186 965.577 31.0873 965.089 32.3613 963.998L30.9857 962.393C30.1981 963.068 29.0691 963.464 27.4768 963.464L27.4768 965.577ZM32.3613 963.998C33.0545 963.403 33.6116 962.497 34.0806 961.403C34.5564 960.292 34.9783 958.9 35.3545 957.245L33.2935 956.776C32.9334 958.36 32.5455 959.619 32.1378 960.57C31.7232 961.537 31.3232 962.103 30.9857 962.393L32.3613 963.998ZM35.3493 957.267C36.1876 953.914 36.6684 949.146 36.8162 943.01L34.7032 942.96C34.5565 949.045 34.0802 953.629 33.2987 956.754L35.3493 957.267ZM36.8162 943.01L37.1475 928.874L35.0345 928.824L34.7032 942.96L36.8162 943.01ZM37.1474 928.878C37.5137 915.583 39.694 905.777 43.5681 899.326C47.3938 892.956 52.8886 889.817 60.1665 889.817L60.1665 887.703C52.1303 887.703 45.9555 891.245 41.7561 898.238C37.605 905.15 35.4046 915.389 35.0346 928.82L37.1474 928.878ZM60.1665 889.817L61.1605 889.817L61.1605 887.703L60.1665 887.703L60.1665 889.817ZM61.1605 889.817C63.7232 889.817 66.0489 890.137 68.1457 890.766L68.7531 888.742C66.4324 888.045 63.8988 887.703 61.1605 887.703L61.1605 889.817ZM68.1547 890.769C70.2508 891.377 72.3599 892.608 74.4791 894.515L75.8931 892.944C73.5948 890.876 71.2128 889.456 68.744 888.739L68.1547 890.769ZM74.492 894.526C76.6518 896.408 78.4851 898.865 79.9793 901.924L81.8785 900.996C80.2804 897.724 78.2852 895.027 75.8802 892.933L74.492 894.526ZM79.9751 901.915C81.4641 905.035 82.6944 909.276 83.6429 914.675L85.7247 914.309C84.7589 908.812 83.4859 904.364 81.8827 901.005L79.9751 901.915ZM83.6454 914.688C84.6609 920.056 85.1731 926.319 85.1731 933.487L87.2867 933.487C87.2867 926.225 86.7682 919.824 85.7222 914.295L83.6454 914.688ZM85.1731 933.487L85.1731 941.108L87.2867 941.108L87.2867 933.487L85.1731 933.487ZM85.1731 941.108C85.1731 948.572 84.6607 955.133 83.6436 960.8L85.724 961.173C86.7684 955.354 87.2867 948.663 87.2867 941.108L85.1731 941.108ZM83.6436 960.8C82.6214 966.495 81.3175 970.957 79.7546 974.225L81.6614 975.137C83.3381 971.631 84.6847 966.964 85.724 961.173L83.6436 960.8ZM79.7509 974.233C78.1788 977.591 76.2681 980.267 74.0347 982.291L75.454 983.857C77.9327 981.611 79.9977 978.691 81.6652 975.129L79.7509 974.233ZM74.0216 982.303C71.7435 984.439 69.5124 985.853 67.3328 986.603L68.0199 988.601C70.5522 987.731 73.0332 986.127 75.4672 983.845L74.0216 982.303ZM67.3229 986.606C65.1642 987.372 62.8184 987.76 60.277 987.76L60.277 989.874C63.0365 989.874 65.6236 989.452 68.0297 988.598L67.3229 986.606ZM60.277 987.76L59.1726 987.76L59.1726 989.874L60.277 989.874L60.277 987.76ZM60.2294 988.817L60.2294 962.091L58.1158 962.091L58.1158 988.817L60.2294 988.817ZM59.3463 963.133C60.299 962.974 61.1437 962.728 61.854 962.373L60.9087 960.483C60.4409 960.717 59.8131 960.913 58.9988 961.048L59.3463 963.133ZM61.7155 962.431C62.604 962.135 63.5889 961.412 64.6405 960.436L63.2023 958.887C62.1924 959.824 61.4839 960.28 61.0471 960.426L61.7155 962.431ZM64.6405 960.436C65.7985 959.36 66.7233 957.978 67.4329 956.323L65.4901 955.49C64.8744 956.926 64.1058 958.048 63.2023 958.887L64.6405 960.436ZM67.4329 956.323C68.146 954.658 68.7514 952.24 69.271 949.122L67.1861 948.775C66.6748 951.842 66.1022 954.062 65.4901 955.49L67.4329 956.323ZM69.2703 949.126C69.7983 946.034 70.0584 942.438 70.0584 938.347L67.9447 938.347C67.9447 942.354 67.6895 945.826 67.1868 948.771L69.2703 949.126ZM70.0584 938.347L70.0584 936.58L67.9447 936.58L67.9447 938.347L70.0584 938.347ZM70.0584 936.58C70.0584 930.367 69.6533 925.518 68.8134 922.082L66.7602 922.584C67.5399 925.774 67.9448 930.423 67.9447 936.58L70.0584 936.58ZM68.8184 922.104C68.4439 920.419 68.0428 919.023 67.6084 917.937C67.1869 916.883 66.6839 915.989 66.0337 915.447L64.6806 917.071C64.9138 917.265 65.2575 917.751 65.6459 918.722C66.0214 919.661 66.3933 920.934 66.7551 922.562L68.8184 922.104ZM66.0263 915.441C64.9637 914.572 63.5522 914.208 61.9335 914.208L61.9335 916.322C63.2599 916.322 64.1307 916.621 64.6879 917.077L66.0263 915.441ZM61.9335 914.208C60.3429 914.208 58.9455 914.631 57.8334 915.557L59.1865 917.181C59.8414 916.635 60.7264 916.322 61.9335 916.322L61.9335 914.208ZM57.7958 915.59C57.1968 916.139 56.7018 916.956 56.2726 917.932C55.8364 918.923 55.433 920.161 55.0566 921.629L57.104 922.154C57.4639 920.75 57.8336 919.632 58.2072 918.783C58.5879 917.918 58.9396 917.409 59.2241 917.148L57.7958 915.59ZM55.055 921.635C54.2897 924.697 53.8828 928.914 53.8088 934.246L55.9222 934.275C55.9954 929.005 56.3985 924.976 57.1056 922.148L55.055 921.635ZM53.8088 934.243L53.5879 948.048L55.7013 948.082L55.9222 934.277L53.8088 934.243ZM53.588 948.045C53.2942 963.321 51.1965 974.138 47.4339 980.669L49.2654 981.724C53.3071 974.708 55.406 963.437 55.7012 948.085L53.588 948.045ZM47.4272 980.681C43.797 987.173 38.1253 990.41 30.2378 990.41L30.2378 992.524C38.8424 992.524 45.2452 988.914 49.2721 981.712L47.4272 980.681ZM30.2378 990.41L28.6917 990.41L28.6917 992.524L30.2378 992.524L30.2378 990.41ZM28.6917 990.41C25.749 990.41 23.1205 990.087 20.7973 989.454L20.2412 991.493C22.7773 992.185 25.5971 992.524 28.6917 992.524L28.6917 990.41ZM20.8054 989.456C18.6284 988.844 16.3272 987.568 13.9021 985.571L12.5585 987.203C15.14 989.329 17.698 990.778 20.2331 991.491L20.8054 989.456ZM13.9021 985.571C11.5352 983.622 9.52395 980.99 7.8846 977.64L5.98608 978.569C7.7335 982.14 9.9189 985.029 12.5585 987.203L13.9021 985.571ZM7.88059 977.632C6.24985 974.37 4.87364 969.803 3.77785 963.886L1.69954 964.271C2.81251 970.281 4.23406 975.065 5.99009 978.577L7.88059 977.632ZM3.7797 963.896C2.76225 958.082 2.24938 951.225 2.24938 943.316L0.135735 943.316C0.135734 951.31 0.65362 958.295 1.69769 964.261L3.7797 963.896Z" fill="white"/>
</svg>
