<svg width="1174" height="131" viewBox="0 0 1174 131" fill="none" xmlns="http://www.w3.org/2000/svg">
<g clip-path="url(#clip0)">
<path d="M40.3145 85.6071L40.3145 84.5258L39.2332 84.5258L39.2332 85.6071L40.3145 85.6071ZM40.3145 126.497L40.3145 127.578L41.3959 127.578L41.3959 126.497L40.3145 126.497ZM1.89797 126.497L0.81665 126.497L0.81665 127.578L1.89797 127.578L1.89797 126.497ZM1.89798 3.82785L1.89798 2.74585L0.81665 2.74585L0.81665 3.82785L1.89798 3.82785ZM40.3145 31.692L40.3145 30.6107L39.2332 30.6107L39.2332 31.692L40.3145 31.692ZM40.3145 58.0725L39.2332 58.0725L39.2332 59.1538L40.3145 59.1538L40.3145 58.0725ZM93.8999 84.5258L40.3145 84.5258L40.3145 86.6884L93.8999 86.6884L93.8999 84.5258ZM39.2332 85.6071L39.2332 126.497L41.3959 126.497L41.3959 85.6071L39.2332 85.6071ZM40.3145 125.416L1.89797 125.416L1.89797 127.578L40.3145 127.578L40.3145 125.416ZM2.9793 126.497L2.9793 3.82785L0.81665 3.82785L0.81665 126.497L2.9793 126.497ZM1.89798 4.90884L93.8999 4.90884L93.8999 2.74585L1.89798 2.74585L1.89798 4.90884ZM93.8999 4.90884C112.878 4.90884 126.92 8.22384 136.191 14.6898C145.391 21.1058 150.031 30.7226 150.031 43.7281L152.194 43.7281C152.194 30.1338 147.299 19.7998 137.428 12.9158C127.628 6.08184 113.063 2.74584 93.8999 2.74585L93.8999 4.90884ZM150.031 43.7281L150.031 45.3769L152.194 45.3769L152.194 43.7281L150.031 43.7281ZM150.031 45.3769C150.031 58.4959 145.388 68.1952 136.188 74.665C126.917 81.1838 112.877 84.5258 93.8999 84.5258L93.8999 86.6884C113.065 86.6884 127.631 83.3254 137.431 76.4341C147.301 69.4938 152.194 59.078 152.194 45.3769L150.031 45.3769ZM39.2332 31.692L39.2332 58.0725L41.3959 58.0725L41.3959 31.692L39.2332 31.692ZM40.3145 59.1538L93.2404 59.1538L93.2404 56.9912L40.3145 56.9912L40.3145 59.1538ZM93.2404 59.1538C99.2738 59.1538 103.994 58.0702 107.229 55.734C110.529 53.3506 112.129 49.7783 112.129 45.212L109.966 45.212C109.966 49.2193 108.598 52.0773 105.963 53.9807C103.262 55.9313 99.0782 56.9912 93.2404 56.9912L93.2404 59.1538ZM112.129 45.212L112.129 44.7174L109.966 44.7174L109.966 45.212L112.129 45.212ZM112.129 44.7174C112.129 40.1014 110.533 36.4886 107.234 34.0756C103.998 31.7087 99.2758 30.6107 93.2404 30.6107L93.2404 32.7733C99.0762 32.7733 103.257 33.8462 105.957 35.8211C108.594 37.7499 109.966 40.6497 109.966 44.7174L112.129 44.7174ZM93.2404 30.6107L40.3145 30.6107L40.3145 32.7733L93.2404 32.7733L93.2404 30.6107ZM180.366 126.497L179.284 126.497L179.284 127.578L180.366 127.578L180.366 126.497ZM180.366 3.82784L180.366 2.74584L179.284 2.74584L179.284 3.82784L180.366 3.82784ZM218.782 3.82784L219.864 3.82784L219.864 2.74584L218.782 2.74584L218.782 3.82784ZM218.782 48.5096L217.701 48.5096L217.701 49.5909L218.782 49.5909L218.782 48.5096ZM301.221 48.5096L301.221 49.5909L302.303 49.5909L302.303 48.5096L301.221 48.5096ZM301.221 3.82784L301.221 2.74584L300.14 2.74584L300.14 3.82784L301.221 3.82784ZM339.638 3.82784L340.719 3.82784L340.719 2.74583L339.638 2.74583L339.638 3.82784ZM339.638 126.497L339.638 127.578L340.719 127.578L340.719 126.497L339.638 126.497ZM301.221 126.497L300.14 126.497L300.14 127.578L301.221 127.578L301.221 126.497ZM301.221 78.1876L302.303 78.1876L302.303 77.1063L301.221 77.1063L301.221 78.1876ZM218.782 78.1876L218.782 77.1063L217.701 77.1063L217.701 78.1876L218.782 78.1876ZM218.782 126.497L218.782 127.578L219.864 127.578L219.864 126.497L218.782 126.497ZM181.447 126.497L181.447 3.82784L179.284 3.82784L179.284 126.497L181.447 126.497ZM180.366 4.90884L218.782 4.90883L218.782 2.74584L180.366 2.74584L180.366 4.90884ZM217.701 3.82784L217.701 48.5096L219.864 48.5096L219.864 3.82784L217.701 3.82784ZM218.782 49.5909L301.221 49.5909L301.221 47.4282L218.782 47.4282L218.782 49.5909ZM302.303 48.5096L302.303 3.82784L300.14 3.82784L300.14 48.5096L302.303 48.5096ZM301.221 4.90883L339.638 4.90883L339.638 2.74583L301.221 2.74584L301.221 4.90883ZM338.557 3.82784L338.557 126.497L340.719 126.497L340.719 3.82784L338.557 3.82784ZM339.638 125.416L301.221 125.416L301.221 127.578L339.638 127.578L339.638 125.416ZM302.303 126.497L302.303 78.1876L300.14 78.1876L300.14 126.497L302.303 126.497ZM301.221 77.1063L218.782 77.1063L218.782 79.2689L301.221 79.2689L301.221 77.1063ZM217.701 78.1876L217.701 126.497L219.864 126.497L219.864 78.1876L217.701 78.1876ZM218.782 125.416L180.366 125.416L180.366 127.578L218.782 127.578L218.782 125.416ZM492.493 3.99282L492.304 5.05782L492.317 5.05982L492.493 3.99282ZM514.257 9.76283L513.842 10.7618L513.849 10.7648L514.257 9.76283ZM529.755 18.6668L530.431 17.8218L529.755 18.6668ZM539.978 29.2188L539.087 29.8318L539.093 29.8408L539.1 29.8498L539.978 29.2188ZM546.078 40.7603L545.063 41.1341L546.078 40.7603ZM549.046 51.972L547.974 52.1149L549.046 51.972ZM549.046 77.5281L547.974 77.3852L549.046 77.5281ZM546.078 88.9047L547.093 89.2785L547.096 89.27L546.078 88.9047ZM540.142 100.611L541.034 101.224L541.038 101.217L541.042 101.211L540.142 100.611ZM529.755 111.328L530.431 112.173L530.433 112.171L529.755 111.328ZM514.421 120.396L514.836 121.395L514.844 121.392L514.852 121.388L514.421 120.396ZM492.493 126.332L492.306 125.267L492.304 125.267L492.493 126.332ZM427.201 126.332L427.015 127.397L427.201 126.332ZM405.272 120.396L404.842 121.388L404.85 121.392L404.858 121.395L405.272 120.396ZM389.774 111.328L389.086 112.162L389.097 112.172L389.108 112.181L389.774 111.328ZM379.386 100.611L378.487 101.211L378.497 101.227L378.508 101.242L379.386 100.611ZM373.451 88.9047L372.425 89.2466L372.43 89.2627L372.436 89.2785L373.451 88.9047ZM370.648 77.5281L371.72 77.3852L370.648 77.5281ZM370.648 52.1369L371.719 52.2846L371.72 52.2798L370.648 52.1369ZM373.451 40.9252L372.433 40.5598L372.43 40.5675L372.428 40.5752L373.451 40.9252ZM379.386 29.2188L378.508 28.5878L378.502 28.5968L378.495 28.6058L379.386 29.2188ZM389.774 18.6668L389.098 17.8218L389.774 18.6668ZM405.107 9.76283L404.699 8.76183L404.693 8.76483L405.107 9.76283ZM427.201 3.99282L427.374 5.05983L427.387 5.05783L427.201 3.99282ZM508.321 54.7749L509.362 54.4834L508.321 54.7749ZM503.869 46.2013L504.738 45.5576L503.869 46.2013ZM495.296 38.6169L495.848 37.6871L495.296 38.6169ZM480.951 33.5057L480.702 34.558L480.712 34.5601L480.721 34.5621L480.951 33.5057ZM412.197 76.7037L411.185 77.0834L411.19 77.0971L411.195 77.1107L412.197 76.7037ZM419.287 87.2559L418.498 87.9955L419.287 87.2559ZM434.62 95.6647L434.308 96.7L434.62 95.6647ZM484.743 95.8296L485.045 96.8681L485.056 96.8648L484.743 95.8296ZM500.242 87.5857L501.007 88.3503L501.013 88.3442L501.019 88.3381L500.242 87.5857ZM507.332 77.0335L506.33 76.6265L506.324 76.6401L506.319 76.6538L507.332 77.0335ZM456.384 2.76583L463.474 2.76583L463.474 0.602824L456.384 0.602824L456.384 2.76583ZM463.474 2.76583C474.086 2.76583 483.694 3.53183 492.304 5.05683L492.681 2.92783C483.924 1.37583 474.187 0.602824 463.474 0.602824L463.474 2.76583ZM492.317 5.05982C500.948 6.47982 508.117 8.38583 513.842 10.7618L514.671 8.76482C508.745 6.30482 501.404 4.36283 492.668 2.92583L492.317 5.05982ZM513.849 10.7648C519.701 13.1488 524.774 16.0668 529.08 19.5108L530.431 17.8218C525.942 14.2318 520.683 11.2138 514.665 8.76183L513.849 10.7648ZM529.08 19.5108C533.418 22.9818 536.744 26.4238 539.087 29.8318L540.869 28.6058C538.375 24.9788 534.885 21.3858 530.431 17.8218L529.08 19.5108ZM539.1 29.8498C541.569 33.286 543.557 37.0462 545.063 41.1341L547.093 40.3865C545.521 36.1206 543.442 32.1865 540.856 28.5878L539.1 29.8498ZM545.063 41.1341C546.583 45.2598 547.548 48.9175 547.974 52.1149L550.118 51.8291C549.665 48.4314 548.65 44.6147 547.093 40.3865L545.063 41.1341ZM547.974 52.1149C548.407 55.3611 548.624 58.7756 548.624 62.3593L550.787 62.3593C550.787 58.6885 550.564 55.1781 550.118 51.8291L547.974 52.1149ZM548.624 62.3593L548.624 67.3057L550.787 67.3057L550.787 62.3593L548.624 62.3593ZM548.624 67.3057C548.624 70.778 548.407 74.1376 547.974 77.3852L550.118 77.671C550.564 74.3235 550.787 70.8682 550.787 67.3057L548.624 67.3057ZM547.974 77.3852C547.547 80.5849 546.582 84.3002 545.06 88.5394L547.096 89.27C548.652 84.9356 549.665 81.0664 550.118 77.671L547.974 77.3852ZM545.063 88.5309C543.553 92.6299 541.613 96.456 539.243 100.011L541.042 101.211C543.508 97.5115 545.525 93.5333 547.093 89.2785L545.063 88.5309ZM539.251 99.9984C536.91 103.405 533.529 106.903 529.077 110.486L530.433 112.171C534.995 108.499 538.539 104.852 541.034 101.224L539.251 99.9984ZM529.08 110.484C524.766 113.934 519.74 116.91 513.991 119.405L514.852 121.388C520.754 118.827 525.95 115.757 530.431 112.173L529.08 110.484ZM514.007 119.398C508.278 121.776 501.051 123.737 492.306 125.267L492.679 127.397C501.521 125.85 508.914 123.853 514.836 121.395L514.007 119.398ZM492.304 125.267C483.694 126.793 474.086 127.559 463.474 127.559L463.474 129.722C474.187 129.722 483.924 128.949 492.681 127.397L492.304 125.267ZM463.474 127.559L456.384 127.559L456.384 129.722L463.474 129.722L463.474 127.559ZM456.384 127.559C445.773 127.559 436.109 126.793 427.387 125.267L427.015 127.397C435.88 128.949 445.671 129.722 456.384 129.722L456.384 127.559ZM427.387 125.267C418.643 123.737 411.416 121.776 405.687 119.398L404.858 121.395C410.78 123.853 418.172 125.85 427.015 127.397L427.387 125.267ZM405.703 119.405C399.952 116.909 394.866 113.931 390.439 110.476L389.108 112.181C393.695 115.76 398.941 118.828 404.842 121.388L405.703 119.405ZM390.462 110.494C386.116 106.908 382.724 103.402 380.264 99.9799L378.508 101.242C381.105 104.855 384.638 108.493 389.086 112.162L390.462 110.494ZM380.286 100.011C377.916 96.4559 375.976 92.6299 374.465 88.5309L372.436 89.2785C374.004 93.5333 376.02 97.5115 378.487 101.211L380.286 100.011ZM374.477 88.5627C373.062 84.3193 372.148 80.596 371.72 77.3852L369.576 77.671C370.027 81.0553 370.981 84.9164 372.425 89.2466L374.477 88.5627ZM371.72 77.3852C371.287 74.1376 371.07 70.778 371.07 67.3057L368.907 67.3057C368.907 70.8681 369.13 74.3235 369.576 77.671L371.72 77.3852ZM371.07 67.3057L371.07 62.3593L368.907 62.3593L368.907 67.3057L371.07 67.3057ZM371.07 62.3593C371.07 58.7753 371.287 55.4176 371.719 52.2846L369.577 51.9891C369.129 55.2314 368.907 58.6887 368.907 62.3593L371.07 62.3593ZM371.72 52.2798C372.147 49.0712 373.061 45.4052 374.474 41.2752L372.428 40.5752C370.983 44.799 370.028 48.6074 369.576 51.994L371.72 52.2798ZM374.468 41.2905C375.978 37.0854 377.915 33.2673 380.277 29.8318L378.495 28.6058C376.021 32.2052 374.001 36.1913 372.433 40.5598L374.468 41.2905ZM380.264 29.8498C382.721 26.4318 386.108 22.9838 390.449 19.5108L389.098 17.8218C384.646 21.3838 381.108 24.9708 378.508 28.5878L380.264 29.8498ZM390.449 19.5108C394.758 16.0638 399.779 13.1458 405.522 10.7618L404.693 8.76483C398.784 11.2168 393.583 14.2348 389.098 17.8218L390.449 19.5108ZM405.515 10.7648C411.353 8.38683 418.633 6.48083 427.374 5.05983L427.028 2.92483C418.182 4.36283 410.733 6.30383 404.699 8.76183L405.515 10.7648ZM427.387 5.05783C436.109 3.53183 445.773 2.76583 456.384 2.76583L456.384 0.602824C445.671 0.602825 435.88 1.37583 427.015 2.92783L427.387 5.05783ZM510.556 65.8218L510.556 63.5135L508.394 63.5135L508.394 65.8218L510.556 65.8218ZM510.556 63.5135C510.556 60.3449 510.16 57.3334 509.362 54.4834L507.28 55.0665C508.021 57.7124 508.394 60.5266 508.394 63.5135L510.556 63.5135ZM509.362 54.4834C508.549 51.5773 506.993 48.6017 504.738 45.5576L503 46.8449C505.142 49.7365 506.555 52.4766 507.28 55.0665L509.362 54.4834ZM504.738 45.5576C502.445 42.4625 499.475 39.841 495.848 37.6871L494.744 39.5467C498.151 41.5697 500.896 44.0044 503 46.8449L504.738 45.5576ZM495.848 37.6871C492.193 35.5173 487.289 33.7816 481.182 32.4492L480.721 34.5621C486.705 35.8678 491.363 37.5395 494.744 39.5467L495.848 37.6871ZM481.2 32.4533C475.053 31.0005 467.932 30.2808 459.847 30.2808L459.847 32.4436C467.81 32.4436 474.758 33.153 480.702 34.558L481.2 32.4533ZM459.847 30.2808C443.222 30.2808 430.566 32.9672 422.038 38.4925C413.428 44.0703 409.137 52.4679 409.137 63.5135L411.3 63.5135C411.3 53.1248 415.281 45.4469 423.214 40.3076C431.228 35.1158 443.386 32.4436 459.847 32.4436L459.847 30.2808ZM409.137 63.5135L409.137 65.492L411.3 65.492L411.3 63.5135L409.137 63.5135ZM409.137 65.492C409.137 69.5717 409.818 73.4382 411.185 77.0834L413.21 76.324C411.938 72.9344 411.3 69.3264 411.3 65.492L409.137 65.492ZM411.195 77.1107C412.686 80.7793 415.133 84.4063 418.498 87.9955L420.076 86.5163C416.845 83.0708 414.566 79.6629 413.199 76.2967L411.195 77.1107ZM418.498 87.9955C421.975 91.7042 427.286 94.582 434.308 96.7L434.933 94.6294C428.106 92.5705 423.194 89.8424 420.076 86.5163L418.498 87.9955ZM434.308 96.7C441.364 98.8278 449.884 99.8787 459.847 99.8787L459.847 97.716C450.024 97.716 441.727 96.6784 434.933 94.6294L434.308 96.7ZM459.847 99.8787C469.696 99.8787 478.103 98.8835 485.045 96.868L484.442 94.7911C477.754 96.7328 469.563 97.7161 459.847 97.716L459.847 99.8787ZM485.056 96.8648C492.073 94.7486 497.425 91.9315 501.007 88.3503L499.477 86.8211C496.244 90.0548 491.264 92.7336 484.431 94.7943L485.056 96.8648ZM501.019 88.3381C504.499 84.7449 506.96 81.105 508.344 77.4132L506.319 76.6538C505.066 79.9967 502.799 83.3917 499.465 86.8333L501.019 88.3381ZM508.334 77.4405C509.817 73.7884 510.556 69.9124 510.556 65.8218L508.394 65.8218C508.394 69.6453 507.704 73.2438 506.33 76.6265L508.334 77.4405ZM579.97 3.82783L579.97 2.74582L578.888 2.74582L578.888 3.82783L579.97 3.82783ZM709.234 3.82782L710.315 3.82782L710.315 2.74682L709.234 2.74682L709.234 3.82782ZM709.234 31.692L709.234 32.7733L710.315 32.7733L710.315 31.692L709.234 31.692ZM617.891 31.692L617.891 30.6107L616.81 30.6107L616.81 31.692L617.891 31.692ZM617.891 49.8286L616.81 49.8286L616.81 50.9099L617.891 50.9099L617.891 49.8286ZM707.091 49.8286L708.172 49.8286L708.172 48.7473L707.091 48.7473L707.091 49.8286ZM707.091 77.8579L707.091 78.9392L708.172 78.9392L708.172 77.8579L707.091 77.8579ZM617.891 77.8579L617.891 76.7765L616.81 76.7765L616.81 77.8579L617.891 77.8579ZM617.891 97.973L616.81 97.973L616.81 99.0543L617.891 99.0543L617.891 97.973ZM710.883 97.973L711.964 97.973L711.964 96.8917L710.883 96.8917L710.883 97.973ZM710.883 126.497L710.883 127.578L711.964 127.578L711.964 126.497L710.883 126.497ZM579.97 126.497L578.888 126.497L578.888 127.578L579.97 127.578L579.97 126.497ZM579.97 4.90882L709.234 4.90881L709.234 2.74682L579.97 2.74582L579.97 4.90882ZM708.153 3.82782L708.153 31.692L710.315 31.692L710.315 3.82782L708.153 3.82782ZM709.234 30.6107L617.891 30.6107L617.891 32.7733L709.234 32.7733L709.234 30.6107ZM616.81 31.692L616.81 49.8286L618.973 49.8286L618.973 31.692L616.81 31.692ZM617.891 50.9099L707.091 50.9099L707.091 48.7473L617.891 48.7473L617.891 50.9099ZM706.009 49.8286L706.009 77.8579L708.172 77.8579L708.172 49.8286L706.009 49.8286ZM707.091 76.7765L617.891 76.7765L617.891 78.9392L707.091 78.9392L707.091 76.7765ZM616.81 77.8579L616.81 97.973L618.973 97.973L618.973 77.8579L616.81 77.8579ZM617.891 99.0543L710.883 99.0543L710.883 96.8917L617.891 96.8917L617.891 99.0543ZM709.801 97.973L709.801 126.497L711.964 126.497L711.964 97.973L709.801 97.973ZM710.883 125.416L579.97 125.416L579.97 127.578L710.883 127.578L710.883 125.416ZM581.051 126.497L581.051 3.82782L578.888 3.82783L578.888 126.497L581.051 126.497ZM743.302 3.82782L743.302 2.74682L742.221 2.74682L742.221 3.82782L743.302 3.82782ZM786.17 3.82782L786.929 3.05781L786.613 2.74681L786.17 2.74681L786.17 3.82782ZM864.487 80.9906L863.728 81.7608L865.569 83.574L865.569 80.9906L864.487 80.9906ZM864.487 3.82781L864.487 2.74681L863.406 2.74681L863.406 3.82781L864.487 3.82781ZM902.409 3.82781L903.491 3.82781L903.491 2.74681L902.409 2.74681L902.409 3.82781ZM902.409 126.497L902.409 127.578L903.491 127.578L903.491 126.497L902.409 126.497ZM864.487 126.497L863.732 127.271L864.047 127.578L864.487 127.578L864.487 126.497ZM781.224 45.212L781.979 44.4383L780.142 42.6452L780.142 45.212L781.224 45.212ZM781.224 126.497L781.224 127.578L782.305 127.578L782.305 126.497L781.224 126.497ZM743.302 126.497L742.221 126.497L742.221 127.578L743.302 127.578L743.302 126.497ZM743.302 4.90881L786.17 4.90881L786.17 2.74681L743.302 2.74682L743.302 4.90881ZM785.411 4.59781L863.728 81.7608L865.246 80.2203L786.929 3.05781L785.411 4.59781ZM865.569 80.9906L865.569 3.82781L863.406 3.82781L863.406 80.9906L865.569 80.9906ZM864.487 4.90881L902.409 4.9088L902.409 2.74681L864.487 2.74681L864.487 4.90881ZM901.328 3.82781L901.328 126.497L903.491 126.497L903.491 3.82781L901.328 3.82781ZM902.409 125.416L864.487 125.416L864.487 127.578L902.409 127.578L902.409 125.416ZM865.243 125.723L781.979 44.4383L780.468 45.9858L863.732 127.271L865.243 125.723ZM780.142 45.212L780.142 126.497L782.305 126.497L782.305 45.212L780.142 45.212ZM781.224 125.416L743.302 125.416L743.302 127.578L781.224 127.578L781.224 125.416ZM744.383 126.497L744.383 3.82782L742.221 3.82782L742.221 126.497L744.383 126.497ZM976.126 3.82781L977.208 3.82781L977.208 2.74681L976.126 2.74681L976.126 3.82781ZM976.126 126.497L976.126 127.578L977.208 127.578L977.208 126.497L976.126 126.497ZM937.71 126.497L936.628 126.497L936.628 127.578L937.71 127.578L937.71 126.497ZM937.71 3.82781L937.71 2.74681L936.628 2.74681L936.628 3.82781L937.71 3.82781ZM975.045 3.82781L975.045 126.497L977.208 126.497L977.208 3.82781L975.045 3.82781ZM976.126 125.416L937.71 125.416L937.71 127.578L976.126 127.578L976.126 125.416ZM938.791 126.497L938.791 3.82781L936.628 3.82781L936.628 126.497L938.791 126.497ZM937.71 4.9088L976.126 4.9088L976.126 2.74681L937.71 2.74681L937.71 4.9088ZM1047.63 126.497L1047.63 127.578L1048.09 127.578L1048.4 127.253L1047.63 126.497ZM1000.31 126.497L999.54 125.738L997.729 127.578L1000.31 127.578L1000.31 126.497ZM1061.32 64.5028L1062.09 65.2612L1062.83 64.5029L1062.09 63.7445L1061.32 64.5028ZM1001.63 3.82781L1001.63 2.74681L999.049 2.74681L1000.86 4.5858L1001.63 3.82781ZM1053.07 3.8278L1053.85 3.0778L1053.53 2.7468L1053.07 2.7468L1053.07 3.8278ZM1087.7 39.7711L1086.92 40.5212L1087.7 41.3297L1088.47 40.5212L1087.7 39.7711ZM1122.32 3.8278L1122.32 2.7468L1121.86 2.7468L1121.54 3.0778L1122.32 3.8278ZM1169.48 3.8278L1170.25 4.58579L1172.06 2.7468L1169.48 2.7468L1169.48 3.8278ZM1110.61 63.6784L1109.84 62.9202L1109.11 63.6685L1109.83 64.4264L1110.61 63.6784ZM1170.79 126.497L1170.79 127.578L1173.33 127.578L1171.58 125.749L1170.79 126.497ZM1122.49 126.497L1121.72 127.257L1122.03 127.578L1122.49 127.578L1122.49 126.497ZM1084.89 88.4101L1085.66 87.6505L1084.89 86.8673L1084.12 87.6539L1084.89 88.4101ZM1047.63 125.416L1000.31 125.416L1000.31 127.578L1047.63 127.578L1047.63 125.416ZM1001.08 127.255L1062.09 65.2612L1060.54 63.7443L999.54 125.738L1001.08 127.255ZM1062.09 63.7445L1002.4 3.0698L1000.86 4.5858L1060.54 65.2611L1062.09 63.7445ZM1001.63 4.9088L1053.07 4.9088L1053.07 2.7468L1001.63 2.74681L1001.63 4.9088ZM1052.29 4.5778L1086.92 40.5212L1088.47 39.0209L1053.85 3.0778L1052.29 4.5778ZM1088.47 40.5212L1123.1 4.5778L1121.54 3.0778L1086.92 39.0209L1088.47 40.5212ZM1122.32 4.90879L1169.48 4.90879L1169.48 2.7468L1122.32 2.7468L1122.32 4.90879ZM1168.7 3.0698L1109.84 62.9202L1111.39 64.4366L1170.25 4.58579L1168.7 3.0698ZM1109.83 64.4264L1170.01 127.245L1171.58 125.749L1111.39 62.9303L1109.83 64.4264ZM1170.79 125.416L1122.49 125.416L1122.49 127.578L1170.79 127.578L1170.79 125.416ZM1123.25 125.737L1085.66 87.6505L1084.12 89.1697L1121.72 127.257L1123.25 125.737ZM1084.12 87.6539L1046.86 125.741L1048.4 127.253L1085.67 89.1663L1084.12 87.6539Z" fill="white"/>
</g>
<defs>
<clipPath id="clip0">
<rect width="130" height="1173" fill="white" transform="translate(0.5 130.5) rotate(-90)"/>
</clipPath>
</defs>
</svg>
