<svg width="130" height="1173" viewBox="0 0 130 1173" fill="none" xmlns="http://www.w3.org/2000/svg">
<path d="M44.8927 39.8146L45.974 39.8146L45.974 38.7333L44.8927 38.7333L44.8927 39.8146ZM4.00293 39.8146L2.9216 39.8146L2.9216 40.896L4.00293 40.896L4.00293 39.8146ZM4.00293 1.39804L4.00293 0.316716L2.9216 0.316716L2.9216 1.39804L4.00293 1.39804ZM126.672 1.39805L127.754 1.39805L127.754 0.316721L126.672 0.316721L126.672 1.39805ZM98.8078 39.8146L99.8891 39.8146L99.8891 38.7333L98.8078 38.7333L98.8078 39.8146ZM72.4273 39.8146L72.4273 38.7333L71.346 38.7333L71.346 39.8146L72.4273 39.8146ZM45.974 93.4L45.974 39.8146L43.8114 39.8146L43.8114 93.4L45.974 93.4ZM44.8927 38.7333L4.00293 38.7333L4.00293 40.896L44.8927 40.896L44.8927 38.7333ZM5.08425 39.8146L5.08426 1.39804L2.9216 1.39804L2.9216 39.8146L5.08425 39.8146ZM4.00293 2.47937L126.672 2.47937L126.672 0.316721L4.00293 0.316716L4.00293 2.47937ZM125.591 1.39805L125.591 93.4L127.754 93.4L127.754 1.39805L125.591 1.39805ZM125.591 93.4C125.591 112.378 122.276 126.42 115.81 135.691C109.394 144.891 99.7772 149.531 86.7717 149.531L86.7717 151.694C100.366 151.694 110.7 146.799 117.584 136.928C124.418 127.128 127.754 112.563 127.754 93.4L125.591 93.4ZM86.7717 149.531L85.1229 149.531L85.1229 151.694L86.7717 151.694L86.7717 149.531ZM85.1229 149.531C72.0039 149.531 62.3046 144.888 55.8348 135.688C49.316 126.417 45.974 112.377 45.974 93.4L43.8114 93.4C43.8114 112.565 47.1744 127.131 54.0657 136.931C61.006 146.801 71.4218 151.694 85.1229 151.694L85.1229 149.531ZM98.8078 38.7333L72.4273 38.7333L72.4273 40.896L98.8078 40.896L98.8078 38.7333ZM71.346 39.8146L71.346 92.7405L73.5086 92.7405L73.5086 39.8146L71.346 39.8146ZM71.346 92.7405C71.346 98.7739 72.4296 103.494 74.7658 106.729C77.1492 110.029 80.7215 111.629 85.2878 111.629L85.2878 109.466C81.2805 109.466 78.4225 108.098 76.5191 105.463C74.5685 102.762 73.5086 98.5783 73.5086 92.7405L71.346 92.7405ZM85.2878 111.629L85.7824 111.629L85.7824 109.466L85.2878 109.466L85.2878 111.629ZM85.7824 111.629C90.3984 111.629 94.0112 110.033 96.4242 106.734C98.7911 103.498 99.8891 98.7759 99.8891 92.7405L97.7265 92.7405C97.7265 98.5763 96.6536 102.757 94.6787 105.457C92.7499 108.094 89.8501 109.466 85.7824 109.466L85.7824 111.629ZM99.8891 92.7405L99.8891 39.8146L97.7265 39.8146L97.7265 92.7405L99.8891 92.7405ZM4.00292 179.866L4.00292 178.784L2.9216 178.784L2.9216 179.866L4.00292 179.866ZM126.672 179.866L127.754 179.866L127.754 178.784L126.672 178.784L126.672 179.866ZM126.672 218.282L126.672 219.364L127.754 219.364L127.754 218.282L126.672 218.282ZM81.9902 218.282L81.9902 217.201L80.9089 217.201L80.9089 218.282L81.9902 218.282ZM81.9902 300.721L80.9089 300.721L80.9089 301.803L81.9902 301.803L81.9902 300.721ZM126.672 300.721L127.754 300.721L127.754 299.64L126.672 299.64L126.672 300.721ZM126.672 339.138L126.672 340.219L127.754 340.219L127.754 339.138L126.672 339.138ZM4.00291 339.138L2.92159 339.138L2.92159 340.219L4.00291 340.219L4.00291 339.138ZM4.00292 300.721L4.00292 299.64L2.92159 299.64L2.92159 300.721L4.00292 300.721ZM52.3122 300.721L52.3122 301.803L53.3935 301.803L53.3935 300.721L52.3122 300.721ZM52.3122 218.282L53.3935 218.282L53.3935 217.201L52.3122 217.201L52.3122 218.282ZM4.00292 218.282L2.92159 218.282L2.92159 219.364L4.00292 219.364L4.00292 218.282ZM4.00292 180.947L126.672 180.947L126.672 178.784L4.00292 178.784L4.00292 180.947ZM125.591 179.866L125.591 218.282L127.754 218.282L127.754 179.866L125.591 179.866ZM126.672 217.201L81.9902 217.201L81.9902 219.364L126.672 219.364L126.672 217.201ZM80.9089 218.282L80.9089 300.721L83.0716 300.721L83.0716 218.282L80.9089 218.282ZM81.9902 301.803L126.672 301.803L126.672 299.64L81.9902 299.64L81.9902 301.803ZM125.591 300.721L125.591 339.138L127.754 339.138L127.754 300.721L125.591 300.721ZM126.672 338.057L4.00291 338.057L4.00291 340.219L126.672 340.219L126.672 338.057ZM5.08424 339.138L5.08424 300.721L2.92159 300.721L2.92159 339.138L5.08424 339.138ZM4.00292 301.803L52.3122 301.803L52.3122 299.64L4.00292 299.64L4.00292 301.803ZM53.3935 300.721L53.3935 218.282L51.2309 218.282L51.2309 300.721L53.3935 300.721ZM52.3122 217.201L4.00292 217.201L4.00292 219.364L52.3122 219.364L52.3122 217.201ZM5.08425 218.282L5.08425 179.866L2.9216 179.866L2.92159 218.282L5.08425 218.282ZM126.507 491.993L125.442 491.804L125.44 491.817L126.507 491.993ZM120.737 513.757L119.738 513.342L119.735 513.349L120.737 513.757ZM111.833 529.255L112.678 529.931L112.678 529.931L111.833 529.255ZM101.281 539.478L100.668 538.587L100.659 538.593L100.65 538.6L101.281 539.478ZM89.7395 545.578L89.3657 544.563L89.3657 544.563L89.7395 545.578ZM78.5278 548.546L78.3849 547.474L78.3849 547.474L78.5278 548.546ZM52.9717 548.546L53.1146 547.474L53.1146 547.474L52.9717 548.546ZM41.5951 545.578L41.2213 546.593L41.2298 546.596L41.5951 545.578ZM29.8888 539.642L29.2762 540.534L29.2825 540.538L29.2889 540.542L29.8888 539.642ZM19.1717 529.255L18.3273 529.931L18.3293 529.933L19.1717 529.255ZM10.1034 513.921L9.10469 514.336L9.108 514.344L9.11145 514.352L10.1034 513.921ZM4.16779 491.993L5.23293 491.806L5.23252 491.804L4.16779 491.993ZM4.16779 426.701L3.10265 426.515L4.16779 426.701ZM10.1034 404.772L9.11145 404.342L9.10801 404.35L9.1047 404.358L10.1034 404.772ZM19.1717 389.274L18.3376 388.586L18.3283 388.597L18.3193 388.608L19.1717 389.274ZM29.8888 378.886L29.289 377.987L29.2731 377.997L29.2577 378.008L29.8888 378.886ZM41.5951 372.951L41.2532 371.925L41.2371 371.93L41.2213 371.936L41.5951 372.951ZM52.9717 370.148L53.1146 371.22L53.1146 371.22L52.9717 370.148ZM78.3629 370.148L78.2152 371.219L78.22 371.22L78.3629 370.148ZM89.5746 372.951L89.94 371.933L89.9323 371.93L89.9246 371.928L89.5746 372.951ZM101.281 378.886L101.912 378.008L101.903 378.002L101.894 377.995L101.281 378.886ZM111.833 389.274L112.678 388.598L112.678 388.598L111.833 389.274ZM120.737 404.607L121.738 404.199L121.735 404.193L120.737 404.607ZM126.507 426.701L125.44 426.874L125.442 426.887L126.507 426.701ZM75.7249 507.821L76.0164 508.862L76.0164 508.862L75.7249 507.821ZM84.2985 503.369L84.9422 504.238L84.9422 504.238L84.2985 503.369ZM91.8829 494.796L92.8127 495.348L92.8127 495.348L91.8829 494.796ZM96.9941 480.451L95.9418 480.202L95.9397 480.212L95.9377 480.221L96.9941 480.451ZM53.7961 411.697L53.4164 410.685L53.4027 410.69L53.3891 410.695L53.7961 411.697ZM43.2439 418.787L42.5043 417.998L42.5043 417.998L43.2439 418.787ZM34.8351 434.12L33.7998 433.808L33.7998 433.808L34.8351 434.12ZM34.6702 484.243L33.6317 484.545L33.635 484.556L34.6702 484.243ZM42.9141 499.742L42.1495 500.507L42.1556 500.513L42.1617 500.519L42.9141 499.742ZM53.4663 506.832L53.8733 505.83L53.8597 505.824L53.846 505.819L53.4663 506.832ZM127.734 455.884L127.734 462.974L129.897 462.974L129.897 455.884L127.734 455.884ZM127.734 462.974C127.734 473.586 126.968 483.194 125.443 491.804L127.572 492.181C129.124 483.424 129.897 473.687 129.897 462.974L127.734 462.974ZM125.44 491.817C124.02 500.448 122.114 507.617 119.738 513.342L121.735 514.171C124.195 508.245 126.137 500.904 127.574 492.168L125.44 491.817ZM119.735 513.349C117.351 519.201 114.433 524.274 110.989 528.58L112.678 529.931C116.268 525.442 119.286 520.183 121.738 514.165L119.735 513.349ZM110.989 528.58C107.518 532.918 104.076 536.244 100.668 538.587L101.894 540.369C105.521 537.875 109.114 534.385 112.678 529.931L110.989 528.58ZM100.65 538.6C97.2138 541.069 93.4536 543.057 89.3657 544.563L90.1133 546.593C94.3792 545.021 98.3133 542.942 101.912 540.356L100.65 538.6ZM89.3657 544.563C85.24 546.083 81.5823 547.048 78.3849 547.474L78.6707 549.618C82.0684 549.165 85.8851 548.15 90.1133 546.593L89.3657 544.563ZM78.3849 547.474C75.1387 547.907 71.7242 548.124 68.1405 548.124L68.1405 550.287C71.8113 550.287 75.3217 550.064 78.6707 549.618L78.3849 547.474ZM68.1405 548.124L63.1941 548.124L63.1941 550.287L68.1405 550.287L68.1405 548.124ZM63.1941 548.124C59.7218 548.124 56.3622 547.907 53.1146 547.474L52.8288 549.618C56.1763 550.064 59.6316 550.287 63.1941 550.287L63.1941 548.124ZM53.1146 547.474C49.9149 547.047 46.1996 546.082 41.9604 544.56L41.2298 546.596C45.5642 548.152 49.4334 549.165 52.8288 549.618L53.1146 547.474ZM41.9689 544.563C37.8699 543.053 34.0438 541.113 30.4886 538.743L29.2889 540.542C32.9883 543.008 36.9665 545.025 41.2213 546.593L41.9689 544.563ZM30.5014 538.751C27.095 536.41 23.5972 533.029 20.0141 528.577L18.3293 529.933C22.0008 534.495 25.6477 538.039 29.2762 540.534L30.5014 538.751ZM20.0161 528.58C16.5656 524.266 13.5901 519.24 11.0953 513.491L9.11145 514.352C11.6729 520.254 14.743 525.45 18.3273 529.931L20.0161 528.58ZM11.1021 513.507C8.72401 507.778 6.76325 500.551 5.23293 491.806L3.10265 492.179C4.65004 501.021 6.64636 508.414 9.10469 514.336L11.1021 513.507ZM5.23252 491.804C3.7067 483.194 2.94082 473.586 2.94082 462.974L0.778168 462.974C0.778168 473.687 1.55115 483.424 3.10305 492.181L5.23252 491.804ZM2.94082 462.974L2.94082 455.884L0.778168 455.884L0.778168 462.974L2.94082 462.974ZM2.94082 455.884C2.94082 445.273 3.70667 435.609 5.23293 426.887L3.10265 426.515C1.55118 435.38 0.778169 445.171 0.778168 455.884L2.94082 455.884ZM5.23293 426.887C6.76325 418.143 8.72401 410.916 11.1021 405.187L9.1047 404.358C6.64636 410.28 4.65005 417.672 3.10265 426.515L5.23293 426.887ZM11.0953 405.203C13.5911 399.452 16.5688 394.366 20.0241 389.939L18.3193 388.608C14.7398 393.195 11.672 398.441 9.11145 404.342L11.0953 405.203ZM20.0058 389.962C23.5914 385.616 27.0975 382.224 30.5199 379.764L29.2577 378.008C25.6453 380.605 22.0067 384.138 18.3376 388.586L20.0058 389.962ZM30.4886 379.786C34.0439 377.416 37.8699 375.476 41.9689 373.965L41.2213 371.936C36.9665 373.504 32.9883 375.52 29.289 377.987L30.4886 379.786ZM41.9371 373.977C46.1805 372.562 49.9038 371.648 53.1146 371.22L52.8288 369.076C49.4445 369.527 45.5834 370.481 41.2532 371.925L41.9371 373.977ZM53.1146 371.22C56.3622 370.787 59.7218 370.57 63.1941 370.57L63.1941 368.407C59.6317 368.407 56.1763 368.63 52.8288 369.076L53.1146 371.22ZM63.1941 370.57L68.1405 370.57L68.1405 368.407L63.1941 368.407L63.1941 370.57ZM68.1405 370.57C71.7245 370.57 75.0822 370.787 78.2152 371.219L78.5107 369.077C75.2684 368.629 71.8111 368.407 68.1405 368.407L68.1405 370.57ZM78.22 371.22C81.4286 371.647 85.0946 372.561 89.2246 373.974L89.9246 371.928C85.7008 370.483 81.8924 369.528 78.5058 369.076L78.22 371.22ZM89.2093 373.968C93.4144 375.478 97.2325 377.415 100.668 379.777L101.894 377.995C98.2946 375.521 94.3085 373.501 89.94 371.933L89.2093 373.968ZM100.65 379.764C104.068 382.221 107.516 385.608 110.989 389.949L112.678 388.598C109.116 384.146 105.529 380.608 101.912 378.008L100.65 379.764ZM110.989 389.949C114.436 394.258 117.354 399.279 119.738 405.022L121.735 404.193C119.283 398.284 116.265 393.083 112.678 388.598L110.989 389.949ZM119.735 405.015C122.113 410.853 124.019 418.133 125.44 426.874L127.575 426.528C126.137 417.682 124.196 410.233 121.738 404.199L119.735 405.015ZM125.442 426.887C126.968 435.609 127.734 445.273 127.734 455.884L129.897 455.884C129.897 445.171 129.124 435.38 127.572 426.515L125.442 426.887ZM64.678 510.056L66.9863 510.056L66.9863 507.894L64.678 507.894L64.678 510.056ZM66.9863 510.056C70.1549 510.056 73.1664 509.66 76.0164 508.862L75.4333 506.78C72.7874 507.521 69.9732 507.894 66.9863 507.894L66.9863 510.056ZM76.0164 508.862C78.9225 508.049 81.8981 506.493 84.9422 504.238L83.6549 502.5C80.7633 504.642 78.0232 506.055 75.4333 506.78L76.0164 508.862ZM84.9422 504.238C88.0373 501.945 90.6588 498.975 92.8127 495.348L90.9531 494.244C88.9301 497.651 86.4954 500.396 83.6549 502.5L84.9422 504.238ZM92.8127 495.348C94.9825 491.693 96.7182 486.789 98.0506 480.682L95.9377 480.221C94.632 486.205 92.9603 490.863 90.9531 494.244L92.8127 495.348ZM98.0465 480.7C99.4993 474.553 100.219 467.432 100.219 459.347L98.0562 459.347C98.0562 467.31 97.3468 474.258 95.9418 480.202L98.0465 480.7ZM100.219 459.347C100.219 442.722 97.5326 430.066 92.0073 421.538C86.4295 412.928 78.0319 408.637 66.9863 408.637L66.9863 410.8C77.375 410.8 85.0529 414.781 90.1922 422.714C95.384 430.728 98.0562 442.886 98.0562 459.347L100.219 459.347ZM66.9863 408.637L65.0078 408.637L65.0078 410.8L66.9863 410.8L66.9863 408.637ZM65.0078 408.637C60.9281 408.637 57.0616 409.318 53.4164 410.685L54.1758 412.71C57.5654 411.438 61.1734 410.8 65.0078 410.8L65.0078 408.637ZM53.3891 410.695C49.7205 412.186 46.0935 414.633 42.5043 417.998L43.9835 419.576C47.429 416.345 50.8369 414.066 54.2031 412.699L53.3891 410.695ZM42.5043 417.998C38.7956 421.475 35.9178 426.786 33.7998 433.808L35.8704 434.433C37.9293 427.606 40.6574 422.694 43.9835 419.576L42.5043 417.998ZM33.7998 433.808C31.672 440.864 30.6211 449.384 30.6211 459.347L32.7838 459.347C32.7838 449.524 33.8214 441.227 35.8704 434.433L33.7998 433.808ZM30.6211 459.347C30.6211 469.196 31.6163 477.603 33.6318 484.545L35.7087 483.942C33.767 477.254 32.7837 469.063 32.7838 459.347L30.6211 459.347ZM33.635 484.556C35.7512 491.573 38.5683 496.925 42.1495 500.507L43.6787 498.977C40.445 495.744 37.7662 490.764 35.7055 483.931L33.635 484.556ZM42.1617 500.519C45.7549 503.999 49.3948 506.46 53.0866 507.844L53.846 505.819C50.5031 504.566 47.1081 502.299 43.6665 498.965L42.1617 500.519ZM53.0593 507.834C56.7114 509.317 60.5874 510.056 64.678 510.056L64.678 507.894C60.8545 507.894 57.256 507.204 53.8733 505.83L53.0593 507.834ZM126.672 579.47L127.754 579.47L127.754 578.388L126.672 578.388L126.672 579.47ZM126.672 708.734L126.672 709.815L127.753 709.815L127.753 708.734L126.672 708.734ZM98.8078 708.734L97.7265 708.734L97.7265 709.815L98.8078 709.815L98.8078 708.734ZM98.8078 617.391L99.8891 617.391L99.8891 616.31L98.8078 616.31L98.8078 617.391ZM80.6712 617.391L80.6712 616.31L79.5899 616.31L79.5899 617.391L80.6712 617.391ZM80.6712 706.591L80.6712 707.672L81.7525 707.672L81.7525 706.591L80.6712 706.591ZM52.6419 706.591L51.5606 706.591L51.5606 707.672L52.6419 707.672L52.6419 706.591ZM52.6419 617.391L53.7233 617.391L53.7233 616.31L52.6419 616.31L52.6419 617.391ZM32.5268 617.391L32.5268 616.31L31.4455 616.31L31.4455 617.391L32.5268 617.391ZM32.5268 710.383L32.5268 711.464L33.6081 711.464L33.6081 710.383L32.5268 710.383ZM4.0029 710.383L2.92157 710.383L2.92157 711.464L4.0029 711.464L4.0029 710.383ZM4.0029 579.47L4.0029 578.388L2.92158 578.388L2.92158 579.47L4.0029 579.47ZM125.591 579.47L125.591 708.734L127.753 708.734L127.754 579.47L125.591 579.47ZM126.672 707.653L98.8078 707.653L98.8078 709.815L126.672 709.815L126.672 707.653ZM99.8891 708.734L99.8891 617.391L97.7265 617.391L97.7265 708.734L99.8891 708.734ZM98.8078 616.31L80.6712 616.31L80.6712 618.473L98.8078 618.473L98.8078 616.31ZM79.5899 617.391L79.5899 706.591L81.7525 706.591L81.7525 617.391L79.5899 617.391ZM80.6712 705.509L52.6419 705.509L52.6419 707.672L80.6712 707.672L80.6712 705.509ZM53.7233 706.591L53.7233 617.391L51.5606 617.391L51.5606 706.591L53.7233 706.591ZM52.6419 616.31L32.5268 616.31L32.5268 618.473L52.6419 618.473L52.6419 616.31ZM31.4455 617.391L31.4455 710.383L33.6081 710.383L33.6081 617.391L31.4455 617.391ZM32.5268 709.301L4.0029 709.301L4.0029 711.464L32.5268 711.464L32.5268 709.301ZM5.08422 710.383L5.08423 579.47L2.92158 579.47L2.92157 710.383L5.08422 710.383ZM4.0029 580.551L126.672 580.551L126.672 578.388L4.0029 578.388L4.0029 580.551ZM126.672 742.802L127.753 742.802L127.753 741.721L126.672 741.721L126.672 742.802ZM126.672 785.67L127.442 786.429L127.753 786.113L127.753 785.67L126.672 785.67ZM49.5092 863.987L48.739 863.228L46.9258 865.069L49.5092 865.069L49.5092 863.987ZM126.672 863.987L127.753 863.987L127.753 862.906L126.672 862.906L126.672 863.987ZM126.672 901.909L126.672 902.991L127.753 902.991L127.753 901.909L126.672 901.909ZM4.00289 901.909L2.92156 901.909L2.92156 902.991L4.00289 902.991L4.00289 901.909ZM4.00289 863.987L3.22914 863.232L2.92157 863.547L2.92157 863.987L4.00289 863.987ZM85.2878 780.724L86.0615 781.479L87.8546 779.642L85.2878 779.642L85.2878 780.724ZM4.0029 780.724L2.92157 780.724L2.92157 781.805L4.0029 781.805L4.0029 780.724ZM4.0029 742.802L4.0029 741.721L2.92157 741.721L2.92157 742.802L4.0029 742.802ZM125.591 742.802L125.591 785.67L127.753 785.67L127.753 742.802L125.591 742.802ZM125.902 784.911L48.739 863.228L50.2795 864.746L127.442 786.429L125.902 784.911ZM49.5092 865.069L126.672 865.069L126.672 862.906L49.5092 862.906L49.5092 865.069ZM125.591 863.987L125.591 901.909L127.753 901.909L127.753 863.987L125.591 863.987ZM126.672 900.828L4.00289 900.828L4.00289 902.991L126.672 902.991L126.672 900.828ZM5.08422 901.909L5.08422 863.987L2.92157 863.987L2.92156 901.909L5.08422 901.909ZM4.77664 864.743L86.0615 781.479L84.514 779.968L3.22914 863.232L4.77664 864.743ZM85.2878 779.642L4.0029 779.642L4.0029 781.805L85.2878 781.805L85.2878 779.642ZM5.08422 780.724L5.08422 742.802L2.92157 742.802L2.92157 780.724L5.08422 780.724ZM4.0029 743.883L126.672 743.883L126.672 741.721L4.0029 741.721L4.0029 743.883ZM126.672 975.626L126.672 976.708L127.753 976.708L127.753 975.626L126.672 975.626ZM4.00289 975.626L2.92156 975.626L2.92156 976.708L4.00289 976.708L4.00289 975.626ZM4.00289 937.21L4.00289 936.128L2.92156 936.128L2.92156 937.21L4.00289 937.21ZM126.672 937.21L127.753 937.21L127.753 936.128L126.672 936.128L126.672 937.21ZM126.672 974.545L4.00289 974.545L4.00289 976.708L126.672 976.708L126.672 974.545ZM5.08421 975.626L5.08421 937.21L2.92156 937.21L2.92156 975.626L5.08421 975.626ZM4.00289 938.291L126.672 938.291L126.672 936.128L4.00289 936.128L4.00289 938.291ZM125.591 937.21L125.591 975.626L127.753 975.626L127.753 937.21L125.591 937.21ZM4.00288 1047.13L2.92156 1047.13L2.92156 1047.59L3.24668 1047.9L4.00288 1047.13ZM4.00289 999.811L4.76132 999.04L2.92156 997.229L2.92156 999.811L4.00289 999.811ZM65.997 1060.82L65.2386 1061.59L65.9969 1062.33L66.7553 1061.59L65.997 1060.82ZM126.672 1001.13L127.753 1001.13L127.753 998.549L125.914 1000.36L126.672 1001.13ZM126.672 1052.57L127.422 1053.35L127.753 1053.03L127.753 1052.57L126.672 1052.57ZM90.7287 1087.2L89.9786 1086.42L89.1701 1087.2L89.9786 1087.97L90.7287 1087.2ZM126.672 1121.82L127.753 1121.82L127.753 1121.36L127.422 1121.04L126.672 1121.82ZM126.672 1168.98L125.914 1169.75L127.753 1171.56L127.753 1168.98L126.672 1168.98ZM66.8214 1110.11L67.5796 1109.34L66.8313 1108.61L66.0734 1109.33L66.8214 1110.11ZM4.00288 1170.29L2.92155 1170.29L2.92155 1172.83L4.75092 1171.08L4.00288 1170.29ZM4.00288 1121.99L3.24328 1121.22L2.92155 1121.53L2.92155 1121.99L4.00288 1121.99ZM42.0897 1084.39L42.8493 1085.16L43.6325 1084.39L42.8459 1083.62L42.0897 1084.39ZM5.08421 1047.13L5.08421 999.811L2.92156 999.811L2.92156 1047.13L5.08421 1047.13ZM3.24445 1000.58L65.2386 1061.59L66.7555 1060.04L4.76132 999.04L3.24445 1000.58ZM66.7553 1061.59L127.43 1001.9L125.914 1000.36L65.2387 1060.04L66.7553 1061.59ZM125.591 1001.13L125.591 1052.57L127.753 1052.57L127.753 1001.13L125.591 1001.13ZM125.922 1051.79L89.9786 1086.42L91.4789 1087.97L127.422 1053.35L125.922 1051.79ZM89.9786 1087.97L125.922 1122.6L127.422 1121.04L91.4789 1086.42L89.9786 1087.97ZM125.591 1121.82L125.591 1168.98L127.753 1168.98L127.753 1121.82L125.591 1121.82ZM127.43 1168.2L67.5796 1109.34L66.0632 1110.89L125.914 1169.75L127.43 1168.2ZM66.0734 1109.33L3.25484 1169.51L4.75092 1171.08L67.5695 1110.89L66.0734 1109.33ZM5.0842 1170.29L5.08421 1121.99L2.92155 1121.99L2.92155 1170.29L5.0842 1170.29ZM4.76248 1122.75L42.8493 1085.16L41.3301 1083.62L3.24328 1121.22L4.76248 1122.75ZM42.8459 1083.62L4.75909 1046.36L3.24668 1047.9L41.3335 1085.17L42.8459 1083.62Z" fill="white"/>
</svg>
