<svg width="1170" height="219" viewBox="0 0 1170 219" fill="none" xmlns="http://www.w3.org/2000/svg">
<g clip-path="url(#clip0)">
<path d="M69.1973 211.343L69.6103 209.538L69.1973 211.343ZM33.6539 198.569L32.7015 200.157L33.6539 198.569ZM13.6608 180.52L12.1205 181.547L12.1358 181.57L12.1517 181.592L13.6608 180.52ZM4.21966 161.082L2.41391 161.49L2.42013 161.517L2.42718 161.545L4.21966 161.082ZM2.27589 139.701L2.27589 137.849L0.42468 137.849L0.424679 139.701L2.27589 139.701ZM69.7526 139.701L71.5996 139.575L71.4826 137.849L69.7526 137.849L69.7526 139.701ZM167.219 170.801L167.459 172.637L167.478 172.634L167.498 172.631L167.219 170.801ZM185.824 165.525L184.905 163.918L185.824 165.525ZM193.599 158.861L195.198 159.793L195.214 159.766L195.229 159.738L193.599 158.861ZM192.21 139.978L190.805 141.183L192.21 139.978ZM176.66 133.314L176.211 135.11L176.231 135.115L176.25 135.119L176.66 133.314ZM141.395 129.704L141.439 127.853L141.438 127.853L141.395 129.704ZM105.851 128.871L105.8 130.721L105.808 130.722L105.851 128.871ZM7.55185 47.5101L9.325 48.0421L9.32736 48.0341L9.32966 48.0261L7.55185 47.5101ZM17.5484 30.5711L18.9244 31.8101L18.9344 31.7991L18.9443 31.7871L17.5484 30.5711ZM36.9861 16.1321L36.1887 14.4611L36.1812 14.4651L36.1737 14.4691L36.9861 16.1321ZM69.7526 6.69105L70.0729 8.51407L70.0848 8.51205L70.0967 8.51005L69.7526 6.69105ZM221.089 16.687L220.291 18.357L220.298 18.361L220.305 18.364L221.089 16.687ZM242.193 31.6821L240.822 32.9251L240.832 32.937L240.843 32.948L242.193 31.6821ZM253.578 49.454L251.828 50.056L251.831 50.064L251.834 50.073L253.578 49.454ZM256.633 70.8351L256.633 72.687L258.484 72.687L258.484 70.8351L256.633 70.8351ZM189.434 70.8351L187.608 71.1401L187.865 72.687L189.434 72.687L189.434 70.8351ZM187.768 65.2821L186.011 65.8671L186.053 65.9921L186.112 66.1101L187.768 65.2821ZM183.325 58.8951L181.968 60.1551L183.325 58.8951ZM173.883 52.508L173.154 54.2101L173.883 52.508ZM156.39 48.0651L156.078 49.8901L156.085 49.8911L156.39 48.0651ZM89.468 49.1761L89.8696 50.9831L89.8887 50.9791L89.9076 50.9741L89.468 49.1761ZM74.1955 55.2851L72.7734 54.1001L72.768 54.1061L72.7628 54.1131L74.1955 55.2851ZM74.4732 72.5011L73.0511 73.6871L73.079 73.7201L73.1086 73.7521L74.4732 72.5011ZM88.3573 78.6101L87.8975 80.4041L87.9083 80.4061L88.3573 78.6101ZM119.458 81.665L119.487 79.8141L119.483 79.8141L119.458 81.665ZM154.168 82.2201L154.204 80.3691L154.198 80.3691L154.168 82.2201ZM237.473 98.0481L236.549 99.6521L236.559 99.6581L236.569 99.6641L237.473 98.0481ZM260.798 168.024L262.58 168.525L262.582 168.518L262.584 168.511L260.798 168.024ZM250.524 186.351L251.953 187.528L250.524 186.351ZM229.698 202.179L228.884 200.516L228.877 200.52L228.87 200.523L229.698 202.179ZM194.432 212.731L194.751 214.554L194.76 214.553L194.769 214.551L194.432 212.731ZM142.228 214.767L123.068 214.767L123.068 218.47L142.228 218.47L142.228 214.767ZM123.068 214.767C102.619 214.767 84.8062 213.017 69.6103 209.538L68.7841 213.147C84.3184 216.703 102.42 218.47 123.068 218.47L123.068 214.767ZM69.6103 209.538C54.3325 206.041 42.6984 201.837 34.6064 196.982L32.7015 200.157C41.2704 205.298 53.3318 209.61 68.7841 213.147L69.6103 209.538ZM34.6064 196.982C26.4674 192.098 20.0026 186.249 15.1699 179.448L12.1517 181.592C17.3156 188.86 24.1795 195.043 32.7015 200.157L34.6064 196.982ZM15.2011 179.493C10.4546 172.373 7.42322 166.087 6.01215 160.619L2.42718 161.545C3.97805 167.554 7.24073 174.227 12.1205 181.547L15.2011 179.493ZM6.02541 160.674C4.76265 155.082 4.1271 149.111 4.1271 142.755L0.424679 142.755C0.42468 149.358 1.08498 155.605 2.41391 161.49L6.02541 160.674ZM4.1271 142.755L4.1271 139.701L0.424679 139.701L0.424679 142.755L4.1271 142.755ZM2.27589 141.552L69.7526 141.552L69.7526 137.849L2.27589 137.849L2.27589 141.552ZM67.9056 139.826C68.6923 151.429 74.5823 160.168 85.3333 165.908C95.9561 171.58 111.287 174.318 131.12 174.318L131.12 170.616C111.523 170.616 96.9103 167.893 87.0772 162.642C77.3723 157.461 72.2939 149.816 71.5996 139.575L67.9056 139.826ZM131.12 174.318L135.008 174.318L135.008 170.616L131.12 170.616L131.12 174.318ZM135.008 174.318C148.011 174.318 158.835 173.761 167.459 172.637L166.98 168.965C158.573 170.062 147.922 170.616 135.008 170.616L135.008 174.318ZM167.498 172.631C176.07 171.327 182.549 169.528 186.742 167.132L184.905 163.918C181.323 165.964 175.4 167.684 166.941 168.971L167.498 172.631ZM186.742 167.132C190.73 164.854 193.658 162.433 195.198 159.793L192 157.928C190.948 159.731 188.693 161.753 184.905 163.918L186.742 167.132ZM195.229 159.738C196.691 157.024 197.394 153.937 197.394 150.53L193.691 150.53C193.691 153.418 193.099 155.884 191.969 157.983L195.229 159.738ZM197.394 150.53C197.394 145.781 196.203 141.791 193.616 138.773L190.805 141.183C192.661 143.349 193.691 146.393 193.691 150.53L197.394 150.53ZM193.616 138.773C192.238 137.166 190.089 135.825 187.386 134.667C184.655 133.496 181.206 132.448 177.071 131.509L176.25 135.119C180.26 136.03 183.475 137.019 185.928 138.07C188.408 139.133 189.961 140.199 190.805 141.183L193.616 138.773ZM177.109 131.518C168.765 129.432 156.848 128.225 141.439 127.853L141.35 131.555C156.671 131.924 168.265 133.123 176.211 135.11L177.109 131.518ZM141.438 127.853L105.895 127.02L105.808 130.722L141.351 131.555L141.438 127.853ZM105.902 127.02C72.422 126.098 47.6011 120.608 31.2054 110.762C14.9506 101 6.90393 86.9251 6.90393 68.3361L3.2015 68.3361C3.2015 88.2531 11.9545 103.519 29.2992 113.936C46.5031 124.268 72.0815 129.793 105.8 130.721L105.902 127.02ZM6.90393 68.3361L6.90393 65.8371L3.2015 65.8371L3.2015 68.3361L6.90393 68.3361ZM6.90393 65.8371C6.90393 59.3271 7.71773 53.4001 9.325 48.0421L5.77871 46.9781C4.05379 52.7281 3.2015 59.0191 3.2015 65.8371L6.90393 65.8371ZM9.32966 48.0261C10.9009 42.6141 14.0672 37.2071 18.9244 31.8101L16.1724 29.3331C11.033 35.0431 7.53491 40.9291 5.77405 46.9941L9.32966 48.0261ZM18.9443 31.7871C23.7555 26.2631 30.0247 21.5921 37.7985 17.7951L36.1737 14.4691C28.0271 18.4471 21.3378 23.4021 16.1524 29.3561L18.9443 31.7871ZM37.7835 17.8031C45.7191 14.0151 56.4602 10.9051 70.0729 8.51407L69.4323 4.86706C55.647 7.28906 44.5438 10.4741 36.1887 14.4611L37.7835 17.8031ZM70.0967 8.51005C83.6543 5.94505 99.4551 4.65406 117.514 4.65406L117.514 0.952052C99.289 0.952053 83.2489 2.25305 69.4085 4.87205L70.0967 8.51005ZM117.514 4.65406L136.674 4.65406L136.674 0.952051L117.514 0.952052L117.514 4.65406ZM136.674 4.65406C155.476 4.65406 172.024 5.94505 186.33 8.51305L186.984 4.86906C172.411 2.25306 155.637 0.95205 136.674 0.952051L136.674 4.65406ZM186.33 8.51305C200.686 11.0901 211.984 14.384 220.291 18.357L221.888 15.017C213.164 10.8451 201.507 7.47506 186.984 4.86906L186.33 8.51305ZM220.305 18.364C228.827 22.353 235.648 27.2161 240.822 32.9251L243.565 30.439C238.002 24.3 230.754 19.1671 221.874 15.0111L220.305 18.364ZM240.843 32.948C246.268 38.736 249.897 44.4411 251.828 50.056L255.329 48.8521C253.186 42.6191 249.225 36.4761 243.544 30.4161L240.843 32.948ZM251.834 50.073C253.793 55.595 254.782 61.5851 254.782 68.0591L258.484 68.0591C258.484 61.2031 257.436 54.7901 255.323 48.8351L251.834 50.073ZM254.782 68.0591L254.782 70.8351L258.484 70.8351L258.484 68.0591L254.782 68.0591ZM256.633 68.984L189.434 68.984L189.434 72.687L256.633 72.687L256.633 68.984ZM191.26 70.5311C190.869 68.1881 190.27 66.147 189.423 64.454L186.112 66.1101C186.746 67.3781 187.258 69.0391 187.608 71.1401L191.26 70.5311ZM189.524 64.6961C188.837 62.6351 187.122 60.264 184.681 57.635L181.968 60.1551C184.341 62.7101 185.588 64.5971 186.011 65.8671L189.524 64.6961ZM184.681 57.635C182.068 54.821 178.692 52.5551 174.613 50.8071L173.154 54.2101C176.85 55.7941 179.768 57.7861 181.968 60.1551L184.681 57.635ZM174.613 50.8071C170.519 49.0521 164.513 47.5421 156.694 46.2391L156.085 49.8911C163.817 51.1801 169.473 52.6321 173.154 54.2101L174.613 50.8071ZM156.701 46.2411C148.981 44.9231 139.987 44.2701 129.732 44.2701L129.732 47.9731C139.84 47.9731 148.618 48.6161 156.078 49.8901L156.701 46.2411ZM129.732 44.2701L125.289 44.2701L125.289 47.9731L129.732 47.9731L129.732 44.2701ZM125.289 44.2701C109.69 44.2701 97.5747 45.2891 89.0284 47.3781L89.9076 50.9741C98.0223 48.9911 109.788 47.9731 125.289 47.9731L125.289 44.2701ZM89.0664 47.3691C84.851 48.3061 81.3889 49.3031 78.7145 50.3731C76.0967 51.4201 74.0033 52.6241 72.7734 54.1001L75.6177 56.4701C76.2389 55.7251 77.6166 54.8001 80.0896 53.8111C82.5061 52.8441 85.7546 51.8981 89.8696 50.9831L89.0664 47.3691ZM72.7628 54.1131C70.7345 56.5921 69.8452 59.9351 69.8452 63.8931L73.5476 63.8931C73.5476 60.4471 74.3244 58.0511 75.6283 56.4571L72.7628 54.1131ZM69.8452 63.8931C69.8452 67.7461 70.8661 71.0651 73.0511 73.6871L75.8953 71.3161C74.3778 69.4951 73.5476 67.0751 73.5476 63.8931L69.8452 63.8931ZM73.1086 73.7521C74.3792 75.1381 76.3152 76.3281 78.7259 77.3891C81.1645 78.4621 84.2311 79.4641 87.8975 80.4041L88.8171 76.8171C85.2637 75.9061 82.4065 74.9641 80.217 74.0001C77.9997 73.0251 76.6035 72.0861 75.8378 71.2511L73.1086 73.7521ZM87.9083 80.4061C95.5173 82.3091 106.05 83.3301 119.432 83.5161L119.483 79.8141C106.209 79.6301 96.007 78.6151 88.8063 76.8141L87.9083 80.4061ZM119.428 83.5161L154.138 84.0711L154.198 80.3691L119.487 79.8141L119.428 83.5161ZM154.132 84.0711C192.571 84.8101 219.942 90.0851 236.549 99.6521L238.397 96.4441C220.941 86.3881 192.775 81.1111 154.204 80.3691L154.132 84.0711ZM236.569 99.6641C253.164 108.943 261.446 123.483 261.446 143.588L265.148 143.588C265.148 122.226 256.214 106.406 238.376 96.4321L236.569 99.6641ZM261.446 143.588L261.446 147.476L265.148 147.476L265.148 143.588L261.446 143.588ZM261.446 147.476C261.446 154.933 260.627 161.615 259.012 167.537L262.584 168.511C264.301 162.216 265.148 155.199 265.148 147.476L261.446 147.476ZM259.016 167.523C257.438 173.133 254.165 179.017 249.095 185.174L251.953 187.528C257.249 181.097 260.826 174.763 262.58 168.525L259.016 167.523ZM249.095 185.174C244.108 191.23 237.391 196.353 228.884 200.516L230.511 203.842C239.405 199.489 246.573 194.061 251.953 187.528L249.095 185.174ZM228.87 200.523C220.574 204.671 209.008 208.149 194.095 210.911L194.769 214.551C209.845 211.759 221.79 208.202 230.525 203.835L228.87 200.523ZM194.113 210.907C179.436 213.476 162.146 214.767 142.228 214.767L142.228 218.47C162.295 218.47 179.808 217.169 194.751 214.554L194.113 210.907ZM472.116 128.593L472.116 130.444L475.155 130.444L473.761 127.744L472.116 128.593ZM432.13 51.12L433.775 50.271L432.095 47.016L430.471 50.299L432.13 51.12ZM393.81 128.593L392.151 127.773L390.829 130.444L393.81 130.444L393.81 128.593ZM515.435 213.009L513.789 213.856L514.305 214.86L515.435 214.86L515.435 213.009ZM495.997 175.244L497.643 174.397L497.126 173.393L495.997 173.393L495.997 175.244ZM370.762 175.244L370.762 173.393L369.611 173.393L369.102 174.426L370.762 175.244ZM352.158 213.009L352.158 214.86L353.309 214.86L353.818 213.827L352.158 213.009ZM286.347 213.009L284.695 212.174L283.337 214.86L286.347 214.86L286.347 213.009ZM390.755 6.41304L390.755 4.56204L389.617 4.56204L389.103 5.57805L390.755 6.41304ZM474.615 6.41303L476.248 5.54003L475.724 4.56204L474.615 4.56204L474.615 6.41303ZM585.133 213.009L585.133 214.86L588.223 214.86L586.765 212.135L585.133 213.009ZM473.761 127.744L433.775 50.271L430.485 51.969L470.471 129.442L473.761 127.744ZM430.471 50.299L392.151 127.773L395.469 129.414L433.789 51.941L430.471 50.299ZM393.81 130.444L472.116 130.444L472.116 126.742L393.81 126.742L393.81 130.444ZM517.081 212.161L497.643 174.397L494.351 176.091L513.789 213.856L517.081 212.161ZM495.997 173.393L370.762 173.393L370.762 177.095L495.997 177.095L495.997 173.393ZM369.102 174.426L350.497 212.191L353.818 213.827L372.423 176.062L369.102 174.426ZM352.158 211.157L286.347 211.157L286.347 214.86L352.158 214.86L352.158 211.157ZM287.999 213.844L392.408 7.24804L389.103 5.57805L284.695 212.174L287.999 213.844ZM390.755 8.26405L474.615 8.26405L474.615 4.56204L390.755 4.56204L390.755 8.26405ZM472.983 7.28604L583.5 213.882L586.765 212.135L476.248 5.54003L472.983 7.28604ZM585.133 211.157L515.435 211.157L515.435 214.86L585.133 214.86L585.133 211.157ZM679.927 209.676L679.431 211.46L679.927 209.676ZM639.94 192.182L638.843 193.674L638.859 193.685L638.875 193.696L639.94 192.182ZM615.782 167.191L614.233 168.204L614.237 168.211L614.242 168.218L615.782 167.191ZM602.731 139.701L600.935 140.15L600.941 140.172L600.947 140.194L602.731 139.701ZM602.176 78.888L600.375 78.458L600.372 78.472L600.368 78.487L602.176 78.888ZM614.394 51.953L612.844 50.94L612.839 50.947L614.394 51.953ZM638.552 27.239L639.612 28.757L639.621 28.751L639.631 28.744L638.552 27.239ZM679.093 9.74503L678.618 7.95603L678.613 7.95802L679.093 9.74503ZM809.604 8.35702L810.001 6.54902L809.604 8.35702ZM849.035 22.241L848.096 23.837L848.115 23.847L848.133 23.858L849.035 22.241ZM872.638 41.679L871.196 42.839L871.203 42.848L871.21 42.857L872.638 41.679ZM884.856 62.227L883.095 62.797L883.097 62.805L883.1 62.813L884.856 62.227ZM888.188 81.11L890.039 81.11L890.039 81.083L890.039 81.057L888.188 81.11ZM888.188 81.387L888.188 83.238L890.039 83.238L890.039 81.387L888.188 81.387ZM819.323 81.387L817.575 81.997L818.008 83.238L819.323 83.238L819.323 81.387ZM686.313 149.975L685.11 151.382L685.12 151.39L686.313 149.975ZM776.838 163.859L777.153 165.683L776.838 163.859ZM799.885 157.75L799.169 156.043L799.885 157.75ZM814.325 149.975L815.401 151.481L815.407 151.477L815.413 151.472L814.325 149.975ZM822.655 142.2L821.174 141.089L821.143 141.13L821.115 141.173L822.655 142.2ZM825.154 136.368L827.005 136.368L827.005 134.517L825.154 134.517L825.154 136.368ZM744.071 136.368L742.22 136.368L742.22 138.22L744.071 138.22L744.071 136.368ZM744.071 97.215L744.071 95.364L742.22 95.364L742.22 97.215L744.071 97.215ZM889.576 97.215L891.428 97.215L891.428 95.364L889.576 95.364L889.576 97.215ZM889.576 213.009L889.576 214.86L891.428 214.86L891.428 213.009L889.576 213.009ZM850.701 213.009L848.862 213.223L849.053 214.86L850.701 214.86L850.701 213.009ZM842.371 180.798L844.083 180.094L842.942 177.316L840.973 179.584L842.371 180.798ZM742.96 214.767L737.129 214.767L737.129 218.47L742.96 218.47L742.96 214.767ZM737.129 214.767C715.784 214.767 696.888 212.467 680.422 207.893L679.431 211.46C696.287 216.142 715.526 218.47 737.129 218.47L737.129 214.767ZM680.422 207.893C663.887 203.3 650.774 197.542 641.006 190.669L638.875 193.696C649.1 200.892 662.644 206.797 679.431 211.46L680.422 207.893ZM641.037 190.691C631.387 183.59 623.488 175.413 617.322 166.164L614.242 168.218C620.664 177.851 628.871 186.335 638.843 193.674L641.037 190.691ZM617.331 166.178C611.115 156.67 606.859 147.681 604.515 139.207L600.947 140.194C603.416 149.122 607.861 158.459 614.233 168.204L617.331 166.178ZM604.527 139.252C602.342 130.511 601.25 121.683 601.25 112.765L597.548 112.765C597.547 121.989 598.677 131.118 600.935 140.15L604.527 139.252ZM601.25 112.765L601.25 104.99L597.548 104.99L597.548 112.765L601.25 112.765ZM601.25 104.99C601.25 96.046 602.163 87.48 603.983 79.29L600.368 78.487C598.486 86.957 597.548 95.793 597.548 104.99L601.25 104.99ZM603.976 79.319C605.952 71.056 609.922 62.271 615.948 52.959L612.839 50.947C606.647 60.517 602.472 69.689 600.375 78.458L603.976 79.319ZM615.943 52.966C622.102 43.546 629.986 35.477 639.612 28.757L637.492 25.721C627.495 32.701 619.273 41.108 612.844 50.94L615.943 52.966ZM639.631 28.744C649.197 21.885 662.48 16.128 679.574 11.533L678.613 7.95802C661.275 12.618 647.53 18.524 637.473 25.735L639.631 28.744ZM679.569 11.534C696.781 6.95703 716.701 4.65404 739.35 4.65404L739.35 0.952025C716.46 0.952026 696.209 3.27802 678.618 7.95603L679.569 11.534ZM739.35 4.65404L751.291 4.65404L751.291 0.952024L739.35 0.952025L739.35 4.65404ZM751.291 4.65404C773.221 4.65403 792.521 6.49802 809.207 10.165L810.001 6.54902C792.995 2.81102 773.419 0.952023 751.291 0.952024L751.291 4.65404ZM809.207 10.165C825.958 13.847 838.891 18.422 848.096 23.837L849.974 20.645C840.296 14.953 826.942 10.272 810.001 6.54902L809.207 10.165ZM848.133 23.858C857.579 29.126 865.254 35.458 871.196 42.839L874.08 40.518C867.804 32.72 859.744 26.093 849.937 20.624L848.133 23.858ZM871.21 42.857C877.232 50.156 881.155 56.801 883.095 62.797L886.617 61.657C884.484 55.065 880.262 48.011 874.066 40.501L871.21 42.857ZM883.1 62.813C885.078 68.749 886.158 74.863 886.338 81.162L890.039 81.057C889.848 74.398 888.706 67.924 886.612 61.642L883.1 62.813ZM886.337 81.11L886.337 81.387L890.039 81.387L890.039 81.11L886.337 81.11ZM888.188 79.536L819.323 79.536L819.323 83.238L888.188 83.238L888.188 79.536ZM821.071 80.777C817.424 70.33 809.094 62.639 796.477 57.593C783.903 52.563 766.952 50.102 745.737 50.102L745.737 53.804C766.73 53.804 783.148 56.249 795.102 61.03C807.014 65.795 814.372 72.822 817.575 81.997L821.071 80.777ZM745.737 50.102C719.38 50.102 699.279 54.772 685.727 64.397C672.059 74.105 665.302 88.672 665.302 107.767L669.004 107.767C669.004 89.653 675.345 76.312 687.871 67.416C700.513 58.437 719.705 53.804 745.737 53.804L745.737 50.102ZM665.302 107.767L665.302 110.822L669.004 110.822L669.004 107.767L665.302 107.767ZM665.302 110.822C665.302 126.605 671.975 140.15 685.11 151.382L687.516 148.568C675.105 137.955 669.004 125.398 669.004 110.822L665.302 110.822ZM685.12 151.39C698.553 162.713 718.687 168.209 745.182 168.209L745.182 164.507C719.102 164.507 699.99 159.081 687.506 148.559L685.12 151.39ZM745.182 168.209C756.747 168.209 767.407 167.37 777.153 165.683L776.522 162.035C767.016 163.68 756.571 164.507 745.182 164.507L745.182 168.209ZM777.153 165.683C786.849 164.005 794.683 161.939 800.601 159.457L799.169 156.043C793.61 158.374 786.079 160.381 776.522 162.035L777.153 165.683ZM800.601 159.457C806.431 157.012 811.373 154.358 815.401 151.481L813.249 148.468C809.501 151.145 804.817 153.674 799.169 156.043L800.601 159.457ZM815.413 151.472C819.535 148.474 822.528 145.727 824.195 143.227L821.115 141.173C819.82 143.115 817.26 145.551 813.236 148.478L815.413 151.472ZM824.136 143.31C825.821 141.064 827.005 138.876 827.005 136.924L823.303 136.924C823.303 137.563 822.822 138.892 821.174 141.089L824.136 143.31ZM827.005 136.924L827.005 136.368L823.303 136.368L823.303 136.924L827.005 136.924ZM825.154 134.517L744.071 134.517L744.071 138.22L825.154 138.22L825.154 134.517ZM745.922 136.368L745.922 97.215L742.22 97.215L742.22 136.368L745.922 136.368ZM744.071 99.066L889.576 99.066L889.576 95.364L744.071 95.364L744.071 99.066ZM887.725 97.215L887.725 213.009L891.428 213.009L891.428 97.215L887.725 97.215ZM889.576 211.157L850.701 211.157L850.701 214.86L889.576 214.86L889.576 211.157ZM852.54 212.794C851.224 201.519 848.405 190.617 844.083 180.094L840.658 181.501C844.852 191.712 847.586 202.284 848.862 213.223L852.54 212.794ZM840.973 179.584C820.723 202.907 788.206 214.767 742.96 214.767L742.96 218.47C788.794 218.47 822.551 206.45 843.768 182.011L840.973 179.584ZM946.805 6.41301L946.805 4.56202L944.954 4.56202L944.954 6.41301L946.805 6.41301ZM1164.51 6.413L1166.36 6.413L1166.36 4.56201L1164.51 4.56201L1164.51 6.413ZM1164.51 53.341L1164.51 55.193L1166.36 55.193L1166.36 53.341L1164.51 53.341ZM1010.67 53.341L1010.67 51.49L1008.82 51.49L1008.82 53.341L1010.67 53.341ZM1010.67 83.886L1008.82 83.886L1008.82 85.738L1010.67 85.738L1010.67 83.886ZM1160.9 83.886L1162.75 83.886L1162.75 82.035L1160.9 82.035L1160.9 83.886ZM1160.9 131.092L1160.9 132.944L1162.75 132.944L1162.75 131.092L1160.9 131.092ZM1010.67 131.092L1010.67 129.241L1008.82 129.241L1008.82 131.092L1010.67 131.092ZM1010.67 164.97L1008.82 164.97L1008.82 166.821L1010.67 166.821L1010.67 164.97ZM1167.28 164.97L1169.14 164.97L1169.14 163.118L1167.28 163.118L1167.28 164.97ZM1167.28 213.009L1167.28 214.86L1169.14 214.86L1169.14 213.009L1167.28 213.009ZM946.805 213.009L944.954 213.009L944.954 214.86L946.805 214.86L946.805 213.009ZM946.805 8.26403L1164.51 8.26402L1164.51 4.56201L946.805 4.56202L946.805 8.26403ZM1162.66 6.413L1162.66 53.341L1166.36 53.341L1166.36 6.413L1162.66 6.413ZM1164.51 51.49L1010.67 51.49L1010.67 55.193L1164.51 55.193L1164.51 51.49ZM1008.82 53.341L1008.82 83.886L1012.52 83.886L1012.52 53.341L1008.82 53.341ZM1010.67 85.738L1160.9 85.738L1160.9 82.035L1010.67 82.035L1010.67 85.738ZM1159.05 83.886L1159.05 131.092L1162.75 131.092L1162.75 83.886L1159.05 83.886ZM1160.9 129.241L1010.67 129.241L1010.67 132.944L1160.9 132.944L1160.9 129.241ZM1008.82 131.092L1008.82 164.97L1012.52 164.97L1012.52 131.092L1008.82 131.092ZM1010.67 166.821L1167.28 166.821L1167.28 163.118L1010.67 163.118L1010.67 166.821ZM1165.43 164.97L1165.43 213.009L1169.14 213.009L1169.14 164.97L1165.43 164.97ZM1167.28 211.157L946.805 211.157L946.805 214.86L1167.28 214.86L1167.28 211.157ZM948.656 213.009L948.656 6.41301L944.954 6.41301L944.954 213.009L948.656 213.009Z" fill="white"/>
</g>
<defs>
<clipPath id="clip0">
<rect width="219" height="1170" fill="white" transform="translate(0 219) rotate(-90)"/>
</clipPath>
</defs>
</svg>
