<svg width="215" height="1183" viewBox="0 0 215 1183" fill="none" xmlns="http://www.w3.org/2000/svg">
<path d="M7.65922 68.1168L9.46118 68.5292L9.46118 68.5292L7.65922 68.1168ZM20.2414 33.1054L18.6563 32.1543L18.6563 32.1543L20.2414 33.1054ZM38.0206 13.4115L36.9952 11.8734L36.9723 11.8887L36.9499 11.9046L38.0206 13.4115ZM57.1674 4.11167L56.7603 2.3085L56.7328 2.3147L56.7055 2.32174L57.1674 4.11167ZM78.2289 2.19699L80.0775 2.19699L80.0775 0.348417L78.2289 0.348417L78.2289 2.19699ZM78.2289 68.6638L78.354 70.5081L80.0775 70.3913L80.0775 68.6638L78.2289 68.6638ZM47.594 164.671L45.761 164.911L45.7635 164.93L45.7665 164.95L47.594 164.671ZM52.791 182.998L54.396 182.081L54.396 182.081L52.791 182.998ZM59.3556 190.656L58.4242 192.253L58.4514 192.269L58.4792 192.284L59.3556 190.656ZM77.9554 189.289L76.7524 187.885L76.7524 187.885L77.9554 189.289ZM84.52 173.971L82.7266 173.523L82.7218 173.542L82.7174 173.562L84.52 173.971ZM88.0759 139.234L89.9239 139.278L89.9239 139.277L88.0759 139.234ZM88.8964 104.222L87.0486 104.171L87.0484 104.179L88.8964 104.222ZM169.04 7.39398L168.508 9.16459L168.516 9.16695L168.524 9.16925L169.04 7.39398ZM185.725 17.2409L184.488 18.6149L184.499 18.625L184.511 18.6349L185.725 17.2409ZM199.948 36.3877L201.616 35.5915L201.613 35.584L201.609 35.5765L199.948 36.3877ZM209.248 68.6638L207.427 68.9837L207.429 68.9956L207.432 69.0074L209.248 68.6638ZM199.401 217.735L197.733 216.938L197.73 216.945L197.727 216.952L199.401 217.735ZM184.631 238.523L183.389 237.154L183.378 237.164L183.366 237.175L184.631 238.523ZM167.125 249.738L166.524 247.99L166.515 247.993L166.507 247.996L167.125 249.738ZM146.063 252.747L144.215 252.747L144.215 254.595L146.063 254.595L146.063 252.747ZM146.063 186.554L145.759 184.73L144.215 184.988L144.215 186.554L146.063 186.554ZM151.534 184.912L150.949 183.159L150.825 183.2L150.707 183.259L151.534 184.912ZM157.825 180.536L156.567 179.181L156.567 179.181L157.825 180.536ZM164.116 171.236L162.417 170.508L162.417 170.508L164.116 171.236ZM168.493 154.004L166.67 153.693L166.669 153.7L168.493 154.004ZM167.398 88.0842L165.594 88.4852L165.598 88.5042L165.603 88.5231L167.398 88.0842ZM161.381 73.0402L162.564 71.6201L162.558 71.6148L162.551 71.6095L161.381 73.0402ZM144.422 73.3138L143.239 71.8936L143.205 71.9216L143.173 71.9511L144.422 73.3138ZM138.405 86.9901L136.614 86.5309L136.611 86.5417L138.405 86.9901ZM135.396 117.625L137.244 117.655L137.244 117.651L135.396 117.625ZM134.849 151.816L136.697 151.851L136.697 151.845L134.849 151.816ZM119.258 233.874L117.656 232.951L117.65 232.961L117.644 232.971L119.258 233.874ZM50.3293 256.85L49.8288 258.629L49.8358 258.631L49.8429 258.633L50.3293 256.85ZM32.2766 246.729L31.1014 248.156L31.1014 248.156L32.2766 246.729ZM16.6856 226.215L18.346 225.402L18.3425 225.395L18.339 225.388L16.6856 226.215ZM6.29158 191.477L4.47069 191.796L4.47226 191.805L4.47392 191.814L6.29158 191.477ZM4.31079 140.054L4.31079 121.181L0.613655 121.181L0.613654 140.054L4.31079 140.054ZM4.31079 121.181C4.31079 101.039 6.03519 83.4954 9.46118 68.5292L5.85726 67.7043C2.35392 83.0083 0.613656 100.84 0.613655 121.181L4.31079 121.181ZM9.46118 68.5292C12.9059 53.4813 17.046 42.0242 21.8266 34.0565L18.6563 32.1543C13.5899 40.5982 9.34188 52.482 5.85726 67.7043L9.46118 68.5292ZM21.8266 34.0565C26.6353 26.042 32.3947 19.6766 39.0913 14.9185L36.9499 11.9046C29.7879 16.9934 23.6945 23.7573 18.6563 32.1543L21.8266 34.0565ZM39.046 14.9497C46.0578 10.2751 52.247 7.29059 57.6293 5.90159L56.7055 2.32174C50.7821 3.85035 44.2067 7.06576 36.9952 11.8734L39.046 14.9497ZM57.5746 5.91483C63.0812 4.67142 68.9612 4.04555 75.2202 4.04555L75.2202 0.348417C68.7145 0.348417 62.5594 0.999005 56.7603 2.3085L57.5746 5.91483ZM75.2202 4.04555L78.2289 4.04555L78.2289 0.348417L75.2202 0.348417L75.2202 4.04555ZM76.3804 2.19699L76.3804 68.6638L80.0775 68.6638L80.0775 2.19699L76.3804 2.19699ZM78.1039 66.8195C66.6648 67.595 58.0495 73.4023 52.3912 83.9995C46.8013 94.4687 44.1043 109.575 44.1043 129.113L47.8014 129.113C47.8014 109.811 50.4837 95.4215 55.6526 85.7409C60.753 76.1884 68.2756 71.1914 78.354 70.5081L78.1039 66.8195ZM44.1043 129.113L44.1043 132.942L47.8014 132.942L47.8014 129.113L44.1043 129.113ZM44.1043 132.942C44.1043 145.751 44.6527 156.414 45.761 164.911L49.4271 164.432C48.3471 156.152 47.8014 145.663 47.8014 132.942L44.1043 132.942ZM45.7665 164.95C47.0515 173.394 48.8234 179.78 51.186 183.915L54.396 182.081C52.3822 178.556 50.6894 172.725 49.4215 164.393L45.7665 164.95ZM51.186 183.915C53.4314 187.844 55.818 190.733 58.4242 192.253L60.2871 189.06C58.5169 188.027 56.527 185.81 54.396 182.081L51.186 183.915ZM58.4792 192.284C61.1574 193.726 64.2022 194.42 67.5614 194.42L67.5614 190.723C64.7207 190.723 62.2949 190.14 60.232 189.029L58.4792 192.284ZM67.5614 194.42C72.2435 194.42 76.1802 193.245 79.1584 190.692L76.7524 187.885C74.6248 189.709 71.6321 190.723 67.5614 190.723L67.5614 194.42ZM79.1584 190.692C80.746 189.332 82.0687 187.21 83.2103 184.546C84.364 181.854 85.3967 178.455 86.3226 174.381L82.7174 173.562C81.8198 177.511 80.8466 180.676 79.8121 183.09C78.7656 185.532 77.7177 187.058 76.7524 187.885L79.1584 190.692ZM86.3134 174.42C88.369 166.197 89.5581 154.457 89.9239 139.278L86.2278 139.189C85.8642 154.28 84.6828 165.698 82.7266 173.523L86.3134 174.42ZM89.9239 139.277L90.7445 104.266L87.0484 104.179L86.2278 139.19L89.9239 139.277ZM90.7443 104.273C91.6528 71.2956 97.0602 46.8513 106.756 30.7065C116.367 14.7024 130.224 6.78082 148.525 6.78082L148.525 3.08368C128.897 3.08368 113.851 11.7105 103.586 28.803C93.4061 45.7548 87.9636 70.9555 87.0486 104.171L90.7443 104.273ZM148.525 6.78082L150.987 6.78082L150.987 3.08368L148.525 3.08368L148.525 6.78082ZM150.987 6.78082C157.398 6.78082 163.234 7.58218 168.508 9.16459L169.571 5.62338C163.904 3.92347 157.705 3.08368 150.987 3.08368L150.987 6.78082ZM168.524 9.16925C173.851 10.7158 179.174 13.8324 184.488 18.6149L186.961 15.8669C181.334 10.8025 175.534 7.35451 169.555 5.61872L168.524 9.16925ZM184.511 18.6349C189.949 23.3715 194.548 29.544 198.287 37.199L201.609 35.5765C197.689 27.5493 192.806 20.9572 186.939 15.8469L184.511 18.6349ZM198.28 37.184C202.009 44.998 205.072 55.5759 207.427 68.9837L211.069 68.344C208.683 54.7638 205.546 43.8244 201.616 35.5915L198.28 37.184ZM207.432 69.0074C209.958 82.3602 211.229 97.9228 211.229 115.71L214.926 115.71C214.926 97.757 213.644 81.9553 211.064 68.3202L207.432 69.0074ZM211.229 115.71L211.229 134.584L214.926 134.584L214.926 115.71L211.229 115.71ZM211.229 134.584C211.229 153.103 209.957 169.402 207.428 183.492L211.067 184.145C213.644 169.788 214.926 153.263 214.926 134.584L211.229 134.584ZM207.428 183.492C204.89 197.631 201.645 208.758 197.733 216.938L201.069 218.533C205.18 209.937 208.499 198.452 211.067 184.145L207.428 183.492ZM197.727 216.952C193.798 225.344 189.01 232.06 183.389 237.154L185.872 239.893C191.922 234.411 196.98 227.268 201.075 218.519L197.727 216.952ZM183.366 237.175C177.667 242.518 172.051 246.09 166.524 247.99L167.726 251.486C173.87 249.374 179.923 245.47 185.895 239.872L183.366 237.175ZM166.507 247.996C161.07 249.925 155.172 250.898 148.799 250.898L148.799 254.595C155.554 254.595 161.874 253.563 167.743 251.48L166.507 247.996ZM148.799 250.898L146.063 250.898L146.063 254.595L148.799 254.595L148.799 250.898ZM147.912 252.747L147.912 186.554L144.215 186.554L144.215 252.747L147.912 252.747ZM146.367 188.377C148.677 187.992 150.69 187.401 152.361 186.566L150.707 183.259C149.46 183.882 147.827 184.386 145.759 184.73L146.367 188.377ZM152.118 186.666C154.155 185.987 156.493 184.295 159.083 181.891L156.567 179.181C154.051 181.518 152.195 182.743 150.949 183.159L152.118 186.666ZM159.083 181.891C161.858 179.313 164.092 175.985 165.815 171.964L162.417 170.508C160.858 174.146 158.897 177.017 156.567 179.181L159.083 181.891ZM165.815 171.964C167.545 167.929 169.032 162.01 170.316 154.308L166.669 153.7C165.4 161.315 163.97 166.885 162.417 170.508L165.815 171.964ZM170.315 154.315C171.613 146.709 172.256 137.848 172.256 127.745L168.559 127.745C168.559 137.702 167.925 146.346 166.67 153.693L170.315 154.315ZM172.256 127.745L172.256 123.369L168.559 123.369L168.559 127.745L172.256 127.745ZM172.256 123.369C172.256 108.003 171.253 96.0665 169.194 87.6452L165.603 88.5231C167.556 96.5134 168.559 108.101 168.559 123.369L172.256 123.369ZM169.203 87.6831C168.28 83.5301 167.297 80.1184 166.243 77.4823C165.211 74.9027 164.023 72.8358 162.564 71.6201L160.197 74.4603C160.927 75.0682 161.836 76.4204 162.81 78.8554C163.761 81.234 164.693 84.4324 165.594 88.4852L169.203 87.6831ZM162.551 71.6095C160.104 69.6067 156.804 68.7299 152.902 68.7299L152.902 72.4271C156.293 72.4271 158.646 73.1915 160.21 74.4709L162.551 71.6095ZM152.902 68.7299C149.102 68.7299 145.827 69.7369 143.239 71.8936L145.606 74.7339C147.394 73.2436 149.772 72.4271 152.902 72.4271L152.902 68.7299ZM143.173 71.9511C141.804 73.2061 140.63 75.1168 139.585 77.4927C138.527 79.8965 137.54 82.9186 136.614 86.5309L140.195 87.4492C141.093 83.9498 142.021 81.1367 142.969 78.9817C143.929 76.7989 144.852 75.4272 145.671 74.6764L143.173 71.9511ZM136.611 86.5417C134.737 94.0396 133.731 104.416 133.547 117.599L137.244 117.651C137.426 104.575 138.425 94.5285 140.198 87.4384L136.611 86.5417ZM133.548 117.595L133 151.786L136.697 151.845L137.244 117.655L133.548 117.595ZM133.001 151.78C132.272 189.643 127.076 216.598 117.656 232.951L120.86 234.796C130.768 217.596 135.966 189.846 136.697 151.851L133.001 151.78ZM117.644 232.971C108.509 249.31 94.1956 257.463 74.3996 257.463L74.3996 261.16C95.4501 261.16 111.042 252.355 120.871 234.776L117.644 232.971ZM74.3996 257.463L70.5702 257.463L70.5702 261.16L74.3996 261.16L74.3996 257.463ZM70.5702 257.463C63.2267 257.463 56.647 256.657 50.8157 255.066L49.8429 258.633C56.0467 260.325 62.961 261.16 70.5702 261.16L70.5702 257.463ZM50.8298 255.07C45.3078 253.517 39.5148 250.295 33.4517 245.302L31.1014 248.156C37.4382 253.375 43.6803 256.9 49.8288 258.629L50.8298 255.07ZM33.4517 245.302C27.4902 240.393 22.4455 233.78 18.346 225.402L15.0252 227.027C19.3137 235.791 24.663 242.854 31.1014 248.156L33.4517 245.302ZM18.339 225.388C14.2545 217.219 10.8295 205.83 8.10925 191.14L4.47392 191.814C7.2242 206.665 10.7285 218.434 15.0322 227.041L18.339 225.388ZM8.11248 191.158C5.58286 176.703 4.31079 159.674 4.31079 140.054L0.613654 140.054C0.613653 159.822 1.89449 177.075 4.47069 191.796L8.11248 191.158ZM209.248 503.418L207.428 503.096L207.426 503.107L207.424 503.118L209.248 503.418ZM199.674 539.524L197.967 538.815L197.963 538.826L199.674 539.524ZM184.904 565.235L186.348 566.39L186.348 566.39L184.904 565.235ZM167.398 582.194L166.351 580.671L166.335 580.682L166.319 580.693L167.398 582.194ZM148.252 592.314L147.613 590.58L147.613 590.58L148.252 592.314ZM129.652 597.238L129.407 595.405L129.407 595.405L129.652 597.238ZM87.2553 597.238L87.4996 595.405L87.4996 595.405L87.2553 597.238ZM68.382 592.314L67.7429 594.049L67.7501 594.052L67.7574 594.054L68.382 592.314ZM48.9616 582.467L47.9144 583.991L47.9252 583.998L47.9362 584.006L48.9616 582.467ZM31.1824 565.235L29.7389 566.39L29.7424 566.394L31.1824 565.235ZM16.1385 539.797L14.4312 540.506L14.4368 540.52L14.4427 540.533L16.1385 539.797ZM6.29157 503.418L8.11247 503.1L8.11178 503.096L6.29157 503.418ZM6.29158 395.102L4.47068 394.783L6.29158 395.102ZM16.1385 358.723L14.4427 357.987L14.4369 358.001L14.4312 358.014L16.1385 358.723ZM31.1824 333.012L29.7565 331.835L29.7406 331.855L29.7252 331.874L31.1824 333.012ZM48.9616 315.78L47.9362 314.241L47.9092 314.26L47.8827 314.279L48.9616 315.78ZM68.382 305.933L67.7974 304.179L67.77 304.188L67.7429 304.198L68.382 305.933ZM87.2553 301.283L87.4996 303.115L87.4996 303.115L87.2553 301.283ZM129.378 301.283L129.126 303.114L129.134 303.115L129.378 301.283ZM147.978 305.933L148.603 304.193L148.59 304.188L148.576 304.184L147.978 305.933ZM167.398 315.78L168.477 314.279L168.462 314.267L168.446 314.256L167.398 315.78ZM184.904 333.012L186.348 331.857L186.348 331.857L184.904 333.012ZM199.674 358.45L201.386 357.752L201.382 357.741L199.674 358.45ZM209.248 395.102L207.423 395.399L207.425 395.41L207.427 395.421L209.248 395.102ZM125.002 529.677L125.5 531.457L125.5 531.457L125.002 529.677ZM139.225 522.292L140.326 523.777L140.326 523.777L139.225 522.292ZM151.807 508.068L153.397 509.012L153.397 509.012L151.807 508.068ZM160.287 484.272L158.488 483.846L158.484 483.862L158.481 483.878L160.287 484.272ZM88.6229 370.211L87.9738 368.48L87.9504 368.489L87.9271 368.499L88.6229 370.211ZM71.1172 381.973L69.8529 380.624L69.8529 380.624L71.1172 381.973ZM57.1674 407.411L55.3976 406.877L55.3976 406.877L57.1674 407.411ZM56.8939 490.563L55.1186 491.078L55.1213 491.087L55.1241 491.096L56.8939 490.563ZM70.5702 516.274L69.263 517.581L69.2734 517.592L69.284 517.602L70.5702 516.274ZM88.0758 528.036L88.7716 526.323L88.7484 526.314L88.7249 526.305L88.0758 528.036ZM211.229 443.516L211.229 455.278L214.926 455.278L214.926 443.516L211.229 443.516ZM211.229 455.278C211.229 472.879 209.958 488.816 207.428 503.096L211.068 503.741C213.643 489.21 214.926 473.052 214.926 455.278L211.229 455.278ZM207.424 503.118C205.068 517.434 201.908 529.322 197.967 538.815L201.382 540.233C205.465 530.397 208.687 518.214 211.072 503.719L207.424 503.118ZM197.963 538.826C194.009 548.531 189.171 556.943 183.461 564.081L186.348 566.39C192.308 558.94 197.317 550.21 201.386 540.221L197.963 538.826ZM183.461 564.081C177.705 571.275 171.998 576.788 166.351 580.671L168.446 583.717C174.469 579.576 180.433 573.783 186.348 566.39L183.461 564.081ZM166.319 580.693C160.623 584.787 154.39 588.083 147.613 590.58L148.891 594.049C155.972 591.44 162.503 587.989 168.477 583.695L166.319 580.693ZM147.613 590.58C140.771 593.1 134.707 594.699 129.407 595.405L129.896 599.07C135.538 598.318 141.874 596.634 148.891 594.049L147.613 590.58ZM129.407 595.405C124.025 596.123 118.363 596.483 112.42 596.483L112.42 600.181C118.512 600.181 124.338 599.811 129.896 599.07L129.407 595.405ZM112.42 596.483L104.214 596.483L104.214 600.181L112.42 600.181L112.42 596.483ZM104.214 596.483C98.4557 596.483 92.8847 596.124 87.4996 595.405L87.011 599.07C92.5669 599.811 98.3016 600.181 104.214 600.181L104.214 596.483ZM87.4996 595.405C82.1963 594.698 76.0368 593.098 69.0065 590.575L67.7574 594.054C74.9505 596.636 81.3732 598.319 87.011 599.07L87.4996 595.405ZM69.021 590.58C62.2249 588.076 55.8814 584.859 49.987 580.929L47.9362 584.006C54.077 588.099 60.6804 591.447 67.7429 594.049L69.021 590.58ZM50.0089 580.944C44.3635 577.063 38.5646 571.459 32.6225 564.076L29.7424 566.394C35.8354 573.965 41.8893 579.849 47.9144 583.991L50.0089 580.944ZM32.6259 564.081C26.9051 556.929 21.9713 548.595 17.8343 539.061L14.4427 540.533C18.6938 550.329 23.7894 558.953 29.7389 566.39L32.6259 564.081ZM17.8458 539.089C13.9027 529.589 10.6508 517.604 8.11247 503.1L4.47067 503.737C7.03817 518.409 10.3509 530.676 14.4312 540.506L17.8458 539.089ZM8.11178 503.096C5.58116 488.816 4.31078 472.879 4.31078 455.278L0.61364 455.278C0.61364 473.052 1.89616 489.209 4.47136 503.741L8.11178 503.096ZM4.31078 455.278L4.31078 443.516L0.613641 443.516L0.61364 455.278L4.31078 455.278ZM4.31078 443.516C4.31078 425.915 5.58111 409.886 8.11247 395.421L4.47068 394.783C1.89622 409.495 0.613642 425.741 0.613641 443.516L4.31078 443.516ZM8.11247 395.421C10.6508 380.916 13.9027 368.931 17.8458 359.432L14.4312 358.014C10.3509 367.844 7.03818 380.112 4.47068 394.783L8.11247 395.421ZM17.8343 359.459C21.9729 349.922 26.9106 341.49 32.6397 334.149L29.7252 331.874C23.7839 339.487 18.6922 348.195 14.4427 357.987L17.8343 359.459ZM32.6084 334.188C38.5546 326.981 44.3677 321.358 50.0405 317.281L47.8827 314.279C41.8851 318.589 35.8454 324.455 29.7565 331.835L32.6084 334.188ZM49.987 317.318C55.8815 313.388 62.2249 310.171 69.021 307.667L67.7429 304.198C60.6804 306.8 54.077 310.148 47.9362 314.241L49.987 317.318ZM68.9666 307.686C76.004 305.341 82.1774 303.825 87.4996 303.115L87.011 299.45C81.3921 300.2 74.9833 301.784 67.7974 304.179L68.9666 307.686ZM87.4996 303.115C92.8847 302.397 98.4557 302.037 104.214 302.037L104.214 298.34C98.3016 298.34 92.5669 298.71 87.011 299.45L87.4996 303.115ZM104.214 302.037L112.42 302.037L112.42 298.34L104.214 298.34L104.214 302.037ZM112.42 302.037C118.363 302.037 123.931 302.397 129.126 303.114L129.631 299.451C124.249 298.709 118.511 298.34 112.42 298.34L112.42 302.037ZM129.134 303.115C134.452 303.824 140.531 305.339 147.38 307.682L148.576 304.184C141.567 301.786 135.245 300.2 129.623 299.45L129.134 303.115ZM147.353 307.673C154.326 310.175 160.655 313.387 166.351 317.303L168.446 314.256C162.471 310.149 155.854 306.796 148.603 304.193L147.353 307.673ZM166.32 317.281C171.984 321.352 177.701 326.967 183.461 334.167L186.348 331.857C180.437 324.468 174.483 318.595 168.477 314.279L166.32 317.281ZM183.461 334.167C189.175 341.31 194.014 349.635 197.967 359.158L201.382 357.741C197.311 347.935 192.303 339.302 186.348 331.857L183.461 334.167ZM197.963 359.147C201.906 368.826 205.067 380.899 207.423 395.399L211.073 394.806C208.688 380.129 205.467 367.767 201.386 357.752L197.963 359.147ZM207.427 395.421C209.958 409.886 211.229 425.915 211.229 443.516L214.926 443.516C214.926 425.741 213.643 409.495 211.069 394.783L207.427 395.421ZM106.676 533.44L110.505 533.44L110.505 529.743L106.676 529.743L106.676 533.44ZM110.505 533.44C115.766 533.44 120.767 532.782 125.5 531.457L124.503 527.897C120.119 529.124 115.455 529.743 110.505 529.743L110.505 533.44ZM125.5 531.457C130.329 530.105 135.272 527.521 140.326 523.777L138.125 520.806C133.332 524.357 128.792 526.696 124.503 527.897L125.5 531.457ZM140.326 523.777C145.467 519.969 149.82 515.036 153.397 509.012L150.218 507.125C146.865 512.771 142.831 517.321 138.125 520.806L140.326 523.777ZM153.397 509.012C157.001 502.943 159.882 494.8 162.093 484.666L158.481 483.878C156.315 493.802 153.544 501.523 150.218 507.125L153.397 509.012ZM162.086 484.697C164.497 474.495 165.691 462.676 165.691 449.26L161.994 449.26C161.994 462.468 160.817 473.99 158.488 483.846L162.086 484.697ZM165.691 449.26C165.691 421.676 161.234 400.669 152.06 386.507C142.795 372.206 128.846 365.08 110.505 365.08L110.505 368.778C127.723 368.778 140.442 375.373 148.957 388.517C157.561 401.799 161.994 421.957 161.994 449.26L165.691 449.26ZM110.505 365.08L107.223 365.08L107.223 368.778L110.505 368.778L110.505 365.08ZM107.223 365.08C100.448 365.08 94.0275 366.21 87.9738 368.48L89.272 371.942C94.8887 369.836 100.868 368.778 107.223 368.778L107.223 365.08ZM87.9271 368.499C81.8334 370.974 75.8109 375.039 69.8529 380.624L72.3816 383.321C78.094 377.966 83.7419 374.189 89.3187 371.924L87.9271 368.499ZM69.8529 380.624C63.6906 386.401 58.9127 395.222 55.3976 406.877L58.9372 407.945C62.3515 396.624 66.8735 388.485 72.3816 383.321L69.8529 380.624ZM55.3976 406.877C51.8655 418.589 50.1219 432.729 50.1219 449.26L53.819 449.26C53.819 432.968 55.54 419.209 58.9372 407.945L55.3976 406.877ZM50.1219 449.26C50.1218 465.603 51.7732 479.555 55.1186 491.078L58.6691 490.047C55.4499 478.959 53.819 465.376 53.819 449.26L50.1219 449.26ZM55.1241 491.096C58.6362 502.742 63.3132 511.631 69.263 517.581L71.8773 514.967C66.5214 509.611 62.0809 501.36 58.6637 490.029L55.1241 491.096ZM69.284 517.602C75.2487 523.38 81.2933 527.467 87.4268 529.767L88.7249 526.305C83.188 524.229 77.5621 520.474 71.8564 514.946L69.284 517.602ZM87.3801 529.748C93.4456 532.213 99.8827 533.44 106.676 533.44L106.676 529.743C100.339 529.743 94.3765 528.6 88.7716 526.323L87.3801 529.748ZM6.01803 799.884L4.16946 799.884L4.16946 801.043L5.21287 801.548L6.01803 799.884ZM6.01803 720.562L5.16498 718.922L4.16947 719.44L4.16947 720.562L6.01803 720.562ZM209.521 614.707L211.37 614.707L211.37 611.662L208.668 613.067L209.521 614.707ZM209.521 686.918L210.349 688.571L211.37 688.06L211.37 686.918L209.521 686.918ZM59.9027 761.864L59.0747 760.211L55.6689 761.917L59.1166 763.537L59.9027 761.864ZM209.521 832.16L211.37 832.16L211.37 830.986L210.307 830.487L209.521 832.16ZM209.521 898.354L208.716 900.018L211.37 901.302L211.37 898.354L209.521 898.354ZM7.8666 799.884L7.8666 720.562L4.16947 720.562L4.16946 799.884L7.8666 799.884ZM6.87108 722.202L210.374 616.347L208.668 613.067L5.16498 718.922L6.87108 722.202ZM207.673 614.707L207.673 686.918L211.37 686.918L211.37 614.707L207.673 614.707ZM208.693 685.265L59.0747 760.211L60.7306 763.517L210.349 688.571L208.693 685.265ZM59.1166 763.537L208.735 833.833L210.307 830.487L60.6887 760.191L59.1166 763.537ZM207.673 832.16L207.673 898.354L211.37 898.354L211.37 832.16L207.673 832.16ZM210.327 896.69L6.8232 798.22L5.21287 801.548L208.716 900.018L210.327 896.69ZM89.1699 1068.1L87.3214 1068.1L87.3214 1071.13L90.0178 1069.74L89.1699 1068.1ZM165.484 1028.71L166.332 1030.35L169.582 1028.68L166.303 1027.05L165.484 1028.71ZM89.1699 990.964L89.9895 989.307L87.3214 987.987L87.3214 990.964L89.1699 990.964ZM6.01802 1110.77L5.17203 1109.12L4.16945 1109.64L4.16945 1110.77L6.01802 1110.77ZM43.2176 1091.62L44.0635 1093.26L45.0661 1092.75L45.0661 1091.62L43.2176 1091.62ZM43.2176 968.261L45.0661 968.261L45.0661 967.111L44.0345 966.603L43.2176 968.261ZM6.01802 949.935L4.16946 949.935L4.16946 951.085L5.20109 951.593L6.01802 949.935ZM6.01803 885.109L6.85182 883.459L4.16946 882.104L4.16946 885.109L6.01803 885.109ZM209.521 987.955L211.37 987.955L211.37 986.818L210.355 986.305L209.521 987.955ZM209.521 1070.56L210.393 1072.19L211.37 1071.67L211.37 1070.56L209.521 1070.56ZM6.01801 1179.42L4.16945 1179.42L4.16945 1182.51L6.88998 1181.05L6.01801 1179.42ZM90.0178 1069.74L166.332 1030.35L164.636 1027.07L88.3221 1066.46L90.0178 1069.74ZM166.303 1027.05L89.9895 989.307L88.3504 992.621L164.664 1030.37L166.303 1027.05ZM87.3214 990.964L87.3214 1068.1L91.0185 1068.1L91.0185 990.964L87.3214 990.964ZM6.864 1112.41L44.0635 1093.26L42.3716 1089.98L5.17203 1109.12L6.864 1112.41ZM45.0661 1091.62L45.0661 968.261L41.369 968.261L41.369 1091.62L45.0661 1091.62ZM44.0345 966.603L6.83496 948.276L5.20109 951.593L42.4006 969.919L44.0345 966.603ZM7.86659 949.935L7.8666 885.109L4.16946 885.109L4.16946 949.935L7.86659 949.935ZM5.18423 886.759L208.688 989.605L210.355 986.305L6.85182 883.459L5.18423 886.759ZM207.673 987.955L207.673 1070.56L211.37 1070.56L211.37 987.955L207.673 987.955ZM208.649 1068.93L5.14605 1177.79L6.88998 1181.05L210.393 1072.19L208.649 1068.93ZM7.86658 1179.42L7.86659 1110.77L4.16945 1110.77L4.16945 1179.42L7.86658 1179.42Z" fill="white"/>
</svg>
