<svg width="1183" height="215" viewBox="0 0 1183 215" fill="none" xmlns="http://www.w3.org/2000/svg">
<g clip-path="url(#clip0)">
<path d="M68.1168 207.341L68.5292 205.539L68.1168 207.341ZM33.1054 194.758L32.1543 196.344L33.1054 194.758ZM13.4115 176.979L11.8734 178.005L11.8887 178.028L11.9046 178.05L13.4115 176.979ZM4.11164 157.832L2.30847 158.24L2.31467 158.267L2.32171 158.294L4.11164 157.832ZM2.19696 136.771L2.19696 134.922L0.348385 134.922L0.348385 136.771L2.19696 136.771ZM68.6638 136.771L70.5081 136.646L70.3913 134.922L68.6638 134.922L68.6638 136.771ZM164.671 167.406L164.911 169.239L164.93 169.236L164.95 169.233L164.671 167.406ZM182.998 162.209L182.081 160.604L182.998 162.209ZM190.656 155.644L192.253 156.576L192.269 156.548L192.284 156.521L190.656 155.644ZM189.289 137.044L187.885 138.247L189.289 137.044ZM173.971 130.48L173.523 132.273L173.542 132.278L173.562 132.282L173.971 130.48ZM139.234 126.924L139.278 125.076L139.277 125.076L139.234 126.924ZM104.222 126.103L104.171 127.951L104.179 127.951L104.222 126.103ZM7.39394 45.9599L9.16455 46.4919L9.16691 46.4839L9.16921 46.4759L7.39394 45.9599ZM17.2409 29.2749L18.6149 30.5119L18.625 30.5009L18.6349 30.4889L17.2409 29.2749ZM36.3877 15.0519L35.5915 13.3839L35.584 13.3869L35.5765 13.3909L36.3877 15.0519ZM68.6638 5.75187L68.9837 7.57287L68.9956 7.57087L69.0074 7.56787L68.6638 5.75187ZM217.735 15.5989L216.938 17.2669L216.945 17.2699L216.952 17.2729L217.735 15.5989ZM238.523 30.3689L237.154 31.6109L237.164 31.6219L237.175 31.6339L238.523 30.3689ZM249.738 47.8749L247.99 48.4759L247.993 48.4849L247.996 48.4929L249.738 47.8749ZM252.747 68.9369L252.747 70.7849L254.595 70.7849L254.595 68.9369L252.747 68.9369ZM186.554 68.9369L184.73 69.2409L184.988 70.7849L186.554 70.7849L186.554 68.9369ZM184.912 63.4659L183.159 64.0509L183.2 64.1749L183.259 64.2929L184.912 63.4659ZM180.536 57.1749L179.181 58.4329L180.536 57.1749ZM171.236 50.8839L170.508 52.5829L171.236 50.8839ZM154.004 46.5069L153.693 48.3299L153.7 48.3309L154.004 46.5069ZM88.0842 47.6019L88.4852 49.4059L88.5042 49.4019L88.5231 49.3969L88.0842 47.6019ZM73.0402 53.6189L71.6201 52.4359L71.6148 52.4419L71.6095 52.4489L73.0402 53.6189ZM73.3138 70.5779L71.8936 71.7609L71.9216 71.7949L71.9511 71.8269L73.3138 70.5779ZM86.9901 76.5949L86.5309 78.3859L86.5417 78.3889L86.9901 76.5949ZM117.625 79.6039L117.655 77.7559L117.651 77.7559L117.625 79.6039ZM151.816 80.1509L151.851 78.3029L151.845 78.3029L151.816 80.1509ZM233.874 95.7419L232.951 97.3439L232.961 97.3499L232.971 97.3559L233.874 95.7419ZM256.85 164.671L258.629 165.171L258.631 165.164L258.633 165.157L256.85 164.671ZM246.729 182.723L248.156 183.898L246.729 182.723ZM226.215 198.314L225.402 196.654L225.395 196.657L225.388 196.661L226.215 198.314ZM191.477 208.708L191.796 210.529L191.805 210.528L191.814 210.526L191.477 208.708ZM140.054 210.689L121.181 210.689L121.181 214.386L140.054 214.386L140.054 210.689ZM121.181 210.689C101.039 210.689 83.4954 208.965 68.5292 205.539L67.7043 209.143C83.0083 212.646 100.84 214.386 121.181 214.386L121.181 210.689ZM68.5292 205.539C53.4813 202.094 42.0242 197.954 34.0565 193.173L32.1543 196.344C40.5982 201.41 52.482 205.658 67.7043 209.143L68.5292 205.539ZM34.0565 193.173C26.042 188.365 19.6766 182.605 14.9185 175.909L11.9046 178.05C16.9934 185.212 23.7573 191.305 32.1543 196.344L34.0565 193.173ZM14.9497 175.954C10.2751 168.942 7.29056 162.753 5.90156 157.371L2.32171 158.294C3.85032 164.218 7.06573 170.793 11.8734 178.005L14.9497 175.954ZM5.9148 157.425C4.67139 151.919 4.04552 146.039 4.04552 139.78L0.348385 139.78C0.348386 146.285 0.998974 152.44 2.30847 158.24L5.9148 157.425ZM4.04552 139.78L4.04552 136.771L0.348385 136.771L0.348385 139.78L4.04552 139.78ZM2.19696 138.619L68.6638 138.619L68.6638 134.922L2.19696 134.922L2.19696 138.619ZM66.8195 136.896C67.595 148.335 73.4023 156.95 83.9995 162.609C94.4687 168.199 109.575 170.896 129.113 170.896L129.113 167.198C109.811 167.198 95.4215 164.516 85.7409 159.347C76.1884 154.247 71.1914 146.724 70.5081 136.646L66.8195 136.896ZM129.113 170.896L132.942 170.896L132.942 167.198L129.113 167.198L129.113 170.896ZM132.942 170.896C145.751 170.896 156.414 170.347 164.911 169.239L164.432 165.573C156.152 166.653 145.663 167.198 132.942 167.198L132.942 170.896ZM164.95 169.233C173.394 167.948 179.78 166.176 183.915 163.814L182.081 160.604C178.556 162.618 172.725 164.31 164.393 165.578L164.95 169.233ZM183.915 163.814C187.844 161.568 190.733 159.182 192.253 156.576L189.06 154.713C188.027 156.483 185.81 158.473 182.081 160.604L183.915 163.814ZM192.284 156.521C193.726 153.842 194.42 150.798 194.42 147.438L190.723 147.438C190.723 150.279 190.14 152.705 189.029 154.768L192.284 156.521ZM194.42 147.438C194.42 142.756 193.245 138.82 190.692 135.841L187.885 138.247C189.709 140.375 190.723 143.368 190.723 147.438L194.42 147.438ZM190.692 135.841C189.332 134.254 187.21 132.931 184.546 131.79C181.854 130.636 178.455 129.603 174.381 128.677L173.562 132.282C177.511 133.18 180.676 134.153 183.09 135.188C185.532 136.234 187.058 137.282 187.885 138.247L190.692 135.841ZM174.42 128.686C166.197 126.631 154.457 125.442 139.278 125.076L139.189 128.772C154.28 129.136 165.698 130.317 173.523 132.273L174.42 128.686ZM139.277 125.076L104.266 124.255L104.179 127.951L139.19 128.772L139.277 125.076ZM104.273 124.256C71.2956 123.347 46.8513 117.94 30.7065 108.244C14.7024 98.6329 6.78079 84.7759 6.78079 66.4749L3.08365 66.4749C3.08365 86.1029 11.7105 101.149 28.803 111.414C45.7548 121.594 70.9555 127.036 104.171 127.951L104.273 124.256ZM6.78079 66.4749L6.78079 64.0129L3.08364 64.0129L3.08365 66.4749L6.78079 66.4749ZM6.78079 64.0129C6.78078 57.6019 7.58214 51.7659 9.16455 46.4919L5.62334 45.4289C3.92343 51.0959 3.08364 57.2949 3.08364 64.0129L6.78079 64.0129ZM9.16921 46.4759C10.7158 41.1489 13.8324 35.8259 18.6149 30.5119L15.8669 28.0389C10.8025 33.6659 7.35447 39.4659 5.61868 45.4449L9.16921 46.4759ZM18.6349 30.4889C23.3715 25.0509 29.544 20.4519 37.199 16.7129L35.5765 13.3909C27.5493 17.3109 20.9572 22.1939 15.8469 28.0609L18.6349 30.4889ZM37.184 16.7199C44.998 12.9909 55.5759 9.92787 68.9837 7.57287L68.344 3.93087C54.7638 6.31688 43.8244 9.45388 35.5915 13.3839L37.184 16.7199ZM69.0074 7.56787C82.3602 5.04187 97.9228 3.77087 115.71 3.77087L115.71 0.073878C97.757 0.0738788 81.9553 1.35588 68.3202 3.93588L69.0074 7.56787ZM115.71 3.77087L134.584 3.77087L134.584 0.0738772L115.71 0.073878L115.71 3.77087ZM134.584 3.77087C153.103 3.77087 169.402 5.04288 183.492 7.57188L184.145 3.93287C169.788 1.35587 153.263 0.0738764 134.584 0.0738772L134.584 3.77087ZM183.492 7.57188C197.631 10.1099 208.758 13.3549 216.938 17.2669L218.533 13.9309C209.937 9.81987 198.452 6.50087 184.145 3.93287L183.492 7.57188ZM216.952 17.2729C225.344 21.2019 232.06 25.9899 237.154 31.6109L239.893 29.1279C234.411 23.0779 227.268 18.0199 218.519 13.9249L216.952 17.2729ZM237.175 31.6339C242.518 37.3329 246.09 42.9489 247.99 48.4759L251.486 47.2739C249.374 41.1299 245.47 35.0769 239.872 29.1049L237.175 31.6339ZM247.996 48.4929C249.925 53.9299 250.898 59.8279 250.898 66.2009L254.595 66.2009C254.595 59.4459 253.563 53.1259 251.48 47.2569L247.996 48.4929ZM250.898 66.2009L250.898 68.9369L254.595 68.9369L254.595 66.2009L250.898 66.2009ZM252.747 67.0879L186.554 67.0879L186.554 70.7849L252.747 70.7849L252.747 67.0879ZM188.377 68.6329C187.992 66.3229 187.401 64.3099 186.566 62.6389L183.259 64.2929C183.882 65.5399 184.386 67.1729 184.73 69.2409L188.377 68.6329ZM186.666 62.8819C185.987 60.8449 184.295 58.5069 181.891 55.9169L179.181 58.4329C181.518 60.9489 182.743 62.8049 183.159 64.0509L186.666 62.8819ZM181.891 55.9169C179.313 53.1419 175.985 50.9079 171.964 49.1849L170.508 52.5829C174.146 54.1419 177.017 56.1029 179.181 58.4329L181.891 55.9169ZM171.964 49.1849C167.929 47.4549 162.01 45.9679 154.308 44.6839L153.7 48.3309C161.315 49.5999 166.885 51.0299 170.508 52.5829L171.964 49.1849ZM154.315 44.6849C146.709 43.3869 137.848 42.7439 127.745 42.7439L127.745 46.4409C137.702 46.4409 146.346 47.0749 153.693 48.3299L154.315 44.6849ZM127.745 42.7439L123.369 42.7439L123.369 46.4409L127.745 46.4409L127.745 42.7439ZM123.369 42.7439C108.003 42.7439 96.0665 43.7469 87.6452 45.8059L88.5231 49.3969C96.5134 47.4439 108.101 46.4409 123.369 46.4409L123.369 42.7439ZM87.6831 45.7969C83.5301 46.7199 80.1184 47.7029 77.4823 48.7569C74.9027 49.7889 72.8358 50.9769 71.6201 52.4359L74.4603 54.8029C75.0682 54.0729 76.4204 53.1639 78.8554 52.1899C81.234 51.2389 84.4324 50.3069 88.4852 49.4059L87.6831 45.7969ZM71.6095 52.4489C69.6067 54.8959 68.7299 58.1959 68.7299 62.0979L72.4271 62.0979C72.4271 58.7069 73.1915 56.3539 74.4709 54.7899L71.6095 52.4489ZM68.7299 62.0979C68.7299 65.8979 69.7369 69.1729 71.8936 71.7609L74.7339 69.3939C73.2436 67.6059 72.4271 65.2279 72.4271 62.0979L68.7299 62.0979ZM71.9511 71.8269C73.2061 73.1959 75.1168 74.3699 77.4927 75.4149C79.8965 76.4729 82.9186 77.4599 86.5309 78.3859L87.4492 74.8049C83.9498 73.9069 81.1367 72.9789 78.9817 72.0309C76.7989 71.0709 75.4272 70.1479 74.6764 69.3289L71.9511 71.8269ZM86.5417 78.3889C94.0396 80.2629 104.416 81.2689 117.599 81.4529L117.651 77.7559C104.575 77.5739 94.5285 76.5749 87.4384 74.8019L86.5417 78.3889ZM117.595 81.4519L151.786 81.9999L151.845 78.3029L117.655 77.7559L117.595 81.4519ZM151.78 81.9989C189.643 82.7279 216.598 87.9239 232.951 97.3439L234.796 94.1399C217.596 84.2319 189.846 79.0339 151.851 78.3029L151.78 81.9989ZM232.971 97.3559C249.31 106.491 257.463 120.804 257.463 140.6L261.16 140.6C261.16 119.55 252.355 103.958 234.776 94.1289L232.971 97.3559ZM257.463 140.6L257.463 144.43L261.16 144.43L261.16 140.6L257.463 140.6ZM257.463 144.43C257.463 151.773 256.657 158.353 255.066 164.184L258.633 165.157C260.325 158.953 261.16 152.039 261.16 144.43L257.463 144.43ZM255.07 164.17C253.517 169.692 250.295 175.485 245.302 181.548L248.156 183.898C253.375 177.562 256.9 171.32 258.629 165.171L255.07 164.17ZM245.302 181.548C240.393 187.51 233.78 192.554 225.402 196.654L227.027 199.975C235.791 195.686 242.854 190.337 248.156 183.898L245.302 181.548ZM225.388 196.661C217.219 200.745 205.83 204.17 191.14 206.891L191.814 210.526C206.665 207.776 218.434 204.271 227.041 199.968L225.388 196.661ZM191.158 206.887C176.703 209.417 159.674 210.689 140.054 210.689L140.054 214.386C159.822 214.386 177.075 213.105 191.796 210.529L191.158 206.887ZM503.418 5.75185L503.096 7.57186L503.107 7.57386L503.118 7.57586L503.418 5.75185ZM539.524 15.3259L538.815 17.0329L538.826 17.0369L539.524 15.3259ZM565.235 30.0958L566.39 28.6518L565.235 30.0958ZM582.194 47.6019L580.671 48.6489L580.682 48.6648L580.693 48.6809L582.194 47.6019ZM592.314 66.7479L590.58 67.3868L592.314 66.7479ZM597.238 85.3479L595.405 85.5929L597.238 85.3479ZM597.238 127.745L595.405 127.5L597.238 127.745ZM592.314 146.618L594.049 147.257L594.052 147.25L594.054 147.242L592.314 146.618ZM582.467 166.038L583.991 167.085L583.998 167.075L584.006 167.064L582.467 166.038ZM565.235 183.817L566.39 185.261L566.394 185.257L565.235 183.817ZM539.797 198.861L540.506 200.569L540.52 200.563L540.533 200.557L539.797 198.861ZM503.418 208.708L503.1 206.887L503.096 206.888L503.418 208.708ZM395.102 208.708L394.783 210.529L395.102 208.708ZM358.723 198.861L357.987 200.557L358.001 200.563L358.014 200.569L358.723 198.861ZM333.012 183.817L331.835 185.243L331.855 185.259L331.874 185.275L333.012 183.817ZM315.78 166.038L314.241 167.064L314.26 167.091L314.279 167.117L315.78 166.038ZM305.933 146.618L304.179 147.202L304.188 147.23L304.198 147.257L305.933 146.618ZM301.283 127.745L303.115 127.5L301.283 127.745ZM301.283 85.6219L303.114 85.8739L303.115 85.8659L301.283 85.6219ZM305.933 67.0219L304.193 66.3969L304.188 66.4099L304.184 66.4239L305.933 67.0219ZM315.78 47.6019L314.279 46.5229L314.267 46.5379L314.256 46.5539L315.78 47.6019ZM333.012 30.0959L331.857 28.6519L333.012 30.0959ZM358.45 15.3259L357.752 13.6139L357.741 13.6179L358.45 15.3259ZM395.102 5.75186L395.399 7.57686L395.41 7.57486L395.421 7.57286L395.102 5.75186ZM529.677 89.9978L531.457 89.4998L529.677 89.9978ZM522.292 75.7748L523.777 74.6739L522.292 75.7748ZM508.068 63.1928L509.012 61.6029L508.068 63.1928ZM484.272 54.7129L483.846 56.5119L483.862 56.5159L483.878 56.5189L484.272 54.7129ZM370.211 126.377L368.48 127.026L368.489 127.049L368.499 127.073L370.211 126.377ZM381.973 143.883L380.624 145.147L381.973 143.883ZM407.411 157.832L406.877 159.602L407.411 157.832ZM490.563 158.106L491.078 159.881L491.087 159.879L491.096 159.876L490.563 158.106ZM516.274 144.43L517.581 145.737L517.592 145.726L517.602 145.716L516.274 144.43ZM528.036 126.924L526.323 126.228L526.314 126.251L526.305 126.275L528.036 126.924ZM443.516 3.77085L455.278 3.77085L455.278 0.0738632L443.516 0.0738637L443.516 3.77085ZM455.278 3.77085C472.879 3.77085 488.816 5.04186 503.096 7.57186L503.741 3.93186C489.21 1.35686 473.052 0.0738624 455.278 0.0738632L455.278 3.77085ZM503.118 7.57586C517.434 9.93186 529.322 13.0919 538.815 17.0329L540.233 13.6179C530.397 9.53485 518.214 6.31285 503.719 3.92785L503.118 7.57586ZM538.826 17.0369C548.531 20.9909 556.943 25.8289 564.081 31.5389L566.39 28.6518C558.94 22.6918 550.21 17.6829 540.221 13.6139L538.826 17.0369ZM564.081 31.5389C571.275 37.2949 576.788 43.0019 580.671 48.6489L583.717 46.5539C579.576 40.5309 573.783 34.5668 566.39 28.6518L564.081 31.5389ZM580.693 48.6809C584.787 54.3769 588.083 60.6098 590.58 67.3868L594.049 66.1088C591.44 59.0278 587.989 52.4968 583.695 46.5228L580.693 48.6809ZM590.58 67.3868C593.1 74.2288 594.699 80.2929 595.405 85.5929L599.07 85.1039C598.318 79.4619 596.634 73.1258 594.049 66.1088L590.58 67.3868ZM595.405 85.5929C596.123 90.9749 596.483 96.6368 596.483 102.58L600.181 102.58C600.181 96.4878 599.811 90.6619 599.07 85.1039L595.405 85.5929ZM596.483 102.58L596.483 110.786L600.181 110.786L600.181 102.58L596.483 102.58ZM596.483 110.786C596.483 116.544 596.124 122.115 595.405 127.5L599.07 127.989C599.811 122.433 600.181 116.698 600.181 110.786L596.483 110.786ZM595.405 127.5C594.698 132.804 593.098 138.963 590.575 145.993L594.054 147.242C596.636 140.049 598.319 133.627 599.07 127.989L595.405 127.5ZM590.58 145.979C588.076 152.775 584.859 159.118 580.929 165.013L584.006 167.064C588.099 160.923 591.447 154.319 594.049 147.257L590.58 145.979ZM580.944 164.991C577.063 170.636 571.459 176.435 564.076 182.377L566.394 185.257C573.965 179.164 579.849 173.111 583.991 167.085L580.944 164.991ZM564.081 182.374C556.929 188.095 548.595 193.029 539.061 197.166L540.533 200.557C550.329 196.306 558.953 191.21 566.39 185.261L564.081 182.374ZM539.089 197.154C529.589 201.097 517.604 204.349 503.1 206.887L503.737 210.529C518.409 207.962 530.676 204.649 540.506 200.569L539.089 197.154ZM503.096 206.888C488.816 209.419 472.879 210.689 455.278 210.689L455.278 214.386C473.052 214.386 489.209 213.104 503.741 210.528L503.096 206.888ZM455.278 210.689L443.516 210.689L443.516 214.386L455.278 214.386L455.278 210.689ZM443.516 210.689C425.915 210.689 409.886 209.419 395.421 206.887L394.783 210.529C409.495 213.104 425.741 214.386 443.516 214.386L443.516 210.689ZM395.421 206.887C380.916 204.349 368.931 201.097 359.432 197.154L358.014 200.569C367.844 204.649 380.112 207.962 394.783 210.529L395.421 206.887ZM359.459 197.166C349.922 193.027 341.49 188.089 334.149 182.36L331.874 185.275C339.487 191.216 348.195 196.308 357.987 200.557L359.459 197.166ZM334.188 182.391C326.981 176.445 321.358 170.632 317.281 164.959L314.279 167.117C318.589 173.115 324.455 179.154 331.835 185.243L334.188 182.391ZM317.318 165.013C313.388 159.118 310.171 152.775 307.667 145.979L304.198 147.257C306.8 154.319 310.148 160.923 314.241 167.064L317.318 165.013ZM307.686 146.033C305.341 138.996 303.825 132.822 303.115 127.5L299.45 127.989C300.2 133.608 301.784 140.017 304.179 147.202L307.686 146.033ZM303.115 127.5C302.397 122.115 302.037 116.544 302.037 110.786L298.34 110.786C298.34 116.698 298.71 122.433 299.45 127.989L303.115 127.5ZM302.037 110.786L302.037 102.58L298.34 102.58L298.34 110.786L302.037 110.786ZM302.037 102.58C302.037 96.6369 302.397 91.0689 303.114 85.8739L299.451 85.3689C298.709 90.7509 298.34 96.4889 298.34 102.58L302.037 102.58ZM303.115 85.8659C303.824 80.5479 305.339 74.4689 307.682 67.6199L304.184 66.4239C301.786 73.4329 300.2 79.7549 299.45 85.3769L303.115 85.8659ZM307.673 67.6469C310.175 60.6739 313.387 54.3449 317.303 48.6489L314.256 46.5539C310.149 52.5289 306.796 59.1459 304.193 66.3969L307.673 67.6469ZM317.281 48.6799C321.352 43.0159 326.967 37.2989 334.167 31.5389L331.857 28.6519C324.468 34.5629 318.595 40.5169 314.279 46.5229L317.281 48.6799ZM334.167 31.5389C341.31 25.8249 349.635 20.9859 359.158 17.0329L357.741 13.6179C347.935 17.6889 339.302 22.6969 331.857 28.6519L334.167 31.5389ZM359.147 17.0369C368.826 13.0939 380.899 9.93286 395.399 7.57686L394.806 3.92686C380.129 6.31186 367.767 9.53286 357.752 13.6139L359.147 17.0369ZM395.421 7.57286C409.886 5.04186 425.915 3.77086 443.516 3.77085L443.516 0.0738637C425.741 0.0738645 409.495 1.35686 394.783 3.93086L395.421 7.57286ZM533.44 108.324L533.44 104.495L529.743 104.495L529.743 108.324L533.44 108.324ZM533.44 104.495C533.44 99.2338 532.782 94.2328 531.457 89.4998L527.897 90.4968C529.124 94.8808 529.743 99.5449 529.743 104.495L533.44 104.495ZM531.457 89.4998C530.105 84.6708 527.521 79.7279 523.777 74.6739L520.806 76.8749C524.357 81.6679 526.696 86.2078 527.897 90.4968L531.457 89.4998ZM523.777 74.6739C519.969 69.5329 515.036 65.1799 509.012 61.6029L507.125 64.7819C512.771 68.1349 517.321 72.1689 520.806 76.8749L523.777 74.6739ZM509.012 61.6029C502.943 57.9989 494.8 55.1179 484.666 52.9069L483.878 56.5189C493.802 58.6849 501.523 61.4559 507.125 64.7819L509.012 61.6029ZM484.697 52.9139C474.495 50.5029 462.676 49.3089 449.26 49.3089L449.26 53.0059C462.468 53.0059 473.99 54.1829 483.846 56.5119L484.697 52.9139ZM449.26 49.3089C421.676 49.3089 400.669 53.7659 386.507 62.9399C372.206 72.2049 365.08 86.1539 365.08 104.495L368.778 104.495C368.778 87.2769 375.373 74.5579 388.517 66.0429C401.799 57.4389 421.957 53.0059 449.26 53.0059L449.26 49.3089ZM365.08 104.495L365.08 107.777L368.778 107.777L368.778 104.495L365.08 104.495ZM365.08 107.777C365.08 114.552 366.21 120.972 368.48 127.026L371.942 125.728C369.836 120.111 368.778 114.132 368.778 107.777L365.08 107.777ZM368.499 127.073C370.974 133.166 375.039 139.189 380.624 145.147L383.321 142.618C377.966 136.906 374.189 131.258 371.924 125.681L368.499 127.073ZM380.624 145.147C386.401 151.309 395.222 156.087 406.877 159.602L407.945 156.063C396.624 152.648 388.485 148.126 383.321 142.618L380.624 145.147ZM406.877 159.602C418.589 163.134 432.729 164.878 449.26 164.878L449.26 161.181C432.968 161.181 419.209 159.46 407.945 156.063L406.877 159.602ZM449.26 164.878C465.603 164.878 479.555 163.227 491.078 159.881L490.047 156.331C478.959 159.55 465.376 161.181 449.26 161.181L449.26 164.878ZM491.096 159.876C502.742 156.364 511.631 151.687 517.581 145.737L514.967 143.123C509.611 148.478 501.36 152.919 490.029 156.336L491.096 159.876ZM517.602 145.716C523.38 139.751 527.467 133.707 529.767 127.573L526.305 126.275C524.229 131.812 520.474 137.438 514.946 143.143L517.602 145.716ZM529.748 127.62C532.213 121.554 533.44 115.117 533.44 108.324L529.743 108.324C529.743 114.661 528.6 120.623 526.323 126.228L529.748 127.62ZM799.884 208.982L799.884 210.83L801.043 210.83L801.548 209.787L799.884 208.982ZM720.562 208.982L718.922 209.835L719.44 210.83L720.562 210.83L720.562 208.982ZM614.707 5.47885L614.707 3.62986L611.662 3.62986L613.067 6.33185L614.707 5.47885ZM686.918 5.47885L688.571 4.65085L688.06 3.62985L686.918 3.62985L686.918 5.47885ZM761.864 155.097L760.211 155.925L761.917 159.331L763.537 155.883L761.864 155.097ZM832.16 5.47885L832.16 3.62985L830.986 3.62985L830.487 4.69283L832.16 5.47885ZM898.354 5.47884L900.018 6.28384L901.302 3.62984L898.354 3.62984L898.354 5.47884ZM799.884 207.133L720.562 207.133L720.562 210.83L799.884 210.83L799.884 207.133ZM722.202 208.129L616.347 4.62586L613.067 6.33185L718.922 209.835L722.202 208.129ZM614.707 7.32685L686.918 7.32684L686.918 3.62985L614.707 3.62986L614.707 7.32685ZM685.265 6.30685L760.211 155.925L763.517 154.269L688.571 4.65085L685.265 6.30685ZM763.537 155.883L833.833 6.26484L830.487 4.69283L760.191 154.311L763.537 155.883ZM832.16 7.32684L898.354 7.32683L898.354 3.62984L832.16 3.62985L832.16 7.32684ZM896.69 4.67284L798.22 208.177L801.548 209.787L900.018 6.28384L896.69 4.67284ZM1068.1 125.83L1068.1 127.678L1071.13 127.678L1069.74 124.982L1068.1 125.83ZM1028.71 49.5158L1030.35 48.6678L1028.68 45.4178L1027.05 48.6968L1028.71 49.5158ZM990.964 125.83L989.307 125.01L987.987 127.678L990.964 127.678L990.964 125.83ZM1110.77 208.982L1109.12 209.828L1109.64 210.83L1110.77 210.83L1110.77 208.982ZM1091.62 171.782L1093.26 170.936L1092.75 169.934L1091.62 169.934L1091.62 171.782ZM968.261 171.782L968.261 169.934L967.111 169.934L966.603 170.965L968.261 171.782ZM949.935 208.982L949.935 210.83L951.085 210.83L951.593 209.799L949.935 208.982ZM885.109 208.982L883.459 208.148L882.104 210.83L885.109 210.83L885.109 208.982ZM987.955 5.47884L987.955 3.62984L986.818 3.62984L986.305 4.64484L987.955 5.47884ZM1070.56 5.47884L1072.19 4.60683L1071.67 3.62984L1070.56 3.62984L1070.56 5.47884ZM1179.42 208.982L1179.42 210.83L1182.51 210.83L1181.05 208.11L1179.42 208.982ZM1069.74 124.982L1030.35 48.6678L1027.07 50.3638L1066.46 126.678L1069.74 124.982ZM1027.05 48.6968L989.307 125.01L992.621 126.649L1030.37 50.3358L1027.05 48.6968ZM990.964 127.678L1068.1 127.678L1068.1 123.981L990.964 123.981L990.964 127.678ZM1112.41 208.136L1093.26 170.936L1089.98 172.628L1109.12 209.828L1112.41 208.136ZM1091.62 169.934L968.261 169.934L968.261 173.631L1091.62 173.631L1091.62 169.934ZM966.603 170.965L948.276 208.165L951.593 209.799L969.919 172.599L966.603 170.965ZM949.935 207.133L885.109 207.133L885.109 210.83L949.935 210.83L949.935 207.133ZM886.759 209.816L989.605 6.31183L986.305 4.64484L883.459 208.148L886.759 209.816ZM987.955 7.32683L1070.56 7.32683L1070.56 3.62984L987.955 3.62984L987.955 7.32683ZM1068.93 6.35083L1177.79 209.854L1181.05 208.11L1072.19 4.60683L1068.93 6.35083ZM1179.42 207.133L1110.77 207.133L1110.77 210.83L1179.42 210.83L1179.42 207.133Z" fill="white"/>
</g>
<defs>
<clipPath id="clip0">
<rect width="215" height="1183" fill="white" transform="translate(0 215) rotate(-90)"/>
</clipPath>
</defs>
</svg>
