<?xml version="1.0" encoding="UTF-8" standalone="no"?>
<!DOCTYPE svg PUBLIC "-//W3C//DTD SVG 1.1//EN" "http://www.w3.org/Graphics/SVG/1.1/DTD/svg11.dtd">
<svg width="100%" height="100%" viewBox="0 0 128 128" version="1.1" xmlns="http://www.w3.org/2000/svg" xmlns:xlink="http://www.w3.org/1999/xlink" xml:space="preserve" xmlns:serif="http://www.serif.com/" style="fill-rule:evenodd;clip-rule:evenodd;stroke-linejoin:round;stroke-miterlimit:2;">
    <g id="svg">
        <path d="M21.078,33L26.303,33L26.303,94L19.216,94L14.452,89.133L13.152,94L0,94L0,85.964L5.989,82.075L0,80.369L0,47.164L17.115,55.14L0,35.552L0,33L13.152,33L21.078,35.552L21.078,33Z" style="fill:rgb(255,70,86);"/>
        <path d="M50.89,33L60.062,33L60.062,94L56.319,94L41.243,88.412L44.556,94L33.758,94L33.758,33L44.556,33L48.157,35.552L50.89,33Z" style="fill:rgb(255,70,86);"/>
        <path d="M86.062,33L93.82,33L93.82,94L80.879,94L79.412,89.133L73.795,94L67.516,94L67.516,33L77.684,33L81.861,48.659L86.062,33Z" style="fill:rgb(255,70,86);"/>
        <path d="M128,41.601L121.326,45.202L128,58.245L128,67.587L111.388,58.165L128,76.89L128,90.599L125.071,91.725L123.775,94L117.863,94L114.848,90.933L105.627,94L101.697,94L101.697,33L108.795,33L114.848,36.56L121.677,33L128,33L128,41.601Z" style="fill:rgb(255,70,86);"/>
    </g>
</svg>
