<svg width="60" height="53" viewBox="0 0 60 53" fill="none" xmlns="http://www.w3.org/2000/svg">
<path fill-rule="evenodd" clip-rule="evenodd" d="M55 46.375V53H5V46.375H55ZM27.1687 6.79394L23.9703 12.6021C16.8072 15.0802 11.6667 21.8497 11.6667 29.8125C11.6667 35.0337 13.8768 39.7419 17.418 43.0637L10.8503 43.0645C8.21333 39.3083 6.66667 34.7398 6.66667 29.8125C6.66667 17.9587 15.6173 8.18254 27.1687 6.79394ZM32.833 6.7941C44.3835 8.18353 53.3333 17.9594 53.3333 29.8125C53.3333 34.7398 51.7867 39.3083 49.1497 43.0645L42.5815 43.064C46.123 39.7422 48.3333 35.0338 48.3333 29.8125C48.3333 21.8509 43.1943 15.0821 36.033 12.6032L32.833 6.7941ZM30 0C46.5685 0 60 13.3476 60 29.8125C60 34.5724 58.8775 39.0716 56.8812 43.0633L53.0985 43.0637C55.3678 39.1655 56.6667 34.6398 56.6667 29.8125C56.6667 15.1769 44.7277 3.3125 30 3.3125C15.2723 3.3125 3.33333 15.1769 3.33333 29.8125C3.33333 34.6398 4.63217 39.1655 6.9015 43.0637L3.1188 43.0633C1.1225 39.0716 0 34.5724 0 29.8125C0 13.3476 13.4315 0 30 0ZM30 6.625L40 26.5C36.6667 25.3958 34.4445 25.3958 33.3333 26.5C32.2222 27.6042 31.1112 32.0208 30 39.75C28.8888 32.0208 27.7778 27.6042 26.6667 26.5C25.5555 25.3958 23.3333 25.3958 20 26.5L30 6.625Z" fill="rgb(255,70,86)"/>
</svg>
