<?xml version="1.0" encoding="UTF-8" standalone="no"?>
<!DOCTYPE svg PUBLIC "-//W3C//DTD SVG 1.1//EN" "http://www.w3.org/Graphics/SVG/1.1/DTD/svg11.dtd">
<svg width="100%" height="100%" viewBox="0 0 128 128" version="1.1" xmlns="http://www.w3.org/2000/svg" xmlns:xlink="http://www.w3.org/1999/xlink" xml:space="preserve" xmlns:serif="http://www.serif.com/" style="fill-rule:evenodd;clip-rule:evenodd;stroke-linejoin:round;stroke-miterlimit:2;">
    <g id="SVG">
        <path d="M23.725,93.99C23.725,93.99 12.37,85.9 12.37,76.49L12.37,67.848L26.005,78.219C26.005,78.219 25.429,70.003 19.86,65.736C14.29,61.468 8.721,53.829 8.337,48.259C8.337,47.491 7.15,41.856 7.15,41.856L26.005,55.7C26.005,55.7 26.567,50.436 21.061,44.419C15.556,38.401 9.625,36.29 5.826,29.951C2.026,23.613 2.026,15.612 2.026,15.612L37.577,41.856C37.577,41.856 24.557,59.066 37.577,81.428C44.892,93.99 64,93.99 64,93.99L64.055,93.99C65.181,93.978 83.336,93.598 90.423,81.428C103.443,59.066 90.423,41.856 90.423,41.856L125.974,15.612C125.974,15.612 125.974,23.613 122.174,29.951C118.375,36.29 112.444,38.401 106.939,44.419C101.433,50.436 101.995,55.7 101.995,55.7L120.85,41.856C120.85,41.856 119.663,47.491 119.663,48.259C119.279,53.829 113.71,61.468 108.14,65.736C102.571,70.003 101.995,78.219 101.995,78.219L115.63,67.848L115.63,76.49C115.63,85.9 104.275,93.99 104.275,93.99L64,124.298L23.725,93.99ZM64,36.536C77.76,36.536 88.932,47.708 88.932,61.468C88.932,75.228 77.76,86.4 64,86.4C50.24,86.4 39.068,75.228 39.068,61.468C39.068,47.708 50.24,36.536 64,36.536ZM76.7,19.649C80.313,19.649 83.245,22.582 83.245,26.194C83.245,29.806 80.313,32.739 76.7,32.739C73.088,32.739 70.155,29.806 70.155,26.194C70.155,22.582 73.088,19.649 76.7,19.649ZM51.166,23.613C52.59,23.613 53.747,24.769 53.747,26.194C53.747,27.619 52.59,28.775 51.166,28.775C49.741,28.775 48.585,27.619 48.585,26.194C48.585,24.769 49.741,23.613 51.166,23.613ZM64,2.836C66.36,2.836 68.276,4.752 68.276,7.112C68.276,9.472 66.36,11.388 64,11.388C61.64,11.388 59.724,9.472 59.724,7.112C59.724,4.752 61.64,2.836 64,2.836Z" style="fill:rgb(255,70,86);"/>
    </g>
</svg>
