<?xml version="1.0" encoding="UTF-8" standalone="no"?>
<!DOCTYPE svg PUBLIC "-//W3C//DTD SVG 1.1//EN" "http://www.w3.org/Graphics/SVG/1.1/DTD/svg11.dtd">
<svg width="100%" height="100%" viewBox="0 0 128 128" version="1.1" xmlns="http://www.w3.org/2000/svg" xmlns:xlink="http://www.w3.org/1999/xlink" xml:space="preserve" xmlns:serif="http://www.serif.com/" style="fill-rule:evenodd;clip-rule:evenodd;stroke-linejoin:round;stroke-miterlimit:2;">
    <g id="SVG" transform="matrix(1,0,0,1,0,1)">
        <g>
            <path d="M59.004,20.538C60.642,20.351 62.31,20.255 64,20.255C75.514,20.255 85.995,24.713 93.81,31.996L92.391,51.688L97.36,35.715C103.837,43.345 107.745,53.22 107.745,64C107.745,72.168 105.502,79.816 101.598,86.361L101.573,86.257L92.571,76.534C92.571,76.534 89.69,62.671 87.529,58.53C85.369,54.389 74.026,36.384 74.026,36.384L83.929,62.851L84.829,76.174L62.143,86.437L86.989,87.157L92.751,96.699L93.447,96.339C90.816,98.736 87.893,100.817 84.737,102.52L84.469,102.28L77.447,95.979L80.688,103.901L80.499,104.522C75.406,106.6 69.835,107.745 64,107.745C55.023,107.745 46.675,105.035 39.728,100.39L39.998,100.12L46.479,84.816L36.397,97.059L35.847,97.472C32.451,94.612 29.497,91.246 27.099,87.491L45.996,70.12L50.215,41.988L39.244,66.744L21.117,72.677C20.551,69.871 20.255,66.97 20.255,64C20.255,57.3 21.764,50.95 24.462,45.27L32.796,51.868L26.202,41.977C30.749,34.196 37.63,27.941 45.88,24.178L56.562,31.883L62.143,57.269L63.944,33.144L59.004,20.538Z" style="fill:rgb(255,70,86);"/>
            <path d="M63.987,0.21C98.679,0.21 126.844,28.376 126.844,63.067C126.844,97.759 98.679,125.924 63.987,125.924C29.295,125.924 1.13,97.759 1.13,63.067C1.13,28.376 29.295,0.21 63.987,0.21ZM63.987,8.985C93.836,8.985 118.069,33.219 118.069,63.067C118.069,92.916 93.836,117.149 63.987,117.149C34.138,117.149 9.905,92.916 9.905,63.067C9.905,33.219 34.138,8.985 63.987,8.985Z" style="fill:rgb(255,70,86);"/>
        </g>
    </g>
</svg>
