<svg width="1860" height="1093" viewBox="0 0 1860 1093" fill="none" xmlns="http://www.w3.org/2000/svg">
<g opacity="0.5">
<rect x="1383" y="994" width="80" height="80" fill="#1F2326"/>
<rect x="1383" y="1085" width="80" height="8" fill="#1F2326"/>
<path d="M1399 1033.83V1014L1430.95 1054H1414.97L1399 1033.83Z" fill="#FF4656"/>
<path d="M1441.65 1040.61H1426.01L1447 1014V1033.83L1441.65 1040.61Z" fill="#FF4656"/>
</g>
<rect opacity="0.5" x="1455" y="870" width="8" height="8" fill="#1F2326"/>
<rect opacity="0.5" x="1383" y="746" width="80" height="8" fill="#1F2326"/>
<rect opacity="0.5" x="1455" y="223" width="8" height="8" fill="#1F2326"/>
<rect opacity="0.5" x="1628" y="456" width="8" height="8" fill="#1F2326"/>
<rect opacity="0.5" x="1439" y="99" width="24" height="8" fill="#1F2326"/>
<rect opacity="0.5" x="975" width="40" height="40" fill="#1F2326"/>
<rect opacity="0.5" x="287" width="8" height="8" fill="#1F2326"/>
<rect opacity="0.5" x="319" width="8" height="8" fill="#1F2326"/>
<rect opacity="0.5" x="1628" y="300" width="40" height="40" fill="#1F2326"/>
<rect opacity="0.5" y="1085" width="232" height="8" fill="#1F2326"/>
<rect opacity="0.5" x="1628" y="176" width="232" height="8" fill="#1F2326"/>
<rect opacity="0.5" y="961" width="40" height="40" fill="#1F2326"/>
<rect opacity="0.5" y="347" width="8" height="8" fill="#1F2326"/>
<rect opacity="0.5" x="16" y="223" width="100" height="8" fill="#1F2326"/>
<rect opacity="0.5" y="99" width="40" height="8" fill="#1F2326"/>
</svg>
