<svg width="141" height="158" viewBox="0 0 141 158" fill="none" xmlns="http://www.w3.org/2000/svg">
<path d="M131.392 81.5364C128.413 78.1292 126.532 73.901 125.995 69.4059C125.133 67.9107 124.595 66.2509 124.417 64.534C124.476 59.1376 130.546 56.8582 130.867 54.5335C130.527 52.6426 129.891 50.8176 128.981 49.1258C124.91 39.9688 126.218 39.1027 123.574 31.8894C121.368 25.7311 117.934 20.0856 113.48 15.2963C106.324 7.6798 95.4896 4.57661 85.8304 2.50572C39.5949 -7.32517 -0.640433 11.8297 0.00772426 58.9457C0.289586 78.7714 12.9768 85.305 19.0924 99.3763C22.9004 108.119 24.3172 117.718 23.1973 127.188C20.2202 152.137 14.1501 153.441 16.2474 156.809C16.7104 157.567 17.5419 158.021 18.4295 157.999H75.635C76.7879 157.989 77.807 157.248 78.1727 156.154C80.0117 150.212 83.1247 144.745 87.2886 140.129L91.9899 135.47C100.138 138.331 111.41 142.161 118.688 143.683C121.326 144.186 123.887 142.503 124.473 139.88C126.692 133.443 123.165 132.546 124.552 127.064C125.398 123.752 127.724 122.463 130.346 120.92C130.04 120.292 129.674 119.696 129.252 119.14C128.788 118.542 128.584 117.781 128.686 117.03C128.789 116.279 129.189 115.601 129.796 115.149C130.479 114.641 132.111 113.408 133.247 112.497C131.448 109.137 129.824 106.926 130.625 102.674C131.499 98.0334 137.109 96.5721 139.108 95.0715C139.805 94.6005 140.441 94.0443 141 93.4155C140.941 91.8921 134.727 85.164 131.392 81.5364Z" fill="#1F2326"/>
</svg>
