<svg width="232" height="1176" viewBox="0 0 232 1176" fill="none" xmlns="http://www.w3.org/2000/svg">
<path d="M229.2 254.4L229.2 256.4L231.2 256.4L231.2 254.4L229.2 254.4ZM229.2 184.2L231.2 184.2L231.2 182.2L229.2 182.2L229.2 184.2ZM101.1 72.9L101.281 74.8918L103.1 74.7264L103.1 72.9L101.1 72.9ZM101.1 2.09999L103.1 2.09999L103.1 0.0999908L101.1 0.0999907L101.1 2.09999ZM0.700006 137.4C0.700004 185.428 16.5577 215.302 38.5667 233.117C60.4965 250.868 88.2315 256.4 111.6 256.4L111.6 252.4C88.7685 252.4 62.0535 246.982 41.0833 230.008C20.1923 213.098 4.7 184.472 4.70001 137.4L0.700006 137.4ZM111.6 256.4L229.2 256.4L229.2 252.4L111.6 252.4L111.6 256.4ZM231.2 254.4L231.2 184.2L227.2 184.2L227.2 254.4L231.2 254.4ZM229.2 182.2L113.4 182.2L113.4 186.2L229.2 186.2L229.2 182.2ZM113.4 182.2C96.753 182.2 83.5119 178.074 74.4429 169.717C65.4027 161.386 60.2 148.563 60.2 130.5L56.2 130.5C56.2 149.337 61.6473 163.364 71.7321 172.658C81.7881 181.925 96.147 186.2 113.4 186.2L113.4 182.2ZM60.2 130.5L60.2 126.9L56.2 126.9L56.2 130.5L60.2 130.5ZM60.2 126.9C60.2 103.261 68.2429 90.616 77.1623 83.7061C86.1867 76.7148 96.4369 75.3322 101.281 74.8918L100.919 70.9082C95.863 71.3678 84.6633 72.8352 74.7126 80.5439C64.6571 88.334 56.2 102.239 56.2 126.9L60.2 126.9ZM103.1 72.9L103.1 2.09999L99.1 2.09999L99.1 72.9L103.1 72.9ZM101.1 0.0999907L99.3 0.0999906L99.3 4.09999L101.1 4.09999L101.1 0.0999907ZM99.3 0.0999906C77.7752 0.0999897 53.0812 6.58722 33.7567 25.0281C14.403 43.4969 0.700009 73.7017 0.700007 120.6L4.70001 120.6C4.70001 74.4983 18.1471 45.4531 36.5182 27.9219C54.9188 10.3628 78.5248 4.09999 99.3 4.09999L99.3 0.0999906ZM0.700007 120.6L0.700006 137.4L4.70001 137.4L4.70001 120.6L0.700007 120.6ZM229.2 316.045L231.2 316.045L231.2 314.045L229.2 314.045L229.2 316.045ZM5.99999 316.045L5.99999 314.045L3.99999 314.045L3.99999 316.045L5.99999 316.045ZM5.99998 554.245L3.99998 554.245L3.99998 556.245L5.99998 556.245L5.99998 554.245ZM57.9 554.245L57.9 556.245L59.9 556.245L59.9 554.245L57.9 554.245ZM57.9 385.045L57.9 383.045L55.9 383.045L55.9 385.045L57.9 385.045ZM94.5 385.045L96.5 385.045L96.5 383.045L94.5 383.045L94.5 385.045ZM94.5 547.345L92.5 547.345L92.5 549.345L94.5 549.345L94.5 547.345ZM145.5 547.345L145.5 549.345L147.5 549.345L147.5 547.345L145.5 547.345ZM145.5 385.045L145.5 383.045L143.5 383.045L143.5 385.045L145.5 385.045ZM178.5 385.045L180.5 385.045L180.5 383.045L178.5 383.045L178.5 385.045ZM178.5 551.245L176.5 551.245L176.5 553.245L178.5 553.245L178.5 551.245ZM229.2 551.245L229.2 553.245L231.2 553.245L231.2 551.245L229.2 551.245ZM229.2 314.045L5.99999 314.045L5.99999 318.045L229.2 318.045L229.2 314.045ZM3.99999 316.045L3.99998 554.245L7.99998 554.245L7.99999 316.045L3.99999 316.045ZM5.99998 556.245L57.9 556.245L57.9 552.245L5.99998 552.245L5.99998 556.245ZM59.9 554.245L59.9 385.045L55.9 385.045L55.9 554.245L59.9 554.245ZM57.9 387.045L94.5 387.045L94.5 383.045L57.9 383.045L57.9 387.045ZM92.5 385.045L92.5 547.345L96.5 547.345L96.5 385.045L92.5 385.045ZM94.5 549.345L145.5 549.345L145.5 545.345L94.5 545.345L94.5 549.345ZM147.5 547.345L147.5 385.045L143.5 385.045L143.5 547.345L147.5 547.345ZM145.5 387.045L178.5 387.045L178.5 383.045L145.5 383.045L145.5 387.045ZM176.5 385.045L176.5 551.245L180.5 551.245L180.5 385.045L176.5 385.045ZM178.5 553.245L229.2 553.245L229.2 549.245L178.5 549.245L178.5 553.245ZM231.2 551.245L231.2 316.045L227.2 316.045L227.2 551.245L231.2 551.245ZM5.99997 697.603L5.99997 695.603L3.99997 695.603L3.99997 697.603L5.99997 697.603ZM5.99997 768.103L3.99997 768.103L3.99997 770.103L5.99997 770.103L5.99997 768.103ZM176.4 768.103L178.4 768.103L178.4 766.103L176.4 766.103L176.4 768.103ZM176.4 864.403L174.4 864.403L174.4 866.403L176.4 866.403L176.4 864.403ZM229.2 864.403L229.2 866.403L231.2 866.403L231.2 864.403L229.2 864.403ZM229.2 601.603L231.2 601.603L231.2 599.603L229.2 599.603L229.2 601.603ZM176.4 601.603L176.4 599.603L174.4 599.603L174.4 601.603L176.4 601.603ZM176.4 697.603L176.4 699.603L178.4 699.603L178.4 697.603L176.4 697.603ZM3.99997 697.603L3.99997 768.103L7.99997 768.103L7.99997 697.603L3.99997 697.603ZM5.99997 770.103L176.4 770.103L176.4 766.103L5.99997 766.103L5.99997 770.103ZM174.4 768.103L174.4 864.403L178.4 864.403L178.4 768.103L174.4 768.103ZM176.4 866.403L229.2 866.403L229.2 862.403L176.4 862.403L176.4 866.403ZM231.2 864.403L231.2 601.603L227.2 601.603L227.2 864.403L231.2 864.403ZM229.2 599.603L176.4 599.603L176.4 603.603L229.2 603.603L229.2 599.603ZM174.4 601.603L174.4 697.603L178.4 697.603L178.4 601.603L174.4 601.603ZM176.4 695.603L5.99997 695.603L5.99997 699.603L176.4 699.603L176.4 695.603ZM5.99996 1007.1L5.99996 1005.1L3.99996 1005.1L3.99996 1007.1L5.99996 1007.1ZM5.99995 1077.6L3.99995 1077.6L3.99995 1079.6L5.99995 1079.6L5.99995 1077.6ZM176.4 1077.6L178.4 1077.6L178.4 1075.6L176.4 1075.6L176.4 1077.6ZM176.4 1173.9L174.4 1173.9L174.4 1175.9L176.4 1175.9L176.4 1173.9ZM229.2 1173.9L229.2 1175.9L231.2 1175.9L231.2 1173.9L229.2 1173.9ZM229.2 911.095L231.2 911.095L231.2 909.095L229.2 909.095L229.2 911.095ZM176.4 911.095L176.4 909.095L174.4 909.095L174.4 911.095L176.4 911.095ZM176.4 1007.1L176.4 1009.1L178.4 1009.1L178.4 1007.1L176.4 1007.1ZM3.99996 1007.1L3.99995 1077.6L7.99995 1077.6L7.99996 1007.1L3.99996 1007.1ZM5.99995 1079.6L176.4 1079.6L176.4 1075.6L5.99995 1075.6L5.99995 1079.6ZM174.4 1077.6L174.4 1173.9L178.4 1173.9L178.4 1077.6L174.4 1077.6ZM176.4 1175.9L229.2 1175.9L229.2 1171.9L176.4 1171.9L176.4 1175.9ZM231.2 1173.9L231.2 911.095L227.2 911.095L227.2 1173.9L231.2 1173.9ZM229.2 909.095L176.4 909.095L176.4 913.095L229.2 913.095L229.2 909.095ZM174.4 911.095L174.4 1007.1L178.4 1007.1L178.4 911.095L174.4 911.095ZM176.4 1005.1L5.99996 1005.1L5.99996 1009.1L176.4 1009.1L176.4 1005.1Z" fill="white"/>
</svg>
