<svg width="75" height="662" viewBox="0 0 75 662" fill="none" xmlns="http://www.w3.org/2000/svg">
<path d="M46.39 51.5308L48.3897 51.5665L48.3897 51.5628L46.39 51.5308ZM46.57 40.2808L44.5704 40.2413L44.5703 40.2488L46.57 40.2808ZM50.08 62.9608L49.7284 60.992L48.08 61.2863L48.08 62.9608L50.08 62.9608ZM50.08 84.7408L48.08 84.7408L48.08 86.7408L50.08 86.7408L50.08 84.7408ZM31.27 35.8708L29.2708 35.8133L29.2705 35.824L31.27 35.8708ZM31 47.3908L32.9992 47.4489L32.9994 47.4377L31 47.3908ZM27.76 24.1708L27.893 26.1664L29.76 26.0419L29.76 24.1708L27.76 24.1708ZM27.76 2.30082L29.76 2.30082L29.76 0.300824L27.76 0.300824L27.76 2.30082ZM0.829993 47.6608C0.829992 64.6319 3.6725 74.9796 8.28605 81.1064C13.0171 87.3893 19.3403 88.9008 25.24 88.9008L25.24 84.9008C20.0697 84.9008 15.1878 83.6224 11.4814 78.7002C7.65748 73.622 4.82999 64.3498 4.82999 47.6608L0.829993 47.6608ZM25.24 88.9008L26.5 88.9008L26.5 84.9008L25.24 84.9008L25.24 88.9008ZM26.5 88.9008C30.0852 88.9008 33.3137 88.2153 36.1264 86.6712C38.9485 85.1219 41.2265 82.7767 43.0079 79.6577C46.5202 73.5082 48.1634 64.2384 48.3897 51.5665L44.3903 51.4951C44.1666 64.0232 42.5248 72.4384 39.5345 77.6739C38.0647 80.2474 36.2871 82.0198 34.2014 83.1648C32.1063 84.315 29.5747 84.9008 26.5 84.9008L26.5 88.9008ZM48.3897 51.5628L48.5697 40.3128L44.5703 40.2488L44.3902 51.4988L48.3897 51.5628ZM48.5696 40.3203C48.704 33.5106 49.4286 30.0223 50.2712 28.2827C50.666 27.4675 51.0298 27.1584 51.2628 27.0222C51.5031 26.8816 51.8157 26.8008 52.33 26.8008L52.33 22.8008C51.4043 22.8008 50.3106 22.9451 49.2431 23.5695C48.1683 24.1982 47.3227 25.1941 46.6713 26.539C45.4214 29.1194 44.706 33.371 44.5704 40.2413L48.5696 40.3203ZM52.33 26.8008C52.9349 26.8008 53.2582 26.8694 53.4981 26.9984C53.7052 27.1097 54.0722 27.3865 54.4772 28.2556C55.3534 30.1359 56.09 34.0792 56.09 42.1708L60.09 42.1708C60.09 34.0625 59.3866 29.3208 58.1028 26.566C57.4278 25.1176 56.5348 24.0894 55.3919 23.4751C54.2818 22.8784 53.1651 22.8008 52.33 22.8008L52.33 26.8008ZM56.09 42.1708L56.09 43.6108L60.09 43.6108L60.09 42.1708L56.09 42.1708ZM56.09 43.6108C56.09 52.247 54.7262 56.5029 53.3548 58.6058C52.691 59.6235 52.0184 60.1492 51.4526 60.4513C50.8678 60.7635 50.3041 60.8892 49.7284 60.992L50.4316 64.9297C51.1159 64.8075 52.1834 64.5956 53.3367 63.9797C54.5091 63.3537 55.6814 62.3607 56.7052 60.7909C58.7088 57.7187 60.09 52.5247 60.09 43.6108L56.09 43.6108ZM48.08 62.9608L48.08 84.7408L52.08 84.7408L52.08 62.9608L48.08 62.9608ZM50.08 86.7408L50.98 86.7408L50.98 82.7408L50.08 82.7408L50.08 86.7408ZM50.98 86.7408C56.5623 86.7408 62.5131 84.7068 66.9741 78.3269C71.3437 72.0776 74.13 61.8723 74.13 45.8608L70.13 45.8608C70.13 61.5294 67.3813 70.764 63.6959 76.0348C60.1019 81.1749 55.4777 82.7408 50.98 82.7408L50.98 86.7408ZM74.13 45.8608L74.13 39.6508L70.13 39.6508L70.13 45.8608L74.13 45.8608ZM74.13 39.6508C74.13 24.241 71.5073 14.6149 67.278 8.8072C62.9411 2.85184 57.1393 1.20082 51.7 1.20082L51.7 5.20082C56.2507 5.20082 60.6639 6.5198 64.0445 11.1619C67.5327 15.9518 70.13 24.5507 70.13 39.6508L74.13 39.6508ZM51.7 1.20082L50.89 1.20082L50.89 5.20082L51.7 5.20082L51.7 1.20082ZM50.89 1.20082C45.1007 1.20082 39.7238 3.3672 35.7938 9.01033C31.9586 14.5173 29.6354 23.1451 29.2708 35.8133L33.2692 35.9283C33.6246 23.5765 35.8914 15.8694 39.0762 11.2963C42.1662 6.85943 46.2393 5.20082 50.89 5.20082L50.89 1.20082ZM29.2705 35.824L29.0005 47.344L32.9994 47.4377L33.2694 35.9177L29.2705 35.824ZM29.0008 47.3327C28.7756 55.0824 28.049 59.0864 27.096 61.1232C26.6526 62.0709 26.2248 62.447 25.8974 62.6302C25.543 62.8285 25.0572 62.9408 24.25 62.9408L24.25 66.9408C25.3778 66.9408 26.647 66.7944 27.8507 66.1208C29.0815 65.4321 30.0149 64.3233 30.719 62.8184C32.061 59.9503 32.7744 55.1792 32.9991 47.4489L29.0008 47.3327ZM24.25 62.9408C23.5246 62.9408 23.0103 62.8387 22.5871 62.605C22.1832 62.382 21.6636 61.9288 21.1398 60.8634C20.0311 58.6083 19.14 54.1096 19.14 45.3208L15.14 45.3208C15.14 54.172 16.0039 59.4833 17.5502 62.6283C18.3538 64.2628 19.3867 65.4071 20.6535 66.1066C21.9009 66.7954 23.1754 66.9408 24.25 66.9408L24.25 62.9408ZM19.14 45.3208L19.14 44.0608L15.14 44.0608L15.14 45.3208L19.14 45.3208ZM19.14 44.0608C19.14 35.6171 20.7552 31.2342 22.5134 28.9605C24.195 26.7859 26.216 26.2782 27.893 26.1664L27.627 22.1752C25.254 22.3334 21.965 23.1307 19.3491 26.5136C16.8098 29.7975 15.14 35.2245 15.14 44.0608L19.14 44.0608ZM29.76 24.1708L29.76 2.30082L25.76 2.30082L25.76 24.1708L29.76 24.1708ZM27.76 0.300824L26.77 0.300824L26.77 4.30082L27.76 4.30082L27.76 0.300824ZM26.77 0.300824C22.0553 0.300824 15.4159 1.39193 10.009 7.37197C4.65244 13.2963 0.829994 23.6673 0.829993 41.4508L4.82999 41.4508C4.82999 24.1343 8.56754 14.9304 12.976 10.0547C17.3341 5.23469 22.6647 4.30082 26.77 4.30082L26.77 0.300824ZM0.829993 41.4508L0.829993 47.6608L4.82999 47.6608L4.82999 41.4508L0.829993 41.4508ZM70.96 103.051L72.96 103.051L72.96 101.051L70.96 101.051L70.96 103.051ZM3.99999 103.051L3.99999 101.051L1.99999 101.051L1.99999 103.051L3.99999 103.051ZM3.99999 124.021L1.99999 124.021L1.99999 126.021L3.99999 126.021L3.99999 124.021ZM26.32 124.021L28.32 124.021L28.32 122.021L26.32 122.021L26.32 124.021ZM55.75 124.021L57.75 124.021L57.75 122.021L55.75 122.021L55.75 124.021ZM41.35 124.021L41.35 122.021L39.35 122.021L39.35 124.021L41.35 124.021ZM24.32 153.271C24.32 165.471 26.8581 173.819 31.2719 179.14C35.7438 184.532 41.873 186.501 48.28 186.501L48.28 182.501C42.717 182.501 37.8662 180.825 34.3506 176.587C30.7769 172.278 28.32 165.011 28.32 153.271L24.32 153.271ZM48.28 186.501L49.18 186.501L49.18 182.501L48.28 182.501L48.28 186.501ZM49.18 186.501C55.7011 186.501 61.8037 184.589 66.2089 179.196C70.5442 173.889 72.96 165.537 72.96 153.271L68.96 153.271C68.96 165.125 66.6058 172.388 63.1111 176.666C59.6862 180.858 54.8989 182.501 49.18 182.501L49.18 186.501ZM72.96 153.271L72.96 103.051L68.96 103.051L68.96 153.271L72.96 153.271ZM70.96 101.051L3.99999 101.051L3.99999 105.051L70.96 105.051L70.96 101.051ZM1.99999 103.051L1.99999 124.021L5.99999 124.021L5.99999 103.051L1.99999 103.051ZM3.99999 126.021L26.32 126.021L26.32 122.021L3.99999 122.021L3.99999 126.021ZM24.32 124.021L24.32 153.271L28.32 153.271L28.32 124.021L24.32 124.021ZM53.75 124.021L53.75 152.911L57.75 152.911L57.75 124.021L53.75 124.021ZM53.75 152.911C53.75 156.097 53.1447 158.01 52.323 159.093C51.5831 160.068 50.4663 160.631 48.64 160.631L48.64 164.631C51.4037 164.631 53.8418 163.709 55.5094 161.511C57.0953 159.421 57.75 156.475 57.75 152.911L53.75 152.911ZM48.64 160.631L48.37 160.631L48.37 164.631L48.64 164.631L48.64 160.631ZM48.37 160.631C46.5838 160.631 45.4855 160.051 44.7508 159.051C43.9328 157.937 43.35 156.007 43.35 152.911L39.35 152.911C39.35 156.385 39.9822 159.315 41.5266 161.418C43.1545 163.635 45.5662 164.631 48.37 164.631L48.37 160.631ZM43.35 152.911L43.35 124.021L39.35 124.021L39.35 152.911L43.35 152.911ZM41.35 126.021L55.75 126.021L55.75 122.021L41.35 122.021L41.35 126.021ZM70.96 200.469L72.96 200.469L72.96 198.469L70.96 198.469L70.96 200.469ZM3.99998 200.469L3.99998 198.469L1.99998 198.469L1.99998 200.469L3.99998 200.469ZM3.99998 271.929L1.99998 271.929L1.99998 273.929L3.99998 273.929L3.99998 271.929ZM19.57 271.929L19.57 273.929L21.57 273.929L21.57 271.929L19.57 271.929ZM19.57 221.169L19.57 219.169L17.57 219.169L17.57 221.169L19.57 221.169ZM30.55 221.169L32.55 221.169L32.55 219.169L30.55 219.169L30.55 221.169ZM30.55 269.859L28.55 269.859L28.55 271.859L30.55 271.859L30.55 269.859ZM45.85 269.859L45.85 271.859L47.85 271.859L47.85 269.859L45.85 269.859ZM45.85 221.169L45.85 219.169L43.85 219.169L43.85 221.169L45.85 221.169ZM55.75 221.169L57.75 221.169L57.75 219.169L55.75 219.169L55.75 221.169ZM55.75 271.029L53.75 271.029L53.75 273.029L55.75 273.029L55.75 271.029ZM70.96 271.029L70.96 273.029L72.96 273.029L72.96 271.029L70.96 271.029ZM70.96 198.469L3.99998 198.469L3.99998 202.469L70.96 202.469L70.96 198.469ZM1.99998 200.469L1.99998 271.929L5.99998 271.929L5.99998 200.469L1.99998 200.469ZM3.99998 273.929L19.57 273.929L19.57 269.929L3.99998 269.929L3.99998 273.929ZM21.57 271.929L21.57 221.169L17.57 221.169L17.57 271.929L21.57 271.929ZM19.57 223.169L30.55 223.169L30.55 219.169L19.57 219.169L19.57 223.169ZM28.55 221.169L28.55 269.859L32.55 269.859L32.55 221.169L28.55 221.169ZM30.55 271.859L45.85 271.859L45.85 267.859L30.55 267.859L30.55 271.859ZM47.85 269.859L47.85 221.169L43.85 221.169L43.85 269.859L47.85 269.859ZM45.85 223.169L55.75 223.169L55.75 219.169L45.85 219.169L45.85 223.169ZM53.75 221.169L53.75 271.029L57.75 271.029L57.75 221.169L53.75 221.169ZM55.75 273.029L70.96 273.029L70.96 269.029L55.75 269.029L55.75 273.029ZM72.96 271.029L72.96 200.469L68.96 200.469L68.96 271.029L72.96 271.029ZM31 380.169L31 382.169L33 382.169L33 380.169L31 380.169ZM31 357.939L33 357.939L33 356.524L31.6656 356.053L31 357.939ZM44.77 357.849L44.1953 355.934L42.77 356.361L42.77 357.849L44.77 357.849ZM44.77 380.079L42.77 380.079L42.77 382.079L44.77 382.079L44.77 380.079ZM0.82998 335.259C0.82998 354.693 5.58677 366.459 11.7535 373.388C17.9239 380.32 25.2947 382.169 30.01 382.169L30.01 378.169C26.2652 378.169 20.046 376.688 14.7414 370.728C9.43318 364.764 4.82998 354.076 4.82998 335.259L0.82998 335.259ZM30.01 382.169L31 382.169L31 378.169L30.01 378.169L30.01 382.169ZM33 380.169L33 357.939L29 357.939L29 380.169L33 380.169ZM31.6656 356.053C30.834 355.76 28.3963 355.23 26.0197 352.392C23.6312 349.539 21.12 344.085 21.12 333.549L17.12 333.549C17.12 344.704 19.7838 351.175 22.9528 354.96C26.1336 358.759 29.636 359.579 30.3343 359.825L31.6656 356.053ZM21.12 333.549C21.12 324.135 23.6309 318.48 26.7762 315.187C29.9266 311.889 33.952 310.709 37.48 310.709L37.48 306.709C33.0879 306.709 27.9334 308.185 23.8838 312.424C19.829 316.669 17.12 323.434 17.12 333.549L21.12 333.549ZM37.48 310.709L38.56 310.709L38.56 306.709L37.48 306.709L37.48 310.709ZM38.56 310.709C42.3848 310.709 46.1003 311.749 48.8983 314.852C51.7328 317.996 53.93 323.592 53.93 333.369L57.93 333.369C57.93 323.077 55.6271 316.342 51.8692 312.174C48.0746 307.965 43.1051 306.709 38.56 306.709L38.56 310.709ZM53.93 333.369C53.93 343.71 51.6513 349.223 49.4288 352.167C47.2371 355.07 44.9249 355.715 44.1953 355.934L45.3447 359.765C46.4151 359.444 49.6828 358.469 52.6212 354.577C55.5287 350.726 57.93 344.268 57.93 333.369L53.93 333.369ZM42.77 357.849L42.77 380.079L46.77 380.079L46.77 357.849L42.77 357.849ZM44.77 382.079L45.76 382.079L45.76 378.079L44.77 378.079L44.77 382.079ZM45.76 382.079C50.1504 382.079 57.3265 380.394 63.3803 373.54C69.4242 366.696 74.13 354.951 74.13 335.259L70.13 335.259C70.13 354.358 65.5658 365.022 60.3822 370.892C55.2085 376.75 49.1995 378.079 45.76 378.079L45.76 382.079ZM74.13 335.259L74.13 331.569L70.13 331.569L70.13 335.259L74.13 335.259ZM74.13 331.569C74.13 311.433 68.7928 299.602 61.4844 292.841C54.2021 286.104 45.335 284.749 39.01 284.749L39.01 288.749C44.835 288.749 52.5279 290.004 58.7681 295.777C64.9822 301.526 70.13 312.106 70.13 331.569L74.13 331.569ZM39.01 284.749L36.4 284.749L36.4 288.749L39.01 288.749L39.01 284.749ZM36.4 284.749C30.1618 284.749 21.2089 286.329 13.8057 293.141C6.36637 299.987 0.829982 311.803 0.829981 331.569L4.82998 331.569C4.82998 312.546 10.1386 301.952 16.5142 296.085C22.926 290.185 30.7582 288.749 36.4 288.749L36.4 284.749ZM0.829981 331.569L0.82998 335.259L4.82998 335.259L4.82998 331.569L0.829981 331.569ZM3.99997 421.143L3.99997 419.143L1.99997 419.143L1.99997 421.143L3.99997 421.143ZM3.99997 442.293L1.99997 442.293L1.99997 444.293L3.99997 444.293L3.99997 442.293ZM55.12 442.293L57.12 442.293L57.12 440.293L55.12 440.293L55.12 442.293ZM55.12 471.183L53.12 471.183L53.12 473.183L55.12 473.183L55.12 471.183ZM70.96 471.183L70.96 473.183L72.96 473.183L72.96 471.183L70.96 471.183ZM70.96 392.343L72.96 392.343L72.96 390.343L70.96 390.343L70.96 392.343ZM55.12 392.343L55.12 390.343L53.12 390.343L53.12 392.343L55.12 392.343ZM55.12 421.143L55.12 423.143L57.12 423.143L57.12 421.143L55.12 421.143ZM1.99997 421.143L1.99997 442.293L5.99997 442.293L5.99997 421.143L1.99997 421.143ZM3.99997 444.293L55.12 444.293L55.12 440.293L3.99997 440.293L3.99997 444.293ZM53.12 442.293L53.12 471.183L57.12 471.183L57.12 442.293L53.12 442.293ZM55.12 473.183L70.96 473.183L70.96 469.183L55.12 469.183L55.12 473.183ZM72.96 471.183L72.96 392.343L68.96 392.343L68.96 471.183L72.96 471.183ZM70.96 390.343L55.12 390.343L55.12 394.343L70.96 394.343L70.96 390.343ZM53.12 392.343L53.12 421.143L57.12 421.143L57.12 392.343L53.12 392.343ZM55.12 419.143L3.99997 419.143L3.99997 423.143L55.12 423.143L55.12 419.143ZM55.75 508.771L57.75 508.771L57.75 506.771L55.75 506.771L55.75 508.771ZM42.61 508.771L42.61 506.771L40.61 506.771L40.61 508.771L42.61 508.771ZM27.76 508.771L29.76 508.771L29.76 506.771L27.76 506.771L27.76 508.771ZM3.99997 551.071L2.77209 549.492L1.99997 550.093L1.99997 551.071L3.99997 551.071ZM3.99997 572.401L1.99997 572.401L1.99997 574.401L3.99997 574.401L3.99997 572.401ZM4.44997 572.401L4.44997 574.401L4.99067 574.401L5.45771 574.128L4.44997 572.401ZM37.84 558.451L39.7412 557.83L37.725 551.655L35.9188 557.895L37.84 558.451ZM70.96 487.801L72.96 487.801L72.96 485.801L70.96 485.801L70.96 487.801ZM3.99997 487.801L3.99997 485.801L1.99997 485.801L1.99997 487.801L3.99997 487.801ZM3.99997 508.771L1.99997 508.771L1.99997 510.771L3.99997 510.771L3.99997 508.771ZM53.75 508.771L53.75 540.541L57.75 540.541L57.75 508.771L53.75 508.771ZM53.75 540.541C53.75 543.301 53.0797 544.882 52.3211 545.749C51.5908 546.583 50.566 547.001 49.27 547.001L49.27 551.001C51.4839 551.001 53.6991 550.248 55.3314 548.383C56.9353 546.55 57.75 543.901 57.75 540.541L53.75 540.541ZM49.27 547.001L49.18 547.001L49.18 551.001L49.27 551.001L49.27 547.001ZM49.18 547.001C47.7907 547.001 46.7489 546.559 46.0218 545.721C45.2617 544.845 44.61 543.264 44.61 540.541L40.61 540.541C40.61 543.847 41.3982 546.496 43.0007 548.343C44.6361 550.228 46.8793 551.001 49.18 551.001L49.18 547.001ZM44.61 540.541L44.61 508.771L40.61 508.771L40.61 540.541L44.61 540.541ZM42.61 510.771L55.75 510.771L55.75 506.771L42.61 506.771L42.61 510.771ZM25.76 508.771L25.76 536.131L29.76 536.131L29.76 508.771L25.76 508.771ZM25.76 536.131C25.76 541.164 24.8657 544.034 23.4325 545.669C22.0629 547.23 19.8207 548.081 15.97 548.081L15.97 552.081C20.3093 552.081 23.9621 551.131 26.4399 548.306C28.8543 545.553 29.76 541.447 29.76 536.131L25.76 536.131ZM15.97 548.081L8.22997 548.081L8.22997 552.081L15.97 552.081L15.97 548.081ZM8.22997 548.081C5.59797 548.081 4.08588 548.47 2.77209 549.492L5.22785 552.65C5.43181 552.491 5.63706 552.372 6.00824 552.276C6.42959 552.167 7.09589 552.081 8.22997 552.081L8.22997 548.081ZM1.99997 551.071L1.99997 572.401L5.99997 572.401L5.99997 551.071L1.99997 551.071ZM3.99997 574.401L4.44997 574.401L4.44997 570.401L3.99997 570.401L3.99997 574.401ZM5.45771 574.128C6.07718 573.767 7.35697 573.141 12.64 573.141L12.64 569.141C7.12297 569.141 4.98276 569.775 3.44223 570.673L5.45771 574.128ZM12.64 573.141L22.45 573.141L22.45 569.141L12.64 569.141L12.64 573.141ZM22.45 573.141C27.2643 573.141 31.1019 571.495 33.9963 568.833C36.8553 566.204 38.6993 562.675 39.7611 559.007L35.9188 557.895C35.0006 561.067 33.4697 563.883 31.2886 565.889C29.143 567.862 26.2756 569.141 22.45 569.141L22.45 573.141ZM35.9388 559.072C36.691 561.375 38.0562 564.789 40.6129 567.648C43.2249 570.569 47.0533 572.871 52.51 572.871L52.51 568.871C48.3366 568.871 45.55 567.168 43.5945 564.981C41.5837 562.733 40.429 559.936 39.7412 557.83L35.9388 559.072ZM52.51 572.871L53.59 572.871L53.59 568.871L52.51 568.871L52.51 572.871ZM53.59 572.871C58.9363 572.871 63.9465 570.957 67.5239 565.854C71.0074 560.885 72.96 553.129 72.96 541.801L68.96 541.801C68.96 552.793 67.0425 559.572 64.2485 563.558C61.5485 567.41 57.8736 568.871 53.59 568.871L53.59 572.871ZM72.96 541.801L72.96 487.801L68.96 487.801L68.96 541.801L72.96 541.801ZM70.96 485.801L3.99997 485.801L3.99997 489.801L70.96 489.801L70.96 485.801ZM1.99997 487.801L1.99997 508.771L5.99997 508.771L5.99997 487.801L1.99997 487.801ZM3.99997 510.771L27.76 510.771L27.76 506.771L3.99997 506.771L3.99997 510.771ZM70.96 588.383L72.96 588.383L72.96 586.383L70.96 586.383L70.96 588.383ZM3.99997 588.383L3.99997 586.383L1.99997 586.383L1.99997 588.383L3.99997 588.383ZM3.99996 659.843L1.99996 659.843L1.99996 661.843L3.99996 661.843L3.99996 659.843ZM19.57 659.843L19.57 661.843L21.57 661.843L21.57 659.843L19.57 659.843ZM19.57 609.083L19.57 607.083L17.57 607.083L17.57 609.083L19.57 609.083ZM30.55 609.083L32.55 609.083L32.55 607.083L30.55 607.083L30.55 609.083ZM30.55 657.773L28.55 657.773L28.55 659.773L30.55 659.773L30.55 657.773ZM45.85 657.773L45.85 659.773L47.85 659.773L47.85 657.773L45.85 657.773ZM45.85 609.083L45.85 607.083L43.85 607.083L43.85 609.083L45.85 609.083ZM55.75 609.083L57.75 609.083L57.75 607.083L55.75 607.083L55.75 609.083ZM55.75 658.943L53.75 658.943L53.75 660.943L55.75 660.943L55.75 658.943ZM70.96 658.943L70.96 660.943L72.96 660.943L72.96 658.943L70.96 658.943ZM70.96 586.383L3.99997 586.383L3.99997 590.383L70.96 590.383L70.96 586.383ZM1.99997 588.383L1.99996 659.843L5.99996 659.843L5.99997 588.383L1.99997 588.383ZM3.99996 661.843L19.57 661.843L19.57 657.843L3.99996 657.843L3.99996 661.843ZM21.57 659.843L21.57 609.083L17.57 609.083L17.57 659.843L21.57 659.843ZM19.57 611.083L30.55 611.083L30.55 607.083L19.57 607.083L19.57 611.083ZM28.55 609.083L28.55 657.773L32.55 657.773L32.55 609.083L28.55 609.083ZM30.55 659.773L45.85 659.773L45.85 655.773L30.55 655.773L30.55 659.773ZM47.85 657.773L47.85 609.083L43.85 609.083L43.85 657.773L47.85 657.773ZM45.85 611.083L55.75 611.083L55.75 607.083L45.85 607.083L45.85 611.083ZM53.75 609.083L53.75 658.943L57.75 658.943L57.75 609.083L53.75 609.083ZM55.75 660.943L70.96 660.943L70.96 656.943L55.75 656.943L55.75 660.943ZM72.96 658.943L72.96 588.383L68.96 588.383L68.96 658.943L72.96 658.943Z" fill="#F14251"/>
</svg>
