<svg width="148" height="158" viewBox="0 0 148 158" fill="none" xmlns="http://www.w3.org/2000/svg">
<path d="M147.835 107C147.155 89.8901 143.237 79.9361 143.136 77.2042C142.961 72.5423 142.608 67.9708 142.322 64.6312L142.32 64.6204C142.287 64.2254 142.253 63.844 142.222 63.4857C142.214 63.3971 142.201 63.3104 142.183 63.2252L141.319 54.4662L141.287 54.1826C141.317 53.9965 141.327 53.8046 141.31 53.6086C141.021 50.3792 140.766 47.1121 140.85 45.089C141.176 37.1409 141.008 28.1822 134.842 22.4562C128.349 16.4223 114.652 14.8908 104.651 13.7728C100.689 13.3296 96.9476 12.9115 95.7114 12.3764C91.8191 10.6943 88.1328 6.78871 88.6186 2.57828C88.6944 1.92284 88.4849 1.26646 88.0434 0.773947C87.6013 0.281435 86.9692 0 86.3062 0H61.6945C61.0312 0 60.3995 0.281435 59.9579 0.773947C59.5164 1.26646 59.307 1.92284 59.3827 2.57828C59.8667 6.77544 56.2052 10.6689 52.3256 12.3603L51.244 12.6853C51.2412 12.6859 51.2384 12.6865 51.2359 12.6871L37.2154 14.498C33.4223 14.9914 29.2364 15.6496 25.2926 16.6816H25.2923C20.5147 17.9314 16.0924 19.7301 13.1594 22.4556C11.1448 24.3266 9.77343 26.5442 8.84758 28.9573L8.84293 28.9604L8.84418 28.9663C6.93911 33.9368 6.93166 39.7414 7.15071 45.0902C7.25838 47.667 6.81593 52.3554 6.30398 57.7845C5.75046 63.6567 5.12277 70.313 4.86432 77.2066C4.76844 79.8114 0.83483 90.1561 0.165575 107.001C-0.605139 126.522 1.56365 155.568 1.58568 155.859C1.6769 157.066 2.68869 158 3.9062 158H19.4579C20.5656 158 21.52 157.223 21.7394 156.143C21.9581 155.065 27.1046 129.548 28.0106 112.491C28.1189 110.464 27.8213 107.65 27.5061 104.67C26.5448 95.5725 26.8669 97.3626 28.162 87.7546C28.9712 81.7457 29.91 74.7805 31.5452 68.6509C33.2607 77.0495 36.6693 84.8489 39.0106 91.0639C40.2762 94.4217 42.1115 105.509 42.0314 109.315C42.0162 110.046 41.97 110.855 41.902 111.718L39.9458 125.936C39.8049 126.794 39.6628 127.653 39.5213 128.51C39.4866 128.721 39.4838 128.93 39.5058 129.133L37.9696 138.13C37.9529 138.197 37.938 138.264 37.9275 138.333C37.9039 138.485 37.8815 138.633 37.858 138.783L37.8536 138.808L37.8533 138.811C36.8393 145.378 36.1629 150.688 35.7307 155.479C35.6088 156.83 36.6795 158 38.0485 158H109.951C111.321 158 112.39 156.83 112.268 155.479C111.463 146.556 109.936 137.322 108.588 129.175C107.233 120.983 106.063 113.908 105.968 109.315C105.888 105.509 107.723 94.422 108.989 91.0639C111.344 84.8116 114.739 77.0465 116.454 68.6515C118.089 74.7808 119.028 81.7469 119.837 87.7549C121.132 97.3635 121.455 95.5731 120.493 104.67C120.178 107.65 119.88 110.464 119.988 112.491C120.895 129.548 126.041 155.065 126.26 156.143C126.479 157.223 127.433 158 128.541 158H144.093C145.31 158 146.322 157.067 146.413 155.859C146.436 155.567 148.605 126.521 147.835 107ZM63.9304 5.17725C63.9304 5.17725 63.9304 5.17663 63.9304 5.17632V5.17725Z" fill="#1F2326"/>
</svg>
