<svg width="118" height="155" viewBox="0 0 118 155" fill="none" xmlns="http://www.w3.org/2000/svg">
<path d="M112.566 113.826C111.788 111.922 111.096 110.272 110.644 108.906C100.936 80.19 102.674 63.9522 105.316 39.3766C105.924 33.813 106.531 28.0654 107.083 21.6241C107.804 13.0595 107.733 5.98797 107.083 0H94.4492H38.4534C38.8628 8.62114 40.4316 21.9356 47.4762 38.5057C60.2087 68.4823 66.4271 96.2366 63.3173 109.203C61.0849 118.519 43.1098 126.433 13.9912 130.92C3.83411 132.484 -0.344987 138.034 0.0221421 142.84C0.365207 147.313 4.32557 150.435 9.65974 150.435C18.4779 150.435 28.0881 154.349 28.1868 154.383C28.4058 154.476 28.6391 154.539 28.8788 154.569C31.2247 154.859 33.5709 155 35.8391 155C44.3957 155 51.1012 152.948 57.0153 151.136C62.0601 149.592 66.8229 148.134 72.0652 148.134C75.2027 148.134 78.3542 148.65 81.6676 149.72C85.3349 150.895 89.5889 151.489 94.3014 151.489C100.202 151.489 104.738 150.548 104.936 150.505C105.02 150.491 105.12 150.462 105.204 150.435C110.729 148.644 114.517 145.593 116.467 141.36C120.409 132.817 115.887 121.838 112.566 113.826Z" fill="#1F2326"/>
</svg>
