<svg width="60" height="80" viewBox="0 0 60 80" fill="none" xmlns="http://www.w3.org/2000/svg">
<path fill-rule="evenodd" clip-rule="evenodd" d="M31.4416 58.0251L40.6724 65.4269C41.2198 65.866 41.5384 66.5305 41.5384 67.2331V80L30 70.7476L18.4616 80V67.2331C18.4616 66.5305 18.7802 65.866 19.3276 65.4269L28.5584 58.0251C29.4011 57.3493 30.5989 57.3493 31.4416 58.0251ZM31.5438 30.5047L52.3129 49.2407C52.7993 49.6793 53.0769 50.3042 53.0769 50.96V63.8084L31.5438 44.3831C30.6662 43.5916 29.3338 43.5916 28.4562 44.3831L6.92311 63.8084V50.96C6.92311 50.3042 7.20067 49.6793 7.68711 49.2407L28.4562 30.5047C29.3338 29.7129 30.6662 29.7129 31.5438 30.5047ZM31.6318 0.677483L58.6482 27.7571C59.5138 28.6247 60 29.8013 60 31.0282V47.6167L50.7693 40.6776V34.6964C50.7693 34.0829 50.526 33.4944 50.0933 33.0607L31.6318 14.556C30.7307 13.6527 29.2693 13.6527 28.3682 14.556L9.90667 33.0607C9.474 33.4944 9.23067 34.0829 9.23067 34.6964V40.6776L0 47.6167V31.0282C0 29.8013 0.486223 28.6247 1.35178 27.7571L28.3682 0.677483C29.2693 -0.225828 30.7307 -0.225828 31.6318 0.677483Z" fill="white"/>
</svg>
