<svg width="72" height="80" viewBox="0 0 72 80" fill="none" xmlns="http://www.w3.org/2000/svg">
<path fill-rule="evenodd" clip-rule="evenodd" d="M36 0L36.3341 0.802303C39.7546 9.23903 42.1075 21.9673 43.3923 38.9869L43.5096 40.5952L38.1521 47.3634V50.2589C39.4709 50.2589 43.5096 53.0657 43.5096 57.3913C43.5096 61.5287 40.8449 63.585 39.876 63.7559L39.7548 63.7675V78.1013C39.7548 79.1964 38.6645 79.8208 36.4839 79.9743L36 80C33.4968 79.9076 32.2452 79.2747 32.2452 78.1013V63.7675C31.403 63.7675 28.4904 61.7169 28.4904 57.3913C28.4904 53.0657 32.5291 50.2589 33.8479 50.2589V47.3634L28.4904 40.5952C29.7859 22.2099 32.2891 8.67806 36 0ZM0.0290197 12.3665L0.573891 12.8979C5.6748 17.9789 11.2123 26.4766 17.1864 38.3908L17.8282 39.6802L15.689 46.295L16.5446 48.4102C17.5634 47.999 21.5136 48.7901 22.7918 51.9501C24.0703 55.1098 22.4258 57.5161 21.7752 57.7787C24.745 65.1198 26.4031 69.2189 26.7499 70.0761C27.072 70.8718 26.4223 71.6638 24.8011 72.4519L24.4099 72.6335C22.4484 73.3464 21.2942 73.2744 20.9474 72.4172L15.9727 60.12C15.3221 60.3825 12.4656 59.7925 11.1871 56.6327C9.90889 53.4727 12.2002 50.1634 13.219 49.7522L12.3631 47.6368L6.22344 44.3629C1.7912 30.5285 -0.273644 19.863 0.0290197 12.3665ZM71.971 12.3665C72.2736 19.863 70.2089 30.5285 65.7766 44.3629L59.6369 47.6368L58.7811 49.7522C59.7999 50.1634 62.0911 53.4727 60.8129 56.6327C59.5344 59.7925 56.6779 60.3825 56.0273 60.12L51.0526 72.4172C50.7058 73.2744 49.5516 73.3464 47.5901 72.6335L47.1989 72.4519C45.5777 71.6638 44.9283 70.8718 45.2501 70.0761C45.5969 69.2189 47.2551 65.1198 50.2248 57.7787C49.5742 57.5161 47.9297 55.1098 49.2082 51.9501C50.4864 48.7901 54.4366 47.999 55.4554 48.4102L56.311 46.295L54.1719 39.6802L54.8136 38.3908C60.7877 26.4766 66.3252 17.9789 71.4262 12.8979L71.971 12.3665ZM36 53.7501C33.9262 53.7501 32.2452 55.4291 32.2452 57.5001C32.2452 59.5712 33.9262 61.2502 36 61.2502C38.0739 61.2502 39.7548 59.5712 39.7548 57.5001C39.7548 55.4291 38.0739 53.7501 36 53.7501ZM15.9134 51.6315C14.3112 52.2781 13.5084 54.0286 14.1206 55.5416C14.7326 57.0545 16.5276 57.7569 18.1298 57.1103C19.7323 56.4638 20.5349 54.7132 19.9229 53.2002C19.3109 51.6873 17.5157 50.985 15.9134 51.6315ZM56.0866 51.6315C54.4843 50.985 52.6891 51.6873 52.0771 53.2002C51.4651 54.7132 52.2677 56.4638 53.8702 57.1103C55.4724 57.7569 57.2674 57.0545 57.8794 55.5416C58.4916 54.0286 57.6888 52.2781 56.0866 51.6315Z" fill="white"/>
</svg>
