<svg width="220" height="220" viewBox="0 0 220 220" fill="none" xmlns="http://www.w3.org/2000/svg">
<path fill-rule="evenodd" clip-rule="evenodd" d="M0 40C0 17.9086 17.9086 0 40 0H180C202.091 0 220 17.9086 220 40V180C220 202.091 202.091 220 180 220H40C17.9086 220 0 202.091 0 180V40ZM40 20C28.9543 20 20 28.9543 20 40V180C20 191.046 28.9543 200 40 200H180C191.046 200 200 191.046 200 180V40C200 28.9543 191.046 20 180 20H40ZM166 110C166 140.928 140.928 166 110 166C79.0721 166 54 140.928 54 110C54 79.0721 79.0721 54 110 54C140.928 54 166 79.0721 166 110ZM110 146C129.882 146 146 129.882 146 110C146 90.1178 129.882 74 110 74C90.1178 74 74 90.1178 74 110C74 129.882 90.1178 146 110 146ZM169 65C176.732 65 183 58.732 183 51C183 43.268 176.732 37 169 37C161.268 37 155 43.268 155 51C155 58.732 161.268 65 169 65Z" fill="#FF4656"/>
</svg>
