<svg width="78" height="662" viewBox="0 0 78 662" fill="none" xmlns="http://www.w3.org/2000/svg">
<path d="M3.5666 34.0355L1.48867 33.6424L3.5666 34.0355ZM6.99256 22.1398L5.0713 21.256L5.06074 21.279L5.05074 21.3022L6.99256 22.1398ZM12.2267 13.6701L10.6123 12.304L10.6019 12.3162L10.5918 12.3286L12.2267 13.6701ZM25.2644 4.34382L24.5333 2.35942L24.5105 2.36782L24.4879 2.37674L25.2644 4.34382ZM31.8308 2.53567L31.5602 0.438269L31.527 0.442544L31.4941 0.447864L31.8308 2.53567ZM49.151 3.0115L49.5842 0.941564L49.5842 0.941564L49.151 3.0115ZM58.2869 6.81813L59.3799 5.00773L59.3673 5.00011L59.3546 4.99267L58.2869 6.81813ZM66.9469 14.7169L68.6428 13.4533L68.6428 13.4533L66.9469 14.7169ZM73.0375 28.5159L75.0773 27.9576L75.0758 27.9521L73.0375 28.5159ZM73.323 74.1003L71.2688 73.5976L71.2663 73.608L71.2639 73.6183L73.323 74.1003ZM68.0889 87.8993L66.3134 86.7504L66.3004 86.7705L66.2878 86.7909L68.0889 87.8993ZM60.9515 95.8932L59.6889 94.1967L59.6667 94.2132L59.6449 94.2303L60.9515 95.8932ZM53.7189 99.8902L53.1778 97.8458L53.1415 97.8554L53.1056 97.8663L53.7189 99.8902ZM46.5815 100.842L44.4667 100.842L44.4667 102.957L46.5815 102.957L46.5815 100.842ZM46.5815 77.3359L46.0686 75.2842L44.4667 75.6847L44.4667 77.3359L46.5815 77.3359ZM48.58 76.5746L47.7946 74.611L47.6701 74.6608L47.5529 74.7259L48.58 76.5746ZM51.5301 74.3858L50.1538 72.7801L50.1323 72.7985L50.1113 72.8176L51.5301 74.3858ZM54.8609 70.1033L52.9989 69.1007L52.9911 69.1152L52.9835 69.1298L54.8609 70.1033ZM57.24 62.6804L55.1815 62.196L55.176 62.2193L55.171 62.2427L57.24 62.6804ZM56.7642 38.4131L54.7308 38.9941L54.7341 39.0059L54.7376 39.0176L56.7642 38.4131ZM52.4818 30.3241L53.9771 28.8287L53.964 28.8156L53.9507 28.8027L52.4818 30.3241ZM32.2115 26.6126L31.4562 24.6373L31.4206 24.6509L31.3855 24.6658L32.2115 26.6126ZM26.0257 30.7047L24.6056 29.1377L24.5932 29.1489L24.581 29.1603L26.0257 30.7047ZM21.2674 38.889L19.2611 38.2202L19.2611 38.2202L21.2674 38.889ZM31.7356 77.3359L32.6814 75.4444L32.5336 75.3705L32.3762 75.3204L31.7356 77.3359ZM32.0211 77.4311L34.1359 77.4311L34.1359 75.3163L32.0211 75.3163L32.0211 77.4311ZM32.0211 100.937L32.0211 103.052L34.1359 103.052L34.1359 100.937L32.0211 100.937ZM24.503 99.8902L25.1371 97.8727L25.1107 97.8643L25.084 97.8567L24.503 99.8902ZM16.985 95.798L15.6974 97.4757L15.7067 97.4828L15.7161 97.4899L16.985 95.798ZM9.75237 87.709L7.96678 88.8421L7.96678 88.8421L9.75237 87.709ZM4.42309 73.8148L6.47729 73.3121L6.47603 73.307L4.42309 73.8148ZM4.34907 53.4493L4.34907 49.5475L0.119487 49.5475L0.119487 53.4493L4.34907 53.4493ZM4.34907 49.5475C4.34907 44.0099 4.78478 38.973 5.64453 34.4286L1.48867 33.6424C0.571994 38.4877 0.119487 43.7922 0.119487 49.5475L4.34907 49.5475ZM5.64453 34.4286C6.51333 29.8364 7.61755 26.0301 8.93439 22.9775L5.05074 21.3022C3.57605 24.7207 2.3963 28.8449 1.48867 33.6424L5.64453 34.4286ZM8.91383 23.0236C10.3043 20.0008 11.9559 17.3341 13.8616 15.0115L10.5918 12.3286C8.43709 14.9546 6.59922 17.9344 5.0713 21.256L8.91383 23.0236ZM13.8411 15.0361C15.8415 12.6719 17.7913 10.8841 19.6807 9.62456L17.3345 6.10534C15.0366 7.63729 12.7991 9.71958 10.6123 12.304L13.8411 15.0361ZM19.6807 9.62456C21.6462 8.31425 23.765 7.20928 26.0409 6.31091L24.4879 2.37674C21.9421 3.38167 19.5564 4.62412 17.3345 6.10534L19.6807 9.62456ZM25.9955 6.32822C28.3131 5.47434 30.3674 4.91384 32.1676 4.62348L31.4941 0.447864C29.3607 0.791949 27.0373 1.43688 24.5333 2.35942L25.9955 6.32822ZM32.1014 4.63308C33.9792 4.39079 35.8556 4.2698 37.7311 4.2698L37.7311 0.0402189C35.6731 0.0402188 33.6159 0.17301 31.5602 0.438269L32.1014 4.63308ZM37.7311 4.2698L40.4909 4.2698L40.4909 0.040219L37.7311 0.0402189L37.7311 4.2698ZM40.4909 4.2698C43.4039 4.2698 46.1445 4.54287 48.7177 5.08144L49.5842 0.941564C46.7012 0.338145 43.6685 0.0402191 40.4909 0.040219L40.4909 4.2698ZM48.7177 5.08144C51.1533 5.59121 53.9814 6.74984 57.2191 8.64359L59.3546 4.99267C55.8673 2.95291 52.6048 1.57379 49.5842 0.941564L48.7177 5.08144ZM57.1938 8.62853C60.3154 10.5133 62.9993 12.9583 65.2511 15.9804L68.6428 13.4533C66.0728 10.0042 62.9833 7.18337 59.3799 5.00773L57.1938 8.62853ZM65.2511 15.9804C67.445 18.9249 69.3862 23.2479 70.9993 29.0797L75.0758 27.9521C73.3898 21.8565 71.2706 16.9802 68.6428 13.4533L65.2511 15.9804ZM70.9978 29.0742C72.5859 34.877 73.3971 41.6925 73.3971 49.5475L77.6266 49.5475C77.6266 41.4147 76.7883 34.2091 75.0773 27.9577L70.9978 29.0742ZM73.3971 49.5475L73.3971 53.4493L77.6266 53.4493L77.6266 49.5475L73.3971 49.5475ZM73.3971 53.4493C73.3971 61.1268 72.6787 67.8358 71.2688 73.5976L75.3772 74.6029C76.8858 68.4373 77.6266 61.379 77.6266 53.4493L73.3971 53.4493ZM71.2639 73.6183C69.8949 79.4678 68.2203 83.8033 66.3134 86.7504L69.8644 89.0481C72.1448 85.524 73.9597 80.6601 75.3822 74.5822L71.2639 73.6183ZM66.2878 86.7909C64.3788 89.8931 62.174 92.3473 59.6889 94.1967L62.2141 97.5898C65.1851 95.3787 67.7386 92.5036 69.89 89.0076L66.2878 86.7909ZM59.6449 94.2303C57.1007 96.2293 54.9503 97.3766 53.1778 97.8458L54.2601 101.935C56.8017 101.262 59.473 99.7444 62.2581 97.5561L59.6449 94.2303ZM53.1056 97.8663C51.1888 98.4471 49.3654 98.727 47.6283 98.727L47.6283 102.957C49.8247 102.957 52.0618 102.602 54.3322 101.914L53.1056 97.8663ZM47.6283 98.727L46.5815 98.727L46.5815 102.957L47.6283 102.957L47.6283 98.727ZM48.6963 100.842L48.6963 77.3359L44.4667 77.3359L44.4667 100.842L48.6963 100.842ZM47.0944 79.3875C48.0004 79.161 48.8456 78.8462 49.607 78.4232L47.5529 74.7259C47.1723 74.9374 46.6852 75.1301 46.0686 75.2842L47.0944 79.3875ZM49.3654 78.5381C50.3984 78.1249 51.6393 77.1389 52.9489 75.9539L50.1113 72.8176C48.7562 74.0435 48.0304 74.5167 47.7946 74.611L49.3654 78.5381ZM52.9064 75.9914C54.4644 74.656 55.7376 73.0066 56.7383 71.0768L52.9835 69.1298C52.2077 70.6259 51.2604 71.8315 50.1538 72.7801L52.9064 75.9914ZM56.7229 71.1059C57.7542 69.1907 58.5971 66.4837 59.309 63.1181L55.171 62.2427C54.4872 65.4752 53.744 67.7168 52.9989 69.1007L56.7229 71.1059ZM59.2986 63.1648C60.106 59.7335 60.4968 55.8219 60.4968 51.4508L56.2672 51.4508C56.2672 55.5813 55.8968 59.156 55.1815 62.196L59.2986 63.1648ZM60.4968 51.4508C60.4968 46.2363 59.944 41.6755 58.7908 37.8087L54.7376 39.0176C55.7415 42.3834 56.2672 46.5143 56.2672 51.4508L60.4968 51.4508ZM58.7976 37.8322C57.7229 34.0705 56.1557 31.0072 53.9771 28.8287L50.9864 31.8194C52.4876 33.3207 53.7753 35.6501 54.7308 38.9941L58.7976 37.8322ZM53.9507 28.8027C51.9395 26.8608 49.7645 25.4168 47.4192 24.5373L45.9341 28.4976C47.6492 29.1407 49.3443 30.2344 51.0128 31.8454L53.9507 28.8027ZM47.4192 24.5373C45.1265 23.6775 42.6512 23.2606 40.0151 23.2606L40.0151 27.4902C42.2006 27.4902 44.1664 27.8347 45.9341 28.4976L47.4192 24.5373ZM40.0151 23.2606L38.8731 23.2606L38.8731 27.4902L40.0151 27.4902L40.0151 23.2606ZM38.8731 23.2606C36.328 23.2606 33.8517 23.7213 31.4562 24.6373L32.9667 28.5879C34.8854 27.8543 36.8502 27.4902 38.8731 27.4902L38.8731 23.2606ZM31.3855 24.6658C29.0346 25.6631 26.7764 27.1704 24.6056 29.1377L27.4458 32.2717C29.3354 30.5593 31.2011 29.3385 33.0374 28.5594L31.3855 24.6658ZM24.581 29.1603C22.2724 31.32 20.5344 34.4005 19.2611 38.2202L23.2737 39.5577C24.4113 36.1448 25.8455 33.7692 27.4704 32.2491L24.581 29.1603ZM19.2611 38.2202C17.9669 42.1031 17.3445 46.5894 17.3445 51.6412L21.5741 51.6412C21.5741 46.9226 22.1571 42.9075 23.2737 39.5577L19.2611 38.2202ZM17.3445 51.6412C17.3445 66.3633 21.4961 76.3005 31.0951 79.3513L32.3762 75.3204C25.6066 73.1689 21.5741 65.9763 21.5741 51.6412L17.3445 51.6412ZM30.7899 79.2274C30.9333 79.2992 31.4188 79.5459 32.0211 79.5459L32.0211 75.3163C32.1764 75.3163 32.3009 75.3351 32.3823 75.3514C32.466 75.3681 32.5304 75.3875 32.5709 75.401C32.6482 75.4267 32.6888 75.4481 32.6814 75.4444L30.7899 79.2274ZM29.9063 77.4311L29.9063 100.937L34.1359 100.937L34.1359 77.4311L29.9063 77.4311ZM32.0211 98.8222L30.9743 98.8222L30.9743 103.052L32.0211 103.052L32.0211 98.8222ZM30.9743 98.8222C29.1183 98.8222 27.1752 98.5132 25.1371 97.8727L23.869 101.908C26.272 102.663 28.643 103.052 30.9743 103.052L30.9743 98.8222ZM25.084 97.8567C23.2047 97.3198 20.9337 96.1161 18.2538 94.1062L15.7161 97.4899C18.6192 99.6672 21.3603 101.192 23.9221 101.924L25.084 97.8567ZM18.2725 94.1204C15.7659 92.1967 13.5167 89.6938 11.5379 86.5758L7.96678 88.8421C10.1754 92.3223 12.7479 95.2121 15.6974 97.4757L18.2725 94.1204ZM11.5379 86.5758C9.61716 83.5491 7.90934 79.1649 6.47728 73.3121L2.36889 74.3174C3.85525 80.392 5.70029 85.2707 7.96678 88.8421L11.5379 86.5758ZM6.47603 73.307C5.067 67.6097 4.34907 60.9974 4.34907 53.4493L0.119487 53.4493C0.119487 61.2546 0.860765 68.2193 2.37015 74.3225L6.47603 73.307ZM74.2747 118.149L76.3895 118.149L76.3895 116.035L74.2747 116.035L74.2747 118.149ZM74.2747 140.323L74.2747 142.438L76.3895 142.438L76.3895 140.323L74.2747 140.323ZM21.0771 140.323L21.0771 138.208L18.9623 138.208L18.9623 140.323L21.0771 140.323ZM21.0771 189.524L21.0771 191.638L23.1919 191.638L23.1919 189.524L21.0771 189.524ZM3.47143 189.524L1.35663 189.524L1.35663 191.638L3.47143 191.638L3.47143 189.524ZM3.47143 118.149L3.47143 116.035L1.35664 116.035L1.35664 118.149L3.47143 118.149ZM72.1599 118.149L72.1599 140.323L76.3895 140.323L76.3895 118.149L72.1599 118.149ZM74.2747 138.208L21.0771 138.208L21.0771 142.438L74.2747 142.438L74.2747 138.208ZM18.9623 140.323L18.9623 189.524L23.1919 189.524L23.1919 140.323L18.9623 140.323ZM21.0771 187.409L3.47143 187.409L3.47143 191.638L21.0771 191.638L21.0771 187.409ZM5.58622 189.524L5.58622 118.149L1.35664 118.149L1.35663 189.524L5.58622 189.524ZM3.47143 120.264L74.2747 120.264L74.2747 116.035L3.47143 116.035L3.47143 120.264ZM32.4018 265.331L30.287 265.331L30.287 268.803L33.3717 267.21L32.4018 265.331ZM58.953 251.627L59.9229 253.507L63.6418 251.587L59.8906 249.732L58.953 251.627ZM32.4018 238.494L33.3394 236.599L30.287 235.089L30.287 238.494L32.4018 238.494ZM3.47142 280.177L2.5036 278.297L1.35663 278.887L1.35663 280.177L3.47142 280.177ZM16.414 273.515L17.3818 275.396L18.5287 274.805L18.5287 273.515L16.414 273.515ZM16.414 230.596L18.5287 230.596L18.5287 229.28L17.3485 228.699L16.414 230.596ZM3.47143 224.22L1.35663 224.22L1.35663 225.535L2.53684 226.117L3.47143 224.22ZM3.47143 201.665L4.4253 199.778L1.35663 198.227L1.35663 201.665L3.47143 201.665ZM74.2747 237.448L76.3895 237.448L76.3895 236.147L75.2286 235.56L74.2747 237.448ZM74.2747 266.188L75.2722 268.052L76.3895 267.455L76.3895 266.188L74.2747 266.188ZM3.47142 304.064L1.35663 304.064L1.35663 307.593L4.46896 305.928L3.47142 304.064ZM33.3717 267.21L59.9229 253.507L57.9831 249.748L31.4319 263.452L33.3717 267.21ZM59.8906 249.732L33.3394 236.599L31.4642 240.39L58.0154 253.523L59.8906 249.732ZM30.287 238.494L30.287 265.331L34.5166 265.331L34.5166 238.494L30.287 238.494ZM4.43924 282.057L17.3818 275.396L15.4461 271.635L2.5036 278.297L4.43924 282.057ZM18.5287 273.515L18.5287 230.596L14.2992 230.596L14.2992 273.515L18.5287 273.515ZM17.3485 228.699L4.40601 222.323L2.53684 226.117L15.4794 232.493L17.3485 228.699ZM5.58622 224.22L5.58622 201.665L1.35663 201.665L1.35663 224.22L5.58622 224.22ZM2.51755 203.553L73.3208 239.335L75.2286 235.56L4.4253 199.778L2.51755 203.553ZM72.1599 237.448L72.1599 266.188L76.3895 266.188L76.3895 237.448L72.1599 237.448ZM73.2771 264.323L2.47389 302.199L4.46896 305.928L75.2722 268.052L73.2771 264.323ZM5.58621 304.064L5.58622 280.177L1.35663 280.177L1.35663 304.064L5.58621 304.064ZM4.04241 334.193L6.10388 334.665L6.10388 334.665L4.04241 334.193ZM8.42004 322.012L6.60662 320.924L6.60662 320.924L8.42004 322.012ZM14.6058 315.16L13.4327 313.4L13.4066 313.418L13.3809 313.436L14.6058 315.16ZM21.2674 311.924L20.8016 309.862L20.7702 309.869L20.739 309.877L21.2674 311.924ZM28.5952 311.258L30.71 311.258L30.71 309.144L28.5952 309.144L28.5952 311.258ZM28.5952 334.384L28.7382 336.494L30.71 336.36L30.71 334.384L28.5952 334.384ZM17.9366 367.787L15.8396 368.06L15.8425 368.083L15.8459 368.105L17.9366 367.787ZM19.7447 374.163L21.5809 373.114L21.5809 373.114L19.7447 374.163ZM22.0287 376.827L20.9631 378.654L20.9943 378.672L21.0261 378.689L22.0287 376.827ZM28.5 376.352L27.1237 374.746L27.1237 374.746L28.5 376.352ZM30.784 371.022L28.7323 370.509L28.7268 370.531L28.7218 370.554L30.784 371.022ZM32.0211 358.936L34.1353 358.987L34.1353 358.986L32.0211 358.936ZM32.3066 346.755L30.1926 346.697L30.1924 346.706L32.3066 346.755ZM60.1902 313.066L59.5825 315.092L59.5915 315.095L59.6005 315.097L60.1902 313.066ZM65.9953 316.492L64.5805 318.064L64.5933 318.076L64.6063 318.087L65.9953 316.492ZM70.9439 323.154L72.8524 322.243L72.8483 322.235L72.8442 322.226L70.9439 323.154ZM74.1795 334.384L72.0966 334.749L72.099 334.763L72.1016 334.777L74.1795 334.384ZM74.1795 374.448L72.098 374.075L74.1795 374.448ZM70.7536 386.249L68.8457 385.336L68.8419 385.344L68.8382 385.352L70.7536 386.249ZM65.6146 393.481L64.1945 391.914L64.1812 391.926L64.1682 391.939L65.6146 393.481ZM59.524 397.383L58.8365 395.383L58.8266 395.387L58.8168 395.39L59.524 397.383ZM52.1962 398.43L50.0815 398.43L50.0815 400.545L52.1962 400.545L52.1962 398.43ZM52.1962 375.4L51.8486 373.314L50.0815 373.608L50.0815 375.4L52.1962 375.4ZM54.0996 374.829L53.4308 372.823L53.2882 372.87L53.1538 372.937L54.0996 374.829ZM56.2884 373.306L54.8494 371.757L54.8494 371.757L56.2884 373.306ZM58.4772 370.071L56.5334 369.238L56.5334 369.238L58.4772 370.071ZM59.9998 364.075L57.9152 363.719L57.9138 363.728L59.9998 364.075ZM59.6192 341.14L57.5547 341.599L57.5596 341.621L57.5649 341.642L59.6192 341.14ZM57.5255 335.906L58.8794 334.282L58.8721 334.275L58.8647 334.269L57.5255 335.906ZM51.6253 336.001L50.2714 334.377L50.233 334.409L50.1962 334.442L51.6253 336.001ZM49.5316 340.76L47.483 340.234L47.48 340.247L49.5316 340.76ZM48.4848 351.418L50.5993 351.452L50.5994 351.448L48.4848 351.418ZM48.2945 363.314L50.4089 363.355L50.409 363.348L48.2945 363.314ZM42.87 391.864L41.0375 390.808L41.0308 390.82L41.0242 390.832L42.87 391.864ZM18.8883 399.858L18.3157 401.893L18.3237 401.896L18.3318 401.898L18.8883 399.858ZM12.6073 396.336L11.2629 397.969L11.2629 397.969L12.6073 396.336ZM7.18288 389.199L9.08242 388.269L9.07845 388.261L9.07441 388.253L7.18288 389.199ZM3.56658 377.113L1.48345 377.478L1.48525 377.488L1.48715 377.498L3.56658 377.113ZM4.34906 359.222L4.34906 352.655L0.119474 352.655L0.119474 359.222L4.34906 359.222ZM4.34906 352.655C4.34906 345.727 4.9427 339.738 6.10388 334.665L1.98095 333.721C0.731269 339.18 0.119474 345.499 0.119474 352.655L4.34906 352.655ZM6.10388 334.665C7.28648 329.499 8.68393 325.683 10.2335 323.1L6.60662 320.924C4.73018 324.051 3.20921 328.356 1.98095 333.721L6.10388 334.665ZM10.2335 323.1C11.8151 320.464 13.686 318.408 15.8307 316.884L13.3809 313.436C10.7039 315.338 8.45089 317.85 6.60662 320.924L10.2335 323.1ZM15.7789 316.92C18.1389 315.346 20.1385 314.4 21.7958 313.972L20.739 309.877C18.4628 310.464 16.0213 311.675 13.4327 313.4L15.7789 316.92ZM21.7332 313.987C23.5326 313.581 25.4689 313.373 27.5483 313.373L27.5483 309.144C25.1867 309.144 22.9357 309.38 20.8016 309.862L21.7332 313.987ZM27.5483 313.373L28.5952 313.373L28.5952 309.144L27.5483 309.144L27.5483 313.373ZM26.4804 311.258L26.4804 334.384L30.71 334.384L30.71 311.258L26.4804 311.258ZM28.4521 332.274C23.9306 332.58 20.4981 334.923 18.3075 339.026C16.195 342.982 15.2508 348.524 15.2508 355.415L19.4804 355.415C19.4804 348.793 20.4078 344.072 22.0385 341.018C23.591 338.111 25.7734 336.695 28.7382 336.494L28.4521 332.274ZM15.2508 355.415L15.2508 356.748L19.4804 356.748L19.4804 355.415L15.2508 355.415ZM15.2508 356.748C15.2508 361.239 15.4428 365.018 15.8396 368.06L20.0336 367.513C19.6691 364.719 19.4804 361.138 19.4804 356.748L15.2508 356.748ZM15.8459 368.105C16.2998 371.088 16.9478 373.531 17.9086 375.212L21.5809 373.114C21.0191 372.13 20.4616 370.322 20.0273 367.469L15.8459 368.105ZM17.9086 375.212C18.7353 376.659 19.7236 377.931 20.9631 378.654L23.0943 375.001C22.8112 374.836 22.2768 374.331 21.5809 373.114L17.9086 375.212ZM21.0261 378.689C22.2028 379.323 23.5086 379.608 24.8837 379.608L24.8837 375.379C24.1017 375.379 23.5042 375.22 23.0314 374.965L21.0261 378.689ZM24.8837 379.608C26.7561 379.608 28.5015 379.136 29.8763 377.957L27.1237 374.746C26.7221 375.09 26.0566 375.379 24.8837 375.379L24.8837 379.608ZM29.8763 377.957C30.6763 377.272 31.2459 376.296 31.6809 375.281C32.1298 374.234 32.5127 372.958 32.8462 371.491L28.7218 370.554C28.4208 371.878 28.1058 372.886 27.7933 373.615C27.4671 374.377 27.2119 374.67 27.1237 374.746L29.8763 377.957ZM32.8356 371.535C33.5904 368.516 34.0072 364.303 34.1353 358.987L29.9069 358.885C29.7813 364.101 29.3733 367.946 28.7323 370.509L32.8356 371.535ZM34.1353 358.986L34.4208 346.805L30.1924 346.706L29.9069 358.887L34.1353 358.986ZM34.4206 346.813C34.7341 335.435 36.6015 327.231 39.782 321.935C42.8657 316.8 47.2133 314.325 53.0527 314.325L53.0527 310.095C45.6959 310.095 39.9876 313.377 36.156 319.757C32.4211 325.977 30.5136 335.046 30.1926 346.697L34.4206 346.813ZM53.0527 314.325L53.9092 314.325L53.9092 310.095L53.0527 310.095L53.0527 314.325ZM53.9092 314.325C56.0175 314.325 57.9032 314.588 59.5825 315.092L60.7978 311.041C58.6705 310.403 56.3689 310.095 53.9092 310.095L53.9092 314.325ZM59.6005 315.097C61.1944 315.56 62.8564 316.513 64.5805 318.064L67.41 314.921C65.3276 313.046 63.1195 311.715 60.7798 311.036L59.6005 315.097ZM64.6063 318.087C66.3277 319.586 67.8153 321.567 69.0436 324.082L72.8442 322.226C71.4078 319.285 69.5964 316.824 67.3842 314.898L64.6063 318.087ZM69.0353 324.065C70.2533 326.617 71.2892 330.153 72.0966 334.749L76.2624 334.018C75.4203 329.224 74.2991 325.274 72.8524 322.243L69.0353 324.065ZM72.1016 334.777C72.9592 339.31 73.397 344.629 73.397 350.752L77.6266 350.752C77.6266 344.44 77.1762 338.847 76.2575 333.99L72.1016 334.777ZM73.397 350.752L73.397 357.318L77.6266 357.318L77.6266 350.752L73.397 350.752ZM73.397 357.318C73.397 363.698 72.9588 369.279 72.098 374.075L76.261 374.822C77.1766 369.721 77.6266 363.881 77.6266 357.318L73.397 357.318ZM72.098 374.075C71.2269 378.928 70.1276 382.656 68.8457 385.336L72.6614 387.161C74.171 384.005 75.3557 379.866 76.261 374.822L72.098 374.075ZM68.8382 385.352C67.5379 388.13 65.9793 390.297 64.1945 391.914L67.0347 395.048C69.3103 392.986 71.1777 390.331 72.6689 387.145L68.8382 385.352ZM64.1682 391.939C62.294 393.696 60.5138 394.807 58.8365 395.383L60.2115 399.383C62.5946 398.564 64.8748 397.074 67.061 395.024L64.1682 391.939ZM58.8168 395.39C57.0976 396 55.2136 396.315 53.1479 396.315L53.1479 400.545C55.6501 400.545 58.0169 400.162 60.2312 399.376L58.8168 395.39ZM53.1479 396.315L52.1962 396.315L52.1962 400.545L53.1479 400.545L53.1479 396.315ZM54.311 398.43L54.311 375.4L50.0815 375.4L50.0815 398.43L54.311 398.43ZM52.5439 377.486C53.4437 377.336 54.2952 377.096 55.0453 376.721L53.1538 372.937C52.8888 373.07 52.4714 373.21 51.8486 373.314L52.5439 377.486ZM54.7683 376.835C55.7912 376.494 56.7974 375.72 57.7274 374.856L54.8494 371.757C54.0029 372.543 53.5499 372.783 53.4308 372.823L54.7683 376.835ZM57.7274 374.856C58.8702 373.795 59.756 372.455 60.421 370.904L56.5334 369.238C56.0563 370.351 55.483 371.168 54.8494 371.757L57.7274 374.856ZM60.421 370.904C61.0931 369.335 61.6334 367.137 62.0859 364.423L57.9138 363.728C57.478 366.342 57.0032 368.141 56.5334 369.238L60.421 370.904ZM62.0845 364.431C62.5539 361.682 62.7808 358.512 62.7808 354.939L58.5512 354.939C58.5512 358.345 58.334 361.266 57.9152 363.719L62.0845 364.431ZM62.7808 354.939L62.7808 353.417L58.5512 353.417L58.5512 354.939L62.7808 354.939ZM62.7808 353.417C62.7808 348.031 62.4316 343.74 61.6735 340.638L57.5649 341.642C58.2025 344.251 58.5512 348.144 58.5512 353.417L62.7808 353.417ZM61.6836 340.682C61.3536 339.197 60.9913 337.925 60.5835 336.905C60.2014 335.95 59.6772 334.946 58.8794 334.282L56.1717 337.531C56.1352 337.5 56.3405 337.686 56.6564 338.476C56.9464 339.201 57.2503 340.229 57.5547 341.599L61.6836 340.682ZM58.8647 334.269C57.6611 333.285 56.1367 332.935 54.5754 332.935L54.5754 337.165C55.5518 337.165 55.9942 337.386 56.1864 337.543L58.8647 334.269ZM54.5754 332.935C52.9863 332.935 51.4902 333.361 50.2714 334.377L52.9791 337.626C53.283 337.373 53.7536 337.165 54.5754 337.165L54.5754 332.935ZM50.1962 334.442C49.5009 335.08 48.9927 335.959 48.5951 336.863C48.1836 337.798 47.8169 338.933 47.4831 340.234L51.5801 341.285C51.8808 340.112 52.1802 339.217 52.4665 338.566C52.7669 337.884 52.9883 337.621 53.0543 337.56L50.1962 334.442ZM47.48 340.247C46.7872 343.018 46.4345 346.759 46.3702 351.389L50.5994 351.448C50.662 346.941 51.0071 343.577 51.5833 341.273L47.48 340.247ZM46.3703 351.384L46.1799 363.28L50.409 363.348L50.5993 351.452L46.3703 351.384ZM46.1801 363.273C45.9277 376.394 44.1208 385.456 41.0375 390.808L44.7025 392.919C48.3443 386.598 50.1536 376.627 50.4089 363.355L46.1801 363.273ZM41.0242 390.832C38.1219 396.022 33.651 398.599 27.2628 398.599L27.2628 402.829C35.0861 402.829 41.0199 399.506 44.7159 392.896L41.0242 390.832ZM27.2628 398.599L25.9305 398.599L25.9305 402.829L27.2628 402.829L27.2628 398.599ZM25.9305 398.599C23.4813 398.599 21.3253 398.33 19.4447 397.817L18.3318 401.898C20.6385 402.527 23.1773 402.829 25.9305 402.829L25.9305 398.599ZM19.4608 397.822C17.7889 397.352 15.9523 396.351 13.9517 394.704L11.2629 397.969C13.5766 399.874 15.9272 401.222 18.3157 401.893L19.4608 397.822ZM13.9517 394.704C12.0674 393.152 10.4335 391.03 9.08242 388.269L5.28334 390.129C6.85066 393.331 8.83305 395.968 11.2629 397.969L13.9517 394.704ZM9.07441 388.253C7.74055 385.586 6.58049 381.774 5.64602 376.728L1.48715 377.498C2.45599 382.73 3.7068 386.976 5.29135 390.145L9.07441 388.253ZM5.64972 376.748C4.78814 371.825 4.34906 365.989 4.34906 359.222L0.119474 359.222C0.119473 366.159 0.568599 372.25 1.48345 377.478L5.64972 376.748ZM4.04241 437.11L6.10388 437.582L6.10388 437.582L4.04241 437.11ZM8.42003 424.929L6.60661 423.84L6.60661 423.84L8.42003 424.929ZM14.6058 418.077L13.4327 416.317L13.4065 416.334L13.3809 416.353L14.6058 418.077ZM21.2674 414.841L20.8016 412.778L20.7702 412.785L20.739 412.793L21.2674 414.841ZM28.5952 414.175L30.7099 414.175L30.7099 412.06L28.5952 412.06L28.5952 414.175ZM28.5952 437.3L28.7382 439.41L30.7099 439.276L30.7099 437.3L28.5952 437.3ZM17.9366 470.703L15.8396 470.977L15.8425 470.999L15.8459 471.021L17.9366 470.703ZM19.7447 477.079L21.5809 476.03L21.5809 476.03L19.7447 477.079ZM22.0287 479.744L20.9631 481.571L20.9943 481.589L21.0261 481.606L22.0287 479.744ZM28.5 479.268L27.1237 477.662L27.1237 477.662L28.5 479.268ZM30.784 473.939L28.7323 473.426L28.7268 473.448L28.7218 473.47L30.784 473.939ZM32.0211 461.853L34.1353 461.904L34.1353 461.902L32.0211 461.853ZM32.3066 449.672L30.1926 449.613L30.1924 449.622L32.3066 449.672ZM60.1902 415.983L59.5825 418.009L59.5915 418.011L59.6005 418.014L60.1902 415.983ZM65.9953 419.409L64.5805 420.981L64.5933 420.992L64.6063 421.004L65.9953 419.409ZM70.9439 426.07L72.8524 425.16L72.8483 425.151L72.8442 425.142L70.9439 426.07ZM74.1795 437.3L72.0966 437.666L72.099 437.68L72.1016 437.693L74.1795 437.3ZM74.1795 477.365L72.098 476.991L74.1795 477.365ZM70.7535 489.165L68.8457 488.253L68.8419 488.261L68.8382 488.269L70.7535 489.165ZM65.6146 496.398L64.1945 494.831L64.1812 494.843L64.1682 494.855L65.6146 496.398ZM59.524 500.3L58.8365 498.3L58.8266 498.303L58.8168 498.307L59.524 500.3ZM52.1962 501.347L50.0814 501.347L50.0814 503.461L52.1962 503.461L52.1962 501.347ZM52.1962 478.316L51.8486 476.23L50.0814 476.525L50.0814 478.316L52.1962 478.316ZM54.0996 477.745L53.4308 475.739L53.2882 475.787L53.1538 475.854L54.0996 477.745ZM56.2884 476.223L54.8494 474.673L54.8494 474.673L56.2884 476.223ZM58.4772 472.987L56.5334 472.154L56.5334 472.154L58.4772 472.987ZM59.9998 466.992L57.9152 466.636L57.9138 466.644L59.9998 466.992ZM59.6192 444.057L57.5547 444.516L57.5596 444.537L57.5649 444.559L59.6192 444.057ZM57.5255 438.823L58.8794 437.198L58.8721 437.192L58.8647 437.186L57.5255 438.823ZM51.6253 438.918L50.2714 437.293L50.233 437.325L50.1962 437.359L51.6253 438.918ZM49.5316 443.676L47.483 443.151L47.48 443.163L49.5316 443.676ZM48.4848 454.335L50.5993 454.369L50.5994 454.364L48.4848 454.335ZM48.2944 466.23L50.4089 466.271L50.409 466.264L48.2944 466.23ZM42.87 494.78L41.0375 493.724L41.0308 493.736L41.0242 493.748L42.87 494.78ZM18.8883 502.774L18.3157 504.81L18.3237 504.812L18.3318 504.814L18.8883 502.774ZM12.6073 499.253L11.2629 500.885L11.2629 500.885L12.6073 499.253ZM7.18288 492.115L9.08242 491.186L9.07844 491.178L9.0744 491.17L7.18288 492.115ZM3.56658 480.029L1.48345 480.394L1.48524 480.404L1.48714 480.415L3.56658 480.029ZM4.34905 462.138L4.34905 455.572L0.119469 455.572L0.119469 462.138L4.34905 462.138ZM4.34905 455.572C4.34905 448.643 4.94269 442.654 6.10388 437.582L1.98094 436.638C0.731265 442.097 0.11947 448.416 0.119469 455.572L4.34905 455.572ZM6.10388 437.582C7.28648 432.416 8.68392 428.599 10.2335 426.017L6.60661 423.84C4.73018 426.968 3.2092 431.272 1.98094 436.638L6.10388 437.582ZM10.2335 426.017C11.8151 423.38 13.686 421.324 15.8307 419.801L13.3809 416.353C10.7039 418.255 8.45088 420.767 6.60661 423.84L10.2335 426.017ZM15.7789 419.836C18.1389 418.263 20.1385 417.316 21.7958 416.889L20.739 412.793C18.4628 413.381 16.0213 414.591 13.4327 416.317L15.7789 419.836ZM21.7332 416.904C23.5326 416.497 25.4689 416.29 27.5483 416.29L27.5483 412.06C25.1867 412.06 22.9357 412.296 20.8016 412.778L21.7332 416.904ZM27.5483 416.29L28.5952 416.29L28.5952 412.06L27.5483 412.06L27.5483 416.29ZM26.4804 414.175L26.4804 437.3L30.7099 437.3L30.7099 414.175L26.4804 414.175ZM28.4521 435.19C23.9306 435.497 20.4981 437.84 18.3075 441.943C16.195 445.899 15.2508 451.44 15.2508 458.332L19.4804 458.332C19.4804 451.71 20.4078 446.989 22.0385 443.935C23.591 441.027 25.7734 439.611 28.7382 439.41L28.4521 435.19ZM15.2508 458.332L15.2508 459.664L19.4804 459.664L19.4804 458.332L15.2508 458.332ZM15.2508 459.664C15.2508 464.156 15.4428 467.934 15.8396 470.977L20.0336 470.43C19.6691 467.635 19.4804 464.055 19.4804 459.664L15.2508 459.664ZM15.8459 471.021C16.2998 474.004 16.9478 476.447 17.9086 478.129L21.5809 476.03C21.0191 475.047 20.4616 473.239 20.0273 470.385L15.8459 471.021ZM17.9086 478.129C18.7353 479.575 19.7236 480.848 20.9631 481.571L23.0943 477.917C22.8112 477.752 22.2768 477.248 21.5809 476.03L17.9086 478.129ZM21.0261 481.606C22.2028 482.24 23.5086 482.525 24.8837 482.525L24.8837 478.295C24.1017 478.295 23.5042 478.137 23.0313 477.882L21.0261 481.606ZM24.8837 482.525C26.7561 482.525 28.5015 482.052 29.8763 480.874L27.1237 477.662C26.7221 478.007 26.0566 478.295 24.8837 478.295L24.8837 482.525ZM29.8763 480.874C30.6763 480.188 31.2459 479.213 31.6809 478.198C32.1298 477.151 32.5127 475.875 32.8462 474.408L28.7218 473.47C28.4208 474.795 28.1058 475.803 27.7933 476.532C27.4671 477.293 27.2118 477.587 27.1237 477.662L29.8763 480.874ZM32.8356 474.452C33.5904 471.433 34.0072 467.22 34.1353 461.904L29.9069 461.802C29.7813 467.018 29.3733 470.862 28.7323 473.426L32.8356 474.452ZM34.1353 461.902L34.4208 449.721L30.1924 449.622L29.9069 461.803L34.1353 461.902ZM34.4206 449.73C34.7341 438.351 36.6015 430.147 39.782 424.852C42.8657 419.717 47.2133 417.241 53.0527 417.241L53.0527 413.012C45.6959 413.012 39.9876 416.294 36.156 422.674C32.4211 428.893 30.5136 437.962 30.1926 449.613L34.4206 449.73ZM53.0527 417.241L53.9092 417.241L53.9092 413.012L53.0527 413.012L53.0527 417.241ZM53.9092 417.241C56.0175 417.241 57.9032 417.505 59.5825 418.009L60.7978 413.957C58.6705 413.319 56.3689 413.012 53.9092 413.012L53.9092 417.241ZM59.6005 418.014C61.1944 418.477 62.8564 419.429 64.5805 420.981L67.41 417.837C65.3276 415.963 63.1195 414.631 60.7798 413.952L59.6005 418.014ZM64.6063 421.004C66.3277 422.503 67.8153 424.483 69.0436 426.999L72.8442 425.142C71.4078 422.201 69.5964 419.741 67.3842 417.814L64.6063 421.004ZM69.0353 426.981C70.2533 429.533 71.2892 433.07 72.0966 437.666L76.2624 436.934C75.4203 432.141 74.2991 428.191 72.8524 425.16L69.0353 426.981ZM72.1016 437.693C72.9592 442.226 73.397 447.546 73.397 453.669L77.6266 453.669C77.6266 447.356 77.1762 441.763 76.2574 436.907L72.1016 437.693ZM73.397 453.669L73.397 460.235L77.6266 460.235L77.6266 453.669L73.397 453.669ZM73.397 460.235C73.397 466.615 72.9588 472.195 72.098 476.991L76.261 477.738C77.1766 472.637 77.6266 466.798 77.6266 460.235L73.397 460.235ZM72.098 476.991C71.2269 481.844 70.1276 485.573 68.8457 488.253L72.6614 490.078C74.171 486.921 75.3557 482.783 76.261 477.738L72.098 476.991ZM68.8382 488.269C67.5379 491.047 65.9793 493.213 64.1945 494.831L67.0347 497.965C69.3103 495.903 71.1776 493.248 72.6689 490.062L68.8382 488.269ZM64.1682 494.855C62.294 496.612 60.5138 497.723 58.8365 498.3L60.2115 502.3C62.5946 501.48 64.8748 499.99 67.061 497.941L64.1682 494.855ZM58.8168 498.307C57.0976 498.917 55.2136 499.232 53.1479 499.232L53.1479 503.461C55.6501 503.461 58.0169 503.078 60.2312 502.293L58.8168 498.307ZM53.1479 499.232L52.1962 499.232L52.1962 503.461L53.1479 503.461L53.1479 499.232ZM54.311 501.347L54.311 478.316L50.0814 478.316L50.0814 501.347L54.311 501.347ZM52.5439 480.402C53.4437 480.252 54.2952 480.012 55.0453 479.637L53.1538 475.854C52.8888 475.986 52.4714 476.127 51.8486 476.23L52.5439 480.402ZM54.7683 479.752C55.7912 479.411 56.7974 478.636 57.7274 477.773L54.8494 474.673C54.0029 475.459 53.5499 475.699 53.4308 475.739L54.7683 479.752ZM57.7274 477.773C58.8702 476.711 59.756 475.372 60.421 473.82L56.5334 472.154C56.0563 473.267 55.483 474.085 54.8494 474.673L57.7274 477.773ZM60.421 473.82C61.0931 472.252 61.6334 470.054 62.0858 467.339L57.9138 466.644C57.478 469.259 57.0032 471.058 56.5334 472.154L60.421 473.82ZM62.0845 467.348C62.5538 464.598 62.7808 461.429 62.7808 457.856L58.5512 457.856C58.5512 461.262 58.334 464.183 57.9152 466.636L62.0845 467.348ZM62.7808 457.856L62.7808 456.333L58.5512 456.333L58.5512 457.856L62.7808 457.856ZM62.7808 456.333C62.7808 450.948 62.4316 446.656 61.6735 443.555L57.5649 444.559C58.2025 447.167 58.5512 451.06 58.5512 456.333L62.7808 456.333ZM61.6836 443.598C61.3536 442.113 60.9913 440.841 60.5835 439.822C60.2014 438.867 59.6772 437.863 58.8794 437.198L56.1717 440.447C56.1352 440.417 56.3405 440.603 56.6564 441.392C56.9464 442.118 57.2503 443.145 57.5547 444.516L61.6836 443.598ZM58.8647 437.186C57.6611 436.201 56.1367 435.851 54.5754 435.851L54.5754 440.081C55.5518 440.081 55.9942 440.302 56.1864 440.459L58.8647 437.186ZM54.5754 435.851C52.9863 435.851 51.4902 436.278 50.2714 437.293L52.9791 440.542C53.283 440.289 53.7536 440.081 54.5754 440.081L54.5754 435.851ZM50.1962 437.359C49.5009 437.996 48.9927 438.876 48.5951 439.779C48.1836 440.714 47.8169 441.849 47.4831 443.151L51.5801 444.201C51.8808 443.029 52.1802 442.133 52.4665 441.483C52.7669 440.8 52.9883 440.537 53.0543 440.477L50.1962 437.359ZM47.48 443.163C46.7872 445.934 46.4345 449.676 46.3702 454.305L50.5994 454.364C50.662 449.858 51.0071 446.494 51.5833 444.189L47.48 443.163ZM46.3703 454.301L46.1799 466.197L50.409 466.264L50.5993 454.369L46.3703 454.301ZM46.18 466.19C45.9277 479.31 44.1208 488.372 41.0375 493.724L44.7025 495.836C48.3443 489.514 50.1536 479.543 50.4088 466.271L46.18 466.19ZM41.0242 493.748C38.1219 498.939 33.651 501.516 27.2628 501.516L27.2628 505.745C35.0861 505.745 41.0199 502.422 44.7159 495.812L41.0242 493.748ZM27.2628 501.516L25.9305 501.516L25.9305 505.745L27.2628 505.745L27.2628 501.516ZM25.9305 501.516C23.4813 501.516 21.3253 501.247 19.4447 500.734L18.3318 504.814C20.6385 505.443 23.1773 505.745 25.9305 505.745L25.9305 501.516ZM19.4608 500.738C17.7889 500.268 15.9523 499.268 13.9517 497.62L11.2629 500.885C13.5766 502.791 15.9272 504.138 18.3157 504.81L19.4608 500.738ZM13.9517 497.62C12.0674 496.069 10.4335 493.947 9.08242 491.186L5.28333 493.045C6.85066 496.248 8.83305 498.884 11.2629 500.885L13.9517 497.62ZM9.0744 491.17C7.74054 488.502 6.58049 484.69 5.64602 479.644L1.48714 480.415C2.45599 485.646 3.70679 489.892 5.29135 493.061L9.0744 491.17ZM5.64972 479.665C4.78814 474.742 4.34905 468.905 4.34905 462.138L0.119469 462.138C0.119469 469.075 0.568595 475.166 1.48345 480.394L5.64972 479.665ZM74.2747 542.881L74.2747 544.996L76.3895 544.996L76.3895 542.881L74.2747 542.881ZM3.47141 542.881L1.35662 542.881L1.35662 544.996L3.47141 544.996L3.47141 542.881ZM3.47141 520.708L3.47141 518.593L1.35662 518.593L1.35662 520.708L3.47141 520.708ZM74.2747 520.708L76.3895 520.708L76.3895 518.593L74.2747 518.593L74.2747 520.708ZM74.2747 540.766L3.47141 540.766L3.47141 544.996L74.2747 544.996L74.2747 540.766ZM5.5862 542.881L5.58621 520.708L1.35662 520.708L1.35662 542.881L5.5862 542.881ZM3.47141 522.822L74.2747 522.822L74.2747 518.593L3.47141 518.593L3.47141 522.822ZM72.1599 520.708L72.1599 542.881L76.3895 542.881L76.3895 520.708L72.1599 520.708ZM3.56658 592.242L1.48864 591.849L3.56658 592.242ZM6.99254 580.346L5.07127 579.462L5.06072 579.485L5.05071 579.508L6.99254 580.346ZM12.2267 571.876L10.6122 570.51L10.6019 570.522L10.5918 570.535L12.2267 571.876ZM25.2644 562.55L24.5333 560.566L24.5105 560.574L24.4879 560.583L25.2644 562.55ZM31.8308 560.742L31.5601 558.644L31.527 558.649L31.494 558.654L31.8308 560.742ZM49.1509 561.218L49.5842 559.148L49.5842 559.148L49.1509 561.218ZM58.2868 565.024L59.3799 563.214L59.3673 563.206L59.3546 563.199L58.2868 565.024ZM66.9469 572.923L68.6427 571.66L68.6427 571.66L66.9469 572.923ZM73.0375 586.722L75.0773 586.164L75.0758 586.158L73.0375 586.722ZM73.323 632.306L71.2688 631.804L71.2663 631.814L71.2639 631.825L73.323 632.306ZM68.0889 646.105L66.3134 644.957L66.3004 644.977L66.2878 644.997L68.0889 646.105ZM60.9515 654.099L59.6889 652.403L59.6667 652.419L59.6449 652.437L60.9515 654.099ZM53.7189 658.096L53.1777 656.052L53.1415 656.062L53.1056 656.072L53.7189 658.096ZM46.5815 659.048L44.4667 659.048L44.4667 661.163L46.5815 661.163L46.5815 659.048ZM46.5815 635.542L46.0685 633.49L44.4667 633.891L44.4667 635.542L46.5815 635.542ZM48.5799 634.781L47.7945 632.817L47.6701 632.867L47.5529 632.932L48.5799 634.781ZM51.5301 632.592L50.1538 630.986L50.1323 631.005L50.1112 631.024L51.5301 632.592ZM54.8609 628.31L52.9989 627.307L52.991 627.321L52.9835 627.336L54.8609 628.31ZM57.24 620.887L55.1814 620.402L55.176 620.426L55.171 620.449L57.24 620.887ZM56.7642 596.619L54.7308 597.2L54.7341 597.212L54.7376 597.224L56.7642 596.619ZM52.4817 588.53L53.9771 587.035L53.964 587.022L53.9507 587.009L52.4817 588.53ZM32.2114 584.819L31.4562 582.843L31.4206 582.857L31.3855 582.872L32.2114 584.819ZM26.0257 588.911L24.6056 587.344L24.5932 587.355L24.5809 587.367L26.0257 588.911ZM21.2674 597.095L19.2611 596.426L19.2611 596.426L21.2674 597.095ZM31.7356 635.542L32.6814 633.651L32.5336 633.577L32.3762 633.527L31.7356 635.542ZM32.0211 635.637L34.1359 635.637L34.1359 633.522L32.0211 633.522L32.0211 635.637ZM32.0211 659.143L32.0211 661.258L34.1359 661.258L34.1359 659.143L32.0211 659.143ZM24.503 658.096L25.1371 656.079L25.1107 656.071L25.084 656.063L24.503 658.096ZM16.9849 654.004L15.6974 655.682L15.7067 655.689L15.7161 655.696L16.9849 654.004ZM9.75234 645.915L7.96676 647.048L7.96676 647.048L9.75234 645.915ZM4.42306 632.021L6.47727 631.518L6.47601 631.513L4.42306 632.021ZM4.34905 611.656L4.34905 607.754L0.119463 607.754L0.119463 611.656L4.34905 611.656ZM4.34905 607.754C4.34905 602.216 4.78475 597.179 5.64451 592.635L1.48864 591.849C0.57197 596.694 0.119463 601.998 0.119463 607.754L4.34905 607.754ZM5.64451 592.635C6.5133 588.043 7.61752 584.236 8.93437 581.184L5.05071 579.508C3.57603 582.927 2.39628 587.051 1.48864 591.849L5.64451 592.635ZM8.91381 581.23C10.3043 578.207 11.9558 575.54 13.8615 573.218L10.5918 570.535C8.43707 573.161 6.5992 576.141 5.07127 579.462L8.91381 581.23ZM13.8411 573.242C15.8415 570.878 17.7913 569.09 19.6807 567.831L17.3345 564.312C15.0366 565.843 12.7991 567.926 10.6122 570.51L13.8411 573.242ZM19.6807 567.831C21.6461 566.52 23.7649 565.415 26.0408 564.517L24.4879 560.583C21.942 561.588 19.5563 562.83 17.3345 564.312L19.6807 567.831ZM25.9954 564.534C28.3131 563.681 30.3673 563.12 32.1675 562.83L31.494 558.654C29.3607 558.998 27.0373 559.643 24.5333 560.566L25.9954 564.534ZM32.1014 562.839C33.9792 562.597 35.8555 562.476 37.7311 562.476L37.7311 558.246C35.6731 558.246 33.6159 558.379 31.5601 558.644L32.1014 562.839ZM37.7311 562.476L40.4909 562.476L40.4909 558.246L37.7311 558.246L37.7311 562.476ZM40.4909 562.476C43.4039 562.476 46.1445 562.749 48.7177 563.288L49.5842 559.148C46.7012 558.544 43.6685 558.246 40.4909 558.246L40.4909 562.476ZM48.7177 563.288C51.1532 563.797 53.9814 564.956 57.2191 566.85L59.3546 563.199C55.8672 561.159 52.6048 559.78 49.5842 559.148L48.7177 563.288ZM57.1938 566.835C60.3154 568.72 62.9993 571.164 65.2511 574.187L68.6427 571.66C66.0728 568.21 62.9833 565.39 59.3799 563.214L57.1938 566.835ZM65.2511 574.187C67.445 577.131 69.3862 581.454 70.9993 587.286L75.0758 586.158C73.3897 580.063 71.2706 575.186 68.6427 571.66L65.2511 574.187ZM70.9977 587.28C72.5859 593.083 73.397 599.899 73.397 607.754L77.6266 607.754C77.6266 599.621 76.7882 592.415 75.0773 586.164L70.9977 587.28ZM73.397 607.754L73.397 611.656L77.6266 611.656L77.6266 607.754L73.397 607.754ZM73.397 611.656C73.397 619.333 72.6786 626.042 71.2688 631.804L75.3772 632.809C76.8858 626.644 77.6266 619.585 77.6266 611.656L73.397 611.656ZM71.2639 631.825C69.8948 637.674 68.2203 642.01 66.3134 644.957L69.8644 647.254C72.1448 643.73 73.9597 638.866 75.3822 632.788L71.2639 631.825ZM66.2878 644.997C64.3788 648.099 62.174 650.553 59.6889 652.403L62.214 655.796C65.1851 653.585 67.7386 650.71 69.89 647.214L66.2878 644.997ZM59.6449 652.437C57.1007 654.436 54.9503 655.583 53.1777 656.052L54.26 660.141C56.8016 659.468 59.473 657.951 62.258 655.762L59.6449 652.437ZM53.1056 656.072C51.1887 656.653 49.3654 656.933 47.6283 656.933L47.6283 661.163C49.8247 661.163 52.0618 660.808 54.3322 660.12L53.1056 656.072ZM47.6283 656.933L46.5815 656.933L46.5815 661.163L47.6283 661.163L47.6283 656.933ZM48.6962 659.048L48.6963 635.542L44.4667 635.542L44.4667 659.048L48.6962 659.048ZM47.0944 637.594C48.0004 637.367 48.8456 637.052 49.607 636.629L47.5529 632.932C47.1723 633.144 46.6852 633.336 46.0685 633.49L47.0944 637.594ZM49.3653 636.744C50.3983 636.331 51.6393 635.345 52.9489 634.16L50.1112 631.024C48.7562 632.25 48.0304 632.723 47.7945 632.817L49.3653 636.744ZM52.9064 634.198C54.4644 632.862 55.7376 631.213 56.7383 629.283L52.9835 627.336C52.2077 628.832 51.2604 630.038 50.1538 630.986L52.9064 634.198ZM56.7229 629.312C57.7542 627.397 58.5971 624.69 59.309 621.324L55.171 620.449C54.4872 623.681 53.744 625.923 52.9989 627.307L56.7229 629.312ZM59.2986 621.371C60.1059 617.94 60.4968 614.028 60.4968 609.657L56.2672 609.657C56.2672 613.787 55.8967 617.362 55.1814 620.402L59.2986 621.371ZM60.4968 609.657C60.4968 604.443 59.944 599.882 58.7908 596.015L54.7376 597.224C55.7415 600.59 56.2672 604.721 56.2672 609.657L60.4968 609.657ZM58.7976 596.038C57.7229 592.277 56.1556 589.213 53.9771 587.035L50.9864 590.026C52.4876 591.527 53.7753 593.856 54.7308 597.2L58.7976 596.038ZM53.9507 587.009C51.9395 585.067 49.7645 583.623 47.4192 582.743L45.9341 586.704C47.6491 587.347 49.3443 588.441 51.0128 590.052L53.9507 587.009ZM47.4192 582.743C45.1264 581.884 42.6512 581.467 40.015 581.467L40.015 585.696C42.2006 585.696 44.1664 586.041 45.9341 586.704L47.4192 582.743ZM40.015 581.467L38.873 581.467L38.873 585.696L40.015 585.696L40.015 581.467ZM38.873 581.467C36.328 581.467 33.8517 581.928 31.4562 582.843L32.9667 586.794C34.8854 586.061 36.8501 585.696 38.873 585.696L38.873 581.467ZM31.3855 582.872C29.0345 583.869 26.7763 585.377 24.6056 587.344L27.4458 590.478C29.3354 588.766 31.2011 587.545 33.0374 586.766L31.3855 582.872ZM24.5809 587.367C22.2724 589.526 20.5344 592.607 19.2611 596.426L23.2737 597.764C24.4113 594.351 25.8455 591.975 27.4704 590.455L24.5809 587.367ZM19.2611 596.426C17.9668 600.309 17.3445 604.796 17.3445 609.847L21.574 609.847C21.574 605.129 22.1571 601.114 23.2737 597.764L19.2611 596.426ZM17.3445 609.847C17.3445 624.57 21.4961 634.507 31.095 637.558L32.3762 633.527C25.6066 631.375 21.574 624.182 21.574 609.847L17.3445 609.847ZM30.7899 637.434C30.9333 637.505 31.4188 637.752 32.0211 637.752L32.0211 633.522C32.1764 633.522 32.3008 633.541 32.3823 633.558C32.466 633.574 32.5304 633.594 32.5709 633.607C32.6481 633.633 32.6888 633.654 32.6814 633.651L30.7899 637.434ZM29.9063 635.637L29.9063 659.143L34.1359 659.143L34.1359 635.637L29.9063 635.637ZM32.0211 657.028L30.9743 657.028L30.9743 661.258L32.0211 661.258L32.0211 657.028ZM30.9743 657.028C29.1183 657.028 27.1751 656.719 25.1371 656.079L23.8689 660.114C26.272 660.869 28.643 661.258 30.9743 661.258L30.9743 657.028ZM25.084 656.063C23.2047 655.526 20.9337 654.322 18.2538 652.312L15.7161 655.696C18.6192 657.873 21.3603 659.398 23.922 660.13L25.084 656.063ZM18.2725 652.327C15.7659 650.403 13.5166 647.9 11.5379 644.782L7.96676 647.048C10.1753 650.529 12.7478 653.418 15.6974 655.682L18.2725 652.327ZM11.5379 644.782C9.61713 641.755 7.90932 637.371 6.47726 631.518L2.36887 632.524C3.85522 638.598 5.70026 643.477 7.96676 647.048L11.5379 644.782ZM6.47601 631.513C5.06698 625.816 4.34905 619.204 4.34905 611.656L0.119463 611.656C0.119462 619.461 0.86074 626.426 2.37012 632.529L6.47601 631.513Z" fill="#F14251"/>
</svg>
