<svg width="65" height="661" viewBox="0 0 65 661" fill="none" xmlns="http://www.w3.org/2000/svg">
<path d="M4.60785 24.9848L2.92364 24.5169L2.92364 24.5169L4.60785 24.9848ZM9.56335 13.6579L8.15547 12.6219L8.1445 12.6368L8.13385 12.652L9.56335 13.6579ZM16.6426 6.81458L15.6861 5.35158L15.6795 5.35585L15.673 5.36018L16.6426 6.81458ZM24.4299 3.11762L24.0059 1.42183L23.9848 1.42711L23.9639 1.4329L24.4299 3.11762ZM41.6561 2.9603L42.0627 1.26026L42.049 1.257L42.0353 1.25395L41.6561 2.9603ZM49.2861 6.42129L50.2426 4.95827L50.2356 4.95374L49.2861 6.42129ZM56.2867 13.2646L54.8534 14.2652L54.8597 14.2742L54.8661 14.2831L56.2867 13.2646ZM61.2422 24.7488L62.9314 24.2995L62.9302 24.295L61.2422 24.7488ZM61.6355 61.7184L63.3427 62.0936L63.3427 62.0936L61.6355 61.7184ZM57.7025 72.888L56.1959 72.0017L56.1857 72.019L56.1759 72.0366L57.7025 72.888ZM52.1964 79.574L51.1004 78.2123L51.0922 78.2189L51.084 78.2256L52.1964 79.574ZM46.3757 83.035L45.8376 81.3719L45.8302 81.3743L45.8229 81.3767L46.3757 83.035ZM41.0269 83.9789L41.0269 85.7268L41.0518 85.7268L41.0768 85.7261L41.0269 83.9789ZM40.9482 83.9789L39.2002 83.9789L39.2002 85.7268L40.9482 85.7268L40.9482 83.9789ZM40.9482 64.4715L40.3722 62.8212L39.2002 63.2302L39.2002 64.4715L40.9482 64.4715ZM21.5195 26.7939L20.1909 25.6579L20.1829 25.6674L21.5195 26.7939ZM17.5865 52.4367L15.8642 52.7348L15.8642 52.7348L17.5865 52.4367ZM19.317 58.9654L20.929 58.2894L20.929 58.2894L19.317 58.9654ZM21.5195 63.0556L20.0971 64.0716L20.1014 64.0777L20.1058 64.0837L21.5195 63.0556ZM23.7219 65.4154L24.7707 64.017L24.7319 63.9879L24.6915 63.961L23.7219 65.4154ZM25.3738 66.1233L25.3738 67.8713L27.1217 67.8713L27.1217 66.1233L25.3738 66.1233ZM25.3738 43.155L25.3738 41.407L23.6258 41.407L23.6258 43.155L25.3738 43.155ZM36.4647 43.155L38.2126 43.155L38.2126 41.407L36.4647 41.407L36.4647 43.155ZM36.4647 84.3722L36.4647 86.1201L38.2126 86.1201L38.2126 84.3722L36.4647 84.3722ZM3.66394 84.3722L1.91596 84.3722L1.91596 86.1201L3.66394 86.1201L3.66394 84.3722ZM3.66394 73.3599L3.46138 71.6237L1.91596 71.804L1.91596 73.3599L3.66394 73.3599ZM12.7884 71.0002L13.4524 72.6171L16.0759 71.5396L13.9343 69.6803L12.7884 71.0002ZM4.38935 42.8403L4.38935 41.1885L0.893401 41.1885L0.893401 42.8403L4.38935 42.8403ZM4.38935 41.1885C4.38935 35.2272 5.03214 29.9883 6.29205 25.4526L2.92364 24.5169C1.56159 29.4203 0.893401 34.9839 0.893401 41.1885L4.38935 41.1885ZM6.29205 25.4526C7.56991 20.8523 9.15212 17.2796 10.9929 14.6638L8.13385 12.652C5.9892 15.6996 4.26774 19.6782 2.92364 24.5169L6.29205 25.4526ZM10.9712 14.6939C12.9047 12.0664 15.1193 9.93097 17.6122 8.26898L15.673 5.36018C12.8172 7.26405 10.3123 9.69082 8.15547 12.6219L10.9712 14.6939ZM17.5992 8.27758C20.2143 6.56774 22.6453 5.42482 24.8959 4.80233L23.9639 1.4329C21.2851 2.17384 18.5247 3.49555 15.6861 5.35158L17.5992 8.27758ZM24.8538 4.8134C27.2336 4.21845 29.6346 3.92169 32.0598 3.92169L32.0598 0.425739C29.3459 0.425739 26.6603 0.758242 24.0059 1.42183L24.8538 4.8134ZM32.0598 3.92169L34.2622 3.92169L34.2622 0.425739L32.0598 0.425739L32.0598 3.92169ZM34.2622 3.92169C36.7122 3.92169 39.0492 4.1716 41.277 4.66665L42.0353 1.25395C39.5435 0.700215 36.9513 0.425739 34.2622 0.425739L34.2622 3.92169ZM41.2496 4.66034C43.4229 5.18004 45.7836 6.23698 48.3365 7.88883L50.2356 4.95374C47.4397 3.14461 44.7138 1.89422 42.0627 1.26026L41.2496 4.66034ZM48.3295 7.88429C50.8618 9.54004 53.0358 11.6616 54.8534 14.2652L57.7199 12.264C55.6571 9.30909 53.164 6.86841 50.2426 4.95829L48.3295 7.88429ZM54.8661 14.2831C56.6929 16.831 58.2741 20.4409 59.5541 25.2026L62.9302 24.295C61.5883 19.303 59.8659 15.2568 57.7073 12.2461L54.8661 14.2831ZM59.5529 25.1981C60.8162 29.9481 61.4607 35.4814 61.4607 41.8178L64.9566 41.8178C64.9566 35.254 64.2901 29.408 62.9314 24.2995L59.5529 25.1981ZM61.4607 41.8178L61.4607 45.2001L64.9566 45.2001L64.9566 41.8178L61.4607 41.8178ZM61.4607 45.2001C61.4607 51.347 60.9437 56.7229 59.9283 61.3432L63.3427 62.0936C64.4248 57.17 64.9566 51.5336 64.9566 45.2001L61.4607 45.2001ZM59.9283 61.3432C58.899 66.0262 57.638 69.5501 56.1959 72.0017L59.2092 73.7742C60.9134 70.877 62.2744 66.9546 63.3427 62.0936L59.9283 61.3432ZM56.1759 72.0366C54.7503 74.5929 53.054 76.6399 51.1004 78.2123L53.2924 80.9357C55.6389 79.047 57.6133 76.6368 59.2292 73.7394L56.1759 72.0366ZM51.084 78.2256C49.0863 79.8738 47.3391 80.8861 45.8376 81.3719L46.9137 84.6981C48.9781 84.0302 51.1114 82.7351 53.3088 80.9223L51.084 78.2256ZM45.8229 81.3767C44.2559 81.8991 42.6424 82.184 40.977 82.2316L41.0768 85.7261C43.0821 85.6688 45.0345 85.3246 46.9284 84.6932L45.8229 81.3767ZM41.0269 82.2309L40.9482 82.2309L40.9482 85.7268L41.0269 85.7268L41.0269 82.2309ZM42.6962 83.9789L42.6962 64.4715L39.2002 64.4715L39.2002 83.9789L42.6962 83.9789ZM41.5243 66.1218C44.9042 64.942 47.3018 62.2611 48.8245 58.4543C50.3313 54.6874 51.034 49.7102 51.034 43.6269L47.5381 43.6269C47.5381 49.4997 46.8512 53.9747 45.5786 57.156C44.3221 60.2974 42.5507 62.0607 40.3722 62.8212L41.5243 66.1218ZM51.034 43.6269C51.034 36.0529 49.6987 30.0591 46.7585 25.9194C43.7403 21.6699 39.2092 19.6185 33.4756 19.6185L33.4756 23.1144C38.2824 23.1144 41.6564 24.7731 43.9083 27.9437C46.2383 31.2242 47.5381 36.3606 47.5381 43.6269L51.034 43.6269ZM33.4756 19.6185L32.6104 19.6185L32.6104 23.1144L33.4756 23.1144L33.4756 19.6185ZM32.6104 19.6185C27.7408 19.6185 23.5769 21.6981 20.191 25.6579L22.848 27.9299C25.6499 24.6531 28.8799 23.1144 32.6104 23.1144L32.6104 19.6185ZM20.1829 25.6674C16.7111 29.7865 15.1306 35.8271 15.1306 43.4696L18.6266 43.4696C18.6266 36.2193 20.14 31.1428 22.856 27.9204L20.1829 25.6674ZM15.1306 43.4696C15.1306 46.8039 15.3725 49.8942 15.8642 52.7348L19.3089 52.1386C18.8566 49.5255 18.6266 46.6377 18.6266 43.4696L15.1306 43.4696ZM15.8642 52.7348C16.3474 55.5268 16.9522 57.846 17.7051 59.6414L20.929 58.2894C20.3185 56.8335 19.7696 54.8002 19.3089 52.1386L15.8642 52.7348ZM17.7051 59.6414C18.4229 61.3531 19.2161 62.8382 20.0971 64.0716L22.9419 62.0396C22.2497 61.0706 21.5746 59.8289 20.929 58.2894L17.7051 59.6414ZM20.1058 64.0837C20.9784 65.2835 21.8595 66.2746 22.7523 66.8698L24.6915 63.961C24.3258 63.7172 23.7386 63.135 22.9331 62.0275L20.1058 64.0837ZM22.6732 66.8138C23.3257 67.3031 24.2291 67.8713 25.2165 67.8713L25.2165 64.3754C25.3099 64.3754 25.3666 64.39 25.3765 64.3927C25.3868 64.3955 25.3677 64.3912 25.3158 64.3666C25.207 64.3151 25.0277 64.2098 24.7707 64.017L22.6732 66.8138ZM25.2165 67.8713L25.3738 67.8713L25.3738 64.3754L25.2165 64.3754L25.2165 67.8713ZM27.1217 66.1233L27.1217 43.155L23.6258 43.155L23.6258 66.1233L27.1217 66.1233ZM25.3738 44.9029L36.4647 44.9029L36.4647 41.407L25.3738 41.407L25.3738 44.9029ZM34.7167 43.155L34.7167 84.3722L38.2126 84.3722L38.2126 43.155L34.7167 43.155ZM36.4647 82.6242L3.66394 82.6242L3.66394 86.1201L36.4647 86.1201L36.4647 82.6242ZM5.41191 84.3722L5.41191 73.3599L1.91596 73.3599L1.91596 84.3722L5.41191 84.3722ZM3.86649 75.0961C7.17177 74.7105 10.3685 73.8837 13.4524 72.6171L12.1243 69.3833C9.33502 70.5288 6.44881 71.2752 3.46138 71.6237L3.86649 75.0961ZM13.9343 69.6803C7.69634 64.2643 4.38935 55.4628 4.38935 42.8403L0.893401 42.8403C0.8934 56.0179 4.35107 65.9896 11.6424 72.3201L13.9343 69.6803ZM3.89991 124.033L2.19297 123.656L2.18979 123.671L2.18684 123.685L3.89991 124.033ZM6.96761 114.987L5.41085 114.192L5.41085 114.192L6.96761 114.987ZM11.5298 108.458L10.259 107.258L10.259 107.258L11.5298 108.458ZM16.9573 103.975L17.8566 105.474L17.8566 105.474L16.9573 103.975ZM22.8567 101.222L22.3164 99.5594L22.2978 99.5654L22.2792 99.5719L22.8567 101.222ZM28.5988 99.8059L28.3884 98.0706L28.3626 98.0737L28.3369 98.0776L28.5988 99.8059ZM62.1861 99.4913L63.9341 99.4913L63.9341 97.7433L62.1861 97.7433L62.1861 99.4913ZM62.1861 117.897L62.1861 119.645L63.9341 119.645L63.9341 117.897L62.1861 117.897ZM28.9921 118.684L28.5119 117.003L28.4828 117.012L28.454 117.021L28.9921 118.684ZM23.6433 121.516L22.6078 120.107L22.5977 120.115L22.5877 120.122L23.6433 121.516ZM19.4744 127.494L17.847 126.856L17.8396 126.875L17.8325 126.894L19.4744 127.494ZM19.4744 146.765L17.8404 147.386L17.8437 147.395L17.847 147.403L19.4744 146.765ZM23.6433 152.743L24.7051 151.355L24.6988 151.35L23.6433 152.743ZM28.9921 155.575L29.5162 153.907L29.5008 153.903L29.4853 153.898L28.9921 155.575ZM62.1861 156.44L63.9341 156.44L63.9341 154.692L62.1861 154.692L62.1861 156.44ZM62.1861 174.768L62.1861 176.516L63.9341 176.516L63.9341 174.768L62.1861 174.768ZM26.3177 173.902L26.7081 172.199L26.6912 172.195L26.6742 172.191L26.3177 173.902ZM18.1372 170.677L17.2789 172.2L17.2906 172.207L18.1372 170.677ZM10.5072 164.463L11.8227 163.312L11.8227 163.312L10.5072 164.463ZM5.00113 154.002L6.66136 153.455L6.65941 153.449L5.00113 154.002ZM4.54666 138.821L4.54666 135.989L1.05071 135.989L1.05071 138.821L4.54666 138.821ZM4.54666 135.989C4.54666 131.733 4.90572 127.866 5.61298 124.38L2.18684 123.685C1.4258 127.436 1.05071 131.54 1.05071 135.989L4.54666 135.989ZM5.60685 124.409C6.37094 120.945 7.35105 118.08 8.52436 115.782L5.41085 114.192C4.06708 116.824 3.00206 119.988 2.19297 123.656L5.60685 124.409ZM8.52436 115.782C9.71229 113.456 11.139 111.418 12.8006 109.659L10.259 107.258C8.35473 109.274 6.74 111.589 5.41085 114.192L8.52436 115.782ZM12.8006 109.659C14.4964 107.863 16.1836 106.477 17.8566 105.474L16.058 102.476C14.0602 103.675 12.1291 105.278 10.259 107.258L12.8006 109.659ZM17.8566 105.474C19.5863 104.436 21.4444 103.568 23.4341 102.872L22.2792 99.5719C20.0738 100.344 17.999 101.311 16.058 102.476L17.8566 105.474ZM23.397 102.884C25.4259 102.225 27.2452 101.779 28.8606 101.534L28.3369 98.0776C26.4914 98.3573 24.4826 98.8553 22.3164 99.5594L23.397 102.884ZM28.8091 101.541C30.4703 101.34 32.1306 101.239 33.7903 101.239L33.7903 97.7433C31.9889 97.7433 30.1882 97.8525 28.3884 98.0706L28.8091 101.541ZM33.7903 101.239L62.1861 101.239L62.1861 97.7433L33.7903 97.7433L33.7903 101.239ZM60.4381 99.4913L60.4381 117.897L63.9341 117.897L63.9341 99.4913L60.4381 99.4913ZM62.1861 116.149L34.8915 116.149L34.8915 119.645L62.1861 119.645L62.1861 116.149ZM34.8915 116.149C32.6474 116.149 30.518 116.43 28.5119 117.003L29.4723 120.365C31.1369 119.889 32.9404 119.645 34.8915 119.645L34.8915 116.149ZM28.454 117.021C26.4637 117.665 24.5152 118.705 22.6078 120.107L24.6788 122.924C26.3372 121.704 27.9545 120.857 29.5301 120.347L28.454 117.021ZM22.5877 120.122C20.5305 121.681 18.9763 123.976 17.847 126.856L21.1017 128.132C22.07 125.663 23.295 123.972 24.6988 122.909L22.5877 120.122ZM17.8325 126.894C16.7484 129.861 16.2319 133.325 16.2319 137.247L19.7278 137.247C19.7278 133.618 20.2076 130.58 21.1162 128.094L17.8325 126.894ZM16.2319 137.247C16.2319 141.117 16.7485 144.513 17.8404 147.386L21.1083 146.144C20.2076 143.774 19.7278 140.824 19.7278 137.247L16.2319 137.247ZM17.847 147.403C18.9763 150.283 20.5305 152.578 22.5877 154.137L24.6988 151.35C23.295 150.287 22.07 148.596 21.1017 146.127L17.847 147.403ZM22.5815 154.132C24.5002 155.599 26.4725 156.656 28.4989 157.252L29.4853 153.898C27.9458 153.445 26.3522 152.614 24.7051 151.355L22.5815 154.132ZM28.468 157.243C30.4875 157.877 32.6321 158.188 34.8915 158.188L34.8915 154.692C32.9557 154.692 31.1674 154.426 29.5162 153.907L28.468 157.243ZM34.8915 158.188L62.1861 158.188L62.1861 154.692L34.8915 154.692L34.8915 158.188ZM60.4381 156.44L60.4381 174.768L63.9341 174.768L63.9341 156.44L60.4381 156.44ZM62.1861 173.02L33.7903 173.02L33.7903 176.516L62.1861 176.516L62.1861 173.02ZM33.7903 173.02C31.4631 173.02 29.1032 172.748 26.7081 172.199L25.9272 175.606C28.5663 176.211 31.1881 176.516 33.7903 176.516L33.7903 173.02ZM26.6742 172.191C24.3718 171.712 21.8111 170.713 18.9837 169.148L17.2906 172.207C20.3364 173.893 23.2294 175.045 25.9612 175.614L26.6742 172.191ZM18.9954 169.155C16.2854 167.627 13.8963 165.682 11.8227 163.312L9.19177 165.614C11.5231 168.279 14.2206 170.476 17.2789 172.2L18.9954 169.155ZM11.8227 163.312C9.82335 161.027 8.08382 157.773 6.66135 153.455L3.34092 154.549C4.85504 159.145 6.78626 162.865 9.19177 165.614L11.8227 163.312ZM6.65941 153.449C5.26242 149.258 4.54666 144.39 4.54666 138.821L1.05071 138.821C1.05071 144.683 1.80326 149.936 3.34286 154.555L6.65941 153.449ZM27.5762 232.222L25.8282 232.222L25.8282 235.091L28.3779 233.775L27.5762 232.222ZM49.522 220.895L50.3237 222.448L53.3975 220.862L50.297 219.328L49.522 220.895ZM27.5762 210.04L28.3512 208.473L25.8282 207.225L25.8282 210.04L27.5762 210.04ZM3.66393 244.493L2.86398 242.938L1.91596 243.426L1.91596 244.493L3.66393 244.493ZM14.3615 238.986L15.1615 240.541L16.1095 240.053L16.1095 238.986L14.3615 238.986ZM14.3615 203.511L16.1095 203.511L16.1095 202.424L15.134 201.943L14.3615 203.511ZM3.66393 198.241L1.91596 198.241L1.91596 199.329L2.89145 199.809L3.66393 198.241ZM3.66393 179.599L4.45235 178.039L1.91596 176.757L1.91596 179.599L3.66393 179.599ZM62.1861 209.175L63.9341 209.175L63.9341 208.1L62.9745 207.615L62.1861 209.175ZM62.1861 232.93L63.0106 234.471L63.9341 233.977L63.9341 232.93L62.1861 232.93ZM3.66393 264.236L1.91596 264.236L1.91596 267.153L4.48844 265.777L3.66393 264.236ZM28.3779 233.775L50.3237 222.448L48.7203 219.342L26.7745 230.669L28.3779 233.775ZM50.297 219.328L28.3512 208.473L26.8012 211.607L48.747 222.462L50.297 219.328ZM25.8282 210.04L25.8282 232.222L29.3242 232.222L29.3242 210.04L25.8282 210.04ZM4.46388 246.047L15.1615 240.541L13.5616 237.432L2.86398 242.938L4.46388 246.047ZM16.1095 238.986L16.1095 203.511L12.6136 203.511L12.6136 238.986L16.1095 238.986ZM15.134 201.943L4.43641 196.673L2.89145 199.809L13.589 205.079L15.134 201.943ZM5.4119 198.241L5.41191 179.599L1.91596 179.599L1.91596 198.241L5.4119 198.241ZM2.87551 181.159L61.3977 210.735L62.9745 207.615L4.45235 178.039L2.87551 181.159ZM60.4381 209.175L60.4381 232.93L63.9341 232.93L63.9341 209.175L60.4381 209.175ZM61.3616 231.388L2.83942 262.695L4.48844 265.777L63.0106 234.471L61.3616 231.388ZM5.4119 264.236L5.4119 244.493L1.91596 244.493L1.91596 264.236L5.4119 264.236ZM48.8927 293.65L50.6407 293.65L50.6407 291.902L48.8927 291.902L48.8927 293.65ZM37.4086 293.65L37.4086 291.902L35.6606 291.902L35.6606 293.65L37.4086 293.65ZM38.9817 327.001L40.3008 325.854L40.3008 325.854L38.9817 327.001ZM47.3196 327.001L46.0005 325.854L46.0005 325.854L47.3196 327.001ZM24.4299 293.65L26.1778 293.65L26.1778 291.902L24.4299 291.902L24.4299 293.65ZM3.66393 293.65L1.91595 293.65L1.91595 295.398L3.66393 295.398L3.66393 293.65ZM3.66393 275.323L3.66393 273.575L1.91596 273.575L1.91596 275.323L3.66393 275.323ZM62.1861 275.323L63.9341 275.323L63.9341 273.575L62.1861 273.575L62.1861 275.323ZM33.2396 337.07L34.9015 336.528L33.1293 331.093L31.5589 336.59L33.2396 337.07ZM28.4415 345.093L27.2671 343.798L27.2595 343.805L27.252 343.812L28.4415 345.093ZM4.05722 349.262L4.05722 351.01L4.52978 351.01L4.93797 350.772L4.05722 349.262ZM3.66393 349.262L1.91595 349.262L1.91595 351.01L3.66393 351.01L3.66393 349.262ZM3.66393 330.62L2.58399 329.245L1.91595 329.77L1.91595 330.62L3.66393 330.62ZM21.9914 327.001L23.2999 328.16L23.2999 328.16L21.9914 327.001ZM48.8927 291.902L37.4086 291.902L37.4086 295.398L48.8927 295.398L48.8927 291.902ZM35.6606 293.65L35.6606 321.417L39.1565 321.417L39.1565 293.65L35.6606 293.65ZM35.6606 321.417C35.6606 324.125 36.2166 326.485 37.6627 328.148L40.3008 325.854C39.6493 325.105 39.1565 323.742 39.1565 321.417L35.6606 321.417ZM37.6627 328.148C39.0733 329.771 40.9615 330.559 43.1506 330.559L43.1506 327.063C41.8788 327.063 40.9878 326.644 40.3008 325.854L37.6627 328.148ZM43.1506 330.559L43.2293 330.559L43.2293 327.063L43.1506 327.063L43.1506 330.559ZM43.2293 330.559C45.3846 330.559 47.2394 329.757 48.6386 328.148L46.0005 325.854C45.3021 326.658 44.4302 327.063 43.2293 327.063L43.2293 330.559ZM48.6386 328.148C50.0847 326.485 50.6407 324.125 50.6407 321.417L47.1448 321.417C47.1448 323.742 46.652 325.105 46.0005 325.854L48.6386 328.148ZM50.6407 321.417L50.6407 293.65L47.1448 293.65L47.1448 321.417L50.6407 321.417ZM24.4299 291.902L3.66393 291.902L3.66393 295.398L24.4299 295.398L24.4299 291.902ZM5.4119 293.65L5.4119 275.323L1.91596 275.323L1.91595 293.65L5.4119 293.65ZM3.66393 277.071L62.1861 277.071L62.1861 273.575L3.66393 273.575L3.66393 277.071ZM60.4381 275.323L60.4381 322.518L63.9341 322.518L63.9341 275.323L60.4381 275.323ZM60.4381 322.518C60.4381 330.87 59.1803 336.844 56.8903 340.676C54.6855 344.366 51.4697 346.177 47.0049 346.177L47.0049 349.673C52.6609 349.673 57.0357 347.249 59.8913 342.47C62.6616 337.833 63.9341 331.104 63.9341 322.518L60.4381 322.518ZM47.0049 346.177L46.061 346.177L46.061 349.673L47.0049 349.673L47.0049 346.177ZM46.061 346.177C43.3342 346.177 41.1317 345.39 39.3443 343.877C37.5286 342.34 36.0157 339.945 34.9015 336.528L31.5778 337.612C32.8233 341.431 34.6272 344.464 37.0854 346.545C39.5717 348.65 42.6 349.673 46.061 349.673L46.061 346.177ZM31.5589 336.59C30.6927 339.621 29.2506 341.999 27.2671 343.798L29.6158 346.388C32.1421 344.096 33.8987 341.126 34.9204 337.55L31.5589 336.59ZM27.252 343.812C25.4317 345.502 23.001 346.413 19.789 346.413L19.789 349.909C23.7087 349.909 27.0463 348.774 29.6309 346.374L27.252 343.812ZM19.789 346.413L11.2152 346.413L11.2152 349.909L19.789 349.909L19.789 346.413ZM11.2152 346.413C9.4057 346.413 7.83549 346.507 6.52482 346.708C5.23857 346.906 4.07949 347.225 3.17647 347.752L4.93797 350.772C5.29349 350.564 5.95667 350.333 7.0564 350.164C8.13172 349.998 9.51122 349.909 11.2152 349.909L11.2152 346.413ZM4.05722 347.514L3.66393 347.514L3.66393 351.01L4.05722 351.01L4.05722 347.514ZM5.4119 349.262L5.4119 330.62L1.91595 330.62L1.91595 349.262L5.4119 349.262ZM4.74386 331.994C5.00027 331.793 5.73045 331.502 7.36089 331.502L7.36089 328.006C5.53034 328.006 3.79588 328.293 2.58399 329.245L4.74386 331.994ZM7.36089 331.502L14.1255 331.502L14.1255 328.006L7.36089 328.006L7.36089 331.502ZM14.1255 331.502C18.0028 331.502 21.2105 330.519 23.2999 328.16L20.6829 325.842C19.5211 327.154 17.4849 328.006 14.1255 328.006L14.1255 331.502ZM23.2999 328.16C25.3633 325.831 26.1778 322.135 26.1778 317.562L22.6819 317.562C22.6819 321.905 21.8707 324.501 20.6829 325.842L23.2999 328.16ZM26.1778 317.562L26.1778 293.65L22.6819 293.65L22.6819 317.562L26.1778 317.562ZM3.66392 363.23L3.66392 361.482L1.91595 361.482L1.91595 363.23L3.66392 363.23ZM62.1861 363.23L63.9341 363.23L63.9341 361.482L62.1861 361.482L62.1861 363.23ZM57.8598 427.809L56.2853 427.05L56.2798 427.061L56.2744 427.073L57.8598 427.809ZM53.219 435.36L51.8706 434.248L51.8623 434.258L51.854 434.268L53.219 435.36ZM47.4769 440.158L48.2737 441.714L48.2737 441.714L47.4769 440.158ZM41.1055 442.518L40.7218 440.813L40.6965 440.818L40.6714 440.825L41.1055 442.518ZM24.2725 442.361L23.8313 444.052L23.8401 444.054L24.2725 442.361ZM16.7213 438.585L17.7426 437.167L17.7332 437.16L17.7237 437.153L16.7213 438.585ZM10.0353 431.427L8.55301 432.354L8.55301 432.354L10.0353 431.427ZM5.47307 419.471L7.17294 419.064L7.17294 419.064L5.47307 419.471ZM48.3421 381.557L50.0901 381.557L50.0901 379.809L48.3421 379.809L48.3421 381.557ZM17.7439 381.557L17.7439 379.809L15.9959 379.809L15.9959 381.557L17.7439 381.557ZM3.66392 364.978L62.1861 364.978L62.1861 361.482L3.66392 361.482L3.66392 364.978ZM60.4381 363.23L60.4381 402.009L63.934 402.009L63.9341 363.23L60.4381 363.23ZM60.4381 402.009C60.4381 407.386 60.076 412.217 59.3607 416.509L62.809 417.084C63.562 412.566 63.934 407.538 63.934 402.009L60.4381 402.009ZM59.3607 416.509C58.6445 420.806 57.6081 424.306 56.2853 427.05L59.4344 428.568C60.9433 425.438 62.0569 421.597 62.809 417.084L59.3607 416.509ZM56.2744 427.073C54.9622 429.899 53.4904 432.284 51.8706 434.248L54.5673 436.472C56.4085 434.241 58.0307 431.592 59.4453 428.545L56.2744 427.073ZM51.854 434.268C50.313 436.194 48.5865 437.626 46.68 438.602L48.2737 441.714C50.6673 440.488 52.7688 438.721 54.5839 436.452L51.854 434.268ZM46.68 438.602C44.645 439.645 42.6595 440.377 40.7218 440.813L41.4892 444.223C43.7466 443.715 46.0087 442.874 48.2737 441.714L46.68 438.602ZM40.6714 440.825C38.7836 441.309 36.7284 441.557 34.4982 441.557L34.4982 445.053C36.9875 445.053 39.3372 444.776 41.5397 444.211L40.6714 440.825ZM34.4982 441.557L32.1384 441.557L32.1384 445.053L34.4982 445.053L34.4982 441.557ZM32.1384 441.557C29.4916 441.557 27.0159 441.257 24.7049 440.667L23.8401 444.054C26.4584 444.723 29.2266 445.053 32.1384 445.053L32.1384 441.557ZM24.7138 440.669C22.5617 440.108 20.2389 438.964 17.7426 437.167L15.6999 440.004C18.4476 441.982 21.159 443.355 23.8313 444.052L24.7138 440.669ZM17.7237 437.153C15.3093 435.463 13.2388 433.255 11.5176 430.501L8.55301 432.354C10.5025 435.473 12.8893 438.036 15.7189 440.017L17.7237 437.153ZM11.5176 430.501C9.81876 427.783 8.3546 423.996 7.17294 419.064L3.77321 419.878C5.00375 425.014 6.58107 429.198 8.55301 432.354L11.5176 430.501ZM7.17294 419.064C6.00594 414.193 5.4119 408.54 5.4119 402.087L1.91595 402.087C1.91595 408.745 2.528 414.681 3.77321 419.878L7.17294 419.064ZM5.4119 402.087L5.4119 363.23L1.91595 363.23L1.91595 402.087L5.4119 402.087ZM48.3421 379.809L17.7439 379.809L17.7439 383.305L48.3421 383.305L48.3421 379.809ZM15.9959 381.557L15.9959 400.593L19.4918 400.593L19.4918 381.557L15.9959 381.557ZM15.9959 400.593C15.9959 408.563 17.2653 414.842 20.0486 419.177C22.9171 423.644 27.2744 425.86 32.8463 425.86L32.8463 422.364C28.3499 422.364 25.1561 420.66 22.9903 417.288C20.7395 413.782 19.4918 408.302 19.4918 400.593L15.9959 400.593ZM32.8463 425.86L33.3183 425.86L33.3183 422.364L32.8463 422.364L32.8463 425.86ZM33.3183 425.86C38.8681 425.86 43.2057 423.64 46.0592 419.173C48.8275 414.839 50.0901 408.562 50.0901 400.593L46.5942 400.593C46.5942 408.303 45.3527 413.785 43.1131 417.291C40.9587 420.664 37.7844 422.364 33.3183 422.364L33.3183 425.86ZM50.0901 400.593L50.0901 381.557L46.5942 381.557L46.5942 400.593L50.0901 400.593ZM62.1861 475.764L62.1861 477.512L63.934 477.512L63.934 475.764L62.1861 475.764ZM3.66392 475.764L1.91595 475.764L1.91595 477.512L3.66392 477.512L3.66392 475.764ZM3.66392 457.436L3.66392 455.688L1.91595 455.688L1.91595 457.436L3.66392 457.436ZM62.1861 457.436L63.934 457.436L63.934 455.688L62.1861 455.688L62.1861 457.436ZM62.1861 474.016L3.66392 474.016L3.66392 477.512L62.1861 477.512L62.1861 474.016ZM5.41189 475.764L5.41189 457.436L1.91595 457.436L1.91595 475.764L5.41189 475.764ZM3.66392 459.184L62.1861 459.184L62.1861 455.688L3.66392 455.688L3.66392 459.184ZM60.4381 457.436L60.4381 475.764L63.934 475.764L63.934 457.436L60.4381 457.436ZM27.5762 539.452L25.8282 539.452L25.8282 542.321L28.3779 541.005L27.5762 539.452ZM49.522 528.125L50.3237 529.679L53.3975 528.092L50.297 526.558L49.522 528.125ZM27.5762 517.27L28.3512 515.704L25.8282 514.456L25.8282 517.27L27.5762 517.27ZM3.66392 551.723L2.86397 550.169L1.91594 550.657L1.91594 551.723L3.66392 551.723ZM14.3615 546.217L15.1615 547.771L16.1095 547.283L16.1095 546.217L14.3615 546.217ZM14.3615 510.742L16.1095 510.742L16.1095 509.654L15.134 509.174L14.3615 510.742ZM3.66392 505.471L1.91595 505.471L1.91595 506.559L2.89144 507.04L3.66392 505.471ZM3.66392 486.829L4.45234 485.269L1.91595 483.987L1.91595 486.829L3.66392 486.829ZM62.1861 516.405L63.934 516.405L63.934 515.33L62.9745 514.845L62.1861 516.405ZM62.1861 540.16L63.0106 541.701L63.934 541.207L63.934 540.16L62.1861 540.16ZM3.66392 571.466L1.91594 571.466L1.91594 574.384L4.48843 573.008L3.66392 571.466ZM28.3779 541.005L50.3237 529.679L48.7203 526.572L26.7745 537.899L28.3779 541.005ZM50.297 526.558L28.3512 515.704L26.8012 518.837L48.747 529.692L50.297 526.558ZM25.8282 517.27L25.8282 539.452L29.3242 539.452L29.3242 517.27L25.8282 517.27ZM4.46386 553.277L15.1615 547.771L13.5616 544.663L2.86397 550.169L4.46386 553.277ZM16.1095 546.217L16.1095 510.742L12.6135 510.742L12.6135 546.217L16.1095 546.217ZM15.134 509.174L4.4364 503.903L2.89144 507.04L13.589 512.31L15.134 509.174ZM5.41189 505.471L5.41189 486.829L1.91595 486.829L1.91595 505.471L5.41189 505.471ZM2.8755 488.389L61.3977 517.965L62.9745 514.845L4.45234 485.269L2.8755 488.389ZM60.4381 516.405L60.4381 540.16L63.934 540.16L63.934 516.405L60.4381 516.405ZM61.3616 538.619L2.83941 569.925L4.48843 573.008L63.0106 541.701L61.3616 538.619ZM5.41189 571.466L5.41189 551.723L1.91594 551.723L1.91594 571.466L5.41189 571.466ZM62.1861 582.553L63.934 582.553L63.934 580.805L62.1861 580.805L62.1861 582.553ZM62.1861 603.004L63.4312 604.231L63.934 603.721L63.934 603.004L62.1861 603.004ZM25.3737 640.367L24.1286 639.14L21.1977 642.115L25.3737 642.115L25.3737 640.367ZM62.1861 640.367L63.934 640.367L63.934 638.619L62.1861 638.619L62.1861 640.367ZM62.1861 658.459L62.1861 660.207L63.934 660.207L63.934 658.459L62.1861 658.459ZM3.66391 658.459L1.91594 658.459L1.91594 660.207L3.66391 660.207L3.66391 658.459ZM3.66391 640.367L2.41314 639.146L1.91594 639.655L1.91594 640.367L3.66391 640.367ZM42.4427 600.644L43.6935 601.865L46.592 598.896L42.4427 598.896L42.4427 600.644ZM3.66391 600.644L1.91594 600.644L1.91594 602.392L3.66391 602.392L3.66391 600.644ZM3.66391 582.553L3.66392 580.805L1.91594 580.805L1.91594 582.553L3.66391 582.553ZM60.4381 582.553L60.4381 603.004L63.934 603.004L63.934 582.553L60.4381 582.553ZM60.9409 601.777L24.1286 639.14L26.6189 641.594L63.4312 604.231L60.9409 601.777ZM25.3737 642.115L62.1861 642.115L62.1861 638.619L25.3737 638.619L25.3737 642.115ZM60.4381 640.367L60.4381 658.459L63.934 658.459L63.934 640.367L60.4381 640.367ZM62.1861 656.711L3.66391 656.711L3.66391 660.207L62.1861 660.207L62.1861 656.711ZM5.41188 658.459L5.41189 640.367L1.91594 640.367L1.91594 658.459L5.41188 658.459ZM4.91469 641.588L43.6935 601.865L41.1919 599.423L2.41314 639.146L4.91469 641.588ZM42.4427 598.896L3.66391 598.896L3.66391 602.392L42.4427 602.392L42.4427 598.896ZM5.41189 600.644L5.41189 582.553L1.91594 582.553L1.91594 600.644L5.41189 600.644ZM3.66391 584.301L62.1861 584.301L62.1861 580.805L3.66392 580.805L3.66391 584.301Z" fill="#F14251"/>
</svg>
