<svg width="63" height="663" viewBox="0 0 63 663" fill="none" xmlns="http://www.w3.org/2000/svg">
<path d="M59.5757 58.7632L57.9105 58.4682L57.9087 58.4784L57.907 58.4887L59.5757 58.7632ZM56.9122 68.8085L55.3502 68.1602L55.346 68.1705L56.9122 68.8085ZM52.8028 75.9619L54.1233 77.0184L54.1233 77.0184L52.8028 75.9619ZM47.9323 80.6802L46.9743 79.2866L46.9597 79.2966L46.9453 79.307L47.9323 80.6802ZM42.6053 83.4959L42.0207 81.909L42.0207 81.909L42.6053 83.4959ZM37.4305 84.8657L37.207 83.1894L37.207 83.1894L37.4305 84.8657ZM25.6349 84.8657L25.8584 83.1894L25.8584 83.1894L25.6349 84.8657ZM20.384 83.4959L19.7993 85.0828L19.8126 85.0876L20.384 83.4959ZM14.9808 80.7563L14.0228 82.1498L14.0327 82.1567L14.0428 82.1634L14.9808 80.7563ZM10.0343 75.9619L8.71377 77.0184L8.71691 77.0223L10.0343 75.9619ZM5.84879 68.8846L4.28689 69.5329L4.29207 69.5454L4.29745 69.5578L5.84879 68.8846ZM3.10918 58.7632L4.77499 58.4717L4.77435 58.4682L3.10918 58.7632ZM3.10918 28.6275L1.44338 28.336L3.10918 28.6275ZM5.8488 18.5061L4.29746 17.8329L4.29207 17.8453L4.28689 17.8578L5.8488 18.5061ZM10.0343 11.3527L8.72983 10.2765L8.71527 10.2941L8.70118 10.3122L10.0343 11.3527ZM14.9808 6.55836L14.0428 5.15126L14.018 5.16777L13.9938 5.18514L14.9808 6.55836ZM20.384 3.81874L19.8492 2.2144L19.8241 2.22276L19.7993 2.23189L20.384 3.81874ZM25.6349 2.52503L25.8584 4.20132L25.8584 4.20132L25.6349 2.52503ZM37.3544 2.52504L37.1233 4.20031L37.1309 4.20132L37.3544 2.52504ZM42.5292 3.81874L43.1006 2.22707L43.0886 2.22278L43.0766 2.21867L42.5292 3.81874ZM47.9323 6.55836L48.9193 5.18514L48.905 5.17482L48.8904 5.1648L47.9323 6.55836ZM52.8028 11.3527L54.1233 10.2962L54.1233 10.2962L52.8028 11.3527ZM56.9122 18.43L58.4783 17.792L58.4741 17.7817L56.9122 18.43ZM59.5757 28.6275L57.9065 28.8987L57.9081 28.9089L57.9099 28.919L59.5757 28.6275ZM36.1368 66.0689L36.5927 67.6974L36.5927 67.6974L36.1368 66.0689ZM40.094 64.0142L41.1006 65.3731L41.1006 65.3731L40.094 64.0142ZM43.5946 60.057L45.0487 60.9203L45.0487 60.9203L43.5946 60.057ZM45.9537 53.4362L44.3079 53.0472L44.3046 53.0614L44.3015 53.0757L45.9537 53.4362ZM26.0154 21.7023L25.4216 20.1189L25.4001 20.1269L25.3789 20.1356L26.0154 21.7023ZM21.145 24.9747L19.9884 23.7409L19.9884 23.7409L21.145 24.9747ZM17.2639 32.052L15.6448 31.5637L15.6448 31.5637L17.2639 32.052ZM17.1878 55.1865L15.5637 55.658L15.5661 55.6664L15.5687 55.6748L17.1878 55.1865ZM20.9928 62.34L19.797 63.5358L19.8065 63.5453L19.8161 63.5546L20.9928 62.34ZM25.8632 65.6123L26.4997 64.0455L26.4785 64.0369L26.457 64.0288L25.8632 65.6123ZM58.95 42.0973L58.95 45.3696L62.3322 45.3696L62.3322 42.0973L58.95 42.0973ZM58.95 45.3696C58.95 50.2115 58.6004 54.5753 57.9105 58.4682L61.2409 59.0583C61.9715 54.9353 62.3322 50.3699 62.3322 45.3696L58.95 45.3696ZM57.907 58.4887C57.261 62.4146 56.4013 65.6281 55.3503 68.1602L58.4741 69.4568C59.6553 66.6112 60.5713 63.1278 61.2444 59.0378L57.907 58.4887ZM55.346 68.1705C54.2829 70.7799 52.9912 73.0192 51.4822 74.9055L54.1233 77.0184C55.8612 74.846 57.3092 72.3163 58.4783 69.4466L55.346 68.1705ZM51.4822 74.9055C49.9314 76.844 48.4254 78.2889 46.9743 79.2866L48.8904 82.0737C50.6862 80.8391 52.4272 79.1385 54.1233 77.0184L51.4822 74.9055ZM46.9453 79.307C45.4491 80.3824 43.8094 81.25 42.0207 81.909L43.1899 85.0827C45.257 84.3212 47.1686 83.3117 48.9193 82.0534L46.9453 79.307ZM42.0207 81.909C40.173 82.5898 38.5723 83.0074 37.207 83.1894L37.654 86.542C39.3327 86.3182 41.1819 85.8226 43.1899 85.0827L42.0207 81.909ZM37.207 83.1894C35.7653 83.3816 34.2422 83.479 32.6361 83.479L32.6361 86.8612C34.3785 86.8612 36.0516 86.7556 37.654 86.542L37.207 83.1894ZM32.6361 83.479L30.3531 83.479L30.3531 86.8612L32.6361 86.8612L32.6361 83.479ZM30.3531 83.479C28.8002 83.479 27.3022 83.3819 25.8584 83.1894L25.4114 86.542C27.0116 86.7553 28.6591 86.8612 30.3531 86.8612L30.3531 83.479ZM25.8584 83.1894C24.4894 83.0069 22.8595 82.5877 20.9553 81.9042L19.8126 85.0876C21.8657 85.8246 23.7364 86.3186 25.4114 86.542L25.8584 83.1894ZM20.9686 81.909C19.1625 81.2436 17.4805 80.3902 15.9189 79.3492L14.0428 82.1634C15.8297 83.3546 17.7497 84.3276 19.7993 85.0827L20.9686 81.909ZM15.9389 79.3627C14.4891 78.366 12.9569 76.8959 11.3517 74.9016L8.71691 77.0223C10.4602 79.1881 12.2256 80.9143 14.0228 82.1498L15.9389 79.3627ZM11.3549 74.9055C9.836 73.0069 8.51486 70.7801 7.40013 68.2114L4.29745 69.5578C5.51647 72.3669 6.98568 74.8583 8.71377 77.0184L11.3549 74.9055ZM7.4107 68.2363C6.3573 65.6985 5.47191 62.4541 4.77498 58.4717L1.44337 59.0548C2.16699 63.1897 3.108 66.6929 4.28689 69.5329L7.4107 68.2363ZM4.77435 58.4682C4.08448 54.5753 3.73489 50.2115 3.73489 45.3696L0.352653 45.3696C0.352653 50.3699 0.71334 54.9353 1.444 59.0583L4.77435 58.4682ZM3.73489 45.3696L3.73489 42.0973L0.352653 42.0973L0.352653 45.3696L3.73489 45.3696ZM3.73489 42.0973C3.73489 37.2556 4.08443 32.865 4.77499 28.919L1.44338 28.336C0.713392 32.5073 0.352654 37.0965 0.352653 42.0973L3.73489 42.0973ZM4.77499 28.919C5.47191 24.9366 6.35731 21.6922 7.4107 19.1545L4.28689 17.8578C3.10801 20.6978 2.16699 24.201 1.44338 28.336L4.77499 28.919ZM7.40014 19.1793C8.5163 16.6073 9.84105 14.3489 11.3675 12.3932L8.70118 10.3122C6.98063 12.5166 5.51504 15.0272 4.29746 17.8329L7.40014 19.1793ZM11.3388 12.4289C12.9477 10.4787 14.4929 8.99166 15.9678 7.93157L13.9938 5.18514C12.2218 6.4588 10.4693 8.168 8.72983 10.2765L11.3388 12.4289ZM15.9189 7.96545C17.4805 6.92443 19.1625 6.07098 20.9686 5.40559L19.7993 2.23189C17.7497 2.98704 15.8297 3.96001 14.0428 5.15126L15.9189 7.96545ZM20.9188 5.42308C22.8294 4.78619 24.4721 4.38616 25.8584 4.20132L25.4114 0.848749C23.7537 1.06978 21.8957 1.53222 19.8492 2.2144L20.9188 5.42308ZM25.8584 4.20132C27.3022 4.00881 28.8002 3.91175 30.3531 3.91175L30.3531 0.529513C28.6591 0.529513 27.0116 0.635391 25.4114 0.848749L25.8584 4.20132ZM30.3531 3.91175L32.6361 3.91175L32.6361 0.529513L30.3531 0.529513L30.3531 3.91175ZM32.6361 3.91175C34.2426 3.91175 35.7375 4.00915 37.1233 4.20029L37.5854 0.849776C36.0287 0.63505 34.3781 0.529513 32.6361 0.529513L32.6361 3.91175ZM37.1309 4.20132C38.5137 4.38569 40.1273 4.78437 41.9818 5.41882L43.0766 2.21867C41.0754 1.53404 39.2391 1.07025 37.5779 0.84875L37.1309 4.20132ZM41.9578 5.41042C43.8087 6.07483 45.4784 6.92349 46.9743 7.95191L48.8904 5.1648C47.1393 3.96095 45.2069 2.9832 43.1006 2.22707L41.9578 5.41042ZM46.9453 7.93157C48.4128 8.98632 49.9279 10.4662 51.4822 12.4091L54.1233 10.2962C52.4307 8.18049 50.6988 6.46415 48.9193 5.18514L46.9453 7.93157ZM51.4822 12.4091C52.9954 14.3006 54.2878 16.5188 55.3503 19.0784L58.4741 17.7817C57.3043 14.9635 55.8571 12.4635 54.1233 10.2962L51.4822 12.4091ZM55.346 19.0681C56.3996 21.654 57.2601 24.921 57.9065 28.8987L61.2449 28.3562C60.5722 24.2166 59.6571 20.6853 58.4783 17.792L55.346 19.0681ZM57.9099 28.919C58.6004 32.865 58.95 37.2556 58.95 42.0973L62.3322 42.0973C62.3322 37.0966 61.9715 32.5073 61.2415 28.336L57.9099 28.919ZM31.038 68.2927L32.1034 68.2927L32.1034 64.9105L31.038 64.9105L31.038 68.2927ZM32.1034 68.2927C33.6661 68.2927 35.1648 68.0972 36.5927 67.6974L35.6808 64.4404C34.572 64.7509 33.3819 64.9105 32.1034 64.9105L32.1034 68.2927ZM36.5927 67.6974C38.1083 67.273 39.6115 66.4761 41.1006 65.3731L39.0874 62.6553C37.8368 63.5816 36.7019 64.1545 35.6808 64.4404L36.5927 67.6974ZM41.1006 65.3731C42.6695 64.2109 43.9824 62.7162 45.0487 60.9203L42.1405 59.1936C41.2789 60.6446 40.2581 61.7881 39.0874 62.6553L41.1006 65.3731ZM45.0487 60.9203C46.1398 59.0827 46.9762 56.683 47.606 53.7967L44.3015 53.0757C43.7136 55.7701 42.9773 57.7842 42.1405 59.1936L45.0487 60.9203ZM47.5995 53.8252C48.2964 50.8767 48.6341 47.4941 48.6341 43.6954L45.2519 43.6954C45.2519 47.3038 44.9301 50.415 44.3079 53.0472L47.5995 53.8252ZM48.6341 43.6954C48.6341 35.9315 47.3865 29.8165 44.6524 25.5962C41.8364 21.2493 37.5636 19.098 32.1034 19.098L32.1034 22.4803C36.5363 22.4803 39.6834 24.1466 41.8138 27.4352C44.0263 30.8503 45.2519 36.1885 45.2519 43.6954L48.6341 43.6954ZM32.1034 19.098L31.1902 19.098L31.1902 22.4803L32.1034 22.4803L32.1034 19.098ZM31.1902 19.098C29.172 19.098 27.2449 19.4351 25.4216 20.1189L26.6092 23.2858C28.0328 22.7519 29.5557 22.4803 31.1902 22.4803L31.1902 19.098ZM25.3789 20.1356C23.519 20.8912 21.7242 22.1136 19.9884 23.7409L22.3016 26.2084C23.8128 24.7917 25.2649 23.8326 26.6519 23.2691L25.3789 20.1356ZM19.9884 23.7409C18.0656 25.5435 16.6548 28.2146 15.6448 31.5637L18.8829 32.5403C19.8008 29.497 20.9774 27.4498 22.3016 26.2084L19.9884 23.7409ZM15.6448 31.5637C14.6192 34.9644 14.1268 39.0202 14.1268 43.6954L17.5091 43.6954C17.5091 39.2385 17.9807 35.532 18.8829 32.5403L15.6448 31.5637ZM14.1268 43.6954C14.1268 48.3146 14.5928 52.3138 15.5637 55.658L18.8118 54.715C17.9563 51.7683 17.5091 48.1068 17.5091 43.6954L14.1268 43.6954ZM15.5687 55.6748C16.576 59.0151 17.9525 61.6913 19.797 63.5358L22.1886 61.1442C20.8875 59.8431 19.7274 57.7504 18.8068 54.6982L15.5687 55.6748ZM19.8161 63.5546C21.5581 65.2421 23.3731 66.4846 25.2694 67.1957L26.457 64.0288C25.1064 63.5224 23.6744 62.5833 22.1695 61.1253L19.8161 63.5546ZM25.2267 67.179C27.0609 67.9242 29.0028 68.2927 31.038 68.2927L31.038 64.9105C29.4204 64.9105 27.9125 64.6195 26.4997 64.0455L25.2267 67.179ZM21.906 116.87L23.5971 116.87L23.5971 115.179L21.906 115.179L21.906 116.87ZM3.03308 116.87L1.34196 116.87L1.34196 118.561L3.03308 118.561L3.03308 116.87ZM3.03308 99.1387L3.03308 97.4475L1.34196 97.4475L1.34196 99.1387L3.03308 99.1387ZM59.6518 99.1387L61.3429 99.1387L61.3429 97.4476L59.6518 97.4476L59.6518 99.1387ZM46.7908 116.87L48.4819 116.87L48.4819 115.179L46.7908 115.179L46.7908 116.87ZM34.6148 116.87L34.6148 115.179L32.9236 115.179L32.9236 116.87L34.6148 116.87ZM23.5971 141.603L23.5971 116.87L20.2149 116.87L20.2149 141.603L23.5971 141.603ZM21.906 115.179L3.03308 115.179L3.03308 118.561L21.906 118.561L21.906 115.179ZM4.7242 116.87L4.7242 99.1387L1.34196 99.1387L1.34196 116.87L4.7242 116.87ZM3.03308 100.83L59.6518 100.83L59.6518 97.4476L3.03308 97.4475L3.03308 100.83ZM57.9607 99.1387L57.9607 141.603L61.3429 141.603L61.3429 99.1387L57.9607 99.1387ZM57.9607 141.603C57.9607 150.26 56.4418 156.453 53.6606 160.44C50.9567 164.317 46.9135 166.318 41.2355 166.318L41.2355 169.701C47.835 169.701 52.9999 167.3 56.4348 162.375C59.7924 157.561 61.3429 150.55 61.3429 141.603L57.9607 141.603ZM41.2355 166.318L40.4745 166.318L40.4745 169.701L41.2355 169.701L41.2355 166.318ZM40.4745 166.318C34.7401 166.318 30.6583 164.313 27.9315 160.435C25.1281 156.448 23.5971 150.258 23.5971 141.603L20.2149 141.603C20.2149 150.551 21.7786 157.565 25.1647 162.381C28.6274 167.305 33.8299 169.701 40.4745 169.701L40.4745 166.318ZM46.7908 115.179L34.6148 115.179L34.6148 118.561L46.7908 118.561L46.7908 115.179ZM32.9236 116.87L32.9236 141.298L36.3059 141.298L36.3059 116.87L32.9236 116.87ZM32.9236 141.298C32.9236 144.191 33.4368 146.665 34.7278 148.453C36.0923 150.342 38.1349 151.208 40.5506 151.208L40.5506 147.826C39.0091 147.826 38.0837 147.323 37.4697 146.472C36.782 145.52 36.3059 143.885 36.3059 141.298L32.9236 141.298ZM40.5506 151.208L40.7789 151.208L40.7789 147.826L40.5506 147.826L40.5506 151.208ZM40.7789 151.208C43.2116 151.208 45.2722 150.348 46.6528 148.461C47.9613 146.672 48.4819 144.194 48.4819 141.298L45.0997 141.298C45.0997 143.882 44.6183 145.513 43.9229 146.464C43.2995 147.316 42.3541 147.826 40.7789 147.826L40.7789 151.208ZM48.4819 141.298L48.4819 116.87L45.0997 116.87L45.0997 141.298L48.4819 141.298ZM59.6518 181.511L61.3429 181.511L61.3429 179.82L59.6518 179.82L59.6518 181.511ZM59.6518 241.174L59.6518 242.865L61.3429 242.865L61.3429 241.174L59.6518 241.174ZM46.7908 241.174L45.0997 241.174L45.0997 242.865L46.7908 242.865L46.7908 241.174ZM46.7908 199.015L48.4819 199.015L48.4819 197.323L46.7908 197.323L46.7908 199.015ZM38.4198 199.015L38.4198 197.323L36.7286 197.323L36.7286 199.015L38.4198 199.015ZM38.4198 240.185L38.4198 241.876L40.1109 241.876L40.1109 240.185L38.4198 240.185ZM25.4827 240.185L23.7916 240.185L23.7916 241.876L25.4827 241.876L25.4827 240.185ZM25.4827 199.015L27.1738 199.015L27.1738 197.323L25.4827 197.323L25.4827 199.015ZM16.1984 199.015L16.1984 197.323L14.5073 197.323L14.5073 199.015L16.1984 199.015ZM16.1984 241.935L16.1984 243.626L17.8896 243.626L17.8896 241.935L16.1984 241.935ZM3.03307 241.935L1.34195 241.935L1.34195 243.626L3.03307 243.626L3.03307 241.935ZM3.03307 181.511L3.03307 179.82L1.34195 179.82L1.34195 181.511L3.03307 181.511ZM57.9607 181.511L57.9607 241.174L61.3429 241.174L61.3429 181.511L57.9607 181.511ZM59.6518 239.483L46.7908 239.483L46.7908 242.865L59.6518 242.865L59.6518 239.483ZM48.4819 241.174L48.4819 199.015L45.0997 199.015L45.0997 241.174L48.4819 241.174ZM46.7908 197.323L38.4198 197.323L38.4198 200.706L46.7908 200.706L46.7908 197.323ZM36.7286 199.015L36.7286 240.185L40.1109 240.185L40.1109 199.015L36.7286 199.015ZM38.4198 238.494L25.4827 238.494L25.4827 241.876L38.4198 241.876L38.4198 238.494ZM27.1738 240.185L27.1738 199.015L23.7916 199.015L23.7916 240.185L27.1738 240.185ZM25.4827 197.323L16.1984 197.323L16.1984 200.706L25.4827 200.706L25.4827 197.323ZM14.5073 199.015L14.5073 241.935L17.8896 241.935L17.8896 199.015L14.5073 199.015ZM16.1984 240.244L3.03307 240.244L3.03307 243.626L16.1984 243.626L16.1984 240.244ZM4.72419 241.935L4.72419 181.511L1.34195 181.511L1.34195 241.935L4.72419 241.935ZM3.03307 183.203L59.6518 183.203L59.6518 179.82L3.03307 179.82L3.03307 183.203ZM46.7908 274.63L48.4819 274.63L48.4819 272.939L46.7908 272.939L46.7908 274.63ZM35.6801 274.63L35.6802 272.939L33.989 272.939L33.989 274.63L35.6801 274.63ZM37.2022 306.896L38.4783 305.787L38.4783 305.787L37.2022 306.896ZM45.2688 306.896L43.9927 305.787L43.9927 305.787L45.2688 306.896ZM23.1236 274.63L24.8147 274.63L24.8147 272.939L23.1236 272.939L23.1236 274.63ZM3.03307 274.63L1.34195 274.63L1.34195 276.321L3.03307 276.321L3.03307 274.63ZM3.03307 256.898L3.03307 255.207L1.34195 255.207L1.34195 256.898L3.03307 256.898ZM59.6518 256.898L61.3429 256.898L61.3429 255.207L59.6518 255.207L59.6518 256.898ZM31.6468 316.637L33.2546 316.113L31.5401 310.855L30.0208 316.173L31.6468 316.637ZM27.0047 324.399L25.8686 323.147L25.8612 323.153L25.854 323.16L27.0047 324.399ZM3.41357 328.433L3.41357 330.124L3.87076 330.124L4.26568 329.894L3.41357 328.433ZM3.03307 328.433L1.34195 328.433L1.34195 330.124L3.03307 330.124L3.03307 328.433ZM3.03307 310.397L1.98825 309.067L1.34195 309.575L1.34195 310.397L3.03307 310.397ZM20.7645 306.896L22.0304 308.018L22.0304 308.018L20.7645 306.896ZM46.7908 272.939L35.6802 272.939L35.6801 276.321L46.7908 276.321L46.7908 272.939ZM33.989 274.63L33.989 301.493L37.3713 301.493L37.3713 274.63L33.989 274.63ZM33.989 301.493C33.989 304.114 34.527 306.397 35.926 308.006L38.4783 305.787C37.848 305.062 37.3713 303.743 37.3713 301.493L33.989 301.493ZM35.926 308.006C37.2907 309.575 39.1175 310.338 41.2355 310.338L41.2355 306.956C40.005 306.956 39.1429 306.551 38.4783 305.787L35.926 308.006ZM41.2355 310.338L41.3116 310.338L41.3116 306.956L41.2355 306.956L41.2355 310.338ZM41.3116 310.338C43.3967 310.338 45.1913 309.563 46.5449 308.006L43.9927 305.787C43.317 306.564 42.4734 306.956 41.3116 306.956L41.3116 310.338ZM46.5449 308.006C47.944 306.397 48.4819 304.114 48.4819 301.493L45.0997 301.493C45.0997 303.743 44.623 305.062 43.9927 305.787L46.5449 308.006ZM48.4819 301.493L48.4819 274.63L45.0997 274.63L45.0997 301.493L48.4819 301.493ZM23.1236 272.939L3.03307 272.939L3.03307 276.321L23.1236 276.321L23.1236 272.939ZM4.72419 274.63L4.72419 256.898L1.34195 256.898L1.34195 274.63L4.72419 274.63ZM3.03307 258.59L59.6518 258.59L59.6518 255.207L3.03307 255.207L3.03307 258.59ZM57.9607 256.898L57.9607 302.559L61.3429 302.559L61.3429 256.898L57.9607 256.898ZM57.9607 302.559C57.9607 310.639 56.7438 316.419 54.5282 320.127C52.3952 323.696 49.284 325.448 44.9644 325.448L44.9644 328.83C50.4364 328.83 54.6689 326.485 57.4316 321.861C60.1119 317.376 61.3429 310.865 61.3429 302.559L57.9607 302.559ZM44.9644 325.448L44.0512 325.448L44.0512 328.83L44.9644 328.83L44.9644 325.448ZM44.0512 325.448C41.4131 325.448 39.2822 324.687 37.5529 323.223C35.7963 321.736 34.3326 319.419 33.2546 316.113L30.039 317.162C31.244 320.857 32.9892 323.791 35.3675 325.804C37.7729 327.841 40.7028 328.83 44.0512 328.83L44.0512 325.448ZM30.0208 316.173C29.1828 319.106 27.7875 321.406 25.8686 323.147L28.1408 325.652C30.585 323.435 32.2845 320.561 33.2729 317.102L30.0208 316.173ZM25.854 323.16C24.0928 324.796 21.7412 325.676 18.6337 325.676L18.6337 329.059C22.4259 329.059 25.6549 327.961 28.1554 325.639L25.854 323.16ZM18.6337 325.676L10.3387 325.676L10.3387 329.059L18.6337 329.059L18.6337 325.676ZM10.3387 325.676C8.58809 325.676 7.06895 325.767 5.80091 325.962C4.55649 326.154 3.43511 326.462 2.56146 326.972L4.26568 329.894C4.60963 329.693 5.25124 329.469 6.31521 329.305C7.35555 329.145 8.69018 329.059 10.3387 329.059L10.3387 325.676ZM3.41357 326.742L3.03307 326.742L3.03307 330.124L3.41357 330.124L3.41357 326.742ZM4.72419 328.433L4.72419 310.397L1.34195 310.397L1.34195 328.433L4.72419 328.433ZM4.07788 311.727C4.32595 311.532 5.03238 311.251 6.60979 311.251L6.60979 307.869C4.83878 307.869 3.16073 308.146 1.98825 309.067L4.07788 311.727ZM6.60979 311.251L13.1544 311.251L13.1544 307.869L6.60979 307.869L6.60979 311.251ZM13.1544 311.251C16.9056 311.251 20.009 310.3 22.0304 308.018L19.4985 305.775C18.3745 307.044 16.4045 307.869 13.1544 307.869L13.1544 311.251ZM22.0304 308.018C24.0267 305.764 24.8147 302.188 24.8147 297.764L21.4325 297.764C21.4325 301.966 20.6477 304.478 19.4985 305.775L22.0304 308.018ZM24.8147 297.764L24.8147 274.63L21.4325 274.63L21.4325 297.764L24.8147 297.764ZM26.1676 388.046L24.4765 388.046L24.4765 390.822L26.9432 389.548L26.1676 388.046ZM47.3996 377.087L48.1752 378.59L51.1491 377.055L48.1494 375.571L47.3996 377.087ZM26.1676 366.585L26.9174 365.069L24.4765 363.862L24.4765 366.585L26.1676 366.585ZM3.03306 399.917L2.25913 398.414L1.34194 398.886L1.34194 399.917L3.03306 399.917ZM13.3827 394.59L14.1567 396.094L15.0738 395.622L15.0738 394.59L13.3827 394.59ZM13.3827 360.269L15.0738 360.269L15.0738 359.217L14.1301 358.752L13.3827 360.269ZM3.03307 355.17L1.34195 355.17L1.34195 356.222L2.28571 356.687L3.03307 355.17ZM3.03307 337.134L3.79584 335.625L1.34195 334.385L1.34195 337.134L3.03307 337.134ZM59.6518 365.748L61.3429 365.748L61.3429 364.708L60.4146 364.239L59.6518 365.748ZM59.6518 388.731L60.4495 390.222L61.3429 389.744L61.3429 388.731L59.6518 388.731ZM3.03306 419.018L1.34194 419.018L1.34194 421.841L3.83076 420.51L3.03306 419.018ZM26.9432 389.548L48.1752 378.59L46.624 375.584L25.392 386.543L26.9432 389.548ZM48.1494 375.571L26.9174 365.069L25.4178 368.101L46.6498 378.603L48.1494 375.571ZM24.4765 366.585L24.4765 388.046L27.8587 388.046L27.8587 366.585L24.4765 366.585ZM3.80699 401.421L14.1567 396.094L12.6088 393.087L2.25913 398.414L3.80699 401.421ZM15.0738 394.59L15.0738 360.269L11.6916 360.269L11.6916 394.59L15.0738 394.59ZM14.1301 358.752L3.78042 353.653L2.28571 356.687L12.6354 361.786L14.1301 358.752ZM4.72419 355.17L4.72419 337.134L1.34195 337.134L1.34195 355.17L4.72419 355.17ZM2.27029 338.644L58.889 367.257L60.4146 364.239L3.79584 335.625L2.27029 338.644ZM57.9607 365.748L57.9607 388.731L61.3429 388.731L61.3429 365.748L57.9607 365.748ZM58.8541 387.239L2.23537 417.527L3.83076 420.51L60.4495 390.222L58.8541 387.239ZM4.72418 419.018L4.72418 399.917L1.34194 399.917L1.34194 419.018L4.72418 419.018ZM3.03306 441.039L3.03306 439.348L1.34194 439.348L1.34194 441.039L3.03306 441.039ZM46.2581 441.039L46.2581 442.731L47.9492 442.731L47.9492 441.039L46.2581 441.039ZM46.2581 416.687L46.2581 414.996L44.567 414.996L44.567 416.687L46.2581 416.687ZM59.6518 416.687L61.3429 416.687L61.3429 414.996L59.6518 414.996L59.6518 416.687ZM59.6518 483.351L59.6518 485.042L61.3429 485.042L61.3429 483.351L59.6518 483.351ZM46.2581 483.351L44.567 483.351L44.567 485.042L46.2581 485.042L46.2581 483.351ZM46.2581 458.923L47.9492 458.923L47.9492 457.232L46.2581 457.232L46.2581 458.923ZM3.03306 458.923L1.34194 458.923L1.34194 460.614L3.03306 460.614L3.03306 458.923ZM3.03306 442.731L46.2581 442.731L46.2581 439.348L3.03306 439.348L3.03306 442.731ZM47.9492 441.039L47.9492 416.687L44.567 416.687L44.567 441.039L47.9492 441.039ZM46.2581 418.378L59.6518 418.378L59.6518 414.996L46.2581 414.996L46.2581 418.378ZM57.9607 416.687L57.9607 483.351L61.3429 483.351L61.3429 416.687L57.9607 416.687ZM59.6518 481.66L46.2581 481.66L46.2581 485.042L59.6518 485.042L59.6518 481.66ZM47.9492 483.351L47.9492 458.923L44.567 458.923L44.567 483.351L47.9492 483.351ZM46.2581 457.232L3.03306 457.232L3.03306 460.614L46.2581 460.614L46.2581 457.232ZM4.72418 458.923L4.72418 441.039L1.34194 441.039L1.34194 458.923L4.72418 458.923ZM59.5757 549.358L57.9105 549.063L57.9087 549.073L57.907 549.084L59.5757 549.358ZM56.9122 559.404L55.3502 558.755L55.346 558.765L56.9122 559.404ZM52.8027 566.557L54.1233 567.613L54.1233 567.613L52.8027 566.557ZM47.9323 571.275L46.9742 569.882L46.9597 569.892L46.9453 569.902L47.9323 571.275ZM42.6053 574.091L42.0206 572.504L42.0206 572.504L42.6053 574.091ZM37.4304 575.461L37.2069 573.784L37.2069 573.784L37.4304 575.461ZM25.6349 575.461L25.8584 573.784L25.8584 573.784L25.6349 575.461ZM20.384 574.091L19.7993 575.678L19.8126 575.683L20.384 574.091ZM14.9808 571.351L14.0228 572.745L14.0327 572.752L14.0428 572.758L14.9808 571.351ZM10.0343 566.557L8.71375 567.613L8.71689 567.617L10.0343 566.557ZM5.84877 559.48L4.28687 560.128L4.29205 560.14L4.29743 560.153L5.84877 559.48ZM3.10916 549.358L4.77497 549.067L4.77433 549.063L3.10916 549.358ZM3.10916 519.223L1.44335 518.931L3.10916 519.223ZM5.84877 509.101L4.29743 508.428L4.29205 508.44L4.28687 508.453L5.84877 509.101ZM10.0343 501.948L8.72981 500.872L8.71525 500.889L8.70116 500.907L10.0343 501.948ZM14.9808 497.153L14.0428 495.746L14.018 495.763L13.9938 495.78L14.9808 497.153ZM20.384 494.414L19.8492 492.809L19.8241 492.818L19.7993 492.827L20.384 494.414ZM25.6349 493.12L25.8584 494.796L25.8584 494.796L25.6349 493.12ZM37.3544 493.12L37.1233 494.795L37.1308 494.796L37.3544 493.12ZM42.5292 494.414L43.1006 492.822L43.0886 492.818L43.0766 492.814L42.5292 494.414ZM47.9323 497.153L48.9193 495.78L48.9049 495.77L48.8904 495.76L47.9323 497.153ZM52.8027 501.948L54.1233 500.891L54.1233 500.891L52.8027 501.948ZM56.9122 509.025L58.4783 508.387L58.4741 508.377L56.9122 509.025ZM59.5757 519.223L57.9064 519.494L57.9081 519.504L57.9099 519.514L59.5757 519.223ZM36.1367 556.664L36.5927 558.292L36.5927 558.292L36.1367 556.664ZM40.094 554.609L41.1006 555.968L41.1006 555.968L40.094 554.609ZM43.5946 550.652L45.0487 551.515L45.0487 551.515L43.5946 550.652ZM45.9537 544.031L44.3079 543.642L44.3046 543.656L44.3014 543.671L45.9537 544.031ZM26.0154 512.297L25.4216 510.714L25.4001 510.722L25.3789 510.731L26.0154 512.297ZM21.145 515.57L19.9883 514.336L19.9883 514.336L21.145 515.57ZM17.2638 522.647L15.6447 522.159L15.6447 522.159L17.2638 522.647ZM17.1877 545.782L15.5637 546.253L15.5661 546.261L15.5686 546.27L17.1877 545.782ZM20.9928 552.935L19.797 554.131L19.8064 554.14L19.8161 554.15L20.9928 552.935ZM25.8632 556.207L26.4997 554.641L26.4784 554.632L26.457 554.624L25.8632 556.207ZM58.95 532.692L58.95 535.965L62.3322 535.965L62.3322 532.692L58.95 532.692ZM58.95 535.965C58.95 540.807 58.6004 545.17 57.9105 549.063L61.2408 549.653C61.9715 545.53 62.3322 540.965 62.3322 535.965L58.95 535.965ZM57.907 549.084C57.2609 553.01 56.4013 556.223 55.3502 558.755L58.4741 560.052C59.6553 557.206 60.5713 553.723 61.2443 549.633L57.907 549.084ZM55.346 558.765C54.2829 561.375 52.9912 563.614 51.4822 565.501L54.1233 567.613C55.8612 565.441 57.3091 562.911 58.4783 560.042L55.346 558.765ZM51.4822 565.501C49.9314 567.439 48.4254 568.884 46.9742 569.882L48.8904 572.669C50.6862 571.434 52.4271 569.734 54.1233 567.613L51.4822 565.501ZM46.9453 569.902C45.4491 570.977 43.8094 571.845 42.0206 572.504L43.1899 575.678C45.2569 574.916 47.1686 573.907 48.9193 572.648L46.9453 569.902ZM42.0206 572.504C40.173 573.185 38.5723 573.602 37.2069 573.784L37.6539 577.137C39.3326 576.913 41.1818 576.418 43.1899 575.678L42.0206 572.504ZM37.2069 573.784C35.7653 573.977 34.2422 574.074 32.6361 574.074L32.6361 577.456C34.3785 577.456 36.0516 577.351 37.654 577.137L37.2069 573.784ZM32.6361 574.074L30.3531 574.074L30.3531 577.456L32.6361 577.456L32.6361 574.074ZM30.3531 574.074C28.8001 574.074 27.3022 573.977 25.8584 573.784L25.4114 577.137C27.0116 577.35 28.6591 577.456 30.3531 577.456L30.3531 574.074ZM25.8584 573.784C24.4894 573.602 22.8594 573.183 20.9553 572.499L19.8126 575.683C21.8657 576.42 23.7364 576.914 25.4114 577.137L25.8584 573.784ZM20.9686 572.504C19.1625 571.839 17.4804 570.985 15.9189 569.944L14.0428 572.758C15.8296 573.95 17.7496 574.923 19.7993 575.678L20.9686 572.504ZM15.9389 569.958C14.4891 568.961 12.9569 567.491 11.3517 565.497L8.71689 567.617C10.4601 569.783 12.2256 571.509 14.0228 572.745L15.9389 569.958ZM11.3548 565.501C9.83598 563.602 8.51484 561.375 7.40011 558.806L4.29743 560.153C5.51645 562.962 6.98566 565.453 8.71375 567.613L11.3548 565.501ZM7.41068 558.831C6.35728 556.294 5.47188 553.049 4.77496 549.067L1.44335 549.65C2.16697 553.785 3.10798 557.288 4.28687 560.128L7.41068 558.831ZM4.77433 549.063C4.08446 545.17 3.73487 540.807 3.73487 535.965L0.352632 535.965C0.352632 540.965 0.713318 545.53 1.44398 549.653L4.77433 549.063ZM3.73487 535.965L3.73487 532.692L0.352632 532.692L0.352632 535.965L3.73487 535.965ZM3.73487 532.692C3.73487 527.851 4.08441 523.46 4.77496 519.514L1.44335 518.931C0.71337 523.102 0.352632 527.692 0.352632 532.692L3.73487 532.692ZM4.77496 519.514C5.47189 515.532 6.35728 512.287 7.41068 509.749L4.28687 508.453C3.10799 511.293 2.16697 514.796 1.44335 518.931L4.77496 519.514ZM7.40012 509.774C8.51628 507.202 9.84103 504.944 11.3674 502.988L8.70116 500.907C6.98061 503.112 5.51501 505.622 4.29743 508.428L7.40012 509.774ZM11.3388 503.024C12.9477 501.074 14.4929 499.587 15.9678 498.527L13.9938 495.78C12.2218 497.054 10.4693 498.763 8.72981 500.872L11.3388 503.024ZM15.9189 498.56C17.4804 497.519 19.1625 496.666 20.9686 496.001L19.7993 492.827C17.7496 493.582 15.8296 494.555 14.0428 495.746L15.9189 498.56ZM20.9187 496.018C22.8294 495.381 24.4721 494.981 25.8584 494.796L25.4114 491.444C23.7537 491.665 21.8957 492.127 19.8492 492.809L20.9187 496.018ZM25.8584 494.796C27.3022 494.604 28.8001 494.507 30.3531 494.507L30.3531 491.125C28.6591 491.125 27.0116 491.23 25.4114 491.444L25.8584 494.796ZM30.3531 494.507L32.6361 494.507L32.6361 491.125L30.3531 491.125L30.3531 494.507ZM32.6361 494.507C34.2426 494.507 35.7375 494.604 37.1233 494.795L37.5854 491.445C36.0287 491.23 34.3781 491.125 32.6361 491.125L32.6361 494.507ZM37.1308 494.796C38.5136 494.981 40.1272 495.379 41.9818 496.014L43.0766 492.814C41.0754 492.129 39.2391 491.665 37.5779 491.444L37.1308 494.796ZM41.9578 496.005C43.8087 496.67 45.4784 497.519 46.9742 498.547L48.8904 495.76C47.1393 494.556 45.2069 493.578 43.1006 492.822L41.9578 496.005ZM46.9453 498.527C48.4128 499.581 49.9278 501.061 51.4822 503.004L54.1233 500.891C52.4307 498.776 50.6988 497.059 48.9193 495.78L46.9453 498.527ZM51.4822 503.004C52.9954 504.896 54.2878 507.114 55.3503 509.673L58.4741 508.377C57.3042 505.559 55.8571 503.059 54.1233 500.891L51.4822 503.004ZM55.346 509.663C56.3995 512.249 57.2601 515.516 57.9064 519.494L61.2449 518.951C60.5722 514.812 59.657 511.28 58.4783 508.387L55.346 509.663ZM57.9099 519.514C58.6004 523.46 58.95 527.851 58.95 532.692L62.3322 532.692C62.3322 527.692 61.9715 523.102 61.2415 518.931L57.9099 519.514ZM31.038 558.888L32.1034 558.888L32.1034 555.506L31.038 555.506L31.038 558.888ZM32.1034 558.888C33.6661 558.888 35.1648 558.692 36.5927 558.292L35.6808 555.035C34.572 555.346 33.3819 555.506 32.1034 555.506L32.1034 558.888ZM36.5927 558.292C38.1083 557.868 39.6115 557.071 41.1006 555.968L39.0874 553.25C37.8368 554.177 36.7018 554.75 35.6808 555.035L36.5927 558.292ZM41.1006 555.968C42.6695 554.806 43.9824 553.311 45.0487 551.515L42.1405 549.789C41.2789 551.24 40.258 552.383 39.0874 553.25L41.1006 555.968ZM45.0487 551.515C46.1398 549.678 46.9762 547.278 47.6059 544.392L44.3014 543.671C43.7136 546.365 42.9773 548.379 42.1405 549.789L45.0487 551.515ZM47.5995 544.42C48.2964 541.472 48.6341 538.089 48.6341 534.29L45.2519 534.29C45.2519 537.899 44.9301 541.01 44.3079 543.642L47.5995 544.42ZM48.6341 534.29C48.6341 526.526 47.3865 520.412 44.6524 516.191C41.8363 511.844 37.5636 509.693 32.1034 509.693L32.1034 513.075C36.5363 513.075 39.6834 514.742 41.8138 518.03C44.0263 521.445 45.2519 526.783 45.2519 534.29L48.6341 534.29ZM32.1034 509.693L31.1902 509.693L31.1902 513.075L32.1034 513.075L32.1034 509.693ZM31.1902 509.693C29.172 509.693 27.2449 510.03 25.4216 510.714L26.6092 513.881C28.0328 513.347 29.5556 513.075 31.1902 513.075L31.1902 509.693ZM25.3789 510.731C23.5189 511.486 21.7241 512.709 19.9883 514.336L22.3016 516.803C23.8127 515.387 25.2649 514.428 26.6519 513.864L25.3789 510.731ZM19.9883 514.336C18.0656 516.139 16.6548 518.81 15.6447 522.159L18.8829 523.135C19.8007 520.092 20.9774 518.045 22.3016 516.803L19.9883 514.336ZM15.6447 522.159C14.6191 525.559 14.1268 529.615 14.1268 534.29L17.509 534.29C17.509 529.834 17.9807 526.127 18.8829 523.135L15.6447 522.159ZM14.1268 534.29C14.1268 538.91 14.5928 542.909 15.5637 546.253L18.8118 545.31C17.9563 542.363 17.509 538.702 17.509 534.29L14.1268 534.29ZM15.5686 546.27C16.576 549.61 17.9525 552.286 19.797 554.131L22.1886 551.739C20.8875 550.438 19.7273 548.345 18.8068 545.293L15.5686 546.27ZM19.8161 554.15C21.5581 555.837 23.3731 557.08 25.2694 557.791L26.457 554.624C25.1064 554.117 23.6744 553.178 22.1694 551.72L19.8161 554.15ZM25.2267 557.774C27.0608 558.519 29.0028 558.888 31.038 558.888L31.038 555.506C29.4204 555.506 27.9125 555.214 26.4997 554.641L25.2267 557.774ZM46.7908 607.465L48.4819 607.465L48.4819 605.774L46.7908 605.774L46.7908 607.465ZM35.6801 607.465L35.6801 605.774L33.989 605.774L33.989 607.465L35.6801 607.465ZM37.2021 639.732L38.4783 638.622L38.4783 638.622L37.2021 639.732ZM45.2688 639.732L43.9927 638.622L43.9927 638.622L45.2688 639.732ZM23.1236 607.465L24.8147 607.465L24.8147 605.774L23.1236 605.774L23.1236 607.465ZM3.03305 607.465L1.34193 607.465L1.34193 609.156L3.03305 609.156L3.03305 607.465ZM3.03306 589.734L3.03306 588.043L1.34194 588.043L1.34194 589.734L3.03306 589.734ZM59.6518 589.734L61.3429 589.734L61.3429 588.043L59.6518 588.043L59.6518 589.734ZM31.6468 649.473L33.2546 648.948L31.5401 643.69L30.0208 649.008L31.6468 649.473ZM27.0047 657.235L25.8686 655.982L25.8612 655.989L25.854 655.996L27.0047 657.235ZM3.41355 661.268L3.41355 662.959L3.87075 662.959L4.26566 662.729L3.41355 661.268ZM3.03305 661.268L1.34193 661.268L1.34193 662.959L3.03305 662.959L3.03305 661.268ZM3.03305 643.232L1.98824 641.903L1.34193 642.41L1.34193 643.232L3.03305 643.232ZM20.7645 639.732L22.0304 640.853L22.0304 640.853L20.7645 639.732ZM46.7908 605.774L35.6801 605.774L35.6801 609.156L46.7908 609.156L46.7908 605.774ZM33.989 607.465L33.989 634.329L37.3713 634.329L37.3713 607.465L33.989 607.465ZM33.989 634.329C33.989 636.949 34.5269 639.232 35.926 640.841L38.4783 638.622C37.848 637.897 37.3713 636.579 37.3713 634.329L33.989 634.329ZM35.926 640.841C37.2907 642.411 39.1175 643.173 41.2355 643.173L41.2355 639.791C40.005 639.791 39.1429 639.386 38.4783 638.622L35.926 640.841ZM41.2355 643.173L41.3116 643.173L41.3116 639.791L41.2355 639.791L41.2355 643.173ZM41.3116 643.173C43.3967 643.173 45.1913 642.398 46.5449 640.841L43.9927 638.622C43.317 639.399 42.4734 639.791 41.3116 639.791L41.3116 643.173ZM46.5449 640.841C47.944 639.232 48.4819 636.949 48.4819 634.329L45.0997 634.329C45.0997 636.579 44.6229 637.897 43.9927 638.622L46.5449 640.841ZM48.4819 634.329L48.4819 607.465L45.0997 607.465L45.0997 634.329L48.4819 634.329ZM23.1236 605.774L3.03305 605.774L3.03305 609.156L23.1236 609.156L23.1236 605.774ZM4.72417 607.465L4.72418 589.734L1.34194 589.734L1.34193 607.465L4.72417 607.465ZM3.03306 591.425L59.6518 591.425L59.6518 588.043L3.03306 588.043L3.03306 591.425ZM57.9606 589.734L57.9606 635.394L61.3429 635.394L61.3429 589.734L57.9606 589.734ZM57.9606 635.394C57.9606 643.474 56.7438 649.254 54.5282 652.962C52.3951 656.532 49.2839 658.283 44.9644 658.283L44.9644 661.666C50.4364 661.666 54.6689 659.32 57.4316 654.697C60.1119 650.211 61.3429 643.701 61.3429 635.394L57.9606 635.394ZM44.9644 658.283L44.0512 658.283L44.0512 661.666L44.9644 661.666L44.9644 658.283ZM44.0512 658.283C41.4131 658.283 39.2822 657.522 37.5529 656.058C35.7963 654.571 34.3326 652.254 33.2546 648.948L30.039 649.997C31.244 653.692 32.9892 656.626 35.3674 658.64C37.7729 660.676 40.7027 661.666 44.0512 661.666L44.0512 658.283ZM30.0208 649.008C29.1827 651.941 27.7875 654.242 25.8686 655.982L28.1408 658.487C30.585 656.271 32.2845 653.397 33.2729 649.937L30.0208 649.008ZM25.854 655.996C24.0928 657.631 21.7412 658.512 18.6336 658.512L18.6336 661.894C22.4259 661.894 25.6549 660.796 28.1554 658.474L25.854 655.996ZM18.6336 658.512L10.3387 658.512L10.3387 661.894L18.6336 661.894L18.6336 658.512ZM10.3387 658.512C8.58807 658.512 7.06894 658.603 5.8009 658.798C4.55648 658.989 3.4351 659.298 2.56145 659.807L4.26566 662.729C4.60962 662.528 5.25123 662.304 6.31519 662.141C7.35553 661.98 8.69016 661.894 10.3387 661.894L10.3387 658.512ZM3.41355 659.577L3.03305 659.577L3.03305 662.959L3.41355 662.959L3.41355 659.577ZM4.72417 661.268L4.72417 643.232L1.34193 643.232L1.34193 661.268L4.72417 661.268ZM4.07787 644.562C4.32593 644.367 5.03236 644.086 6.60977 644.086L6.60977 640.704C4.83876 640.704 3.16071 640.981 1.98824 641.903L4.07787 644.562ZM6.60977 644.086L13.1544 644.086L13.1544 640.704L6.60977 640.704L6.60977 644.086ZM13.1544 644.086C16.9056 644.086 20.0089 643.135 22.0304 640.853L19.4985 638.61C18.3745 639.879 16.4045 640.704 13.1544 640.704L13.1544 644.086ZM22.0304 640.853C24.0267 638.599 24.8147 635.023 24.8147 630.6L21.4324 630.6C21.4324 634.801 20.6477 637.313 19.4985 638.61L22.0304 640.853ZM24.8147 630.6L24.8147 607.465L21.4324 607.465L21.4324 630.6L24.8147 630.6Z" fill="#F14251"/>
</svg>
