<svg width="82" height="661" viewBox="0 0 82 661" fill="none" xmlns="http://www.w3.org/2000/svg">
<path d="M4.91151 26.2776L7.06839 26.7713L7.06839 26.7713L4.91151 26.2776ZM9.49175 13.5326L7.5944 12.3942L7.5944 12.3942L9.49175 13.5326ZM15.9638 6.36351L14.7365 4.52245L14.7091 4.54071L14.6822 4.55978L15.9638 6.36351ZM22.9338 2.97811L22.4464 0.819775L22.4135 0.827201L22.3809 0.835626L22.9338 2.97811ZM30.6007 2.28112L32.8134 2.28112L32.8134 0.0684411L30.6007 0.068441L30.6007 2.28112ZM30.6007 26.4767L30.7504 28.6844L32.8134 28.5445L32.8134 26.4767L30.6007 26.4767ZM19.4488 61.426L17.2547 61.7122L17.2578 61.7355L17.2613 61.7589L19.4488 61.426ZM21.3406 68.0972L23.2618 66.9994L23.2618 66.9994L21.3406 68.0972ZM23.7303 70.8852L22.6154 72.7964L22.648 72.8155L22.6813 72.8334L23.7303 70.8852ZM30.5011 70.3873L29.0611 68.7073L29.0611 68.7073L30.5011 70.3873ZM32.8908 64.8114L30.7442 64.2747L30.7384 64.2978L30.7332 64.321L32.8908 64.8114ZM34.1852 52.1659L36.3973 52.2192L36.3973 52.2178L34.1852 52.1659ZM34.4839 39.4209L32.2721 39.36L32.2719 39.3691L34.4839 39.4209ZM63.6581 4.17296L63.0223 6.29232L63.0317 6.29515L63.0412 6.29789L63.6581 4.17296ZM69.7319 7.7575L68.2517 9.40216L68.2651 9.41421L68.2786 9.42603L69.7319 7.7575ZM74.9096 14.7274L76.9065 13.7744L76.9022 13.7654L76.8978 13.7564L74.9096 14.7274ZM78.295 26.4767L76.1156 26.8596L76.1181 26.8738L76.1208 26.8881L78.295 26.4767ZM74.7104 80.7427L72.7143 79.788L72.7103 79.7963L72.7064 79.8046L74.7104 80.7427ZM69.3336 88.31L67.8478 86.6704L67.8339 86.683L67.8203 86.6958L69.3336 88.31ZM62.9611 92.3924L62.2418 90.2999L62.2315 90.3035L62.2212 90.3071L62.9611 92.3924ZM55.2942 93.4877L53.0815 93.4877L53.0815 95.7004L55.2942 95.7004L55.2942 93.4877ZM55.2942 69.3916L54.9304 67.209L53.0815 67.5172L53.0815 69.3916L55.2942 69.3916ZM57.2856 68.7942L56.5859 66.6951L56.4367 66.7448L56.296 66.8151L57.2856 68.7942ZM59.5757 67.2011L58.0701 65.5796L58.0701 65.5796L59.5757 67.2011ZM61.8658 63.8157L59.832 62.9441L59.832 62.9441L61.8658 63.8157ZM63.4589 57.5427L61.2778 57.1703L61.2764 57.179L63.4589 57.5427ZM63.0607 33.5462L60.9007 34.0262L60.9057 34.049L60.9113 34.0717L63.0607 33.5462ZM60.8701 28.0699L62.2866 26.37L62.279 26.3637L62.2713 26.3574L60.8701 28.0699ZM54.6967 28.1694L53.2802 26.4696L53.2401 26.5031L53.2016 26.5384L54.6967 28.1694ZM52.5062 33.148L50.3628 32.5984L50.3596 32.6113L52.5062 33.148ZM51.4109 44.2999L53.6233 44.3353L53.6234 44.3306L51.4109 44.2999ZM51.2118 56.7462L53.4241 56.7887L53.4242 56.7816L51.2118 56.7462ZM45.5363 86.6173L43.619 85.5128L43.6119 85.5251L43.605 85.5375L45.5363 86.6173ZM20.4445 94.9812L19.8454 97.1113L19.8539 97.1136L19.8623 97.1159L20.4445 94.9812ZM13.8728 91.2971L12.4662 93.0052L12.4662 93.0052L13.8728 91.2971ZM8.19733 83.8293L10.1848 82.8568L10.1806 82.8483L10.1764 82.8398L8.19733 83.8293ZM4.41365 71.1839L2.2341 71.5653L2.23598 71.5761L2.23797 71.5868L4.41365 71.1839ZM5.23235 52.4646L5.23235 45.5943L0.806992 45.5943L0.806991 52.4646L5.23235 52.4646ZM5.23235 45.5943C5.23235 38.3451 5.85346 32.0787 7.06839 26.7713L2.75462 25.7839C1.4471 31.4956 0.806992 38.107 0.806992 45.5943L5.23235 45.5943ZM7.06839 26.7713C8.30573 21.3661 9.76786 17.3731 11.3891 14.671L7.5944 12.3942C5.63111 15.6663 4.03974 20.1699 2.75462 25.7839L7.06839 26.7713ZM11.3891 14.671C13.044 11.9128 15.0015 9.76163 17.2454 8.16724L14.6822 4.55978C11.8813 6.54992 9.52403 9.17811 7.5944 12.3942L11.3891 14.671ZM17.1912 8.20457C19.6605 6.55836 21.7526 5.56808 23.4867 5.1206L22.3809 0.835626C19.9993 1.45022 17.4448 2.71687 14.7365 4.52245L17.1912 8.20457ZM23.4211 5.13645C25.3038 4.71133 27.3297 4.49379 29.5054 4.49379L29.5054 0.0684409C27.0345 0.0684408 24.6793 0.315567 22.4464 0.819775L23.4211 5.13645ZM29.5054 4.49379L30.6007 4.49379L30.6007 0.068441L29.5054 0.0684409L29.5054 4.49379ZM28.388 2.28112L28.388 26.4767L32.8134 26.4767L32.8134 2.28112L28.388 2.28112ZM30.451 24.2691C25.7202 24.5899 22.1289 27.0414 19.8368 31.3341C17.6266 35.4736 16.6387 41.2713 16.6387 48.4818L21.0641 48.4818C21.0641 41.5534 22.0343 36.614 23.7406 33.4185C25.365 30.3762 27.6483 28.8947 30.7504 28.6844L30.451 24.2691ZM16.6387 48.4818L16.6387 49.8758L21.0641 49.8758L21.0641 48.4818L16.6387 48.4818ZM16.6387 49.8758C16.6387 54.5752 16.8395 58.5291 17.2547 61.7122L21.6429 61.1398C21.2615 58.2159 21.0641 54.4696 21.0641 49.8758L16.6387 49.8758ZM17.2613 61.7589C17.7362 64.8798 18.4142 67.4358 19.4195 69.195L23.2618 66.9994C22.6739 65.9707 22.0907 64.0791 21.6363 61.0931L17.2613 61.7589ZM19.4195 69.195C20.2845 70.7088 21.3185 72.0399 22.6154 72.7964L24.8452 68.9739C24.549 68.8011 23.9899 68.2736 23.2618 66.9994L19.4195 69.195ZM22.6813 72.8334C23.9125 73.4963 25.2787 73.7948 26.7174 73.7948L26.7174 69.3695C25.8993 69.3695 25.2741 69.2034 24.7794 68.937L22.6813 72.8334ZM26.7174 73.7948C28.6765 73.7948 30.5027 73.3002 31.9411 72.0673L29.0611 68.7073C28.6409 69.0675 27.9446 69.3695 26.7174 69.3695L26.7174 73.7948ZM31.9411 72.0673C32.7782 71.3498 33.3741 70.3296 33.8293 69.2675C34.2989 68.1718 34.6996 66.8368 35.0485 65.3018L30.7332 64.321C30.4182 65.7067 30.0887 66.7614 29.7618 67.5243C29.4204 68.3208 29.1534 68.6283 29.0611 68.7073L31.9411 72.0673ZM35.0374 65.348C35.8271 62.1892 36.2632 57.7812 36.3973 52.2192L31.9732 52.1126C31.8417 57.5698 31.4148 61.5921 30.7442 64.2747L35.0374 65.348ZM36.3973 52.2178L36.696 39.4728L32.2719 39.3691L31.9732 52.1141L36.3973 52.2178ZM36.6958 39.4818C37.0238 27.5764 38.9776 18.9931 42.3053 13.452C45.5318 8.07942 50.0806 5.4895 56.1903 5.4895L56.1903 1.06415C48.4929 1.06415 42.5204 4.49824 38.5115 11.1737C34.6037 17.6806 32.6079 27.1693 32.2721 39.36L36.6958 39.4818ZM56.1903 5.4895L57.0864 5.4895L57.0864 1.06415L56.1903 1.06415L56.1903 5.4895ZM57.0864 5.4895C59.2923 5.4895 61.2653 5.76521 63.0223 6.29232L64.2939 2.0536C62.0681 1.38586 59.66 1.06415 57.0864 1.06415L57.0864 5.4895ZM63.0412 6.29789C64.7088 6.78204 66.4477 7.77857 68.2517 9.40216L71.2121 6.11283C69.0333 4.15189 66.723 2.75873 64.275 2.04802L63.0412 6.29789ZM68.2786 9.42603C70.0797 10.9947 71.6361 13.0669 72.9213 15.6984L76.8978 13.7564C75.395 10.6793 73.4997 8.10484 71.1851 6.08896L68.2786 9.42603ZM72.9127 15.6805C74.187 18.3505 75.2708 22.0506 76.1156 26.8596L80.4743 26.0939C79.5932 21.0786 78.4201 16.9458 76.9065 13.7744L72.9127 15.6805ZM76.1208 26.8881C77.0182 31.6312 77.4763 37.1969 77.4763 43.6029L81.9016 43.6029C81.9016 36.9983 81.4304 31.1466 80.4691 26.0654L76.1208 26.8881ZM77.4763 43.6029L77.4763 50.4732L81.9016 50.4732L81.9016 43.6029L77.4763 43.6029ZM77.4763 50.4732C77.4763 57.1481 77.0178 62.9869 76.1171 68.005L80.4728 68.7868C81.4308 63.4496 81.9016 57.3399 81.9016 50.4732L77.4763 50.4732ZM76.1171 68.005C75.2057 73.0826 74.0555 76.9836 72.7143 79.788L76.7065 81.6973C78.286 78.3948 79.5255 74.0646 80.4728 68.7868L76.1171 68.005ZM72.7064 79.8046C71.3459 82.7111 69.7152 84.9781 67.8478 86.6704L70.8195 89.9496C73.2003 87.7919 75.1541 85.014 76.7144 81.6807L72.7064 79.8046ZM67.8203 86.6958C65.8593 88.5342 63.9967 89.6966 62.2418 90.2999L63.6804 94.4849C66.1738 93.6278 68.5596 92.0687 70.8469 89.9242L67.8203 86.6958ZM62.2212 90.3071C60.4224 90.9454 58.4512 91.275 56.2899 91.275L56.2899 95.7004C58.9079 95.7004 61.3843 95.2998 63.701 94.4777L62.2212 90.3071ZM56.2899 91.275L55.2942 91.275L55.2942 95.7004L56.2899 95.7004L56.2899 91.275ZM57.5068 93.4877L57.5068 69.3916L53.0815 69.3916L53.0815 93.4877L57.5068 93.4877ZM55.6579 71.5742C56.5994 71.4173 57.4902 71.1657 58.2751 70.7733L56.296 66.8151C56.0188 66.9537 55.5821 67.1004 54.9304 67.209L55.6579 71.5742ZM57.9853 70.8933C59.0555 70.5366 60.1083 69.726 61.0813 68.8225L58.0701 65.5796C57.1845 66.402 56.7105 66.6535 56.5859 66.6951L57.9853 70.8933ZM61.0813 68.8225C62.277 67.7122 63.2039 66.3107 63.8996 64.6873L59.832 62.9441C59.3329 64.1087 58.733 64.964 58.0701 65.5796L61.0813 68.8225ZM63.8996 64.6873C64.6028 63.0464 65.1682 60.7467 65.6415 57.9065L61.2764 57.179C60.8204 59.9148 60.3236 61.797 59.832 62.9441L63.8996 64.6873ZM65.6401 57.9151C66.1312 55.0386 66.3686 51.7224 66.3686 47.984L61.9433 47.984C61.9433 51.5473 61.716 54.6037 61.2778 57.1703L65.6401 57.9151ZM66.3686 47.984L66.3686 46.3908L61.9433 46.3908L61.9433 47.984L66.3686 47.984ZM66.3686 46.3908C66.3686 40.7562 66.0033 36.2659 65.2101 33.0208L60.9113 34.0717C61.5784 36.8009 61.9433 40.8736 61.9433 46.3908L66.3686 46.3908ZM65.2207 33.0663C64.8754 31.5126 64.4963 30.1819 64.0696 29.1151C63.6699 28.1158 63.1214 27.0657 62.2866 26.37L59.4536 29.7697C59.4154 29.7379 59.6303 29.9324 59.9608 30.7586C60.2642 31.5172 60.5821 32.5927 60.9007 34.0262L65.2207 33.0663ZM62.2713 26.3574C61.012 25.327 59.4171 24.9611 57.7834 24.9611L57.7834 29.3864C58.805 29.3864 59.2679 29.6179 59.469 29.7824L62.2713 26.3574ZM57.7834 24.9611C56.1208 24.9611 54.5554 25.407 53.2802 26.4696L56.1133 29.8693C56.4312 29.6043 56.9236 29.3864 57.7834 29.3864L57.7834 24.9611ZM53.2016 26.5384C52.4741 27.2052 51.9423 28.1252 51.5264 29.0706C51.0958 30.0492 50.7121 31.2364 50.3629 32.5984L54.6495 33.6975C54.9641 32.4707 55.2774 31.5337 55.577 30.8528C55.8912 30.1387 56.1228 29.8638 56.1919 29.8005L53.2016 26.5384ZM50.3596 32.6113C49.6348 35.5106 49.2657 39.4255 49.1985 44.2691L53.6234 44.3306C53.6889 39.6155 54.05 36.0958 54.6528 33.6846L50.3596 32.6113ZM49.1985 44.2645L48.9994 56.7108L53.4242 56.7816L53.6233 44.3353L49.1985 44.2645ZM48.9995 56.7036C48.7355 70.4315 46.8449 79.9131 43.619 85.5128L47.4535 87.7218C51.2639 81.1076 53.157 70.675 53.424 56.7887L48.9995 56.7036ZM43.605 85.5375C40.5684 90.9682 35.8905 93.6647 29.2067 93.6647L29.2067 98.09C37.3921 98.09 43.6005 94.6131 47.4675 87.6972L43.605 85.5375ZM29.2067 93.6647L27.8127 93.6647L27.8127 98.09L29.2067 98.09L29.2067 93.6647ZM27.8127 93.6647C25.2502 93.6647 22.9943 93.3832 21.0267 92.8465L19.8623 97.1159C22.2758 97.7742 24.9321 98.09 27.8127 98.09L27.8127 93.6647ZM21.0436 92.8512C19.2943 92.3592 17.3726 91.3129 15.2795 89.5891L12.4662 93.0052C14.887 94.9987 17.3464 96.4084 19.8454 97.1113L21.0436 92.8512ZM15.2795 89.5891C13.308 87.9655 11.5984 85.7455 10.1848 82.8568L6.20987 84.8019C7.84974 88.153 9.92388 90.9115 12.4662 93.0052L15.2795 89.5891ZM10.1764 82.8398C8.78081 80.0486 7.56706 76.0607 6.58934 70.781L2.23797 71.5868C3.25166 77.0607 4.56036 81.5031 6.21825 84.8189L10.1764 82.8398ZM6.59321 70.8025C5.69176 65.6513 5.23235 59.5448 5.23235 52.4646L0.806991 52.4646C0.806991 59.7226 1.2769 66.0956 2.2341 71.5653L6.59321 70.8025ZM4.31408 113.745L4.31408 111.532L2.10141 111.532L2.1014 113.745L4.31408 113.745ZM78.3945 113.745L80.6072 113.745L80.6072 111.532L78.3945 111.532L78.3945 113.745ZM78.3945 136.945L78.3945 139.157L80.6072 139.157L80.6072 136.945L78.3945 136.945ZM51.4109 136.945L51.4109 134.732L49.1982 134.732L49.1982 136.945L51.4109 136.945ZM51.4109 186.73L49.1982 186.73L49.1982 188.943L51.4109 188.943L51.4109 186.73ZM78.3945 186.73L80.6072 186.73L80.6072 184.517L78.3945 184.517L78.3945 186.73ZM78.3945 209.93L78.3945 212.143L80.6072 212.143L80.6072 209.93L78.3945 209.93ZM4.31408 209.93L2.1014 209.93L2.1014 212.143L4.31408 212.143L4.31408 209.93ZM4.31408 186.73L4.31408 184.517L2.1014 184.517L2.1014 186.73L4.31408 186.73ZM33.4882 186.73L33.4882 188.943L35.7009 188.943L35.7009 186.73L33.4882 186.73ZM33.4882 136.945L35.7009 136.945L35.7009 134.732L33.4882 134.732L33.4882 136.945ZM4.31408 136.945L2.1014 136.945L2.1014 139.157L4.31408 139.157L4.31408 136.945ZM4.31408 115.957L78.3945 115.957L78.3945 111.532L4.31408 111.532L4.31408 115.957ZM76.1818 113.745L76.1818 136.945L80.6072 136.945L80.6072 113.745L76.1818 113.745ZM78.3945 134.732L51.4109 134.732L51.4109 139.157L78.3945 139.157L78.3945 134.732ZM49.1982 136.945L49.1982 186.73L53.6236 186.73L53.6236 136.945L49.1982 136.945ZM51.4109 188.943L78.3945 188.943L78.3945 184.517L51.4109 184.517L51.4109 188.943ZM76.1818 186.73L76.1818 209.93L80.6072 209.93L80.6072 186.73L76.1818 186.73ZM78.3945 207.717L4.31408 207.717L4.31408 212.143L78.3945 212.143L78.3945 207.717ZM6.52675 209.93L6.52676 186.73L2.1014 186.73L2.1014 209.93L6.52675 209.93ZM4.31408 188.943L33.4882 188.943L33.4882 184.517L4.31408 184.517L4.31408 188.943ZM35.7009 186.73L35.7009 136.945L31.2756 136.945L31.2756 186.73L35.7009 186.73ZM33.4882 134.732L4.31408 134.732L4.31408 139.157L33.4882 139.157L33.4882 134.732ZM6.52676 136.945L6.52676 113.745L2.1014 113.745L2.1014 136.945L6.52676 136.945ZM78.3945 231.246L80.6072 231.246L80.6072 229.033L78.3945 229.033L78.3945 231.246ZM78.3945 309.309L78.3945 311.522L80.6072 311.522L80.6072 309.309L78.3945 309.309ZM61.5671 309.309L59.3544 309.309L59.3544 311.522L61.5671 311.522L61.5671 309.309ZM61.5671 254.147L63.7798 254.147L63.7798 251.934L61.5671 251.934L61.5671 254.147ZM50.6143 254.147L50.6143 251.934L48.4017 251.934L48.4017 254.147L50.6143 254.147ZM50.6143 308.015L50.6143 310.227L52.827 310.227L52.827 308.015L50.6143 308.015ZM33.6874 308.015L31.4747 308.015L31.4747 310.227L33.6874 310.227L33.6874 308.015ZM33.6874 254.147L35.9 254.147L35.9 251.934L33.6874 251.934L33.6874 254.147ZM21.5398 254.147L21.5398 251.934L19.3271 251.934L19.3271 254.147L21.5398 254.147ZM21.5398 310.305L21.5398 312.517L23.7524 312.517L23.7524 310.305L21.5398 310.305ZM4.31407 310.305L2.1014 310.305L2.1014 312.517L4.31407 312.517L4.31407 310.305ZM4.31408 231.246L4.31408 229.033L2.1014 229.033L2.1014 231.246L4.31408 231.246ZM76.1818 231.246L76.1818 309.309L80.6072 309.309L80.6072 231.246L76.1818 231.246ZM78.3945 307.096L61.5671 307.096L61.5671 311.522L78.3945 311.522L78.3945 307.096ZM63.7798 309.309L63.7798 254.147L59.3544 254.147L59.3544 309.309L63.7798 309.309ZM61.5671 251.934L50.6143 251.934L50.6143 256.36L61.5671 256.36L61.5671 251.934ZM48.4017 254.147L48.4017 308.015L52.827 308.015L52.827 254.147L48.4017 254.147ZM50.6143 305.802L33.6874 305.802L33.6874 310.227L50.6143 310.227L50.6143 305.802ZM35.9 308.015L35.9 254.147L31.4747 254.147L31.4747 308.015L35.9 308.015ZM33.6874 251.934L21.5398 251.934L21.5398 256.36L33.6874 256.36L33.6874 251.934ZM19.3271 254.147L19.3271 310.305L23.7524 310.305L23.7524 254.147L19.3271 254.147ZM21.5398 308.092L4.31407 308.092L4.31407 312.517L21.5398 312.517L21.5398 308.092ZM6.52675 310.305L6.52675 231.246L2.1014 231.246L2.1014 310.305L6.52675 310.305ZM4.31408 233.458L78.3945 233.458L78.3945 229.033L4.31408 229.033L4.31408 233.458ZM61.5671 353.083L63.7798 353.083L63.7798 350.87L61.5671 350.87L61.5671 353.083ZM47.0298 353.083L47.0298 350.87L44.8171 350.87L44.8171 353.083L47.0298 353.083ZM49.0212 395.301L50.6909 393.849L50.6909 393.849L49.0212 395.301ZM59.5757 395.301L57.906 393.849L57.906 393.849L59.5757 395.301ZM30.6007 353.083L32.8134 353.083L32.8134 350.87L30.6007 350.87L30.6007 353.083ZM4.31407 353.083L2.10139 353.083L2.10139 355.295L4.31407 355.295L4.31407 353.083ZM4.31407 329.883L4.31407 327.67L2.1014 327.67L2.1014 329.883L4.31407 329.883ZM78.3945 329.883L80.6072 329.883L80.6072 327.67L78.3945 327.67L78.3945 329.883ZM41.7526 408.046L43.8562 407.36L41.6129 400.48L39.625 407.438L41.7526 408.046ZM35.6788 418.202L34.1923 416.563L34.1827 416.572L34.1732 416.58L35.6788 418.202ZM4.81192 423.479L4.81192 425.692L5.41012 425.692L5.92682 425.39L4.81192 423.479ZM4.31407 423.479L2.10139 423.479L2.10139 425.692L4.31407 425.692L4.31407 423.479ZM4.31407 399.881L2.94703 398.141L2.10139 398.805L2.10139 399.881L4.31407 399.881ZM27.514 395.301L29.1704 396.768L29.1704 396.768L27.514 395.301ZM61.5671 350.87L47.0298 350.87L47.0298 355.295L61.5671 355.295L61.5671 350.87ZM44.8171 353.083L44.8171 388.231L49.2425 388.231L49.2425 353.083L44.8171 353.083ZM44.8171 388.231C44.8171 391.66 45.521 394.647 47.3515 396.752L50.6909 393.849C49.8662 392.9 49.2425 391.175 49.2425 388.231L44.8171 388.231ZM47.3515 396.752C49.1371 398.806 51.5273 399.803 54.2985 399.803L54.2985 395.378C52.6885 395.378 51.5606 394.849 50.6909 393.849L47.3515 396.752ZM54.2985 399.803L54.398 399.803L54.398 395.378L54.2985 395.378L54.2985 399.803ZM54.398 399.803C57.1262 399.803 59.4742 398.789 61.2454 396.752L57.906 393.849C57.0219 394.865 55.9181 395.378 54.398 395.378L54.398 399.803ZM61.2454 396.752C63.0759 394.647 63.7798 391.66 63.7798 388.231L59.3544 388.231C59.3544 391.175 58.7307 392.9 57.906 393.849L61.2454 396.752ZM63.7798 388.231L63.7798 353.083L59.3544 353.083L59.3544 388.231L63.7798 388.231ZM30.6007 350.87L4.31407 350.87L4.31407 355.295L30.6007 355.295L30.6007 350.87ZM6.52675 353.083L6.52675 329.883L2.1014 329.883L2.10139 353.083L6.52675 353.083ZM4.31407 332.095L78.3945 332.095L78.3945 327.67L4.31407 327.67L4.31407 332.095ZM76.1818 329.883L76.1818 389.625L80.6072 389.625L80.6072 329.883L76.1818 329.883ZM76.1818 389.625C76.1818 400.197 74.5896 407.76 71.6908 412.611C68.8999 417.282 64.8292 419.574 59.1774 419.574L59.1774 423.999C66.337 423.999 71.8749 420.931 75.4897 414.881C78.9965 409.012 80.6072 400.494 80.6072 389.625L76.1818 389.625ZM59.1774 419.574L57.9826 419.574L57.9826 423.999L59.1774 423.999L59.1774 419.574ZM57.9826 419.574C54.5308 419.574 51.7428 418.578 49.4801 416.662C47.1818 414.717 45.2667 411.685 43.8562 407.36L39.6489 408.732C41.2256 413.567 43.509 417.405 46.6207 420.04C49.768 422.704 53.6014 423.999 57.9826 423.999L57.9826 419.574ZM39.625 407.438C38.5286 411.275 36.703 414.286 34.1923 416.563L37.1653 419.841C40.3633 416.94 42.5869 413.18 43.8801 408.653L39.625 407.438ZM34.1732 416.58C31.8689 418.72 28.792 419.872 24.726 419.872L24.726 424.298C29.6878 424.298 33.9127 422.861 37.1844 419.823L34.1732 416.58ZM24.726 419.872L13.8728 419.872L13.8728 424.298L24.726 424.298L24.726 419.872ZM13.8728 419.872C11.5823 419.872 9.59466 419.991 7.93554 420.247C6.30733 420.497 4.84011 420.901 3.69702 421.568L5.92682 425.39C6.37686 425.128 7.21635 424.835 8.60845 424.62C9.96964 424.411 11.7159 424.298 13.8728 424.298L13.8728 419.872ZM4.81192 421.266L4.31407 421.266L4.31407 425.692L4.81192 425.692L4.81192 421.266ZM6.52675 423.479L6.52675 399.881L2.10139 399.881L2.10139 423.479L6.52675 423.479ZM5.68111 401.621C6.00569 401.366 6.92999 400.998 8.99388 400.998L8.99388 396.573C6.67668 396.573 4.4811 396.936 2.94703 398.141L5.68111 401.621ZM8.99388 400.998L17.5569 400.998L17.5569 396.573L8.99388 396.573L8.99388 400.998ZM17.5569 400.998C22.465 400.998 26.5255 399.754 29.1704 396.768L25.8576 393.833C24.3869 395.494 21.8094 396.573 17.5569 396.573L17.5569 400.998ZM29.1704 396.768C31.7823 393.819 32.8134 389.14 32.8134 383.352L28.388 383.352C28.388 388.849 27.3612 392.136 25.8576 393.833L29.1704 396.768ZM32.8134 383.352L32.8134 353.083L28.388 353.083L28.388 383.352L32.8134 383.352ZM78.3945 464.36L78.3945 466.573L80.6072 466.573L80.6072 464.36L78.3945 464.36ZM4.31407 464.36L2.10139 464.36L2.10139 466.573L4.31407 466.573L4.31407 464.36ZM4.31407 441.161L4.31407 438.948L2.10139 438.948L2.10139 441.161L4.31407 441.161ZM78.3945 441.161L80.6072 441.161L80.6072 438.948L78.3945 438.948L78.3945 441.161ZM78.3945 462.148L4.31407 462.148L4.31407 466.573L78.3945 466.573L78.3945 462.148ZM6.52674 464.36L6.52674 441.161L2.10139 441.161L2.10139 464.36L6.52674 464.36ZM4.31407 443.373L78.3945 443.373L78.3945 438.948L4.31407 438.948L4.31407 443.373ZM76.1818 441.161L76.1818 464.36L80.6072 464.36L80.6072 441.161L76.1818 441.161ZM78.3945 485.637L80.6072 485.637L80.6072 483.424L78.3945 483.424L78.3945 485.637ZM78.3945 562.206L78.3945 564.419L80.6072 564.419L80.6072 562.206L78.3945 562.206ZM61.5671 562.206L59.3544 562.206L59.3544 564.419L61.5671 564.419L61.5671 562.206ZM61.5671 508.737L63.7798 508.737L63.7798 506.524L61.5671 506.524L61.5671 508.737ZM50.6143 508.737L50.6143 506.524L48.4017 506.524L48.4017 508.737L50.6143 508.737ZM50.6143 560.912L50.6143 563.125L52.827 563.125L52.827 560.912L50.6143 560.912ZM33.6874 560.912L31.4747 560.912L31.4747 563.125L33.6874 563.125L33.6874 560.912ZM33.6874 508.737L35.9 508.737L35.9 506.524L33.6874 506.524L33.6874 508.737ZM4.31406 508.737L2.10139 508.737L2.10139 510.95L4.31406 510.95L4.31406 508.737ZM4.31407 485.637L4.31407 483.424L2.10139 483.424L2.10139 485.637L4.31407 485.637ZM76.1818 485.637L76.1818 562.206L80.6072 562.206L80.6072 485.637L76.1818 485.637ZM78.3945 559.994L61.5671 559.994L61.5671 564.419L78.3945 564.419L78.3945 559.994ZM63.7798 562.206L63.7798 508.737L59.3544 508.737L59.3544 562.206L63.7798 562.206ZM61.5671 506.524L50.6143 506.524L50.6143 510.95L61.5671 510.95L61.5671 506.524ZM48.4017 508.737L48.4017 560.912L52.827 560.912L52.827 508.737L48.4017 508.737ZM50.6143 558.699L33.6874 558.699L33.6874 563.125L50.6143 563.125L50.6143 558.699ZM35.9 560.912L35.9 508.737L31.4747 508.737L31.4747 560.912L35.9 560.912ZM33.6874 506.524L4.31406 506.524L4.31406 510.95L33.6874 510.95L33.6874 506.524ZM6.52674 508.737L6.52674 485.637L2.10139 485.637L2.10139 508.737L6.52674 508.737ZM4.31407 487.849L78.3945 487.849L78.3945 483.424L4.31407 483.424L4.31407 487.849ZM78.3945 581.94L80.6072 581.94L80.6072 579.727L78.3945 579.727L78.3945 581.94ZM78.3945 658.51L78.3945 660.722L80.6072 660.722L80.6072 658.51L78.3945 658.51ZM61.5671 658.51L59.3544 658.51L59.3544 660.722L61.5671 660.722L61.5671 658.51ZM61.5671 605.04L63.7798 605.04L63.7798 602.828L61.5671 602.828L61.5671 605.04ZM50.6143 605.04L50.6143 602.828L48.4017 602.828L48.4017 605.04L50.6143 605.04ZM50.6143 657.215L50.6143 659.428L52.827 659.428L52.827 657.215L50.6143 657.215ZM33.6873 657.215L31.4747 657.215L31.4747 659.428L33.6873 659.428L33.6873 657.215ZM33.6874 605.04L35.9 605.04L35.9 602.828L33.6874 602.828L33.6874 605.04ZM4.31406 605.04L2.10138 605.04L2.10138 607.253L4.31406 607.253L4.31406 605.04ZM4.31406 581.94L4.31406 579.727L2.10138 579.727L2.10138 581.94L4.31406 581.94ZM76.1818 581.94L76.1818 658.51L80.6072 658.51L80.6072 581.94L76.1818 581.94ZM78.3945 656.297L61.5671 656.297L61.5671 660.722L78.3945 660.722L78.3945 656.297ZM63.7798 658.51L63.7798 605.04L59.3544 605.04L59.3544 658.51L63.7798 658.51ZM61.5671 602.828L50.6143 602.828L50.6143 607.253L61.5671 607.253L61.5671 602.828ZM48.4017 605.04L48.4017 657.215L52.827 657.215L52.827 605.04L48.4017 605.04ZM50.6143 655.003L33.6873 655.003L33.6873 659.428L50.6143 659.428L50.6143 655.003ZM35.9 657.215L35.9 605.04L31.4747 605.04L31.4747 657.215L35.9 657.215ZM33.6874 602.828L4.31406 602.828L4.31406 607.253L33.6874 607.253L33.6874 602.828ZM6.52674 605.04L6.52674 581.94L2.10138 581.94L2.10138 605.04L6.52674 605.04ZM4.31406 584.153L78.3945 584.153L78.3945 579.727L4.31406 579.727L4.31406 584.153Z" fill="#F14251"/>
</svg>
