<svg width="82" height="670" viewBox="0 0 82 670" fill="none" xmlns="http://www.w3.org/2000/svg">
<path d="M4.15527 26.4237L6.32092 26.9195L6.32092 26.9195L4.15527 26.4237ZM8.75412 13.6269L6.84906 12.4839L6.84906 12.4839L8.75412 13.6269ZM15.2525 6.42874L14.0201 4.5802L13.9926 4.59853L13.9657 4.61768L15.2525 6.42874ZM22.2508 3.02958L21.7614 0.862479L21.7284 0.869935L21.6956 0.878394L22.2508 3.02958ZM29.9488 2.32976L32.1705 2.32976L32.1705 0.108092L29.9488 0.108092L29.9488 2.32976ZM29.9488 26.6237L30.0991 28.8403L32.1705 28.6998L32.1705 26.6237L29.9488 26.6237ZM18.7516 61.7149L16.5486 62.0023L16.5517 62.0258L16.5552 62.0492L18.7516 61.7149ZM20.6512 68.4133L22.5801 67.311L22.5801 67.311L20.6512 68.4133ZM23.0506 71.2126L21.9311 73.1316L21.9639 73.1507L21.9973 73.1687L23.0506 71.2126ZM29.8489 70.7127L28.403 69.0259L28.403 69.0259L29.8489 70.7127ZM32.2483 65.1141L30.0929 64.5753L30.0871 64.5984L30.0818 64.6217L32.2483 65.1141ZM33.5479 52.4173L35.769 52.4708L35.769 52.4693L33.5479 52.4173ZM33.8479 39.6205L31.627 39.5593L31.6268 39.5684L33.8479 39.6205ZM63.1406 4.22929L62.5022 6.35726L62.5116 6.3601L62.5211 6.36286L63.1406 4.22929ZM69.239 7.82839L67.7528 9.47974L67.7663 9.49184L67.7799 9.50371L69.239 7.82839ZM74.4377 14.8266L76.4428 13.8697L76.4384 13.8607L76.4341 13.8517L74.4377 14.8266ZM77.8369 26.6237L75.6487 27.0081L75.6512 27.0224L75.6539 27.0367L77.8369 26.6237ZM74.2378 81.1101L72.2335 80.1516L72.2296 80.1599L72.2256 80.1683L74.2378 81.1101ZM68.8391 88.7082L67.3472 87.062L67.3333 87.0746L67.3196 87.0874L68.8391 88.7082ZM62.4407 92.8072L61.7185 90.7062L61.7081 90.7098L61.6978 90.7134L62.4407 92.8072ZM54.7426 93.9069L52.521 93.9069L52.521 96.1286L54.7426 96.1286L54.7426 93.9069ZM54.7426 69.713L54.3774 67.5215L52.521 67.8309L52.521 69.713L54.7426 69.713ZM56.7421 69.1131L56.0396 67.0054L55.8898 67.0554L55.7486 67.126L56.7421 69.1131ZM59.0416 67.5135L57.5298 65.8855L57.5298 65.8855L59.0416 67.5135ZM61.341 64.1144L59.299 63.2392L59.299 63.2392L61.341 64.1144ZM62.9406 57.8159L60.7506 57.442L60.7492 57.4507L62.9406 57.8159ZM62.5407 33.7219L60.3719 34.2039L60.377 34.2267L60.3826 34.2495L62.5407 33.7219ZM60.3413 28.2233L61.7635 26.5166L61.7558 26.5102L61.7481 26.5038L60.3413 28.2233ZM54.1428 28.3233L52.7205 26.6165L52.6802 26.6501L52.6416 26.6856L54.1428 28.3233ZM51.9433 33.322L49.7913 32.7702L49.788 32.7832L51.9433 33.322ZM50.8436 44.5192L53.065 44.5548L53.0651 44.5501L50.8436 44.5192ZM50.6437 57.0161L52.8649 57.0588L52.8651 57.0517L50.6437 57.0161ZM44.9451 87.0086L43.02 85.8996L43.0129 85.912L43.006 85.9244L44.9451 87.0086ZM19.7514 95.4065L19.1499 97.5452L19.1583 97.5476L19.1668 97.5499L19.7514 95.4065ZM13.153 91.7075L11.7407 93.4224L11.7407 93.4224L13.153 91.7075ZM7.45444 84.2093L9.44998 83.2328L9.44581 83.2243L9.44156 83.2158L7.45444 84.2093ZM3.65539 71.5125L1.46698 71.8955L1.46887 71.9063L1.47087 71.917L3.65539 71.5125ZM4.47741 52.7172L4.47741 45.8189L0.0340744 45.8189L0.0340741 52.7172L4.47741 52.7172ZM4.47741 45.8189C4.47741 38.5403 5.10105 32.2484 6.32092 26.9195L1.98962 25.928C0.676788 31.663 0.0340747 38.3012 0.0340744 45.8189L4.47741 45.8189ZM6.32092 26.9195C7.56328 21.4923 9.03135 17.483 10.6592 14.77L6.84906 12.4839C4.87779 15.7693 3.27996 20.2913 1.98962 25.928L6.32092 26.9195ZM10.6592 14.77C12.3208 12.0006 14.2862 9.84067 16.5393 8.2398L13.9657 4.61768C11.1534 6.61591 8.78653 9.25478 6.84906 12.4839L10.6592 14.77ZM16.4849 8.27728C18.9642 6.62438 21.0648 5.63008 22.8059 5.18078L21.6956 0.878394C19.3044 1.49549 16.7395 2.76729 14.0201 4.5802L16.4849 8.27728ZM22.7401 5.19669C24.6304 4.76985 26.6646 4.55143 28.8491 4.55143L28.8491 0.108092C26.3681 0.108092 24.0034 0.356223 21.7614 0.862479L22.7401 5.19669ZM28.8491 4.55143L29.9488 4.55143L29.9488 0.108092L28.8491 0.108092L28.8491 4.55143ZM27.7272 2.32976L27.7272 26.6237L32.1705 26.6237L32.1705 2.32976L27.7272 2.32976ZM29.7986 24.4071C25.0485 24.7292 21.4426 27.1906 19.1412 31.5008C16.922 35.6571 15.9301 41.4783 15.9301 48.7182L20.3734 48.7182C20.3734 41.7616 21.3477 36.8022 23.0608 33.5936C24.6918 30.539 26.9844 29.0514 30.0991 28.8403L29.7986 24.4071ZM15.9301 48.7182L15.9301 50.1178L20.3734 50.1178L20.3734 48.7182L15.9301 48.7182ZM15.9301 50.1178C15.9301 54.8364 16.1317 58.8063 16.5486 62.0023L20.9546 61.4276C20.5717 58.4918 20.3734 54.7303 20.3734 50.1178L15.9301 50.1178ZM16.5552 62.0492C17.0321 65.1828 17.7128 67.7491 18.7222 69.5155L22.5801 67.311C21.9899 66.2781 21.4042 64.3789 20.948 61.3807L16.5552 62.0492ZM18.7222 69.5155C19.5907 71.0354 20.6289 72.372 21.9311 73.1316L24.17 69.2935C23.8726 69.1201 23.3112 68.5904 22.5801 67.311L18.7222 69.5155ZM21.9973 73.1687C23.2335 73.8343 24.6052 74.1341 26.0498 74.1341L26.0498 69.6907C25.2283 69.6907 24.6006 69.5239 24.1039 69.2565L21.9973 73.1687ZM26.0498 74.1341C28.0168 74.1341 29.8504 73.6375 31.2947 72.3995L28.403 69.0259C27.9811 69.3875 27.282 69.6907 26.0498 69.6907L26.0498 74.1341ZM31.2947 72.3995C32.1352 71.6791 32.7335 70.6548 33.1906 69.5884C33.6621 68.4881 34.0644 67.1477 34.4147 65.6065L30.0818 64.6217C29.7656 66.0131 29.4348 67.0721 29.1065 67.838C28.7637 68.6378 28.4956 68.9465 28.403 69.0259L31.2947 72.3995ZM34.4036 65.6529C35.1965 62.4812 35.6344 58.0553 35.769 52.4708L31.3269 52.3637C31.1949 57.8431 30.7663 61.8818 30.0929 64.5753L34.4036 65.6529ZM35.769 52.4693L36.0689 39.6725L31.6268 39.5684L31.3269 52.3652L35.769 52.4693ZM36.0687 39.6816C36.398 27.7278 38.3598 19.1096 41.701 13.5461C44.9406 8.15163 49.5079 5.55118 55.6424 5.55118L55.6424 1.10784C47.9138 1.10784 41.917 4.55589 37.8918 11.2584C33.9681 17.7918 31.9642 27.3191 31.627 39.5593L36.0687 39.6816ZM55.6424 5.55118L56.5422 5.55118L56.5422 1.10784L55.6424 1.10784L55.6424 5.55118ZM56.5422 5.55118C58.757 5.55118 60.738 5.82801 62.5022 6.35726L63.7789 2.10132C61.5441 1.43086 59.1262 1.10784 56.5422 1.10784L56.5422 5.55118ZM62.5211 6.36286C64.1955 6.84897 65.9415 7.84955 67.7528 9.47974L70.7253 6.17704C68.5376 4.20813 66.2179 2.80931 63.76 2.09572L62.5211 6.36286ZM67.7799 9.50371C69.5883 11.0787 71.151 13.1594 72.4414 15.8016L76.4341 13.8517C74.9251 10.762 73.0221 8.17715 70.6982 6.15307L67.7799 9.50371ZM72.4327 15.7836C73.7122 18.4645 74.8005 22.1796 75.6487 27.0081L80.025 26.2393C79.1404 21.2036 77.9625 17.054 76.4428 13.8697L72.4327 15.7836ZM75.6539 27.0367C76.5549 31.7991 77.0149 37.3874 77.0149 43.8194L81.4582 43.8194C81.4582 37.188 80.985 31.3125 80.0198 26.2107L75.6539 27.0367ZM77.0149 43.8194L77.0149 50.7177L81.4582 50.7177L81.4582 43.8194L77.0149 43.8194ZM77.0149 50.7177C77.0149 57.4197 76.5545 63.2822 75.6502 68.3207L80.0236 69.1057C80.9855 63.7468 81.4582 57.6123 81.4582 50.7177L77.0149 50.7177ZM75.6502 68.3207C74.7351 73.4189 73.5802 77.3357 72.2335 80.1516L76.242 82.0687C77.8279 78.7527 79.0725 74.4049 80.0236 69.1057L75.6502 68.3207ZM72.2256 80.1683C70.8597 83.0865 69.2223 85.3627 67.3472 87.062L70.331 90.3544C72.7216 88.188 74.6833 85.3988 76.2499 82.052L72.2256 80.1683ZM67.3196 87.0874C65.3507 88.9333 63.4806 90.1005 61.7185 90.7062L63.1629 94.9082C65.6665 94.0476 68.062 92.4821 70.3586 90.329L67.3196 87.0874ZM61.6978 90.7134C59.8917 91.3543 57.9125 91.6853 55.7424 91.6853L55.7424 96.1286C58.3711 96.1286 60.8575 95.7264 63.1837 94.901L61.6978 90.7134ZM55.7424 91.6853L54.7426 91.6853L54.7426 96.1286L55.7424 96.1286L55.7424 91.6853ZM56.9643 93.9069L56.9643 69.713L52.521 69.713L52.521 93.9069L56.9643 93.9069ZM55.1079 71.9044C56.0532 71.7468 56.9477 71.4943 57.7357 71.1002L55.7486 67.126C55.4702 67.2652 55.0317 67.4125 54.3774 67.5215L55.1079 71.9044ZM57.4447 71.2208C58.5193 70.8626 59.5763 70.0487 60.5533 69.1415L57.5298 65.8855C56.6406 66.7112 56.1647 66.9637 56.0396 67.0054L57.4447 71.2208ZM60.5533 69.1415C61.7539 68.0267 62.6845 66.6195 63.383 64.9895L59.299 63.2392C58.7978 64.4085 58.1955 65.2674 57.5298 65.8855L60.5533 69.1415ZM63.383 64.9895C64.0891 63.3419 64.6568 61.0329 65.132 58.1812L60.7492 57.4507C60.2913 60.1976 59.7926 62.0875 59.299 63.2392L63.383 64.9895ZM65.1306 58.1898C65.6237 55.3016 65.8621 51.972 65.8621 48.2183L61.4188 48.2183C61.4188 51.7962 61.1906 54.865 60.7506 57.442L65.1306 58.1898ZM65.8621 48.2183L65.8621 46.6187L61.4188 46.6187L61.4188 48.2183L65.8621 48.2183ZM65.8621 46.6187C65.8621 40.9612 65.4953 36.4526 64.6988 33.1944L60.3826 34.2495C61.0524 36.9898 61.4188 41.079 61.4188 46.6187L65.8621 46.6187ZM64.7095 33.24C64.3628 31.6801 63.9822 30.3439 63.5537 29.2727C63.1524 28.2694 62.6017 27.215 61.7635 26.5166L58.919 29.93C58.8806 29.8981 59.0964 30.0934 59.4282 30.9229C59.7329 31.6846 60.0521 32.7645 60.3719 34.2039L64.7095 33.24ZM61.7481 26.5038C60.4837 25.4693 58.8823 25.1019 57.242 25.1019L57.242 29.5452C58.2678 29.5452 58.7325 29.7776 58.9344 29.9428L61.7481 26.5038ZM57.242 25.1019C55.5726 25.1019 54.0009 25.5496 52.7205 26.6165L55.5651 30.03C55.8843 29.764 56.3787 29.5452 57.242 29.5452L57.242 25.1019ZM52.6416 26.6856C51.9111 27.3552 51.3772 28.2789 50.9596 29.2281C50.5272 30.2107 50.1419 31.4027 49.7913 32.7702L54.0954 33.8738C54.4113 32.642 54.7258 31.7012 55.0266 31.0176C55.3421 30.3005 55.5747 30.0246 55.644 29.961L52.6416 26.6856ZM49.788 32.7832C49.0603 35.6942 48.6897 39.6251 48.6222 44.4884L53.0651 44.5501C53.1308 39.8158 53.4934 36.2818 54.0987 33.8609L49.788 32.7832ZM48.6222 44.4837L48.4223 56.9806L52.8651 57.0517L53.065 44.5548L48.6222 44.4837ZM48.4224 56.9734C48.1573 70.7571 46.2591 80.2771 43.02 85.8996L46.8702 88.1177C50.696 81.4765 52.5968 71.0016 52.8649 57.0588L48.4224 56.9734ZM43.006 85.9244C39.9571 91.3772 35.2602 94.0847 28.5492 94.0847L28.5492 98.528C36.7678 98.528 43.0015 95.037 46.8842 88.0929L43.006 85.9244ZM28.5492 94.0847L27.1495 94.0847L27.1495 98.528L28.5492 98.528L28.5492 94.0847ZM27.1495 94.0847C24.5766 94.0847 22.3116 93.802 20.3359 93.2632L19.1668 97.5499C21.5901 98.2108 24.2572 98.528 27.1495 98.528L27.1495 94.0847ZM20.3529 93.2679C18.5965 92.7739 16.667 91.7233 14.5654 89.9925L11.7407 93.4224C14.1712 95.4241 16.6406 96.8395 19.1499 97.5452L20.3529 93.2679ZM14.5654 89.9925C12.5858 88.3623 10.8693 86.1332 9.44998 83.2328L5.4589 85.1859C7.10544 88.5505 9.18801 91.3202 11.7407 93.4224L14.5654 89.9925ZM9.44156 83.2158C8.04029 80.4132 6.82161 76.4091 5.83992 71.108L1.47087 71.917C2.48867 77.4132 3.80269 81.8736 5.46732 85.2029L9.44156 83.2158ZM5.8438 71.1295C4.93869 65.9574 4.47741 59.8262 4.47741 52.7172L0.0340741 52.7172C0.0340737 60.0046 0.505897 66.4036 1.46698 71.8955L5.8438 71.1295ZM3.55541 114.246L3.55542 112.025L1.33375 112.025L1.33375 114.246L3.55541 114.246ZM77.9369 114.246L80.1585 114.246L80.1585 112.025L77.9369 112.025L77.9369 114.246ZM77.9369 137.541L77.9369 139.762L80.1585 139.762L80.1585 137.541L77.9369 137.541ZM50.8436 137.541L50.8436 135.319L48.622 135.319L48.622 137.541L50.8436 137.541ZM50.8436 187.528L48.6219 187.528L48.6219 189.75L50.8436 189.75L50.8436 187.528ZM77.9369 187.528L80.1585 187.528L80.1585 185.306L77.9369 185.306L77.9369 187.528ZM77.9369 210.822L77.9369 213.044L80.1585 213.044L80.1585 210.822L77.9369 210.822ZM3.55541 210.822L1.33374 210.822L1.33374 213.044L3.55541 213.044L3.55541 210.822ZM3.55541 187.528L3.55541 185.306L1.33374 185.306L1.33374 187.528L3.55541 187.528ZM32.8481 187.528L32.8481 189.75L35.0698 189.75L35.0698 187.528L32.8481 187.528ZM32.8481 137.541L35.0698 137.541L35.0698 135.319L32.8481 135.319L32.8481 137.541ZM3.55541 137.541L1.33375 137.541L1.33375 139.762L3.55541 139.762L3.55541 137.541ZM3.55541 116.468L77.9369 116.468L77.9369 112.025L3.55542 112.025L3.55541 116.468ZM75.7152 114.246L75.7152 137.541L80.1585 137.541L80.1585 114.246L75.7152 114.246ZM77.9369 135.319L50.8436 135.319L50.8436 139.762L77.9369 139.762L77.9369 135.319ZM48.622 137.541L48.6219 187.528L53.0653 187.528L53.0653 137.541L48.622 137.541ZM50.8436 189.75L77.9369 189.75L77.9369 185.306L50.8436 185.306L50.8436 189.75ZM75.7152 187.528L75.7152 210.822L80.1585 210.822L80.1585 187.528L75.7152 187.528ZM77.9369 208.601L3.55541 208.601L3.55541 213.044L77.9369 213.044L77.9369 208.601ZM5.77708 210.822L5.77708 187.528L1.33374 187.528L1.33374 210.822L5.77708 210.822ZM3.55541 189.75L32.8481 189.75L32.8481 185.306L3.55541 185.306L3.55541 189.75ZM35.0698 187.528L35.0698 137.541L30.6264 137.541L30.6264 187.528L35.0698 187.528ZM32.8481 135.319L3.55541 135.319L3.55541 139.762L32.8481 139.762L32.8481 135.319ZM5.77708 137.541L5.77708 114.246L1.33375 114.246L1.33375 137.541L5.77708 137.541ZM77.8369 303.507L75.6493 303.119L75.6469 303.133L75.6447 303.146L77.8369 303.507ZM74.3377 316.704L72.2858 315.852L72.283 315.859L72.2803 315.865L74.3377 316.704ZM68.9391 326.101L70.6739 327.489L70.6739 327.489L68.9391 326.101ZM62.5407 332.3L61.2821 330.469L61.2629 330.482L61.244 330.496L62.5407 332.3ZM55.5424 335.999L54.7744 333.914L54.7744 333.914L55.5424 335.999ZM48.7441 337.798L48.4505 335.596L48.4505 335.596L48.7441 337.798ZM33.248 337.798L33.5416 335.596L33.5416 335.596L33.248 337.798ZM26.3497 335.999L25.5817 338.084L25.5904 338.087L25.5991 338.09L26.3497 335.999ZM19.2515 332.4L17.9929 334.231L18.0059 334.24L18.0191 334.248L19.2515 332.4ZM12.7531 326.101L11.0183 327.489L11.0224 327.494L12.7531 326.101ZM7.25448 316.804L5.20257 317.655L5.20938 317.672L5.21645 317.688L7.25448 316.804ZM3.65538 303.507L5.8438 303.124L5.84296 303.119L3.65538 303.507ZM3.65538 263.917L1.46697 263.534L3.65538 263.917ZM7.25449 250.62L5.21645 249.736L5.20938 249.752L5.20257 249.768L7.25449 250.62ZM12.7531 241.223L11.0394 239.809L11.0202 239.832L11.0017 239.856L12.7531 241.223ZM19.2515 234.924L18.0191 233.076L17.9866 233.097L17.9548 233.12L19.2515 234.924ZM26.3497 231.325L25.6472 229.217L25.6142 229.228L25.5817 229.24L26.3497 231.325ZM33.248 229.625L33.5416 231.828L33.5416 231.828L33.248 229.625ZM48.6442 229.625L48.3406 231.826L48.3505 231.828L48.6442 229.625ZM55.4425 231.325L56.1931 229.234L56.1774 229.228L56.1616 229.223L55.4425 231.325ZM62.5407 234.924L63.8373 233.12L63.8185 233.107L63.7993 233.093L62.5407 234.924ZM68.9391 241.223L70.6739 239.835L70.6739 239.835L68.9391 241.223ZM74.3378 250.52L76.3952 249.682L76.3925 249.675L76.3897 249.668L74.3378 250.52ZM77.8369 263.917L75.644 264.273L75.6461 264.287L75.6485 264.3L77.8369 263.917ZM47.0446 313.105L47.6436 315.244L47.6436 315.244L47.0446 313.105ZM52.2433 310.405L53.5657 312.19L53.5657 312.19L52.2433 310.405ZM56.8421 305.207L58.7524 306.341L58.7524 306.341L56.8421 305.207ZM59.9413 296.509L57.7792 295.998L57.7748 296.016L57.7707 296.035L59.9413 296.509ZM33.7479 254.819L32.9678 252.739L32.9396 252.749L32.9117 252.761L33.7479 254.819ZM27.3495 259.118L25.83 257.497L25.83 257.497L27.3495 259.118ZM22.2507 268.416L20.1237 267.774L20.1237 267.774L22.2507 268.416ZM22.1508 298.808L20.0172 299.428L20.0204 299.439L20.0237 299.45L22.1508 298.808ZM27.1495 308.206L25.5786 309.777L25.591 309.789L25.6037 309.801L27.1495 308.206ZM33.5479 312.505L34.3841 310.446L34.3562 310.435L34.328 310.425L33.5479 312.505ZM77.0149 281.612L77.0149 285.911L81.4582 285.911L81.4582 281.612L77.0149 281.612ZM77.0149 285.911C77.0149 292.272 76.5556 298.005 75.6493 303.119L80.0245 303.895C80.9844 298.478 81.4582 292.48 81.4582 285.911L77.0149 285.911ZM75.6447 303.146C74.796 308.304 73.6666 312.525 72.2858 315.852L76.3897 317.555C77.9415 313.817 79.1449 309.241 80.0291 303.868L75.6447 303.146ZM72.2803 315.865C70.8836 319.294 69.1867 322.235 67.2043 324.713L70.6739 327.489C72.9571 324.635 74.8593 321.312 76.3952 317.542L72.2803 315.865ZM67.2043 324.713C65.1669 327.26 63.1885 329.158 61.2821 330.469L63.7993 334.131C66.1585 332.509 68.4457 330.275 70.6739 327.489L67.2043 324.713ZM61.244 330.496C59.2784 331.909 57.1243 333.048 54.7744 333.914L56.3105 338.084C59.026 337.083 61.5373 335.757 63.8373 334.104L61.244 330.496ZM54.7744 333.914C52.3471 334.808 50.2442 335.357 48.4505 335.596L49.0378 340.001C51.2431 339.707 53.6724 339.055 56.3105 338.084L54.7744 333.914ZM48.4505 335.596C46.5566 335.849 44.5557 335.977 42.4457 335.977L42.4457 340.42C44.7347 340.42 46.9327 340.281 49.0378 340.001L48.4505 335.596ZM42.4457 335.977L39.4465 335.977L39.4465 340.42L42.4457 340.42L42.4457 335.977ZM39.4465 335.977C37.4063 335.977 35.4384 335.849 33.5416 335.596L32.9544 340.001C35.0566 340.281 37.221 340.42 39.4465 340.42L39.4465 335.977ZM33.5416 335.596C31.7431 335.356 29.6018 334.806 27.1003 333.908L25.5991 338.09C28.2963 339.058 30.7539 339.707 32.9544 340.001L33.5416 335.596ZM27.1178 333.914C24.7451 333.04 22.5353 331.919 20.4839 330.551L18.0191 334.248C20.3666 335.813 22.8889 337.092 25.5817 338.084L27.1178 333.914ZM20.5101 330.569C18.6055 329.26 16.5926 327.328 14.4838 324.708L11.0224 327.494C13.3125 330.34 15.6319 332.607 17.9929 334.231L20.5101 330.569ZM14.4879 324.713C12.4926 322.219 10.757 319.294 9.29252 315.919L5.21645 317.688C6.8179 321.378 8.74804 324.651 11.0183 327.489L14.4879 324.713ZM9.3064 315.952C7.92253 312.618 6.75936 308.356 5.84379 303.124L1.46697 303.89C2.41761 309.322 3.65384 313.924 5.20257 317.655L9.3064 315.952ZM5.84296 303.119C4.93666 298.005 4.4774 292.272 4.4774 285.911L0.0340639 285.911C0.0340636 292.48 0.507907 298.478 1.4678 303.895L5.84296 303.119ZM4.4774 285.911L4.4774 281.612L0.034064 281.612L0.0340639 285.911L4.4774 285.911ZM4.4774 281.612C4.4774 275.252 4.93659 269.484 5.84379 264.3L1.46697 263.534C0.507975 269.014 0.0340643 275.043 0.034064 281.612L4.4774 281.612ZM5.84379 264.3C6.75936 259.068 7.92253 254.806 9.3064 251.472L5.20257 249.768C3.65384 253.499 2.41761 258.102 1.46697 263.534L5.84379 264.3ZM9.29252 251.505C10.7589 248.126 12.4992 245.159 14.5045 242.589L11.0017 239.856C8.74141 242.752 6.81602 246.05 5.21645 249.736L9.29252 251.505ZM14.4669 242.636C16.5805 240.074 18.6105 238.121 20.5481 236.728L17.9548 233.12C15.6269 234.793 13.3246 237.039 11.0394 239.809L14.4669 242.636ZM20.4839 236.773C22.5353 235.405 24.7451 234.284 27.1178 233.41L25.5817 229.24C22.8889 230.232 20.3666 231.511 18.0191 233.076L20.4839 236.773ZM27.0523 233.433C29.5624 232.596 31.7204 232.07 33.5416 231.828L32.9544 227.423C30.7766 227.714 28.3358 228.321 25.6472 229.217L27.0523 233.433ZM33.5416 231.828C35.4384 231.575 37.4063 231.447 39.4465 231.447L39.4465 227.004C37.221 227.004 35.0566 227.143 32.9544 227.423L33.5416 231.828ZM39.4465 231.447L42.4457 231.447L42.4457 227.004L39.4465 227.004L39.4465 231.447ZM42.4457 231.447C44.5562 231.447 46.5201 231.575 48.3406 231.826L48.9477 227.425C46.9026 227.142 44.7341 227.004 42.4457 227.004L42.4457 231.447ZM48.3505 231.828C50.1672 232.07 52.287 232.594 54.7233 233.427L56.1616 229.223C53.5326 228.324 51.1202 227.714 48.9378 227.423L48.3505 231.828ZM54.6918 233.416C57.1234 234.289 59.3169 235.404 61.2821 236.755L63.7993 233.093C61.4989 231.512 58.9603 230.227 56.1931 229.234L54.6918 233.416ZM61.2441 236.728C63.1719 238.114 65.1623 240.058 67.2043 242.61L70.6739 239.835C68.4503 237.055 66.1751 234.8 63.8373 233.12L61.2441 236.728ZM67.2043 242.61C69.1921 245.095 70.8901 248.009 72.2858 251.372L76.3897 249.668C74.8528 245.966 72.9517 242.682 70.6739 239.835L67.2043 242.61ZM72.2803 251.358C73.6643 254.756 74.7948 259.048 75.644 264.273L80.0298 263.561C79.1461 258.122 77.9438 253.483 76.3952 249.682L72.2803 251.358ZM75.6485 264.3C76.5557 269.484 77.0149 275.252 77.0149 281.612L81.4582 281.612C81.4582 275.043 80.9843 269.014 80.0253 263.534L75.6485 264.3ZM40.3462 316.026L41.7459 316.026L41.7459 311.583L40.3462 311.583L40.3462 316.026ZM41.7459 316.026C43.7988 316.026 45.7677 315.769 47.6436 315.244L46.4455 310.965C44.9889 311.373 43.4254 311.583 41.7459 311.583L41.7459 316.026ZM47.6436 315.244C49.6347 314.686 51.6094 313.64 53.5657 312.19L50.9209 308.62C49.278 309.837 47.7869 310.59 46.4455 310.965L47.6436 315.244ZM53.5657 312.19C55.6268 310.664 57.3516 308.7 58.7524 306.341L54.9318 304.072C53.8 305.979 52.4588 307.481 50.9209 308.62L53.5657 312.19ZM58.7524 306.341C60.1858 303.927 61.2846 300.774 62.1119 296.982L57.7707 296.035C56.9985 299.575 56.0311 302.221 54.9318 304.072L58.7524 306.341ZM62.1034 297.02C63.019 293.146 63.4627 288.702 63.4627 283.712L59.0194 283.712C59.0194 288.452 58.5966 292.54 57.7792 295.998L62.1034 297.02ZM63.4627 283.712C63.4627 273.512 61.8236 265.479 58.2318 259.935C54.5323 254.224 48.9191 251.398 41.7459 251.398L41.7459 255.841C47.5694 255.841 51.7038 258.03 54.5027 262.35C57.4092 266.837 59.0194 273.85 59.0194 283.712L63.4627 283.712ZM41.7459 251.398L40.5462 251.398L40.5462 255.841L41.7459 255.841L41.7459 251.398ZM40.5462 251.398C37.8947 251.398 35.3632 251.841 32.9678 252.739L34.528 256.899C36.3982 256.198 38.3988 255.841 40.5462 255.841L40.5462 251.398ZM32.9117 252.761C30.4682 253.753 28.1103 255.359 25.83 257.497L28.869 260.739C30.8542 258.878 32.7619 257.618 34.5841 256.877L32.9117 252.761ZM25.83 257.497C23.304 259.865 21.4506 263.374 20.1237 267.774L24.3778 269.057C25.5835 265.059 27.1293 262.37 28.869 260.739L25.83 257.497ZM20.1237 267.774C18.7763 272.242 18.1296 277.57 18.1296 283.712L22.5729 283.712C22.5729 277.857 23.1924 272.988 24.3778 269.057L20.1237 267.774ZM18.1296 283.712C18.1296 289.78 18.7417 295.034 20.0172 299.428L24.2843 298.189C23.1605 294.318 22.5729 289.507 22.5729 283.712L18.1296 283.712ZM20.0237 299.45C21.3471 303.838 23.1555 307.354 25.5786 309.777L28.7205 306.635C27.0113 304.926 25.4871 302.176 24.2778 298.167L20.0237 299.45ZM25.6037 309.801C27.8922 312.018 30.2766 313.651 32.7678 314.585L34.328 310.425C32.5537 309.759 30.6725 308.525 28.6953 306.61L25.6037 309.801ZM32.7117 314.563C35.1213 315.542 37.6725 316.026 40.3462 316.026L40.3462 311.583C38.2212 311.583 36.2401 311.2 34.3841 310.446L32.7117 314.563ZM61.0411 379.843L63.2627 379.843L63.2627 377.622L61.0411 377.622L61.0411 379.843ZM46.4447 379.843L46.4447 377.622L44.223 377.622L44.223 379.843L46.4447 379.843ZM48.4442 422.233L50.1207 420.775L50.1207 420.775L48.4442 422.233ZM59.0416 422.233L57.3651 420.775L57.3651 420.775L59.0416 422.233ZM29.9488 379.843L32.1705 379.843L32.1705 377.622L29.9488 377.622L29.9488 379.843ZM3.5554 379.843L1.33374 379.843L1.33374 382.065L3.5554 382.065L3.5554 379.843ZM3.5554 356.549L3.5554 354.328L1.33374 354.328L1.33374 356.549L3.5554 356.549ZM77.9369 356.549L80.1585 356.549L80.1585 354.328L77.9369 354.328L77.9369 356.549ZM41.146 435.03L43.2582 434.341L41.0058 427.433L39.0098 434.419L41.146 435.03ZM35.0475 445.227L33.555 443.581L33.5454 443.59L33.5358 443.599L35.0475 445.227ZM4.05528 450.526L4.05528 452.747L4.6559 452.747L5.17471 452.445L4.05528 450.526ZM3.5554 450.526L1.33373 450.526L1.33373 452.747L3.5554 452.747L3.5554 450.526ZM3.5554 426.832L2.1828 425.085L1.33373 425.752L1.33373 426.832L3.5554 426.832ZM26.8496 422.233L28.5127 423.706L28.5127 423.706L26.8496 422.233ZM61.0411 377.622L46.4447 377.622L46.4447 382.065L61.0411 382.065L61.0411 377.622ZM44.223 379.843L44.223 415.135L48.6664 415.135L48.6664 379.843L44.223 379.843ZM44.223 415.135C44.223 418.577 44.9297 421.577 46.7677 423.691L50.1207 420.775C49.2927 419.823 48.6664 418.09 48.6664 415.135L44.223 415.135ZM46.7677 423.691C48.5605 425.752 50.9604 426.754 53.7429 426.754L53.7429 422.311C52.1264 422.311 50.9939 421.779 50.1207 420.775L46.7677 423.691ZM53.7429 426.754L53.8429 426.754L53.8429 422.311L53.7429 422.311L53.7429 426.754ZM53.8429 426.754C56.5822 426.754 58.9397 425.736 60.718 423.691L57.3651 420.775C56.4774 421.796 55.3692 422.311 53.8429 422.311L53.8429 426.754ZM60.718 423.691C62.556 421.577 63.2627 418.577 63.2627 415.135L58.8194 415.135C58.8194 418.09 58.1931 419.823 57.3651 420.775L60.718 423.691ZM63.2627 415.135L63.2627 379.843L58.8194 379.843L58.8194 415.135L63.2627 415.135ZM29.9488 377.622L3.5554 377.622L3.5554 382.065L29.9488 382.065L29.9488 377.622ZM5.77707 379.843L5.77707 356.549L1.33374 356.549L1.33374 379.843L5.77707 379.843ZM3.5554 358.771L77.9369 358.771L77.9369 354.328L3.5554 354.328L3.5554 358.771ZM75.7152 356.549L75.7152 416.534L80.1585 416.534L80.1585 356.549L75.7152 356.549ZM75.7152 416.534C75.7152 427.15 74.1165 434.742 71.2059 439.614C68.4036 444.303 64.3164 446.605 58.6417 446.605L58.6417 451.048C65.8304 451.048 71.3907 447.967 75.0202 441.893C78.5413 436 80.1585 427.447 80.1585 416.534L75.7152 416.534ZM58.6417 446.605L57.442 446.605L57.442 451.048L58.6417 451.048L58.6417 446.605ZM57.442 446.605C53.9762 446.605 51.1769 445.605 48.905 443.681C46.5973 441.728 44.6744 438.684 43.2582 434.341L39.0338 435.718C40.6169 440.573 42.9096 444.428 46.0339 447.073C49.194 449.748 53.043 451.048 57.442 451.048L57.442 446.605ZM39.0098 434.419C37.9089 438.273 36.0759 441.295 33.555 443.581L36.5401 446.873C39.7511 443.96 41.9837 440.185 43.2822 435.64L39.0098 434.419ZM33.5358 443.599C31.2222 445.747 28.1328 446.904 24.0503 446.904L24.0503 451.348C29.0322 451.348 33.2743 449.905 36.5593 446.855L33.5358 443.599ZM24.0503 446.904L13.153 446.904L13.153 451.348L24.0503 451.348L24.0503 446.904ZM13.153 446.904C10.8532 446.904 8.85744 447.024 7.19159 447.28C5.55677 447.532 4.08358 447.937 2.93584 448.607L5.17471 452.445C5.62657 452.181 6.46948 451.887 7.86723 451.672C9.23395 451.462 10.9873 451.348 13.153 451.348L13.153 446.904ZM4.05528 448.304L3.5554 448.304L3.5554 452.747L4.05528 452.747L4.05528 448.304ZM5.77707 450.526L5.77707 426.832L1.33373 426.832L1.33373 450.526L5.77707 450.526ZM4.928 428.579C5.25389 428.323 6.18195 427.954 8.25423 427.954L8.25423 423.51C5.92761 423.51 3.72311 423.875 2.1828 425.085L4.928 428.579ZM8.25423 427.954L16.8521 427.954L16.8521 423.51L8.25423 423.51L8.25423 427.954ZM16.8521 427.954C21.7801 427.954 25.8571 426.704 28.5127 423.706L25.1865 420.76C23.7098 422.427 21.1218 423.51 16.8521 423.51L16.8521 427.954ZM28.5127 423.706C31.1353 420.745 32.1705 416.047 32.1705 410.236L27.7271 410.236C27.7271 415.755 26.6962 419.055 25.1865 420.76L28.5127 423.706ZM32.1705 410.236L32.1705 379.843L27.7272 379.843L27.7271 410.236L32.1705 410.236ZM3.5554 496.396L3.5554 494.174L1.33373 494.174L1.33373 496.396L3.5554 496.396ZM60.3412 496.396L60.3412 498.617L62.5629 498.617L62.5629 496.396L60.3412 496.396ZM60.3412 464.404L60.3412 462.182L58.1196 462.182L58.1196 464.404L60.3412 464.404ZM77.9368 464.404L80.1585 464.404L80.1585 462.182L77.9368 462.182L77.9368 464.404ZM77.9368 551.982L77.9368 554.203L80.1585 554.203L80.1585 551.982L77.9368 551.982ZM60.3412 551.982L58.1196 551.982L58.1196 554.203L60.3412 554.203L60.3412 551.982ZM60.3412 519.89L62.5629 519.89L62.5629 517.668L60.3412 517.668L60.3412 519.89ZM3.5554 519.89L1.33373 519.89L1.33373 522.111L3.5554 522.111L3.5554 519.89ZM3.5554 498.617L60.3412 498.617L60.3412 494.174L3.5554 494.174L3.5554 498.617ZM62.5629 496.396L62.5629 464.404L58.1196 464.404L58.1196 496.396L62.5629 496.396ZM60.3412 466.625L77.9368 466.625L77.9368 462.182L60.3412 462.182L60.3412 466.625ZM75.7152 464.404L75.7152 551.982L80.1585 551.982L80.1585 464.404L75.7152 464.404ZM77.9368 549.76L60.3412 549.76L60.3412 554.203L77.9368 554.203L77.9368 549.76ZM62.5629 551.982L62.5629 519.89L58.1196 519.89L58.1196 551.982L62.5629 551.982ZM60.3412 517.668L3.5554 517.668L3.5554 522.111L60.3412 522.111L60.3412 517.668ZM5.77706 519.89L5.77707 496.396L1.33373 496.396L1.33373 519.89L5.77706 519.89ZM3.55539 602.821L3.55539 600.6L1.33373 600.6L1.33373 602.821L3.55539 602.821ZM32.3482 602.821L32.3482 605.043L33.1814 605.043L33.8091 604.495L32.3482 602.821ZM77.9368 563.031L80.1585 563.031L80.1585 558.143L76.4759 561.358L77.9368 563.031ZM77.9368 591.924L79.3688 593.623L80.1585 592.957L80.1585 591.924L77.9368 591.924ZM50.5437 615.018L49.1117 613.32L47.1141 615.004L49.0973 616.705L50.5437 615.018ZM77.9368 638.512L80.1585 638.512L80.1585 637.491L79.3832 636.826L77.9368 638.512ZM77.9368 664.806L76.4993 666.5L80.1585 669.605L80.1585 664.806L77.9368 664.806ZM32.3482 626.116L33.7858 624.422L33.1639 623.894L32.3482 623.894L32.3482 626.116ZM3.55539 626.116L1.33372 626.116L1.33372 628.337L3.55539 628.337L3.55539 626.116ZM3.55539 605.043L32.3482 605.043L32.3482 600.6L3.55539 600.6L3.55539 605.043ZM33.8091 604.495L79.3977 564.705L76.4759 561.358L30.8873 601.148L33.8091 604.495ZM75.7152 563.031L75.7152 591.924L80.1585 591.924L80.1585 563.031L75.7152 563.031ZM76.5048 590.226L49.1117 613.32L51.9757 616.717L79.3688 593.623L76.5048 590.226ZM49.0973 616.705L76.4905 640.199L79.3832 636.826L51.99 613.332L49.0973 616.705ZM75.7152 638.512L75.7152 664.806L80.1585 664.806L80.1585 638.512L75.7152 638.512ZM79.3744 663.112L33.7858 624.422L30.9106 627.809L76.4993 666.5L79.3744 663.112ZM32.3482 623.894L3.55539 623.894L3.55539 628.337L32.3482 628.337L32.3482 623.894ZM5.77706 626.116L5.77706 602.821L1.33373 602.821L1.33372 626.116L5.77706 626.116Z" fill="#F14251"/>
</svg>
