<svg width="146" height="662" viewBox="0 0 146 662" fill="none" xmlns="http://www.w3.org/2000/svg">
<path d="M78.9867 30.1817L78.9867 28.2819L77.0868 28.2819L77.0868 30.1817L78.9867 30.1817ZM127.547 30.1817L127.547 32.0816L129.447 32.0816L129.447 30.1817L127.547 30.1817ZM127.547 2.82384L127.547 0.923985L125.647 0.923984L125.647 2.82384L127.547 2.82384ZM142.594 2.82384L144.494 2.82384L144.494 0.923985L142.594 0.923985L142.594 2.82384ZM142.594 77.7161L142.594 79.6159L144.494 79.6159L144.494 77.7161L142.594 77.7161ZM127.547 77.7161L125.647 77.7161L125.647 79.6159L127.547 79.6159L127.547 77.7161ZM127.547 50.2727L129.447 50.2727L129.447 48.3728L127.547 48.3728L127.547 50.2727ZM78.9867 50.2727L77.0868 50.2727L77.0868 52.1725L78.9867 52.1725L78.9867 50.2727ZM78.9867 32.0816L127.547 32.0816L127.547 28.2819L78.9867 28.2819L78.9867 32.0816ZM129.447 30.1817L129.447 2.82384L125.647 2.82384L125.647 30.1817L129.447 30.1817ZM127.547 4.72369L142.594 4.72369L142.594 0.923985L127.547 0.923985L127.547 4.72369ZM140.694 2.82384L140.694 77.7161L144.494 77.7161L144.494 2.82384L140.694 2.82384ZM142.594 75.8162L127.547 75.8162L127.547 79.6159L142.594 79.6159L142.594 75.8162ZM129.447 77.7161L129.447 50.2727L125.647 50.2727L125.647 77.7161L129.447 77.7161ZM127.547 48.3728L78.9867 48.3728L78.9867 52.1725L127.547 52.1725L127.547 48.3728ZM80.8865 50.2727L80.8865 30.1817L77.0868 30.1817L77.0868 50.2727L80.8865 50.2727ZM104.977 132.266L103.077 132.266L103.077 135.385L105.848 133.954L104.977 132.266ZM128.829 119.955L129.701 121.643L133.042 119.919L129.672 118.252L128.829 119.955ZM104.977 108.157L105.819 106.454L103.077 105.098L103.077 108.157L104.977 108.157ZM78.9867 145.603L78.1172 143.914L77.0868 144.444L77.0868 145.603L78.9867 145.603ZM90.6138 139.619L91.4833 141.308L92.5136 140.778L92.5136 139.619L90.6138 139.619ZM90.6138 101.061L92.5137 101.061L92.5137 99.8792L91.4534 99.3569L90.6138 101.061ZM78.9867 95.3331L77.0868 95.3331L77.0868 96.515L78.1471 97.0373L78.9867 95.3331ZM78.9867 75.0711L79.8436 73.3755L77.0868 71.9823L77.0868 75.0711L78.9867 75.0711ZM142.594 107.217L144.494 107.217L144.494 106.048L143.451 105.521L142.594 107.217ZM142.594 133.036L143.49 134.711L144.494 134.174L144.494 133.036L142.594 133.036ZM78.9867 167.062L77.0868 167.062L77.0868 170.233L79.8828 168.737L78.9867 167.062ZM105.848 133.954L129.701 121.643L127.958 118.267L104.105 130.578L105.848 133.954ZM129.672 118.252L105.819 106.454L104.134 109.86L127.987 121.658L129.672 118.252ZM103.077 108.157L103.077 132.266L106.877 132.266L106.877 108.157L103.077 108.157ZM79.8561 147.292L91.4833 141.308L89.7443 137.929L78.1172 143.914L79.8561 147.292ZM92.5136 139.619L92.5137 101.061L88.7139 101.061L88.7139 139.619L92.5136 139.619ZM91.4534 99.3569L79.8263 93.6288L78.1471 97.0373L89.7742 102.765L91.4534 99.3569ZM80.8865 95.3331L80.8865 75.0711L77.0868 75.0711L77.0868 95.3331L80.8865 95.3331ZM78.1298 76.7667L141.737 108.912L143.451 105.521L79.8436 73.3755L78.1298 76.7667ZM140.694 107.217L140.694 133.036L144.494 133.036L144.494 107.217L140.694 107.217ZM141.698 131.36L78.0905 165.387L79.8828 168.737L143.49 134.711L141.698 131.36ZM80.8865 167.062L80.8865 145.603L77.0868 145.603L77.0868 167.062L80.8865 167.062ZM79.0722 200.095L77.2054 199.741L79.0722 200.095ZM82.1499 189.408L80.4239 188.614L80.4145 188.635L80.4055 188.655L82.1499 189.408ZM86.8521 181.799L85.4018 180.572L85.3925 180.583L85.3834 180.594L86.8521 181.799ZM98.5647 173.421L97.9079 171.638L97.8874 171.645L97.8671 171.653L98.5647 173.421ZM104.464 171.796L104.221 169.912L104.191 169.916L104.161 169.921L104.464 171.796ZM120.024 172.224L120.413 170.364L120.413 170.364L120.024 172.224ZM128.231 175.643L129.213 174.017L129.202 174.01L129.19 174.004L128.231 175.643ZM136.011 182.739L137.534 181.604L137.534 181.604L136.011 182.739ZM141.482 195.136L143.315 194.634L143.313 194.629L141.482 195.136ZM141.739 236.087L139.893 235.636L139.891 235.645L139.889 235.654L141.739 236.087ZM137.037 248.484L135.442 247.452L135.43 247.47L135.419 247.488L137.037 248.484ZM130.625 255.665L129.49 254.141L129.471 254.156L129.451 254.171L130.625 255.665ZM124.127 259.256L123.641 257.419L123.608 257.428L123.576 257.438L124.127 259.256ZM117.715 260.111L115.815 260.111L115.815 262.011L117.715 262.011L117.715 260.111ZM117.715 238.994L117.254 237.151L115.815 237.511L115.815 238.994L117.715 238.994ZM119.511 238.31L118.805 236.546L118.693 236.591L118.588 236.649L119.511 238.31ZM122.161 236.344L120.924 234.901L120.905 234.918L120.886 234.935L122.161 236.344ZM125.153 232.497L123.48 231.596L123.473 231.609L123.467 231.622L125.153 232.497ZM127.29 225.828L125.441 225.393L125.436 225.414L125.432 225.435L127.29 225.828ZM126.863 204.027L125.036 204.549L125.039 204.56L125.042 204.57L126.863 204.027ZM123.016 196.76L124.359 195.417L124.347 195.405L124.335 195.394L123.016 196.76ZM104.806 193.426L104.127 191.652L104.095 191.664L104.064 191.677L104.806 193.426ZM99.2486 197.102L97.9728 195.695L97.9617 195.705L97.9507 195.715L99.2486 197.102ZM94.974 204.455L93.1716 203.854L93.1716 203.854L94.974 204.455ZM104.378 238.994L105.228 237.295L105.095 237.228L104.954 237.183L104.378 238.994ZM104.635 239.08L106.535 239.08L106.535 237.18L104.635 237.18L104.635 239.08ZM104.635 260.196L104.635 262.096L106.535 262.096L106.535 260.196L104.635 260.196ZM97.8807 259.256L98.4504 257.444L98.4266 257.436L98.4027 257.429L97.8807 259.256ZM91.1268 255.58L89.9701 257.087L89.9784 257.093L89.9868 257.1L91.1268 255.58ZM84.6292 248.313L83.0251 249.331L83.0251 249.331L84.6292 248.313ZM79.8416 235.831L81.687 235.379L81.6859 235.375L79.8416 235.831ZM79.7751 217.535L79.7751 214.03L75.9754 214.03L75.9754 217.535L79.7751 217.535ZM79.7751 214.03C79.7751 209.055 80.1665 204.53 80.9389 200.448L77.2054 199.741C76.3819 204.094 75.9754 208.86 75.9754 214.03L79.7751 214.03ZM80.9389 200.448C81.7194 196.322 82.7114 192.903 83.8944 190.16L80.4055 188.655C79.0807 191.727 78.0208 195.432 77.2054 199.741L80.9389 200.448ZM83.8759 190.202C85.1251 187.486 86.6088 185.091 88.3208 183.004L85.3834 180.594C83.4477 182.953 81.7966 185.63 80.4239 188.614L83.8759 190.202ZM88.3024 183.026C90.0995 180.902 91.8512 179.296 93.5485 178.165L91.4408 175.003C89.3764 176.379 87.3663 178.25 85.4018 180.572L88.3024 183.026ZM93.5485 178.165C95.3142 176.988 97.2177 175.995 99.2622 175.188L97.8671 171.653C95.58 172.556 93.4368 173.672 91.4408 175.003L93.5485 178.165ZM99.2215 175.203C101.304 174.436 103.149 173.933 104.766 173.672L104.161 169.921C102.245 170.23 100.157 170.809 97.9079 171.638L99.2215 175.203ZM104.707 173.68C106.394 173.463 108.079 173.354 109.764 173.354L109.764 169.554C107.915 169.554 106.067 169.674 104.221 169.912L104.707 173.68ZM109.764 173.354L112.244 173.354L112.244 169.554L109.764 169.554L109.764 173.354ZM112.244 173.354C114.861 173.354 117.323 173.599 119.634 174.083L120.413 170.364C117.823 169.822 115.098 169.554 112.244 169.554L112.244 173.354ZM119.634 174.083C121.822 174.541 124.363 175.582 127.272 177.283L129.19 174.004C126.057 172.171 123.126 170.932 120.413 170.364L119.634 174.083ZM127.249 177.27C130.053 178.963 132.464 181.16 134.487 183.875L137.534 181.604C135.226 178.506 132.45 175.972 129.213 174.017L127.249 177.27ZM134.487 183.875C136.458 186.52 138.202 190.403 139.651 195.642L143.313 194.629C141.799 189.153 139.895 184.773 137.534 181.604L134.487 183.875ZM139.65 195.637C141.077 200.851 141.805 206.973 141.805 214.03L145.605 214.03C145.605 206.724 144.852 200.251 143.315 194.634L139.65 195.637ZM141.805 214.03L141.805 217.535L145.605 217.535L145.605 214.03L141.805 214.03ZM141.805 217.535C141.805 224.432 141.16 230.46 139.893 235.636L143.584 236.539C144.94 231 145.605 224.659 145.605 217.535L141.805 217.535ZM139.889 235.654C138.659 240.909 137.155 244.804 135.442 247.452L138.632 249.516C140.68 246.35 142.311 241.98 143.589 236.52L139.889 235.654ZM135.419 247.488C133.704 250.275 131.723 252.48 129.49 254.141L131.759 257.189C134.428 255.203 136.722 252.62 138.655 249.48L135.419 247.488ZM129.451 254.171C127.165 255.967 125.233 256.998 123.641 257.419L124.613 261.093C126.897 260.488 129.296 259.125 131.798 257.159L129.451 254.171ZM123.576 257.438C121.854 257.96 120.216 258.211 118.656 258.211L118.656 262.011C120.629 262.011 122.639 261.692 124.678 261.074L123.576 257.438ZM118.656 258.211L117.715 258.211L117.715 262.011L118.656 262.011L118.656 258.211ZM119.615 260.111L119.615 238.994L115.815 238.994L115.815 260.111L119.615 260.111ZM118.176 240.837C118.99 240.634 119.749 240.351 120.433 239.971L118.588 236.649C118.246 236.839 117.808 237.012 117.254 237.151L118.176 240.837ZM120.216 240.074C121.144 239.703 122.259 238.817 123.436 237.753L120.886 234.935C119.669 236.036 119.017 236.461 118.805 236.546L120.216 240.074ZM123.397 237.786C124.797 236.587 125.941 235.105 126.84 233.371L123.467 231.622C122.77 232.966 121.919 234.049 120.924 234.901L123.397 237.786ZM126.826 233.397C127.752 231.677 128.51 229.245 129.149 226.221L125.432 225.435C124.817 228.339 124.15 230.353 123.48 231.596L126.826 233.397ZM129.14 226.263C129.865 223.181 130.216 219.667 130.216 215.74L126.417 215.74C126.417 219.451 126.084 222.662 125.441 225.393L129.14 226.263ZM130.216 215.74C130.216 211.055 129.72 206.958 128.684 203.484L125.042 204.57C125.944 207.594 126.417 211.305 126.417 215.74L130.216 215.74ZM128.69 203.505C127.724 200.126 126.316 197.374 124.359 195.417L121.672 198.104C123.021 199.452 124.178 201.545 125.036 204.549L128.69 203.505ZM124.335 195.394C122.529 193.649 120.575 192.352 118.468 191.562L117.134 195.119C118.674 195.697 120.197 196.68 121.696 198.127L124.335 195.394ZM118.468 191.562C116.408 190.789 114.184 190.415 111.816 190.415L111.816 194.215C113.78 194.215 115.546 194.524 117.134 195.119L118.468 191.562ZM111.816 190.415L110.79 190.415L110.79 194.215L111.816 194.215L111.816 190.415ZM110.79 190.415C108.504 190.415 106.279 190.829 104.127 191.652L105.484 195.201C107.208 194.542 108.973 194.215 110.79 194.215L110.79 190.415ZM104.064 191.677C101.952 192.573 99.923 193.927 97.9728 195.695L100.524 198.51C102.222 196.972 103.898 195.875 105.548 195.175L104.064 191.677ZM97.9507 195.715C95.8768 197.655 94.3154 200.422 93.1716 203.854L96.7763 205.056C97.7983 201.99 99.0867 199.855 100.547 198.49L97.9507 195.715ZM93.1716 203.854C92.0089 207.342 91.4497 211.373 91.4497 215.911L95.2494 215.911C95.2494 211.672 95.7732 208.065 96.7763 205.056L93.1716 203.854ZM91.4497 215.911C91.4497 229.137 95.1794 238.064 103.803 240.805L104.954 237.183C98.8722 235.251 95.2494 228.789 95.2494 215.911L91.4497 215.911ZM103.529 240.693C103.657 240.758 104.094 240.979 104.635 240.979L104.635 237.18C104.774 237.18 104.886 237.197 104.959 237.211C105.034 237.226 105.092 237.244 105.129 237.256C105.198 237.279 105.235 237.298 105.228 237.295L103.529 240.693ZM102.735 239.08L102.735 260.196L106.535 260.196L106.535 239.08L102.735 239.08ZM104.635 258.297L103.694 258.297L103.694 262.096L104.635 262.096L104.635 258.297ZM103.694 258.297C102.027 258.297 100.281 258.019 98.4504 257.444L97.3111 261.068C99.4699 261.747 101.6 262.096 103.694 262.096L103.694 258.297ZM98.4027 257.429C96.7144 256.947 94.6742 255.866 92.2667 254.06L89.9868 257.1C92.5949 259.056 95.0574 260.425 97.3588 261.083L98.4027 257.429ZM92.2834 254.073C90.0316 252.345 88.011 250.096 86.2334 247.295L83.0251 249.331C85.0093 252.457 87.3203 255.053 89.9701 257.087L92.2834 254.073ZM86.2334 247.295C84.5078 244.576 82.9735 240.637 81.687 235.379L77.9962 236.282C79.3315 241.74 80.989 246.122 83.0251 249.331L86.2334 247.295ZM81.6859 235.375C80.4201 230.256 79.7751 224.316 79.7751 217.535L75.9754 217.535C75.9754 224.547 76.6414 230.804 77.9973 236.287L81.6859 235.375ZM78.9867 299.119L78.9867 297.219L77.0868 297.219L77.0868 299.119L78.9867 299.119ZM127.547 299.119L127.547 301.019L129.447 301.019L129.447 299.119L127.547 299.119ZM127.547 271.761L127.547 269.861L125.647 269.861L125.647 271.761L127.547 271.761ZM142.594 271.761L144.494 271.761L144.494 269.861L142.594 269.861L142.594 271.761ZM142.594 346.653L142.594 348.553L144.494 348.553L144.494 346.653L142.594 346.653ZM127.547 346.653L125.647 346.653L125.647 348.553L127.547 348.553L127.547 346.653ZM127.547 319.21L129.447 319.21L129.447 317.31L127.547 317.31L127.547 319.21ZM78.9867 319.21L77.0868 319.21L77.0868 321.109L78.9867 321.109L78.9867 319.21ZM78.9867 301.019L127.547 301.019L127.547 297.219L78.9867 297.219L78.9867 301.019ZM129.447 299.119L129.447 271.761L125.647 271.761L125.647 299.119L129.447 299.119ZM127.547 273.661L142.594 273.661L142.594 269.861L127.547 269.861L127.547 273.661ZM140.694 271.761L140.694 346.653L144.494 346.653L144.494 271.761L140.694 271.761ZM142.594 344.753L127.547 344.753L127.547 348.553L142.594 348.553L142.594 344.753ZM129.447 346.653L129.447 319.21L125.647 319.21L125.647 346.653L129.447 346.653ZM127.547 317.31L78.9867 317.31L78.9867 321.109L127.547 321.109L127.547 317.31ZM80.8865 319.21L80.8865 299.119L77.0868 299.119L77.0868 319.21L80.8865 319.21ZM142.594 382.359L142.594 384.258L144.494 384.258L144.494 382.359L142.594 382.359ZM78.9867 382.359L77.0868 382.359L77.0868 384.258L78.9867 384.258L78.9867 382.359ZM78.9867 362.439L78.9867 360.539L77.0868 360.539L77.0868 362.439L78.9867 362.439ZM142.594 362.439L144.494 362.439L144.494 360.539L142.594 360.539L142.594 362.439ZM142.594 380.459L78.9867 380.459L78.9867 384.258L142.594 384.258L142.594 380.459ZM80.8865 382.359L80.8865 362.439L77.0868 362.439L77.0868 382.359L80.8865 382.359ZM78.9867 364.338L142.594 364.338L142.594 360.539L78.9867 360.539L78.9867 364.338ZM140.694 362.439L140.694 382.359L144.494 382.359L144.494 362.439L140.694 362.439ZM79.0722 426.702L77.2054 426.349L79.0722 426.702ZM82.1499 416.016L80.4239 415.222L80.4145 415.242L80.4055 415.263L82.1499 416.016ZM86.8521 408.407L85.4018 407.179L85.3925 407.19L85.3833 407.202L86.8521 408.407ZM98.5647 400.028L97.9079 398.246L97.8874 398.253L97.8671 398.261L98.5647 400.028ZM104.464 398.404L104.221 396.52L104.191 396.524L104.161 396.528L104.464 398.404ZM120.024 398.831L120.413 396.972L120.413 396.972L120.024 398.831ZM128.231 402.251L129.213 400.625L129.202 400.618L129.19 400.611L128.231 402.251ZM136.011 409.347L137.534 408.212L137.534 408.212L136.011 409.347ZM141.482 421.744L143.315 421.242L143.313 421.237L141.482 421.744ZM141.739 462.695L139.893 462.243L139.891 462.253L139.889 462.262L141.739 462.695ZM137.037 475.092L135.442 474.059L135.43 474.078L135.419 474.096L137.037 475.092ZM130.625 482.273L129.49 480.749L129.471 480.764L129.451 480.779L130.625 482.273ZM124.127 485.864L123.641 484.027L123.608 484.036L123.576 484.046L124.127 485.864ZM117.715 486.719L115.815 486.719L115.815 488.619L117.715 488.619L117.715 486.719ZM117.715 465.602L117.254 463.759L115.815 464.118L115.815 465.602L117.715 465.602ZM119.511 464.918L118.805 463.154L118.693 463.199L118.588 463.257L119.511 464.918ZM122.161 462.951L120.924 461.509L120.905 461.526L120.886 461.543L122.161 462.951ZM125.153 459.104L123.48 458.204L123.473 458.217L123.467 458.23L125.153 459.104ZM127.29 452.436L125.441 452.001L125.436 452.022L125.432 452.043L127.29 452.436ZM126.863 430.635L125.036 431.157L125.039 431.167L125.042 431.178L126.863 430.635ZM123.016 423.368L124.359 422.025L124.347 422.013L124.335 422.001L123.016 423.368ZM104.806 420.034L104.127 418.259L104.095 418.271L104.064 418.285L104.806 420.034ZM99.2486 423.71L97.9728 422.302L97.9617 422.312L97.9507 422.323L99.2486 423.71ZM94.9739 431.062L93.1716 430.462L93.1716 430.462L94.9739 431.062ZM104.378 465.602L105.228 463.903L105.095 463.836L104.954 463.791L104.378 465.602ZM104.635 465.687L106.535 465.687L106.535 463.787L104.635 463.787L104.635 465.687ZM104.635 486.804L104.635 488.704L106.535 488.704L106.535 486.804L104.635 486.804ZM97.8807 485.864L98.4504 484.051L98.4266 484.044L98.4027 484.037L97.8807 485.864ZM91.1267 482.188L89.9701 483.695L89.9784 483.701L89.9868 483.707L91.1267 482.188ZM84.6292 474.921L83.0251 475.939L83.0251 475.939L84.6292 474.921ZM79.8416 462.439L81.687 461.987L81.6859 461.982L79.8416 462.439ZM79.7751 444.143L79.7751 440.638L75.9754 440.638L75.9754 444.143L79.7751 444.143ZM79.7751 440.638C79.7751 435.663 80.1665 431.138 80.9389 427.055L77.2054 426.349C76.3819 430.702 75.9754 435.467 75.9754 440.638L79.7751 440.638ZM80.9389 427.055C81.7194 422.93 82.7114 419.511 83.8944 416.768L80.4055 415.263C79.0807 418.334 78.0208 422.039 77.2054 426.349L80.9389 427.055ZM83.8759 416.81C85.1251 414.094 86.6088 411.698 88.3208 409.612L85.3833 407.202C83.4476 409.561 81.7966 412.238 80.4239 415.222L83.8759 416.81ZM88.3024 409.634C90.0995 407.51 91.8512 405.904 93.5485 404.772L91.4408 401.611C89.3764 402.987 87.3663 404.858 85.4018 407.179L88.3024 409.634ZM93.5485 404.772C95.3142 403.595 97.2177 402.603 99.2622 401.795L97.8671 398.261C95.58 399.164 93.4368 400.28 91.4408 401.611L93.5485 404.772ZM99.2215 401.811C101.304 401.044 103.149 400.54 104.766 400.28L104.161 396.528C102.245 396.837 100.157 397.417 97.9079 398.246L99.2215 401.811ZM104.707 400.288C106.394 400.071 108.079 399.962 109.764 399.962L109.764 396.162C107.915 396.162 106.067 396.281 104.221 396.52L104.707 400.288ZM109.764 399.962L112.244 399.962L112.244 396.162L109.764 396.162L109.764 399.962ZM112.244 399.962C114.861 399.962 117.323 400.207 119.634 400.691L120.413 396.972C117.823 396.43 115.098 396.162 112.244 396.162L112.244 399.962ZM119.634 400.691C121.822 401.149 124.363 402.19 127.272 403.891L129.19 400.611C126.057 398.779 123.126 397.54 120.413 396.972L119.634 400.691ZM127.249 403.878C130.053 405.571 132.464 407.767 134.487 410.482L137.534 408.212C135.226 405.113 132.45 402.579 129.213 400.625L127.249 403.878ZM134.487 410.482C136.458 413.127 138.202 417.011 139.651 422.25L143.313 421.237C141.799 415.761 139.895 411.38 137.534 408.212L134.487 410.482ZM139.65 422.245C141.077 427.458 141.805 433.581 141.805 440.638L145.605 440.638C145.605 433.331 144.852 426.858 143.315 421.242L139.65 422.245ZM141.805 440.638L141.805 444.143L145.605 444.143L145.605 440.638L141.805 440.638ZM141.805 444.143C141.805 451.04 141.16 457.067 139.893 462.243L143.584 463.147C144.94 457.608 145.605 451.267 145.605 444.143L141.805 444.143ZM139.889 462.262C138.659 467.517 137.155 471.412 135.442 474.059L138.632 476.124C140.68 472.958 142.311 468.588 143.589 463.128L139.889 462.262ZM135.419 474.096C133.704 476.883 131.723 479.087 129.49 480.749L131.759 483.797C134.428 481.811 136.722 479.228 138.655 476.087L135.419 474.096ZM129.451 480.779C127.165 482.575 125.233 483.606 123.641 484.027L124.613 487.7C126.897 487.096 129.296 485.733 131.798 483.767L129.451 480.779ZM123.576 484.046C121.854 484.567 120.216 484.819 118.656 484.819L118.656 488.619C120.629 488.619 122.638 488.3 124.678 487.682L123.576 484.046ZM118.656 484.819L117.715 484.819L117.715 488.619L118.656 488.619L118.656 484.819ZM119.615 486.719L119.615 465.602L115.815 465.602L115.815 486.719L119.615 486.719ZM118.176 467.445C118.99 467.241 119.749 466.959 120.433 466.579L118.588 463.257C118.246 463.447 117.808 463.62 117.254 463.759L118.176 467.445ZM120.216 466.682C121.144 466.311 122.259 465.425 123.435 464.36L120.886 461.543C119.669 462.644 119.017 463.069 118.805 463.154L120.216 466.682ZM123.397 464.394C124.797 463.194 125.941 461.713 126.84 459.979L123.467 458.23C122.77 459.574 121.919 460.657 120.924 461.509L123.397 464.394ZM126.826 460.005C127.752 458.284 128.51 455.853 129.149 452.829L125.432 452.043C124.817 454.947 124.15 456.96 123.48 458.204L126.826 460.005ZM129.14 452.871C129.865 449.788 130.216 446.274 130.216 442.348L126.417 442.348C126.417 446.058 126.084 449.27 125.441 452.001L129.14 452.871ZM130.216 442.348C130.216 437.663 129.72 433.566 128.684 430.092L125.042 431.178C125.944 434.202 126.417 437.913 126.417 442.348L130.216 442.348ZM128.69 430.113C127.724 426.734 126.316 423.982 124.359 422.025L121.672 424.711C123.021 426.06 124.178 428.153 125.036 431.157L128.69 430.113ZM124.335 422.001C122.529 420.257 120.575 418.96 118.468 418.169L117.134 421.727C118.674 422.305 120.197 423.288 121.696 424.735L124.335 422.001ZM118.468 418.169C116.408 417.397 114.184 417.023 111.816 417.023L111.816 420.822C113.78 420.822 115.546 421.132 117.134 421.727L118.468 418.169ZM111.816 417.023L110.79 417.023L110.79 420.822L111.816 420.822L111.816 417.023ZM110.79 417.023C108.504 417.023 106.279 417.436 104.127 418.259L105.484 421.808C107.208 421.149 108.973 420.822 110.79 420.822L110.79 417.023ZM104.064 418.285C101.952 419.181 99.923 420.535 97.9728 422.302L100.524 425.118C102.222 423.579 103.898 422.483 105.548 421.783L104.064 418.285ZM97.9507 422.323C95.8768 424.263 94.3154 427.03 93.1716 430.462L96.7763 431.663C97.7983 428.597 99.0867 426.463 100.547 425.097L97.9507 422.323ZM93.1716 430.462C92.0089 433.95 91.4497 437.98 91.4497 442.519L95.2494 442.519C95.2494 438.28 95.7732 434.673 96.7763 431.663L93.1716 430.462ZM91.4497 442.519C91.4497 455.744 95.1794 464.672 103.803 467.412L104.954 463.791C98.8722 461.858 95.2494 455.397 95.2494 442.519L91.4497 442.519ZM103.529 467.301C103.657 467.366 104.094 467.587 104.635 467.587L104.635 463.787C104.774 463.787 104.886 463.804 104.959 463.819C105.034 463.834 105.092 463.851 105.129 463.864C105.198 463.887 105.235 463.906 105.228 463.903L103.529 467.301ZM102.735 465.687L102.735 486.804L106.535 486.804L106.535 465.687L102.735 465.687ZM104.635 484.904L103.694 484.904L103.694 488.704L104.635 488.704L104.635 484.904ZM103.694 484.904C102.027 484.904 100.281 484.627 98.4504 484.051L97.3111 487.676C99.4699 488.355 101.6 488.704 103.694 488.704L103.694 484.904ZM98.4027 484.037C96.7143 483.555 94.6742 482.473 92.2667 480.668L89.9868 483.707C92.5949 485.663 95.0574 487.033 97.3588 487.69L98.4027 484.037ZM92.2834 480.68C90.0316 478.952 88.0109 476.704 86.2333 473.903L83.0251 475.939C85.0092 479.065 87.3203 481.661 89.9701 483.695L92.2834 480.68ZM86.2333 473.903C84.5078 471.184 82.9735 467.245 81.687 461.987L77.9962 462.89C79.3315 468.347 80.989 472.73 83.0251 475.939L86.2333 473.903ZM81.6859 461.982C80.4201 456.864 79.7751 450.924 79.7751 444.143L75.9754 444.143C75.9754 451.155 76.6413 457.412 77.9973 462.895L81.6859 461.982ZM104.977 549.13L103.077 549.13L103.077 552.249L105.848 550.818L104.977 549.13ZM128.829 536.819L129.701 538.507L133.042 536.783L129.672 535.116L128.829 536.819ZM104.977 525.021L105.819 523.318L103.077 521.962L103.077 525.021L104.977 525.021ZM78.9867 562.467L78.1172 560.778L77.0868 561.308L77.0868 562.467L78.9867 562.467ZM90.6138 556.483L91.4832 558.172L92.5136 557.642L92.5136 556.483L90.6138 556.483ZM90.6138 517.925L92.5136 517.925L92.5136 516.743L91.4534 516.221L90.6138 517.925ZM78.9867 512.197L77.0868 512.197L77.0868 513.379L78.1471 513.901L78.9867 512.197ZM78.9867 491.935L79.8436 490.239L77.0868 488.846L77.0868 491.935L78.9867 491.935ZM142.594 524.081L144.494 524.081L144.494 522.912L143.451 522.385L142.594 524.081ZM142.594 549.9L143.49 551.575L144.494 551.038L144.494 549.9L142.594 549.9ZM78.9867 583.926L77.0868 583.926L77.0868 587.097L79.8828 585.601L78.9867 583.926ZM105.848 550.818L129.701 538.507L127.958 535.131L104.105 547.442L105.848 550.818ZM129.672 535.116L105.819 523.318L104.134 526.724L127.987 538.522L129.672 535.116ZM103.077 525.021L103.077 549.13L106.877 549.13L106.877 525.021L103.077 525.021ZM79.8561 564.156L91.4832 558.172L89.7443 554.793L78.1172 560.778L79.8561 564.156ZM92.5136 556.483L92.5136 517.925L88.7139 517.925L88.7139 556.483L92.5136 556.483ZM91.4534 516.221L79.8263 510.493L78.1471 513.901L89.7742 519.629L91.4534 516.221ZM80.8865 512.197L80.8865 491.935L77.0868 491.935L77.0868 512.197L80.8865 512.197ZM78.1297 493.631L141.737 525.776L143.451 522.385L79.8436 490.239L78.1297 493.631ZM140.694 524.081L140.694 549.9L144.494 549.9L144.494 524.081L140.694 524.081ZM141.698 548.224L78.0905 582.251L79.8828 585.601L143.49 551.575L141.698 548.224ZM80.8865 583.926L80.8865 562.467L77.0868 562.467L77.0868 583.926L80.8865 583.926ZM142.594 595.976L144.494 595.976L144.494 594.076L142.594 594.076L142.594 595.976ZM142.594 615.896L142.594 617.796L144.494 617.796L144.494 615.896L142.594 615.896ZM94.803 615.896L94.803 613.996L92.9031 613.996L92.9031 615.896L94.803 615.896ZM94.803 660.096L94.803 661.996L96.7028 661.996L96.7028 660.096L94.803 660.096ZM78.9867 660.096L77.0868 660.096L77.0868 661.996L78.9867 661.996L78.9867 660.096ZM78.9867 595.976L78.9867 594.076L77.0868 594.076L77.0868 595.976L78.9867 595.976ZM140.694 595.976L140.694 615.896L144.494 615.896L144.494 595.976L140.694 595.976ZM142.594 613.996L94.803 613.996L94.803 617.796L142.594 617.796L142.594 613.996ZM92.9031 615.896L92.9031 660.096L96.7028 660.096L96.7028 615.896L92.9031 615.896ZM94.803 658.196L78.9867 658.196L78.9867 661.996L94.803 661.996L94.803 658.196ZM80.8865 660.096L80.8865 595.976L77.0868 595.976L77.0868 660.096L80.8865 660.096ZM78.9867 597.876L142.594 597.876L142.594 594.076L78.9867 594.076L78.9867 597.876ZM1.98669 179.161L0.0868327 179.161L0.0868326 181.061L1.98669 181.061L1.98669 179.161ZM1.98669 159.241L1.98669 157.342L0.0868336 157.342L0.0868335 159.241L1.98669 159.241ZM65.5938 159.241L67.4937 159.241L67.4937 157.342L65.5938 157.342L65.5938 159.241ZM65.5938 179.161L65.5938 181.061L67.4937 181.061L67.4937 179.161L65.5938 179.161ZM39.0908 179.161L39.0908 177.262L35.0957 177.262L37.6172 180.36L39.0908 179.161ZM65.5938 211.734L67.4937 211.734L67.4937 211.059L67.0675 210.535L65.5938 211.734ZM65.5938 237.04L64.1062 238.222L67.4937 242.486L67.4937 237.04L65.5938 237.04ZM36.526 200.449L38.0136 199.268L36.6179 197.511L35.1151 199.177L36.526 200.449ZM1.98668 238.75L0.0868301 238.75L0.0868299 243.694L3.39758 240.023L1.98668 238.75ZM1.98669 212.76L0.569705 211.495L0.0868312 212.035L0.0868312 212.76L1.98669 212.76ZM31.9949 179.161L33.4119 180.427L36.239 177.262L31.9949 177.262L31.9949 179.161ZM3.88654 179.161L3.88654 159.241L0.0868335 159.241L0.0868327 179.161L3.88654 179.161ZM1.98669 161.141L65.5938 161.141L65.5938 157.342L1.98669 157.342L1.98669 161.141ZM63.6939 159.241L63.6939 179.161L67.4937 179.161L67.4937 159.241L63.6939 159.241ZM65.5938 177.262L39.0908 177.262L39.0908 181.061L65.5938 181.061L65.5938 177.262ZM37.6172 180.36L64.1201 212.933L67.0675 210.535L40.5645 177.962L37.6172 180.36ZM63.6939 211.734L63.6939 237.04L67.4937 237.04L67.4937 211.734L63.6939 211.734ZM67.0814 235.859L38.0136 199.268L35.0384 201.631L64.1062 238.222L67.0814 235.859ZM35.1151 199.177L0.575787 237.478L3.39758 240.023L37.9369 201.722L35.1151 199.177ZM3.88654 238.75L3.88654 212.76L0.0868312 212.76L0.0868301 238.75L3.88654 238.75ZM3.40367 214.026L33.4119 180.427L30.5779 177.896L0.569705 211.495L3.40367 214.026ZM31.9949 177.262L1.98669 177.262L1.98669 181.061L31.9949 181.061L31.9949 177.262ZM65.5938 250.529L67.4937 250.529L67.4937 248.629L65.5938 248.629L65.5938 250.529ZM65.5938 272.757L66.9471 274.091L67.4937 273.536L67.4937 272.757L65.5938 272.757ZM25.5829 313.367L24.2295 312.033L21.0439 315.267L25.5829 315.267L25.5829 313.367ZM65.5938 313.367L67.4936 313.367L67.4936 311.467L65.5938 311.467L65.5938 313.367ZM65.5938 333.03L65.5938 334.93L67.4936 334.93L67.4936 333.03L65.5938 333.03ZM1.98668 333.03L0.086826 333.03L0.0868259 334.93L1.98668 334.93L1.98668 333.03ZM1.98668 313.367L0.627226 312.04L0.0868268 312.593L0.0868268 313.367L1.98668 313.367ZM44.1349 270.193L45.4944 271.52L48.6447 268.293L44.1349 268.293L44.1349 270.193ZM1.98668 270.193L0.0868287 270.193L0.0868286 272.092L1.98668 272.092L1.98668 270.193ZM1.98668 250.529L1.98668 248.629L0.0868296 248.629L0.0868296 250.529L1.98668 250.529ZM63.6939 250.529L63.6939 272.757L67.4937 272.757L67.4937 250.529L63.6939 250.529ZM64.2405 271.424L24.2295 312.033L26.9362 314.7L66.9471 274.091L64.2405 271.424ZM25.5829 315.267L65.5938 315.267L65.5938 311.467L25.5829 311.467L25.5829 315.267ZM63.6939 313.367L63.6939 333.03L67.4936 333.03L67.4936 313.367L63.6939 313.367ZM65.5938 331.13L1.98668 331.13L1.98668 334.93L65.5938 334.93L65.5938 331.13ZM3.88653 333.03L3.88653 313.367L0.0868268 313.367L0.086826 333.03L3.88653 333.03ZM3.34613 314.694L45.4944 271.52L42.7755 268.865L0.627226 312.04L3.34613 314.694ZM44.1349 268.293L1.98668 268.293L1.98668 272.092L44.1349 272.092L44.1349 268.293ZM3.88654 270.193L3.88654 250.529L0.0868296 250.529L0.0868287 270.193L3.88654 270.193ZM1.98668 252.429L65.5938 252.429L65.5938 248.629L1.98668 248.629L1.98668 252.429ZM65.5938 371.254L65.5938 373.154L67.4936 373.154L67.4936 371.254L65.5938 371.254ZM1.98668 371.254L0.0868243 371.254L0.0868242 373.154L1.98668 373.154L1.98668 371.254ZM1.98668 351.334L1.98668 349.435L0.0868252 349.435L0.0868252 351.334L1.98668 351.334ZM65.5938 351.334L67.4936 351.334L67.4936 349.435L65.5938 349.435L65.5938 351.334ZM65.5938 369.355L1.98668 369.355L1.98668 373.154L65.5938 373.154L65.5938 369.355ZM3.88653 371.254L3.88653 351.334L0.0868252 351.334L0.0868243 371.254L3.88653 371.254ZM1.98668 353.234L65.5938 353.234L65.5938 349.435L1.98668 349.435L1.98668 353.234ZM63.6939 351.334L63.6939 371.254L67.4936 371.254L67.4936 351.334L63.6939 351.334ZM65.5938 389.523L67.4936 389.523L67.4936 387.623L65.5938 387.623L65.5938 389.523ZM65.5938 455.267L65.5938 457.167L67.4936 457.167L67.4936 455.267L65.5938 455.267ZM51.1454 455.267L49.2455 455.267L49.2455 457.167L51.1454 457.167L51.1454 455.267ZM51.1454 409.357L53.0453 409.357L53.0453 407.457L51.1454 407.457L51.1454 409.357ZM41.7411 409.357L41.7411 407.457L39.8413 407.457L39.8413 409.357L41.7411 409.357ZM41.7411 454.156L41.7411 456.056L43.641 456.056L43.641 454.156L41.7411 454.156ZM27.2072 454.156L25.3074 454.156L25.3074 456.056L27.2072 456.056L27.2072 454.156ZM27.2072 409.357L29.1071 409.357L29.1071 407.457L27.2072 407.457L27.2072 409.357ZM1.98668 409.357L0.0868226 409.357L0.0868225 411.257L1.98668 411.257L1.98668 409.357ZM1.98668 389.523L1.98668 387.623L0.0868236 387.623L0.0868235 389.523L1.98668 389.523ZM63.6939 389.523L63.6939 455.267L67.4936 455.267L67.4936 389.523L63.6939 389.523ZM65.5938 453.367L51.1454 453.367L51.1454 457.167L65.5938 457.167L65.5938 453.367ZM53.0453 455.267L53.0453 409.357L49.2455 409.357L49.2455 455.267L53.0453 455.267ZM51.1454 407.457L41.7411 407.457L41.7411 411.257L51.1454 411.257L51.1454 407.457ZM39.8413 409.357L39.8413 454.156L43.641 454.156L43.641 409.357L39.8413 409.357ZM41.7411 452.256L27.2072 452.256L27.2072 456.056L41.7411 456.056L41.7411 452.256ZM29.1071 454.156L29.1071 409.357L25.3074 409.357L25.3074 454.156L29.1071 454.156ZM27.2072 407.457L1.98668 407.457L1.98668 411.257L27.2072 411.257L27.2072 407.457ZM3.88653 409.357L3.88653 389.523L0.0868235 389.523L0.0868226 409.357L3.88653 409.357ZM1.98668 391.423L65.5938 391.423L65.5938 387.623L1.98668 387.623L1.98668 391.423ZM65.5938 472.211L67.4936 472.211L67.4936 470.311L65.5938 470.311L65.5938 472.211ZM65.5938 539.238L65.5938 541.138L67.4936 541.138L67.4936 539.238L65.5938 539.238ZM51.1454 539.238L49.2455 539.238L49.2455 541.138L51.1454 541.138L51.1454 539.238ZM51.1454 491.874L53.0453 491.874L53.0453 489.974L51.1454 489.974L51.1454 491.874ZM41.7411 491.874L41.7411 489.974L39.8413 489.974L39.8413 491.874L41.7411 491.874ZM41.7411 538.126L41.7411 540.026L43.641 540.026L43.641 538.126L41.7411 538.126ZM27.2072 538.126L25.3074 538.126L25.3074 540.026L27.2072 540.026L27.2072 538.126ZM27.2072 491.874L29.1071 491.874L29.1071 489.974L27.2072 489.974L27.2072 491.874ZM16.777 491.874L16.777 489.974L14.8772 489.974L14.8772 491.874L16.777 491.874ZM16.777 540.093L16.777 541.992L18.6769 541.992L18.6769 540.093L16.777 540.093ZM1.98667 540.093L0.0868169 540.093L0.0868168 541.992L1.98667 541.992L1.98667 540.093ZM1.98667 472.211L1.98667 470.311L0.08682 470.311L0.0868199 472.211L1.98667 472.211ZM63.6939 472.211L63.6939 539.238L67.4936 539.238L67.4936 472.211L63.6939 472.211ZM65.5938 537.338L51.1454 537.338L51.1454 541.138L65.5938 541.138L65.5938 537.338ZM53.0453 539.238L53.0453 491.874L49.2455 491.874L49.2455 539.238L53.0453 539.238ZM51.1454 489.974L41.7411 489.974L41.7411 493.774L51.1454 493.774L51.1454 489.974ZM39.8413 491.874L39.8413 538.126L43.641 538.126L43.641 491.874L39.8413 491.874ZM41.7411 536.226L27.2072 536.226L27.2072 540.026L41.7411 540.026L41.7411 536.226ZM29.1071 538.126L29.1071 491.874L25.3074 491.874L25.3074 538.126L29.1071 538.126ZM27.2072 489.974L16.777 489.974L16.777 493.774L27.2072 493.774L27.2072 489.974ZM14.8772 491.874L14.8772 540.093L18.6769 540.093L18.6769 491.874L14.8772 491.874ZM16.777 538.193L1.98667 538.193L1.98667 541.992L16.777 541.992L16.777 538.193ZM3.88652 540.093L3.88653 472.211L0.0868199 472.211L0.0868169 540.093L3.88652 540.093ZM1.98667 474.111L65.5938 474.111L65.5938 470.311L1.98667 470.311L1.98667 474.111Z" fill="#F14251"/>
</svg>
