<svg width="219" height="1170" viewBox="0 0 219 1170" fill="none" xmlns="http://www.w3.org/2000/svg">
<path d="M7.65754 69.1973L9.46208 69.6104L9.46208 69.6104L7.65754 69.1973ZM20.4309 33.654L18.8435 32.7016L18.8435 32.7016L20.4309 33.654ZM38.4803 13.6609L37.4534 12.1206L37.4305 12.1359L37.408 12.1518L38.4803 13.6609ZM57.918 4.21972L57.5103 2.41397L57.4827 2.42019L57.4554 2.42724L57.918 4.21972ZM79.2995 2.27595L81.1507 2.27595L81.1507 0.424737L79.2995 0.424736L79.2995 2.27595ZM79.2995 69.7527L79.4247 71.5997L81.1507 71.4827L81.1507 69.7527L79.2995 69.7527ZM48.1991 167.219L46.3635 167.459L46.366 167.478L46.369 167.498L48.1991 167.219ZM53.4751 185.824L55.0824 184.905L55.0824 184.905L53.4751 185.824ZM60.1395 193.599L59.2067 195.198L59.234 195.214L59.2618 195.229L60.1395 193.599ZM79.0218 192.21L77.8171 190.805L77.8171 190.805L79.0218 192.21ZM85.6862 176.66L83.8903 176.211L83.8854 176.231L83.881 176.25L85.6862 176.66ZM89.2961 141.395L91.1467 141.439L91.1468 141.438L89.2961 141.395ZM90.1291 105.851L88.2786 105.8L88.2784 105.808L90.1291 105.851ZM171.49 7.55191L170.958 9.32506L170.966 9.32742L170.974 9.32972L171.49 7.55191ZM188.429 17.5485L187.19 18.9245L187.201 18.9345L187.213 18.9444L188.429 17.5485ZM202.868 36.9862L204.539 36.1888L204.535 36.1813L204.531 36.1738L202.868 36.9862ZM212.309 69.7527L210.486 70.073L210.488 70.0849L210.49 70.0968L212.309 69.7527ZM202.313 221.089L200.643 220.291L200.639 220.298L200.636 220.305L202.313 221.089ZM187.318 242.193L186.075 240.822L186.063 240.832L186.052 240.843L187.318 242.193ZM169.546 253.578L168.944 251.828L168.936 251.831L168.927 251.834L169.546 253.578ZM148.165 256.633L146.313 256.633L146.313 258.484L148.165 258.484L148.165 256.633ZM148.165 189.434L147.86 187.608L146.313 187.865L146.313 189.434L148.165 189.434ZM153.718 187.768L153.133 186.011L153.008 186.053L152.89 186.112L153.718 187.768ZM160.105 183.325L158.845 181.968L158.845 181.968L160.105 183.325ZM166.492 173.883L164.79 173.154L164.79 173.154L166.492 173.883ZM170.935 156.39L169.11 156.078L169.109 156.085L170.935 156.39ZM169.824 89.4681L168.017 89.8697L168.021 89.8888L168.026 89.9077L169.824 89.4681ZM163.715 74.1956L164.9 72.7735L164.894 72.7681L164.887 72.7629L163.715 74.1956ZM146.499 74.4733L145.313 73.0512L145.28 73.0791L145.248 73.1087L146.499 74.4733ZM140.39 88.3574L138.596 87.8976L138.594 87.9084L140.39 88.3574ZM137.335 119.458L139.186 119.487L139.186 119.483L137.335 119.458ZM136.78 154.168L138.631 154.204L138.631 154.198L136.78 154.168ZM120.952 237.473L119.348 236.549L119.342 236.559L119.336 236.569L120.952 237.473ZM50.9759 260.798L50.4747 262.58L50.4818 262.582L50.4889 262.584L50.9759 260.798ZM32.6489 250.524L31.4721 251.953L31.4721 251.953L32.6489 250.524ZM16.821 229.698L18.4838 228.884L18.4804 228.877L18.4768 228.87L16.821 229.698ZM6.26913 194.432L4.44563 194.751L4.4472 194.76L4.44886 194.769L6.26913 194.432ZM4.2328 142.228L4.2328 123.068L0.530369 123.068L0.530368 142.228L4.2328 142.228ZM4.2328 123.068C4.2328 102.619 5.9835 84.8063 9.46208 69.6104L5.85301 68.7842C2.29697 84.3185 0.53037 102.42 0.530369 123.068L4.2328 123.068ZM9.46208 69.6104C12.9594 54.3326 17.1631 42.6985 22.0183 34.6065L18.8435 32.7016C13.7022 41.2705 9.3903 53.3319 5.85301 68.7842L9.46208 69.6104ZM22.0183 34.6065C26.9017 26.4675 32.7509 20.0027 39.5525 15.17L37.408 12.1518C30.1404 17.3157 23.9567 24.1796 18.8435 32.7016L22.0183 34.6065ZM39.5071 15.2012C46.6269 10.4547 52.9127 7.42328 58.3806 6.01221L57.4554 2.42724C51.4458 3.97811 44.7731 7.24079 37.4534 12.1206L39.5071 15.2012ZM58.3258 6.02547C63.918 4.76271 69.8893 4.12716 76.245 4.12716L76.245 0.424736C69.6423 0.424736 63.3955 1.08504 57.5103 2.41397L58.3258 6.02547ZM76.245 4.12716L79.2995 4.12716L79.2995 0.424736L76.245 0.424736L76.245 4.12716ZM77.4483 2.27595L77.4483 69.7527L81.1507 69.7527L81.1507 2.27595L77.4483 2.27595ZM79.1743 67.9057C67.5708 68.6924 58.832 74.5824 53.0916 85.3334C47.4197 95.9562 44.6818 111.287 44.6818 131.12L48.3842 131.12C48.3842 111.523 51.1074 96.9104 56.3577 87.0773C61.5394 77.3724 69.1839 72.294 79.4247 71.5997L79.1743 67.9057ZM44.6818 131.12L44.6818 135.008L48.3842 135.008L48.3842 131.12L44.6818 131.12ZM44.6818 135.008C44.6818 148.011 45.2386 158.835 46.3635 167.459L50.0348 166.98C48.9382 158.573 48.3842 147.922 48.3842 135.008L44.6818 135.008ZM46.369 167.498C47.6734 176.07 49.4717 182.549 51.8678 186.742L55.0824 184.905C53.0356 181.323 51.3165 175.4 50.0293 166.941L46.369 167.498ZM51.8678 186.742C54.1465 190.73 56.5666 193.658 59.2067 195.198L61.0722 192C59.2694 190.948 57.2466 188.693 55.0824 184.905L51.8678 186.742ZM59.2618 195.229C61.9765 196.691 65.0632 197.394 68.4699 197.394L68.4699 193.691C65.5825 193.691 63.1156 193.099 61.0171 191.969L59.2618 195.229ZM68.4699 197.394C73.219 197.394 77.209 196.203 80.2266 193.616L77.8171 190.805C75.6513 192.661 72.6067 193.691 68.4699 193.691L68.4699 197.394ZM80.2266 193.616C81.834 192.238 83.1749 190.089 84.3332 187.386C85.5036 184.655 86.5516 181.206 87.4914 177.071L83.881 176.25C82.9696 180.26 81.9812 183.475 80.9302 185.928C79.867 188.408 78.8013 189.961 77.8171 190.805L80.2266 193.616ZM87.4821 177.109C89.5683 168.765 90.7754 156.848 91.1467 141.439L87.4454 141.35C87.0762 156.671 85.8768 168.265 83.8903 176.211L87.4821 177.109ZM91.1468 141.438L91.9798 105.895L88.2784 105.808L87.4454 141.351L91.1468 141.438ZM91.9796 105.902C92.902 72.4221 98.3918 47.6012 108.238 31.2055C118 14.9507 132.075 6.90399 150.664 6.90399L150.664 3.20156C130.747 3.20156 115.481 11.9546 105.064 29.2993C94.7324 46.5032 89.2075 72.0816 88.2786 105.8L91.9796 105.902ZM150.664 6.90399L153.163 6.90399L153.163 3.20156L150.664 3.20156L150.664 6.90399ZM153.163 6.90399C159.673 6.90399 165.6 7.71779 170.958 9.32506L172.022 5.77877C166.272 4.05385 159.981 3.20156 153.163 3.20156L153.163 6.90399ZM170.974 9.32972C176.386 10.901 181.793 14.0673 187.19 18.9245L189.667 16.1725C183.957 11.0331 178.071 7.53497 172.006 5.77411L170.974 9.32972ZM187.213 18.9444C192.737 23.7556 197.408 30.0248 201.205 37.7986L204.531 36.1738C200.553 28.0272 195.598 21.3379 189.644 16.1525L187.213 18.9444ZM201.197 37.7836C204.985 45.7192 208.095 56.4603 210.486 70.073L214.133 69.4324C211.711 55.6471 208.526 44.5439 204.539 36.1888L201.197 37.7836ZM210.49 70.0968C213.055 83.6544 214.346 99.4552 214.346 117.514L218.048 117.514C218.048 99.2891 216.747 83.249 214.128 69.4086L210.49 70.0968ZM214.346 117.514L214.346 136.674L218.048 136.674L218.048 117.514L214.346 117.514ZM214.346 136.674C214.346 155.476 213.055 172.024 210.487 186.33L214.131 186.984C216.747 172.411 218.048 155.637 218.048 136.674L214.346 136.674ZM210.487 186.33C207.91 200.686 204.616 211.984 200.643 220.291L203.983 221.888C208.155 213.164 211.525 201.507 214.131 186.984L210.487 186.33ZM200.636 220.305C196.647 228.827 191.784 235.648 186.075 240.822L188.561 243.565C194.7 238.002 199.833 230.754 203.989 221.874L200.636 220.305ZM186.052 240.843C180.264 246.268 174.559 249.897 168.944 251.828L170.148 255.329C176.381 253.186 182.524 249.225 188.584 243.544L186.052 240.843ZM168.927 251.834C163.405 253.793 157.415 254.782 150.941 254.782L150.941 258.484C157.797 258.484 164.21 257.436 170.165 255.323L168.927 251.834ZM150.941 254.782L148.165 254.782L148.165 258.484L150.941 258.484L150.941 254.782ZM150.016 256.633L150.016 189.434L146.313 189.434L146.313 256.633L150.016 256.633ZM148.469 191.26C150.812 190.869 152.853 190.27 154.546 189.423L152.89 186.112C151.622 186.746 149.961 187.258 147.86 187.608L148.469 191.26ZM154.304 189.524C156.365 188.837 158.736 187.122 161.365 184.681L158.845 181.968C156.29 184.341 154.403 185.588 153.133 186.011L154.304 189.524ZM161.365 184.681C164.179 182.068 166.445 178.692 168.193 174.613L164.79 173.154C163.206 176.85 161.214 179.768 158.845 181.968L161.365 184.681ZM168.193 174.613C169.948 170.519 171.458 164.513 172.761 156.694L169.109 156.085C167.82 163.817 166.368 169.473 164.79 173.154L168.193 174.613ZM172.759 156.701C174.077 148.981 174.73 139.987 174.73 129.732L171.027 129.732C171.027 139.84 170.384 148.618 169.11 156.078L172.759 156.701ZM174.73 129.732L174.73 125.289L171.027 125.289L171.027 129.732L174.73 129.732ZM174.73 125.289C174.73 109.69 173.711 97.5748 171.622 89.0285L168.026 89.9077C170.009 98.0224 171.027 109.788 171.027 125.289L174.73 125.289ZM171.631 89.0665C170.694 84.8511 169.697 81.389 168.627 78.7146C167.58 76.0968 166.376 74.0034 164.9 72.7735L162.53 75.6178C163.275 76.239 164.2 77.6167 165.189 80.0897C166.156 82.5062 167.102 85.7547 168.017 89.8697L171.631 89.0665ZM164.887 72.7629C162.408 70.7346 159.065 69.8453 155.107 69.8453L155.107 73.5477C158.553 73.5477 160.949 74.3245 162.543 75.6284L164.887 72.7629ZM155.107 69.8453C151.254 69.8453 147.935 70.8662 145.313 73.0512L147.684 75.8954C149.505 74.3779 151.925 73.5477 155.107 73.5477L155.107 69.8453ZM145.248 73.1087C143.862 74.3793 142.672 76.3153 141.611 78.726C140.538 81.1646 139.536 84.2312 138.596 87.8976L142.183 88.8172C143.094 85.2638 144.036 82.4066 145 80.2171C145.975 77.9998 146.914 76.6036 147.749 75.8379L145.248 73.1087ZM138.594 87.9084C136.691 95.5174 135.67 106.05 135.484 119.432L139.186 119.483C139.37 106.209 140.385 96.0071 142.186 88.8064L138.594 87.9084ZM135.484 119.428L134.929 154.138L138.631 154.198L139.186 119.487L135.484 119.428ZM134.929 154.132C134.19 192.571 128.915 219.942 119.348 236.549L122.556 238.397C132.612 220.941 137.889 192.775 138.631 154.204L134.929 154.132ZM119.336 236.569C110.057 253.164 95.5174 261.446 75.412 261.446L75.412 265.148C96.7737 265.148 112.594 256.214 122.568 238.376L119.336 236.569ZM75.412 261.446L71.5244 261.446L71.5244 265.148L75.412 265.148L75.412 261.446ZM71.5244 261.446C64.0675 261.446 57.3855 260.627 51.463 259.012L50.4889 262.584C56.7844 264.301 63.8014 265.148 71.5244 265.148L71.5244 261.446ZM51.4771 259.016C45.8669 257.438 39.9828 254.165 33.8258 249.095L31.4721 251.953C37.9033 257.249 44.2372 260.826 50.4747 262.58L51.4771 259.016ZM33.8258 249.095C27.7704 244.108 22.647 237.391 18.4838 228.884L15.1583 230.511C19.5107 239.405 24.9392 246.573 31.4721 251.953L33.8258 249.095ZM18.4768 228.87C14.3288 220.574 10.8512 209.008 8.08939 194.095L4.44886 194.769C7.24073 209.845 10.7978 221.79 15.1653 230.525L18.4768 228.87ZM8.09263 194.113C5.52425 179.436 4.23279 162.146 4.2328 142.228L0.530368 142.228C0.530367 162.295 1.83061 179.808 4.44563 194.751L8.09263 194.113ZM90.4068 472.116L88.5556 472.116L88.5556 475.155L91.2558 473.761L90.4068 472.116ZM167.88 432.13L168.729 433.775L171.984 432.095L168.701 430.471L167.88 432.13ZM90.4068 393.81L91.2275 392.151L88.5556 390.829L88.5556 393.81L90.4068 393.81ZM5.99143 515.435L5.14424 513.789L4.14022 514.305L4.14022 515.435L5.99143 515.435ZM43.7562 495.997L44.6034 497.643L45.6074 497.126L45.6074 495.997L43.7562 495.997ZM43.7562 370.762L45.6074 370.762L45.6074 369.611L44.5743 369.102L43.7562 370.762ZM5.99144 352.158L4.14023 352.158L4.14023 353.309L5.17333 353.818L5.99144 352.158ZM5.99144 286.347L6.82643 284.695L4.14023 283.337L4.14023 286.347L5.99144 286.347ZM212.587 390.755L214.438 390.755L214.438 389.617L213.422 389.103L212.587 390.755ZM212.587 474.615L213.46 476.248L214.438 475.724L214.438 474.615L212.587 474.615ZM5.99143 585.133L4.14022 585.133L4.14022 588.223L6.86464 586.765L5.99143 585.133ZM91.2558 473.761L168.729 433.775L167.031 430.485L89.5577 470.471L91.2558 473.761ZM168.701 430.471L91.2275 392.151L89.586 395.469L167.059 433.789L168.701 430.471ZM88.5556 393.81L88.5556 472.116L92.258 472.116L92.258 393.81L88.5556 393.81ZM6.83863 517.081L44.6034 497.643L42.909 494.351L5.14424 513.789L6.83863 517.081ZM45.6074 495.997L45.6074 370.762L41.905 370.762L41.905 495.997L45.6074 495.997ZM44.5743 369.102L6.80954 350.497L5.17333 353.818L42.9381 372.423L44.5743 369.102ZM7.84265 352.158L7.84266 286.347L4.14023 286.347L4.14023 352.158L7.84265 352.158ZM5.15646 287.999L211.752 392.408L213.422 389.103L6.82643 284.695L5.15646 287.999ZM210.736 390.755L210.736 474.615L214.438 474.615L214.438 390.755L210.736 390.755ZM211.714 472.983L5.11822 583.5L6.86464 586.765L213.46 476.248L211.714 472.983ZM7.84264 585.133L7.84265 515.435L4.14022 515.435L4.14022 585.133L7.84264 585.133ZM9.32361 679.927L7.53993 679.431L7.53993 679.431L9.32361 679.927ZM26.8176 639.94L25.3265 638.843L25.3149 638.859L25.3036 638.875L26.8176 639.94ZM51.809 615.782L50.7959 614.233L50.789 614.237L50.7821 614.242L51.809 615.782ZM79.2995 602.731L78.8505 600.935L78.8282 600.941L78.806 600.947L79.2995 602.731ZM140.112 602.176L140.542 600.375L140.528 600.372L140.513 600.368L140.112 602.176ZM167.047 614.394L168.06 612.844L168.053 612.839L167.047 614.394ZM191.761 638.552L190.243 639.612L190.249 639.621L190.256 639.631L191.761 638.552ZM209.255 679.093L211.044 678.618L211.042 678.613L209.255 679.093ZM210.643 809.604L212.451 810.001L212.451 810.001L210.643 809.604ZM196.759 849.035L195.163 848.096L195.153 848.115L195.142 848.133L196.759 849.035ZM177.321 872.638L176.161 871.196L176.152 871.203L176.143 871.21L177.321 872.638ZM156.773 884.856L156.203 883.095L156.195 883.097L156.187 883.1L156.773 884.856ZM137.89 888.188L137.89 890.039L137.917 890.039L137.943 890.039L137.89 888.188ZM137.613 888.188L135.762 888.188L135.762 890.039L137.613 890.039L137.613 888.188ZM137.613 819.323L137.003 817.575L135.762 818.008L135.762 819.323L137.613 819.323ZM69.0253 686.313L67.6182 685.11L67.6098 685.12L69.0253 686.313ZM55.1411 776.838L53.3171 777.153L53.3171 777.153L55.1411 776.838ZM61.2502 799.885L62.9573 799.169L62.9573 799.169L61.2502 799.885ZM69.0253 814.325L67.5189 815.401L67.5235 815.407L67.5281 815.413L69.0253 814.325ZM76.8004 822.655L77.9111 821.174L77.87 821.143L77.8272 821.115L76.8004 822.655ZM82.6317 825.154L82.6317 827.005L84.4829 827.005L84.4829 825.154L82.6317 825.154ZM82.6317 744.071L82.6317 742.22L80.7805 742.22L80.7805 744.071L82.6317 744.071ZM121.785 744.071L123.636 744.071L123.636 742.22L121.785 742.22L121.785 744.071ZM121.785 889.576L121.785 891.428L123.636 891.428L123.636 889.576L121.785 889.576ZM5.99142 889.576L4.1402 889.576L4.1402 891.428L5.99142 891.428L5.99142 889.576ZM5.99142 850.701L5.7769 848.862L4.1402 849.053L4.1402 850.701L5.99142 850.701ZM38.2025 842.371L38.9059 844.083L41.6842 842.942L39.4162 840.973L38.2025 842.371ZM4.23277 742.96L4.23277 737.129L0.530342 737.129L0.530342 742.96L4.23277 742.96ZM4.23277 737.129C4.23277 715.784 6.53334 696.888 11.1073 680.422L7.53993 679.431C2.85781 696.287 0.530343 715.526 0.530342 737.129L4.23277 737.129ZM11.1073 680.422C15.7003 663.887 21.4578 650.774 28.3315 641.006L25.3036 638.875C18.1081 649.1 12.203 662.644 7.53993 679.431L11.1073 680.422ZM28.3086 641.037C35.41 631.387 43.5868 623.488 52.8358 617.322L50.7821 614.242C41.1488 620.664 32.6646 628.871 25.3265 638.843L28.3086 641.037ZM52.822 617.331C62.33 611.115 71.3191 606.859 79.793 604.515L78.806 600.947C69.8785 603.416 60.5406 607.861 50.7959 614.233L52.822 617.331ZM79.7485 604.527C88.4889 602.342 97.3166 601.25 106.235 601.25L106.235 597.548C97.0109 597.547 87.8817 598.677 78.8505 600.935L79.7485 604.527ZM106.235 601.25L114.01 601.25L114.01 597.548L106.235 597.548L106.235 601.25ZM114.01 601.25C122.954 601.25 131.52 602.163 139.71 603.983L140.513 600.368C132.043 598.486 123.207 597.548 114.01 597.548L114.01 601.25ZM139.681 603.976C147.944 605.952 156.729 609.922 166.041 615.948L168.053 612.839C158.483 606.647 149.311 602.472 140.542 600.375L139.681 603.976ZM166.034 615.943C175.454 622.102 183.523 629.986 190.243 639.612L193.279 637.492C186.299 627.495 177.892 619.273 168.06 612.844L166.034 615.943ZM190.256 639.631C197.115 649.197 202.872 662.48 207.467 679.574L211.042 678.613C206.382 661.275 200.476 647.53 193.265 637.473L190.256 639.631ZM207.466 679.569C212.043 696.781 214.346 716.701 214.346 739.35L218.048 739.35C218.048 716.46 215.722 696.209 211.044 678.618L207.466 679.569ZM214.346 739.35L214.346 751.291L218.048 751.291L218.048 739.35L214.346 739.35ZM214.346 751.291C214.346 773.221 212.502 792.521 208.835 809.207L212.451 810.001C216.189 792.995 218.048 773.419 218.048 751.291L214.346 751.291ZM208.835 809.207C205.153 825.958 200.578 838.891 195.163 848.096L198.355 849.974C204.047 840.296 208.728 826.942 212.451 810.001L208.835 809.207ZM195.142 848.133C189.874 857.579 183.542 865.254 176.161 871.196L178.482 874.08C186.28 867.804 192.907 859.744 198.376 849.937L195.142 848.133ZM176.143 871.21C168.844 877.232 162.199 881.155 156.203 883.095L157.343 886.617C163.935 884.484 170.989 880.262 178.499 874.066L176.143 871.21ZM156.187 883.1C150.251 885.078 144.137 886.158 137.838 886.338L137.943 890.039C144.602 889.848 151.076 888.706 157.358 886.612L156.187 883.1ZM137.89 886.337L137.613 886.337L137.613 890.039L137.89 890.039L137.89 886.337ZM139.464 888.188L139.464 819.323L135.762 819.323L135.762 888.188L139.464 888.188ZM138.223 821.071C148.67 817.424 156.361 809.094 161.407 796.477C166.437 783.903 168.898 766.952 168.898 745.737L165.196 745.737C165.196 766.73 162.751 783.148 157.97 795.102C153.205 807.014 146.178 814.372 137.003 817.575L138.223 821.071ZM168.898 745.737C168.898 719.38 164.228 699.279 154.603 685.727C144.895 672.059 130.328 665.302 111.233 665.302L111.233 669.004C129.347 669.004 142.688 675.345 151.584 687.871C160.563 700.513 165.196 719.705 165.196 745.737L168.898 745.737ZM111.233 665.302L108.178 665.302L108.178 669.004L111.233 669.004L111.233 665.302ZM108.178 665.302C92.3953 665.302 78.8497 671.975 67.6183 685.11L70.4322 687.516C81.0451 675.105 93.6017 669.004 108.178 669.004L108.178 665.302ZM67.6098 685.12C56.2874 698.553 50.7908 718.687 50.7908 745.182L54.4932 745.182C54.4932 719.102 59.9188 699.99 70.4407 687.506L67.6098 685.12ZM50.7908 745.182C50.7908 756.747 51.6301 767.407 53.3171 777.153L56.9652 776.522C55.32 767.016 54.4932 756.571 54.4932 745.182L50.7908 745.182ZM53.3171 777.153C54.9951 786.849 57.061 794.683 59.543 800.601L62.9573 799.169C60.6261 793.61 58.6194 786.079 56.9652 776.522L53.3171 777.153ZM59.543 800.601C61.9878 806.431 64.6421 811.373 67.5189 815.401L70.5316 813.249C67.8548 809.501 65.3257 804.817 62.9573 799.169L59.543 800.601ZM67.5281 815.413C70.5256 819.535 73.2729 822.528 75.7735 824.195L77.8272 821.115C75.8849 819.82 73.4488 817.26 70.5224 813.236L67.5281 815.413ZM75.6896 824.136C77.9357 825.821 80.1236 827.005 82.0763 827.005L82.0763 823.303C81.4374 823.303 80.1079 822.822 77.9111 821.174L75.6896 824.136ZM82.0763 827.005L82.6317 827.005L82.6317 823.303L82.0763 823.303L82.0763 827.005ZM84.4829 825.154L84.4829 744.071L80.7805 744.071L80.7805 825.154L84.4829 825.154ZM82.6317 745.922L121.785 745.922L121.785 742.22L82.6317 742.22L82.6317 745.922ZM119.934 744.071L119.934 889.576L123.636 889.576L123.636 744.071L119.934 744.071ZM121.785 887.725L5.99142 887.725L5.99142 891.428L121.785 891.428L121.785 887.725ZM7.84263 889.576L7.84263 850.701L4.1402 850.701L4.1402 889.576L7.84263 889.576ZM6.20594 852.54C17.4815 851.224 28.383 848.405 38.9059 844.083L37.4992 840.658C27.2885 844.852 16.7159 847.586 5.7769 848.862L6.20594 852.54ZM39.4162 840.973C16.0933 820.723 4.23277 788.206 4.23277 742.96L0.530342 742.96C0.53034 788.794 12.5505 822.551 36.9889 843.768L39.4162 840.973ZM212.587 946.805L214.438 946.805L214.438 944.954L212.587 944.954L212.587 946.805ZM212.587 1164.51L212.587 1166.36L214.438 1166.36L214.438 1164.51L212.587 1164.51ZM165.659 1164.51L163.807 1164.51L163.807 1166.36L165.659 1166.36L165.659 1164.51ZM165.659 1010.67L167.51 1010.67L167.51 1008.82L165.659 1008.82L165.659 1010.67ZM135.114 1010.67L135.114 1008.82L133.262 1008.82L133.262 1010.67L135.114 1010.67ZM135.114 1160.9L135.114 1162.75L136.965 1162.75L136.965 1160.9L135.114 1160.9ZM87.9076 1160.9L86.0564 1160.9L86.0564 1162.75L87.9076 1162.75L87.9076 1160.9ZM87.9076 1010.67L89.7588 1010.67L89.7588 1008.82L87.9076 1008.82L87.9076 1010.67ZM54.0304 1010.67L54.0304 1008.82L52.1792 1008.82L52.1792 1010.67L54.0304 1010.67ZM54.0304 1167.28L54.0304 1169.14L55.8816 1169.14L55.8816 1167.28L54.0304 1167.28ZM5.9914 1167.28L4.14019 1167.28L4.14019 1169.14L5.9914 1169.14L5.9914 1167.28ZM5.99141 946.805L5.99141 944.954L4.1402 944.954L4.1402 946.805L5.99141 946.805ZM210.736 946.805L210.736 1164.51L214.438 1164.51L214.438 946.805L210.736 946.805ZM212.587 1162.66L165.659 1162.66L165.659 1166.36L212.587 1166.36L212.587 1162.66ZM167.51 1164.51L167.51 1010.67L163.807 1010.67L163.807 1164.51L167.51 1164.51ZM165.659 1008.82L135.114 1008.82L135.114 1012.52L165.659 1012.52L165.659 1008.82ZM133.262 1010.67L133.262 1160.9L136.965 1160.9L136.965 1010.67L133.262 1010.67ZM135.114 1159.05L87.9076 1159.05L87.9076 1162.75L135.114 1162.75L135.114 1159.05ZM89.7588 1160.9L89.7588 1010.67L86.0564 1010.67L86.0564 1160.9L89.7588 1160.9ZM87.9076 1008.82L54.0304 1008.82L54.0304 1012.52L87.9076 1012.52L87.9076 1008.82ZM52.1792 1010.67L52.1792 1167.28L55.8816 1167.28L55.8816 1010.67L52.1792 1010.67ZM54.0304 1165.43L5.9914 1165.43L5.9914 1169.14L54.0304 1169.14L54.0304 1165.43ZM7.84262 1167.28L7.84263 946.805L4.1402 946.805L4.14019 1167.28L7.84262 1167.28ZM5.99141 948.656L212.587 948.656L212.587 944.954L5.99141 944.954L5.99141 948.656Z" fill="white"/>
</svg>
