<svg width="1174" height="127" viewBox="0 0 1174 127" fill="none" xmlns="http://www.w3.org/2000/svg">
<g clip-path="url(#clip0)">
<path d="M108.447 74.0761L108.447 76.0761L111.73 76.0761L110.224 73.1588L108.447 74.0761ZM85.9827 30.5521L87.76 29.6347L85.9447 26.118L84.19 29.6653L85.9827 30.5521ZM64.4547 74.0761L62.662 73.1894L61.2342 76.0761L64.4547 76.0761L64.4547 74.0761ZM132.783 121.5L131.005 122.415L131.563 123.5L132.783 123.5L132.783 121.5ZM121.863 100.284L123.641 99.3688L123.083 98.2841L121.863 98.2841L121.863 100.284ZM51.5067 100.284L51.5067 98.2841L50.2625 98.2841L49.7126 99.4002L51.5067 100.284ZM41.0547 121.5L41.0547 123.5L42.2989 123.5L42.8488 122.384L41.0547 121.5ZM4.0827 121.5L2.2977 120.598L0.831055 123.5L4.0827 123.5L4.0827 121.5ZM62.7387 5.43605L62.7387 3.43605L61.5086 3.43605L60.9537 4.53405L62.7387 5.43605ZM109.851 5.43605L111.614 4.49304L111.049 3.43605L109.851 3.43605L109.851 5.43605ZM171.939 121.5L171.939 123.5L175.277 123.5L173.702 120.557L171.939 121.5ZM110.224 73.1588L87.76 29.6347L84.2055 31.4693L106.67 74.9934L110.224 73.1588ZM84.19 29.6653L62.662 73.1894L66.2474 74.9628L87.7754 31.4387L84.19 29.6653ZM64.4547 76.0761L108.447 76.0761L108.447 72.0761L64.4547 72.0761L64.4547 76.0761ZM134.561 120.585L123.641 99.3688L120.085 101.199L131.005 122.415L134.561 120.585ZM121.863 98.2841L51.5067 98.2841L51.5067 102.284L121.863 102.284L121.863 98.2841ZM49.7126 99.4002L39.2606 120.616L42.8488 122.384L53.3008 101.168L49.7126 99.4002ZM41.0547 119.5L4.0827 119.5L4.0827 123.5L41.0547 123.5L41.0547 119.5ZM5.8677 122.402L64.5237 6.33805L60.9537 4.53405L2.2977 120.598L5.8677 122.402ZM62.7387 7.43605L109.851 7.43605L109.851 3.43605L62.7387 3.43605L62.7387 7.43605ZM108.087 6.37905L170.175 122.443L173.702 120.557L111.614 4.49304L108.087 6.37905ZM171.939 119.5L132.783 119.5L132.783 123.5L171.939 123.5L171.939 119.5ZM230.274 31.8L230.274 29.8L228.274 29.8L228.274 31.8L230.274 31.8ZM230.274 54.576L228.274 54.576L228.274 56.576L230.274 56.576L230.274 54.576ZM296.418 51.456L295.106 49.9468L296.418 51.456ZM296.418 34.92L295.106 36.4292L296.418 34.92ZM230.274 80.316L230.274 78.316L228.274 78.316L228.274 80.316L230.274 80.316ZM230.274 121.5L230.274 123.5L232.274 123.5L232.274 121.5L230.274 121.5ZM193.926 121.5L191.926 121.5L191.926 123.5L193.926 123.5L193.926 121.5ZM193.926 5.43604L193.926 3.43604L191.926 3.43604L191.926 5.43604L193.926 5.43604ZM316.386 62.844L315.766 60.9426L309.548 62.9702L315.837 64.7671L316.386 62.844ZM332.298 72.36L330.817 73.7036L330.825 73.7123L330.833 73.7209L332.298 72.36ZM340.566 120.72L342.566 120.72L342.566 120.179L342.294 119.712L340.566 120.72ZM340.566 121.5L340.566 123.5L342.566 123.5L342.566 121.5L340.566 121.5ZM303.594 121.5L302.022 122.736L302.622 123.5L303.594 123.5L303.594 121.5ZM296.418 85.152L297.744 83.6548L296.418 85.152ZM228.274 31.8L228.274 54.576L232.274 54.576L232.274 31.8L228.274 31.8ZM230.274 56.576L285.342 56.576L285.342 52.576L230.274 52.576L230.274 56.576ZM285.342 56.576C290.553 56.576 294.816 55.4998 297.731 52.9652L295.106 49.9468C293.237 51.5722 290.115 52.576 285.342 52.576L285.342 56.576ZM297.731 52.9652C300.599 50.4713 302.006 47.1448 302.006 43.188L298.006 43.188C298.006 46.0952 297.022 48.2807 295.106 49.9468L297.731 52.9652ZM302.006 43.188L302.006 43.032L298.006 43.032L298.006 43.188L302.006 43.188ZM302.006 43.032C302.006 39.158 300.584 35.8917 297.731 33.4108L295.106 36.4292C297.037 38.1083 298.006 40.25 298.006 43.032L302.006 43.032ZM297.731 33.4108C294.816 30.8762 290.553 29.8 285.342 29.8L285.342 33.8C290.115 33.8 293.237 34.8038 295.106 36.4292L297.731 33.4108ZM285.342 29.8L230.274 29.8L230.274 33.8L285.342 33.8L285.342 29.8ZM228.274 80.316L228.274 121.5L232.274 121.5L232.274 80.316L228.274 80.316ZM230.274 119.5L193.926 119.5L193.926 123.5L230.274 123.5L230.274 119.5ZM195.926 121.5L195.926 5.43604L191.926 5.43604L191.926 121.5L195.926 121.5ZM193.926 7.43604L287.526 7.43604L287.526 3.43604L193.926 3.43604L193.926 7.43604ZM287.526 7.43604C304.189 7.43604 316.353 9.93704 324.292 14.68C332.066 19.326 335.914 26.189 335.914 35.544L339.914 35.544C339.914 24.827 335.364 16.636 326.343 11.246C317.485 5.95304 304.456 3.43604 287.526 3.43604L287.526 7.43604ZM335.914 35.544L335.914 37.416L339.914 37.416L339.914 35.544L335.914 35.544ZM335.914 37.416C335.914 43.132 334.255 47.8465 331.006 51.6847C327.729 55.5551 322.712 58.6777 315.766 60.9426L317.006 64.7455C324.413 62.3304 330.16 58.8749 334.059 54.2693C337.985 49.6315 339.914 43.972 339.914 37.416L335.914 37.416ZM315.837 64.7671C322.078 66.5501 327.043 69.5422 330.817 73.7036L333.78 71.0164C329.442 66.2338 323.799 62.8819 316.936 60.921L315.837 64.7671ZM330.833 73.7209C334.483 77.6517 336.382 82.8529 336.382 89.52L340.382 89.52C340.382 82.0431 338.226 75.8043 333.764 70.9991L330.833 73.7209ZM336.382 89.52L336.382 106.524L340.382 106.524L340.382 89.52L336.382 89.52ZM336.382 106.524C336.382 110.068 336.567 113.103 336.952 115.603C337.332 118.076 337.928 120.167 338.839 121.728L342.294 119.712C341.749 118.778 341.253 117.254 340.905 114.995C340.562 112.764 340.382 109.948 340.382 106.524L336.382 106.524ZM338.566 120.72L338.566 121.5L342.566 121.5L342.566 120.72L338.566 120.72ZM340.566 119.5L303.594 119.5L303.594 123.5L340.566 123.5L340.566 119.5ZM305.167 120.264C304.453 119.355 303.878 117.486 303.878 114.168L299.878 114.168C299.878 117.715 300.448 120.733 302.022 122.736L305.167 120.264ZM303.878 114.168L303.878 100.752L299.878 100.752L299.878 114.168L303.878 114.168ZM303.878 100.752C303.878 93.2797 301.984 87.4095 297.744 83.6548L295.092 86.6492C298.133 89.3425 299.878 93.8723 299.878 100.752L303.878 100.752ZM297.744 83.6548C293.539 79.9299 286.67 78.316 277.698 78.316L277.698 82.316C286.407 82.316 292.018 83.9261 295.092 86.6492L297.744 83.6548ZM277.698 78.316L230.274 78.316L230.274 82.316L277.698 82.316L277.698 78.316ZM399.937 120.564L400.383 118.614L399.937 120.564ZM379.969 113.388L378.94 115.103L379.969 113.388ZM368.737 103.248L367.072 104.357L367.089 104.382L367.106 104.406L368.737 103.248ZM363.433 92.328L361.482 92.7685L361.488 92.7983L361.496 92.8278L363.433 92.328ZM362.341 80.316L362.341 78.316L360.341 78.316L360.341 80.316L362.341 80.316ZM400.249 80.316L402.244 80.1807L402.118 78.316L400.249 78.316L400.249 80.316ZM455.005 97.788L455.263 99.7712L455.284 99.7685L455.305 99.7653L455.005 97.788ZM465.457 94.824L464.464 93.0875L465.457 94.824ZM469.825 91.08L471.552 92.0878L471.569 92.0583L471.586 92.0282L469.825 91.08ZM469.045 80.472L467.526 81.7736L469.045 80.472ZM460.309 76.728L459.824 78.6683L459.844 78.6735L459.865 78.6783L460.309 76.728ZM440.497 74.7L440.545 72.7006L440.543 72.7006L440.497 74.7ZM420.529 74.232L420.474 76.2313L420.482 76.2315L420.529 74.232ZM365.305 28.524L367.22 29.0987L367.223 29.0902L367.225 29.0816L365.305 28.524ZM370.921 19.008L372.407 20.346L372.418 20.334L372.429 20.322L370.921 19.008ZM381.841 10.896L380.979 9.09104L380.971 9.09504L380.963 9.09904L381.841 10.896ZM400.249 5.59204L400.595 7.56203L400.608 7.56003L400.62 7.55704L400.249 5.59204ZM485.269 11.208L484.406 13.012L484.413 13.016L484.421 13.019L485.269 11.208ZM497.125 19.632L495.643 20.975L495.654 20.988L495.666 21L497.125 19.632ZM503.521 29.616L501.629 30.2662L501.632 30.2755L501.636 30.2848L503.521 29.616ZM505.237 41.628L505.237 43.628L507.237 43.628L507.237 41.628L505.237 41.628ZM467.485 41.628L465.512 41.9568L465.79 43.628L467.485 43.628L467.485 41.628ZM466.549 38.508L464.651 39.1405L464.696 39.2753L464.76 39.4025L466.549 38.508ZM464.053 34.92L462.587 36.2809L464.053 34.92ZM458.749 31.332L457.961 33.1703L458.749 31.332ZM448.921 28.836L448.584 30.8075L448.592 30.8088L448.921 28.836ZM411.325 29.46L411.758 31.4124L411.779 31.4078L411.799 31.4028L411.325 29.46ZM402.745 32.892L401.208 31.6116L401.202 31.6186L401.197 31.6255L402.745 32.892ZM402.901 42.564L401.364 43.8444L401.394 43.8807L401.426 43.9155L402.901 42.564ZM410.701 45.996L410.204 47.9334L410.216 47.9363L410.701 45.996ZM428.173 47.712L428.205 45.7123L428.2 45.7122L428.173 47.712ZM447.673 48.024L447.711 46.0244L447.705 46.0243L447.673 48.024ZM494.473 56.916L493.474 58.649L493.485 58.6554L493.497 58.6617L494.473 56.916ZM507.577 96.228L509.502 96.7695L509.504 96.7619L509.506 96.7543L507.577 96.228ZM501.805 106.524L503.348 107.795L501.805 106.524ZM490.105 115.416L489.225 113.62L489.218 113.623L489.21 113.627L490.105 115.416ZM470.293 121.344L470.637 123.314L470.647 123.312L470.657 123.311L470.293 121.344ZM440.965 121.528L430.201 121.528L430.201 125.528L440.965 125.528L440.965 121.528ZM430.201 121.528C418.764 121.528 408.832 120.549 400.383 118.614L399.49 122.514C408.305 124.531 418.549 125.528 430.201 125.528L430.201 121.528ZM400.383 118.614C391.845 116.66 385.42 114.326 380.998 111.673L378.94 115.103C383.877 118.066 390.764 120.516 399.49 122.514L400.383 118.614ZM380.998 111.673C376.525 108.989 372.996 105.79 370.367 102.09L367.106 104.406C370.093 108.61 374.053 112.171 378.94 115.103L380.998 111.673ZM370.401 102.139C367.769 98.1907 366.126 94.7596 365.369 91.8283L361.496 92.8278C362.404 96.3444 364.296 100.193 367.072 104.357L370.401 102.139ZM365.383 91.8875C364.691 88.8218 364.341 85.5386 364.341 82.032L360.341 82.032C360.341 85.8054 360.718 89.3862 361.482 92.7685L365.383 91.8875ZM364.341 82.032L364.341 80.316L360.341 80.316L360.341 82.032L364.341 82.032ZM362.341 82.316L400.249 82.316L400.249 78.316L362.341 78.316L362.341 82.316ZM398.253 80.4513C398.719 87.3234 402.238 92.5165 408.55 95.8863C414.722 99.182 423.521 100.724 434.725 100.724L434.725 96.724C423.776 96.724 415.753 95.198 410.434 92.3578C405.253 89.5915 402.61 85.5806 402.244 80.1807L398.253 80.4513ZM434.725 100.724L436.909 100.724L436.909 96.724L434.725 96.724L434.725 100.724ZM436.909 100.724C444.236 100.724 450.362 100.411 455.263 99.7712L454.746 95.8048C450.079 96.4135 444.141 96.724 436.909 96.724L436.909 100.724ZM455.305 99.7653C460.15 99.028 463.935 97.9972 466.449 96.5605L464.464 93.0875C462.61 94.1469 459.427 95.0921 454.704 95.8108L455.305 99.7653ZM466.449 96.5605C468.741 95.2506 470.56 93.788 471.552 92.0878L468.097 90.0723C467.633 90.868 466.54 91.9014 464.464 93.0875L466.449 96.5605ZM471.586 92.0282C472.493 90.3434 472.917 88.4485 472.917 86.4L468.917 86.4C468.917 87.8875 468.612 89.1127 468.064 90.1318L471.586 92.0282ZM472.917 86.4C472.917 83.5733 472.206 81.0866 470.563 79.1704L467.526 81.7736C468.38 82.7694 468.917 84.2348 468.917 86.4L472.917 86.4ZM470.563 79.1704C469.651 78.1058 468.288 77.2812 466.712 76.6057C465.106 75.9173 463.107 75.3131 460.752 74.7778L459.865 78.6783C462.086 79.1829 463.831 79.7228 465.137 80.2823C466.473 80.8549 467.191 81.3822 467.526 81.7736L470.563 79.1704ZM460.794 74.7877C456.002 73.5899 449.224 72.9097 440.545 72.7006L440.448 76.6994C449.033 76.9063 455.463 77.5781 459.824 78.6683L460.794 74.7877ZM440.543 72.7006L420.575 72.2326L420.482 76.2315L440.45 76.6995L440.543 72.7006ZM420.584 72.2328C401.837 71.7163 388.089 68.6413 379.087 63.2354C370.238 57.921 365.901 50.3225 365.901 40.224L361.901 40.224C361.901 51.7575 367.001 60.643 377.028 66.6646C386.902 72.5947 401.469 75.7077 420.474 76.2313L420.584 72.2328ZM365.901 40.224L365.901 38.82L361.901 38.82L361.901 40.224L365.901 40.224ZM365.901 38.82C365.901 35.2422 366.348 32.0068 367.22 29.0987L363.389 27.9493C362.389 31.2812 361.901 34.9098 361.901 38.82L365.901 38.82ZM367.225 29.0816C368.059 26.21 369.752 23.297 372.407 20.346L369.434 17.67C366.474 20.959 364.422 24.39 363.384 27.9664L367.225 29.0816ZM372.429 20.322C375.035 17.33 378.448 14.779 382.718 12.693L380.963 9.09904C376.29 11.381 372.423 14.238 369.412 17.694L372.429 20.322ZM382.702 12.701C387.051 10.625 392.992 8.89703 400.595 7.56203L399.903 3.62204C392.113 4.99104 385.782 6.79904 380.979 9.09104L382.702 12.701ZM400.62 7.55704C408.164 6.13003 416.978 5.40803 427.081 5.40803L427.081 1.40803C416.799 1.40803 407.726 2.14203 399.877 3.62703L400.62 7.55704ZM427.081 5.40803L437.845 5.40803L437.845 1.40803L427.081 1.40803L427.081 5.40803ZM437.845 5.40803C448.366 5.40803 457.603 6.13003 465.571 7.56103L466.278 3.62303C458.022 2.14203 448.539 1.40803 437.845 1.40803L437.845 5.40803ZM465.571 7.56103C473.593 9.00003 479.847 10.832 484.406 13.012L486.132 9.40403C481.122 7.00803 474.48 5.09603 466.278 3.62303L465.571 7.56103ZM484.421 13.019C489.116 15.217 492.837 17.879 495.643 20.975L498.607 18.289C495.38 14.729 491.197 11.775 486.116 9.39704L484.421 13.019ZM495.666 21C498.647 24.18 500.6 27.2719 501.629 30.2662L505.412 28.9659C504.153 25.304 501.842 21.74 498.584 18.264L495.666 21ZM501.636 30.2848C502.697 33.2747 503.237 36.5304 503.237 40.068L507.237 40.068C507.237 36.1176 506.633 32.4053 505.405 28.9472L501.636 30.2848ZM503.237 40.068L503.237 41.628L507.237 41.628L507.237 40.068L503.237 40.068ZM505.237 39.628L467.485 39.628L467.485 43.628L505.237 43.628L505.237 39.628ZM469.457 41.2992C469.228 39.9202 468.868 38.675 468.337 37.6136L464.76 39.4025C465.061 40.005 465.326 40.8398 465.512 41.9568L469.457 41.2992ZM468.446 37.8756C467.991 36.5122 466.907 35.0546 465.518 33.5591L462.587 36.2809C463.902 37.6974 464.482 38.6318 464.651 39.1405L468.446 37.8756ZM465.518 33.5591C463.943 31.8623 461.928 30.5186 459.536 29.4937L457.961 33.1703C459.937 34.0175 461.459 35.0657 462.587 36.2809L465.518 33.5591ZM459.536 29.4937C457.129 28.4621 453.665 27.5991 449.249 26.8632L448.592 30.8088C452.913 31.5289 456 32.33 457.961 33.1703L459.536 29.4937ZM449.257 26.8645C444.853 26.113 439.744 25.744 433.945 25.744L433.945 29.744C439.585 29.744 444.46 30.1034 448.584 30.8075L449.257 26.8645ZM433.945 25.744L431.449 25.744L431.449 29.744L433.945 29.744L433.945 25.744ZM431.449 25.744C422.66 25.744 415.763 26.316 410.85 27.5172L411.799 31.4028C416.246 30.3158 422.766 29.744 431.449 29.744L431.449 25.744ZM410.891 27.5076C408.496 28.0397 406.496 28.6133 404.927 29.2411C403.419 29.8444 402.057 30.5931 401.208 31.6116L404.281 34.1724C404.472 33.9429 405.061 33.4957 406.412 32.955C407.703 32.4387 409.473 31.9203 411.758 31.4124L410.891 27.5076ZM401.197 31.6255C399.869 33.2478 399.341 35.3714 399.341 37.728L403.341 37.728C403.341 35.9246 403.748 34.8242 404.293 34.1585L401.197 31.6255ZM399.341 37.728C399.341 40.0668 399.964 42.1638 401.364 43.8444L404.437 41.2836C403.758 40.4683 403.341 39.3412 403.341 37.728L399.341 37.728ZM401.426 43.9155C402.271 44.837 403.499 45.5707 404.903 46.1886C406.338 46.8199 408.115 47.3977 410.204 47.9333L411.197 44.0587C409.23 43.5543 407.679 43.0402 406.514 42.5274C405.319 42.0014 404.674 41.539 404.375 41.2126L401.426 43.9155ZM410.216 47.9363C414.596 49.0314 420.599 49.607 428.145 49.7118L428.2 45.7122C420.77 45.609 415.125 45.0406 411.186 44.0557L410.216 47.9363ZM428.141 49.7118L447.641 50.0238L447.705 46.0243L428.205 45.7123L428.141 49.7118ZM447.634 50.0236C469.195 50.4383 484.365 53.4012 493.474 58.649L495.471 55.183C485.444 49.4069 469.415 46.4418 447.711 46.0244L447.634 50.0236ZM493.497 58.6617C502.497 63.6944 506.981 71.5306 506.981 82.5L510.981 82.5C510.981 70.1734 505.792 60.9537 495.449 55.1704L493.497 58.6617ZM506.981 82.5L506.981 84.684L510.981 84.684L510.981 82.5L506.981 82.5ZM506.981 84.684C506.981 88.8043 506.528 92.4713 505.647 95.7018L509.506 96.7543C510.497 93.1208 510.981 89.0918 510.981 84.684L506.981 84.684ZM505.651 95.6865C504.811 98.6757 503.051 101.865 500.261 105.253L503.348 107.795C506.382 104.111 508.471 100.436 509.502 96.7695L505.651 95.6865ZM500.261 105.253C497.561 108.531 493.905 111.33 489.225 113.62L490.984 117.212C496.081 114.718 500.224 111.589 503.348 107.795L500.261 105.253ZM489.21 113.627C484.663 115.901 478.265 117.834 469.928 119.377L470.657 123.311C479.169 121.734 485.978 119.715 490.999 117.205L489.21 113.627ZM469.948 119.374C461.772 120.805 452.116 121.528 440.965 121.528L440.965 125.528C452.277 125.528 462.173 124.795 470.637 123.314L469.948 119.374ZM536.974 5.43603L536.974 3.43603L534.974 3.43603L534.974 5.43603L536.974 5.43603ZM659.278 5.43602L661.278 5.43602L661.278 3.43602L659.278 3.43602L659.278 5.43602ZM659.278 31.8L659.278 33.8L661.278 33.8L661.278 31.8L659.278 31.8ZM572.854 31.8L572.854 29.8L570.854 29.8L570.854 31.8L572.854 31.8ZM572.854 48.96L570.854 48.96L570.854 50.96L572.854 50.96L572.854 48.96ZM657.25 48.96L659.25 48.96L659.25 46.96L657.25 46.96L657.25 48.96ZM657.25 75.48L657.25 77.48L659.25 77.48L659.25 75.48L657.25 75.48ZM572.854 75.48L572.854 73.48L570.854 73.48L570.854 75.48L572.854 75.48ZM572.854 94.512L570.854 94.512L570.854 96.512L572.854 96.512L572.854 94.512ZM660.838 94.512L662.838 94.512L662.838 92.512L660.838 92.512L660.838 94.512ZM660.838 121.5L660.838 123.5L662.838 123.5L662.838 121.5L660.838 121.5ZM536.974 121.5L534.974 121.5L534.974 123.5L536.974 123.5L536.974 121.5ZM536.974 7.43603L659.278 7.43602L659.278 3.43602L536.974 3.43603L536.974 7.43603ZM657.278 5.43602L657.278 31.8L661.278 31.8L661.278 5.43602L657.278 5.43602ZM659.278 29.8L572.854 29.8L572.854 33.8L659.278 33.8L659.278 29.8ZM570.854 31.8L570.854 48.96L574.854 48.96L574.854 31.8L570.854 31.8ZM572.854 50.96L657.25 50.96L657.25 46.96L572.854 46.96L572.854 50.96ZM655.25 48.96L655.25 75.48L659.25 75.48L659.25 48.96L655.25 48.96ZM657.25 73.48L572.854 73.48L572.854 77.48L657.25 77.48L657.25 73.48ZM570.854 75.48L570.854 94.512L574.854 94.512L574.854 75.48L570.854 75.48ZM572.854 96.512L660.838 96.512L660.838 92.512L572.854 92.512L572.854 96.512ZM658.838 94.512L658.838 121.5L662.838 121.5L662.838 94.512L658.838 94.512ZM660.838 119.5L536.974 119.5L536.974 123.5L660.838 123.5L660.838 119.5ZM538.974 121.5L538.974 5.43603L534.974 5.43603L534.974 121.5L538.974 121.5ZM691.512 5.43602L691.512 3.43602L689.512 3.43602L689.512 5.43602L691.512 5.43602ZM732.072 5.43602L733.475 4.01102L732.891 3.43602L732.072 3.43602L732.072 5.43602ZM806.172 78.444L804.768 79.8687L808.172 83.2222L808.172 78.444L806.172 78.444ZM806.172 5.43602L806.172 3.43602L804.172 3.43602L804.172 5.43602L806.172 5.43602ZM842.052 5.43601L844.052 5.43601L844.052 3.43601L842.052 3.43601L842.052 5.43601ZM842.052 121.5L842.052 123.5L844.052 123.5L844.052 121.5L842.052 121.5ZM806.172 121.5L804.774 122.931L805.357 123.5L806.172 123.5L806.172 121.5ZM727.392 44.592L728.789 43.1609L725.392 39.8445L725.392 44.592L727.392 44.592ZM727.392 121.5L727.392 123.5L729.392 123.5L729.392 121.5L727.392 121.5ZM691.512 121.5L689.512 121.5L689.512 123.5L691.512 123.5L691.512 121.5ZM691.512 7.43602L732.072 7.43602L732.072 3.43602L691.512 3.43602L691.512 7.43602ZM730.668 6.86102L804.768 79.8687L807.575 77.0194L733.475 4.01102L730.668 6.86102ZM808.172 78.444L808.172 5.43602L804.172 5.43602L804.172 78.444L808.172 78.444ZM806.172 7.43602L842.052 7.43601L842.052 3.43601L806.172 3.43602L806.172 7.43602ZM840.052 5.43601L840.052 121.5L844.052 121.5L844.052 5.43601L840.052 5.43601ZM842.052 119.5L806.172 119.5L806.172 123.5L842.052 123.5L842.052 119.5ZM807.569 120.069L728.789 43.1609L725.994 46.0231L804.774 122.931L807.569 120.069ZM725.392 44.592L725.392 121.5L729.392 121.5L729.392 44.592L725.392 44.592ZM727.392 119.5L691.512 119.5L691.512 123.5L727.392 123.5L727.392 119.5ZM693.512 121.5L693.512 5.43602L689.512 5.43602L689.512 121.5L693.512 121.5ZM968.427 74.076L968.427 76.076L971.71 76.076L970.205 73.1588L968.427 74.076ZM945.963 30.552L947.741 29.6348L945.925 26.118L944.171 29.6653L945.963 30.552ZM924.435 74.076L922.643 73.1893L921.215 76.076L924.435 76.076L924.435 74.076ZM992.763 121.5L990.985 122.415L991.543 123.5L992.763 123.5L992.763 121.5ZM981.843 100.284L983.622 99.3688L983.063 98.284L981.843 98.284L981.843 100.284ZM911.487 100.284L911.487 98.284L910.243 98.284L909.693 99.4002L911.487 100.284ZM901.035 121.5L901.035 123.5L902.28 123.5L902.829 122.384L901.035 121.5ZM864.063 121.5L862.278 120.598L860.812 123.5L864.063 123.5L864.063 121.5ZM922.719 5.43601L922.719 3.43601L921.489 3.43601L920.934 4.53401L922.719 5.43601ZM969.831 5.43601L971.595 4.49301L971.03 3.43601L969.831 3.43601L969.831 5.43601ZM1031.92 121.5L1031.92 123.5L1035.26 123.5L1033.68 120.557L1031.92 121.5ZM970.205 73.1588L947.741 29.6348L944.186 31.4693L966.65 74.9933L970.205 73.1588ZM944.171 29.6653L922.643 73.1893L926.228 74.9627L947.756 31.4387L944.171 29.6653ZM924.435 76.076L968.427 76.076L968.427 72.076L924.435 72.076L924.435 76.076ZM994.542 120.585L983.622 99.3688L980.065 101.199L990.985 122.415L994.542 120.585ZM981.843 98.284L911.487 98.284L911.487 102.284L981.843 102.284L981.843 98.284ZM909.693 99.4002L899.241 120.616L902.829 122.384L913.281 101.168L909.693 99.4002ZM901.035 119.5L864.063 119.5L864.063 123.5L901.035 123.5L901.035 119.5ZM865.848 122.402L924.504 6.33801L920.934 4.53401L862.278 120.598L865.848 122.402ZM922.719 7.43601L969.831 7.43601L969.831 3.43601L922.719 3.43601L922.719 7.43601ZM968.068 6.37901L1030.16 122.443L1033.68 120.557L971.595 4.49301L968.068 6.37901ZM1031.92 119.5L992.763 119.5L992.763 123.5L1031.92 123.5L1031.92 119.5ZM1053.91 5.436L1053.91 3.436L1051.91 3.436L1051.91 5.436L1053.91 5.436ZM1090.25 5.436L1092.25 5.436L1092.25 3.436L1090.25 3.436L1090.25 5.436ZM1090.25 92.64L1088.25 92.64L1088.25 94.64L1090.25 94.64L1090.25 92.64ZM1170.91 92.6401L1172.91 92.6401L1172.91 90.6401L1170.91 90.6401L1170.91 92.6401ZM1170.91 121.5L1170.91 123.5L1172.91 123.5L1172.91 121.5L1170.91 121.5ZM1053.91 121.5L1051.91 121.5L1051.91 123.5L1053.91 123.5L1053.91 121.5ZM1053.91 7.436L1090.25 7.436L1090.25 3.436L1053.91 3.436L1053.91 7.436ZM1088.25 5.436L1088.25 92.64L1092.25 92.64L1092.25 5.436L1088.25 5.436ZM1090.25 94.64L1170.91 94.6401L1170.91 90.6401L1090.25 90.64L1090.25 94.64ZM1168.91 92.6401L1168.91 121.5L1172.91 121.5L1172.91 92.6401L1168.91 92.6401ZM1170.91 119.5L1053.91 119.5L1053.91 123.5L1170.91 123.5L1170.91 119.5ZM1055.91 121.5L1055.91 5.436L1051.91 5.436L1051.91 121.5L1055.91 121.5Z" fill="white"/>
</g>
<defs>
<clipPath id="clip0">
<rect width="126" height="1173" fill="white" transform="translate(0.5 126.5) rotate(-90)"/>
</clipPath>
</defs>
</svg>
