<svg width="80" height="64" viewBox="0 0 80 64" fill="none" xmlns="http://www.w3.org/2000/svg">
<path fill-rule="evenodd" clip-rule="evenodd" d="M48.6471 16C47.1029 22.0953 43.2419 25.1429 37.0645 25.1429H0C1.54434 20.5714 3.86089 18.2857 6.94949 18.2857H34.7479C31.6592 15.2382 28.5705 13.7143 25.4819 13.7143H13.8992C15.3733 10.8053 18.2546 9.28457 22.5431 9.15223L24.0517 9.13029C30.6896 8.94011 36.966 6.56526 34.7479 0H46.3306L79.2641 30.3289C80.1994 31.1904 80.2499 32.6368 79.377 33.5595C79.3406 33.5979 79.3032 33.6352 79.2641 33.6711L46.3306 64H34.7479C37.0645 57.1429 30.115 54.8571 23.1653 54.8571C18.7429 54.8571 15.7276 53.4688 14.1193 50.6919L13.8992 50.2857H25.4819C28.3888 50.2857 31.2958 48.936 34.203 46.2363L34.7479 45.7143H6.94949C3.99518 45.7143 1.74725 43.6231 0.205806 39.4405L0 38.8571H37.0645C43.0359 38.8571 46.8428 41.7049 48.4851 47.4007L48.6471 48L64.8629 32L48.6471 16Z" fill="white"/>
</svg>
