<svg width="65" height="80" viewBox="0 0 65 80" fill="none" xmlns="http://www.w3.org/2000/svg">
<path fill-rule="evenodd" clip-rule="evenodd" d="M33.9074 0C33.9074 3.38782 33.9473 5.99129 32.2792 9.10622L32.5 9.10378C50.4492 9.10378 65 23.504 65 41.2678C65 51.9198 59.7677 61.3624 51.7079 67.2158C49.0723 69.7253 43.0322 73.9873 33.5864 80C34.1799 77.466 33.8619 75.2758 32.632 73.4289L32.5 73.4318C14.5508 73.4318 0 59.0313 0 41.2678C0 28.822 7.1426 18.0276 17.5924 12.6796C26.0686 6.87471 31.5062 2.64804 33.9074 0ZM32.5 22.9742C22.2432 22.9742 13.9286 31.2029 13.9286 41.3536C13.9286 43.2656 14.2236 45.1091 14.7709 46.8424C20.3307 50.7587 31.1375 48.4316 32.1887 36.7589C34.6376 46.136 32.9279 55.5213 21.1324 55.8882C24.2726 58.2982 28.2169 59.7331 32.5 59.7331C42.7568 59.7331 51.0714 51.5042 51.0714 41.3536C51.0714 31.2029 42.7568 22.9742 32.5 22.9742Z" fill="#FF4656"/>
</svg>
