<svg width="128" height="671" viewBox="0 0 128 671" fill="none" xmlns="http://www.w3.org/2000/svg">
<path d="M53.5515 110.849L50.0803 110.849L50.0803 116.547L55.1435 113.933L53.5515 110.849ZM97.1325 88.3554L98.7245 91.44L104.829 88.2895L98.6714 85.244L97.1325 88.3554ZM53.5515 66.7992L55.0905 63.6878L50.0803 61.2096L50.0803 66.7992L53.5515 66.7992ZM6.06542 135.217L4.47685 132.13L2.59422 133.099L2.59422 135.217L6.06542 135.217ZM27.3092 124.282L28.8978 127.369L30.7804 126.4L30.7804 124.282L27.3092 124.282ZM27.3092 53.8342L30.7804 53.8342L30.7804 51.6747L28.8432 50.7204L27.3092 53.8342ZM6.06543 43.3686L2.59422 43.3686L2.59422 45.5281L4.5314 46.4824L6.06543 43.3686ZM6.06543 6.34817L7.63111 3.25012L2.59423 0.704597L2.59423 6.34817L6.06543 6.34817ZM122.281 65.081L125.753 65.081L125.753 62.9459L123.847 61.9829L122.281 65.081ZM122.281 112.255L123.919 115.315L125.753 114.334L125.753 112.255L122.281 112.255ZM6.06542 174.424L2.59422 174.424L2.59422 180.217L7.70277 177.485L6.06542 174.424ZM55.1435 113.933L98.7245 91.44L95.5404 85.2708L51.9595 107.764L55.1435 113.933ZM98.6714 85.244L55.0905 63.6878L52.0125 69.9106L95.5935 91.4668L98.6714 85.244ZM50.0803 66.7992L50.0803 110.849L57.0227 110.849L57.0227 66.7992L50.0803 66.7992ZM7.654 138.303L28.8978 127.369L25.7206 121.196L4.47685 132.13L7.654 138.303ZM30.7804 124.282L30.7804 53.8342L23.838 53.8342L23.838 124.282L30.7804 124.282ZM28.8432 50.7204L7.59945 40.2547L4.5314 46.4824L25.7752 56.9481L28.8432 50.7204ZM9.53663 43.3686L9.53663 6.34817L2.59423 6.34817L2.59422 43.3686L9.53663 43.3686ZM4.49975 9.44622L120.716 68.179L123.847 61.9829L7.63111 3.25012L4.49975 9.44622ZM118.81 65.081L118.81 112.255L125.753 112.255L125.753 65.081L118.81 65.081ZM120.644 109.194L4.42807 171.363L7.70277 177.485L123.919 115.315L120.644 109.194ZM9.53663 174.424L9.53663 135.217L2.59422 135.217L2.59422 174.424L9.53663 174.424ZM95.8828 232.836L99.354 232.836L99.354 229.365L95.8828 229.365L95.8828 232.836ZM73.077 232.836L73.077 229.365L69.6058 229.365L69.6058 232.836L73.077 232.836ZM76.2011 299.066L78.8205 296.789L78.8205 296.789L76.2011 299.066ZM92.7587 299.066L90.1394 296.789L90.1394 296.789L92.7587 299.066ZM47.3033 232.836L50.7745 232.836L50.7745 229.365L47.3033 229.365L47.3033 232.836ZM6.06542 232.836L2.59422 232.836L2.59422 236.307L6.06542 236.307L6.06542 232.836ZM6.06542 196.44L6.06542 192.969L2.59422 192.969L2.59422 196.44L6.06542 196.44ZM122.281 196.44L125.753 196.44L125.753 192.969L122.281 192.969L122.281 196.44ZM64.7982 319.06L68.0984 317.984L64.5791 307.192L61.4605 318.107L64.7982 319.06ZM55.2697 334.993L52.9377 332.422L52.9227 332.436L52.9078 332.45L55.2697 334.993ZM6.84644 343.272L6.84644 346.743L7.78487 346.743L8.59548 346.27L6.84644 343.272ZM6.06542 343.272L2.59421 343.272L2.59421 346.743L6.06541 346.743L6.06542 343.272ZM6.06542 306.252L3.92083 303.522L2.59421 304.565L2.59421 306.252L6.06542 306.252ZM42.461 299.066L45.0595 301.368L45.0595 301.368L42.461 299.066ZM95.8828 229.365L73.077 229.365L73.077 236.307L95.8828 236.307L95.8828 229.365ZM69.6058 232.836L69.6058 287.976L76.5482 287.976L76.5482 232.836L69.6058 232.836ZM69.6058 287.976C69.6058 293.355 70.71 298.042 73.5817 301.344L78.8205 296.789C77.5268 295.301 76.5482 292.594 76.5482 287.976L69.6058 287.976ZM73.5817 301.344C76.3829 304.565 80.1326 306.13 84.4799 306.13L84.4799 299.188C81.9543 299.188 80.1848 298.357 78.8205 296.789L73.5817 301.344ZM84.4799 306.13L84.6361 306.13L84.6361 299.188L84.4799 299.188L84.4799 306.13ZM84.6361 306.13C88.9161 306.13 92.5996 304.539 95.3781 301.344L90.1394 296.789C88.7525 298.384 87.0209 299.188 84.6361 299.188L84.6361 306.13ZM95.3781 301.344C98.2499 298.042 99.354 293.355 99.354 287.976L92.4116 287.976C92.4116 292.594 91.4331 295.301 90.1394 296.789L95.3781 301.344ZM99.354 287.976L99.354 232.836L92.4116 232.836L92.4116 287.976L99.354 287.976ZM47.3033 229.365L6.06542 229.365L6.06542 236.307L47.3033 236.307L47.3033 229.365ZM9.53662 232.836L9.53663 196.44L2.59422 196.44L2.59422 232.836L9.53662 232.836ZM6.06542 199.911L122.281 199.911L122.281 192.969L6.06542 192.969L6.06542 199.911ZM118.81 196.44L118.81 290.163L125.753 290.163L125.753 196.44L118.81 196.44ZM118.81 290.163C118.81 306.748 116.312 318.612 111.765 326.223C107.386 333.55 101 337.145 92.1339 337.145L92.1339 344.088C103.366 344.088 112.053 339.274 117.724 329.784C123.226 320.576 125.753 307.213 125.753 290.163L118.81 290.163ZM92.1339 337.145L90.2595 337.145L90.2595 344.088L92.1339 344.088L92.1339 337.145ZM90.2595 337.145C84.8444 337.145 80.4707 335.584 76.921 332.578C73.3155 329.526 70.3111 324.77 68.0984 317.984L61.498 320.137C63.9714 327.722 67.5536 333.744 72.4352 337.877C77.3726 342.057 83.3865 344.088 90.2595 344.088L90.2595 337.145ZM61.4605 318.107C59.7404 324.127 56.8765 328.85 52.9377 332.422L57.6017 337.564C62.6187 333.014 66.107 327.115 68.1358 320.014L61.4605 318.107ZM52.9078 332.45C49.2928 335.806 44.4658 337.614 38.0873 337.614L38.0873 344.556C45.8712 344.556 52.4992 342.303 57.6317 337.537L52.9078 332.45ZM38.0873 337.614L21.061 337.614L21.061 344.556L38.0873 344.556L38.0873 337.614ZM21.061 337.614C17.4677 337.614 14.3495 337.801 11.7467 338.201C9.19241 338.594 6.89066 339.228 5.0974 340.274L8.59548 346.27C9.30148 345.859 10.6185 345.399 12.8024 345.063C14.9378 344.734 17.6772 344.556 21.061 344.556L21.061 337.614ZM6.84644 339.801L6.06542 339.801L6.06541 346.743L6.84644 346.743L6.84644 339.801ZM9.53662 343.272L9.53662 306.252L2.59421 306.252L2.59421 343.272L9.53662 343.272ZM8.21001 308.981C8.71919 308.581 10.1692 308.005 13.407 308.005L13.407 301.062C9.77183 301.062 6.32745 301.631 3.92083 303.522L8.21001 308.981ZM13.407 308.005L26.8406 308.005L26.8406 301.062L13.407 301.062L13.407 308.005ZM26.8406 308.005C34.5402 308.005 40.9102 306.052 45.0595 301.368L39.8625 296.765C37.5553 299.37 33.5117 301.062 26.8406 301.062L26.8406 308.005ZM45.0595 301.368C49.1571 296.742 50.7745 289.401 50.7745 280.322L43.8321 280.322C43.8321 288.945 42.2213 294.102 39.8625 296.765L45.0595 301.368ZM50.7745 280.322L50.7745 232.836L43.8321 232.836L43.8321 280.322L50.7745 280.322ZM122.281 371.011L125.753 371.011L125.753 367.539L122.281 367.539L122.281 371.011ZM122.281 493.475L122.281 496.946L125.753 496.946L125.753 493.475L122.281 493.475ZM95.8828 493.475L92.4116 493.475L92.4116 496.946L95.8828 496.946L95.8828 493.475ZM95.8828 406.937L99.354 406.937L99.354 403.466L95.8828 403.466L95.8828 406.937ZM78.7004 406.937L78.7004 403.466L75.2292 403.466L75.2292 406.937L78.7004 406.937ZM78.7004 491.444L78.7004 494.915L82.1716 494.915L82.1716 491.444L78.7004 491.444ZM52.1456 491.444L48.6744 491.444L48.6744 494.915L52.1456 494.915L52.1456 491.444ZM52.1457 406.937L55.6169 406.937L55.6169 403.466L52.1457 403.466L52.1457 406.937ZM33.0887 406.937L33.0887 403.466L29.6175 403.466L29.6175 406.937L33.0887 406.937ZM33.0887 495.037L33.0887 498.508L36.5599 498.508L36.5599 495.037L33.0887 495.037ZM6.06541 495.037L2.5942 495.037L2.5942 498.508L6.06541 498.508L6.06541 495.037ZM6.06541 371.011L6.06541 367.539L2.59421 367.539L2.59421 371.011L6.06541 371.011ZM118.81 371.011L118.81 493.475L125.753 493.475L125.753 371.011L118.81 371.011ZM122.281 490.003L95.8828 490.003L95.8828 496.946L122.281 496.946L122.281 490.003ZM99.354 493.475L99.354 406.937L92.4116 406.937L92.4116 493.475L99.354 493.475ZM95.8828 403.466L78.7004 403.466L78.7004 410.409L95.8828 410.409L95.8828 403.466ZM75.2292 406.937L75.2292 491.444L82.1716 491.444L82.1716 406.937L75.2292 406.937ZM78.7004 487.973L52.1456 487.973L52.1456 494.915L78.7004 494.915L78.7004 487.973ZM55.6169 491.444L55.6169 406.937L48.6744 406.937L48.6744 491.444L55.6169 491.444ZM52.1457 403.466L33.0887 403.466L33.0887 410.409L52.1457 410.409L52.1457 403.466ZM29.6175 406.937L29.6175 495.037L36.5599 495.037L36.5599 406.937L29.6175 406.937ZM33.0887 491.565L6.06541 491.565L6.06541 498.508L33.0887 498.508L33.0887 491.565ZM9.53661 495.037L9.53662 371.011L2.59421 371.011L2.5942 495.037L9.53661 495.037ZM6.06541 374.482L122.281 374.482L122.281 367.539L6.06541 367.539L6.06541 374.482ZM7.00263 557.46L10.3863 558.234L10.3863 558.234L7.00263 557.46ZM14.188 537.466L11.2115 535.68L11.2115 535.68L14.188 537.466ZM24.3413 526.219L22.4158 523.331L22.3729 523.359L22.3308 523.389L24.3413 526.219ZM35.2756 520.908L34.511 517.522L34.4594 517.534L34.4082 517.547L35.2756 520.908ZM47.3033 519.815L50.7745 519.815L50.7745 516.343L47.3033 516.343L47.3033 519.815ZM47.3033 557.772L47.5381 561.235L50.7745 561.016L50.7745 557.772L47.3033 557.772ZM29.8084 612.6L26.3664 613.049L26.3712 613.085L26.3767 613.122L29.8084 612.6ZM32.7763 623.065L35.7902 621.343L35.7902 621.343L32.7763 623.065ZM36.5252 627.439L34.7762 630.438L34.8274 630.467L34.8795 630.496L36.5252 627.439ZM47.1471 626.658L44.8881 624.023L44.8881 624.023L47.1471 626.658ZM50.896 617.911L47.5284 617.069L47.5194 617.105L47.5111 617.141L50.896 617.911ZM52.9267 598.073L56.3969 598.156L56.3969 598.154L52.9267 598.073ZM53.3953 578.079L49.9254 577.983L49.9252 577.99L49.925 577.997L53.3953 578.079ZM99.1631 522.782L98.1657 526.107L98.1805 526.112L98.1953 526.116L99.1631 522.782ZM108.692 528.406L106.369 530.986L106.39 531.005L106.412 531.023L108.692 528.406ZM116.814 539.34L119.947 537.845L119.94 537.831L119.933 537.817L116.814 539.34ZM122.125 557.772L118.706 558.373L118.71 558.395L118.714 558.417L122.125 557.772ZM116.502 642.903L113.37 641.406L113.364 641.419L113.358 641.432L116.502 642.903ZM108.067 654.775L105.736 652.203L105.714 652.223L105.693 652.243L108.067 654.775ZM98.0697 661.179L96.9413 657.897L96.925 657.902L96.9089 657.908L98.0697 661.179ZM86.042 662.898L82.5707 662.898L82.5707 666.369L86.042 666.369L86.042 662.898ZM86.042 625.096L85.4713 621.672L82.5707 622.156L82.5707 625.096L86.042 625.096ZM89.166 624.159L88.0683 620.866L87.8343 620.944L87.6137 621.054L89.166 624.159ZM92.7587 621.66L90.3968 619.116L90.3967 619.116L92.7587 621.66ZM96.3514 616.349L93.1609 614.981L93.1609 614.981L96.3514 616.349ZM98.8507 606.508L95.429 605.924L95.4267 605.937L98.8507 606.508ZM98.2259 568.863L94.8373 569.616L94.8453 569.651L94.854 569.687L98.2259 568.863ZM94.7894 560.271L97.0116 557.605L96.9996 557.595L96.9875 557.585L94.7894 560.271ZM85.1047 560.428L82.8825 557.761L82.8196 557.813L82.7592 557.869L85.1047 560.428ZM81.6682 568.238L78.3058 567.376L78.3032 567.386L78.3007 567.396L81.6682 568.238ZM79.95 585.733L83.4208 585.788L83.4209 585.781L79.95 585.733ZM79.6376 605.258L83.1082 605.325L83.1083 605.314L79.6376 605.258ZM70.7339 652.119L67.7261 650.387L67.715 650.406L67.7042 650.425L70.7339 652.119ZM31.3705 665.241L30.4307 668.582L30.4439 668.586L30.4571 668.59L31.3705 665.241ZM21.061 659.461L18.8543 662.141L18.8543 662.141L21.061 659.461ZM12.1574 647.746L15.2753 646.22L15.2687 646.207L15.2621 646.193L12.1574 647.746ZM6.22161 627.908L2.80236 628.506L2.80532 628.523L2.80843 628.54L6.22161 627.908ZM7.50595 598.541L7.50595 587.763L0.563546 587.763L0.563545 598.541L7.50595 598.541ZM7.50595 587.763C7.50595 576.391 8.48035 566.56 10.3863 558.234L3.61895 556.685C1.56774 565.646 0.563546 576.018 0.563546 587.763L7.50595 587.763ZM10.3863 558.234C12.3274 549.755 14.6212 543.49 17.1646 539.252L11.2115 535.68C8.13152 540.813 5.63501 547.878 3.61895 556.685L10.3863 558.234ZM17.1646 539.252C19.7607 534.925 22.8316 531.55 26.3518 529.049L22.3308 523.389C17.9367 526.511 14.2387 530.634 11.2115 535.68L17.1646 539.252ZM26.2668 529.107C30.1406 526.525 33.4227 524.971 36.143 524.269L34.4082 517.547C30.6721 518.511 26.6646 520.498 22.4158 523.331L26.2668 529.107ZM36.0402 524.294C38.9936 523.627 42.1719 523.286 45.5851 523.286L45.5851 516.343C41.7087 516.343 38.014 516.731 34.511 517.522L36.0402 524.294ZM45.5851 523.286L47.3033 523.286L47.3033 516.343L45.5851 516.343L45.5851 523.286ZM43.8321 519.815L43.8321 557.772L50.7745 557.772L50.7745 519.815L43.8321 519.815ZM47.0685 554.309C39.6469 554.812 34.0129 558.658 30.4172 565.392C26.9499 571.886 25.4 580.982 25.4 592.293L32.3424 592.293C32.3424 581.424 33.8646 573.675 36.5413 568.662C39.0896 563.89 42.6716 561.565 47.5381 561.235L47.0685 554.309ZM25.4 592.293L25.4 594.48L32.3424 594.48L32.3424 592.293L25.4 592.293ZM25.4 594.48C25.4 601.852 25.7151 608.055 26.3664 613.049L33.2505 612.151C32.6522 607.564 32.3424 601.687 32.3424 594.48L25.4 594.48ZM26.3767 613.122C27.1218 618.018 28.1854 622.028 29.7625 624.788L35.7902 621.343C34.868 619.729 33.953 616.762 33.2401 612.078L26.3767 613.122ZM29.7625 624.788C31.1195 627.162 32.7416 629.251 34.7762 630.438L38.2743 624.441C37.8096 624.17 36.9324 623.342 35.7902 621.343L29.7625 624.788ZM34.8795 630.496C36.811 631.536 38.9542 632.004 41.2113 632.004L41.2113 625.061C39.9278 625.061 38.947 624.801 38.1709 624.383L34.8795 630.496ZM41.2113 632.004C44.2847 632.004 47.1496 631.228 49.4061 629.294L44.8881 624.023C44.2288 624.588 43.1366 625.061 41.2113 625.061L41.2113 632.004ZM49.4061 629.294C50.7194 628.168 51.6542 626.568 52.3683 624.901C53.105 623.182 53.7336 621.088 54.2809 618.68L47.5111 617.141C47.0171 619.315 46.5001 620.97 45.9872 622.167C45.4517 623.416 45.0328 623.899 44.8881 624.023L49.4061 629.294ZM54.2636 618.753C55.5025 613.797 56.1866 606.882 56.3969 598.156L49.4565 597.989C49.2502 606.55 48.5805 612.86 47.5284 617.069L54.2636 618.753ZM56.3969 598.154L56.8655 578.16L49.925 577.997L49.4564 597.991L56.3969 598.154ZM56.8652 578.174C57.3797 559.497 60.4448 546.032 65.6652 537.339C70.7269 528.911 77.863 524.848 87.4478 524.848L87.4478 517.905C75.3723 517.905 66.0028 523.293 59.7136 533.765C53.5832 543.973 50.4522 558.859 49.9254 577.983L56.8652 578.174ZM87.4478 524.848L88.8536 524.848L88.8536 517.905L87.4478 517.905L87.4478 524.848ZM88.8536 524.848C92.3141 524.848 95.4093 525.28 98.1657 526.107L100.161 519.458C96.6688 518.41 92.891 517.905 88.8536 517.905L88.8536 524.848ZM98.1953 526.116C100.811 526.875 103.539 528.439 106.369 530.986L111.014 525.826C107.596 522.749 103.971 520.564 100.131 519.449L98.1953 526.116ZM106.412 531.023C109.237 533.484 111.679 536.735 113.695 540.863L119.933 537.817C117.576 532.989 114.602 528.951 110.971 525.788L106.412 531.023ZM113.681 540.835C115.681 545.024 117.381 550.829 118.706 558.373L125.544 557.172C124.162 549.304 122.321 542.82 119.947 537.845L113.681 540.835ZM118.714 558.417C120.122 565.858 120.841 574.59 120.841 584.639L127.783 584.639C127.783 574.278 127.044 565.098 125.536 557.127L118.714 558.417ZM120.841 584.639L120.841 595.417L127.783 595.417L127.783 584.639L120.841 584.639ZM120.841 595.417C120.841 605.889 120.121 615.049 118.709 622.921L125.542 624.147C127.045 615.774 127.783 606.19 127.783 595.417L120.841 595.417ZM118.709 622.921C117.279 630.886 115.474 637.006 113.37 641.406L119.633 644.401C122.111 639.22 124.056 632.427 125.542 624.147L118.709 622.921ZM113.358 641.432C111.224 645.991 108.665 649.548 105.736 652.203L110.398 657.347C114.133 653.962 117.198 649.604 119.646 644.375L113.358 641.432ZM105.693 652.243C102.616 655.127 99.6944 656.95 96.9413 657.897L99.1981 664.462C103.11 663.117 106.852 660.671 110.441 657.307L105.693 652.243ZM96.9089 657.908C94.087 658.909 90.9947 659.426 87.604 659.426L87.604 666.369C91.7111 666.369 95.596 665.74 99.2305 664.451L96.9089 657.908ZM87.604 659.426L86.042 659.426L86.042 666.369L87.604 666.369L87.604 659.426ZM89.5132 662.898L89.5132 625.096L82.5707 625.096L82.5707 662.898L89.5132 662.898ZM86.6126 628.52C88.0896 628.274 89.4871 627.879 90.7184 627.264L87.6137 621.054C87.1788 621.272 86.4936 621.502 85.4713 621.672L86.6126 628.52ZM90.2637 627.452C91.9427 626.892 93.5943 625.621 95.1207 624.203L90.3967 619.116C89.0074 620.406 88.2638 620.801 88.0683 620.866L90.2637 627.452ZM95.1207 624.203C96.9965 622.462 98.4505 620.263 99.542 617.716L93.1609 614.981C92.3779 616.808 91.4368 618.15 90.3968 619.116L95.1207 624.203ZM99.542 617.716C100.645 615.142 101.532 611.534 102.275 607.079L95.4267 605.937C94.7114 610.229 93.9321 613.182 93.1609 614.981L99.542 617.716ZM102.272 607.092C103.043 602.579 103.415 597.377 103.415 591.512L96.4729 591.512C96.4729 597.102 96.1165 601.897 95.429 605.924L102.272 607.092ZM103.415 591.512L103.415 589.013L96.4729 589.013L96.4729 591.512L103.415 591.512ZM103.415 589.013C103.415 580.173 102.842 573.129 101.598 568.038L94.854 569.687C95.9006 573.968 96.4729 580.358 96.4729 589.013L103.415 589.013ZM101.614 568.11C101.073 565.672 100.478 563.585 99.8087 561.911C99.1816 560.343 98.3212 558.696 97.0116 557.605L92.5672 562.938C92.5073 562.888 92.8444 563.193 93.3628 564.489C93.8389 565.68 94.3376 567.367 94.8373 569.616L101.614 568.11ZM96.9875 557.585C95.0119 555.968 92.5099 555.394 89.9471 555.394L89.9471 562.337C91.5497 562.337 92.2758 562.7 92.5913 562.958L96.9875 557.585ZM89.9471 555.394C87.3388 555.394 84.883 556.094 82.8825 557.761L87.3269 563.094C87.8257 562.679 88.5982 562.337 89.9471 562.337L89.9471 555.394ZM82.7592 557.869C81.6179 558.915 80.7837 560.358 80.1311 561.841C79.4556 563.377 78.8537 565.239 78.3058 567.376L85.0307 569.1C85.5242 567.175 86.0157 565.705 86.4856 564.637C86.9786 563.517 87.342 563.086 87.4503 562.986L82.7592 557.869ZM78.3007 567.396C77.1636 571.944 76.5847 578.086 76.4791 585.684L83.4209 585.781C83.5236 578.384 84.0902 572.862 85.0358 569.08L78.3007 567.396ZM76.4792 585.677L76.1668 605.203L83.1083 605.314L83.4208 585.788L76.4792 585.677ZM76.167 605.191C75.7529 626.728 72.7869 641.602 67.7261 650.387L73.7417 653.852C79.7194 643.476 82.6892 627.11 83.1081 605.325L76.167 605.191ZM67.7042 650.425C62.9405 658.945 55.6019 663.175 45.1164 663.175L45.1164 670.118C57.9575 670.118 67.6972 664.663 73.7637 653.814L67.7042 650.425ZM45.1164 663.175L42.9296 663.175L42.9296 670.118L45.1164 670.118L45.1164 663.175ZM42.9296 663.175C38.9095 663.175 35.3706 662.734 32.2838 661.892L30.4571 668.59C34.2433 669.622 38.4105 670.118 42.9296 670.118L42.9296 663.175ZM32.3103 661.899C29.5661 661.127 26.5514 659.486 23.2677 656.782L18.8543 662.141C22.6519 665.268 26.5102 667.48 30.4307 668.582L32.3103 661.899ZM23.2677 656.782C20.1748 654.234 17.4929 650.752 15.2753 646.22L9.03947 649.272C11.6121 654.529 14.8659 658.856 18.8543 662.141L23.2677 656.782ZM15.2621 646.193C13.0727 641.815 11.1686 635.558 9.63478 627.276L2.80843 628.54C4.39869 637.127 6.45175 644.096 9.05263 649.298L15.2621 646.193ZM9.64085 627.309C8.22667 619.228 7.50595 609.649 7.50595 598.541L0.563545 598.541C0.563545 609.928 1.30074 619.925 2.80236 628.506L9.64085 627.309Z" fill="#F14251"/>
</svg>
