<svg width="57" height="43" viewBox="0 0 57 43" fill="none" xmlns="http://www.w3.org/2000/svg">
<path fill-rule="evenodd" clip-rule="evenodd" d="M37.7642 0C47.3811 1.52547 52.9225 13.2564 53.2543 17.2683C54.3651 16.0123 54.7227 13.937 54.327 11.0427C56.3655 12.7653 56.9562 13.8955 56.9958 17.9993L56.998 18.4676L57 43C53.6268 41.7592 49.4084 40.742 44.6161 40.0315L44.6154 12.8506C44.6154 8.43299 41.0911 2.44567 37.7642 0ZM0.00119031 10.7853C5.86295 22.7594 9.95656 29.7233 12.2817 31.6767L12.281 40.0413C7.53339 40.7487 3.3516 41.7573 0 42.9862L0.00119031 10.7853ZM29.5394 0.389409C28.2299 4.94104 27.5248 9.6148 27.4242 14.4107L27.4115 15.6123L27.412 38.9073C22.8875 38.9465 18.5657 39.2341 14.5865 39.727L14.5871 12.4655C14.5871 8.01744 12.8253 4.93915 10.6997 2.55437C13.2914 3.38324 15.2034 4.9548 16.4363 7.26924C18.2853 10.7409 17.1676 19.835 20.5862 19.835C24.0049 19.835 24.0081 14.2027 24.3965 9.92904C24.6555 7.07986 26.3699 3.9001 29.5394 0.389409ZM32.6974 7.32256C32.6451 14.0466 33.6163 17.4086 35.6106 17.4086C37.6051 17.4086 38.1714 14.351 37.31 8.23536C39.9404 11.362 41.2556 14.0679 41.2556 16.3529L41.2561 39.5947C37.7414 39.1997 33.9774 38.9628 30.0563 38.9126V15.4907C30.0563 11.8776 30.9366 9.15487 32.6974 7.32256ZM4.6823 3.16618C8.36022 5.30706 10.4644 7.72366 10.9948 10.4163L11.0573 10.7853L7.08326 18.9191C7.51562 14.5591 6.71527 9.30812 4.6823 3.16618Z" fill="rgb(255,70,86)"/>
</svg>
