<svg width="71" height="658" viewBox="0 0 71 658" fill="none" xmlns="http://www.w3.org/2000/svg">
<path d="M3.42737 1.93503L3.42737 0.0248626L1.51721 0.0248625L1.51721 1.93503L3.42737 1.93503ZM67.3796 1.93503L69.2898 1.93503L69.2898 0.0248655L67.3796 0.0248654L67.3796 1.93503ZM63.2537 74.7409L61.7433 73.5715L61.7373 73.5792L61.7314 73.5869L63.2537 74.7409ZM46.2341 78.9528L47.0385 77.2203L47.0243 77.2136L47.0099 77.2073L46.2341 78.9528ZM42.452 76.1162L40.9326 77.2738L40.9496 77.2962L40.9673 77.3181L42.452 76.1162ZM40.3031 72.8498L41.9912 71.9561L41.9912 71.9561L40.3031 72.8498ZM39.0997 69.9273L40.9322 69.3883L38.9502 62.6494L37.2465 69.464L39.0997 69.9273ZM37.6384 73.9673L39.3616 74.7914L39.3616 74.7914L37.6384 73.9673ZM34.8877 78.3511L33.3596 77.205L33.3463 77.2228L33.3334 77.2408L34.8877 78.3511ZM30.0741 82.2192L30.8898 83.9464L30.8898 83.9464L30.0741 82.2192ZM53.8843 21.9631L55.7945 21.9631L55.7945 20.0529L53.8843 20.0529L53.8843 21.9631ZM43.4835 21.9631L43.4835 20.0529L41.5733 20.0529L41.5733 21.9631L43.4835 21.9631ZM29.9022 21.9631L31.8124 21.9631L31.8124 20.0529L29.9022 20.0529L29.9022 21.9631ZM17.3525 21.9631L17.3525 20.0529L15.4423 20.0529L15.4423 21.9631L17.3525 21.9631ZM19.2435 61.1596L17.9586 62.573L17.9586 62.573L19.2435 61.1596ZM3.42737 3.84519L67.3796 3.84519L67.3796 0.0248654L3.42737 0.0248626L3.42737 3.84519ZM65.4695 1.93503L65.4695 56.6898L69.2898 56.6898L69.2898 1.93503L65.4695 1.93503ZM65.4695 56.6898C65.4695 65.072 64.0889 70.5417 61.7433 73.5715L64.7641 75.9102C67.9196 71.8343 69.2898 65.2699 69.2898 56.6898L65.4695 56.6898ZM61.7314 73.5869C59.3835 76.6843 56.4413 78.1601 52.7669 78.1601L52.7669 81.9804C57.6882 81.9804 61.7372 79.9033 64.7759 75.8948L61.7314 73.5869ZM52.7669 78.1601L51.5635 78.1601L51.5635 81.9804L52.7669 81.9804L52.7669 78.1601ZM51.5635 78.1601C49.8645 78.1601 48.3664 77.8368 47.0385 77.2203L45.4297 80.6853C47.3109 81.5587 49.3657 81.9804 51.5635 81.9804L51.5635 78.1601ZM47.0099 77.2073C45.7123 76.6306 44.7035 75.8616 43.9367 74.9143L40.9673 77.3181C42.1488 78.7776 43.6615 79.8997 45.4583 80.6983L47.0099 77.2073ZM43.9714 74.9586C43.0963 73.81 42.4438 72.8109 41.9912 71.9561L38.6149 73.7436C39.1938 74.8371 39.9739 76.0156 40.9326 77.2738L43.9714 74.9586ZM41.9912 71.9561C41.5303 71.0855 41.1797 70.2297 40.9322 69.3883L37.2671 70.4663C37.5927 71.5732 38.0443 72.6658 38.6149 73.7436L41.9912 71.9561ZM37.2465 69.464C36.9347 70.7112 36.4919 71.9372 35.9152 73.1431L39.3616 74.7914C40.0456 73.3613 40.5769 71.894 40.9528 70.3906L37.2465 69.464ZM35.9152 73.1431C35.3549 74.3146 34.5133 75.6667 33.3596 77.205L36.4159 79.4972C37.669 77.8264 38.6611 76.256 39.3616 74.7914L35.9152 73.1431ZM33.3334 77.2408C32.4047 78.5409 31.0733 79.6349 29.2585 80.4919L30.8898 83.9464C33.2009 82.8551 35.0785 81.3703 36.4421 79.4613L33.3334 77.2408ZM29.2585 80.4919C27.4873 81.3283 25.4233 81.7703 23.0256 81.7703L23.0256 85.5906C25.9 85.5906 28.535 85.0584 30.8898 83.9464L29.2585 80.4919ZM23.0256 81.7703L21.8222 81.7703L21.8222 85.5906L23.0256 85.5906L23.0256 81.7703ZM21.8222 81.7703C16.214 81.7703 12.2489 79.7918 9.59477 75.9718C6.85291 72.0256 5.33753 65.8682 5.33753 57.2056L1.5172 57.2056C1.5172 66.1928 3.06763 73.2729 6.4574 78.1517C9.93486 83.1566 15.1672 85.5906 21.8222 85.5906L21.8222 81.7703ZM5.33753 57.2056L5.33753 1.93503L1.51721 1.93503L1.5172 57.2056L5.33753 57.2056ZM55.7945 53.2516L55.7945 21.9631L51.9742 21.9631L51.9742 53.2516L55.7945 53.2516ZM53.8843 20.0529L43.4835 20.0529L43.4835 23.8732L53.8843 23.8732L53.8843 20.0529ZM41.5733 21.9631L41.5733 53.2516L45.3936 53.2516L45.3936 21.9631L41.5733 21.9631ZM41.5733 53.2516C41.5733 55.7524 42.0265 57.9751 43.2379 59.6104C44.5288 61.3531 46.4467 62.1243 48.6409 62.1243L48.6409 58.3039C47.3968 58.3039 46.736 57.9146 46.3078 57.3365C45.8 56.651 45.3936 55.3924 45.3936 53.2516L41.5733 53.2516ZM48.6409 62.1243L48.8128 62.1243L48.8128 58.3039L48.6409 58.3039L48.6409 62.1243ZM48.8128 62.1243C50.9907 62.1243 52.8888 61.3439 54.1604 59.5981C55.3501 57.9648 55.7945 55.7476 55.7945 53.2516L51.9742 53.2516C51.9742 55.3972 51.5733 56.6612 51.0725 57.3488C50.6536 57.9238 50.0159 58.3039 48.8128 58.3039L48.8128 62.1243ZM31.8124 54.9707L31.8124 21.9631L27.9921 21.9631L27.9921 54.9707L31.8124 54.9707ZM29.9022 20.0529L17.3525 20.0529L17.3525 23.8732L29.9022 23.8732L29.9022 20.0529ZM15.4423 21.9631L15.4423 54.9707L19.2626 54.9707L19.2626 21.9631L15.4423 21.9631ZM15.4423 54.9707C15.4423 58.1103 16.0866 60.8712 17.9586 62.573L20.5284 59.7462C19.879 59.1559 19.2626 57.7908 19.2626 54.9707L15.4423 54.9707ZM17.9586 62.573C19.5611 64.0299 21.4772 64.7889 23.6273 64.7889L23.6273 60.9686C22.4538 60.9686 21.4473 60.5816 20.5284 59.7462L17.9586 62.573ZM23.6273 64.7889L23.9712 64.7889L23.9712 60.9686L23.6273 60.9686L23.6273 64.7889ZM23.9712 64.7889C26.4142 64.7889 28.5243 63.9456 29.9476 62.0478C31.2934 60.2535 31.8124 57.7904 31.8124 54.9707L27.9921 54.9707C27.9921 57.423 27.5225 58.914 26.8913 59.7557C26.3376 60.4939 25.4821 60.9686 23.9712 60.9686L23.9712 64.7889ZM3.68523 124.716L1.81992 124.304L1.81643 124.32L1.81322 124.336L3.68523 124.716ZM7.03757 114.831L5.33637 113.962L5.33637 113.962L7.03757 114.831ZM12.0231 107.696L10.6344 106.385L10.6344 106.385L12.0231 107.696ZM17.9542 102.797L18.9369 104.434L18.9369 104.434L17.9542 102.797ZM24.401 99.788L23.8105 97.9714L23.7902 97.978L23.7699 97.9851L24.401 99.788ZM30.6758 98.2408L30.446 96.3445L30.4178 96.3479L30.3897 96.3522L30.6758 98.2408ZM67.3796 97.897L69.2898 97.897L69.2898 95.9868L67.3796 95.9868L67.3796 97.897ZM67.3796 118.011L67.3796 119.921L69.2898 119.921L69.2898 118.011L67.3796 118.011ZM31.1056 118.871L30.5809 117.034L30.5491 117.043L30.5176 117.053L31.1056 118.871ZM25.2605 121.965L24.129 120.426L24.118 120.434L24.1071 120.442L25.2605 121.965ZM20.7048 128.498L18.9265 127.8L18.9183 127.821L18.9106 127.842L20.7048 128.498ZM20.7048 149.557L18.9192 150.236L18.9228 150.245L18.9265 150.255L20.7048 149.557ZM25.2605 156.09L26.4209 154.573L26.414 154.568L25.2605 156.09ZM31.1056 159.185L31.6783 157.362L31.6615 157.357L31.6446 157.352L31.1056 159.185ZM67.3796 160.13L69.2898 160.13L69.2898 158.22L67.3796 158.22L67.3796 160.13ZM67.3796 180.158L67.3796 182.068L69.2898 182.068L69.2898 180.158L67.3796 180.158ZM28.1831 179.213L28.6098 177.351L28.5912 177.346L28.5727 177.343L28.1831 179.213ZM19.2435 175.688L18.3056 177.352L18.312 177.356L18.3184 177.36L19.2435 175.688ZM10.9056 168.898L12.3432 167.64L12.3432 167.64L10.9056 168.898ZM4.88864 157.465L6.70291 156.868L6.70078 156.861L4.88864 157.465ZM4.39199 140.876L4.39199 137.781L0.571669 137.781L0.571669 140.876L4.39199 140.876ZM4.39199 137.781C4.39199 133.13 4.78437 128.905 5.55725 125.095L1.81322 124.336C0.981558 128.435 0.571669 132.919 0.571669 137.781L4.39199 137.781ZM5.55055 125.127C6.38554 121.342 7.4566 118.21 8.73877 115.699L5.33637 113.962C3.86791 116.838 2.70407 120.296 1.81992 124.304L5.55055 125.127ZM8.73877 115.699C10.0369 113.157 11.5961 110.93 13.4118 109.008L10.6344 106.385C8.5534 108.588 6.78885 111.117 5.33637 113.962L8.73877 115.699ZM13.4118 109.008C15.2649 107.046 17.1086 105.531 18.9369 104.434L16.9714 101.159C14.7883 102.468 12.678 104.221 10.6344 106.385L13.4118 109.008ZM18.9369 104.434C20.8271 103.3 22.8576 102.352 25.032 101.591L23.7699 97.9851C21.3599 98.8286 19.0926 99.8859 16.9714 101.159L18.9369 104.434ZM24.9914 101.605C27.2086 100.884 29.1966 100.397 30.962 100.129L30.3897 96.3522C28.3729 96.6578 26.1777 97.2021 23.8105 97.9714L24.9914 101.605ZM30.9057 100.137C32.721 99.917 34.5353 99.8071 36.349 99.8071L36.349 95.9868C34.3806 95.9868 32.4128 96.1061 30.446 96.3445L30.9057 100.137ZM36.349 99.8071L67.3796 99.8071L67.3796 95.9868L36.349 95.9868L36.349 99.8071ZM65.4694 97.897L65.4694 118.011L69.2898 118.011L69.2898 97.897L65.4694 97.897ZM67.3796 116.101L37.5524 116.101L37.5524 119.921L67.3796 119.921L67.3796 116.101ZM37.5524 116.101C35.1001 116.101 32.7731 116.408 30.5809 117.034L31.6304 120.707C33.4495 120.187 35.4203 119.921 37.5524 119.921L37.5524 116.101ZM30.5176 117.053C28.3427 117.757 26.2133 118.893 24.129 120.426L26.3921 123.504C28.2045 122.171 29.9718 121.245 31.6936 120.688L30.5176 117.053ZM24.1071 120.442C21.859 122.146 20.1605 124.654 18.9265 127.8L22.4831 129.195C23.5413 126.497 24.88 124.65 26.414 123.488L24.1071 120.442ZM18.9106 127.842C17.7259 131.085 17.1614 134.871 17.1614 139.156L20.9818 139.156C20.9818 135.19 21.5061 131.871 22.4989 129.153L18.9106 127.842ZM17.1614 139.156C17.1614 143.385 17.726 147.096 18.9192 150.236L22.4904 148.879C21.506 146.288 20.9818 143.065 20.9818 139.156L17.1614 139.156ZM18.9265 150.255C20.1605 153.402 21.859 155.91 24.1071 157.613L26.414 154.568C24.88 153.405 23.5413 151.558 22.4831 148.86L18.9265 150.255ZM24.1002 157.607C26.197 159.211 28.3523 160.366 30.5666 161.017L31.6446 157.352C29.9622 156.857 28.2208 155.949 26.4209 154.573L24.1002 157.607ZM30.5329 161.007C32.7398 161.7 35.0834 162.04 37.5524 162.04L37.5524 158.22C35.437 158.22 33.4827 157.929 31.6783 157.362L30.5329 161.007ZM37.5524 162.04L67.3796 162.04L67.3796 158.22L37.5524 158.22L37.5524 162.04ZM65.4694 160.13L65.4694 180.158L69.2898 180.158L69.2898 160.13L65.4694 160.13ZM67.3796 178.248L36.349 178.248L36.349 182.068L67.3796 182.068L67.3796 178.248ZM36.349 178.248C33.806 178.248 31.2271 177.951 28.6098 177.351L27.7564 181.074C30.6403 181.735 33.5054 182.068 36.349 182.068L36.349 178.248ZM28.5727 177.343C26.0567 176.818 23.2583 175.728 20.1686 174.017L18.3184 177.36C21.6469 179.202 24.8082 180.461 27.7935 181.083L28.5727 177.343ZM20.1814 174.024C17.2199 172.355 14.6091 170.23 12.3432 167.64L9.4681 170.156C12.0158 173.067 14.9635 175.469 18.3056 177.352L20.1814 174.024ZM12.3432 167.64C10.1583 165.143 8.25736 161.587 6.7029 156.868L3.07437 158.063C4.72899 163.086 6.8394 167.151 9.4681 170.156L12.3432 167.64ZM6.70078 156.861C5.17416 152.282 4.39199 146.962 4.39199 140.876L0.571669 140.876C0.571668 147.282 1.39404 153.022 3.0765 158.069L6.70078 156.861ZM67.3796 197.757L69.2898 197.757L69.2898 195.846L67.3796 195.846L67.3796 197.757ZM67.3796 217.785L67.3796 219.695L69.2898 219.695L69.2898 217.785L67.3796 217.785ZM19.3295 217.785L19.3295 215.874L17.4193 215.874L17.4193 217.785L19.3295 217.785ZM19.3295 262.225L19.3295 264.135L21.2396 264.135L21.2396 262.225L19.3295 262.225ZM3.42736 262.225L1.51719 262.225L1.51719 264.135L3.42736 264.135L3.42736 262.225ZM3.42736 197.757L3.42736 195.846L1.5172 195.846L1.5172 197.757L3.42736 197.757ZM65.4694 197.757L65.4694 217.785L69.2898 217.785L69.2898 197.757L65.4694 197.757ZM67.3796 215.874L19.3295 215.874L19.3295 219.695L67.3796 219.695L67.3796 215.874ZM17.4193 217.785L17.4193 262.225L21.2396 262.225L21.2396 217.785L17.4193 217.785ZM19.3295 260.314L3.42736 260.314L3.42736 264.135L19.3295 264.135L19.3295 260.314ZM5.33752 262.225L5.33752 197.757L1.5172 197.757L1.51719 262.225L5.33752 262.225ZM3.42736 199.667L67.3796 199.667L67.3796 195.846L3.42736 195.846L3.42736 199.667ZM67.3796 278.207L69.2898 278.207L69.2898 276.297L67.3796 276.297L67.3796 278.207ZM67.3796 298.235L67.3796 300.145L69.2898 300.145L69.2898 298.235L67.3796 298.235ZM19.3295 298.235L19.3295 296.325L17.4193 296.325L17.4193 298.235L19.3295 298.235ZM19.3295 342.675L19.3295 344.585L21.2396 344.585L21.2396 342.675L19.3295 342.675ZM3.42735 342.675L1.51719 342.675L1.51719 344.585L3.42735 344.585L3.42735 342.675ZM3.42736 278.207L3.42736 276.297L1.51719 276.297L1.51719 278.207L3.42736 278.207ZM65.4694 278.207L65.4694 298.235L69.2898 298.235L69.2898 278.207L65.4694 278.207ZM67.3796 296.325L19.3295 296.325L19.3295 300.145L67.3796 300.145L67.3796 296.325ZM17.4193 298.235L17.4193 342.675L21.2396 342.675L21.2396 298.235L17.4193 298.235ZM19.3295 340.765L3.42735 340.765L3.42735 344.585L19.3295 344.585L19.3295 340.765ZM5.33752 342.675L5.33752 278.207L1.51719 278.207L1.51719 342.675L5.33752 342.675ZM3.42736 280.117L67.3796 280.117L67.3796 276.297L3.42736 276.297L3.42736 280.117ZM3.42735 358.658L3.42735 356.748L1.51719 356.748L1.51719 358.658L3.42735 358.658ZM67.3796 358.658L69.2898 358.658L69.2898 356.748L67.3796 356.748L67.3796 358.658ZM62.6519 429.229L60.9313 428.399L60.9253 428.412L60.9194 428.425L62.6519 429.229ZM57.5805 437.481L56.107 436.265L56.0979 436.276L56.0889 436.288L57.5805 437.481ZM51.3056 442.724L52.1764 444.424L52.1764 444.424L51.3056 442.724ZM44.343 445.303L43.9237 443.439L43.8961 443.446L43.8686 443.453L44.343 445.303ZM25.9482 445.131L25.466 446.979L25.4756 446.982L25.9482 445.131ZM17.6963 441.005L18.8124 439.455L18.8021 439.447L18.7917 439.44L17.6963 441.005ZM10.3899 433.183L8.77008 434.195L8.77008 434.195L10.3899 433.183ZM5.40437 420.117L7.26196 419.672L7.26196 419.672L5.40437 420.117ZM52.2511 378.686L54.1613 378.686L54.1613 376.776L52.2511 376.776L52.2511 378.686ZM18.8137 378.686L18.8137 376.776L16.9035 376.776L16.9035 378.686L18.8137 378.686ZM3.42735 360.568L67.3796 360.568L67.3796 356.748L3.42735 356.748L3.42735 360.568ZM65.4694 358.658L65.4694 401.035L69.2898 401.035L69.2898 358.658L65.4694 358.658ZM65.4694 401.035C65.4694 406.912 65.0737 412.191 64.292 416.881L68.0604 417.509C68.8832 412.572 69.2898 407.078 69.2898 401.035L65.4694 401.035ZM64.292 416.881C63.5094 421.577 62.3769 425.401 60.9313 428.399L64.3726 430.058C66.0215 426.639 67.2385 422.44 68.0604 417.509L64.292 416.881ZM60.9194 428.425C59.4854 431.513 57.8771 434.12 56.107 436.265L59.0539 438.696C61.0659 436.258 62.8386 433.363 64.3845 430.033L60.9194 428.425ZM56.0889 436.288C54.4049 438.393 52.5182 439.957 50.4348 441.024L52.1764 444.424C54.792 443.085 57.0885 441.153 59.0721 438.674L56.0889 436.288ZM50.4348 441.024C48.211 442.163 46.0412 442.963 43.9237 443.439L44.7623 447.166C47.2292 446.611 49.7012 445.692 52.1764 444.424L50.4348 441.024ZM43.8686 443.453C41.8057 443.982 39.5598 444.252 37.1226 444.252L37.1226 448.073C39.8429 448.073 42.4106 447.77 44.8175 447.153L43.8686 443.453ZM37.1226 444.252L34.5439 444.252L34.5439 448.073L37.1226 448.073L37.1226 444.252ZM34.5439 444.252C31.6515 444.252 28.9461 443.925 26.4207 443.28L25.4756 446.982C28.3369 447.712 31.362 448.073 34.5439 448.073L34.5439 444.252ZM26.4303 443.283C24.0786 442.669 21.5403 441.419 18.8124 439.455L16.5801 442.555C19.5827 444.717 22.5457 446.217 25.466 446.979L26.4303 443.283ZM18.7917 439.44C16.1533 437.593 13.8907 435.18 12.0097 432.171L8.77008 434.195C10.9004 437.604 13.5088 440.405 16.6009 442.57L18.7917 439.44ZM12.0097 432.171C10.1533 429.2 8.55326 425.062 7.26196 419.672L3.54677 420.562C4.8915 426.175 6.61517 430.747 8.77008 434.195L12.0097 432.171ZM7.26196 419.672C5.98668 414.349 5.33751 408.172 5.33751 401.121L1.51719 401.121C1.51719 408.396 2.18603 414.883 3.54677 420.562L7.26196 419.672ZM5.33751 401.121L5.33751 358.658L1.51719 358.658L1.51719 401.121L5.33751 401.121ZM52.2511 376.776L18.8137 376.776L18.8137 380.596L52.2511 380.596L52.2511 376.776ZM16.9035 378.686L16.9035 399.488L20.7239 399.488L20.7239 378.686L16.9035 378.686ZM16.9035 399.488C16.9035 408.198 18.2907 415.059 21.3324 419.796C24.4669 424.677 29.2286 427.099 35.3175 427.099L35.3175 423.279C30.4039 423.279 26.9137 421.417 24.547 417.731C22.0873 413.901 20.7239 407.912 20.7239 399.488L16.9035 399.488ZM35.3175 427.099L35.8333 427.099L35.8333 423.279L35.3175 423.279L35.3175 427.099ZM35.8333 427.099C41.898 427.099 46.6381 424.673 49.7564 419.792C52.7816 415.056 54.1613 408.197 54.1613 399.488L50.3409 399.488C50.3409 407.913 48.9843 413.904 46.5369 417.735C44.1826 421.421 40.7138 423.279 35.8333 423.279L35.8333 427.099ZM54.1613 399.488L54.1613 378.686L50.3409 378.686L50.3409 399.488L54.1613 399.488ZM67.2936 522.893L65.4128 522.559L65.4107 522.571L65.4088 522.583L67.2936 522.893ZM64.2851 534.239L62.5209 533.507L62.5161 533.518L64.2851 534.239ZM59.6434 542.319L61.135 543.512L61.135 543.512L59.6434 542.319ZM54.1422 547.649L53.06 546.074L53.0435 546.086L53.0273 546.097L54.1422 547.649ZM48.1252 550.829L47.4648 549.037L47.4648 549.037L48.1252 550.829ZM42.2801 552.376L42.0276 550.483L42.0276 550.483L42.2801 552.376ZM28.9567 552.376L29.2091 550.483L29.2091 550.483L28.9567 552.376ZM23.0256 550.829L22.3653 552.621L22.3727 552.624L22.3802 552.627L23.0256 550.829ZM16.9226 547.734L15.8405 549.309L15.8517 549.316L15.8631 549.324L16.9226 547.734ZM11.3354 542.319L9.84383 543.512L9.84738 543.517L11.3354 542.319ZM6.60777 534.325L4.84356 535.057L4.84941 535.072L4.85549 535.086L6.60777 534.325ZM3.5133 522.893L5.39488 522.564L5.39416 522.559L3.5133 522.893ZM3.5133 488.854L1.63174 488.524L3.5133 488.854ZM6.60777 477.421L4.85549 476.661L4.84941 476.675L4.84356 476.689L6.60777 477.421ZM11.3354 469.341L9.86197 468.126L9.84552 468.146L9.82961 468.166L11.3354 469.341ZM16.9226 463.926L15.8631 462.337L15.8351 462.355L15.8078 462.375L16.9226 463.926ZM23.0256 460.832L22.4216 459.019L22.3933 459.029L22.3653 459.039L23.0256 460.832ZM28.9567 459.37L29.2091 461.264L29.2091 461.264L28.9567 459.37ZM42.1941 459.37L41.9331 461.263L41.9416 461.264L42.1941 459.37ZM48.0392 460.832L48.6846 459.034L48.6711 459.029L48.6575 459.024L48.0392 460.832ZM54.1422 463.926L55.257 462.375L55.2408 462.363L55.2243 462.352L54.1422 463.926ZM59.6434 469.341L61.135 468.148L61.135 468.148L59.6434 469.341ZM64.2851 477.335L66.0542 476.615L66.0493 476.603L64.2851 477.335ZM67.2936 488.854L65.4082 489.16L65.4101 489.172L65.4121 489.183L67.2936 488.854ZM40.8188 531.145L41.3338 532.984L41.3338 532.984L40.8188 531.145ZM45.2886 528.824L46.4255 530.359L46.4255 530.359L45.2886 528.824ZM49.2426 524.354L50.8851 525.329L50.8851 525.329L49.2426 524.354ZM51.9073 516.876L50.0483 516.436L50.0445 516.452L50.041 516.469L51.9073 516.876ZM29.3865 481.032L28.7158 479.243L28.6915 479.252L28.6675 479.262L29.3865 481.032ZM23.8852 484.728L22.5788 483.334L22.5788 483.334L23.8852 484.728ZM19.5014 492.722L17.6726 492.17L17.6726 492.17L19.5014 492.722ZM19.4154 518.853L17.581 519.385L17.5837 519.395L17.5866 519.404L19.4154 518.853ZM23.7133 526.933L22.3626 528.283L22.3733 528.294L22.3842 528.305L23.7133 526.933ZM29.2145 530.629L29.9335 528.859L29.9095 528.85L29.8852 528.84L29.2145 530.629ZM66.5869 504.068L66.5869 507.764L70.4072 507.764L70.4072 504.068L66.5869 504.068ZM66.5869 507.764C66.5869 513.233 66.192 518.162 65.4128 522.559L69.1745 523.226C69.9998 518.569 70.4072 513.412 70.4072 507.764L66.5869 507.764ZM65.4088 522.583C64.6791 527.017 63.7081 530.647 62.5209 533.507L66.0493 534.971C67.3836 531.757 68.4182 527.823 69.1785 523.203L65.4088 522.583ZM62.5161 533.518C61.3153 536.466 59.8563 538.995 58.1518 541.126L61.135 543.512C63.0981 541.059 64.7335 538.201 66.0541 534.96L62.5161 533.518ZM58.1519 541.126C56.4002 543.315 54.6991 544.948 53.06 546.074L55.2243 549.223C57.2527 547.828 59.2192 545.907 61.135 543.512L58.1519 541.126ZM53.0273 546.097C51.3373 547.312 49.4852 548.292 47.4648 549.037L48.7855 552.621C51.1203 551.761 53.2795 550.621 55.257 549.2L53.0273 546.097ZM47.4648 549.037C45.3778 549.805 43.5698 550.277 42.0276 550.483L42.5325 554.27C44.4286 554.017 46.5173 553.457 48.7855 552.621L47.4648 549.037ZM42.0276 550.483C40.3992 550.7 38.6789 550.81 36.8647 550.81L36.8647 554.63C38.8328 554.63 40.7226 554.511 42.5325 554.27L42.0276 550.483ZM36.8647 550.81L34.286 550.81L34.286 554.63L36.8647 554.63L36.8647 550.81ZM34.286 550.81C32.5319 550.81 30.84 550.7 29.2091 550.483L28.7042 554.27C30.5117 554.511 32.3726 554.63 34.286 554.63L34.286 550.81ZM29.2091 550.483C27.6628 550.277 25.8217 549.803 23.671 549.031L22.3802 552.627C24.6993 553.459 26.8123 554.017 28.7042 554.27L29.2091 550.483ZM23.686 549.037C21.646 548.285 19.746 547.321 17.9822 546.145L15.8631 549.324C17.8814 550.669 20.0501 551.768 22.3653 552.621L23.686 549.037ZM18.0048 546.16C16.3672 545.035 14.6365 543.374 12.8235 541.121L9.84738 543.517C11.8164 545.963 13.8106 547.913 15.8405 549.309L18.0048 546.16ZM12.827 541.126C11.1114 538.981 9.61916 536.466 8.36004 533.565L4.85549 535.086C6.2324 538.258 7.89191 541.073 9.84383 543.512L12.827 541.126ZM8.37198 533.593C7.18214 530.726 6.18206 527.062 5.39487 522.564L1.63173 523.222C2.44908 527.893 3.51198 531.85 4.84356 535.057L8.37198 533.593ZM5.39416 522.559C4.61493 518.162 4.22006 513.233 4.22006 507.764L0.399738 507.764C0.399738 513.412 0.807142 518.569 1.63245 523.226L5.39416 522.559ZM4.22006 507.764L4.22006 504.068L0.399738 504.068L0.399738 507.764L4.22006 507.764ZM4.22006 504.068C4.22006 498.599 4.61487 493.64 5.39487 489.183L1.63174 488.524C0.807201 493.236 0.399738 498.42 0.399738 504.068L4.22006 504.068ZM5.39487 489.183C6.18206 484.685 7.18214 481.02 8.37198 478.154L4.84356 476.689C3.51198 479.897 2.44908 483.854 1.63174 488.524L5.39487 489.183ZM8.36005 478.182C9.62078 475.277 11.1171 472.726 12.8412 470.517L9.82961 468.166C7.88621 470.656 6.23078 473.492 4.85549 476.661L8.36005 478.182ZM12.8089 470.557C14.6262 468.354 16.3716 466.675 18.0375 465.477L15.8078 462.375C13.8062 463.814 11.8268 465.744 9.86197 468.126L12.8089 470.557ZM17.9822 465.515C19.746 464.34 21.646 463.376 23.686 462.624L22.3653 459.039C20.0501 459.892 17.8814 460.991 15.8631 462.337L17.9822 465.515ZM23.6297 462.644C25.7878 461.924 27.6433 461.473 29.2091 461.264L28.7042 457.477C26.8318 457.727 24.7332 458.249 22.4216 459.019L23.6297 462.644ZM29.2091 461.264C30.84 461.046 32.5319 460.937 34.286 460.937L34.286 457.116C32.3726 457.116 30.5117 457.236 28.7042 457.477L29.2091 461.264ZM34.286 460.937L36.8647 460.937L36.8647 457.116L34.286 457.116L34.286 460.937ZM36.8647 460.937C38.6793 460.937 40.3678 461.047 41.9331 461.263L42.4551 457.478C40.6967 457.236 38.8323 457.116 36.8647 457.116L36.8647 460.937ZM41.9416 461.264C43.5036 461.472 45.3261 461.922 47.4209 462.639L48.6575 459.024C46.3971 458.251 44.3229 457.727 42.4466 457.477L41.9416 461.264ZM47.3938 462.629C49.4844 463.38 51.3704 464.338 53.06 465.5L55.2243 462.352C53.2465 460.992 51.0638 459.888 48.6846 459.034L47.3938 462.629ZM53.0273 465.477C54.6849 466.669 56.3962 468.34 58.1519 470.535L61.135 468.148C59.2232 465.758 57.267 463.82 55.257 462.375L53.0273 465.477ZM58.1519 470.535C59.861 472.671 61.3209 475.177 62.5209 478.068L66.0493 476.603C64.728 473.42 63.0934 470.596 61.135 468.148L58.1519 470.535ZM62.5161 478.056C63.7061 480.977 64.6781 484.667 65.4082 489.16L69.1791 488.547C68.4192 483.871 67.3856 479.883 66.0541 476.615L62.5161 478.056ZM65.4121 489.183C66.1921 493.64 66.5869 498.599 66.5869 504.068L70.4072 504.068C70.4072 498.42 69.9997 493.236 69.1752 488.524L65.4121 489.183ZM35.0596 533.657L36.263 533.657L36.263 529.836L35.0596 529.836L35.0596 533.657ZM36.263 533.657C38.0281 533.657 39.7209 533.436 41.3338 532.984L40.3037 529.305C39.0514 529.656 37.7071 529.836 36.263 529.836L36.263 533.657ZM41.3338 532.984C43.0457 532.505 44.7436 531.605 46.4255 530.359L44.1516 527.289C42.739 528.335 41.4571 528.982 40.3037 529.305L41.3338 532.984ZM46.4255 530.359C48.1977 529.046 49.6806 527.358 50.8851 525.329L47.6001 523.379C46.627 525.018 45.4739 526.309 44.1516 527.289L46.4255 530.359ZM50.8851 525.329C52.1175 523.254 53.0622 520.543 53.7735 517.283L50.041 516.469C49.377 519.512 48.5453 521.787 47.6001 523.379L50.8851 525.329ZM53.7662 517.315C54.5534 513.985 54.9349 510.164 54.9349 505.873L51.1146 505.873C51.1146 509.949 50.7511 513.463 50.0483 516.436L53.7662 517.315ZM54.9349 505.873C54.9349 497.104 53.5256 490.197 50.4374 485.43C47.2566 480.52 42.4305 478.09 36.263 478.09L36.263 481.91C41.2701 481.91 44.8248 483.792 47.2312 487.507C49.7302 491.364 51.1146 497.394 51.1146 505.873L54.9349 505.873ZM36.263 478.09L35.2316 478.09L35.2316 481.91L36.263 481.91L36.263 478.09ZM35.2316 478.09C32.9519 478.09 30.7753 478.471 28.7158 479.243L30.0572 482.82C31.6652 482.217 33.3853 481.91 35.2316 481.91L35.2316 478.09ZM28.6675 479.262C26.5667 480.115 24.5394 481.496 22.5788 483.334L25.1916 486.121C26.8985 484.521 28.5387 483.438 30.1054 482.801L28.6675 479.262ZM22.5788 483.334C20.4069 485.37 18.8135 488.387 17.6726 492.17L21.3302 493.273C22.3669 489.836 23.6959 487.524 25.1916 486.121L22.5788 483.334ZM17.6726 492.17C16.5141 496.011 15.958 500.593 15.958 505.873L19.7783 505.873C19.7783 500.839 20.311 496.653 21.3302 493.273L17.6726 492.17ZM15.958 505.873C15.958 511.091 16.4843 515.608 17.581 519.385L21.2498 518.32C20.2835 514.992 19.7783 510.856 19.7783 505.873L15.958 505.873ZM17.5866 519.404C18.7245 523.177 20.2793 526.2 22.3626 528.283L25.064 525.582C23.5944 524.113 22.2839 521.749 21.2442 518.301L17.5866 519.404ZM22.3842 528.305C24.3518 530.211 26.4019 531.614 28.5438 532.417L29.8852 528.84C28.3597 528.268 26.7423 527.208 25.0424 525.561L22.3842 528.305ZM28.4956 532.399C30.5673 533.24 32.7608 533.657 35.0596 533.657L35.0596 529.836C33.2325 529.836 31.5293 529.508 29.9335 528.859L28.4956 532.399ZM4.45883 590.847L2.61835 590.336L2.61835 590.336L4.45883 590.847ZM9.87414 578.469L8.33563 577.337L8.32364 577.353L8.312 577.37L9.87414 578.469ZM17.6103 570.991L16.565 569.392L16.5578 569.397L16.5507 569.401L17.6103 570.991ZM26.1201 566.951L25.6568 565.098L25.6337 565.103L25.6109 565.11L26.1201 566.951ZM44.9447 566.779L45.389 564.921L45.3741 564.917L45.3591 564.914L44.9447 566.779ZM53.2826 570.561L54.3279 568.962L54.3203 568.957L53.2826 570.561ZM60.9328 578.039L59.3665 579.133L59.3734 579.142L59.3804 579.152L60.9328 578.039ZM66.3481 590.589L68.1941 590.098L68.1928 590.093L66.3481 590.589ZM66.7779 630.989L68.6435 631.399L68.6435 631.399L66.7779 630.989ZM62.48 643.195L60.8336 642.226L60.8225 642.245L60.8118 642.264L62.48 643.195ZM56.463 650.501L55.2653 649.013L55.2563 649.02L55.2474 649.028L56.463 650.501ZM50.1022 654.283L49.5142 652.466L49.5061 652.468L49.4981 652.471L50.1022 654.283ZM44.2571 655.315L44.2571 657.225L44.2843 657.225L44.3116 657.224L44.2571 655.315ZM44.1711 655.315L42.261 655.315L42.261 657.225L44.1711 657.225L44.1711 655.315ZM44.1711 633.997L43.5416 632.194L42.261 632.641L42.261 633.997L44.1711 633.997ZM22.9397 592.824L21.4878 591.582L21.4791 591.593L22.9397 592.824ZM18.6418 620.846L16.7596 621.172L16.7596 621.172L18.6418 620.846ZM20.5328 627.98L22.2944 627.242L22.2944 627.242L20.5328 627.98ZM22.9397 632.45L21.3853 633.56L21.39 633.567L21.3948 633.574L22.9397 632.45ZM25.3465 635.029L26.4926 633.501L26.4501 633.469L26.406 633.44L25.3465 635.029ZM27.1516 635.802L27.1516 637.713L29.0617 637.713L29.0617 635.802L27.1516 635.802ZM27.1516 610.703L27.1516 608.793L25.2414 608.793L25.2414 610.703L27.1516 610.703ZM39.2715 610.703L41.1817 610.703L41.1817 608.793L39.2715 608.793L39.2715 610.703ZM39.2715 655.745L39.2715 657.655L41.1817 657.655L41.1817 655.745L39.2715 655.745ZM3.42734 655.745L1.51718 655.745L1.51718 657.655L3.42734 657.655L3.42734 655.745ZM3.42734 643.711L3.20599 641.813L1.51718 642.01L1.51718 643.711L3.42734 643.711ZM13.3984 641.132L14.1241 642.899L16.991 641.721L14.6507 639.689L13.3984 641.132ZM4.22006 610.359L4.22006 608.554L0.399734 608.554L0.399734 610.359L4.22006 610.359ZM4.22006 608.554C4.22006 602.04 4.9225 596.315 6.29931 591.358L2.61835 590.336C1.12992 595.694 0.399734 601.774 0.399734 608.554L4.22006 608.554ZM6.29931 591.358C7.69574 586.331 9.42475 582.427 11.4363 579.568L8.312 577.37C5.96836 580.7 4.08716 585.048 2.61835 590.336L6.29931 591.358ZM11.4127 579.601C13.5255 576.73 15.9456 574.396 18.6699 572.58L16.5507 569.401C13.4299 571.482 10.6926 574.134 8.33563 577.337L11.4127 579.601ZM18.6556 572.589C21.5133 570.721 24.17 569.472 26.6293 568.792L25.6109 565.11C22.6835 565.919 19.667 567.364 16.565 569.392L18.6556 572.589ZM26.5834 568.804C29.184 568.154 31.8077 567.829 34.4579 567.829L34.4579 564.009C31.4923 564.009 28.5575 564.372 25.6568 565.098L26.5834 568.804ZM34.4579 567.829L36.8647 567.829L36.8647 564.009L34.4579 564.009L34.4579 567.829ZM36.8647 567.829C39.542 567.829 42.0959 568.102 44.5304 568.643L45.3591 564.914C42.6361 564.309 39.8033 564.009 36.8647 564.009L36.8647 567.829ZM44.5005 568.637C46.8754 569.204 49.4551 570.359 52.2449 572.165L54.3203 568.957C51.2649 566.98 48.2861 565.614 45.389 564.921L44.5005 568.637ZM52.2373 572.16C55.0045 573.969 57.3803 576.287 59.3665 579.133L62.499 576.946C60.2448 573.717 57.5203 571.049 54.3279 568.962L52.2373 572.16ZM59.3804 579.152C61.3766 581.936 63.1046 585.881 64.5034 591.085L68.1928 590.093C66.7263 584.638 64.8441 580.216 62.4852 576.926L59.3804 579.152ZM64.5021 591.08C65.8826 596.271 66.5869 602.317 66.5869 609.242L70.4072 609.242C70.4072 602.069 69.6788 595.68 68.1941 590.098L64.5021 591.08ZM66.5869 609.242L66.5869 612.938L70.4072 612.938L70.4072 609.242L66.5869 609.242ZM66.5869 612.938C66.5869 619.655 66.0219 625.53 64.9123 630.579L68.6435 631.399C69.826 626.018 70.4072 619.859 70.4072 612.938L66.5869 612.938ZM64.9123 630.579C63.7875 635.696 62.4095 639.547 60.8336 642.226L64.1265 644.163C65.9888 640.997 67.4761 636.711 68.6435 631.399L64.9123 630.579ZM60.8118 642.264C59.2539 645.058 57.4001 647.295 55.2653 649.013L57.6607 651.989C60.2249 649.925 62.3825 647.291 64.1483 644.125L60.8118 642.264ZM55.2474 649.028C53.0643 650.829 51.155 651.935 49.5142 652.466L50.6902 656.101C52.9461 655.371 55.2774 653.956 57.6786 651.975L55.2474 649.028ZM49.4981 652.471C47.7857 653.042 46.0225 653.353 44.2025 653.405L44.3116 657.224C46.503 657.162 48.6366 656.785 50.7062 656.095L49.4981 652.471ZM44.2571 653.405L44.1711 653.405L44.1711 657.225L44.2571 657.225L44.2571 653.405ZM46.0813 655.315L46.0813 633.997L42.261 633.997L42.261 655.315L46.0813 655.315ZM44.8006 635.801C48.4942 634.512 51.1143 631.582 52.7783 627.422C54.4248 623.305 55.1928 617.866 55.1928 611.219L51.3724 611.219C51.3724 617.636 50.6218 622.527 49.2312 626.003C47.858 629.436 45.9223 631.363 43.5416 632.194L44.8006 635.801ZM55.1928 611.219C55.1928 602.942 53.7336 596.392 50.5206 591.868C47.2223 587.224 42.2707 584.983 36.0052 584.983L36.0052 588.803C41.2579 588.803 44.945 590.616 47.4059 594.08C49.9521 597.665 51.3724 603.278 51.3724 611.219L55.1928 611.219ZM36.0052 584.983L35.0596 584.983L35.0596 588.803L36.0052 588.803L36.0052 584.983ZM35.0596 584.983C29.7382 584.983 25.188 587.255 21.4879 591.582L24.3914 594.065C27.4533 590.484 30.9831 588.803 35.0596 588.803L35.0596 584.983ZM21.4791 591.593C17.6851 596.094 15.958 602.695 15.958 611.047L19.7783 611.047C19.7783 603.124 21.4322 597.576 24.4002 594.055L21.4791 591.593ZM15.958 611.047C15.958 614.69 16.2224 618.068 16.7596 621.172L20.524 620.52C20.0297 617.665 19.7783 614.509 19.7783 611.047L15.958 611.047ZM16.7596 621.172C17.2877 624.223 17.9486 626.757 18.7713 628.719L22.2944 627.242C21.6272 625.651 21.0274 623.429 20.524 620.52L16.7596 621.172ZM18.7713 628.719C19.5557 630.59 20.4225 632.213 21.3853 633.56L24.494 631.34C23.7376 630.281 22.9999 628.924 22.2944 627.242L18.7713 628.719ZM21.3948 633.574C22.3484 634.885 23.3113 635.968 24.2869 636.618L26.406 633.44C26.0063 633.173 25.3647 632.537 24.4845 631.327L21.3948 633.574ZM24.2004 636.557C24.9134 637.092 25.9007 637.713 26.9796 637.713L26.9796 633.892C27.0818 633.892 27.1437 633.908 27.1545 633.911C27.1658 633.914 27.145 633.91 27.0882 633.883C26.9693 633.826 26.7734 633.711 26.4926 633.501L24.2004 636.557ZM26.9796 637.713L27.1516 637.713L27.1516 633.892L26.9796 633.892L26.9796 637.713ZM29.0617 635.802L29.0617 610.703L25.2414 610.703L25.2414 635.802L29.0617 635.802ZM27.1516 612.613L39.2715 612.613L39.2715 608.793L27.1516 608.793L27.1516 612.613ZM37.3614 610.703L37.3614 655.745L41.1817 655.745L41.1817 610.703L37.3614 610.703ZM39.2715 653.834L3.42734 653.834L3.42734 657.655L39.2715 657.655L39.2715 653.834ZM5.3375 655.745L5.3375 643.711L1.51718 643.711L1.51718 655.745L5.3375 655.745ZM3.64869 645.608C7.26065 645.186 10.754 644.283 14.1241 642.899L12.6727 639.365C9.62463 640.617 6.47062 641.432 3.20599 641.813L3.64869 645.608ZM14.6507 639.689C7.83389 633.771 4.22006 624.153 4.22006 610.359L0.399734 610.359C0.399733 624.759 4.17823 635.656 12.1461 642.574L14.6507 639.689Z" fill="#F14251"/>
</svg>
