<svg width="53" height="72" viewBox="0 0 53 72" fill="none" xmlns="http://www.w3.org/2000/svg">
<path fill-rule="evenodd" clip-rule="evenodd" d="M48.8253 0L38.9446 19.5112C42.1634 22.5578 44.17 26.8632 44.17 31.6355C44.17 32.6713 44.0754 33.6852 43.8946 34.6688L53 41.997L42.1638 39.5701C39.7246 44.0695 35.2753 47.3288 30.0145 48.1536L27.3838 72L25.2151 48.2195C23.6478 48.0181 22.1483 47.6013 20.7474 47.0001L14.6727 51.0776L17.3265 45.0254C13.4109 42.102 10.8198 37.5139 10.611 32.3153L0 28.2009L11.2462 27.0165C11.9242 24.6613 13.1077 22.5191 14.6723 20.7136L14.6727 16.5244L19.6956 16.7665C21.0923 16.0484 22.6032 15.5198 24.1941 15.2149H24.0266L26.6043 1.53565L29.1445 15.0042C31.0976 15.207 32.9512 15.7434 34.6467 16.5553L48.8253 0ZM27.3838 23.8318C23.0573 23.8318 19.5502 27.3257 19.5502 31.6355C19.5502 35.9454 23.0573 39.4393 27.3838 39.4393C31.7101 39.4393 35.2174 35.9454 35.2174 31.6355C35.2174 27.3257 31.7101 23.8318 27.3838 23.8318Z" fill="rgb(255,70,86)"/>
</svg>
