<svg width="97" height="662" viewBox="0 0 97 662" fill="none" xmlns="http://www.w3.org/2000/svg">
<path d="M6.42886 37.683L3.91311 36.9841L3.91311 36.9841L6.42886 37.683ZM13.831 20.7637L11.7281 19.2162L11.7117 19.2385L11.6958 19.2611L13.831 20.7637ZM24.4056 10.5416L22.9767 8.35628L22.967 8.36266L22.9573 8.36913L24.4056 10.5416ZM36.0376 5.01935L35.4044 2.4863L35.3729 2.49418L35.3416 2.50283L36.0376 5.01935ZM61.769 4.78436L62.3763 2.24495L62.3559 2.24008L62.3354 2.23553L61.769 4.78436ZM73.1661 9.95414L74.5949 7.76879L74.5845 7.76202L73.1661 9.95414ZM83.6231 20.1762L81.4822 21.6708L81.4916 21.6843L81.5012 21.6976L83.6231 20.1762ZM91.0253 37.3305L93.5486 36.6594L93.5468 36.6527L91.0253 37.3305ZM91.6128 92.5532L94.1629 93.1136L94.1629 93.1136L91.6128 92.5532ZM85.738 109.237L83.4875 107.914L83.4723 107.94L83.4577 107.966L85.738 109.237ZM77.5134 119.225L75.8762 117.191L75.8639 117.2L75.8518 117.21L77.5134 119.225ZM68.8187 124.394L68.015 121.91L68.004 121.914L67.9931 121.917L68.8187 124.394ZM60.8291 125.804L60.8291 128.415L60.8664 128.415L60.9036 128.414L60.8291 125.804ZM60.7116 125.804L58.1006 125.804L58.1006 128.415L60.7116 128.415L60.7116 125.804ZM60.7116 96.6655L59.8511 94.2004L58.1006 94.8114L58.1006 96.6655L60.7116 96.6655ZM31.6903 40.3854L29.7058 38.6885L29.6998 38.6956L29.6939 38.7026L31.6903 40.3854ZM25.8155 78.6887L23.2428 79.134L23.2428 79.134L25.8155 78.6887ZM28.4004 88.4408L30.8083 87.4311L30.8083 87.4311L28.4004 88.4408ZM31.6903 94.5506L29.5656 96.0682L29.5721 96.0773L29.5787 96.0863L31.6903 94.5506ZM34.9802 98.0754L36.5468 95.9866L36.4888 95.9431L36.4285 95.9029L34.9802 98.0754ZM37.4476 99.1329L37.4476 101.744L40.0586 101.744L40.0586 99.1329L37.4476 99.1329ZM37.4476 64.8243L37.4476 62.2133L34.8366 62.2133L34.8366 64.8243L37.4476 64.8243ZM54.0144 64.8243L56.6254 64.8243L56.6254 62.2133L54.0144 62.2133L54.0144 64.8243ZM54.0144 126.392L54.0144 129.003L56.6254 129.003L56.6254 126.392L54.0144 126.392ZM5.01892 126.392L2.40791 126.392L2.40791 129.003L5.01892 129.003L5.01892 126.392ZM5.01892 109.942L4.71635 107.349L2.40792 107.618L2.40792 109.942L5.01892 109.942ZM18.6483 106.418L19.6403 108.833L23.559 107.223L20.3601 104.446L18.6483 106.418ZM6.10248 64.3543L6.10248 61.8869L0.880482 61.8869L0.880482 64.3543L6.10248 64.3543ZM6.10248 61.8869C6.10248 52.9824 7.06265 45.1568 8.94461 38.3818L3.91311 36.9841C1.87857 44.3085 0.880482 52.6189 0.880482 61.8869L6.10248 61.8869ZM8.94461 38.3818C10.8534 31.5102 13.2168 26.1736 15.9663 22.2663L11.6958 19.2611C8.49223 23.8134 5.92083 29.7564 3.91311 36.9841L8.94461 38.3818ZM15.934 22.3112C18.8221 18.3864 22.1301 15.1967 25.8539 12.7141L22.9573 8.36913C18.6915 11.213 14.9498 14.8379 11.7281 19.2162L15.934 22.3112ZM25.8345 12.7269C29.7406 10.1729 33.372 8.46568 36.7337 7.53586L35.3416 2.50283C31.3402 3.60959 27.2169 5.58388 22.9767 8.35628L25.8345 12.7269ZM36.6709 7.55239C40.2256 6.6637 43.812 6.22041 47.4346 6.22041L47.4346 0.998404C43.3809 0.998404 39.3693 1.49507 35.4044 2.4863L36.6709 7.55239ZM47.4346 6.22041L50.7245 6.22041L50.7245 0.998405L47.4346 0.998404L47.4346 6.22041ZM50.7245 6.22041C54.3841 6.22041 57.875 6.59371 61.2026 7.33318L62.3354 2.23553C58.6133 1.4084 54.7413 0.998405 50.7245 0.998405L50.7245 6.22041ZM61.1618 7.32376C64.4081 8.10005 67.9343 9.67882 71.7476 12.1463L74.5845 7.76202C70.4081 5.05967 66.3363 3.19192 62.3763 2.24495L61.1618 7.32376ZM71.7372 12.1395C75.5198 14.6127 78.7672 17.7817 81.4822 21.6708L85.764 18.6816C82.6826 14.2677 78.9586 10.622 74.5949 7.76881L71.7372 12.1395ZM81.5012 21.6976C84.2298 25.5034 86.5918 30.8956 88.5038 38.0083L93.5468 36.6527C91.5423 29.196 88.9695 23.152 85.7451 18.6548L81.5012 21.6976ZM88.502 38.0016C90.3891 45.0969 91.3517 53.3621 91.3517 62.8269L96.5737 62.8269C96.5737 53.0225 95.578 44.2901 93.5486 36.6594L88.502 38.0016ZM91.3517 62.8269L91.3517 67.8792L96.5737 67.8792L96.5737 62.8269L91.3517 62.8269ZM91.3517 67.8792C91.3517 77.0611 90.5794 85.0912 89.0626 91.9927L94.1629 93.1136C95.7793 85.7591 96.5737 77.3398 96.5737 67.8792L91.3517 67.8792ZM89.0626 91.9927C87.5252 98.9878 85.6416 104.252 83.4875 107.914L87.9885 110.561C90.5342 106.234 92.5671 100.375 94.1629 93.1136L89.0626 91.9927ZM83.4577 107.966C81.3282 111.784 78.7943 114.842 75.8762 117.191L79.1505 121.259C82.6555 118.437 85.6047 114.837 88.0184 110.509L83.4577 107.966ZM75.8518 117.21C72.8676 119.672 70.2578 121.184 68.015 121.91L69.6225 126.879C72.7061 125.881 75.8927 123.946 79.175 121.239L75.8518 117.21ZM67.9931 121.917C65.6523 122.698 63.2422 123.123 60.7545 123.194L60.9036 128.414C63.899 128.329 66.8154 127.814 69.6444 126.871L67.9931 121.917ZM60.8291 123.193L60.7116 123.193L60.7116 128.415L60.8291 128.415L60.8291 123.193ZM63.3226 125.804L63.3226 96.6655L58.1006 96.6655L58.1006 125.804L63.3226 125.804ZM61.572 99.1306C66.6208 97.3683 70.2022 93.3638 72.4767 87.6775C74.7274 82.0508 75.7771 74.6161 75.7771 65.5293L70.5551 65.5293C70.5551 74.3017 69.529 80.9861 67.6282 85.7381C65.7512 90.4305 63.1053 93.0644 59.8511 94.2004L61.572 99.1306ZM75.7771 65.5293C75.7771 54.2157 73.7825 45.2626 69.3906 39.0791C64.8822 32.7314 58.1139 29.6672 49.5495 29.6672L49.5495 34.8892C56.7295 34.8892 61.7694 37.3668 65.1332 42.1029C68.6135 47.0031 70.5551 54.6755 70.5551 65.5293L75.7771 65.5293ZM49.5495 29.6672L48.2571 29.6672L48.2571 34.8892L49.5495 34.8892L49.5495 29.6672ZM48.2571 29.6672C40.9833 29.6672 34.7636 32.7735 29.7058 38.6885L33.6747 42.0822C37.86 37.1876 42.6848 34.8892 48.2571 34.8892L48.2571 29.6672ZM29.6939 38.7026C24.5079 44.8555 22.1471 53.8786 22.1471 65.2943L27.3691 65.2943C27.3691 54.4643 29.6298 46.8814 33.6867 42.0681L29.6939 38.7026ZM22.1471 65.2943C22.1471 70.2749 22.5084 74.891 23.2428 79.134L28.3883 78.2435C27.7127 74.3402 27.3691 70.0266 27.3691 65.2943L22.1471 65.2943ZM23.2428 79.134C23.9646 83.3046 24.868 86.7688 25.9926 89.4506L30.8083 87.4311C29.8963 85.2564 29.0764 82.2192 28.3883 78.2435L23.2428 79.134ZM25.9926 89.4506C27.0648 92.0074 28.2497 94.2258 29.5656 96.0682L33.815 93.033C32.781 91.5855 31.7726 89.7307 30.8083 87.4311L25.9926 89.4506ZM29.5787 96.0863C30.8821 97.8785 32.1982 99.3588 33.5318 100.248L36.4285 95.9029C35.8822 95.5387 35.0051 94.6692 33.8019 93.0149L29.5787 96.0863ZM33.4136 100.164C34.3882 100.895 35.7377 101.744 37.2126 101.744L37.2126 96.5219C37.3521 96.5219 37.4368 96.5438 37.4516 96.5478C37.4671 96.552 37.4385 96.5456 37.361 96.5089C37.1984 96.4319 36.9306 96.2745 36.5468 95.9866L33.4136 100.164ZM37.2126 101.744L37.4476 101.744L37.4476 96.5219L37.2126 96.5219L37.2126 101.744ZM40.0586 99.1329L40.0586 64.8243L34.8366 64.8243L34.8366 99.1329L40.0586 99.1329ZM37.4476 67.4353L54.0144 67.4353L54.0144 62.2133L37.4476 62.2133L37.4476 67.4353ZM51.4034 64.8243L51.4034 126.392L56.6254 126.392L56.6254 64.8243L51.4034 64.8243ZM54.0144 123.781L5.01892 123.781L5.01892 129.003L54.0144 129.003L54.0144 123.781ZM7.62992 126.392L7.62992 109.942L2.40792 109.942L2.40791 126.392L7.62992 126.392ZM5.32148 112.536C10.2587 111.96 15.0337 110.725 19.6403 108.833L17.6564 104.002C13.49 105.714 9.17877 106.828 4.71635 107.349L5.32148 112.536ZM20.3601 104.446C11.0422 96.356 6.10248 83.209 6.10248 64.3543L0.880482 64.3543C0.880481 84.0381 6.0453 98.9332 16.9366 108.389L20.3601 104.446ZM5.01891 150.607L5.01891 147.996L2.40791 147.996L2.40791 150.607L5.01891 150.607ZM92.4352 150.607L95.0462 150.607L95.0462 147.996L92.4352 147.996L92.4352 150.607ZM92.4352 177.983L92.4352 180.594L95.0462 180.594L95.0462 177.983L92.4352 177.983ZM60.5941 177.983L60.5941 175.372L57.9831 175.372L57.9831 177.983L60.5941 177.983ZM60.5941 236.731L57.9831 236.731L57.9831 239.342L60.5941 239.342L60.5941 236.731ZM92.4352 236.731L95.0462 236.731L95.0462 234.12L92.4352 234.12L92.4352 236.731ZM92.4352 264.107L92.4352 266.718L95.0462 266.718L95.0462 264.107L92.4352 264.107ZM5.01891 264.107L2.40791 264.107L2.40791 266.718L5.01891 266.718L5.01891 264.107ZM5.01891 236.731L5.01891 234.12L2.40791 234.12L2.40791 236.731L5.01891 236.731ZM39.445 236.731L39.445 239.342L42.056 239.342L42.056 236.731L39.445 236.731ZM39.445 177.983L42.056 177.983L42.056 175.372L39.445 175.372L39.445 177.983ZM5.01891 177.983L2.40791 177.983L2.40791 180.594L5.01891 180.594L5.01891 177.983ZM5.01891 153.218L92.4352 153.218L92.4352 147.996L5.01891 147.996L5.01891 153.218ZM89.8242 150.607L89.8242 177.983L95.0462 177.983L95.0462 150.607L89.8242 150.607ZM92.4352 175.372L60.5941 175.372L60.5941 180.594L92.4352 180.594L92.4352 175.372ZM57.9831 177.983L57.9831 236.731L63.2051 236.731L63.2051 177.983L57.9831 177.983ZM60.5941 239.342L92.4352 239.342L92.4352 234.12L60.5941 234.12L60.5941 239.342ZM89.8242 236.731L89.8242 264.107L95.0462 264.107L95.0462 236.731L89.8242 236.731ZM92.4352 261.496L5.01891 261.496L5.01891 266.718L92.4352 266.718L92.4352 261.496ZM7.62991 264.107L7.62991 236.731L2.40791 236.731L2.40791 264.107L7.62991 264.107ZM5.01891 239.342L39.445 239.342L39.445 234.12L5.01891 234.12L5.01891 239.342ZM42.056 236.731L42.056 177.983L36.834 177.983L36.834 236.731L42.056 236.731ZM39.445 175.372L5.01891 175.372L5.01891 180.594L39.445 180.594L39.445 175.372ZM7.62991 177.983L7.62992 150.607L2.40791 150.607L2.40791 177.983L7.62991 177.983ZM92.3177 373.034L89.7468 372.578L89.744 372.594L89.7414 372.61L92.3177 373.034ZM88.2054 388.543L85.7939 387.542L85.7906 387.55L85.7874 387.558L88.2054 388.543ZM81.8607 399.588L83.8995 401.219L83.8995 401.219L81.8607 399.588ZM74.341 406.873L72.8618 404.721L72.8393 404.736L72.8171 404.752L74.341 406.873ZM66.1163 411.22L65.2137 408.77L65.2137 408.77L66.1163 411.22ZM58.1267 413.335L57.7816 410.747L57.7816 410.747L58.1267 413.335ZM39.9149 413.335L40.26 410.747L40.26 410.747L39.9149 413.335ZM31.8078 411.22L30.9051 413.67L30.9154 413.674L30.9256 413.677L31.8078 411.22ZM23.4656 406.99L21.9864 409.142L22.0018 409.152L22.0173 409.163L23.4656 406.99ZM15.8284 399.588L13.7896 401.219L13.7944 401.225L15.8284 399.588ZM9.36622 388.661L6.95472 389.662L6.96272 389.681L6.97103 389.7L9.36622 388.661ZM5.1364 373.034L7.70832 372.584L7.70734 372.578L5.1364 373.034ZM5.1364 326.506L2.56449 326.056L5.1364 326.506ZM9.36622 310.879L6.97104 309.84L6.96273 309.859L6.95473 309.878L9.36622 310.879ZM15.8285 299.835L13.8144 298.173L13.7919 298.2L13.7702 298.228L15.8285 299.835ZM23.4656 292.432L22.0173 290.26L21.9791 290.285L21.9418 290.312L23.4656 292.432ZM31.8078 288.203L30.9821 285.726L30.9434 285.738L30.9051 285.753L31.8078 288.203ZM39.9149 286.205L40.26 288.793L40.26 288.793L39.9149 286.205ZM58.0092 286.205L57.6524 288.792L57.6641 288.793L58.0092 286.205ZM65.9988 288.203L66.881 285.745L66.8626 285.739L66.844 285.732L65.9988 288.203ZM74.341 292.432L75.8649 290.312L75.8427 290.296L75.8202 290.281L74.341 292.432ZM81.8607 299.835L83.8995 298.204L83.8995 298.204L81.8607 299.835ZM88.2054 310.762L90.6234 309.777L90.6202 309.769L90.6169 309.761L88.2054 310.762ZM92.3177 326.506L89.7405 326.925L89.7431 326.94L89.7458 326.956L92.3177 326.506ZM56.1293 384.314L56.8333 386.828L56.8333 386.828L56.1293 384.314ZM62.239 381.141L63.7931 383.239L63.7931 383.239L62.239 381.141ZM67.6438 375.031L69.8889 376.364L69.8889 376.364L67.6438 375.031ZM71.2861 364.809L68.7451 364.209L68.7399 364.231L68.7351 364.253L71.2861 364.809ZM40.5024 315.814L39.5856 313.369L39.5525 313.382L39.5197 313.395L40.5024 315.814ZM32.9827 320.866L31.197 318.961L31.197 318.961L32.9827 320.866ZM26.9905 331.793L24.4907 331.039L24.4907 331.039L26.9905 331.793ZM26.873 367.512L24.3655 368.24L24.3693 368.253L24.3732 368.266L26.873 367.512ZM32.7477 378.556L30.9015 380.403L30.9161 380.417L30.931 380.432L32.7477 378.556ZM40.2674 383.609L41.2501 381.19L41.2173 381.176L41.1842 381.164L40.2674 383.609ZM91.3517 347.303L91.3517 352.355L96.5737 352.355L96.5737 347.303L91.3517 347.303ZM91.3517 352.355C91.3517 359.831 90.8119 366.568 89.7468 372.578L94.8887 373.49C96.0168 367.124 96.5737 360.075 96.5737 352.355L91.3517 352.355ZM89.7414 372.61C88.7439 378.672 87.4167 383.633 85.7939 387.542L90.6169 389.544C92.4406 385.151 93.855 379.773 94.8941 373.458L89.7414 372.61ZM85.7874 387.558C84.146 391.587 82.1517 395.045 79.8218 397.957L83.8995 401.219C86.5828 397.865 88.8183 393.959 90.6234 389.528L85.7874 387.558ZM79.8218 397.957C77.4274 400.95 75.1023 403.181 72.8618 404.721L75.8202 409.024C78.5928 407.118 81.2808 404.492 83.8995 401.219L79.8218 397.957ZM72.8171 404.752C70.5071 406.413 67.9754 407.752 65.2137 408.77L67.019 413.67C70.2104 412.494 73.1618 410.936 75.8649 408.993L72.8171 404.752ZM65.2137 408.77C62.361 409.821 59.8896 410.466 57.7816 410.747L58.4717 415.923C61.0635 415.577 63.9186 414.812 67.019 413.67L65.2137 408.77ZM57.7816 410.747C55.5558 411.044 53.2042 411.194 50.7245 411.194L50.7245 416.416C53.4146 416.416 55.9977 416.253 58.4718 415.923L57.7816 410.747ZM50.7245 411.194L47.1996 411.194L47.1996 416.416L50.7245 416.416L50.7245 411.194ZM47.1996 411.194C44.8019 411.194 42.4892 411.044 40.26 410.747L39.5698 415.923C42.0405 416.252 44.5842 416.416 47.1996 416.416L47.1996 411.194ZM40.26 410.747C38.1463 410.465 35.6298 409.818 32.6899 408.762L30.9256 413.677C34.0955 414.815 36.9837 415.578 39.5699 415.923L40.26 410.747ZM32.7104 408.77C29.9219 407.743 27.3249 406.425 24.914 404.818L22.0173 409.163C24.7761 411.002 27.7405 412.504 30.9051 413.67L32.7104 408.77ZM24.9448 404.839C22.7064 403.3 20.3408 401.03 17.8624 397.951L13.7944 401.225C16.4859 404.569 19.2117 407.234 21.9864 409.142L24.9448 404.839ZM17.8673 397.957C15.5223 395.026 13.4825 391.587 11.7614 387.621L6.97103 389.7C8.85313 394.037 11.1215 397.884 13.7896 401.219L17.8673 397.957ZM11.7777 387.66C10.1513 383.742 8.78433 378.733 7.70831 372.584L2.56448 373.484C3.68171 379.868 5.13459 385.277 6.95472 389.662L11.7777 387.66ZM7.70734 372.578C6.64221 366.568 6.10247 359.831 6.10247 352.355L0.880469 352.355C0.880469 360.075 1.43735 367.124 2.56546 373.49L7.70734 372.578ZM6.10247 352.355L6.10247 347.303L0.880469 347.303L0.880469 352.355L6.10247 352.355ZM6.10247 347.303C6.10247 339.827 6.64213 333.049 7.70832 326.956L2.56449 326.056C1.43743 332.496 0.88047 339.582 0.880469 347.303L6.10247 347.303ZM7.70832 326.956C8.78433 320.807 10.1513 315.798 11.7777 311.88L6.95473 309.878C5.13459 314.263 3.68172 319.672 2.56449 326.056L7.70832 326.956ZM11.7614 311.919C13.4847 307.947 15.5301 304.461 17.8867 301.441L13.7702 298.228C11.1137 301.632 8.85092 305.508 6.97104 309.84L11.7614 311.919ZM17.8425 301.496C20.3266 298.485 22.7123 296.189 24.9895 294.553L21.9418 290.312C19.2058 292.279 16.5001 294.918 13.8144 298.173L17.8425 301.496ZM24.914 294.605C27.3249 292.998 29.922 291.68 32.7104 290.653L30.9051 285.753C27.7405 286.918 24.7762 288.421 22.0173 290.26L24.914 294.605ZM32.6335 290.68C35.5834 289.696 38.1196 289.079 40.26 288.793L39.5699 283.617C37.0104 283.958 34.1419 284.672 30.9821 285.726L32.6335 290.68ZM40.26 288.793C42.4892 288.496 44.8019 288.346 47.1996 288.346L47.1996 283.124C44.5842 283.124 42.0405 283.288 39.5699 283.617L40.26 288.793ZM47.1996 288.346L50.7245 288.346L50.7245 283.124L47.1996 283.124L47.1996 288.346ZM50.7245 288.346C53.2048 288.346 55.5128 288.497 57.6524 288.792L58.3659 283.619C55.9624 283.287 53.414 283.124 50.7245 283.124L50.7245 288.346ZM57.6641 288.793C59.7991 289.078 62.2904 289.693 65.1537 290.673L66.844 285.732C63.7542 284.675 60.9191 283.959 58.3543 283.617L57.6641 288.793ZM65.1167 290.66C67.9743 291.686 70.5522 292.996 72.8618 294.584L75.8202 290.281C73.1166 288.422 70.1331 286.913 66.881 285.745L65.1167 290.66ZM72.8171 294.553C75.0828 296.181 77.422 298.466 79.8218 301.466L83.8995 298.204C81.2862 294.937 78.6123 292.287 75.8649 290.312L72.8171 294.553ZM79.8218 301.466C82.1581 304.386 84.1535 307.811 85.7939 311.763L90.6169 309.761C88.8108 305.409 86.5764 301.55 83.8995 298.204L79.8218 301.466ZM85.7874 311.747C87.414 315.739 88.7426 320.783 89.7405 326.925L94.8949 326.087C93.8563 319.696 92.4434 314.244 90.6234 309.777L85.7874 311.747ZM89.7458 326.956C90.812 333.049 91.3517 339.827 91.3517 347.303L96.5737 347.303C96.5737 339.582 96.0167 332.496 94.8896 326.056L89.7458 326.956ZM48.2571 387.747L49.902 387.747L49.902 382.525L48.2571 382.525L48.2571 387.747ZM49.902 387.747C52.3147 387.747 54.6286 387.445 56.8333 386.828L55.4253 381.799C53.7134 382.279 51.8759 382.525 49.902 382.525L49.902 387.747ZM56.8333 386.828C59.1733 386.173 61.4941 384.942 63.7931 383.239L60.6849 379.043C58.7541 380.473 57.0017 381.358 55.4252 381.799L56.8333 386.828ZM63.7931 383.239C66.2155 381.445 68.2425 379.137 69.8889 376.364L65.3987 373.698C64.0685 375.939 62.4923 377.704 60.6849 379.043L63.7931 383.239ZM69.8889 376.364C71.5734 373.527 72.8648 369.822 73.8371 365.366L68.7351 364.253C67.8275 368.413 66.6906 371.522 65.3987 373.698L69.8889 376.364ZM73.8271 365.41C74.9031 360.858 75.4246 355.635 75.4246 349.77L70.2026 349.77C70.2026 355.341 69.7057 360.145 68.7451 364.209L73.8271 365.41ZM75.4246 349.77C75.4246 337.783 73.4983 328.342 69.277 321.826C64.9291 315.115 58.3323 311.793 49.902 311.793L49.902 317.015C56.7461 317.015 61.605 319.588 64.8943 324.665C68.3102 329.938 70.2026 338.18 70.2026 349.77L75.4246 349.77ZM49.902 311.793L48.4921 311.793L48.4921 317.015L49.902 317.015L49.902 311.793ZM48.4921 311.793C45.376 311.793 42.4008 312.314 39.5856 313.369L41.4192 318.259C43.6172 317.434 45.9684 317.015 48.4921 317.015L48.4921 311.793ZM39.5197 313.395C36.648 314.562 33.8769 316.449 31.197 318.961L34.7685 322.771C37.1016 320.584 39.3437 319.103 41.4851 318.233L39.5197 313.395ZM31.197 318.961C28.2283 321.744 26.0502 325.868 24.4907 331.039L29.4903 332.547C30.9073 327.848 32.724 324.688 34.7685 322.771L31.197 318.961ZM24.4907 331.039C22.9072 336.29 22.1471 342.552 22.1471 349.77L27.3691 349.77C27.3691 342.889 28.0972 337.166 29.4903 332.547L24.4907 331.039ZM22.1471 349.77C22.1471 356.902 22.8665 363.076 24.3655 368.24L29.3804 366.784C28.0596 362.234 27.3691 356.581 27.3691 349.77L22.1471 349.77ZM24.3732 368.266C25.9285 373.423 28.0538 377.555 30.9015 380.403L34.594 376.71C32.5852 374.701 30.794 371.47 29.3728 366.758L24.3732 368.266ZM30.931 380.432C33.6205 383.037 36.4228 384.955 39.3506 386.053L41.1842 381.164C39.0989 380.382 36.8881 378.932 34.5645 376.681L30.931 380.432ZM39.2847 386.028C42.1165 387.178 45.1148 387.747 48.2571 387.747L48.2571 382.525C45.7596 382.525 43.4314 382.076 41.2501 381.19L39.2847 386.028ZM5.72387 459.223L8.26904 459.806L8.26904 459.806L5.72387 459.223ZM11.1286 444.184L8.88973 442.84L8.88973 442.84L11.1286 444.184ZM18.7658 435.724L17.3175 433.552L17.2852 433.573L17.2535 433.596L18.7658 435.724ZM26.9905 431.729L26.4154 429.182L26.3766 429.191L26.338 429.201L26.9905 431.729ZM36.0376 430.907L38.6486 430.907L38.6486 428.296L36.0376 428.296L36.0376 430.907ZM36.0376 459.458L36.2142 462.063L38.6486 461.898L38.6486 459.458L36.0376 459.458ZM22.8781 500.699L20.2891 501.037L20.2927 501.064L20.2969 501.092L22.8781 500.699ZM25.1106 508.571L27.3775 507.276L27.3775 507.276L25.1106 508.571ZM27.9304 511.861L26.6148 514.116L26.6533 514.139L26.6926 514.16L27.9304 511.861ZM35.9201 511.273L34.2209 509.291L34.2209 509.291L35.9201 511.273ZM38.74 504.694L36.2069 504.06L36.2001 504.088L36.1939 504.115L38.74 504.694ZM40.2674 489.772L42.8777 489.835L42.8777 489.833L40.2674 489.772ZM40.6199 474.732L38.0099 474.661L38.0096 474.671L40.6199 474.732ZM75.046 433.139L74.2957 435.64L74.3068 435.643L74.318 435.647L75.046 433.139ZM82.2131 437.369L80.4665 439.31L80.4823 439.324L80.4983 439.338L82.2131 437.369ZM88.3229 445.594L90.6793 444.469L90.6742 444.458L90.6691 444.448L88.3229 445.594ZM92.3177 459.458L89.7461 459.91L89.7491 459.927L89.7522 459.943L92.3177 459.458ZM88.0879 523.493L85.7324 522.366L85.7277 522.376L85.7231 522.386L88.0879 523.493ZM81.7432 532.423L79.9898 530.488L79.9735 530.503L79.9574 530.518L81.7432 532.423ZM74.2235 537.24L73.3747 534.771L73.3625 534.775L73.3503 534.779L74.2235 537.24ZM65.1764 538.532L62.5654 538.532L62.5654 541.143L65.1764 541.143L65.1764 538.532ZM65.1764 510.098L64.7471 507.523L62.5654 507.887L62.5654 510.098L65.1764 510.098ZM67.5263 509.393L66.7006 506.916L66.5246 506.975L66.3586 507.058L67.5263 509.393ZM70.2287 507.514L68.452 505.6L68.452 505.6L70.2287 507.514ZM72.931 503.519L70.5312 502.49L70.5311 502.49L72.931 503.519ZM74.811 496.117L72.2372 495.677L72.2355 495.687L74.811 496.117ZM74.341 467.8L71.7922 468.367L71.7981 468.393L71.8047 468.42L74.341 467.8ZM71.7561 461.338L73.4276 459.332L73.4186 459.325L73.4095 459.317L71.7561 461.338ZM64.4714 461.455L62.7999 459.45L62.7525 459.489L62.7071 459.531L64.4714 461.455ZM61.8865 467.33L59.3573 466.682L59.3554 466.689L59.3535 466.697L61.8865 467.33ZM60.5941 480.49L63.2047 480.531L63.2048 480.526L60.5941 480.49ZM60.3591 495.177L62.9696 495.227L62.9697 495.218L60.3591 495.177ZM53.6619 530.425L51.3994 529.122L51.3911 529.136L51.3829 529.151L53.6619 530.425ZM24.0531 540.295L23.3462 542.808L23.3561 542.811L23.3661 542.814L24.0531 540.295ZM16.2984 535.947L14.6386 537.963L14.6386 537.963L16.2984 535.947ZM9.6012 527.135L11.9464 525.988L11.9415 525.978L11.9366 525.968L9.6012 527.135ZM5.13639 512.213L2.56448 512.663L2.5667 512.676L2.56904 512.689L5.13639 512.213ZM6.10246 490.124L6.10246 482.017L0.880463 482.017L0.880463 490.124L6.10246 490.124ZM6.10246 482.017C6.10247 473.463 6.83539 466.068 8.26904 459.806L3.17871 458.64C1.63581 465.38 0.880464 473.182 0.880463 482.017L6.10246 482.017ZM8.26904 459.806C9.72912 453.427 11.4545 448.716 13.3676 445.527L8.88973 442.84C6.57301 446.702 4.69516 452.016 3.17871 458.64L8.26904 459.806ZM13.3676 445.527C15.3204 442.272 17.6302 439.734 20.2781 437.853L17.2535 433.596C13.9483 435.944 11.1667 439.045 8.88973 442.84L13.3676 445.527ZM20.2141 437.897C23.128 435.954 25.5967 434.785 27.6429 434.257L26.338 429.201C23.5278 429.926 20.5134 431.421 17.3175 433.552L20.2141 437.897ZM27.5656 434.276C29.7872 433.774 32.1778 433.518 34.7452 433.518L34.7452 428.296C31.8294 428.296 29.0503 428.587 26.4154 429.182L27.5656 434.276ZM34.7452 433.518L36.0376 433.518L36.0376 428.296L34.7452 428.296L34.7452 433.518ZM33.4266 430.907L33.4266 459.458L38.6486 459.458L38.6486 430.907L33.4266 430.907ZM35.861 456.853C30.2785 457.232 26.0407 460.124 23.336 465.19C20.7279 470.075 19.5622 476.916 19.5622 485.424L24.7842 485.424C24.7842 477.249 25.9291 471.42 27.9425 467.649C29.8593 464.06 32.5537 462.311 36.2142 462.063L35.861 456.853ZM19.5622 485.424L19.5622 487.069L24.7842 487.069L24.7842 485.424L19.5622 485.424ZM19.5622 487.069C19.5622 492.615 19.7992 497.28 20.2891 501.037L25.4672 500.361C25.0172 496.911 24.7842 492.49 24.7842 487.069L19.5622 487.069ZM20.2969 501.092C20.8573 504.774 21.6573 507.79 22.8436 509.866L27.3775 507.276C26.6839 506.062 25.9956 503.83 25.4594 500.306L20.2969 501.092ZM22.8436 509.866C23.8643 511.653 25.0844 513.223 26.6148 514.116L29.246 509.606C28.8965 509.402 28.2367 508.779 27.3775 507.276L22.8436 509.866ZM26.6926 514.16C28.1454 514.942 29.7575 515.294 31.4553 515.294L31.4553 510.072C30.4898 510.072 29.7521 509.876 29.1683 509.562L26.6926 514.16ZM31.4553 515.294C33.767 515.294 35.922 514.711 37.6193 513.256L34.2209 509.291C33.725 509.716 32.9034 510.072 31.4553 510.072L31.4553 515.294ZM37.6193 513.256C38.6071 512.409 39.3103 511.205 39.8474 509.952C40.4016 508.659 40.8744 507.084 41.2861 505.272L36.1939 504.115C35.8223 505.75 35.4335 506.995 35.0476 507.895C34.6448 508.835 34.3297 509.198 34.2209 509.291L37.6193 513.256ZM41.273 505.327C42.2049 501.599 42.7195 496.398 42.8777 489.835L37.6572 489.709C37.502 496.149 36.9983 500.895 36.2069 504.06L41.273 505.327ZM42.8777 489.833L43.2302 474.794L38.0096 474.671L37.6571 489.711L42.8777 489.833ZM43.2299 474.804C43.6169 460.756 45.9225 450.627 49.8492 444.089C53.6566 437.749 59.0242 434.693 66.2338 434.693L66.2338 429.471C57.1508 429.471 50.1031 433.523 45.3725 441.4C40.7613 449.078 38.4062 460.275 38.0099 474.661L43.2299 474.804ZM66.2338 434.693L67.2913 434.693L67.2913 429.471L66.2338 429.471L66.2338 434.693ZM67.2913 434.693C69.8942 434.693 72.2224 435.018 74.2957 435.64L75.7962 430.638C73.1697 429.85 70.3281 429.471 67.2913 429.471L67.2913 434.693ZM74.318 435.647C76.2858 436.218 78.3377 437.394 80.4665 439.31L83.9598 435.428C81.3888 433.114 78.6626 431.47 75.7739 430.632L74.318 435.647ZM80.4983 439.338C82.6236 441.189 84.4602 443.634 85.9767 446.739L90.6691 444.448C88.8957 440.817 86.6592 437.779 83.928 435.4L80.4983 439.338ZM85.9665 446.718C87.4702 449.869 88.7492 454.235 89.7461 459.91L94.8893 459.006C93.8497 453.088 92.4654 448.211 90.6793 444.469L85.9665 446.718ZM89.7522 459.943C90.8111 465.54 91.3517 472.108 91.3517 479.667L96.5737 479.667C96.5737 471.874 96.0176 464.969 94.8832 458.973L89.7522 459.943ZM91.3517 479.667L91.3517 487.774L96.5737 487.774L96.5737 479.667L91.3517 479.667ZM91.3517 487.774C91.3517 495.651 90.8106 502.541 89.7478 508.462L94.8877 509.385C96.0181 503.087 96.5737 495.877 96.5737 487.774L91.3517 487.774ZM89.7478 508.462C88.6724 514.454 87.3151 519.057 85.7324 522.366L90.4434 524.619C92.3072 520.722 93.7698 515.613 94.8877 509.385L89.7478 508.462ZM85.7231 522.386C84.1178 525.816 82.1935 528.491 79.9898 530.488L83.4965 534.357C86.306 531.811 88.6115 528.533 90.4527 524.6L85.7231 522.386ZM79.9574 530.518C77.6434 532.687 75.4456 534.059 73.3747 534.771L75.0723 539.709C78.0145 538.698 80.8298 536.858 83.5289 534.327L79.9574 530.518ZM73.3503 534.779C71.2277 535.532 68.9017 535.921 66.3513 535.921L66.3513 541.143C69.4406 541.143 72.3628 540.671 75.0966 539.7L73.3503 534.779ZM66.3513 535.921L65.1764 535.921L65.1764 541.143L66.3513 541.143L66.3513 535.921ZM67.7874 538.532L67.7874 510.098L62.5654 510.098L62.5654 538.532L67.7874 538.532ZM65.6056 512.674C66.7166 512.489 67.7678 512.192 68.6939 511.729L66.3586 507.058C66.0315 507.222 65.5161 507.395 64.7471 507.523L65.6056 512.674ZM68.3519 511.87C69.6148 511.45 70.8571 510.493 72.0053 509.427L68.452 505.6C67.4069 506.571 66.8476 506.867 66.7006 506.916L68.3519 511.87ZM72.0053 509.427C73.4163 508.117 74.51 506.463 75.3309 504.547L70.5311 502.49C69.9422 503.864 69.2343 504.874 68.452 505.6L72.0053 509.427ZM75.3309 504.547C76.1608 502.611 76.8279 499.897 77.3864 496.546L72.2355 495.687C71.6974 498.916 71.1112 501.137 70.5312 502.49L75.3309 504.547ZM77.3847 496.556C77.9642 493.162 78.2444 489.248 78.2444 484.837L73.0224 484.837C73.0224 489.042 72.7543 492.648 72.2372 495.677L77.3847 496.556ZM78.2444 484.837L78.2444 482.957L73.0224 482.957L73.0224 484.837L78.2444 484.837ZM78.2444 482.957C78.2444 476.308 77.8133 471.009 76.8773 467.18L71.8047 468.42C72.5919 471.641 73.0224 476.447 73.0224 482.957L78.2444 482.957ZM76.8898 467.234C76.4824 465.401 76.0351 463.83 75.5315 462.571C75.0599 461.392 74.4127 460.153 73.4276 459.332L70.0846 463.344C70.0395 463.306 70.2931 463.536 70.683 464.511C71.0411 465.406 71.4163 466.675 71.7922 468.367L76.8898 467.234ZM73.4095 459.317C71.9235 458.101 70.0414 457.67 68.1137 457.67L68.1137 462.892C69.3192 462.892 69.8654 463.165 70.1027 463.359L73.4095 459.317ZM68.1137 457.67C66.1518 457.67 64.3046 458.196 62.7999 459.45L66.1429 463.461C66.5181 463.149 67.0991 462.892 68.1137 462.892L68.1137 457.67ZM62.7071 459.531C61.8486 460.318 61.2211 461.403 60.7303 462.519C60.2222 463.674 59.7694 465.075 59.3573 466.682L64.4157 467.979C64.7869 466.531 65.1566 465.425 65.5101 464.622C65.8809 463.779 66.1542 463.455 66.2357 463.38L62.7071 459.531ZM59.3535 466.697C58.4982 470.118 58.0627 474.738 57.9833 480.453L63.2048 480.526C63.2821 474.962 63.7082 470.809 64.4196 467.964L59.3535 466.697ZM57.9834 480.448L57.7484 495.135L62.9697 495.218L63.2047 480.531L57.9834 480.448ZM57.7486 495.126C57.437 511.326 55.2061 522.514 51.3994 529.122L55.9243 531.728C60.4206 523.924 62.6545 511.613 62.9696 495.227L57.7486 495.126ZM51.3829 529.151C47.7997 535.559 42.2797 538.741 34.3927 538.741L34.3927 543.963C44.0515 543.963 51.3777 539.86 55.9408 531.699L51.3829 529.151ZM34.3927 538.741L32.7477 538.741L32.7477 543.963L34.3927 543.963L34.3927 538.741ZM32.7477 538.741C29.7239 538.741 27.0619 538.409 24.7401 537.776L23.3661 542.814C26.214 543.59 29.3485 543.963 32.7477 543.963L32.7477 538.741ZM24.76 537.781C22.6958 537.201 20.4282 535.966 17.9583 533.932L14.6386 537.963C17.4951 540.315 20.3972 541.979 23.3462 542.808L24.76 537.781ZM17.9583 533.932C15.6318 532.016 13.6146 529.396 11.9464 525.988L7.25596 528.283C9.19104 532.237 11.6386 535.492 14.6386 537.963L17.9583 533.932ZM11.9366 525.968C10.2897 522.674 8.85747 517.968 7.70374 511.738L2.56904 512.689C3.76521 519.148 5.30951 524.39 7.26585 528.303L11.9366 525.968ZM7.70831 511.763C6.64458 505.685 6.10246 498.479 6.10246 490.124L0.880463 490.124C0.880463 498.689 1.43497 506.209 2.56448 512.663L7.70831 511.763ZM5.01889 593.988L5.0189 591.377L2.40789 591.377L2.40789 593.988L5.01889 593.988ZM71.7561 593.988L71.7561 596.599L74.3671 596.599L74.3671 593.988L71.7561 593.988ZM71.7561 556.39L71.7561 553.779L69.1451 553.779L69.1451 556.39L71.7561 556.39ZM92.4352 556.39L95.0462 556.39L95.0462 553.779L92.4352 553.779L92.4352 556.39ZM92.4352 659.315L92.4352 661.926L95.0462 661.926L95.0462 659.315L92.4352 659.315ZM71.7561 659.315L69.1451 659.315L69.1451 661.926L71.7561 661.926L71.7561 659.315ZM71.7561 621.599L74.3671 621.599L74.3671 618.988L71.7561 618.988L71.7561 621.599ZM5.01889 621.599L2.40789 621.599L2.40789 624.21L5.01889 624.21L5.01889 621.599ZM5.01889 596.599L71.7561 596.599L71.7561 591.377L5.0189 591.377L5.01889 596.599ZM74.3671 593.988L74.3671 556.39L69.1451 556.39L69.1451 593.988L74.3671 593.988ZM71.7561 559.001L92.4352 559.001L92.4352 553.779L71.7561 553.779L71.7561 559.001ZM89.8242 556.39L89.8242 659.315L95.0462 659.315L95.0462 556.39L89.8242 556.39ZM92.4352 656.704L71.7561 656.704L71.7561 661.926L92.4352 661.926L92.4352 656.704ZM74.3671 659.315L74.3671 621.599L69.1451 621.599L69.1451 659.315L74.3671 659.315ZM71.7561 618.988L5.01889 618.988L5.01889 624.21L71.7561 624.21L71.7561 618.988ZM7.62989 621.599L7.6299 593.988L2.40789 593.988L2.40789 621.599L7.62989 621.599Z" fill="#F14251"/>
</svg>
