<svg width="36" height="65" viewBox="0 0 36 65" fill="none" xmlns="http://www.w3.org/2000/svg">
<path fill-rule="evenodd" clip-rule="evenodd" d="M14.9578 0C12.6832 8.4565 9.63777 24.4144 17.3122 27.6382C22.4288 29.7876 23.4333 23.9053 20.3265 9.99184C25.4243 17.3133 27.6158 24.3754 26.9011 31.1782C27.8487 31.7211 28.7437 32.349 29.5748 33.0512C30.798 32.3138 31.4094 30.901 31.4094 28.8149C32.7331 31.2424 33.0577 33.6461 32.3829 36.0259C34.653 39.0531 36 42.8222 36 46.9074C36 56.8997 27.9411 65 18 65C8.05888 65 0 56.8997 0 46.9074C0 44.0276 0.669411 41.305 1.86044 38.888C0.689685 36.1612 1.00061 32.4107 2.79398 27.6382C2.79398 31.9353 3.60228 32.9691 4.55684 33.5771C4.82571 33.7482 5.14629 33.8472 5.51861 33.8738C6.06013 33.3471 6.63309 32.8579 7.23524 32.4056C6.29053 19.9418 8.86434 9.13938 14.9578 0ZM18 38.3374C13.291 38.3374 9.47368 42.1743 9.47368 46.9074C9.47368 50.5931 11.7883 53.7353 15.0363 54.9456C15.3493 51.9813 16.5763 49.9449 18.7181 48.833C18.7181 51.2085 18.4089 53.6261 20.0257 55.2334C23.7587 54.3182 26.5263 50.9376 26.5263 46.9074C26.5263 42.1743 22.709 38.3374 18 38.3374Z" fill="rgb(255,70,86)"/>
</svg>
