<svg width="57" height="55" viewBox="0 0 57 55" fill="none" xmlns="http://www.w3.org/2000/svg">
<path fill-rule="evenodd" clip-rule="evenodd" d="M11.6156 36.6667C15.8733 43.5152 20.6632 46.9393 25.9853 46.9393V55L24.3886 49.3575C19.5988 48.5515 14.0104 46.9393 9.22059 38.0727L11.6156 36.6667ZM45.3844 36.6667L47.7794 38.0727C42.9896 46.9393 37.4012 48.5515 32.6114 49.3575L31.0147 55V46.9393C36.3368 46.9393 41.1267 43.5152 45.3844 36.6667ZM28.5 5L35.2059 18.3333H31.8529L28.5 40L25.1471 18.3333H21.7941L28.5 5ZM21.7941 20L23.4706 28.3333H11.7353L17.2512 29.933C10.1287 32.0512 4.37827 34.8512 0 38.3333C2.56106 34.7688 5.47418 31.5543 8.73944 28.69L1.67647 21.6667L3.12528 22.3868C6.64385 24.1358 9.38622 25.499 11.3524 26.4763L11.3951 26.4977C14.5645 24.0365 18.0308 21.8707 21.7941 20ZM35.2059 20C44.147 24.4445 51.4118 30.5555 57 38.3333C52.6217 34.8512 46.8713 32.0512 39.7488 29.933L45.2647 28.3333H33.5294L35.2059 20ZM23.4706 0V10L18.4412 18.3333H13.4118L18.4412 10L23.4706 0ZM33.5294 0L38.5588 10L43.5882 18.3333H38.5588L33.5294 10V0Z" fill="rgb(255,70,86)"/>
</svg>
