<svg width="1176" height="232" viewBox="0 0 1176 232" fill="none" xmlns="http://www.w3.org/2000/svg">
<g clip-path="url(#clip0)">
<path d="M254.4 2.79981L256.4 2.79981L256.4 0.799809L254.4 0.799809L254.4 2.79981ZM184.2 2.79981L184.2 0.799812L182.2 0.799812L182.2 2.79981L184.2 2.79981ZM72.9 130.9L74.8918 130.719L74.7264 128.9L72.9 128.9L72.9 130.9ZM2.09997 130.9L2.09997 128.9L0.0999713 128.9L0.0999713 130.9L2.09997 130.9ZM137.4 231.3C185.428 231.3 215.302 215.442 233.117 193.433C250.868 171.503 256.4 143.768 256.4 120.4L252.4 120.4C252.4 143.231 246.982 169.946 230.008 190.916C213.098 211.807 184.472 227.3 137.4 227.3L137.4 231.3ZM256.4 120.4L256.4 2.79981L252.4 2.79981L252.4 120.4L256.4 120.4ZM254.4 0.799809L184.2 0.799812L184.2 4.79981L254.4 4.79981L254.4 0.799809ZM182.2 2.79981L182.2 118.6L186.2 118.6L186.2 2.79981L182.2 2.79981ZM182.2 118.6C182.2 135.247 178.074 148.488 169.717 157.557C161.386 166.597 148.563 171.8 130.5 171.8L130.5 175.8C149.337 175.8 163.364 170.353 172.658 160.268C181.925 150.212 186.2 135.853 186.2 118.6L182.2 118.6ZM130.5 171.8L126.9 171.8L126.9 175.8L130.5 175.8L130.5 171.8ZM126.9 171.8C103.261 171.8 90.616 163.757 83.7061 154.838C76.7148 145.813 75.3322 135.563 74.8918 130.719L70.9082 131.081C71.3678 136.137 72.8352 147.337 80.5439 157.287C88.334 167.343 102.239 175.8 126.9 175.8L126.9 171.8ZM72.9 128.9L2.09997 128.9L2.09997 132.9L72.9 132.9L72.9 128.9ZM0.0999713 130.9L0.0999713 132.7L4.09997 132.7L4.09997 130.9L0.0999713 130.9ZM0.0999713 132.7C0.0999713 154.225 6.5872 178.919 25.0281 198.243C43.4969 217.597 73.7017 231.3 120.6 231.3L120.6 227.3C74.4983 227.3 45.4531 213.853 27.9219 195.482C10.3628 177.081 4.09997 153.475 4.09997 132.7L0.0999713 132.7ZM120.6 231.3L137.4 231.3L137.4 227.3L120.6 227.3L120.6 231.3ZM316.045 2.79981L316.045 0.799806L314.045 0.799806L314.045 2.79981L316.045 2.79981ZM316.045 226L314.045 226L314.045 228L316.045 228L316.045 226ZM554.245 226L554.245 228L556.245 228L556.245 226L554.245 226ZM554.245 174.1L556.245 174.1L556.245 172.1L554.245 172.1L554.245 174.1ZM385.045 174.1L383.045 174.1L383.045 176.1L385.045 176.1L385.045 174.1ZM385.045 137.5L385.045 135.5L383.045 135.5L383.045 137.5L385.045 137.5ZM547.345 137.5L547.345 139.5L549.345 139.5L549.345 137.5L547.345 137.5ZM547.345 86.4998L549.345 86.4998L549.345 84.4998L547.345 84.4998L547.345 86.4998ZM385.045 86.4998L383.045 86.4998L383.045 88.4998L385.045 88.4998L385.045 86.4998ZM385.045 53.4998L385.045 51.4998L383.045 51.4998L383.045 53.4998L385.045 53.4998ZM551.245 53.4998L551.245 55.4998L553.245 55.4998L553.245 53.4998L551.245 53.4998ZM551.245 2.7998L553.245 2.7998L553.245 0.799796L551.245 0.799796L551.245 2.7998ZM314.045 2.79981L314.045 226L318.045 226L318.045 2.79981L314.045 2.79981ZM316.045 228L554.245 228L554.245 224L316.045 224L316.045 228ZM556.245 226L556.245 174.1L552.245 174.1L552.245 226L556.245 226ZM554.245 172.1L385.045 172.1L385.045 176.1L554.245 176.1L554.245 172.1ZM387.045 174.1L387.045 137.5L383.045 137.5L383.045 174.1L387.045 174.1ZM385.045 139.5L547.345 139.5L547.345 135.5L385.045 135.5L385.045 139.5ZM549.345 137.5L549.345 86.4998L545.345 86.4998L545.345 137.5L549.345 137.5ZM547.345 84.4998L385.045 84.4998L385.045 88.4998L547.345 88.4998L547.345 84.4998ZM387.045 86.4998L387.045 53.4998L383.045 53.4998L383.045 86.4998L387.045 86.4998ZM385.045 55.4998L551.245 55.4998L551.245 51.4998L385.045 51.4998L385.045 55.4998ZM553.245 53.4998L553.245 2.7998L549.245 2.7998L549.245 53.4998L553.245 53.4998ZM551.245 0.799796L316.045 0.799806L316.045 4.79981L551.245 4.7998L551.245 0.799796ZM697.603 226L695.603 226L695.603 228L697.603 228L697.603 226ZM768.103 226L768.103 228L770.103 228L770.103 226L768.103 226ZM768.103 55.5998L768.103 53.5998L766.103 53.5998L766.103 55.5998L768.103 55.5998ZM864.403 55.5998L864.403 57.5998L866.403 57.5998L866.403 55.5998L864.403 55.5998ZM864.403 2.79978L866.403 2.79978L866.403 0.799782L864.403 0.799782L864.403 2.79978ZM601.603 2.79979L601.603 0.799794L599.603 0.799794L599.603 2.79979L601.603 2.79979ZM601.603 55.5998L599.603 55.5998L599.603 57.5998L601.603 57.5998L601.603 55.5998ZM697.603 55.5998L699.603 55.5998L699.603 53.5998L697.603 53.5998L697.603 55.5998ZM697.603 228L768.103 228L768.103 224L697.603 224L697.603 228ZM770.103 226L770.103 55.5998L766.103 55.5998L766.103 226L770.103 226ZM768.103 57.5998L864.403 57.5998L864.403 53.5998L768.103 53.5998L768.103 57.5998ZM866.403 55.5998L866.403 2.79978L862.403 2.79978L862.403 55.5998L866.403 55.5998ZM864.403 0.799782L601.603 0.799794L601.603 4.79979L864.403 4.79978L864.403 0.799782ZM599.603 2.79979L599.603 55.5998L603.603 55.5998L603.603 2.79979L599.603 2.79979ZM601.603 57.5998L697.603 57.5998L697.603 53.5998L601.603 53.5998L601.603 57.5998ZM695.603 55.5998L695.603 226L699.603 226L699.603 55.5998L695.603 55.5998ZM1007.1 226L1005.1 226L1005.1 228L1007.1 228L1007.1 226ZM1077.6 226L1077.6 228L1079.6 228L1079.6 226L1077.6 226ZM1077.6 55.5998L1077.6 53.5998L1075.6 53.5998L1075.6 55.5998L1077.6 55.5998ZM1173.9 55.5998L1173.9 57.5998L1175.9 57.5998L1175.9 55.5998L1173.9 55.5998ZM1173.9 2.79977L1175.9 2.79977L1175.9 0.799769L1173.9 0.799769L1173.9 2.79977ZM911.095 2.79978L911.095 0.79978L909.095 0.79978L909.095 2.79978L911.095 2.79978ZM911.095 55.5998L909.095 55.5998L909.095 57.5998L911.095 57.5998L911.095 55.5998ZM1007.1 55.5998L1009.1 55.5998L1009.1 53.5998L1007.1 53.5998L1007.1 55.5998ZM1007.1 228L1077.6 228L1077.6 224L1007.1 224L1007.1 228ZM1079.6 226L1079.6 55.5998L1075.6 55.5998L1075.6 226L1079.6 226ZM1077.6 57.5998L1173.9 57.5998L1173.9 53.5998L1077.6 53.5998L1077.6 57.5998ZM1175.9 55.5998L1175.9 2.79977L1171.9 2.79977L1171.9 55.5998L1175.9 55.5998ZM1173.9 0.799769L911.095 0.79978L911.095 4.79978L1173.9 4.79977L1173.9 0.799769ZM909.095 2.79978L909.095 55.5998L913.095 55.5998L913.095 2.79978L909.095 2.79978ZM911.095 57.5998L1007.1 57.5998L1007.1 53.5998L911.095 53.5998L911.095 57.5998ZM1005.1 55.5998L1005.1 226L1009.1 226L1009.1 55.5998L1005.1 55.5998Z" fill="white"/>
</g>
<defs>
<clipPath id="clip0">
<rect width="232" height="1176" fill="white" transform="translate(0 232) rotate(-90)"/>
</clipPath>
</defs>
</svg>
