<svg width="98" height="651" viewBox="0 0 98 651" fill="none" xmlns="http://www.w3.org/2000/svg">
<path d="M6.00615 31.5702L3.46351 30.8437L3.46084 30.8532L6.00615 31.5702ZM12.194 18.0045L10.0962 16.3946L10.0754 16.4216L10.0554 16.4492L12.194 18.0045ZM21.2377 9.55578L22.6807 11.7718L22.6807 11.7718L21.2377 9.55578ZM31.4714 4.91492L32.1268 7.47679L32.1268 7.47679L31.4714 4.91492ZM42.6571 3.60595L45.3015 3.60595L45.3015 0.961583L42.6571 0.961583L42.6571 3.60595ZM42.6571 31.6892L42.833 34.3277L45.3015 34.1631L45.3015 31.6892L42.6571 31.6892ZM39.3252 32.1651L38.7306 29.5885L38.7306 29.5885L39.3252 32.1651ZM35.0413 33.8311L33.9004 31.4455L33.8589 31.4654L33.8181 31.4866L35.0413 33.8311ZM30.4005 37.282L28.4748 35.4697L28.449 35.4971L28.424 35.5252L30.4005 37.282ZM27.0686 43.4698L24.5749 42.5897L24.571 42.6009L24.5671 42.6122L27.0686 43.4698ZM31.3524 70.4821L33.1411 68.5344L33.1393 68.5328L31.3524 70.4821ZM93.4687 75.8369L96.1131 75.8369L96.1131 73.1926L93.4687 73.1926L93.4687 75.8369ZM93.4687 103.682L93.4687 106.327L96.1131 106.327L96.1131 103.682L93.4687 103.682ZM35.2793 102.492L35.8296 99.9057L35.8032 99.9001L35.7767 99.895L35.2793 102.492ZM23.7366 98.2083L24.9931 95.8815L24.9931 95.8815L23.7366 98.2083ZM13.5029 89.9975L15.5107 88.2766L15.5107 88.2766L13.5029 89.9975ZM6.36314 76.5509L3.84747 77.3658L3.85264 77.3818L3.85802 77.3977L6.36314 76.5509ZM6.27058 57.2734L6.27059 50.6096L0.981845 50.6096L0.981845 57.2734L6.27058 57.2734ZM6.27059 50.6096C6.27059 43.7434 7.04246 37.6441 8.55146 32.2872L3.46084 30.8532C1.79659 36.7612 0.981846 43.3549 0.981845 50.6096L6.27059 50.6096ZM8.54877 32.2966C10.0773 26.9468 12.0262 22.7312 14.3326 19.5599L10.0554 16.4492C7.28459 20.259 5.10824 25.0872 3.46352 30.8437L8.54877 32.2966ZM14.2918 19.6145C16.7377 16.4274 19.5343 13.8205 22.6807 11.7718L19.7948 7.33981C16.1186 9.73357 12.8861 12.7592 10.0962 16.3946L14.2918 19.6145ZM22.6807 11.7718C25.8871 9.68389 29.035 8.26771 32.1268 7.47679L30.8161 2.35304C27.0854 3.30741 23.4109 4.98514 19.7948 7.33981L22.6807 11.7718ZM32.1268 7.47679C35.3209 6.65969 38.5912 6.25032 41.9431 6.25032L41.9431 0.961583C38.1553 0.961583 34.4444 1.42486 30.8161 2.35304L32.1268 7.47679ZM41.9431 6.25032L42.6571 6.25032L42.6571 0.961583L41.9431 0.961583L41.9431 6.25032ZM40.0127 3.60595L40.0127 31.6892L45.3015 31.6892L45.3015 3.60595L40.0127 3.60595ZM42.4812 29.0507C41.1676 29.1382 39.9156 29.315 38.7306 29.5885L39.9198 34.7418C40.7974 34.5393 41.7667 34.3988 42.833 34.3277L42.4812 29.0507ZM38.7306 29.5885C37.4104 29.8932 35.7722 30.5503 33.9004 31.4455L36.1823 36.2167C37.9597 35.3666 39.1775 34.9131 39.9198 34.7418L38.7306 29.5885ZM33.8181 31.4866C31.7602 32.5603 29.9681 33.883 28.4748 35.4697L32.3261 39.0944C33.3714 37.9837 34.6732 37.0058 36.2645 36.1756L33.8181 31.4866ZM28.424 35.5252C26.8433 37.3035 25.5896 39.7148 24.5749 42.5897L29.5622 44.3499C30.4515 41.8303 31.419 40.1165 32.3769 39.0388L28.424 35.5252ZM24.5671 42.6122C23.5007 45.7226 22.9962 49.2356 22.9962 53.1086L28.285 53.1086C28.285 49.683 28.7325 46.7702 29.57 44.3275L24.5671 42.6122ZM22.9962 53.1086L22.9962 54.5365L28.285 54.5365L28.285 53.1086L22.9962 53.1086ZM22.9962 54.5365C22.9962 62.1247 25.0274 68.2714 29.5656 72.4314L33.1393 68.5328C30.0617 65.7116 28.285 61.228 28.285 54.5365L22.9962 54.5365ZM29.5638 72.4297C34.0738 76.5716 40.1811 78.4813 47.536 78.4813L47.536 73.1926C41.0873 73.1926 36.4055 71.5323 33.1411 68.5344L29.5638 72.4297ZM47.536 78.4813L93.4687 78.4813L93.4687 73.1926L47.536 73.1926L47.536 78.4813ZM90.8243 75.8369L90.8243 103.682L96.1131 103.682L96.1131 75.8369L90.8243 75.8369ZM93.4687 101.038L46.822 101.038L46.822 106.327L93.4687 106.327L93.4687 101.038ZM46.822 101.038C43.0329 101.038 39.3701 100.659 35.8296 99.9057L34.729 105.079C38.6457 105.912 42.678 106.327 46.822 106.327L46.822 101.038ZM35.7767 99.895C32.3578 99.2403 28.7652 97.9184 24.9931 95.8815L22.4802 100.535C26.6412 102.782 30.7438 104.316 34.782 105.089L35.7767 99.895ZM24.9931 95.8815C21.3041 93.8894 18.1497 91.3554 15.5107 88.2766L11.4952 91.7185C14.568 95.3034 18.2361 98.2433 22.4802 100.535L24.9931 95.8815ZM15.5107 88.2766C12.938 85.2751 10.6999 81.1228 8.86826 75.7041L3.85802 77.3977C5.83423 83.244 8.35603 88.0561 11.4952 91.7185L15.5107 88.2766ZM8.8788 75.736C7.15578 70.4171 6.27058 64.2743 6.27058 57.2734L0.981845 57.2734C0.981845 64.7108 1.92126 71.4197 3.84747 77.3658L8.8788 75.736ZM5.29216 164.19L2.70987 163.62L2.70505 163.642L2.7006 163.664L5.29216 164.19ZM9.93303 150.505L7.57794 149.303L7.57794 149.303L9.93303 150.505ZM16.8348 140.629L14.9123 138.813L14.9123 138.813L16.8348 140.629ZM25.0456 133.846L26.4061 136.113L26.4061 136.113L25.0456 133.846ZM33.9704 129.681L33.153 127.166L33.1248 127.175L33.0968 127.185L33.9704 129.681ZM42.6571 127.539L42.3389 124.914L42.2999 124.919L42.261 124.925L42.6571 127.539ZM93.4687 127.063L96.1131 127.063L96.1131 124.419L93.4687 124.419L93.4687 127.063ZM93.4687 154.908L93.4687 157.553L96.1131 157.553L96.1131 154.908L93.4687 154.908ZM43.2521 156.098L42.5256 153.556L42.4816 153.568L42.4381 153.582L43.2521 156.098ZM35.1603 160.382L33.5938 158.252L33.5786 158.263L33.5635 158.274L35.1603 160.382ZM28.8535 169.426L26.3917 168.46L26.3804 168.489L26.3697 168.518L28.8535 169.426ZM28.8535 198.58L26.3816 199.519L26.3866 199.533L26.3917 199.546L28.8535 198.58ZM35.1603 207.624L36.7667 205.523L36.7571 205.516L35.1603 207.624ZM43.2521 211.908L44.0449 209.385L44.0217 209.378L43.9982 209.371L43.2521 211.908ZM93.4687 213.217L96.1131 213.217L96.1131 210.572L93.4687 210.572L93.4687 213.217ZM93.4687 240.943L93.4687 243.587L96.1131 243.587L96.1131 240.943L93.4687 240.943ZM39.2062 239.634L39.7969 237.056L39.7713 237.051L39.7455 237.045L39.2062 239.634ZM26.8306 234.755L25.5321 237.059L25.541 237.064L25.5498 237.069L26.8306 234.755ZM15.2879 225.354L17.278 223.613L17.278 223.613L15.2879 225.354ZM6.95811 209.528L9.46974 208.7L9.46678 208.692L6.95811 209.528ZM6.27058 186.561L6.27058 182.278L0.98184 182.278L0.981839 186.561L6.27058 186.561ZM6.27058 182.278C6.27058 175.839 6.81378 169.989 7.88373 164.716L2.7006 163.664C1.54928 169.339 0.98184 175.547 0.98184 182.278L6.27058 182.278ZM7.87445 164.76C9.03039 159.519 10.5131 155.184 12.2881 151.708L7.57794 149.303C5.54506 153.284 3.93387 158.072 2.70987 163.62L7.87445 164.76ZM12.2881 151.708C14.0853 148.189 16.2437 145.106 18.7573 142.444L14.9123 138.813C12.0315 141.863 9.58871 145.365 7.57794 149.303L12.2881 151.708ZM18.7573 142.444C21.3227 139.728 23.8751 137.632 26.4061 136.113L23.6851 131.578C20.6629 133.392 17.7415 135.818 14.9123 138.813L18.7573 142.444ZM26.4061 136.113C29.0228 134.543 31.8339 133.23 34.8439 132.177L33.0968 127.185C29.7604 128.353 26.6216 129.816 23.6851 131.578L26.4061 136.113ZM34.7877 132.196C37.8571 131.198 40.6094 130.524 43.0533 130.154L42.261 124.925C39.469 125.348 36.4301 126.101 33.153 127.166L34.7877 132.196ZM42.9753 130.164C45.4884 129.86 48.0001 129.707 50.5109 129.707L50.5109 124.419C47.7858 124.419 45.0617 124.584 42.3389 124.914L42.9753 130.164ZM50.5109 129.707L93.4687 129.707L93.4687 124.419L50.5109 124.419L50.5109 129.707ZM90.8243 127.063L90.8243 154.908L96.1131 154.908L96.1131 127.063L90.8243 127.063ZM93.4687 152.264L52.1768 152.264L52.1768 157.553L93.4687 157.553L93.4687 152.264ZM52.1768 152.264C48.7819 152.264 45.5605 152.689 42.5256 153.556L43.9786 158.641C46.4968 157.921 49.2253 157.553 52.1768 157.553L52.1768 152.264ZM42.4381 153.582C39.4272 154.556 36.4793 156.13 33.5938 158.252L36.7268 162.513C39.2358 160.668 41.6825 159.385 44.0661 158.614L42.4381 153.582ZM33.5635 158.274C30.4513 160.632 28.1 164.104 26.3917 168.46L31.3153 170.391C32.7802 166.656 34.6335 164.099 36.7571 162.49L33.5635 158.274ZM26.3697 168.518C24.7297 173.007 23.9482 178.248 23.9482 184.182L29.2369 184.182C29.2369 178.691 29.9628 174.095 31.3373 170.333L26.3697 168.518ZM23.9482 184.182C23.9482 190.036 24.7297 195.172 26.3816 199.519L31.3254 197.641C29.9627 194.055 29.2369 189.592 29.2369 184.182L23.9482 184.182ZM26.3917 199.546C28.1 203.902 30.4513 207.374 33.5635 209.732L36.7571 205.516C34.6335 203.907 32.7802 201.35 31.3153 197.615L26.3917 199.546ZM33.554 209.724C36.4568 211.944 39.4404 213.543 42.5059 214.445L43.9982 209.371C41.6692 208.686 39.2584 207.429 36.7666 205.523L33.554 209.724ZM42.4592 214.43C45.5145 215.391 48.7588 215.861 52.1768 215.861L52.1768 210.572C49.2484 210.572 46.5429 210.17 44.0449 209.385L42.4592 214.43ZM52.1768 215.861L93.4687 215.861L93.4687 210.572L52.1768 210.572L52.1768 215.861ZM90.8243 213.217L90.8243 240.943L96.1131 240.943L96.1131 213.217L90.8243 213.217ZM93.4687 238.299L50.5109 238.299L50.5109 243.587L93.4687 243.587L93.4687 238.299ZM50.5109 238.299C46.9904 238.299 43.4203 237.887 39.7969 237.056L38.6155 242.212C42.6079 243.126 46.5743 243.587 50.5109 243.587L50.5109 238.299ZM39.7455 237.045C36.2625 236.32 32.3885 234.809 28.1113 232.442L25.5498 237.069C30.1577 239.619 34.5342 241.362 38.6669 242.223L39.7455 237.045ZM28.129 232.451C24.0292 230.141 20.4149 227.198 17.278 223.613L13.2978 227.096C16.8247 231.126 20.9055 234.451 25.5321 237.059L28.129 232.451ZM17.278 223.613C14.2533 220.156 11.6217 215.233 9.46972 208.7L4.44651 210.355C6.7371 217.309 9.65869 222.937 13.2978 227.096L17.278 223.613ZM9.46678 208.692C7.35339 202.351 6.27058 194.987 6.27058 186.561L0.981839 186.561C0.981839 195.43 2.1203 203.377 4.44945 210.364L9.46678 208.692ZM4.93517 265.306L4.93517 262.661L2.2908 262.661L2.2908 265.306L4.93517 265.306ZM93.4687 265.306L96.113 265.306L96.113 262.661L93.4687 262.661L93.4687 265.306ZM86.9239 363.002L84.5419 361.853L84.5335 361.871L84.5254 361.888L86.9239 363.002ZM79.9031 374.426L77.8633 372.743L77.8506 372.758L77.8382 372.774L79.9031 374.426ZM71.2163 381.684L72.4218 384.038L72.4218 384.038L71.2163 381.684ZM61.5776 385.254L60.9971 382.674L60.9588 382.683L60.9208 382.693L61.5776 385.254ZM36.1123 385.016L35.4448 387.575L35.4581 387.578L36.1123 385.016ZM24.6886 379.304L26.2337 377.158L26.2195 377.148L26.2051 377.138L24.6886 379.304ZM14.5739 368.476L12.3315 369.877L12.3315 369.877L14.5739 368.476ZM7.67209 350.388L10.2437 349.772L10.2437 349.772L7.67209 350.388ZM72.5253 293.032L75.1696 293.032L75.1696 290.387L72.5253 290.387L72.5253 293.032ZM26.2356 293.032L26.2356 290.387L23.5912 290.387L23.5912 293.032L26.2356 293.032ZM4.93517 267.95L93.4687 267.95L93.4687 262.661L4.93517 262.661L4.93517 267.95ZM90.8243 265.306L90.8243 323.971L96.113 323.971L96.113 265.306L90.8243 265.306ZM90.8243 323.971C90.8243 332.106 90.2765 339.415 89.1943 345.908L94.4111 346.777C95.5502 339.942 96.113 332.336 96.113 323.971L90.8243 323.971ZM89.1943 345.908C88.1109 352.408 86.5431 357.703 84.5419 361.853L89.3058 364.15C91.5885 359.416 93.2733 353.604 94.4111 346.777L89.1943 345.908ZM84.5254 361.888C82.5402 366.164 80.3137 369.772 77.8633 372.743L81.9429 376.108C84.7282 372.732 87.1823 368.725 89.3223 364.115L84.5254 361.888ZM77.8382 372.774C75.5069 375.688 72.895 377.854 70.0108 379.331L72.4218 384.038C76.0428 382.183 79.2221 379.51 81.968 376.077L77.8382 372.774ZM70.0108 379.331C66.9322 380.908 63.9285 382.015 60.9971 382.674L62.158 387.834C65.5731 387.066 68.9952 385.793 72.4218 384.038L70.0108 379.331ZM60.9208 382.693C58.0649 383.425 54.9558 383.8 51.5819 383.8L51.5819 389.089C55.3477 389.089 58.9024 388.67 62.2344 387.816L60.9208 382.693ZM51.5819 383.8L48.012 383.8L48.012 389.089L51.5819 389.089L51.5819 383.8ZM48.012 383.8C44.0078 383.8 40.2625 383.347 36.7665 382.454L35.4581 387.578C39.4192 388.59 43.607 389.089 48.012 389.089L48.012 383.8ZM36.7798 382.458C33.5241 381.608 30.0102 379.877 26.2337 377.158L23.1435 381.45C27.3002 384.443 31.402 386.52 35.4448 387.575L36.7798 382.458ZM26.2051 377.138C22.5525 374.581 19.4203 371.241 16.8163 367.074L12.3315 369.877C15.2807 374.596 18.8916 378.474 23.1722 381.471L26.2051 377.138ZM16.8163 367.074C14.2463 362.962 12.0313 357.234 10.2437 349.772L5.10049 351.004C6.96209 358.774 9.34828 365.104 12.3315 369.877L16.8163 367.074ZM10.2437 349.772C8.47822 342.403 7.57954 333.851 7.57954 324.09L2.2908 324.09C2.2908 334.162 3.21673 343.142 5.10049 351.004L10.2437 349.772ZM7.57954 324.09L7.57954 265.306L2.2908 265.306L2.2908 324.09L7.57954 324.09ZM72.5253 290.387L26.2356 290.387L26.2356 295.676L72.5253 295.676L72.5253 290.387ZM23.5912 293.032L23.5912 321.829L28.8799 321.829L28.8799 293.032L23.5912 293.032ZM23.5912 321.829C23.5912 333.887 25.5116 343.386 29.7223 349.943C34.0617 356.701 40.6536 360.053 49.0829 360.053L49.0829 354.765C42.2807 354.765 37.4489 352.187 34.1725 347.085C30.7674 341.783 28.8799 333.491 28.8799 321.829L23.5912 321.829ZM49.0829 360.053L49.7969 360.053L49.7969 354.765L49.0829 354.765L49.0829 360.053ZM49.7969 360.053C58.1927 360.053 64.7548 356.695 69.0717 349.938C73.2596 343.382 75.1696 333.886 75.1696 321.829L69.8809 321.829C69.8809 333.493 68.0029 341.786 64.6147 347.09C61.3554 352.193 56.5533 354.765 49.7969 354.765L49.7969 360.053ZM75.1696 321.829L75.1696 293.032L69.8809 293.032L69.8809 321.829L75.1696 321.829ZM6.36312 438.762L3.81522 438.054L3.81522 438.054L6.36312 438.762ZM13.8599 421.626L11.73 420.059L11.7134 420.082L11.6973 420.104L13.8599 421.626ZM24.5696 411.274L23.1225 409.06L23.1126 409.067L23.1028 409.073L24.5696 411.274ZM36.3503 405.681L35.7089 403.115L35.677 403.123L35.6453 403.132L36.3503 405.681ZM62.4105 405.443L63.0256 402.871L63.0049 402.866L62.9842 402.861L62.4105 405.443ZM73.9532 410.679L75.4004 408.465L75.3898 408.458L73.9532 410.679ZM84.5439 421.031L82.3757 422.545L82.3852 422.559L82.3949 422.572L84.5439 421.031ZM92.0407 438.405L94.5963 437.725L94.5944 437.718L92.0407 438.405ZM92.6357 494.333L95.2184 494.901L95.2184 494.901L92.6357 494.333ZM86.6859 511.231L84.4066 509.89L84.3912 509.916L84.3764 509.943L86.6859 511.231ZM78.3561 521.346L76.6981 519.286L76.6856 519.296L76.6733 519.306L78.3561 521.346ZM69.5503 526.581L68.7364 524.065L68.7252 524.069L68.7141 524.073L69.5503 526.581ZM61.4586 528.009L61.4586 530.654L61.4963 530.654L61.5341 530.653L61.4586 528.009ZM61.3396 528.009L58.6952 528.009L58.6952 530.654L61.3396 530.654L61.3396 528.009ZM61.3396 498.498L60.4681 496.002L58.6952 496.62L58.6952 498.498L61.3396 498.498ZM31.9474 441.499L29.9376 439.78L29.9315 439.787L29.9254 439.795L31.9474 441.499ZM25.9976 480.292L23.3919 480.743L23.3919 480.743L25.9976 480.292ZM28.6155 490.168L31.0541 489.146L31.0541 489.146L28.6155 490.168ZM31.9474 496.356L29.7956 497.893L29.8022 497.902L29.8088 497.912L31.9474 496.356ZM35.2793 499.926L36.8659 497.811L36.8072 497.767L36.7461 497.726L35.2793 499.926ZM37.7782 500.997L37.7782 503.641L40.4226 503.641L40.4226 500.997L37.7782 500.997ZM37.7782 466.25L37.7782 463.606L35.1339 463.606L35.1339 466.25L37.7782 466.25ZM54.5568 466.25L57.2011 466.25L57.2011 463.606L54.5568 463.606L54.5568 466.25ZM54.5568 528.604L54.5568 531.249L57.2011 531.249L57.2011 528.604L54.5568 528.604ZM4.93516 528.604L2.29079 528.604L2.29079 531.249L4.93516 531.249L4.93516 528.604ZM4.93516 511.945L4.62873 509.318L2.29079 509.591L2.29079 511.945L4.93516 511.945ZM18.7388 508.375L19.7434 510.821L23.7122 509.191L20.4724 506.378L18.7388 508.375ZM6.03257 465.774L6.03257 463.275L0.743834 463.275L0.743834 465.774L6.03257 465.774ZM6.03257 463.275C6.03257 454.257 7.00501 446.331 8.91102 439.47L3.81522 438.054C1.75468 445.472 0.743835 453.889 0.743834 463.275L6.03257 463.275ZM8.91102 439.47C10.8442 432.51 13.2378 427.105 16.0225 423.148L11.6973 420.104C8.45287 424.715 5.8486 430.734 3.81522 438.054L8.91102 439.47ZM15.9898 423.194C18.9147 419.219 22.265 415.988 26.0364 413.474L23.1028 409.073C18.7824 411.954 14.9929 415.625 11.73 420.059L15.9898 423.194ZM26.0167 413.487C29.9728 410.9 33.6506 409.171 37.0552 408.229L35.6453 403.132C31.5928 404.253 27.4168 406.253 23.1225 409.06L26.0167 413.487ZM36.9916 408.246C40.5918 407.346 44.2241 406.897 47.893 406.897L47.893 401.608C43.7874 401.608 39.7245 402.111 35.7089 403.115L36.9916 408.246ZM47.893 406.897L51.2249 406.897L51.2249 401.608L47.893 401.608L47.893 406.897ZM51.2249 406.897C54.9312 406.897 58.4668 407.275 61.8369 408.024L62.9842 402.861C59.2145 402.024 55.293 401.608 51.2249 401.608L51.2249 406.897ZM61.7955 408.015C65.0833 408.801 68.6546 410.4 72.5167 412.899L75.3898 408.458C71.16 405.722 67.0362 403.83 63.0256 402.871L61.7955 408.015ZM72.5061 412.892C76.337 415.397 79.6259 418.606 82.3757 422.545L86.7122 419.518C83.5914 415.047 79.8198 411.355 75.4004 408.465L72.5061 412.892ZM82.3949 422.572C85.1584 426.427 87.5506 431.888 89.487 439.091L94.5944 437.718C92.5643 430.166 89.9586 424.045 86.693 419.49L82.3949 422.572ZM89.4852 439.084C91.3963 446.27 92.3713 454.641 92.3713 464.227L97.66 464.227C97.66 454.297 96.6516 445.453 94.5962 437.725L89.4852 439.084ZM92.3713 464.227L92.3713 469.344L97.66 469.344L97.66 464.227L92.3713 464.227ZM92.3713 469.344C92.3713 478.643 91.5892 486.776 90.053 493.766L95.2184 494.901C96.8555 487.452 97.66 478.926 97.66 469.344L92.3713 469.344ZM90.053 493.766C88.4959 500.85 86.5882 506.181 84.4066 509.89L88.9651 512.572C91.5433 508.189 93.6022 502.255 95.2184 494.901L90.053 493.766ZM84.3764 509.943C82.2197 513.81 79.6534 516.907 76.6981 519.286L80.0141 523.405C83.564 520.548 86.5508 516.902 88.9954 512.519L84.3764 509.943ZM76.6733 519.306C73.651 521.799 71.0078 523.331 68.7364 524.065L70.3643 529.097C73.4874 528.087 76.7147 526.128 80.0389 523.385L76.6733 519.306ZM68.7141 524.073C66.3434 524.863 63.9026 525.294 61.3831 525.366L61.5341 530.653C64.5677 530.566 67.5214 530.045 70.3866 529.09L68.7141 524.073ZM61.4586 525.365L61.3396 525.365L61.3396 530.654L61.4586 530.654L61.4586 525.365ZM63.9839 528.009L63.9839 498.498L58.6952 498.498L58.6952 528.009L63.9839 528.009ZM62.211 500.995C67.3243 499.21 70.9514 495.154 73.255 489.395C75.5345 483.697 76.5976 476.167 76.5976 466.964L71.3089 466.964C71.3089 475.849 70.2697 482.618 68.3446 487.431C66.4436 492.183 63.7639 494.851 60.4681 496.002L62.211 500.995ZM76.5976 466.964C76.5976 455.506 74.5775 446.438 70.1296 440.176C65.5635 433.747 58.7087 430.644 50.0349 430.644L50.0349 435.932C57.3067 435.932 62.411 438.442 65.8177 443.238C69.3425 448.201 71.3089 455.971 71.3089 466.964L76.5976 466.964ZM50.0349 430.644L48.7259 430.644L48.7259 435.932L50.0349 435.932L50.0349 430.644ZM48.7259 430.644C41.3591 430.644 35.06 433.79 29.9376 439.78L33.9572 443.217C38.1959 438.26 43.0824 435.932 48.7259 435.932L48.7259 430.644ZM29.9254 439.795C24.6732 446.026 22.2822 455.164 22.2822 466.726L27.571 466.726C27.571 455.758 29.8605 448.078 33.9694 443.203L29.9254 439.795ZM22.2822 466.726C22.2822 471.77 22.6482 476.445 23.3919 480.743L28.6032 479.841C27.919 475.888 27.571 471.519 27.571 466.726L22.2822 466.726ZM23.3919 480.743C24.123 484.967 25.0379 488.475 26.1769 491.191L31.0541 489.146C30.1305 486.943 29.3001 483.867 28.6032 479.841L23.3919 480.743ZM26.1769 491.191C27.2628 493.781 28.4628 496.027 29.7956 497.893L34.0992 494.819C33.0521 493.353 32.0308 491.475 31.0541 489.146L26.1769 491.191ZM29.8088 497.912C31.1289 499.727 32.4618 501.226 33.8125 502.126L36.7461 497.726C36.1928 497.357 35.3045 496.476 34.086 494.801L29.8088 497.912ZM33.6927 502.042C34.6798 502.782 36.0466 503.641 37.5402 503.641L37.5402 498.353C37.6816 498.353 37.7673 498.375 37.7823 498.379C37.798 498.383 37.7691 498.377 37.6905 498.34C37.5259 498.262 37.2547 498.102 36.8659 497.811L33.6927 502.042ZM37.5402 503.641L37.7782 503.641L37.7782 498.353L37.5402 498.353L37.5402 503.641ZM40.4226 500.997L40.4226 466.25L35.1339 466.25L35.1339 500.997L40.4226 500.997ZM37.7782 468.894L54.5568 468.894L54.5568 463.606L37.7782 463.606L37.7782 468.894ZM51.9124 466.25L51.9124 528.604L57.2011 528.604L57.2011 466.25L51.9124 466.25ZM54.5568 525.96L4.93516 525.96L4.93516 531.249L54.5568 531.249L54.5568 525.96ZM7.57953 528.604L7.57953 511.945L2.29079 511.945L2.29079 528.604L7.57953 528.604ZM5.24159 514.571C10.2419 513.988 15.078 512.737 19.7434 510.821L17.7341 505.929C13.5145 507.662 9.14818 508.791 4.62873 509.318L5.24159 514.571ZM20.4724 506.378C11.0355 498.185 6.03257 484.87 6.03257 465.774L0.743834 465.774C0.743833 485.709 5.97466 500.795 17.0051 510.372L20.4724 506.378ZM93.4687 553.129L96.113 553.129L96.113 550.484L93.4687 550.484L93.4687 553.129ZM93.4687 646.422L93.4687 649.067L96.113 649.067L96.113 646.422L93.4687 646.422ZM73.3582 646.422L70.7139 646.422L70.7139 649.067L73.3582 649.067L73.3582 646.422ZM73.3582 580.498L76.0026 580.498L76.0026 577.854L73.3582 577.854L73.3582 580.498ZM60.2686 580.498L60.2686 577.854L57.6242 577.854L57.6242 580.498L60.2686 580.498ZM60.2686 644.875L60.2686 647.52L62.913 647.52L62.913 644.875L60.2686 644.875ZM40.0392 644.875L37.3948 644.875L37.3948 647.52L40.0392 647.52L40.0392 644.875ZM40.0392 580.498L42.6835 580.498L42.6835 577.854L40.0392 577.854L40.0392 580.498ZM25.5216 580.498L25.5216 577.854L22.8772 577.854L22.8772 580.498L25.5216 580.498ZM25.5216 647.612L25.5216 650.256L28.1659 650.256L28.1659 647.612L25.5216 647.612ZM4.93515 647.612L2.29078 647.612L2.29078 650.256L4.93515 650.256L4.93515 647.612ZM4.93516 553.129L4.93516 550.484L2.29079 550.484L2.29079 553.129L4.93516 553.129ZM90.8243 553.129L90.8243 646.422L96.113 646.422L96.113 553.129L90.8243 553.129ZM93.4687 643.778L73.3582 643.778L73.3582 649.067L93.4687 649.067L93.4687 643.778ZM76.0026 646.422L76.0026 580.498L70.7139 580.498L70.7139 646.422L76.0026 646.422ZM73.3582 577.854L60.2686 577.854L60.2686 583.142L73.3582 583.142L73.3582 577.854ZM57.6242 580.498L57.6242 644.875L62.913 644.875L62.913 580.498L57.6242 580.498ZM60.2686 642.231L40.0392 642.231L40.0392 647.52L60.2686 647.52L60.2686 642.231ZM42.6835 644.875L42.6835 580.498L37.3948 580.498L37.3948 644.875L42.6835 644.875ZM40.0392 577.854L25.5216 577.854L25.5216 583.142L40.0392 583.142L40.0392 577.854ZM22.8772 580.498L22.8772 647.612L28.1659 647.612L28.1659 580.498L22.8772 580.498ZM25.5216 644.968L4.93515 644.968L4.93515 650.256L25.5216 650.256L25.5216 644.968ZM7.57952 647.612L7.57953 553.129L2.29079 553.129L2.29078 647.612L7.57952 647.612ZM4.93516 555.773L93.4687 555.773L93.4687 550.484L4.93516 550.484L4.93516 555.773Z" fill="#F14251"/>
</svg>
