<svg width="68" height="23" viewBox="0 0 68 23" fill="none" xmlns="http://www.w3.org/2000/svg">
<path d="M56.973 0C63.063 0 68 4.90902 68 10.9648C68 17.0205 63.063 21.9295 56.973 21.9295C51.5097 21.9295 46.9742 17.9788 46.0987 12.7938L44.108 12.7923V13.8628C44.108 14.3474 43.9146 14.8122 43.5699 15.1549L36.2184 22.4648C35.5007 23.1784 34.3371 23.1784 33.6194 22.4648L26.2681 15.1549C25.9234 14.8122 25.7297 14.3474 25.7297 13.8628V12.7923L21.9013 12.7938C21.0258 17.9788 16.4903 21.9295 11.027 21.9295C4.93696 21.9295 0 17.0205 0 10.9648C0 4.90902 4.93696 0 11.027 0C16.491 0 21.0269 3.95173 21.9017 9.13757L25.7297 9.13724V1.97488C25.7297 0.965508 26.5525 0.147365 27.5675 0.147365C27.9849 0.147365 28.3898 0.288487 28.7156 0.54773L33.7709 4.56912C34.442 5.10304 35.3958 5.10304 36.067 4.56912L41.1222 0.54773C41.9147 -0.0826345 43.0714 0.0450147 43.7054 0.833258C43.966 1.15723 44.108 1.55989 44.108 1.97488V9.13724L46.0983 9.13757C46.9731 3.95173 51.509 0 56.973 0ZM11.027 5.48238C7.982 5.48238 5.51352 7.93697 5.51352 10.9648C5.51352 13.9925 7.982 16.4471 11.027 16.4471C13.4271 16.4471 15.4689 14.9224 16.2263 12.7939L11.027 12.7923C10.012 12.7923 9.1892 11.974 9.1892 10.9648C9.1892 9.95555 10.012 9.13724 11.027 9.13724L16.2269 9.13741C15.47 7.0081 13.4277 5.48238 11.027 5.48238ZM56.973 5.48238C54.5723 5.48238 52.53 7.0081 51.7731 9.13741L56.973 9.13724C57.988 9.13724 58.8108 9.95555 58.8108 10.9648C58.8108 11.974 57.988 12.7923 56.973 12.7923L51.7737 12.7939C52.5311 14.9224 54.5729 16.4471 56.973 16.4471C60.0179 16.4471 62.4865 13.9925 62.4865 10.9648C62.4865 7.93697 60.0179 5.48238 56.973 5.48238Z" fill="rgb(255,70,86)"/>
</svg>
