<svg width="69" height="51" viewBox="0 0 69 51" fill="none" xmlns="http://www.w3.org/2000/svg">
<path fill-rule="evenodd" clip-rule="evenodd" d="M14.439 0.0300327C11.9533 14.5257 14.8036 35.4945 32.5833 51C24.017 50.5963 17.1802 49.4018 12.0733 47.4166C15.1923 45.42 16.7517 44.4219 16.7517 44.4219C-1.27383 32.5954 -1.11398 17.7607 0.919944 13.9241C2.85595 18.0753 4.896 20.5902 7.04008 21.4689C6.38126 12.2321 8.84753 5.08583 14.439 0.0300327ZM54.561 0C60.1525 5.0558 62.6187 12.202 61.9599 21.4389C64.1041 20.5604 66.144 18.0453 68.08 13.8943C70.114 17.7306 70.2738 32.5654 52.2484 44.3919C52.2484 44.3919 53.8078 45.3902 56.9268 47.3866C51.8198 49.3718 44.983 50.5663 36.4167 50.97C54.1965 35.4645 57.0467 14.4957 54.561 0ZM45.8994 25.0605C46.7893 29.9374 41.8065 35.306 34.5019 39.6421L34.5021 39.6434H34.5C27.1956 35.306 22.213 29.9374 23.1027 25.0605C23.9925 20.1828 32.0419 18.5434 34.5021 25.0605L34.5 25.0584L34.6451 24.7002C37.2616 18.6065 45.0264 20.275 45.8994 25.0605ZM34.5 9.43897C36.6172 9.43897 38.3334 11.1293 38.3334 13.2145C38.3334 15.2996 36.6172 16.99 34.5 16.99C32.3829 16.99 30.6667 15.2996 30.6667 13.2145C30.6667 11.1293 32.3829 9.43897 34.5 9.43897Z" fill="rgb(255,70,86)"/>
</svg>
