<svg width="110" height="988" viewBox="0 0 110 988" fill="none" xmlns="http://www.w3.org/2000/svg">
<path d="M4.9033 34.9314L6.18144 35.224L6.18144 35.224L4.9033 34.9314ZM11.2062 17.3928L10.0819 16.7182L10.0819 16.7182L11.2062 17.3928ZM20.1126 7.52737L19.3852 6.43638L19.369 6.44721L19.3531 6.4585L20.1126 7.52737ZM29.704 2.86868L29.4152 1.58968L29.3957 1.59408L29.3763 1.59907L29.704 2.86868ZM40.2546 1.90953L41.5657 1.90953L41.5657 0.598335L40.2546 0.598335L40.2546 1.90953ZM40.2545 35.2055L40.3432 36.5137L41.5657 36.4308L41.5657 35.2055L40.2545 35.2055ZM24.9083 83.2996L23.6081 83.4692L23.6099 83.4831L23.612 83.4969L24.9083 83.2996ZM27.5117 92.48L28.6501 91.8295L28.6501 91.8295L27.5117 92.48ZM30.8001 96.3166L30.1395 97.4491L30.1588 97.4604L30.1785 97.471L30.8001 96.3166ZM40.1175 95.6315L39.2642 94.6359L39.2642 94.6359L40.1175 95.6315ZM43.406 87.9583L42.134 87.6403L42.1305 87.654L42.1274 87.6677L43.406 87.9583ZM45.1873 70.5567L46.4981 70.5883L46.4981 70.5875L45.1873 70.5567ZM45.5983 53.0181L44.2876 52.982L44.2875 52.9874L45.5983 53.0181ZM85.7453 4.51292L85.3685 5.76887L85.3797 5.77213L85.7453 4.51292ZM94.1036 9.44566L93.2264 10.4203L93.2343 10.4274L93.2424 10.4344L94.1036 9.44566ZM101.229 19.0371L102.412 18.4723L102.407 18.4617L101.229 19.0371ZM105.887 35.2055L104.596 35.4324L104.597 35.4408L104.599 35.4492L105.887 35.2055ZM100.955 109.882L99.7716 109.316L99.767 109.326L100.955 109.882ZM93.5555 120.295L92.675 119.324L92.6668 119.331L92.6587 119.339L93.5555 120.295ZM84.7862 125.913L84.3599 124.673L84.3477 124.677L84.7862 125.913ZM74.2356 127.42L72.9244 127.42L72.9244 128.731L74.2356 128.731L74.2356 127.42ZM74.2356 94.2613L74.02 92.9679L72.9244 93.1505L72.9244 94.2613L74.2356 94.2613ZM76.976 93.4391L76.5614 92.1952L76.473 92.2247L76.3896 92.2664L76.976 93.4391ZM80.1275 91.2468L79.2353 90.286L79.2353 90.286L80.1275 91.2468ZM83.2789 86.5881L82.0738 86.0716L82.0738 86.0716L83.2789 86.5881ZM85.4713 77.9558L84.1788 77.7352L84.1779 77.7403L85.4713 77.9558ZM84.9232 44.9339L83.6432 45.2184L83.6462 45.2319L83.6495 45.2453L84.9232 44.9339ZM81.9087 37.3978L82.7482 36.3905L82.739 36.383L81.9087 37.3978ZM73.4135 37.5348L72.5741 36.5275L72.5503 36.5474L72.5275 36.5683L73.4135 37.5348ZM70.399 44.3858L69.1289 44.0602L69.127 44.0678L70.399 44.3858ZM68.8918 59.7321L70.2028 59.7531L70.2029 59.7503L68.8918 59.7321ZM68.6178 76.8597L69.9287 76.8849L69.9288 76.8807L68.6178 76.8597ZM60.8076 117.966L59.6714 117.311L59.6673 117.319L59.6632 117.326L60.8076 117.966ZM26.2785 129.475L25.9235 130.738L25.9335 130.74L26.2785 129.475ZM17.2351 124.406L16.4016 125.418L16.4016 125.418L17.2351 124.406ZM9.42497 114.129L10.6028 113.553L10.5977 113.543L9.42497 114.129ZM4.21819 96.7276L2.92656 96.9537L2.92891 96.9664L4.21819 96.7276ZM3.61111 70.9678L3.61111 61.5134L0.98871 61.5134L0.988709 70.9678L3.61111 70.9678ZM3.61111 61.5134C3.61111 51.4444 4.47328 42.686 6.18144 35.224L3.62516 34.6389C1.86214 42.3405 0.98871 51.3034 0.98871 61.5134L3.61111 61.5134ZM6.18144 35.224C7.90287 27.7041 9.96556 22.0091 12.3306 18.0674L10.0819 16.7182C7.51418 20.9977 5.37491 26.9952 3.62516 34.6389L6.18144 35.224ZM12.3306 18.0674C14.7155 14.0925 17.5659 10.9453 20.872 8.59623L19.3531 6.4585C15.7169 9.04213 12.6297 12.4719 10.0819 16.7182L12.3306 18.0674ZM20.8399 8.61835C24.3316 6.29055 27.3917 4.81954 30.0316 4.13828L29.3763 1.59907C26.3527 2.37936 23.0186 4.01414 19.3852 6.43638L20.8399 8.61835ZM29.9928 4.14767C32.7208 3.53168 35.6377 3.22073 38.7473 3.22073L38.7473 0.598335C35.4627 0.598335 32.3507 0.926816 29.4152 1.58968L29.9928 4.14767ZM38.7473 3.22073L40.2546 3.22073L40.2546 0.598335L38.7473 0.598335L38.7473 3.22073ZM38.9434 1.90953L38.9433 35.2055L41.5657 35.2055L41.5657 1.90953L38.9434 1.90953ZM40.1659 33.8973C34.2938 34.2954 29.8642 37.2889 26.9716 42.7064C24.1275 48.0329 22.7749 55.675 22.7749 65.487L25.3973 65.487C25.3973 55.8421 26.7395 48.7088 29.2849 43.9415C31.7818 39.2651 35.4364 36.8464 40.3432 36.5137L40.1659 33.8973ZM22.7749 65.487L22.7749 67.4053L25.3973 67.4053L25.3973 65.487L22.7749 65.487ZM22.7749 67.4053C22.7749 73.8308 23.05 79.1905 23.6081 83.4692L26.2085 83.13C25.6704 79.0049 25.3973 73.7683 25.3973 67.4053L22.7749 67.4053ZM23.612 83.4969C24.2575 87.7388 25.1534 90.9958 26.3732 93.1305L28.6501 91.8295C27.6776 90.1276 26.8379 87.2643 26.2045 83.1024L23.612 83.4969ZM26.3732 93.1305C27.5099 95.1198 28.7468 96.6368 30.1395 97.4491L31.4608 95.184C30.6612 94.7175 29.7057 93.6768 28.6501 91.8295L26.3732 93.1305ZM30.1785 97.471C31.5842 98.228 33.174 98.5869 34.9108 98.5869L34.9108 95.9645C33.5417 95.9645 32.3911 95.684 31.4218 95.1621L30.1785 97.471ZM34.9108 98.5869C37.3199 98.5869 39.3903 97.9817 40.9708 96.627L39.2642 94.6359C38.287 95.4735 36.8862 95.9645 34.9108 95.9645L34.9108 98.5869ZM40.9708 96.627C41.831 95.8897 42.5222 94.7651 43.104 93.4076C43.6943 92.0301 44.2178 90.3028 44.6846 88.2489L42.1274 87.6677C41.6807 89.6331 41.1994 91.1943 40.6936 92.3745C40.1792 93.5747 39.6829 94.277 39.2642 94.6359L40.9708 96.627ZM44.6781 88.2763C45.7182 84.116 46.3147 78.2012 46.4981 70.5883L43.8765 70.5252C43.6945 78.0759 43.1035 83.7622 42.134 87.6403L44.6781 88.2763ZM46.4981 70.5875L46.9092 53.0489L44.2875 52.9874L43.8764 70.526L46.4981 70.5875ZM46.909 53.0542C47.3635 36.5593 50.0686 24.3929 54.8751 16.3894C59.6217 8.48568 66.4391 4.59094 75.4688 4.59094L75.4688 1.96854C65.4983 1.96854 57.8372 6.36353 52.627 15.0393C47.4767 23.6152 44.7467 36.3181 44.2876 52.982L46.909 53.0542ZM75.4688 4.59094L76.702 4.59094L76.702 1.96854L75.4688 1.96854L75.4688 4.59094ZM76.702 4.59094C79.8815 4.59094 82.767 4.98837 85.3685 5.76882L86.1221 3.25702C83.2428 2.39323 80.0994 1.96854 76.702 1.96854L76.702 4.59094ZM85.3797 5.77213C87.9803 6.52712 90.5971 8.05385 93.2264 10.4203L94.9807 8.47105C92.1292 5.90473 89.1739 4.14297 86.1109 3.25372L85.3797 5.77213ZM93.2424 10.4344C95.922 12.7683 98.1966 15.8166 100.05 19.6125L102.407 18.4617C100.424 14.4017 97.9486 11.0558 94.9647 8.4569L93.2424 10.4344ZM100.045 19.6019C101.893 23.4726 103.419 28.7338 104.596 35.4324L107.179 34.9786C105.98 28.1578 104.401 22.6401 102.412 18.4723L100.045 19.6019ZM104.599 35.4492C105.859 42.1088 106.494 49.8798 106.494 58.773L109.117 58.773C109.117 49.7622 108.473 41.8216 107.176 34.9617L104.599 35.4492ZM106.494 58.773L106.494 68.2274L109.117 68.2274L109.117 58.773L106.494 58.773ZM106.494 68.2274C106.494 77.488 105.859 85.6289 104.597 92.6594L107.178 93.1227C108.474 85.9031 109.117 77.6016 109.117 68.2274L106.494 68.2274ZM104.597 92.6594C103.329 99.7252 101.711 105.261 99.7717 109.316L102.137 110.447C104.218 106.098 105.888 100.307 107.178 93.1227L104.597 92.6594ZM99.767 109.326C97.8166 113.493 95.446 116.812 92.675 119.324L94.436 121.267C97.5112 118.48 100.073 114.857 102.142 110.437L99.767 109.326ZM92.6587 119.339C89.8323 121.988 87.0642 123.743 84.3599 124.673L85.2124 127.153C88.3543 126.073 91.4324 124.083 94.4523 121.252L92.6587 119.339ZM84.3477 124.677C81.6694 125.628 78.759 126.109 75.6058 126.109L75.6058 128.731C79.0296 128.731 82.2394 128.208 85.2246 127.149L84.3477 124.677ZM75.6058 126.109L74.2356 126.109L74.2356 128.731L75.6058 128.731L75.6058 126.109ZM75.5468 127.42L75.5468 94.2613L72.9244 94.2613L72.9244 127.42L75.5468 127.42ZM74.4512 95.5546C75.6332 95.3576 76.6812 95.0525 77.5624 94.6119L76.3896 92.2664C75.8093 92.5565 75.0303 92.7995 74.02 92.9679L74.4512 95.5546ZM77.3906 94.6831C78.4929 94.3156 79.7149 93.4192 81.0197 92.2076L79.2353 90.286C77.9823 91.4494 77.1033 92.0146 76.5614 92.1952L77.3906 94.6831ZM81.0197 92.2076C82.4564 90.8736 83.6037 89.1588 84.4841 87.1046L82.0738 86.0716C81.3099 87.854 80.3563 89.245 79.2353 90.286L81.0197 92.2076ZM84.4841 87.1046C85.369 85.04 86.12 82.0389 86.7646 78.1714L84.1779 77.7403C83.5436 81.5459 82.8332 84.2997 82.0738 86.0716L84.4841 87.1046ZM86.7638 78.1765C87.4189 74.3395 87.7416 69.8778 87.7416 64.8019L85.1192 64.8019C85.1192 69.7741 84.8025 74.0818 84.1788 77.7352L86.7638 78.1765ZM87.7416 64.8019L87.7416 62.6096L85.1192 62.6096L85.1192 64.8019L87.7416 64.8019ZM87.7416 62.6096C87.7416 54.9016 87.2391 48.886 86.1969 44.6226L83.6495 45.2453C84.6169 49.2031 85.1192 54.9712 85.1192 62.6096L87.7416 62.6096ZM86.2032 44.6495C85.7385 42.5586 85.2408 40.8273 84.7019 39.48C84.179 38.1727 83.5549 37.0628 82.7481 36.3905L81.0693 38.4051C81.3588 38.6463 81.7852 39.2492 82.2671 40.4539C82.7329 41.6186 83.1944 43.1986 83.6432 45.2184L86.2032 44.6495ZM82.739 36.383C81.4207 35.3043 79.6694 34.8534 77.6611 34.8534L77.6611 37.4758C79.3067 37.4758 80.3872 37.847 81.0784 38.4126L82.739 36.383ZM77.6611 34.8534C75.6877 34.8534 73.9539 35.3777 72.5741 36.5275L74.2529 38.5421C75.0654 37.865 76.1634 37.4758 77.6611 37.4758L77.6611 34.8534ZM72.5275 36.5683C71.7843 37.2495 71.1701 38.2628 70.6376 39.4731C70.0964 40.7032 69.5959 42.2389 69.1289 44.0602L71.6691 44.7115C72.1156 42.9703 72.5743 41.5829 73.0379 40.5293C73.5102 39.4559 73.9465 38.825 74.2995 38.5014L72.5275 36.5683ZM69.127 44.0678C68.1774 47.8663 67.6726 53.0989 67.5807 59.7139L70.2029 59.7503C70.2937 53.2114 70.7938 48.2131 71.6711 44.7039L69.127 44.0678ZM67.5808 59.7112L67.3067 76.8387L69.9288 76.8807L70.2028 59.7531L67.5808 59.7112ZM67.3068 76.8345C66.9423 95.7877 64.3397 109.208 59.6714 117.311L61.9438 118.62C66.9583 109.916 69.5624 95.932 69.9287 76.8849L67.3068 76.8345ZM59.6632 117.326C55.1592 125.381 48.1222 129.397 38.3363 129.397L38.3363 132.02C49.012 132.02 56.956 127.541 61.9521 118.606L59.6632 117.326ZM38.3363 129.397L36.418 129.397L36.418 132.02L38.3363 132.02L38.3363 129.397ZM36.418 129.397C32.767 129.397 29.5058 128.997 26.6235 128.21L25.9335 130.74C29.08 131.599 32.5785 132.02 36.418 132.02L36.418 129.397ZM26.6335 128.213C23.9325 127.454 21.0774 125.871 18.0687 123.394L16.4016 125.418C19.6044 128.056 22.7782 129.853 25.9235 130.738L26.6335 128.213ZM18.0687 123.394C15.132 120.975 12.6367 117.709 10.6027 113.553L8.24722 114.706C10.4152 119.136 13.1267 122.721 16.4016 125.418L18.0687 123.394ZM10.5977 113.543C8.57448 109.496 6.86702 103.83 5.50747 96.4889L2.92891 96.9664C4.30977 104.423 6.0735 110.358 8.25219 114.716L10.5977 113.543ZM5.50976 96.5016C4.24742 89.2882 3.61111 80.7806 3.61111 70.9678L0.988709 70.9678C0.988709 80.8859 1.63125 89.5515 2.92662 96.9536L5.50976 96.5016ZM106.024 187.222L106.024 188.533L107.336 188.533L107.336 187.222L106.024 187.222ZM4.08117 187.222L2.76997 187.222L2.76997 188.533L4.08117 188.533L4.08117 187.222ZM4.08117 155.296L4.08117 153.985L2.76997 153.985L2.76997 155.296L4.08117 155.296ZM106.024 155.296L107.336 155.296L107.336 153.985L106.024 153.985L106.024 155.296ZM106.024 185.911L4.08117 185.911L4.08117 188.533L106.024 188.533L106.024 185.911ZM5.39237 187.222L5.39237 155.296L2.76997 155.296L2.76997 187.222L5.39237 187.222ZM4.08117 156.608L106.024 156.608L106.024 153.985L4.08117 153.985L4.08117 156.608ZM104.713 155.296L104.713 187.222L107.336 187.222L107.336 155.296L104.713 155.296ZM4.08117 216.501L4.08117 215.189L2.76997 215.189L2.76997 216.501L4.08117 216.501ZM106.024 216.501L107.336 216.501L107.336 215.189L106.024 215.189L106.024 216.501ZM98.4882 328.994L97.3071 328.425L97.3029 328.433L97.2989 328.442L98.4882 328.994ZM90.404 342.148L89.3926 341.314L89.3863 341.321L89.3801 341.329L90.404 342.148ZM80.4015 350.506L80.9992 351.673L80.9992 351.673L80.4015 350.506ZM69.3029 354.617L69.015 353.338L68.996 353.342L68.9772 353.347L69.3029 354.617ZM39.9805 354.343L39.6495 355.612L39.6561 355.613L39.9805 354.343ZM26.8265 347.766L27.5927 346.702L27.5856 346.697L27.5785 346.692L26.8265 347.766ZM15.1798 335.297L14.0679 335.992L14.0679 335.992L15.1798 335.297ZM7.23263 314.47L8.50775 314.165L8.50775 314.165L7.23263 314.47ZM81.9087 248.426L83.2199 248.426L83.2199 247.115L81.9087 247.115L81.9087 248.426ZM28.6078 248.426L28.6078 247.115L27.2966 247.115L27.2966 248.426L28.6078 248.426ZM4.08117 217.812L106.024 217.812L106.024 215.189L4.08117 215.189L4.08117 217.812ZM104.713 216.501L104.713 284.052L107.336 284.052L107.336 216.501L104.713 216.501ZM104.713 284.052C104.713 293.495 104.077 302.008 102.813 309.596L105.399 310.027C106.692 302.269 107.336 293.609 107.336 284.052L104.713 284.052ZM102.813 309.596C101.547 317.188 99.7037 323.454 97.3071 328.425L99.6693 329.564C102.205 324.304 104.107 317.781 105.399 310.027L102.813 309.596ZM97.2989 328.442C94.9623 333.475 92.324 337.761 89.3926 341.314L91.4154 342.983C94.5129 339.228 97.2641 334.745 99.6775 329.546L97.2989 328.442ZM89.3801 341.329C86.5598 344.854 83.3663 347.515 79.8038 349.339L80.9992 351.673C84.9271 349.662 88.402 346.75 91.4279 342.967L89.3801 341.329ZM79.8038 349.339C76.1448 351.214 72.549 352.543 69.015 353.338L69.5907 355.896C73.3645 355.047 77.1677 353.636 80.9992 351.673L79.8038 349.339ZM68.9772 353.347C65.5327 354.23 61.8066 354.676 57.7931 354.676L57.7931 357.298C62.0009 357.298 65.9479 356.831 69.6285 355.887L68.9772 353.347ZM57.7931 354.676L53.6825 354.676L53.6825 357.298L57.7931 357.298L57.7931 354.676ZM53.6825 354.676C48.9405 354.676 44.4829 354.139 40.3049 353.073L39.6561 355.613C44.0647 356.739 48.7418 357.298 53.6825 357.298L53.6825 354.676ZM40.3115 353.074C36.3047 352.029 32.0658 349.923 27.5927 346.702L26.0604 348.83C30.722 352.186 35.2524 354.465 39.6495 355.612L40.3115 353.074ZM27.5785 346.692C23.1668 343.604 19.4033 339.581 16.2917 334.602L14.0679 335.992C17.3506 341.244 21.3516 345.534 26.0746 348.84L27.5785 346.692ZM16.2917 334.602C13.197 329.651 10.5904 322.857 8.50775 314.165L5.95752 314.776C8.07683 323.621 10.7683 330.713 14.0679 335.992L16.2917 334.602ZM8.50775 314.165C6.4361 305.518 5.39236 295.53 5.39236 284.189L2.76996 284.189C2.76996 295.684 3.82721 305.884 5.95752 314.776L8.50775 314.165ZM5.39236 284.189L5.39237 216.501L2.76997 216.501L2.76996 284.189L5.39236 284.189ZM81.9087 247.115L28.6078 247.115L28.6078 249.737L81.9087 249.737L81.9087 247.115ZM27.2966 248.426L27.2966 281.585L29.919 281.585L29.919 248.426L27.2966 248.426ZM27.2966 281.585C27.2966 295.34 29.4971 305.881 34.0815 313.021C38.7297 320.259 45.743 323.865 54.9157 323.865L54.9157 321.243C46.5498 321.243 40.4092 318.021 36.2881 311.604C32.1032 305.086 29.919 295.143 29.919 281.585L27.2966 281.585ZM54.9157 323.865L55.7378 323.865L55.7378 321.243L54.9157 321.243L54.9157 323.865ZM55.7378 323.865C64.8679 323.865 71.847 320.257 76.471 313.018C81.0311 305.879 83.2199 295.339 83.2199 281.585L80.5975 281.585C80.5975 295.144 78.4246 305.088 74.261 311.606C70.1614 318.024 64.055 321.243 55.7378 321.243L55.7378 323.865ZM83.2199 281.585L83.2199 248.426L80.5975 248.426L80.5975 281.585L83.2199 281.585ZM106.024 380.604L107.336 380.604L107.336 379.293L106.024 379.293L106.024 380.604ZM106.024 488.028L106.024 489.339L107.336 489.339L107.336 488.028L106.024 488.028ZM82.8679 488.028L81.5567 488.028L81.5567 489.339L82.8679 489.339L82.8679 488.028ZM82.8679 412.119L84.1791 412.119L84.1791 410.807L82.8679 410.807L82.8679 412.119ZM67.7956 412.119L67.7956 410.807L66.4844 410.807L66.4844 412.119L67.7956 412.119ZM67.7956 486.247L67.7956 487.558L69.1068 487.558L69.1068 486.247L67.7956 486.247ZM44.5022 486.247L43.191 486.247L43.191 487.558L44.5022 487.558L44.5022 486.247ZM44.5022 412.119L45.8134 412.119L45.8134 410.807L44.5022 410.807L44.5022 412.119ZM27.7857 412.119L27.7857 410.807L26.4745 410.807L26.4745 412.119L27.7857 412.119ZM27.7857 489.398L27.7857 490.709L29.0969 490.709L29.0969 489.398L27.7857 489.398ZM4.08116 489.398L2.76996 489.398L2.76996 490.709L4.08116 490.709L4.08116 489.398ZM4.08116 380.604L4.08116 379.293L2.76996 379.293L2.76996 380.604L4.08116 380.604ZM104.713 380.604L104.713 488.028L107.336 488.028L107.336 380.604L104.713 380.604ZM106.024 486.717L82.8679 486.717L82.8679 489.339L106.024 489.339L106.024 486.717ZM84.1791 488.028L84.1791 412.119L81.5567 412.119L81.5567 488.028L84.1791 488.028ZM82.8679 410.807L67.7956 410.807L67.7956 413.43L82.8679 413.43L82.8679 410.807ZM66.4844 412.119L66.4844 486.247L69.1068 486.247L69.1068 412.119L66.4844 412.119ZM67.7956 484.935L44.5022 484.935L44.5022 487.558L67.7956 487.558L67.7956 484.935ZM45.8134 486.247L45.8134 412.119L43.191 412.119L43.191 486.247L45.8134 486.247ZM44.5022 410.807L27.7857 410.807L27.7857 413.43L44.5022 413.43L44.5022 410.807ZM26.4745 412.119L26.4745 489.398L29.0969 489.398L29.0969 412.119L26.4745 412.119ZM27.7857 488.087L4.08116 488.087L4.08116 490.709L27.7857 490.709L27.7857 488.087ZM5.39235 489.398L5.39236 380.604L2.76996 380.604L2.76996 489.398L5.39235 489.398ZM4.08116 381.915L106.024 381.915L106.024 379.293L4.08116 379.293L4.08116 381.915ZM45.7353 598.004L44.4241 598.004L44.4241 600.156L46.3367 599.169L45.7353 598.004ZM83.964 578.273L84.5654 579.438L86.8711 578.248L84.5453 577.098L83.964 578.273ZM45.7353 559.364L46.3167 558.189L44.4241 557.253L44.4241 559.364L45.7353 559.364ZM4.08115 619.379L3.48109 618.213L2.76995 618.579L2.76995 619.379L4.08115 619.379ZM22.7159 609.787L23.316 610.953L24.0271 610.587L24.0271 609.787L22.7159 609.787ZM22.7159 547.991L24.0271 547.991L24.0271 547.176L23.2954 546.815L22.7159 547.991ZM4.08115 538.811L2.76995 538.811L2.76995 539.627L3.5017 539.987L4.08115 538.811ZM4.08115 506.337L4.67257 505.167L2.76996 504.205L2.76995 506.337L4.08115 506.337ZM106.024 557.857L107.335 557.857L107.335 557.05L106.616 556.687L106.024 557.857ZM106.024 599.237L106.643 600.393L107.335 600.023L107.335 599.237L106.024 599.237ZM4.08115 653.771L2.76995 653.771L2.76995 655.959L4.69963 654.927L4.08115 653.771ZM46.3367 599.169L84.5654 579.438L83.3626 577.108L45.134 596.839L46.3367 599.169ZM84.5453 577.098L46.3167 558.189L45.154 560.539L83.3827 579.448L84.5453 577.098ZM44.4241 559.364L44.4241 598.004L47.0465 598.004L47.0465 559.364L44.4241 559.364ZM4.68121 620.545L23.316 610.953L22.1159 608.622L3.48109 618.213L4.68121 620.545ZM24.0271 609.787L24.0271 547.991L21.4047 547.991L21.4047 609.787L24.0271 609.787ZM23.2954 546.815L4.66061 537.635L3.5017 539.987L22.1365 549.168L23.2954 546.815ZM5.39235 538.811L5.39235 506.337L2.76995 506.337L2.76995 538.811L5.39235 538.811ZM3.48974 507.507L105.433 559.027L106.616 556.687L4.67257 505.167L3.48974 507.507ZM104.713 557.857L104.713 599.237L107.335 599.237L107.335 557.857L104.713 557.857ZM105.406 598.081L3.46266 652.615L4.69963 654.927L106.643 600.393L105.406 598.081ZM5.39235 653.771L5.39235 619.379L2.76995 619.379L2.76995 653.771L5.39235 653.771ZM82.8679 705.009L84.1791 705.009L84.1791 703.698L82.8679 703.698L82.8679 705.009ZM62.8629 705.009L62.8629 703.698L61.5517 703.698L61.5517 705.009L62.8629 705.009ZM65.6033 763.106L66.5927 762.245L66.5927 762.245L65.6033 763.106ZM80.1274 763.106L79.138 762.245L79.138 762.245L80.1274 763.106ZM40.2545 705.009L41.5657 705.009L41.5657 703.698L40.2545 703.698L40.2545 705.009ZM4.08115 705.009L2.76995 705.009L2.76995 706.32L4.08115 706.32L4.08115 705.009ZM4.08115 673.083L4.08115 671.772L2.76995 671.772L2.76995 673.083L4.08115 673.083ZM106.024 673.083L107.335 673.083L107.335 671.772L106.024 671.772L106.024 673.083ZM55.6008 780.644L56.8474 780.238L55.518 776.161L54.34 780.284L55.6008 780.644ZM47.2426 794.62L46.3617 793.649L46.356 793.654L46.3504 793.66L47.2426 794.62ZM4.76624 801.883L4.76624 803.194L5.12073 803.194L5.42692 803.015L4.76624 801.883ZM4.08114 801.883L2.76994 801.883L2.76994 803.194L4.08114 803.194L4.08114 801.883ZM4.08114 769.409L3.27105 768.378L2.76994 768.771L2.76994 769.409L4.08114 769.409ZM36.0069 763.106L36.9884 763.975L36.9884 763.975L36.0069 763.106ZM82.8679 703.698L62.8629 703.698L62.8629 706.32L82.8679 706.32L82.8679 703.698ZM61.5517 705.009L61.5517 753.377L64.1741 753.377L64.1741 705.009L61.5517 705.009ZM61.5517 753.377C61.5517 757.906 62.4889 761.522 64.6138 763.966L66.5927 762.245C65.0638 760.487 64.1741 757.618 64.1741 753.377L61.5517 753.377ZM64.6138 763.966C66.7122 766.379 69.5068 767.568 72.8654 767.568L72.8654 764.946C70.195 764.946 68.1483 764.034 66.5927 762.245L64.6138 763.966ZM72.8654 767.568L73.0024 767.568L73.0024 764.946L72.8654 764.946L72.8654 767.568ZM73.0024 767.568C76.2834 767.568 79.0271 766.369 81.1169 763.966L79.138 762.245C77.5739 764.044 75.5675 764.946 73.0024 764.946L73.0024 767.568ZM81.1169 763.966C83.2419 761.522 84.1791 757.906 84.1791 753.377L81.5567 753.377C81.5567 757.618 80.6669 760.487 79.138 762.245L81.1169 763.966ZM84.1791 753.377L84.1791 705.009L81.5567 705.009L81.5567 753.377L84.1791 753.377ZM40.2545 703.698L4.08115 703.698L4.08115 706.32L40.2545 706.32L40.2545 703.698ZM5.39235 705.009L5.39235 673.083L2.76995 673.083L2.76995 705.009L5.39235 705.009ZM4.08115 674.395L106.024 674.395L106.024 671.772L4.08115 671.772L4.08115 674.395ZM104.713 673.083L104.713 755.296L107.335 755.296L107.335 673.083L104.713 673.083ZM104.713 755.296C104.713 769.96 102.515 780.741 98.2875 787.816C94.1241 794.784 87.9476 798.242 79.5794 798.242L79.5794 800.864C88.8411 800.864 95.887 796.946 100.539 789.161C105.126 781.484 107.335 770.136 107.335 755.296L104.713 755.296ZM79.5794 798.242L77.9351 798.242L77.9351 800.864L79.5794 800.864L79.5794 798.242ZM77.9351 798.242C72.821 798.242 68.5748 796.755 65.1146 793.825C61.6332 790.878 58.8535 786.39 56.8474 780.238L54.3542 781.051C56.4587 787.505 59.4567 792.471 63.4201 795.827C67.4046 799.2 72.2703 800.864 77.9351 800.864L77.9351 798.242ZM54.34 780.284C52.7541 785.835 50.086 790.271 46.3617 793.649L48.1234 795.592C52.255 791.844 55.159 786.963 56.8615 781.005L54.34 780.284ZM46.3504 793.66C42.8004 796.956 38.1165 798.653 32.1703 798.653L32.1703 801.275C38.6473 801.275 44.0116 799.41 48.1348 795.581L46.3504 793.66ZM32.1703 798.653L17.2351 798.653L17.2351 801.275L32.1703 801.275L32.1703 798.653ZM17.2351 798.653C14.1354 798.653 11.4947 798.815 9.32832 799.148C7.18022 799.478 5.40708 799.991 4.10557 800.75L5.42692 803.015C6.31773 802.495 7.71889 802.049 9.72708 801.74C11.7169 801.434 14.2146 801.275 17.2351 801.275L17.2351 798.653ZM4.76624 800.571L4.08114 800.571L4.08114 803.194L4.76624 803.194L4.76624 800.571ZM5.39234 801.883L5.39234 769.409L2.76994 769.409L2.76994 801.883L5.39234 801.883ZM4.89123 770.44C5.81172 769.716 7.58171 769.213 10.5211 769.213L10.5211 766.59C7.4316 766.59 4.90828 767.091 3.27105 768.378L4.89123 770.44ZM10.5211 769.213L22.3049 769.213L22.3049 766.59L10.5211 766.59L10.5211 769.213ZM22.3049 769.213C28.802 769.213 33.8088 767.565 36.9884 763.975L35.0253 762.236C32.5415 765.041 28.4135 766.59 22.3049 766.59L22.3049 769.213ZM36.9884 763.975C40.1486 760.407 41.5657 754.514 41.5657 746.663L38.9433 746.663C38.9433 754.342 37.5287 759.41 35.0253 762.236L36.9884 763.975ZM41.5657 746.663L41.5657 705.009L38.9433 705.009L38.9433 746.663L41.5657 746.663ZM4.08114 826.214L4.08114 824.903L2.76994 824.903L2.76994 826.214L4.08114 826.214ZM106.024 826.214L107.335 826.214L107.335 824.903L106.024 824.903L106.024 826.214ZM106.024 871.568L106.661 872.715L107.335 872.34L107.335 871.568L106.024 871.568ZM42.5839 906.782L41.9475 905.636L39.8862 906.78L41.9456 907.928L42.5839 906.782ZM106.024 942.134L107.335 942.134L107.335 941.363L106.663 940.988L106.024 942.134ZM106.024 985.843L106.024 987.154L107.335 987.154L107.335 985.843L106.024 985.843ZM4.08113 985.843L2.76993 985.843L2.76993 987.154L4.08113 987.154L4.08113 985.843ZM4.08113 954.328L4.08114 953.017L2.76994 953.017L2.76994 954.328L4.08113 954.328ZM74.6466 954.328L74.6466 955.64L79.6028 955.64L75.295 953.189L74.6466 954.328ZM4.08114 914.181L2.76994 914.181L2.76994 914.944L3.43275 915.321L4.08114 914.181ZM4.08114 897.054L3.43275 895.914L2.76994 896.291L2.76994 897.054L4.08114 897.054ZM74.6466 856.907L75.295 858.047L79.6029 855.596L74.6466 855.596L74.6466 856.907ZM4.08114 856.907L2.76994 856.907L2.76994 858.218L4.08114 858.218L4.08114 856.907ZM4.08114 827.526L106.024 827.526L106.024 824.903L4.08114 824.903L4.08114 827.526ZM104.713 826.214L104.713 871.568L107.335 871.568L107.335 826.214L104.713 826.214ZM105.388 870.422L41.9475 905.636L43.2202 907.929L106.661 872.715L105.388 870.422ZM41.9456 907.928L105.386 943.279L106.663 940.988L43.2221 905.637L41.9456 907.928ZM104.713 942.134L104.713 985.843L107.335 985.843L107.335 942.134L104.713 942.134ZM106.024 984.532L4.08113 984.532L4.08113 987.154L106.024 987.154L106.024 984.532ZM5.39233 985.843L5.39233 954.328L2.76994 954.328L2.76993 985.843L5.39233 985.843ZM4.08113 955.64L74.6466 955.64L74.6466 953.017L4.08114 953.017L4.08113 955.64ZM75.295 953.189L4.72953 913.042L3.43275 915.321L73.9982 955.468L75.295 953.189ZM5.39234 914.181L5.39234 897.054L2.76994 897.054L2.76994 914.181L5.39234 914.181ZM4.72953 898.194L75.295 858.047L73.9982 855.767L3.43275 895.914L4.72953 898.194ZM74.6466 855.596L4.08114 855.596L4.08114 858.218L74.6466 858.218L74.6466 855.596ZM5.39234 856.907L5.39234 826.214L2.76994 826.214L2.76994 856.907L5.39234 856.907Z" fill="white"/>
</svg>
