<svg width="166" height="971" viewBox="0 0 166 971" fill="none" xmlns="http://www.w3.org/2000/svg">
<path d="M103.439 116.481L105.439 116.517L105.439 116.513L103.439 116.481ZM103.857 90.3561L101.857 90.3166L101.857 90.3241L103.857 90.3561ZM112.008 143.024L111.656 141.055L110.008 141.35L110.008 143.024L112.008 143.024ZM112.008 193.602L110.008 193.602L110.008 195.602L112.008 195.602L112.008 193.602ZM68.327 80.1151L66.3278 80.0576L66.3275 80.0682L68.327 80.1151ZM67.7 106.867L69.6992 106.925L69.6994 106.914L67.7 106.867ZM60.176 52.9451L60.309 54.9407L62.176 54.8162L62.176 52.9451L60.176 52.9451ZM60.176 2.1581L62.176 2.1581L62.176 0.158097L60.176 0.158097L60.176 2.1581ZM0.282999 107.494C0.282997 146.718 6.874 170.037 17.0657 183.571C27.3749 197.262 41.1058 200.618 54.324 200.618L54.324 196.618C41.8351 196.618 29.5456 193.495 20.2611 181.165C10.859 168.679 4.283 146.436 4.283 107.494L0.282999 107.494ZM54.324 200.618L57.25 200.618L57.25 196.618L54.324 196.618L54.324 200.618ZM57.25 200.618C65.2382 200.618 72.2747 199.092 78.332 195.767C84.3987 192.436 89.358 187.369 93.2888 180.487C101.1 166.81 104.915 145.849 105.439 116.517L101.439 116.445C100.918 145.633 97.1045 165.74 89.8154 178.503C86.1961 184.84 81.7374 189.334 76.407 192.26C71.0673 195.192 64.7277 196.618 57.25 196.618L57.25 200.618ZM105.439 116.513L105.857 90.3881L101.857 90.3241L101.439 116.449L105.439 116.513ZM105.857 90.3956C106.17 74.5419 107.846 65.9366 110.072 61.341C111.159 59.0978 112.322 57.9259 113.419 57.2839C114.524 56.6376 115.767 56.4081 117.233 56.4081L117.233 52.4081C115.355 52.4081 113.332 52.7011 111.4 53.8313C109.46 54.9658 107.815 56.8244 106.472 59.5972C103.839 65.0336 102.171 74.4023 101.857 90.3166L105.857 90.3956ZM117.233 56.4081C118.79 56.4081 120.065 56.5734 121.198 57.1821C122.297 57.7731 123.497 58.9127 124.616 61.3139C126.92 66.2584 128.609 75.9435 128.609 94.7451L132.609 94.7451C132.609 75.9267 130.954 65.4433 128.242 59.6243C126.853 56.6438 125.127 54.7528 123.091 53.6588C121.089 52.5824 119.02 52.4081 117.233 52.4081L117.233 56.4081ZM128.609 94.7451L128.609 98.0891L132.609 98.0891L132.609 94.7451L128.609 94.7451ZM128.609 98.0891C128.609 118.328 125.43 128.831 121.828 134.355C120.048 137.084 118.156 138.613 116.441 139.529C114.707 140.455 113.065 140.804 111.656 141.055L112.36 144.993C113.877 144.722 116.023 144.287 118.325 143.058C120.647 141.818 123.039 139.821 125.178 136.54C129.413 130.047 132.609 118.605 132.609 98.0891L128.609 98.0891ZM110.008 143.024L110.008 193.602L114.008 193.602L114.008 143.024L110.008 143.024ZM112.008 195.602L114.098 195.602L114.098 191.602L112.008 191.602L112.008 195.602ZM114.098 195.602C126.344 195.602 139.286 191.188 149.073 177.192C158.767 163.327 165.213 140.27 165.213 103.314L161.213 103.314C161.213 139.927 154.805 162.013 145.794 174.9C136.875 187.656 125.26 191.602 114.098 191.602L114.098 195.602ZM165.213 103.314L165.213 88.8931L161.213 88.8931L161.213 103.314L165.213 103.314ZM165.213 88.8931C165.213 53.3128 159.139 31.6379 149.808 18.8241C140.369 5.86262 127.814 2.2481 115.77 2.2481L115.77 6.2481C126.925 6.2481 138.092 9.53058 146.574 21.1788C155.165 32.9748 161.213 53.6224 161.213 88.8931L165.213 88.8931ZM115.77 2.2481L113.889 2.2481L113.889 6.2481L115.77 6.2481L115.77 2.2481ZM113.889 2.2481C101.198 2.2481 89.5733 6.94324 81.0023 19.2504C72.5261 31.4213 67.1684 50.8484 66.3278 80.0576L70.3262 80.1726C71.1576 51.2798 76.4589 32.7734 84.2847 21.5363C92.0157 10.4355 102.336 6.2481 113.889 6.2481L113.889 2.2481ZM66.3275 80.0682L65.7005 106.82L69.6994 106.914L70.3264 80.162L66.3275 80.0682ZM65.7008 106.809C65.1781 124.793 63.4995 134.598 61.0292 139.878C59.8272 142.447 58.4994 143.804 57.142 144.564C55.7575 145.339 54.1114 145.622 52.025 145.622L52.025 149.622C54.432 149.622 56.8615 149.305 59.0953 148.055C61.3562 146.79 63.1895 144.699 64.6523 141.573C67.5115 135.462 69.1769 124.89 69.6992 106.925L65.7008 106.809ZM52.025 145.622C50.1096 145.622 48.4127 145.356 46.885 144.513C45.3767 143.68 43.8308 142.171 42.4293 139.32C39.5653 133.495 37.514 122.511 37.514 102.06L33.514 102.06C33.514 122.573 35.5382 134.37 38.8397 141.085C40.521 144.505 42.5802 146.705 44.9515 148.014C47.3034 149.313 49.7604 149.622 52.025 149.622L52.025 145.622ZM37.514 102.06L37.514 99.1341L33.514 99.1341L33.514 102.06L37.514 102.06ZM37.514 99.1341C37.514 79.2664 41.301 68.398 45.9003 62.4502C50.423 56.6014 55.9545 55.231 60.309 54.9407L60.043 50.9495C54.9925 51.2862 48.193 52.9463 42.736 60.0033C37.3555 66.9612 33.514 78.8738 33.514 99.1341L37.514 99.1341ZM62.176 52.9451L62.176 2.1581L58.176 2.1581L58.176 52.9451L62.176 52.9451ZM60.176 0.158097L57.877 0.158097L57.877 4.1581L60.176 4.1581L60.176 0.158097ZM57.877 0.158097C47.3313 0.158096 32.7784 2.58797 20.9157 15.708C9.10344 28.7723 0.283002 52.0846 0.283 93.0731L4.283 93.0731C4.283 52.5516 13.0186 30.4064 23.8828 18.3907C34.6966 6.43072 47.9407 4.1581 57.877 4.1581L57.877 0.158097ZM0.283 93.0731L0.282999 107.494L4.283 107.494L4.283 93.0731L0.283 93.0731ZM4.99999 236.122L4.99999 234.122L2.99999 234.122L2.99999 236.122L4.99999 236.122ZM4.99999 282.938L2.99999 282.938L2.99999 284.938L4.99999 284.938L4.99999 282.938ZM112.635 282.938L113.624 284.677L120.195 280.938L112.635 280.938L112.635 282.938ZM4.99998 344.175L4.01099 342.437L2.99998 343.012L2.99998 344.175L4.99998 344.175ZM4.99998 370.3L2.99998 370.3L2.99998 371.463L4.01098 372.039L4.99998 370.3ZM112.635 431.537L112.635 433.537L120.195 433.537L113.624 429.799L112.635 431.537ZM4.99998 431.537L4.99998 429.537L2.99998 429.537L2.99998 431.537L4.99998 431.537ZM4.99998 479.607L2.99998 479.607L2.99998 481.607L4.99998 481.607L4.99998 479.607ZM160.496 479.607L160.496 481.607L162.496 481.607L162.496 479.607L160.496 479.607ZM160.496 412.936L162.496 412.936L162.496 411.761L161.47 411.189L160.496 412.936ZM63.729 359.014L62.7583 357.265L59.6141 359.011L62.7555 360.761L63.729 359.014ZM160.496 305.301L161.467 307.05L162.496 306.478L162.496 305.301L160.496 305.301ZM160.496 236.122L162.496 236.122L162.496 234.122L160.496 234.122L160.496 236.122ZM2.99999 236.122L2.99999 282.938L6.99999 282.938L6.99999 236.122L2.99999 236.122ZM4.99999 284.938L112.635 284.938L112.635 280.938L4.99999 280.938L4.99999 284.938ZM111.646 281.2L4.01099 342.437L5.98898 345.914L113.624 284.677L111.646 281.2ZM2.99998 344.175L2.99998 370.3L6.99998 370.3L6.99998 344.175L2.99998 344.175ZM4.01098 372.039L111.646 433.276L113.624 429.799L5.98898 368.562L4.01098 372.039ZM112.635 429.537L4.99998 429.537L4.99998 433.537L112.635 433.537L112.635 429.537ZM2.99998 431.537L2.99998 479.607L6.99998 479.607L6.99998 431.537L2.99998 431.537ZM4.99998 481.607L160.496 481.607L160.496 477.607L4.99998 477.607L4.99998 481.607ZM162.496 479.607L162.496 412.936L158.496 412.936L158.496 479.607L162.496 479.607ZM161.47 411.189L64.7025 357.267L62.7555 360.761L159.522 414.683L161.47 411.189ZM64.6996 360.763L161.467 307.05L159.525 303.552L62.7583 357.265L64.6996 360.763ZM162.496 305.301L162.496 236.122L158.496 236.122L158.496 305.301L162.496 305.301ZM160.496 234.122L4.99999 234.122L4.99999 238.122L160.496 238.122L160.496 234.122ZM29.244 701L30.0174 702.845L32.9918 701.597L30.5523 699.487L29.244 701ZM4.99997 707.27L4.7791 705.282L2.99997 705.48L2.99997 707.27L4.99997 707.27ZM4.99997 736.53L2.99997 736.53L2.99997 738.53L4.99997 738.53L4.99997 736.53ZM92.153 736.53L92.153 738.53L94.153 738.53L94.153 736.53L92.153 736.53ZM92.153 627.014L94.153 627.014L94.153 625.014L92.153 625.014L92.153 627.014ZM62.684 627.014L62.684 625.014L60.684 625.014L60.684 627.014L62.684 627.014ZM62.684 688.042L62.684 690.042L64.684 690.042L64.684 688.042L62.684 688.042ZM104.066 683.653L103.4 681.767L102.066 682.238L102.066 683.653L104.066 683.653ZM104.066 735.485L102.066 735.485L102.066 737.485L104.066 737.485L104.066 735.485ZM104.275 735.485L104.275 737.485L104.315 737.485L104.354 737.484L104.275 735.485ZM0.282976 626.178C0.282974 674.898 19.8184 695.493 27.9357 702.513L30.5523 699.487C23.2036 693.132 4.28297 673.599 4.28298 626.178L0.282976 626.178ZM28.4705 699.156C22.183 701.793 10.2489 704.675 4.7791 705.282L5.22084 709.258C11.037 708.612 23.347 705.642 30.0174 702.845L28.4705 699.156ZM2.99997 707.27L2.99997 736.53L6.99997 736.53L6.99997 707.27L2.99997 707.27ZM4.99997 738.53L92.153 738.53L92.153 734.53L4.99997 734.53L4.99997 738.53ZM94.153 736.53L94.153 627.014L90.153 627.014L90.153 736.53L94.153 736.53ZM92.153 625.014L62.684 625.014L62.684 629.014L92.153 629.014L92.153 625.014ZM60.684 627.014L60.684 688.042L64.684 688.042L64.684 627.014L60.684 627.014ZM62.684 686.042L62.266 686.042L62.266 690.042L62.684 690.042L62.684 686.042ZM62.266 686.042C62.1778 686.042 61.7543 685.982 60.9798 685.578C60.2471 685.195 59.3271 684.57 58.2835 683.639C56.1998 681.782 53.7056 678.782 51.3044 674.319C46.506 665.401 42.112 650.696 42.112 627.85L38.112 627.85C38.112 651.193 42.6005 666.584 47.7818 676.215C50.3705 681.026 53.1404 684.414 55.6221 686.626C56.8612 687.73 58.0491 688.56 59.128 689.123C60.1652 689.665 61.2569 690.042 62.266 690.042L62.266 686.042ZM42.112 627.85C42.112 606.748 47.4119 592.576 54.9344 583.713C62.44 574.87 72.3142 571.121 81.912 571.121L81.912 567.121C71.2367 567.121 60.211 571.315 51.8848 581.125C43.5755 590.915 38.112 606.107 38.112 627.85L42.112 627.85ZM81.912 571.121L84.211 571.121L84.211 567.121L81.912 567.121L81.912 571.121ZM84.211 571.121C94.615 571.121 104.478 573.939 111.788 582.226C119.144 590.567 124.22 604.786 124.22 628.268L128.22 628.268C128.22 604.307 123.055 588.953 114.788 579.581C106.475 570.156 95.334 567.121 84.211 567.121L84.211 571.121ZM124.22 628.268C124.22 652.283 119.61 665.379 114.812 672.563C110.071 679.663 105.016 681.197 103.4 681.767L104.732 685.539C106.669 684.855 112.691 682.941 118.139 674.784C123.53 666.711 128.22 652.741 128.22 628.268L124.22 628.268ZM102.066 683.653L102.066 735.485L106.066 735.485L106.066 683.653L102.066 683.653ZM104.066 737.485L104.275 737.485L104.275 733.485L104.066 733.485L104.066 737.485ZM104.354 737.484C115.35 737.048 130.674 732.845 143.208 717.523C155.704 702.247 165.213 676.176 165.213 632.448L161.213 632.448C161.213 675.664 151.807 700.693 140.112 714.991C128.454 729.243 114.309 733.086 104.196 733.487L104.354 737.484ZM165.213 632.448L165.213 623.461L161.213 623.461L161.213 632.448L165.213 632.448ZM165.213 623.461C165.213 578.404 153.471 551.473 137.522 535.821C121.585 520.181 101.775 516.125 86.301 516.125L86.301 520.125C101.132 520.125 119.778 524.012 134.72 538.676C149.652 553.33 161.213 579.067 161.213 623.461L165.213 623.461ZM86.301 516.125L80.449 516.125L80.449 520.125L86.301 520.125L86.301 516.125ZM80.449 516.125C64.4922 516.125 44.397 521.104 28.2858 536.946C12.1523 552.81 0.282978 579.302 0.282977 621.789L4.28298 621.789C4.28298 580.049 15.9261 554.709 31.0904 539.798C46.2769 524.865 65.2648 520.125 80.449 520.125L80.449 516.125ZM0.282977 621.789L0.282976 626.178L4.28298 626.178L4.28298 621.789L0.282977 621.789ZM103.439 885.985L105.439 886.021L105.439 886.017L103.439 885.985ZM103.857 859.86L101.857 859.82L101.857 859.828L103.857 859.86ZM112.008 912.528L111.656 910.559L110.008 910.853L110.008 912.528L112.008 912.528ZM112.008 963.106L110.008 963.106L110.008 965.106L112.008 965.106L112.008 963.106ZM68.327 849.619L66.3278 849.561L66.3275 849.572L68.327 849.619ZM67.7 876.371L69.6991 876.429L69.6994 876.418L67.7 876.371ZM60.176 822.449L60.309 824.444L62.176 824.32L62.176 822.449L60.176 822.449ZM60.176 771.662L62.176 771.662L62.176 769.662L60.176 769.662L60.176 771.662ZM0.282965 876.998C0.282964 916.222 6.87397 939.541 17.0656 953.075C27.3748 966.766 41.1058 970.122 54.324 970.122L54.324 966.122C41.8351 966.122 29.5456 962.999 20.261 950.669C10.859 938.183 4.28296 915.94 4.28297 876.998L0.282965 876.998ZM54.324 970.122L57.25 970.122L57.25 966.122L54.324 966.122L54.324 970.122ZM57.25 970.122C65.2382 970.122 72.2746 968.596 78.332 965.27C84.3987 961.94 89.3579 956.873 93.2888 949.99C101.1 936.314 104.915 915.352 105.439 886.021L101.439 885.949C100.918 915.137 97.1045 935.244 89.8154 948.006C86.1961 954.343 81.7373 958.838 76.407 961.764C71.0673 964.696 64.7277 966.122 57.25 966.122L57.25 970.122ZM105.439 886.017L105.857 859.892L101.857 859.828L101.439 885.953L105.439 886.017ZM105.857 859.899C106.169 844.046 107.846 835.44 110.072 830.845C111.159 828.601 112.322 827.43 113.419 826.788C114.524 826.141 115.767 825.912 117.233 825.912L117.233 821.912C115.355 821.912 113.332 822.205 111.4 823.335C109.46 824.469 107.815 826.328 106.472 829.101C103.839 834.537 102.171 843.906 101.857 859.82L105.857 859.899ZM117.233 825.912C118.79 825.912 120.065 826.077 121.198 826.686C122.297 827.277 123.497 828.416 124.616 830.818C126.92 835.762 128.609 845.447 128.609 864.249L132.609 864.249C132.609 845.43 130.954 834.947 128.242 829.128C126.853 826.147 125.127 824.257 123.091 823.162C121.089 822.086 119.02 821.912 117.233 821.912L117.233 825.912ZM128.609 864.249L128.609 867.593L132.609 867.593L132.609 864.249L128.609 864.249ZM128.609 867.593C128.609 887.831 125.43 898.335 121.828 903.859C120.048 906.587 118.156 908.117 116.441 909.033C114.707 909.959 113.065 910.307 111.656 910.559L112.36 914.497C113.877 914.226 116.023 913.791 118.325 912.561C120.647 911.322 123.039 909.325 125.178 906.044C129.413 899.551 132.609 888.109 132.609 867.593L128.609 867.593ZM110.008 912.528L110.008 963.106L114.008 963.106L114.008 912.528L110.008 912.528ZM112.008 965.106L114.098 965.106L114.098 961.106L112.008 961.106L112.008 965.106ZM114.098 965.106C126.344 965.106 139.286 960.692 149.073 946.696C158.767 932.831 165.213 909.773 165.213 872.818L161.213 872.818C161.213 909.43 154.805 931.517 145.794 944.404C136.875 957.16 125.26 961.106 114.098 961.106L114.098 965.106ZM165.213 872.818L165.213 858.397L161.213 858.397L161.213 872.818L165.213 872.818ZM165.213 858.397C165.213 822.816 159.139 801.142 149.808 788.328C140.369 775.366 127.814 771.752 115.77 771.752L115.77 775.752C126.925 775.752 138.092 779.034 146.574 790.683C155.165 802.479 161.213 823.126 161.213 858.397L165.213 858.397ZM115.77 771.752L113.889 771.752L113.889 775.752L115.77 775.752L115.77 771.752ZM113.889 771.752C101.198 771.752 89.5733 776.447 81.0023 788.754C72.5261 800.925 67.1683 820.352 66.3278 849.561L70.3261 849.676C71.1576 820.784 76.4589 802.277 84.2847 791.04C92.0157 779.939 102.336 775.752 113.889 775.752L113.889 771.752ZM66.3275 849.572L65.7005 876.324L69.6994 876.418L70.3264 849.666L66.3275 849.572ZM65.7008 876.313C65.178 894.296 63.4995 904.102 61.0292 909.381C59.8272 911.95 58.4994 913.308 57.142 914.068C55.7574 914.842 54.1114 915.126 52.025 915.126L52.025 919.126C54.432 919.126 56.8615 918.808 59.0953 917.558C61.3561 916.293 63.1895 914.203 64.6522 911.076C67.5114 904.966 69.1769 894.393 69.6991 876.429L65.7008 876.313ZM52.025 915.126C50.1096 915.126 48.4127 914.86 46.885 914.016C45.3767 913.184 43.8307 911.674 42.4293 908.824C39.5653 902.999 37.514 892.015 37.514 871.564L33.514 871.564C33.514 892.077 35.5382 903.874 38.8397 910.589C40.5209 914.008 42.5802 916.209 44.9515 917.518C47.3033 918.817 49.7603 919.126 52.025 919.126L52.025 915.126ZM37.514 871.564L37.514 868.638L33.514 868.638L33.514 871.564L37.514 871.564ZM37.514 868.638C37.514 848.77 41.3009 837.902 45.9002 831.954C50.423 826.105 55.9544 824.735 60.309 824.444L60.0429 820.453C54.9925 820.79 48.193 822.45 42.7359 829.507C37.3555 836.465 33.514 848.377 33.514 868.638L37.514 868.638ZM62.176 822.449L62.176 771.662L58.176 771.662L58.176 822.449L62.176 822.449ZM60.176 769.662L57.877 769.662L57.877 773.662L60.176 773.662L60.176 769.662ZM57.877 769.662C47.3312 769.662 32.7784 772.092 20.9157 785.212C9.1034 798.276 0.282968 821.588 0.282966 862.577L4.28297 862.577C4.28297 822.055 13.0185 799.91 23.8827 787.894C34.6965 775.934 47.9407 773.662 57.877 773.662L57.877 769.662ZM0.282966 862.577L0.282965 876.998L4.28297 876.998L4.28297 862.577L0.282966 862.577Z" fill="white"/>
</svg>
