<svg width="117" height="1007" viewBox="0 0 117 1007" fill="none" xmlns="http://www.w3.org/2000/svg">
<path d="M4.5284 36.9096L5.89723 37.223L5.89723 37.223L4.5284 36.9096ZM11.2786 18.1266L10.0744 17.4041L10.0744 17.4041L11.2786 18.1266ZM20.8169 7.56109L20.0379 6.39269L20.0205 6.40428L20.0035 6.41638L20.8169 7.56109ZM31.0888 2.57184L30.7795 1.20209L30.7587 1.2068L30.738 1.21215L31.0888 2.57184ZM42.388 1.54464L43.7923 1.54464L43.7923 0.140401L42.388 0.140401L42.388 1.54464ZM42.388 37.2031L42.483 38.6042L43.7923 38.5154L43.7923 37.2031L42.388 37.2031ZM25.9528 88.7098L24.5604 88.8915L24.5623 88.9063L24.5646 88.9211L25.9528 88.7098ZM28.741 98.5416L29.9602 97.8449L29.9602 97.8449L28.741 98.5416ZM32.2628 102.65L31.5552 103.863L31.5759 103.875L31.597 103.887L32.2628 102.65ZM42.2413 101.917L41.3274 100.851L41.3274 100.851L42.2413 101.917ZM45.7631 93.6991L44.4008 93.3585L44.3971 93.3732L44.3938 93.3879L45.7631 93.6991ZM47.6708 75.0628L49.0746 75.0966L49.0746 75.0957L47.6708 75.0628ZM48.111 56.2797L46.7073 56.241L46.7071 56.2468L48.111 56.2797ZM91.1066 4.33275L90.7031 5.67782L90.7151 5.68131L91.1066 4.33275ZM100.058 9.61549L99.1186 10.6593L99.127 10.6669L99.1357 10.6744L100.058 9.61549ZM107.689 19.8875L108.956 19.2826L108.95 19.2713L107.689 19.8875ZM112.678 37.2031L111.295 37.4461L111.296 37.4551L111.298 37.4642L112.678 37.2031ZM107.395 117.178L106.128 116.572L106.123 116.583L107.395 117.178ZM99.471 128.33L98.528 127.29L98.5192 127.298L98.5106 127.306L99.471 128.33ZM90.0794 134.347L89.6229 133.019L89.6098 133.023L90.0794 134.347ZM78.7802 135.961L77.376 135.961L77.376 137.365L78.7802 137.365L78.7802 135.961ZM78.7802 100.449L78.5494 99.0641L77.376 99.2597L77.376 100.449L78.7802 100.449ZM81.7151 99.5688L81.271 98.2366L81.1764 98.2682L81.0871 98.3128L81.7151 99.5688ZM85.0902 97.2209L84.1347 96.1919L84.1347 96.1919L85.0902 97.2209ZM88.4653 92.2317L87.1746 91.6785L87.1746 91.6785L88.4653 92.2317ZM90.8131 82.9869L89.4289 82.7505L89.428 82.756L90.8131 82.9869ZM90.2262 47.6219L88.8554 47.9265L88.8586 47.9409L88.8621 47.9553L90.2262 47.6219ZM86.9978 39.551L87.8968 38.4722L87.8871 38.4642L86.9978 39.551ZM77.8998 39.6978L77.0008 38.619L76.9753 38.6402L76.9509 38.6626L77.8998 39.6978ZM74.6714 47.0349L73.3112 46.6861L73.3091 46.6943L74.6714 47.0349ZM73.0573 63.4701L74.4613 63.4925L74.4614 63.4896L73.0573 63.4701ZM72.7638 81.8129L74.1678 81.8399L74.1678 81.8354L72.7638 81.8129ZM64.3994 125.836L63.1827 125.135L63.1782 125.143L63.1738 125.15L64.3994 125.836ZM27.4203 138.162L27.0401 139.514L27.0508 139.517L27.4203 138.162ZM17.7352 132.733L16.8426 133.817L16.8426 133.817L17.7352 132.733ZM9.37091 121.727L10.6323 121.11L10.6269 121.099L9.37091 121.727ZM3.79469 103.091L2.4114 103.333L2.41393 103.346L3.79469 103.091ZM3.14453 75.503L3.14453 65.3777L0.336053 65.3777L0.336053 75.503L3.14453 75.503ZM3.14453 65.3777C3.14453 54.5943 4.06787 45.2144 5.89723 37.223L3.15957 36.5963C1.27145 44.8444 0.336054 54.4432 0.336053 65.3777L3.14453 65.3777ZM5.89723 37.223C7.74082 29.1694 9.94986 23.0704 12.4827 18.849L10.0744 17.4041C7.32454 21.9873 5.03348 28.4103 3.15957 36.5963L5.89723 37.223ZM12.4827 18.849C15.0369 14.5921 18.0895 11.2216 21.6302 8.7058L20.0035 6.41638C16.1093 9.18333 12.803 12.8565 10.0744 17.4041L12.4827 18.849ZM21.5958 8.72949C25.3352 6.23652 28.6125 4.66113 31.4397 3.93153L30.738 1.21215C27.4998 2.0478 23.9291 3.79858 20.0379 6.39269L21.5958 8.72949ZM31.3981 3.94159C34.3197 3.28188 37.4436 2.94888 40.7739 2.94888L40.7739 0.140401C37.2562 0.140401 33.9234 0.492191 30.7795 1.20209L31.3981 3.94159ZM40.7739 2.94888L42.388 2.94888L42.388 0.140401L40.7739 0.140401L40.7739 2.94888ZM40.9838 1.54464L40.9838 37.2031L43.7923 37.2031L43.7923 1.54464L40.9838 1.54464ZM42.293 35.8021C36.0043 36.2285 31.2604 39.4344 28.1626 45.2362C25.1167 50.9408 23.6682 59.125 23.6682 69.6333L26.4766 69.6333C26.4766 59.3041 27.914 51.6645 30.64 46.559C33.3141 41.5508 37.228 38.9604 42.483 38.6042L42.293 35.8021ZM23.6682 69.6333L23.6682 71.6877L26.4766 71.6877L26.4766 69.6333L23.6682 69.6333ZM23.6682 71.6877C23.6682 78.5692 23.9627 84.3091 24.5604 88.8915L27.3453 88.5282C26.769 84.1103 26.4766 78.5022 26.4766 71.6877L23.6682 71.6877ZM24.5646 88.9211C25.2559 93.464 26.2153 96.9521 27.5217 99.2383L29.9602 97.8449C28.9187 96.0223 28.0194 92.9559 27.3411 88.4986L24.5646 88.9211ZM27.5217 99.2383C28.7391 101.369 30.0637 102.993 31.5552 103.863L32.9703 101.437C32.1139 100.938 31.0907 99.8233 29.9602 97.8449L27.5217 99.2383ZM31.597 103.887C33.1025 104.697 34.805 105.082 36.6651 105.082L36.6651 102.273C35.1989 102.273 33.9666 101.973 32.9285 101.414L31.597 103.887ZM36.6651 105.082C39.2452 105.082 41.4625 104.434 43.1552 102.983L41.3274 100.851C40.2809 101.748 38.7807 102.273 36.6651 102.273L36.6651 105.082ZM43.1552 102.983C44.0763 102.193 44.8166 100.989 45.4396 99.535C46.0719 98.0598 46.6325 96.2099 47.1324 94.0103L44.3938 93.3879C43.9154 95.4927 43.3999 97.1647 42.8582 98.4287C42.3074 99.714 41.7759 100.466 41.3274 100.851L43.1552 102.983ZM47.1254 94.0397C48.2393 89.5841 48.8781 83.2496 49.0746 75.0966L46.2669 75.0289C46.0721 83.1155 45.4391 89.2052 44.4008 93.3585L47.1254 94.0397ZM49.0746 75.0957L49.5149 56.3126L46.7071 56.2468L46.2669 75.0299L49.0746 75.0957ZM49.5147 56.3184C50.0014 38.653 52.8984 25.6234 58.046 17.0519C63.1294 8.5874 70.4305 4.4163 80.1009 4.4163L80.1009 1.60783C69.423 1.60783 61.2183 6.31467 55.6384 15.606C50.1226 24.7904 47.1989 38.3946 46.7073 56.241L49.5147 56.3184ZM80.1009 4.4163L81.4216 4.4163L81.4216 1.60783L80.1009 1.60783L80.1009 4.4163ZM81.4216 4.4163C84.8267 4.4163 87.917 4.84194 90.7031 5.67777L91.5101 2.98774C88.4265 2.06266 85.0601 1.60783 81.4216 1.60783L81.4216 4.4163ZM90.7151 5.68131C93.5002 6.48987 96.3026 8.12493 99.1186 10.6593L100.997 8.57173C97.9435 5.82332 94.7785 3.93655 91.4981 2.9842L90.7151 5.68131ZM99.1357 10.6744C102.005 13.1739 104.441 16.4385 106.427 20.5037L108.95 19.2713C106.827 14.9232 104.176 11.3399 100.98 8.55658L99.1357 10.6744ZM106.421 20.4923C108.4 24.6377 110.034 30.2723 111.295 37.4461L114.061 36.9602C112.778 29.6554 111.086 23.7462 108.956 19.2826L106.421 20.4923ZM111.298 37.4642C112.647 44.5962 113.328 52.9187 113.328 62.4429L116.136 62.4429C116.136 52.7927 115.447 44.2887 114.058 36.9421L111.298 37.4642ZM113.328 62.4429L113.328 72.5681L116.136 72.5681L116.136 62.4429L113.328 62.4429ZM113.328 72.5681C113.328 82.4858 112.647 91.2044 111.296 98.7338L114.06 99.2299C115.448 91.498 116.136 82.6075 116.136 72.5681L113.328 72.5681ZM111.296 98.7338C109.937 106.301 108.205 112.23 106.128 116.572L108.662 117.784C110.89 113.126 112.679 106.924 114.06 99.2299L111.296 98.7338ZM106.123 116.583C104.034 121.045 101.496 124.6 98.528 127.29L100.414 129.371C103.707 126.386 106.451 122.507 108.667 117.773L106.123 116.583ZM98.5106 127.306C95.4836 130.144 92.5191 132.023 89.6229 133.019L90.5359 135.675C93.9008 134.518 97.1973 132.387 100.431 129.355L98.5106 127.306ZM89.6098 133.023C86.7415 134.041 83.6246 134.557 80.2477 134.557L80.2477 137.365C83.9144 137.365 87.352 136.805 90.549 135.67L89.6098 133.023ZM80.2477 134.557L78.7802 134.557L78.7802 137.365L80.2477 137.365L80.2477 134.557ZM80.1845 135.961L80.1845 100.449L77.376 100.449L77.376 135.961L80.1845 135.961ZM79.0111 101.834C80.277 101.623 81.3994 101.297 82.3431 100.825L81.0871 98.3128C80.4656 98.6236 79.6314 98.8838 78.5494 99.0641L79.0111 101.834ZM82.1592 100.901C83.3397 100.507 84.6484 99.5475 86.0457 98.2499L84.1347 96.1919C82.7928 97.4379 81.8514 98.0432 81.271 98.2366L82.1592 100.901ZM86.0457 98.2499C87.5843 96.8212 88.8131 94.9848 89.756 92.7848L87.1746 91.6785C86.3565 93.5873 85.3352 95.0771 84.1347 96.1919L86.0457 98.2499ZM89.756 92.7848C90.7036 90.5737 91.508 87.3596 92.1983 83.2177L89.428 82.756C88.7487 86.8317 87.9879 89.7808 87.1746 91.6785L89.756 92.7848ZM92.1974 83.2232C92.8989 79.1139 93.2446 74.3357 93.2446 68.8996L90.4361 68.8996C90.4361 74.2246 90.0969 78.8379 89.4289 82.7505L92.1974 83.2232ZM93.2446 68.8996L93.2446 66.5517L90.4361 66.5517L90.4361 68.8996L93.2446 68.8996ZM93.2446 66.5517C93.2446 58.2968 92.7064 51.8544 91.5903 47.2884L88.8621 47.9553C89.8982 52.1939 90.4361 58.3713 90.4361 66.5517L93.2446 66.5517ZM91.597 47.3172C91.0994 45.078 90.5664 43.2239 89.9892 41.7809C89.4292 40.3809 88.7608 39.1922 87.8968 38.4723L86.0989 40.6298C86.4088 40.8881 86.8655 41.5337 87.3816 42.824C87.8805 44.0713 88.3747 45.7635 88.8554 47.9265L91.597 47.3172ZM87.8871 38.4642C86.4752 37.309 84.5996 36.8261 82.4488 36.8261L82.4488 39.6346C84.2112 39.6346 85.3683 40.0321 86.1086 40.6378L87.8871 38.4642ZM82.4488 36.8261C80.3353 36.8261 78.4785 37.3876 77.0008 38.619L78.7988 40.7765C79.6689 40.0514 80.8448 39.6346 82.4488 39.6346L82.4488 36.8261ZM76.9509 38.6626C76.155 39.3922 75.4973 40.4774 74.9269 41.7736C74.3473 43.0909 73.8113 44.7356 73.3112 46.6861L76.0317 47.3837C76.5098 45.5189 77.0011 44.033 77.4976 42.9047C78.0033 41.7552 78.4706 41.0794 78.8487 40.7329L76.9509 38.6626ZM73.3091 46.6943C72.2921 50.7623 71.7516 56.3661 71.6532 63.4506L74.4614 63.4896C74.5586 56.4867 75.0942 51.1337 76.0338 47.3755L73.3091 46.6943ZM71.6532 63.4476L71.3597 81.7905L74.1678 81.8354L74.4613 63.4925L71.6532 63.4476ZM71.3598 81.7859C70.9695 102.084 68.1821 116.456 63.1827 125.135L65.6162 126.537C70.9866 117.215 73.7755 102.239 74.1678 81.8399L71.3598 81.7859ZM63.1738 125.15C58.3502 133.777 50.814 138.079 40.3336 138.079L40.3336 140.887C51.7669 140.887 60.2745 136.09 65.6251 126.521L63.1738 125.15ZM40.3336 138.079L38.2792 138.079L38.2792 140.887L40.3336 140.887L40.3336 138.079ZM38.2792 138.079C34.3692 138.079 30.8766 137.649 27.7897 136.807L27.0508 139.517C30.4206 140.436 34.1673 140.887 38.2792 140.887L38.2792 138.079ZM27.8005 136.81C24.9079 135.997 21.8502 134.302 18.6279 131.649L16.8426 133.817C20.2727 136.641 23.6716 138.567 27.0401 139.514L27.8005 136.81ZM18.6279 131.649C15.4829 129.059 12.8105 125.561 10.6322 121.11L8.1096 122.344C10.4315 127.089 13.3353 130.928 16.8426 133.817L18.6279 131.649ZM10.6269 121.099C8.46007 116.765 6.63146 110.697 5.17545 102.835L2.41393 103.346C3.89277 111.332 5.78164 117.688 8.11492 122.355L10.6269 121.099ZM5.1779 102.849C3.82599 95.1234 3.14453 86.0121 3.14453 75.503L0.336053 75.503C0.336053 86.1249 1.02418 95.4053 2.41147 103.333L5.1779 102.849ZM112.825 165.815L114.229 165.815L114.229 164.411L112.825 164.411L112.825 165.815ZM112.825 203.968L113.825 204.954L114.229 204.544L114.229 203.968L112.825 203.968ZM44.1489 273.671L43.1487 272.686L40.7941 275.075L44.1489 275.075L44.1489 273.671ZM112.825 273.671L114.229 273.671L114.229 272.267L112.825 272.267L112.825 273.671ZM112.825 307.422L112.825 308.826L114.229 308.826L114.229 307.422L112.825 307.422ZM3.64794 307.422L2.2437 307.422L2.2437 308.826L3.64794 308.826L3.64794 307.422ZM3.64794 273.671L2.64313 272.69L2.2437 273.099L2.2437 273.671L3.64794 273.671ZM75.9921 199.566L76.9969 200.547L79.3254 198.162L75.9921 198.162L75.9921 199.566ZM3.64794 199.566L2.2437 199.566L2.2437 200.97L3.64794 200.97L3.64794 199.566ZM3.64794 165.815L3.64794 164.411L2.2437 164.411L2.2437 165.815L3.64794 165.815ZM111.42 165.815L111.42 203.968L114.229 203.968L114.229 165.815L111.42 165.815ZM111.824 202.983L43.1487 272.686L45.1492 274.657L113.825 204.954L111.824 202.983ZM44.1489 275.075L112.825 275.075L112.825 272.267L44.1489 272.267L44.1489 275.075ZM111.42 273.671L111.42 307.422L114.229 307.422L114.229 273.671L111.42 273.671ZM112.825 306.018L3.64794 306.018L3.64794 308.826L112.825 308.826L112.825 306.018ZM5.05217 307.422L5.05217 273.671L2.2437 273.671L2.2437 307.422L5.05217 307.422ZM4.65275 274.652L76.9969 200.547L74.9873 198.585L2.64313 272.69L4.65275 274.652ZM75.9921 198.162L3.64794 198.162L3.64794 200.97L75.9921 200.97L75.9921 198.162ZM5.05218 199.566L5.05218 165.815L2.2437 165.815L2.2437 199.566L5.05218 199.566ZM3.64794 167.219L112.825 167.219L112.825 164.411L3.64794 164.411L3.64794 167.219ZM112.825 373.031L112.825 374.435L114.229 374.435L114.229 373.031L112.825 373.031ZM3.64793 373.031L2.2437 373.031L2.2437 374.435L3.64793 374.435L3.64793 373.031ZM3.64793 338.84L3.64793 337.435L2.2437 337.435L2.2437 338.84L3.64793 338.84ZM112.825 338.84L114.229 338.84L114.229 337.436L112.825 337.436L112.825 338.84ZM112.825 371.627L3.64793 371.627L3.64793 374.435L112.825 374.435L112.825 371.627ZM5.05217 373.031L5.05217 338.84L2.2437 338.84L2.2437 373.031L5.05217 373.031ZM3.64793 340.244L112.825 340.244L112.825 337.436L3.64793 337.435L3.64793 340.244ZM111.42 338.84L111.42 373.031L114.229 373.031L114.229 338.84L111.42 338.84ZM40.0401 438.578L41.4444 438.578L41.4444 437.174L40.0401 437.174L40.0401 438.578ZM3.64793 438.578L2.24369 438.578L2.24369 439.982L3.64793 439.982L3.64793 438.578ZM3.64793 404.387L3.64793 402.982L2.24369 402.982L2.24369 404.387L3.64793 404.387ZM112.825 404.387L114.229 404.387L114.229 402.982L112.825 402.982L112.825 404.387ZM88.025 438.578L89.4293 438.578L89.4293 437.174L88.025 437.174L88.025 438.578ZM64.5462 438.578L64.5462 437.174L63.1419 437.174L63.1419 438.578L64.5462 438.578ZM41.4444 486.269L41.4444 438.578L38.6359 438.578L38.6359 486.269L41.4444 486.269ZM40.0401 437.174L3.64793 437.174L3.64793 439.982L40.0401 439.982L40.0401 437.174ZM5.05217 438.578L5.05217 404.387L2.24369 404.387L2.24369 438.578L5.05217 438.578ZM3.64793 405.791L112.825 405.791L112.825 402.982L3.64793 402.982L3.64793 405.791ZM111.42 404.387L111.42 486.269L114.229 486.269L114.229 404.387L111.42 404.387ZM111.42 486.269C111.42 503.122 108.474 515.512 102.795 523.656C97.1797 531.707 88.7674 535.785 77.3128 535.785L77.3128 538.593C89.5326 538.593 98.8763 534.184 105.098 525.262C111.256 516.432 114.229 503.362 114.229 486.269L111.42 486.269ZM77.3128 535.785L75.8454 535.785L75.8454 538.593L77.3128 538.593L77.3128 535.785ZM75.8454 535.785C64.2882 535.785 55.8022 531.703 50.1401 523.651C44.4145 515.509 41.4444 503.121 41.4444 486.269L38.6359 486.269C38.6359 503.364 41.6333 516.436 47.8428 525.267C54.1158 534.188 63.5324 538.593 75.8454 538.593L75.8454 535.785ZM88.025 437.174L64.5462 437.174L64.5462 439.982L88.025 439.982L88.025 437.174ZM63.1419 438.578L63.1419 485.682L65.9504 485.682L65.9504 438.578L63.1419 438.578ZM63.1419 485.682C63.1419 491.092 64.1112 495.402 66.2693 498.391C68.4885 501.463 71.8138 502.935 75.9921 502.935L75.9921 500.126C72.5398 500.126 70.1421 498.956 68.546 496.746C66.8888 494.452 65.9504 490.838 65.9504 485.682L63.1419 485.682ZM75.9921 502.935L76.4323 502.935L76.4323 500.126L75.9921 500.126L75.9921 502.935ZM76.4323 502.935C80.6526 502.935 84.0137 501.469 86.2602 498.397C88.4469 495.408 89.4293 491.095 89.4293 485.682L86.6208 485.682C86.6208 490.835 85.671 494.446 83.9935 496.739C82.3757 498.951 79.9406 500.126 76.4323 500.126L76.4323 502.935ZM89.4293 485.682L89.4293 438.578L86.6208 438.578L86.6208 485.682L89.4293 485.682ZM112.825 563.224L114.229 563.224L114.229 561.82L112.825 561.82L112.825 563.224ZM112.825 678.271L112.825 679.675L114.229 679.675L114.229 678.271L112.825 678.271ZM88.025 678.271L86.6208 678.271L86.6208 679.675L88.025 679.675L88.025 678.271ZM88.025 596.975L89.4292 596.975L89.4292 595.571L88.025 595.571L88.025 596.975ZM71.8833 596.975L71.8833 595.571L70.4791 595.571L70.4791 596.975L71.8833 596.975ZM71.8833 676.363L71.8833 677.767L73.2875 677.767L73.2875 676.363L71.8833 676.363ZM46.937 676.363L45.5328 676.363L45.5328 677.767L46.937 677.767L46.937 676.363ZM46.937 596.975L48.3413 596.975L48.3413 595.571L46.937 595.571L46.937 596.975ZM29.0344 596.975L29.0344 595.571L27.6302 595.571L27.6302 596.975L29.0344 596.975ZM29.0344 679.738L29.0344 681.142L30.4387 681.142L30.4387 679.738L29.0344 679.738ZM3.64792 679.738L2.24368 679.738L2.24368 681.142L3.64792 681.142L3.64792 679.738ZM3.64792 563.224L3.64792 561.82L2.24369 561.82L2.24369 563.224L3.64792 563.224ZM111.42 563.224L111.42 678.271L114.229 678.271L114.229 563.224L111.42 563.224ZM112.825 676.866L88.025 676.866L88.025 679.675L112.825 679.675L112.825 676.866ZM89.4292 678.271L89.4292 596.975L86.6208 596.975L86.6208 678.271L89.4292 678.271ZM88.025 595.571L71.8833 595.571L71.8833 598.379L88.025 598.379L88.025 595.571ZM70.4791 596.975L70.4791 676.363L73.2875 676.363L73.2875 596.975L70.4791 596.975ZM71.8833 674.959L46.937 674.959L46.937 677.767L71.8833 677.767L71.8833 674.959ZM48.3413 676.363L48.3413 596.975L45.5328 596.975L45.5328 676.363L48.3413 676.363ZM46.937 595.571L29.0344 595.571L29.0344 598.379L46.937 598.379L46.937 595.571ZM27.6302 596.975L27.6302 679.738L30.4387 679.738L30.4387 596.975L27.6302 596.975ZM29.0344 678.334L3.64792 678.334L3.64792 681.142L29.0344 681.142L29.0344 678.334ZM5.05216 679.738L5.05216 563.224L2.24369 563.224L2.24368 679.738L5.05216 679.738ZM3.64792 564.629L112.825 564.629L112.825 561.82L3.64792 561.82L3.64792 564.629ZM88.025 742.782L89.4292 742.782L89.4292 741.378L88.025 741.378L88.025 742.782ZM66.6006 742.782L66.6006 741.378L65.1963 741.378L65.1963 742.782L66.6006 742.782ZM69.5354 805.001L70.5951 804.08L70.5951 804.08L69.5354 805.001ZM85.0901 805.001L84.0305 804.08L84.0305 804.08L85.0901 805.001ZM42.388 742.782L43.7922 742.782L43.7922 741.378L42.388 741.378L42.388 742.782ZM3.64792 742.782L2.24368 742.782L2.24368 744.187L3.64792 744.187L3.64792 742.782ZM3.64792 708.591L3.64792 707.187L2.24368 707.187L2.24368 708.591L3.64792 708.591ZM112.825 708.591L114.229 708.591L114.229 707.187L112.825 707.187L112.825 708.591ZM58.8232 823.784L60.1582 823.349L58.7346 818.983L57.473 823.399L58.8232 823.784ZM49.8719 838.752L48.9285 837.712L48.9224 837.718L48.9164 837.723L49.8719 838.752ZM4.38163 846.53L4.38163 847.934L4.76126 847.934L5.08918 847.742L4.38163 846.53ZM3.64791 846.53L2.24368 846.53L2.24368 847.934L3.64791 847.934L3.64791 846.53ZM3.64791 811.751L2.78034 810.647L2.24368 811.069L2.24368 811.751L3.64791 811.751ZM37.839 805.001L38.8902 805.932L38.8902 805.932L37.839 805.001ZM88.025 741.378L66.6006 741.378L66.6006 744.187L88.025 744.187L88.025 741.378ZM65.1963 742.782L65.1963 794.583L68.0048 794.583L68.0048 742.782L65.1963 742.782ZM65.1963 794.583C65.1963 799.432 66.2 803.306 68.4758 805.923L70.5951 804.08C68.9577 802.197 68.0048 799.125 68.0048 794.583L65.1963 794.583ZM68.4758 805.923C70.723 808.507 73.716 809.781 77.3128 809.781L77.3128 806.972C74.4529 806.972 72.261 805.996 70.5951 804.08L68.4758 805.923ZM77.3128 809.781L77.4595 809.781L77.4595 806.972L77.3128 806.972L77.3128 809.781ZM77.4595 809.781C80.9734 809.781 83.9117 808.497 86.1498 805.923L84.0305 804.08C82.3554 806.006 80.2067 806.972 77.4595 806.972L77.4595 809.781ZM86.1498 805.923C88.4255 803.306 89.4292 799.432 89.4292 794.583L86.6208 794.583C86.6208 799.125 85.6679 802.197 84.0305 804.08L86.1498 805.923ZM89.4292 794.583L89.4292 742.782L86.6208 742.782L86.6208 794.583L89.4292 794.583ZM42.388 741.378L3.64792 741.378L3.64792 744.187L42.388 744.187L42.388 741.378ZM5.05215 742.782L5.05215 708.591L2.24368 708.591L2.24368 742.782L5.05215 742.782ZM3.64792 709.996L112.825 709.996L112.825 707.187L3.64792 707.187L3.64792 709.996ZM111.42 708.591L111.42 796.637L114.229 796.637L114.229 708.591L111.42 708.591ZM111.42 796.637C111.42 812.342 109.066 823.888 104.539 831.465C100.08 838.927 93.4651 842.631 84.5032 842.631L84.5032 845.439C94.4221 845.439 101.968 841.243 106.95 832.906C111.863 824.683 114.229 812.53 114.229 796.637L111.42 796.637ZM84.5032 842.631L82.7423 842.631L82.7423 845.439L84.5032 845.439L84.5032 842.631ZM82.7423 842.631C77.2653 842.631 72.7178 841.038 69.012 837.901C65.2836 834.744 62.3066 829.937 60.1582 823.349L57.4881 824.22C59.742 831.132 62.9527 836.45 67.1973 840.044C71.4645 843.657 76.6755 845.439 82.7423 845.439L82.7423 842.631ZM57.473 823.399C55.7745 829.343 52.917 834.094 48.9285 837.712L50.8153 839.792C55.24 835.779 58.35 830.552 60.1734 824.17L57.473 823.399ZM48.9164 837.723C45.1145 841.253 40.0983 843.071 33.7302 843.071L33.7302 845.879C40.6668 845.879 46.4116 843.882 50.8274 839.781L48.9164 837.723ZM33.7302 843.071L17.7352 843.071L17.7352 845.879L33.7302 845.879L33.7302 843.071ZM17.7352 843.071C14.4156 843.071 11.5875 843.244 9.26741 843.601C6.96689 843.955 5.06793 844.503 3.67407 845.317L5.08918 847.742C6.0432 847.186 7.54378 846.707 9.69446 846.377C11.8255 846.049 14.5003 845.879 17.7352 845.879L17.7352 843.071ZM4.38163 845.125L3.64791 845.125L3.64791 847.934L4.38163 847.934L4.38163 845.125ZM5.05215 846.53L5.05215 811.751L2.24368 811.751L2.24368 846.53L5.05215 846.53ZM4.51548 812.856C5.50129 812.081 7.39686 811.542 10.5448 811.542L10.5448 808.733C7.2361 808.733 4.53374 809.27 2.78034 810.647L4.51548 812.856ZM10.5448 811.542L23.1647 811.542L23.1647 808.733L10.5448 808.733L10.5448 811.542ZM23.1647 811.542C30.1229 811.542 35.4849 809.777 38.8902 805.932L36.7878 804.07C34.1277 807.074 29.7068 808.733 23.1647 808.733L23.1647 811.542ZM38.8902 805.932C42.2746 802.111 43.7922 795.8 43.7922 787.392L40.9838 787.392C40.9838 795.615 39.4688 801.043 36.7878 804.07L38.8902 805.932ZM43.7922 787.392L43.7922 742.782L40.9838 742.782L40.9838 787.392L43.7922 787.392ZM4.52837 902.377L5.8972 902.69L5.8972 902.69L4.52837 902.377ZM11.2785 883.594L10.0744 882.871L10.0744 882.871L11.2785 883.594ZM20.8168 873.028L20.0379 871.86L20.0205 871.871L20.0035 871.883L20.8168 873.028ZM31.0888 868.039L30.7795 866.669L30.7586 866.674L30.7379 866.679L31.0888 868.039ZM42.388 867.012L43.7922 867.012L43.7922 865.607L42.388 865.607L42.388 867.012ZM42.388 902.67L42.483 904.071L43.7922 903.982L43.7922 902.67L42.388 902.67ZM25.9528 954.177L24.5604 954.358L24.5623 954.373L24.5646 954.388L25.9528 954.177ZM28.7409 964.009L29.9601 963.312L29.9601 963.312L28.7409 964.009ZM32.2627 968.117L31.5552 969.33L31.5759 969.342L31.597 969.354L32.2627 968.117ZM42.2413 967.384L41.3274 966.317L41.3274 966.317L42.2413 967.384ZM45.7631 959.166L44.4008 958.825L44.3971 958.84L44.3938 958.855L45.7631 959.166ZM47.6707 940.53L49.0746 940.564L49.0746 940.563L47.6707 940.53ZM48.111 921.747L46.7072 921.708L46.7071 921.714L48.111 921.747ZM91.1066 869.8L90.7031 871.145L90.7151 871.148L91.1066 869.8ZM100.058 875.082L99.1185 876.126L99.127 876.134L99.1356 876.141L100.058 875.082ZM107.689 885.354L108.956 884.75L108.95 884.738L107.689 885.354ZM112.678 902.67L111.295 902.913L111.296 902.922L111.298 902.931L112.678 902.67ZM107.395 982.645L106.128 982.039L106.123 982.05L107.395 982.645ZM99.4709 993.797L98.528 992.757L98.5192 992.765L98.5105 992.773L99.4709 993.797ZM90.0794 999.814L89.6229 998.486L89.6098 998.49L90.0794 999.814ZM78.7802 1001.43L77.376 1001.43L77.376 1002.83L78.7802 1002.83L78.7802 1001.43ZM78.7802 965.916L78.5493 964.531L77.376 964.727L77.376 965.916L78.7802 965.916ZM81.7151 965.036L81.271 963.704L81.1763 963.735L81.0871 963.78L81.7151 965.036ZM85.0901 962.688L84.1346 961.659L84.1346 961.659L85.0901 962.688ZM88.4652 957.699L87.1745 957.145L87.1745 957.145L88.4652 957.699ZM90.8131 948.454L89.4289 948.218L89.428 948.223L90.8131 948.454ZM90.2261 913.089L88.8553 913.393L88.8585 913.408L88.8621 913.422L90.2261 913.089ZM86.9978 905.018L87.8968 903.939L87.887 903.931L86.9978 905.018ZM77.8997 905.165L77.0008 904.086L76.9753 904.107L76.9509 904.13L77.8997 905.165ZM74.6714 912.502L73.3111 912.153L73.3091 912.161L74.6714 912.502ZM73.0572 928.937L74.4613 928.96L74.4613 928.957L73.0572 928.937ZM72.7637 947.28L74.1677 947.307L74.1678 947.302L72.7637 947.28ZM64.3994 991.303L63.1826 990.602L63.1781 990.61L63.1738 990.617L64.3994 991.303ZM27.4202 1003.63L27.04 1004.98L27.0508 1004.98L27.4202 1003.63ZM17.7352 998.2L16.8425 999.284L16.8425 999.284L17.7352 998.2ZM9.37087 987.194L10.6322 986.577L10.6269 986.566L9.37087 987.194ZM3.79465 968.558L2.41137 968.8L2.41389 968.813L3.79465 968.558ZM3.14449 940.97L3.14449 930.845L0.336016 930.845L0.336015 940.97L3.14449 940.97ZM3.14449 930.845C3.14449 920.061 4.06783 910.681 5.8972 902.69L3.15954 902.063C1.27142 910.311 0.336016 919.91 0.336016 930.845L3.14449 930.845ZM5.8972 902.69C7.74078 894.636 9.94982 888.537 12.4827 884.316L10.0744 882.871C7.32451 887.454 5.03344 893.877 3.15954 902.063L5.8972 902.69ZM12.4827 884.316C15.0369 880.059 18.0894 876.689 21.6302 874.173L20.0035 871.883C16.1092 874.65 12.803 878.323 10.0744 882.871L12.4827 884.316ZM21.5957 874.196C25.3352 871.703 28.6125 870.128 31.4397 869.399L30.7379 866.679C27.4998 867.515 23.9291 869.266 20.0379 871.86L21.5957 874.196ZM31.3981 869.409C34.3196 868.749 37.4435 868.416 40.7738 868.416L40.7738 865.607C37.2561 865.607 33.9233 865.959 30.7795 866.669L31.3981 869.409ZM40.7738 868.416L42.388 868.416L42.388 865.607L40.7738 865.607L40.7738 868.416ZM40.9838 867.012L40.9838 902.67L43.7922 902.67L43.7922 867.012L40.9838 867.012ZM42.293 901.269C36.0043 901.695 31.2604 904.901 28.1625 910.703C25.1167 916.408 23.6681 924.592 23.6681 935.1L26.4766 935.1C26.4766 924.771 27.914 917.132 30.64 912.026C33.3141 907.018 37.2279 904.427 42.483 904.071L42.293 901.269ZM23.6681 935.1L23.6681 937.155L26.4766 937.155L26.4766 935.1L23.6681 935.1ZM23.6681 937.155C23.6681 944.036 23.9627 949.776 24.5604 954.358L27.3452 953.995C26.769 949.577 26.4766 943.969 26.4766 937.155L23.6681 937.155ZM24.5646 954.388C25.2559 958.931 26.2153 962.419 27.5217 964.705L29.9601 963.312C28.9187 961.489 28.0193 958.423 27.3411 953.966L24.5646 954.388ZM27.5217 964.705C28.7391 966.836 30.0637 968.46 31.5552 969.33L32.9703 966.904C32.1139 966.405 31.0906 965.29 29.9601 963.312L27.5217 964.705ZM31.597 969.354C33.1025 970.164 34.805 970.549 36.665 970.549L36.665 967.74C35.1989 967.74 33.9666 967.44 32.9285 966.881L31.597 969.354ZM36.665 970.549C39.2451 970.549 41.4624 969.901 43.1551 968.45L41.3274 966.317C40.2809 967.214 38.7807 967.74 36.665 967.74L36.665 970.549ZM43.1551 968.45C44.0763 967.66 44.8165 966.456 45.4396 965.002C46.0718 963.527 46.6325 961.677 47.1324 959.477L44.3938 958.855C43.9154 960.96 43.3999 962.632 42.8582 963.896C42.3074 965.181 41.7758 965.933 41.3274 966.317L43.1551 968.45ZM47.1254 959.507C48.2393 955.051 48.8781 948.717 49.0746 940.564L46.2669 940.496C46.072 948.582 45.4391 954.672 44.4008 958.825L47.1254 959.507ZM49.0746 940.563L49.5148 921.78L46.7071 921.714L46.2669 940.497L49.0746 940.563ZM49.5147 921.785C50.0013 904.12 52.8984 891.09 58.046 882.519C63.1294 874.054 70.4305 869.883 80.1009 869.883L80.1009 867.075C69.4229 867.075 61.2183 871.782 55.6383 881.073C50.1226 890.257 47.1989 903.862 46.7073 921.708L49.5147 921.785ZM80.1009 869.883L81.4216 869.883L81.4216 867.075L80.1009 867.075L80.1009 869.883ZM81.4216 869.883C84.8267 869.883 87.917 870.309 90.7031 871.145L91.5101 868.455C88.4265 867.53 85.0601 867.075 81.4216 867.075L81.4216 869.883ZM90.7151 871.148C93.5001 871.957 96.3026 873.592 99.1185 876.126L100.997 874.039C97.9435 871.29 94.7784 869.404 91.4981 868.451L90.7151 871.148ZM99.1356 876.141C102.005 878.641 104.441 881.905 106.427 885.971L108.95 884.738C106.827 880.39 104.176 876.807 100.98 874.024L99.1356 876.141ZM106.421 885.959C108.4 890.105 110.034 895.739 111.295 902.913L114.061 902.427C112.778 895.122 111.086 889.213 108.956 884.75L106.421 885.959ZM111.298 902.931C112.647 910.063 113.328 918.386 113.328 927.91L116.136 927.91C116.136 918.26 115.447 909.756 114.058 902.409L111.298 902.931ZM113.328 927.91L113.328 938.035L116.136 938.035L116.136 927.91L113.328 927.91ZM113.328 938.035C113.328 947.953 112.647 956.671 111.296 964.201L114.06 964.697C115.448 956.965 116.136 948.074 116.136 938.035L113.328 938.035ZM111.296 964.201C109.937 971.768 108.205 977.697 106.128 982.039L108.662 983.251C110.89 978.593 112.679 972.391 114.06 964.697L111.296 964.201ZM106.123 982.05C104.034 986.512 101.496 990.067 98.528 992.757L100.414 994.838C103.707 991.853 106.451 987.974 108.667 983.24L106.123 982.05ZM98.5105 992.773C95.4836 995.611 92.5191 997.49 89.6229 998.486L90.5359 1001.14C93.9007 999.985 97.1973 997.854 100.431 994.822L98.5105 992.773ZM89.6098 998.49C86.7415 999.508 83.6245 1000.02 80.2476 1000.02L80.2476 1002.83C83.9144 1002.83 87.3519 1002.27 90.549 1001.14L89.6098 998.49ZM80.2476 1000.02L78.7802 1000.02L78.7802 1002.83L80.2476 1002.83L80.2476 1000.02ZM80.1844 1001.43L80.1844 965.916L77.376 965.916L77.376 1001.43L80.1844 1001.43ZM79.0111 967.301C80.277 967.09 81.3993 966.764 82.343 966.292L81.0871 963.78C80.4655 964.091 79.6313 964.351 78.5493 964.531L79.0111 967.301ZM82.1591 966.368C83.3396 965.974 84.6483 965.014 86.0457 963.717L84.1346 961.659C82.7928 962.905 81.8514 963.51 81.271 963.704L82.1591 966.368ZM86.0456 963.717C87.5843 962.288 88.8131 960.452 89.7559 958.252L87.1745 957.145C86.3565 959.054 85.3352 960.544 84.1346 961.659L86.0456 963.717ZM89.7559 958.252C90.7035 956.041 91.5079 952.827 92.1982 948.685L89.428 948.223C88.7487 952.299 87.9878 955.248 87.1745 957.145L89.7559 958.252ZM92.1973 948.69C92.8989 944.581 93.2445 939.803 93.2445 934.367L90.4361 934.367C90.4361 939.692 90.0969 944.305 89.4289 948.218L92.1973 948.69ZM93.2445 934.367L93.2445 932.019L90.4361 932.019L90.4361 934.367L93.2445 934.367ZM93.2445 932.019C93.2445 923.764 92.7063 917.321 91.5902 912.755L88.8621 913.422C89.8982 917.661 90.4361 923.838 90.4361 932.019L93.2445 932.019ZM91.5969 912.784C91.0993 910.545 90.5663 908.691 89.9891 907.248C89.4291 905.848 88.7607 904.659 87.8968 903.939L86.0988 906.097C86.4088 906.355 86.8655 907.001 87.3815 908.291C87.8805 909.538 88.3747 911.23 88.8553 913.393L91.5969 912.784ZM87.887 903.931C86.4751 902.776 84.5995 902.293 82.4488 902.293L82.4488 905.102C84.2111 905.102 85.3683 905.499 86.1086 906.105L87.887 903.931ZM82.4488 902.293C80.3353 902.293 78.4785 902.855 77.0008 904.086L78.7987 906.244C79.6689 905.518 80.8448 905.102 82.4488 905.102L82.4488 902.293ZM76.9509 904.13C76.155 904.859 75.4972 905.944 74.9269 907.241C74.3472 908.558 73.8113 910.203 73.3112 912.153L76.0316 912.851C76.5098 910.986 77.001 909.5 77.4975 908.372C78.0033 907.222 78.4706 906.546 78.8486 906.2L76.9509 904.13ZM73.3091 912.161C72.2921 916.229 71.7515 921.833 71.6531 928.918L74.4613 928.957C74.5586 921.954 75.0941 916.601 76.0337 912.842L73.3091 912.161ZM71.6532 928.915L71.3597 947.257L74.1678 947.302L74.4613 928.96L71.6532 928.915ZM71.3598 947.253C70.9694 967.551 68.1821 981.923 63.1826 990.602L65.6162 992.004C70.9865 982.682 73.7754 967.706 74.1677 947.307L71.3598 947.253ZM63.1738 990.617C58.3502 999.244 50.8139 1003.55 40.3336 1003.55L40.3336 1006.35C51.7668 1006.35 60.2745 1001.56 65.6251 991.988L63.1738 990.617ZM40.3336 1003.55L38.2792 1003.55L38.2792 1006.35L40.3336 1006.35L40.3336 1003.55ZM38.2792 1003.55C34.3692 1003.55 30.8766 1003.12 27.7897 1002.27L27.0508 1004.98C30.4206 1005.9 34.1673 1006.35 38.2792 1006.35L38.2792 1003.55ZM27.8004 1002.28C24.9078 1001.46 21.8501 999.769 18.6279 997.116L16.8425 999.284C20.2726 1002.11 23.6716 1004.03 27.04 1004.98L27.8004 1002.28ZM18.6279 997.116C15.4829 994.526 12.8104 991.028 10.6322 986.577L8.10956 987.811C10.4314 992.556 13.3352 996.395 16.8425 999.284L18.6279 997.116ZM10.6269 986.566C8.46004 982.232 6.63142 976.164 5.17541 968.302L2.41389 968.813C3.89273 976.799 5.7816 983.155 8.11489 987.822L10.6269 986.566ZM5.17787 968.316C3.82595 960.59 3.14449 951.479 3.14449 940.97L0.336015 940.97C0.336015 951.592 1.02415 960.872 2.41143 968.8L5.17787 968.316Z" fill="white"/>
</svg>
