<svg width="78" height="663" viewBox="0 0 78 663" fill="none" xmlns="http://www.w3.org/2000/svg">
<path d="M4.08608 25.3136L6.15047 25.7862L6.15047 25.7862L4.08608 25.3136ZM8.46991 13.1152L6.65392 12.0256L6.65392 12.0256L8.46991 13.1152ZM14.6644 6.25352L13.4897 4.49141L13.4635 4.50889L13.4378 4.52714L14.6644 6.25352ZM21.3355 3.0133L20.869 0.947524L20.8375 0.954631L20.8063 0.962695L21.3355 3.0133ZM28.6736 2.3462L30.7914 2.3462L30.7914 0.22841L28.6736 0.22841L28.6736 2.3462ZM28.6736 25.5042L28.8169 27.6172L30.7914 27.4833L30.7914 25.5042L28.6736 25.5042ZM18 58.9547L15.9 59.2286L15.9029 59.251L15.9063 59.2733L18 58.9547ZM19.8107 65.3398L21.6494 64.2891L21.6494 64.2891L19.8107 65.3398ZM22.0979 68.0082L21.0308 69.8376L21.062 69.8558L21.0938 69.8729L22.0979 68.0082ZM28.5783 67.5317L27.2001 65.9238L27.2001 65.9238L28.5783 67.5317ZM30.8655 62.1949L28.811 61.6813L28.8054 61.7034L28.8004 61.7256L30.8655 62.1949ZM32.1044 50.0918L34.2216 50.1428L34.2216 50.1414L32.1044 50.0918ZM32.3903 37.8933L30.2733 37.835L30.2731 37.8437L32.3903 37.8933ZM60.3134 4.15691L59.7048 6.18538L59.7139 6.18809L59.7229 6.19072L60.3134 4.15691ZM66.1267 7.58773L64.71 9.16187L64.7228 9.1734L64.7358 9.18471L66.1267 7.58773ZM71.0823 14.2588L72.9936 13.3466L72.9895 13.338L72.9853 13.3294L71.0823 14.2588ZM74.3226 25.5042L72.2367 25.8707L72.2391 25.8843L72.2417 25.8979L74.3226 25.5042ZM74.3226 65.6257L72.2381 65.2516L74.3226 65.6257ZM70.8917 77.443L68.9812 76.5293L68.9774 76.5372L68.9737 76.5452L70.8917 77.443ZM65.7455 84.6858L64.3234 83.1166L64.3101 83.1286L64.2971 83.1408L65.7455 84.6858ZM59.6463 88.5932L58.9578 86.5904L58.9479 86.5938L58.9381 86.5973L59.6463 88.5932ZM52.3081 89.6415L50.1904 89.6415L50.1904 91.7593L52.3081 91.7593L52.3081 89.6415ZM52.3081 66.5787L51.96 64.4898L50.1904 64.7847L50.1904 66.5787L52.3081 66.5787ZM54.2141 66.0069L53.5444 63.9978L53.4017 64.0454L53.267 64.1127L54.2141 66.0069ZM56.4061 64.4821L54.965 62.9302L54.965 62.9302L56.4061 64.4821ZM58.598 61.2419L56.6514 60.4077L56.6514 60.4077L58.598 61.2419ZM60.1228 55.238L58.0352 54.8816L58.0338 54.8898L60.1228 55.238ZM59.7416 32.2706L57.6742 32.73L57.6791 32.7518L57.6844 32.7734L59.7416 32.2706ZM57.645 27.029L59.0007 25.4021L58.9934 25.396L58.986 25.39L57.645 27.029ZM51.7363 27.1243L50.3806 25.4974L50.3422 25.5294L50.3053 25.5632L51.7363 27.1243ZM49.6397 31.8894L47.5883 31.3633L47.5852 31.3757L49.6397 31.8894ZM48.5914 42.563L50.7089 42.5969L50.709 42.5924L48.5914 42.563ZM48.4008 54.4756L50.5182 54.5163L50.5183 54.5095L48.4008 54.4756ZM42.9687 83.0657L41.1336 82.0086L41.1269 82.0203L41.1202 82.0322L42.9687 83.0657ZM18.953 91.071L18.3796 93.1097L18.3876 93.1119L18.3957 93.1141L18.953 91.071ZM12.6631 87.5449L11.3168 89.1796L11.3168 89.1796L12.6631 87.5449ZM7.231 80.3973L9.13323 79.4664L9.12925 79.4583L9.12521 79.4502L7.231 80.3973ZM3.60958 68.2942L1.52349 68.6592L1.52529 68.6695L1.5272 68.6798L3.60958 68.2942ZM4.39316 50.3777L4.39316 43.8019L0.157585 43.8019L0.157585 50.3777L4.39316 50.3777ZM4.39316 43.8019C4.39316 36.8636 4.98764 30.8659 6.15047 25.7862L2.02169 24.8411C0.770247 30.3079 0.157585 36.6358 0.157585 43.8019L4.39316 43.8019ZM6.15047 25.7862C7.33475 20.6128 8.73417 16.791 10.2859 14.2047L6.65392 12.0256C4.77482 15.1574 3.2517 19.4679 2.02169 24.8411L6.15047 25.7862ZM10.2859 14.2047C11.8698 11.5649 13.7434 9.50592 15.8911 7.9799L13.4378 4.52714C10.757 6.43194 8.5008 8.94742 6.65392 12.0256L10.2859 14.2047ZM15.8392 8.01563C18.2026 6.44002 20.205 5.49221 21.8647 5.06391L20.8063 0.962695C18.5269 1.55094 16.0819 2.76327 13.4897 4.49141L15.8392 8.01563ZM21.8019 5.07908C23.6039 4.67219 25.5429 4.46399 27.6253 4.46399L27.6253 0.22841C25.2603 0.22841 23.0062 0.464938 20.869 0.947524L21.8019 5.07908ZM27.6253 4.46399L28.6736 4.46399L28.6736 0.22841L27.6253 0.22841L27.6253 4.46399ZM26.5558 2.3462L26.5558 25.5042L30.7914 25.5042L30.7914 2.3462L26.5558 2.3462ZM28.5304 23.3913C24.0024 23.6983 20.5651 26.0446 18.3714 30.1533C16.2559 34.1152 15.3104 39.6643 15.3104 46.5656L19.5459 46.5656C19.5459 39.9343 20.4746 35.2068 22.1077 32.1483C23.6624 29.2365 25.8478 27.8185 28.8169 27.6172L28.5304 23.3913ZM15.3104 46.5656L15.3104 47.8998L19.5459 47.8998L19.5459 46.5656L15.3104 46.5656ZM15.3104 47.8998C15.3104 52.3977 15.5026 56.182 15.9 59.2286L20.1 58.6808C19.7349 55.8823 19.5459 52.2967 19.5459 47.8998L15.3104 47.8998ZM15.9063 59.2733C16.3608 62.2604 17.0097 64.7068 17.9719 66.3906L21.6494 64.2891C21.0868 63.3045 20.5286 61.4941 20.0936 58.6361L15.9063 59.2733ZM17.9719 66.3906C18.7998 67.8394 19.7895 69.1135 21.0308 69.8376L23.165 66.1789C22.8815 66.0136 22.3463 65.5087 21.6494 64.2891L17.9719 66.3906ZM21.0938 69.8729C22.2722 70.5074 23.5798 70.7931 24.9569 70.7931L24.9569 66.5576C24.1738 66.5576 23.5754 66.3985 23.1019 66.1436L21.0938 69.8729ZM24.9569 70.7931C26.8319 70.7931 28.5798 70.3197 29.9566 69.1397L27.2001 65.9238C26.7979 66.2686 26.1315 66.5576 24.9569 66.5576L24.9569 70.7931ZM29.9565 69.1397C30.7578 68.453 31.3281 67.4765 31.7638 66.46C32.2132 65.4112 32.5967 64.1335 32.9307 62.6643L28.8004 61.7256C28.499 63.0518 28.1836 64.0613 27.8707 64.7915C27.5439 65.5539 27.2883 65.8481 27.2001 65.9238L29.9565 69.1397ZM32.9201 62.7086C33.6759 59.6852 34.0933 55.4662 34.2216 50.1428L29.9873 50.0407C29.8614 55.2639 29.4529 59.1137 28.811 61.6813L32.9201 62.7086ZM34.2216 50.1414L34.5075 37.9429L30.2731 37.8437L29.9872 50.0421L34.2216 50.1414ZM34.5073 37.9516C34.8212 26.5567 36.6913 18.3415 39.8763 13.0381C42.9644 7.89585 47.3181 5.41699 53.1658 5.41699L53.1658 1.18142C45.7986 1.18142 40.0822 4.46824 36.2452 10.8574C32.505 17.0853 30.5948 26.1671 30.2733 37.835L34.5073 37.9516ZM53.1658 5.41699L54.0236 5.41699L54.0236 1.18142L53.1658 1.18142L53.1658 5.41699ZM54.0236 5.41699C56.1348 5.41699 58.0232 5.68088 59.7048 6.18538L60.9219 2.12844C58.7916 1.48933 56.4868 1.18142 54.0236 1.18142L54.0236 5.41699ZM59.7229 6.19072C61.319 6.6541 62.9834 7.60789 64.71 9.16187L67.5434 6.01359C65.4581 4.13674 63.2468 2.80332 60.9038 2.1231L59.7229 6.19072ZM64.7358 9.18471C66.4596 10.6861 67.9493 12.6694 69.1794 15.1881L72.9853 13.3294C71.547 10.3842 69.7329 7.92018 67.5176 5.99074L64.7358 9.18471ZM69.1711 15.171C70.3908 17.7265 71.4281 21.2679 72.2367 25.8707L76.4084 25.1378C75.5651 20.3376 74.4423 16.382 72.9936 13.3466L69.1711 15.171ZM72.2417 25.8979C73.1006 30.4376 73.539 35.7646 73.539 41.8959L77.7746 41.8959C77.7746 35.5746 77.3235 29.9738 76.4034 25.1105L72.2417 25.8979ZM73.539 41.8959L73.539 48.4716L77.7746 48.4716L77.7746 41.8959L73.539 41.8959ZM73.539 48.4716C73.539 54.8603 73.1001 60.4487 72.2381 65.2516L76.407 65.9999C77.3239 60.8915 77.7746 55.0439 77.7746 48.4716L73.539 48.4716ZM72.2381 65.2516C71.3658 70.1114 70.2649 73.8451 68.9812 76.5293L72.8023 78.3567C74.314 75.1958 75.5004 71.0513 76.407 65.9999L72.2381 65.2516ZM68.9737 76.5452C67.6716 79.327 66.1108 81.4968 64.3234 83.1166L67.1677 86.2551C69.4464 84.1899 71.3164 81.5312 72.8098 78.3408L68.9737 76.5452ZM64.2971 83.1408C62.4202 84.9004 60.6375 86.013 58.9578 86.5904L60.3347 90.5959C62.7212 89.7756 65.0047 88.2833 67.194 86.2308L64.2971 83.1408ZM58.9381 86.5973C57.2164 87.2082 55.3298 87.5237 53.2611 87.5237L53.2611 91.7593C55.7669 91.7593 58.1371 91.3759 60.3545 90.589L58.9381 86.5973ZM53.2611 87.5237L52.3081 87.5237L52.3081 91.7593L53.2611 91.7593L53.2611 87.5237ZM54.4259 89.6415L54.4259 66.5787L50.1904 66.5787L50.1904 89.6415L54.4259 89.6415ZM52.6563 68.6677C53.5574 68.5175 54.41 68.2768 55.1613 67.9011L53.267 64.1127C53.0017 64.2454 52.5837 64.3858 51.96 64.4898L52.6563 68.6677ZM54.8839 68.0161C55.9082 67.6746 56.9158 66.8988 57.8471 66.034L54.965 62.9302C54.1174 63.7173 53.6637 63.9581 53.5444 63.9978L54.8839 68.0161ZM57.8471 66.034C58.9915 64.9714 59.8786 63.6299 60.5445 62.0762L56.6514 60.4077C56.1737 61.5223 55.5995 62.341 54.965 62.9302L57.8471 66.034ZM60.5445 62.0762C61.2176 60.5056 61.7587 58.3045 62.2118 55.5861L58.0338 54.8898C57.5974 57.5083 57.1219 59.3098 56.6514 60.4077L60.5445 62.0762ZM62.2104 55.5944C62.6804 52.8412 62.9077 49.6673 62.9077 46.0891L58.6721 46.0891C58.6721 49.4997 58.4546 52.425 58.0352 54.8816L62.2104 55.5944ZM62.9077 46.0891L62.9077 44.5643L58.6721 44.5643L58.6721 46.0891L62.9077 46.0891ZM62.9077 44.5643C62.9077 39.1713 62.558 34.8735 61.7988 31.7677L57.6844 32.7734C58.3229 35.3856 58.6721 39.2837 58.6721 44.5643L62.9077 44.5643ZM61.8089 31.8111C61.4785 30.3242 61.1157 29.0505 60.7072 28.0294C60.3247 27.073 59.7997 26.0679 59.0007 25.4021L56.2892 28.656C56.2526 28.6255 56.4583 28.8117 56.7746 29.6024C57.065 30.3285 57.3693 31.3579 57.6742 32.73L61.8089 31.8111ZM58.986 25.39C57.7808 24.4038 56.2542 24.0535 54.6907 24.0535L54.6907 28.2891C55.6684 28.2891 56.1115 28.5106 56.3039 28.6681L58.986 25.39ZM54.6907 24.0535C53.0993 24.0535 51.6011 24.4803 50.3806 25.4974L53.0921 28.7513C53.3964 28.4977 53.8677 28.2891 54.6907 28.2891L54.6907 24.0535ZM50.3053 25.5632C49.609 26.2015 49.1001 27.082 48.7019 27.9868C48.2898 28.9235 47.9226 30.0598 47.5883 31.3634L51.6912 32.4154C51.9922 31.2411 52.2921 30.3443 52.5788 29.6927C52.8796 29.0091 53.1013 28.7461 53.1674 28.6855L50.3053 25.5632ZM47.5852 31.3757C46.8914 34.1506 46.5382 37.8977 46.4738 42.5336L50.709 42.5924C50.7717 38.0795 51.1173 34.7108 51.6943 32.403L47.5852 31.3757ZM46.4739 42.5291L46.2833 54.4417L50.5183 54.5095L50.7089 42.5969L46.4739 42.5291ZM46.2834 54.4349C46.0307 67.574 44.2212 76.649 41.1336 82.0086L44.8038 84.1229C48.4507 77.7923 50.2626 67.8071 50.5182 54.5163L46.2834 54.4349ZM41.1202 82.0322C38.2139 87.2301 33.7366 89.8109 27.3394 89.8109L27.3394 94.0465C35.1737 94.0465 41.116 90.7187 44.8172 84.0993L41.1202 82.0322ZM27.3394 89.8109L26.0052 89.8109L26.0052 94.0465L27.3394 94.0465L27.3394 89.8109ZM26.0052 89.8109C23.5525 89.8109 21.3934 89.5414 19.5102 89.0278L18.3957 93.1141C20.7057 93.7441 23.2481 94.0465 26.0052 94.0465L26.0052 89.8109ZM19.5263 89.0323C17.8521 88.5614 16.0128 87.5599 14.0094 85.9101L11.3168 89.1796C13.6337 91.0877 15.9877 92.4369 18.3796 93.1097L19.5263 89.0323ZM14.0094 85.9101C12.1225 84.3561 10.4862 82.2313 9.13323 79.4664L5.32877 81.3282C6.89831 84.5355 8.88351 87.1757 11.3168 89.1796L14.0094 85.9101ZM9.12521 79.4502C7.78946 76.7787 6.62776 72.9618 5.69196 67.9085L1.5272 68.6798C2.49741 73.919 3.74999 78.1708 5.33679 81.3444L9.12521 79.4502ZM5.69567 67.9291C4.83287 62.9988 4.39316 57.1542 4.39316 50.3777L0.157585 50.3777C0.157584 57.3244 0.607346 63.4241 1.52349 68.6592L5.69567 67.9291ZM3.51428 134.622L3.51428 132.504L1.39649 132.504L1.39649 134.622L3.51428 134.622ZM57.645 134.622L57.645 136.74L59.7628 136.74L59.7628 134.622L57.645 134.622ZM57.645 104.126L57.645 102.008L55.5272 102.008L55.5272 104.126L57.645 104.126ZM74.4179 104.126L76.5356 104.126L76.5356 102.008L74.4179 102.008L74.4179 104.126ZM74.4179 187.609L74.4179 189.727L76.5356 189.727L76.5356 187.609L74.4179 187.609ZM57.645 187.609L55.5272 187.609L55.5272 189.727L57.645 189.727L57.645 187.609ZM57.645 157.017L59.7628 157.017L59.7628 154.9L57.645 154.9L57.645 157.017ZM3.51428 157.017L1.39649 157.017L1.39649 159.135L3.51428 159.135L3.51428 157.017ZM3.51428 136.74L57.645 136.74L57.645 132.504L3.51428 132.504L3.51428 136.74ZM59.7628 134.622L59.7628 104.126L55.5272 104.126L55.5272 134.622L59.7628 134.622ZM57.645 106.243L74.4179 106.243L74.4179 102.008L57.645 102.008L57.645 106.243ZM72.3001 104.126L72.3001 187.609L76.5356 187.609L76.5356 104.126L72.3001 104.126ZM74.4179 185.491L57.645 185.491L57.645 189.727L74.4179 189.727L74.4179 185.491ZM59.7628 187.609L59.7628 157.017L55.5272 157.017L55.5272 187.609L59.7628 187.609ZM57.645 154.9L3.51428 154.9L3.51428 159.135L57.645 159.135L57.645 154.9ZM5.63206 157.017L5.63207 134.622L1.39649 134.622L1.39649 157.017L5.63206 157.017ZM74.4179 227.41L74.4179 229.528L76.5356 229.528L76.5356 227.41L74.4179 227.41ZM3.51427 227.41L1.39648 227.41L1.39648 229.528L3.51427 229.528L3.51427 227.41ZM3.51427 205.205L3.51427 203.087L1.39648 203.087L1.39648 205.205L3.51427 205.205ZM74.4179 205.205L76.5356 205.205L76.5356 203.087L74.4179 203.087L74.4179 205.205ZM74.4179 225.292L3.51427 225.292L3.51427 229.528L74.4179 229.528L74.4179 225.292ZM5.63206 227.41L5.63206 205.205L1.39648 205.205L1.39648 227.41L5.63206 227.41ZM3.51427 207.323L74.4179 207.323L74.4179 203.087L3.51427 203.087L3.51427 207.323ZM72.3001 205.205L72.3001 227.41L76.5356 227.41L76.5356 205.205L72.3001 205.205ZM74.4178 247.774L76.5356 247.774L76.5356 245.656L74.4179 245.656L74.4178 247.774ZM74.4178 272.552L75.9264 274.039L76.5356 273.42L76.5356 272.552L74.4178 272.552ZM29.8172 317.82L28.3086 316.334L24.7576 319.938L29.8172 319.938L29.8172 317.82ZM74.4178 317.82L76.5356 317.82L76.5356 315.702L74.4178 315.702L74.4178 317.82ZM74.4178 339.739L74.4178 341.857L76.5356 341.857L76.5356 339.739L74.4178 339.739ZM3.51427 339.739L1.39648 339.739L1.39648 341.857L3.51427 341.857L3.51427 339.739ZM3.51427 317.82L1.99887 316.341L1.39648 316.958L1.39648 317.82L3.51427 317.82ZM50.4974 269.693L52.0128 271.173L55.5245 267.575L50.4974 267.575L50.4974 269.693ZM3.51427 269.693L1.39648 269.693L1.39648 271.811L3.51427 271.811L3.51427 269.693ZM3.51427 247.774L3.51427 245.656L1.39648 245.656L1.39648 247.774L3.51427 247.774ZM72.3001 247.774L72.3001 272.552L76.5356 272.552L76.5356 247.774L72.3001 247.774ZM72.9093 271.066L28.3086 316.334L31.3258 319.306L75.9264 274.039L72.9093 271.066ZM29.8172 319.938L74.4178 319.938L74.4178 315.702L29.8172 315.702L29.8172 319.938ZM72.3001 317.82L72.3001 339.739L76.5356 339.739L76.5356 317.82L72.3001 317.82ZM74.4178 337.621L3.51427 337.621L3.51427 341.857L74.4178 341.857L74.4178 337.621ZM5.63206 339.739L5.63206 317.82L1.39648 317.82L1.39648 339.739L5.63206 339.739ZM5.02967 319.299L52.0128 271.173L48.982 268.214L1.99887 316.341L5.02967 319.299ZM50.4974 267.575L3.51427 267.575L3.51427 271.811L50.4974 271.811L50.4974 267.575ZM5.63206 269.693L5.63206 247.774L1.39648 247.774L1.39648 269.693L5.63206 269.693ZM3.51427 249.892L74.4178 249.892L74.4179 245.656L3.51427 245.656L3.51427 249.892ZM4.65787 384.921L2.61734 384.354L2.61734 384.354L4.65787 384.921ZM10.6618 371.198L8.95606 369.943L8.94277 369.961L8.92986 369.979L10.6618 371.198ZM19.2389 362.907L18.0799 361.134L18.072 361.139L18.0641 361.145L19.2389 362.907ZM28.6736 358.428L28.16 356.373L28.1344 356.379L28.109 356.386L28.6736 358.428ZM49.5444 358.237L50.037 356.177L50.0204 356.173L50.0038 356.17L49.5444 358.237ZM58.7886 362.43L59.9475 360.658L59.9391 360.652L58.7886 362.43ZM67.2703 370.721L65.5338 371.934L65.5414 371.945L65.5492 371.955L67.2703 370.721ZM73.2742 384.635L75.3209 384.091L75.3194 384.085L73.2742 384.635ZM73.7507 429.426L75.8192 429.881L75.8192 429.881L73.7507 429.426ZM68.9857 442.959L67.1603 441.885L67.148 441.906L67.1361 441.928L68.9857 442.959ZM62.3147 451.06L60.9868 449.41L60.9768 449.418L60.967 449.426L62.3147 451.06ZM55.2624 455.253L54.6105 453.238L54.6016 453.241L54.5927 453.244L55.2624 455.253ZM48.782 456.397L48.782 458.514L48.8123 458.514L48.8425 458.513L48.782 456.397ZM48.6867 456.397L46.5689 456.397L46.5689 458.514L48.6867 458.514L48.6867 456.397ZM48.6867 432.762L47.9888 430.763L46.5689 431.258L46.5689 432.762L48.6867 432.762ZM25.1475 387.113L23.5379 385.737L23.533 385.742L23.5282 385.748L25.1475 387.113ZM20.3825 418.181L18.2957 418.542L18.2957 418.542L20.3825 418.181ZM22.4791 426.091L24.4321 425.272L24.4321 425.272L22.4791 426.091ZM25.1475 431.047L23.4242 432.278L23.4294 432.285L23.4347 432.292L25.1475 431.047ZM27.8159 433.906L29.0866 432.211L29.0395 432.176L28.9906 432.143L27.8159 433.906ZM29.8172 434.763L29.8172 436.881L31.935 436.881L31.935 434.763L29.8172 434.763ZM29.8172 406.936L29.8172 404.818L27.6994 404.818L27.6994 406.936L29.8172 406.936ZM43.2546 406.936L45.3724 406.936L45.3724 404.818L43.2546 404.818L43.2546 406.936ZM43.2546 456.873L43.2546 458.991L45.3724 458.991L45.3724 456.873L43.2546 456.873ZM3.51426 456.873L1.39647 456.873L1.39647 458.991L3.51426 458.991L3.51426 456.873ZM3.51426 443.531L3.26885 441.427L1.39647 441.646L1.39647 443.531L3.51426 443.531ZM14.5691 440.672L15.3737 442.631L18.5522 441.325L15.9575 439.073L14.5691 440.672ZM4.39315 406.554L4.39315 404.553L0.157569 404.553L0.157569 406.554L4.39315 406.554ZM4.39315 404.553C4.39315 397.331 5.17194 390.983 6.6984 385.488L2.61734 384.354C0.967121 390.295 0.157569 397.036 0.157569 404.553L4.39315 404.553ZM6.6984 385.488C8.24662 379.914 10.1636 375.586 12.3937 372.417L8.92986 369.979C6.33148 373.672 4.24581 378.492 2.61734 384.354L6.6984 385.488ZM12.3676 372.453C14.71 369.27 17.3932 366.682 20.4136 364.669L18.0641 361.145C14.6041 363.451 11.5692 366.391 8.95606 369.943L12.3676 372.453ZM20.3978 364.679C23.5661 362.608 26.5115 361.223 29.2382 360.469L28.109 356.386C24.8635 357.284 21.5191 358.885 18.0799 361.134L20.3978 364.679ZM29.1872 360.482C32.0705 359.761 34.9794 359.402 37.9178 359.402L37.9178 355.166C34.6298 355.166 31.3759 355.569 28.16 356.373L29.1872 360.482ZM37.9178 359.402L40.5862 359.402L40.5862 355.166L37.9178 355.166L37.9178 359.402ZM40.5862 359.402C43.5545 359.402 46.386 359.705 49.085 360.304L50.0038 356.17C46.9848 355.499 43.8442 355.166 40.5862 355.166L40.5862 359.402ZM49.0519 360.297C51.685 360.926 54.5451 362.207 57.6381 364.208L59.9391 360.652C56.5516 358.46 53.249 356.945 50.037 356.177L49.0519 360.297ZM57.6296 364.203C60.6977 366.209 63.3316 368.779 65.5338 371.934L69.0068 369.509C66.5075 365.929 63.4869 362.972 59.9475 360.658L57.6296 364.203ZM65.5492 371.955C67.7624 375.042 69.6782 379.416 71.2291 385.185L75.3194 384.085C73.6936 378.037 71.6068 373.135 68.9914 369.487L65.5492 371.955ZM71.2276 385.18C72.7582 390.935 73.539 397.639 73.539 405.315L77.7745 405.315C77.7745 397.363 76.967 390.28 75.3209 384.091L71.2276 385.18ZM73.539 405.315L73.539 409.413L77.7745 409.413L77.7745 405.315L73.539 405.315ZM73.539 409.413C73.539 416.861 72.9126 423.374 71.6823 428.972L75.8192 429.881C77.1302 423.916 77.7745 417.087 77.7745 409.413L73.539 409.413ZM71.6823 428.972C70.4353 434.646 68.9075 438.915 67.1603 441.885L70.8111 444.033C72.8759 440.523 74.5248 435.77 75.8192 429.881L71.6823 428.972ZM67.1361 441.928C65.4089 445.025 63.3536 447.505 60.9868 449.41L63.6426 452.709C66.4855 450.421 68.8776 447.501 70.8353 443.991L67.1361 441.928ZM60.967 449.426C58.5465 451.423 56.4297 452.649 54.6105 453.238L55.9143 457.268C58.4155 456.459 61.0001 454.89 63.6624 452.693L60.967 449.426ZM54.5927 453.244C52.6941 453.877 50.7393 454.222 48.7215 454.28L48.8425 458.513C51.272 458.444 53.6375 458.027 55.9321 457.262L54.5927 453.244ZM48.782 454.279L48.6867 454.279L48.6867 458.514L48.782 458.514L48.782 454.279ZM50.8045 456.397L50.8045 432.762L46.5689 432.762L46.5689 456.397L50.8045 456.397ZM49.3846 434.761C53.4797 433.332 56.3845 430.084 58.2294 425.472C60.055 420.908 60.9064 414.878 60.9064 407.507L56.6708 407.507C56.6708 414.623 55.8385 420.044 54.2968 423.899C52.7744 427.705 50.6283 429.841 47.9888 430.763L49.3846 434.761ZM60.9064 407.507C60.9064 398.331 59.2885 391.069 55.7263 386.054C52.0695 380.905 46.5797 378.42 39.6332 378.42L39.6332 382.655C45.4569 382.655 49.5447 384.665 52.2731 388.506C55.096 392.481 56.6708 398.704 56.6708 407.507L60.9064 407.507ZM39.6332 378.42L38.5849 378.42L38.5849 382.655L39.6332 382.655L39.6332 378.42ZM38.5849 378.42C32.685 378.42 27.6402 380.939 23.5379 385.737L26.7571 388.489C30.1517 384.519 34.0652 382.655 38.5849 382.655L38.5849 378.42ZM23.5282 385.748C19.3218 390.739 17.407 398.057 17.407 407.317L21.6425 407.317C21.6425 398.533 23.4762 392.382 26.7668 388.478L23.5282 385.748ZM17.407 407.317C17.407 411.357 17.7 415.101 18.2957 418.542L22.4692 417.82C21.9213 414.654 21.6425 411.155 21.6425 407.317L17.407 407.317ZM18.2957 418.542C18.8812 421.925 19.6139 424.735 20.5261 426.91L24.4321 425.272C23.6924 423.508 23.0273 421.045 22.4692 417.82L18.2957 418.542ZM20.5261 426.91C21.3957 428.984 22.3568 430.783 23.4242 432.278L26.8708 429.816C26.0322 428.642 25.2143 427.137 24.4321 425.272L20.5261 426.91ZM23.4347 432.292C24.4919 433.746 25.5595 434.947 26.6412 435.668L28.9906 432.143C28.5475 431.848 27.8361 431.143 26.8602 429.801L23.4347 432.292ZM26.5452 435.6C27.3358 436.193 28.4304 436.881 29.6266 436.881L29.6266 432.646C29.7398 432.646 29.8085 432.663 29.8205 432.667C29.833 432.67 29.8099 432.665 29.747 432.635C29.6151 432.572 29.3979 432.445 29.0866 432.211L26.5452 435.6ZM29.6266 436.881L29.8172 436.881L29.8172 432.646L29.6266 432.646L29.6266 436.881ZM31.935 434.763L31.935 406.936L27.6994 406.936L27.6994 434.763L31.935 434.763ZM29.8172 409.053L43.2546 409.053L43.2546 404.818L29.8172 404.818L29.8172 409.053ZM41.1368 406.936L41.1368 456.873L45.3724 456.873L45.3724 406.936L41.1368 406.936ZM43.2546 454.755L3.51426 454.755L3.51426 458.991L43.2546 458.991L43.2546 454.755ZM5.63205 456.873L5.63205 443.531L1.39647 443.531L1.39647 456.873L5.63205 456.873ZM3.75967 445.634C7.76424 445.167 11.6373 444.166 15.3737 442.631L13.7645 438.713C10.3852 440.101 6.88833 441.005 3.26885 441.427L3.75967 445.634ZM15.9575 439.073C8.39979 432.511 4.39315 421.847 4.39315 406.554L0.157569 406.554C0.157568 422.52 4.34677 434.601 13.1807 442.271L15.9575 439.073ZM74.4178 476.514L76.5356 476.514L76.5356 474.396L74.4178 474.396L74.4178 476.514ZM74.4178 551.229L74.4178 553.347L76.5356 553.347L76.5356 551.229L74.4178 551.229ZM58.3121 551.229L56.1943 551.229L56.1943 553.347L58.3121 553.347L58.3121 551.229ZM58.3121 498.433L60.4298 498.433L60.4298 496.315L58.3121 496.315L58.3121 498.433ZM47.829 498.433L47.829 496.315L45.7112 496.315L45.7112 498.433L47.829 498.433ZM47.829 549.991L47.829 552.108L49.9468 552.108L49.9468 549.991L47.829 549.991ZM31.6279 549.991L29.5101 549.991L29.5101 552.108L31.6279 552.108L31.6279 549.991ZM31.6279 498.433L33.7457 498.433L33.7457 496.315L31.6279 496.315L31.6279 498.433ZM20.0012 498.433L20.0012 496.315L17.8835 496.315L17.8835 498.433L20.0012 498.433ZM20.0012 552.182L20.0012 554.3L22.119 554.3L22.119 552.182L20.0012 552.182ZM3.51426 552.182L1.39647 552.182L1.39647 554.3L3.51426 554.3L3.51426 552.182ZM3.51426 476.514L3.51426 474.396L1.39647 474.396L1.39647 476.514L3.51426 476.514ZM72.3001 476.514L72.3 551.229L76.5356 551.229L76.5356 476.514L72.3001 476.514ZM74.4178 549.112L58.3121 549.112L58.3121 553.347L74.4178 553.347L74.4178 549.112ZM60.4298 551.229L60.4298 498.433L56.1943 498.433L56.1943 551.229L60.4298 551.229ZM58.3121 496.315L47.829 496.315L47.829 500.551L58.3121 500.551L58.3121 496.315ZM45.7112 498.433L45.7112 549.991L49.9468 549.991L49.9468 498.433L45.7112 498.433ZM47.829 547.873L31.6279 547.873L31.6279 552.108L47.829 552.108L47.829 547.873ZM33.7457 549.991L33.7457 498.433L29.5101 498.433L29.5101 549.991L33.7457 549.991ZM31.6279 496.315L20.0012 496.315L20.0012 500.551L31.6279 500.551L31.6279 496.315ZM17.8835 498.433L17.8835 552.182L22.119 552.182L22.119 498.433L17.8835 498.433ZM20.0012 550.065L3.51426 550.065L3.51426 554.3L20.0012 554.3L20.0012 550.065ZM5.63205 552.182L5.63205 476.514L1.39647 476.514L1.39647 552.182L5.63205 552.182ZM3.51426 478.632L74.4178 478.632L74.4178 474.396L3.51426 474.396L3.51426 478.632ZM58.3121 593.126L60.4298 593.126L60.4298 591.008L58.3121 591.008L58.3121 593.126ZM44.3982 593.126L44.3982 591.008L42.2804 591.008L42.2804 593.126L44.3982 593.126ZM46.3042 633.533L47.9023 632.144L47.9023 632.144L46.3042 633.533ZM56.406 633.533L54.8079 632.144L54.8079 632.144L56.406 633.533ZM28.6736 593.126L30.7914 593.126L30.7914 591.008L28.6736 591.008L28.6736 593.126ZM3.51426 593.126L1.39647 593.126L1.39647 595.244L3.51426 595.244L3.51426 593.126ZM3.51426 570.921L3.51426 568.803L1.39647 568.803L1.39647 570.921L3.51426 570.921ZM74.4178 570.921L76.5356 570.921L76.5356 568.803L74.4178 568.803L74.4178 570.921ZM39.3472 645.732L41.3607 645.075L39.2136 638.491L37.3109 645.15L39.3472 645.732ZM33.5339 655.452L32.1112 653.884L32.102 653.892L32.0929 653.901L33.5339 655.452ZM3.99076 660.503L3.99076 662.621L4.5633 662.621L5.05785 662.333L3.99076 660.503ZM3.51425 660.503L1.39646 660.503L1.39646 662.621L3.51425 662.621L3.51425 660.503ZM3.51425 637.917L2.20584 636.252L1.39647 636.888L1.39647 637.917L3.51425 637.917ZM25.7193 633.533L27.3046 634.938L27.3046 634.938L25.7193 633.533ZM58.3121 591.008L44.3982 591.008L44.3982 595.244L58.3121 595.244L58.3121 591.008ZM42.2804 593.126L42.2804 626.767L46.516 626.767L46.516 593.126L42.2804 593.126ZM42.2804 626.767C42.2804 630.049 42.954 632.908 44.7061 634.923L47.9023 632.144C47.113 631.236 46.516 629.585 46.516 626.767L42.2804 626.767ZM44.7061 634.923C46.4151 636.888 48.7028 637.843 51.3551 637.843L51.3551 633.607C49.8142 633.607 48.7346 633.101 47.9023 632.144L44.7061 634.923ZM51.3551 637.843L51.4504 637.843L51.4504 633.607L51.3551 633.607L51.3551 637.843ZM51.4504 637.843C54.0616 637.843 56.3089 636.872 58.0041 634.923L54.8079 632.144C53.9618 633.117 52.9053 633.607 51.4504 633.607L51.4504 637.843ZM58.0041 634.923C59.7562 632.908 60.4298 630.049 60.4298 626.767L56.1943 626.767C56.1943 629.585 55.5972 631.236 54.8079 632.144L58.0041 634.923ZM60.4298 626.767L60.4298 593.126L56.1943 593.126L56.1943 626.767L60.4298 626.767ZM28.6736 591.008L3.51426 591.008L3.51426 595.244L28.6736 595.244L28.6736 591.008ZM5.63205 593.126L5.63205 570.921L1.39647 570.921L1.39647 593.126L5.63205 593.126ZM3.51426 573.039L74.4178 573.039L74.4178 568.803L3.51426 568.803L3.51426 573.039ZM72.3 570.921L72.3 628.101L76.5356 628.101L76.5356 570.921L72.3 570.921ZM72.3 628.101C72.3 638.22 70.7761 645.458 68.0016 650.101C65.3304 654.572 61.4342 656.765 56.0248 656.765L56.0248 661.001C62.8774 661.001 68.1778 658.064 71.6376 652.274C74.994 646.657 76.5356 638.504 76.5356 628.101L72.3 628.101ZM56.0248 656.765L54.8812 656.765L54.8812 661.001L56.0248 661.001L56.0248 656.765ZM54.8812 656.765C51.5775 656.765 48.9091 655.813 46.7434 653.979C44.5437 652.117 42.7107 649.215 41.3607 645.075L37.3338 646.388C38.8428 651.016 41.0283 654.69 44.0066 657.212C47.0189 659.762 50.688 661.001 54.8812 661.001L54.8812 656.765ZM37.3109 645.15C36.2615 648.823 34.5142 651.704 32.1112 653.884L34.9567 657.021C38.0175 654.245 40.1458 650.646 41.3836 646.314L37.3109 645.15ZM32.0929 653.901C29.8874 655.948 26.9424 657.051 23.0509 657.051L23.0509 661.287C27.7999 661.287 31.8436 659.912 34.975 657.004L32.0929 653.901ZM23.0509 657.051L12.6631 657.051L12.6631 661.287L23.0509 661.287L23.0509 657.051ZM12.6631 657.051C10.4708 657.051 8.56839 657.165 6.98042 657.41C5.42204 657.649 4.01774 658.036 2.92366 658.674L5.05785 662.333C5.48858 662.081 6.29207 661.801 7.62447 661.596C8.92729 661.395 10.5986 661.287 12.6631 661.287L12.6631 657.051ZM3.99076 658.386L3.51425 658.386L3.51425 662.621L3.99076 662.621L3.99076 658.386ZM5.63204 660.503L5.63204 637.917L1.39647 637.917L1.39646 660.503L5.63204 660.503ZM4.82267 639.582C5.13333 639.338 6.01799 638.987 7.99338 638.987L7.99338 634.751C5.77554 634.751 3.67412 635.098 2.20584 636.252L4.82267 639.582ZM7.99338 638.987L16.1892 638.987L16.1892 634.751L7.99338 634.751L7.99338 638.987ZM16.1892 638.987C20.8868 638.987 24.7732 637.796 27.3046 634.938L24.1339 632.129C22.7263 633.718 20.2593 634.751 16.1892 634.751L16.1892 638.987ZM27.3046 634.938C29.8046 632.115 30.7914 627.637 30.7914 622.097L26.5558 622.097C26.5558 627.358 25.5731 630.504 24.1339 632.129L27.3046 634.938ZM30.7914 622.097L30.7914 593.126L26.5558 593.126L26.5558 622.097L30.7914 622.097Z" fill="#F14251"/>
</svg>
